<?xml version="1.0" encoding="utf-8" standalone="no"?>
<!DOCTYPE svg PUBLIC "-//W3C//DTD SVG 1.1//EN"
  "http://www.w3.org/Graphics/SVG/1.1/DTD/svg11.dtd">
<!-- Created with matplotlib (https://matplotlib.org/) -->
<svg height="504pt" version="1.1" viewBox="0 0 720 504" width="720pt" xmlns="http://www.w3.org/2000/svg" xmlns:xlink="http://www.w3.org/1999/xlink">
 <defs>
  <style type="text/css">
*{stroke-linecap:butt;stroke-linejoin:round;}
  </style>
 </defs>
 <g id="figure_1">
  <g id="patch_1">
   <path d="M 0 504 
L 720 504 
L 720 0 
L 0 0 
z
" style="fill:#ffffff;"/>
  </g>
  <g id="axes_1">
   <g id="patch_2">
    <path d="M 71.725 223.85 
L 709.2 223.85 
L 709.2 10.8 
L 71.725 10.8 
z
" style="fill:#ffffff;"/>
   </g>
   <g id="PathCollection_1">
    <defs>
     <path d="M 0 3 
C 0.795609 3 1.55874 2.683901 2.12132 2.12132 
C 2.683901 1.55874 3 0.795609 3 0 
C 3 -0.795609 2.683901 -1.55874 2.12132 -2.12132 
C 1.55874 -2.683901 0.795609 -3 0 -3 
C -0.795609 -3 -1.55874 -2.683901 -2.12132 -2.12132 
C -2.683901 -1.55874 -3 -0.795609 -3 0 
C -3 0.795609 -2.683901 1.55874 -2.12132 2.12132 
C -1.55874 2.683901 -0.795609 3 0 3 
z
" id="mb373eaf8d2" style="stroke:#1f77b4;stroke-opacity:0.4;"/>
    </defs>
    <g clip-path="url(#p75bd93a82e)">
     <use style="fill:#1f77b4;fill-opacity:0.4;stroke:#1f77b4;stroke-opacity:0.4;" x="460.268647" xlink:href="#mb373eaf8d2" y="80.800231"/>
     <use style="fill:#1f77b4;fill-opacity:0.4;stroke:#1f77b4;stroke-opacity:0.4;" x="452.366064" xlink:href="#mb373eaf8d2" y="92.831692"/>
     <use style="fill:#1f77b4;fill-opacity:0.4;stroke:#1f77b4;stroke-opacity:0.4;" x="449.60016" xlink:href="#mb373eaf8d2" y="85.490462"/>
     <use style="fill:#1f77b4;fill-opacity:0.4;stroke:#1f77b4;stroke-opacity:0.4;" x="447.492805" xlink:href="#mb373eaf8d2" y="78.353155"/>
     <use style="fill:#1f77b4;fill-opacity:0.4;stroke:#1f77b4;stroke-opacity:0.4;" x="445.25374" xlink:href="#mb373eaf8d2" y="97.114076"/>
     <use style="fill:#1f77b4;fill-opacity:0.4;stroke:#1f77b4;stroke-opacity:0.4;" x="443.541513" xlink:href="#mb373eaf8d2" y="96.910153"/>
     <use style="fill:#1f77b4;fill-opacity:0.4;stroke:#1f77b4;stroke-opacity:0.4;" x="430.502252" xlink:href="#mb373eaf8d2" y="102.823921"/>
     <use style="fill:#1f77b4;fill-opacity:0.4;stroke:#1f77b4;stroke-opacity:0.4;" x="414.038538" xlink:href="#mb373eaf8d2" y="96.70623"/>
     <use style="fill:#1f77b4;fill-opacity:0.4;stroke:#1f77b4;stroke-opacity:0.4;" x="394.545501" xlink:href="#mb373eaf8d2" y="93.239538"/>
     <use style="fill:#1f77b4;fill-opacity:0.4;stroke:#1f77b4;stroke-opacity:0.4;" x="376.8964" xlink:href="#mb373eaf8d2" y="101.39646"/>
     <use style="fill:#1f77b4;fill-opacity:0.4;stroke:#1f77b4;stroke-opacity:0.4;" x="375.974432" xlink:href="#mb373eaf8d2" y="99.765076"/>
     <use style="fill:#1f77b4;fill-opacity:0.4;stroke:#1f77b4;stroke-opacity:0.4;" x="371.496302" xlink:href="#mb373eaf8d2" y="104.455306"/>
     <use style="fill:#1f77b4;fill-opacity:0.4;stroke:#1f77b4;stroke-opacity:0.4;" x="371.496302" xlink:href="#mb373eaf8d2" y="97.521922"/>
     <use style="fill:#1f77b4;fill-opacity:0.4;stroke:#1f77b4;stroke-opacity:0.4;" x="365.174236" xlink:href="#mb373eaf8d2" y="111.796536"/>
     <use style="fill:#1f77b4;fill-opacity:0.4;stroke:#1f77b4;stroke-opacity:0.4;" x="357.139943" xlink:href="#mb373eaf8d2" y="109.757305"/>
     <use style="fill:#1f77b4;fill-opacity:0.4;stroke:#1f77b4;stroke-opacity:0.4;" x="337.910325" xlink:href="#mb373eaf8d2" y="109.349459"/>
     <use style="fill:#1f77b4;fill-opacity:0.4;stroke:#1f77b4;stroke-opacity:0.4;" x="337.910325" xlink:href="#mb373eaf8d2" y="108.941613"/>
     <use style="fill:#1f77b4;fill-opacity:0.4;stroke:#1f77b4;stroke-opacity:0.4;" x="334.881002" xlink:href="#mb373eaf8d2" y="104.04746"/>
     <use style="fill:#1f77b4;fill-opacity:0.4;stroke:#1f77b4;stroke-opacity:0.4;" x="334.881002" xlink:href="#mb373eaf8d2" y="112.612228"/>
     <use style="fill:#1f77b4;fill-opacity:0.4;stroke:#1f77b4;stroke-opacity:0.4;" x="334.881002" xlink:href="#mb373eaf8d2" y="113.42792"/>
     <use style="fill:#1f77b4;fill-opacity:0.4;stroke:#1f77b4;stroke-opacity:0.4;" x="333.037066" xlink:href="#mb373eaf8d2" y="110.77692"/>
     <use style="fill:#1f77b4;fill-opacity:0.4;stroke:#1f77b4;stroke-opacity:0.4;" x="333.037066" xlink:href="#mb373eaf8d2" y="111.796536"/>
     <use style="fill:#1f77b4;fill-opacity:0.4;stroke:#1f77b4;stroke-opacity:0.4;" x="333.037066" xlink:href="#mb373eaf8d2" y="115.671074"/>
     <use style="fill:#1f77b4;fill-opacity:0.4;stroke:#1f77b4;stroke-opacity:0.4;" x="329.217485" xlink:href="#mb373eaf8d2" y="118.11815"/>
     <use style="fill:#1f77b4;fill-opacity:0.4;stroke:#1f77b4;stroke-opacity:0.4;" x="327.768678" xlink:href="#mb373eaf8d2" y="115.059305"/>
     <use style="fill:#1f77b4;fill-opacity:0.4;stroke:#1f77b4;stroke-opacity:0.4;" x="326.58329" xlink:href="#mb373eaf8d2" y="118.933843"/>
     <use style="fill:#1f77b4;fill-opacity:0.4;stroke:#1f77b4;stroke-opacity:0.4;" x="326.58329" xlink:href="#mb373eaf8d2" y="120.361304"/>
     <use style="fill:#1f77b4;fill-opacity:0.4;stroke:#1f77b4;stroke-opacity:0.4;" x="326.58329" xlink:href="#mb373eaf8d2" y="118.322073"/>
     <use style="fill:#1f77b4;fill-opacity:0.4;stroke:#1f77b4;stroke-opacity:0.4;" x="325.397903" xlink:href="#mb373eaf8d2" y="118.322073"/>
     <use style="fill:#1f77b4;fill-opacity:0.4;stroke:#1f77b4;stroke-opacity:0.4;" x="324.344225" xlink:href="#mb373eaf8d2" y="118.933843"/>
     <use style="fill:#1f77b4;fill-opacity:0.4;stroke:#1f77b4;stroke-opacity:0.4;" x="324.344225" xlink:href="#mb373eaf8d2" y="119.953458"/>
     <use style="fill:#1f77b4;fill-opacity:0.4;stroke:#1f77b4;stroke-opacity:0.4;" x="323.158838" xlink:href="#mb373eaf8d2" y="118.11815"/>
     <use style="fill:#1f77b4;fill-opacity:0.4;stroke:#1f77b4;stroke-opacity:0.4;" x="323.158838" xlink:href="#mb373eaf8d2" y="120.157381"/>
     <use style="fill:#1f77b4;fill-opacity:0.4;stroke:#1f77b4;stroke-opacity:0.4;" x="323.158838" xlink:href="#mb373eaf8d2" y="118.11815"/>
     <use style="fill:#1f77b4;fill-opacity:0.4;stroke:#1f77b4;stroke-opacity:0.4;" x="314.597707" xlink:href="#mb373eaf8d2" y="140.345763"/>
     <use style="fill:#1f77b4;fill-opacity:0.4;stroke:#1f77b4;stroke-opacity:0.4;" x="314.597707" xlink:href="#mb373eaf8d2" y="124.643688"/>
     <use style="fill:#1f77b4;fill-opacity:0.4;stroke:#1f77b4;stroke-opacity:0.4;" x="307.617092" xlink:href="#mb373eaf8d2" y="152.988993"/>
     <use style="fill:#1f77b4;fill-opacity:0.4;stroke:#1f77b4;stroke-opacity:0.4;" x="307.617092" xlink:href="#mb373eaf8d2" y="126.682919"/>
     <use style="fill:#1f77b4;fill-opacity:0.4;stroke:#1f77b4;stroke-opacity:0.4;" x="307.617092" xlink:href="#mb373eaf8d2" y="137.694764"/>
     <use style="fill:#1f77b4;fill-opacity:0.4;stroke:#1f77b4;stroke-opacity:0.4;" x="307.617092" xlink:href="#mb373eaf8d2" y="139.733994"/>
     <use style="fill:#1f77b4;fill-opacity:0.4;stroke:#1f77b4;stroke-opacity:0.4;" x="304.06093" xlink:href="#mb373eaf8d2" y="129.333918"/>
     <use style="fill:#1f77b4;fill-opacity:0.4;stroke:#1f77b4;stroke-opacity:0.4;" x="304.06093" xlink:href="#mb373eaf8d2" y="136.675148"/>
     <use style="fill:#1f77b4;fill-opacity:0.4;stroke:#1f77b4;stroke-opacity:0.4;" x="304.06093" xlink:href="#mb373eaf8d2" y="140.14184"/>
     <use style="fill:#1f77b4;fill-opacity:0.4;stroke:#1f77b4;stroke-opacity:0.4;" x="293.787572" xlink:href="#mb373eaf8d2" y="140.549686"/>
     <use style="fill:#1f77b4;fill-opacity:0.4;stroke:#1f77b4;stroke-opacity:0.4;" x="293.787572" xlink:href="#mb373eaf8d2" y="135.043764"/>
     <use style="fill:#1f77b4;fill-opacity:0.4;stroke:#1f77b4;stroke-opacity:0.4;" x="293.787572" xlink:href="#mb373eaf8d2" y="137.490841"/>
     <use style="fill:#1f77b4;fill-opacity:0.4;stroke:#1f77b4;stroke-opacity:0.4;" x="293.787572" xlink:href="#mb373eaf8d2" y="145.851686"/>
     <use style="fill:#1f77b4;fill-opacity:0.4;stroke:#1f77b4;stroke-opacity:0.4;" x="293.392443" xlink:href="#mb373eaf8d2" y="141.365379"/>
     <use style="fill:#1f77b4;fill-opacity:0.4;stroke:#1f77b4;stroke-opacity:0.4;" x="293.392443" xlink:href="#mb373eaf8d2" y="147.279147"/>
     <use style="fill:#1f77b4;fill-opacity:0.4;stroke:#1f77b4;stroke-opacity:0.4;" x="290.889959" xlink:href="#mb373eaf8d2" y="142.996763"/>
     <use style="fill:#1f77b4;fill-opacity:0.4;stroke:#1f77b4;stroke-opacity:0.4;" x="290.889959" xlink:href="#mb373eaf8d2" y="145.44384"/>
     <use style="fill:#1f77b4;fill-opacity:0.4;stroke:#1f77b4;stroke-opacity:0.4;" x="287.070377" xlink:href="#mb373eaf8d2" y="150.13407"/>
     <use style="fill:#1f77b4;fill-opacity:0.4;stroke:#1f77b4;stroke-opacity:0.4;" x="287.070377" xlink:href="#mb373eaf8d2" y="150.949762"/>
     <use style="fill:#1f77b4;fill-opacity:0.4;stroke:#1f77b4;stroke-opacity:0.4;" x="284.304473" xlink:href="#mb373eaf8d2" y="167.263607"/>
     <use style="fill:#1f77b4;fill-opacity:0.4;stroke:#1f77b4;stroke-opacity:0.4;" x="284.304473" xlink:href="#mb373eaf8d2" y="168.079299"/>
     <use style="fill:#1f77b4;fill-opacity:0.4;stroke:#1f77b4;stroke-opacity:0.4;" x="284.304473" xlink:href="#mb373eaf8d2" y="171.749914"/>
     <use style="fill:#1f77b4;fill-opacity:0.4;stroke:#1f77b4;stroke-opacity:0.4;" x="282.592247" xlink:href="#mb373eaf8d2" y="173.381298"/>
     <use style="fill:#1f77b4;fill-opacity:0.4;stroke:#1f77b4;stroke-opacity:0.4;" x="281.933698" xlink:href="#mb373eaf8d2" y="172.973452"/>
     <use style="fill:#1f77b4;fill-opacity:0.4;stroke:#1f77b4;stroke-opacity:0.4;" x="281.933698" xlink:href="#mb373eaf8d2" y="173.177375"/>
     <use style="fill:#1f77b4;fill-opacity:0.4;stroke:#1f77b4;stroke-opacity:0.4;" x="279.431214" xlink:href="#mb373eaf8d2" y="175.420529"/>
     <use style="fill:#1f77b4;fill-opacity:0.4;stroke:#1f77b4;stroke-opacity:0.4;" x="276.79702" xlink:href="#mb373eaf8d2" y="186.228451"/>
     <use style="fill:#1f77b4;fill-opacity:0.4;stroke:#1f77b4;stroke-opacity:0.4;" x="259.806467" xlink:href="#mb373eaf8d2" y="214.165909"/>
     <use style="fill:#1f77b4;fill-opacity:0.4;stroke:#1f77b4;stroke-opacity:0.4;" x="252.167304" xlink:href="#mb373eaf8d2" y="208.86391"/>
    </g>
   </g>
   <g id="matplotlib.axis_1">
    <g id="xtick_1">
     <g id="line2d_1">
      <defs>
       <path d="M 0 0 
L 0 3.5 
" id="mc497814ad6" style="stroke:#000000;stroke-width:0.8;"/>
      </defs>
      <g>
       <use style="stroke:#000000;stroke-width:0.8;" x="192.897934" xlink:href="#mc497814ad6" y="223.85"/>
      </g>
     </g>
    </g>
    <g id="xtick_2">
     <g id="line2d_2">
      <g>
       <use style="stroke:#000000;stroke-width:0.8;" x="324.607645" xlink:href="#mc497814ad6" y="223.85"/>
      </g>
     </g>
    </g>
    <g id="xtick_3">
     <g id="line2d_3">
      <g>
       <use style="stroke:#000000;stroke-width:0.8;" x="456.317355" xlink:href="#mc497814ad6" y="223.85"/>
      </g>
     </g>
    </g>
    <g id="xtick_4">
     <g id="line2d_4">
      <g>
       <use style="stroke:#000000;stroke-width:0.8;" x="588.027066" xlink:href="#mc497814ad6" y="223.85"/>
      </g>
     </g>
    </g>
   </g>
   <g id="matplotlib.axis_2">
    <g id="ytick_1">
     <g id="line2d_5">
      <defs>
       <path d="M 0 0 
L -3.5 0 
" id="m3748f33378" style="stroke:#000000;stroke-width:0.8;"/>
      </defs>
      <g>
       <use style="stroke:#000000;stroke-width:0.8;" x="71.725" xlink:href="#m3748f33378" y="203.357987"/>
      </g>
     </g>
     <g id="text_1">
      <!-- 0.7082 -->
      <defs>
       <path d="M 31.78125 66.40625 
Q 24.171875 66.40625 20.328125 58.90625 
Q 16.5 51.421875 16.5 36.375 
Q 16.5 21.390625 20.328125 13.890625 
Q 24.171875 6.390625 31.78125 6.390625 
Q 39.453125 6.390625 43.28125 13.890625 
Q 47.125 21.390625 47.125 36.375 
Q 47.125 51.421875 43.28125 58.90625 
Q 39.453125 66.40625 31.78125 66.40625 
z
M 31.78125 74.21875 
Q 44.046875 74.21875 50.515625 64.515625 
Q 56.984375 54.828125 56.984375 36.375 
Q 56.984375 17.96875 50.515625 8.265625 
Q 44.046875 -1.421875 31.78125 -1.421875 
Q 19.53125 -1.421875 13.0625 8.265625 
Q 6.59375 17.96875 6.59375 36.375 
Q 6.59375 54.828125 13.0625 64.515625 
Q 19.53125 74.21875 31.78125 74.21875 
z
" id="DejaVuSans-48"/>
       <path d="M 10.6875 12.40625 
L 21 12.40625 
L 21 0 
L 10.6875 0 
z
" id="DejaVuSans-46"/>
       <path d="M 8.203125 72.90625 
L 55.078125 72.90625 
L 55.078125 68.703125 
L 28.609375 0 
L 18.3125 0 
L 43.21875 64.59375 
L 8.203125 64.59375 
z
" id="DejaVuSans-55"/>
       <path d="M 31.78125 34.625 
Q 24.75 34.625 20.71875 30.859375 
Q 16.703125 27.09375 16.703125 20.515625 
Q 16.703125 13.921875 20.71875 10.15625 
Q 24.75 6.390625 31.78125 6.390625 
Q 38.8125 6.390625 42.859375 10.171875 
Q 46.921875 13.96875 46.921875 20.515625 
Q 46.921875 27.09375 42.890625 30.859375 
Q 38.875 34.625 31.78125 34.625 
z
M 21.921875 38.8125 
Q 15.578125 40.375 12.03125 44.71875 
Q 8.5 49.078125 8.5 55.328125 
Q 8.5 64.0625 14.71875 69.140625 
Q 20.953125 74.21875 31.78125 74.21875 
Q 42.671875 74.21875 48.875 69.140625 
Q 55.078125 64.0625 55.078125 55.328125 
Q 55.078125 49.078125 51.53125 44.71875 
Q 48 40.375 41.703125 38.8125 
Q 48.828125 37.15625 52.796875 32.3125 
Q 56.78125 27.484375 56.78125 20.515625 
Q 56.78125 9.90625 50.3125 4.234375 
Q 43.84375 -1.421875 31.78125 -1.421875 
Q 19.734375 -1.421875 13.25 4.234375 
Q 6.78125 9.90625 6.78125 20.515625 
Q 6.78125 27.484375 10.78125 32.3125 
Q 14.796875 37.15625 21.921875 38.8125 
z
M 18.3125 54.390625 
Q 18.3125 48.734375 21.84375 45.5625 
Q 25.390625 42.390625 31.78125 42.390625 
Q 38.140625 42.390625 41.71875 45.5625 
Q 45.3125 48.734375 45.3125 54.390625 
Q 45.3125 60.0625 41.71875 63.234375 
Q 38.140625 66.40625 31.78125 66.40625 
Q 25.390625 66.40625 21.84375 63.234375 
Q 18.3125 60.0625 18.3125 54.390625 
z
" id="DejaVuSans-56"/>
       <path d="M 19.1875 8.296875 
L 53.609375 8.296875 
L 53.609375 0 
L 7.328125 0 
L 7.328125 8.296875 
Q 12.9375 14.109375 22.625 23.890625 
Q 32.328125 33.6875 34.8125 36.53125 
Q 39.546875 41.84375 41.421875 45.53125 
Q 43.3125 49.21875 43.3125 52.78125 
Q 43.3125 58.59375 39.234375 62.25 
Q 35.15625 65.921875 28.609375 65.921875 
Q 23.96875 65.921875 18.8125 64.3125 
Q 13.671875 62.703125 7.8125 59.421875 
L 7.8125 69.390625 
Q 13.765625 71.78125 18.9375 73 
Q 24.125 74.21875 28.421875 74.21875 
Q 39.75 74.21875 46.484375 68.546875 
Q 53.21875 62.890625 53.21875 53.421875 
Q 53.21875 48.921875 51.53125 44.890625 
Q 49.859375 40.875 45.40625 35.40625 
Q 44.1875 33.984375 37.640625 27.21875 
Q 31.109375 20.453125 19.1875 8.296875 
z
" id="DejaVuSans-50"/>
      </defs>
      <g transform="translate(29.734375 207.157206)scale(0.1 -0.1)">
       <use xlink:href="#DejaVuSans-48"/>
       <use x="63.623047" xlink:href="#DejaVuSans-46"/>
       <use x="95.410156" xlink:href="#DejaVuSans-55"/>
       <use x="159.033203" xlink:href="#DejaVuSans-48"/>
       <use x="222.65625" xlink:href="#DejaVuSans-56"/>
       <use x="286.279297" xlink:href="#DejaVuSans-50"/>
      </g>
     </g>
    </g>
    <g id="ytick_2">
     <g id="line2d_6">
      <g>
       <use style="stroke:#000000;stroke-width:0.8;" x="71.725" xlink:href="#m3748f33378" y="162.573376"/>
      </g>
     </g>
     <g id="text_2">
      <!-- 0.7084 -->
      <defs>
       <path d="M 37.796875 64.3125 
L 12.890625 25.390625 
L 37.796875 25.390625 
z
M 35.203125 72.90625 
L 47.609375 72.90625 
L 47.609375 25.390625 
L 58.015625 25.390625 
L 58.015625 17.1875 
L 47.609375 17.1875 
L 47.609375 0 
L 37.796875 0 
L 37.796875 17.1875 
L 4.890625 17.1875 
L 4.890625 26.703125 
z
" id="DejaVuSans-52"/>
      </defs>
      <g transform="translate(29.734375 166.372595)scale(0.1 -0.1)">
       <use xlink:href="#DejaVuSans-48"/>
       <use x="63.623047" xlink:href="#DejaVuSans-46"/>
       <use x="95.410156" xlink:href="#DejaVuSans-55"/>
       <use x="159.033203" xlink:href="#DejaVuSans-48"/>
       <use x="222.65625" xlink:href="#DejaVuSans-56"/>
       <use x="286.279297" xlink:href="#DejaVuSans-52"/>
      </g>
     </g>
    </g>
    <g id="ytick_3">
     <g id="line2d_7">
      <g>
       <use style="stroke:#000000;stroke-width:0.8;" x="71.725" xlink:href="#m3748f33378" y="121.788765"/>
      </g>
     </g>
     <g id="text_3">
      <!-- 0.7086 -->
      <defs>
       <path d="M 33.015625 40.375 
Q 26.375 40.375 22.484375 35.828125 
Q 18.609375 31.296875 18.609375 23.390625 
Q 18.609375 15.53125 22.484375 10.953125 
Q 26.375 6.390625 33.015625 6.390625 
Q 39.65625 6.390625 43.53125 10.953125 
Q 47.40625 15.53125 47.40625 23.390625 
Q 47.40625 31.296875 43.53125 35.828125 
Q 39.65625 40.375 33.015625 40.375 
z
M 52.59375 71.296875 
L 52.59375 62.3125 
Q 48.875 64.0625 45.09375 64.984375 
Q 41.3125 65.921875 37.59375 65.921875 
Q 27.828125 65.921875 22.671875 59.328125 
Q 17.53125 52.734375 16.796875 39.40625 
Q 19.671875 43.65625 24.015625 45.921875 
Q 28.375 48.1875 33.59375 48.1875 
Q 44.578125 48.1875 50.953125 41.515625 
Q 57.328125 34.859375 57.328125 23.390625 
Q 57.328125 12.15625 50.6875 5.359375 
Q 44.046875 -1.421875 33.015625 -1.421875 
Q 20.359375 -1.421875 13.671875 8.265625 
Q 6.984375 17.96875 6.984375 36.375 
Q 6.984375 53.65625 15.1875 63.9375 
Q 23.390625 74.21875 37.203125 74.21875 
Q 40.921875 74.21875 44.703125 73.484375 
Q 48.484375 72.75 52.59375 71.296875 
z
" id="DejaVuSans-54"/>
      </defs>
      <g transform="translate(29.734375 125.587984)scale(0.1 -0.1)">
       <use xlink:href="#DejaVuSans-48"/>
       <use x="63.623047" xlink:href="#DejaVuSans-46"/>
       <use x="95.410156" xlink:href="#DejaVuSans-55"/>
       <use x="159.033203" xlink:href="#DejaVuSans-48"/>
       <use x="222.65625" xlink:href="#DejaVuSans-56"/>
       <use x="286.279297" xlink:href="#DejaVuSans-54"/>
      </g>
     </g>
    </g>
    <g id="ytick_4">
     <g id="line2d_8">
      <g>
       <use style="stroke:#000000;stroke-width:0.8;" x="71.725" xlink:href="#m3748f33378" y="81.004155"/>
      </g>
     </g>
     <g id="text_4">
      <!-- 0.7088 -->
      <g transform="translate(29.734375 84.803373)scale(0.1 -0.1)">
       <use xlink:href="#DejaVuSans-48"/>
       <use x="63.623047" xlink:href="#DejaVuSans-46"/>
       <use x="95.410156" xlink:href="#DejaVuSans-55"/>
       <use x="159.033203" xlink:href="#DejaVuSans-48"/>
       <use x="222.65625" xlink:href="#DejaVuSans-56"/>
       <use x="286.279297" xlink:href="#DejaVuSans-56"/>
      </g>
     </g>
    </g>
    <g id="ytick_5">
     <g id="line2d_9">
      <g>
       <use style="stroke:#000000;stroke-width:0.8;" x="71.725" xlink:href="#m3748f33378" y="40.219544"/>
      </g>
     </g>
     <g id="text_5">
      <!-- 0.7090 -->
      <defs>
       <path d="M 10.984375 1.515625 
L 10.984375 10.5 
Q 14.703125 8.734375 18.5 7.8125 
Q 22.3125 6.890625 25.984375 6.890625 
Q 35.75 6.890625 40.890625 13.453125 
Q 46.046875 20.015625 46.78125 33.40625 
Q 43.953125 29.203125 39.59375 26.953125 
Q 35.25 24.703125 29.984375 24.703125 
Q 19.046875 24.703125 12.671875 31.3125 
Q 6.296875 37.9375 6.296875 49.421875 
Q 6.296875 60.640625 12.9375 67.421875 
Q 19.578125 74.21875 30.609375 74.21875 
Q 43.265625 74.21875 49.921875 64.515625 
Q 56.59375 54.828125 56.59375 36.375 
Q 56.59375 19.140625 48.40625 8.859375 
Q 40.234375 -1.421875 26.421875 -1.421875 
Q 22.703125 -1.421875 18.890625 -0.6875 
Q 15.09375 0.046875 10.984375 1.515625 
z
M 30.609375 32.421875 
Q 37.25 32.421875 41.125 36.953125 
Q 45.015625 41.5 45.015625 49.421875 
Q 45.015625 57.28125 41.125 61.84375 
Q 37.25 66.40625 30.609375 66.40625 
Q 23.96875 66.40625 20.09375 61.84375 
Q 16.21875 57.28125 16.21875 49.421875 
Q 16.21875 41.5 20.09375 36.953125 
Q 23.96875 32.421875 30.609375 32.421875 
z
" id="DejaVuSans-57"/>
      </defs>
      <g transform="translate(29.734375 44.018762)scale(0.1 -0.1)">
       <use xlink:href="#DejaVuSans-48"/>
       <use x="63.623047" xlink:href="#DejaVuSans-46"/>
       <use x="95.410156" xlink:href="#DejaVuSans-55"/>
       <use x="159.033203" xlink:href="#DejaVuSans-48"/>
       <use x="222.65625" xlink:href="#DejaVuSans-57"/>
       <use x="286.279297" xlink:href="#DejaVuSans-48"/>
      </g>
     </g>
    </g>
    <g id="text_6">
     <!-- $^{87}Sr/^{86}Sr$ -->
     <defs>
      <path d="M 60.296875 70.515625 
L 58.40625 60.890625 
Q 53.46875 63.53125 48.609375 64.875 
Q 43.75 66.21875 39.203125 66.21875 
Q 30.375 66.21875 25.140625 62.359375 
Q 19.921875 58.5 19.921875 52.09375 
Q 19.921875 48.578125 21.84375 46.703125 
Q 23.78125 44.828125 31.78125 42.671875 
L 37.703125 41.21875 
Q 47.703125 38.625 51.609375 34.640625 
Q 55.515625 30.671875 55.515625 23.484375 
Q 55.515625 12.453125 46.84375 5.515625 
Q 38.1875 -1.421875 24.03125 -1.421875 
Q 18.21875 -1.421875 12.359375 -0.265625 
Q 6.5 0.875 0.59375 3.21875 
L 2.59375 13.375 
Q 8.015625 10.015625 13.453125 8.296875 
Q 18.890625 6.59375 24.3125 6.59375 
Q 33.546875 6.59375 39.109375 10.6875 
Q 44.671875 14.796875 44.671875 21.390625 
Q 44.671875 25.78125 42.453125 28.046875 
Q 40.234375 30.328125 32.90625 32.171875 
L 27 33.6875 
Q 16.890625 36.328125 13.203125 39.765625 
Q 9.515625 43.21875 9.515625 49.421875 
Q 9.515625 60.296875 17.890625 67.25 
Q 26.265625 74.21875 39.703125 74.21875 
Q 44.921875 74.21875 50.046875 73.28125 
Q 55.171875 72.359375 60.296875 70.515625 
z
" id="DejaVuSans-Oblique-83"/>
      <path d="M 44.578125 46.390625 
Q 43.21875 47.125 41.453125 47.515625 
Q 39.703125 47.90625 37.703125 47.90625 
Q 30.515625 47.90625 25.140625 42.453125 
Q 19.78125 37.015625 18.015625 27.875 
L 12.5 0 
L 3.515625 0 
L 14.203125 54.6875 
L 23.1875 54.6875 
L 21.484375 46.1875 
Q 25.046875 50.921875 30 53.453125 
Q 34.96875 56 40.578125 56 
Q 42.046875 56 43.453125 55.828125 
Q 44.875 55.671875 46.296875 55.28125 
z
" id="DejaVuSans-Oblique-114"/>
      <path d="M 25.390625 72.90625 
L 33.6875 72.90625 
L 8.296875 -9.28125 
L 0 -9.28125 
z
" id="DejaVuSans-47"/>
     </defs>
     <g transform="translate(23.654687 138.775)rotate(-90)scale(0.1 -0.1)">
      <use transform="translate(0.957031 39.046875)scale(0.7)" xlink:href="#DejaVuSans-56"/>
      <use transform="translate(45.493164 39.046875)scale(0.7)" xlink:href="#DejaVuSans-55"/>
      <use transform="translate(92.763672 0.765625)" xlink:href="#DejaVuSans-Oblique-83"/>
      <use transform="translate(156.240234 0.765625)" xlink:href="#DejaVuSans-Oblique-114"/>
      <use transform="translate(197.353516 0.765625)" xlink:href="#DejaVuSans-47"/>
      <use transform="translate(232.001953 39.046875)scale(0.7)" xlink:href="#DejaVuSans-56"/>
      <use transform="translate(276.538086 39.046875)scale(0.7)" xlink:href="#DejaVuSans-54"/>
      <use transform="translate(323.808594 0.765625)" xlink:href="#DejaVuSans-Oblique-83"/>
      <use transform="translate(387.285156 0.765625)" xlink:href="#DejaVuSans-Oblique-114"/>
     </g>
    </g>
   </g>
   <g id="line2d_10">
    <path clip-path="url(#p75bd93a82e)" d="M 680.223864 20.484091 
L 675.8774 20.595081 
L 671.386054 20.933459 
L 666.709258 21.510875 
L 661.841219 22.337665 
L 656.584895 23.460483 
L 649.723277 25.184141 
L 637.501021 28.45494 
L 627.405634 31.39604 
L 621.245246 33.423095 
L 614.256132 35.968344 
L 605.093786 39.537418 
L 585.546289 47.480631 
L 577.206873 51.145116 
L 552.240785 62.426104 
L 546.126759 64.949952 
L 539.496953 67.440093 
L 531.551616 70.189305 
L 520.262401 73.833622 
L 514.322233 75.522746 
L 506.852111 77.390352 
L 498.083844 79.343876 
L 484.569239 82.140227 
L 479.341892 83.015104 
L 473.790009 83.715158 
L 467.61803 84.270103 
L 460.478238 84.675332 
L 452.68358 84.919778 
L 446.99261 84.855348 
L 439.534078 84.518065 
L 398.138355 82.212962 
L 368.008667 81.308543 
L 363.227557 81.544581 
L 359.837315 81.910791 
L 356.342758 82.513039 
L 352.749681 83.358742 
L 349.023313 84.466473 
L 345.569323 85.71463 
L 342.833948 86.955692 
L 339.988463 88.493402 
L 336.702537 90.538542 
L 332.599475 93.345705 
L 327.998018 96.775617 
L 322.110008 101.437445 
L 314.408074 107.855113 
L 295.248861 123.892879 
L 289.494143 128.425011 
L 284.353725 132.172801 
L 278.842409 135.910577 
L 273.139848 139.508703 
L 267.941477 142.541236 
L 263.282068 144.990844 
L 258.489367 147.259085 
L 253.67928 149.290016 
L 248.712721 151.145227 
L 243.647642 152.801074 
L 239.104138 154.052733 
L 234.415752 155.113099 
L 229.512941 155.991968 
L 220.078217 157.399388 
L 214.590082 158.043759 
L 210.423272 158.280905 
L 205.688524 158.315209 
L 200.014939 158.145414 
L 195.593137 157.788294 
L 190.800436 157.171584 
L 184.170629 156.096759 
L 179.696669 155.142089 
L 174.475117 153.784632 
L 169.757755 152.362911 
L 166.587734 151.144322 
L 162.809208 149.443328 
L 158.937958 147.456101 
L 155.263747 145.316136 
L 151.67067 142.971341 
L 148.263042 140.483343 
L 145.232108 137.982901 
L 142.334465 135.312673 
L 139.338303 132.241339 
L 134.997634 127.431638 
L 130.697533 122.339411 
L 127.017527 117.654082 
L 123.267977 112.491497 
L 119.008442 106.233476 
L 113.97234 98.414731 
L 107.88729 88.56593 
L 100.701136 76.868807 
L 100.701136 76.868807 
" style="fill:none;stroke:#1f77b4;stroke-linecap:square;stroke-width:1.5;"/>
   </g>
   <g id="patch_3">
    <path d="M 71.725 223.85 
L 71.725 10.8 
" style="fill:none;stroke:#000000;stroke-linecap:square;stroke-linejoin:miter;stroke-width:0.8;"/>
   </g>
   <g id="patch_4">
    <path d="M 709.2 223.85 
L 709.2 10.8 
" style="fill:none;stroke:#000000;stroke-linecap:square;stroke-linejoin:miter;stroke-width:0.8;"/>
   </g>
   <g id="patch_5">
    <path d="M 71.725 223.85 
L 709.2 223.85 
" style="fill:none;stroke:#000000;stroke-linecap:square;stroke-linejoin:miter;stroke-width:0.8;"/>
   </g>
   <g id="patch_6">
    <path d="M 71.725 10.8 
L 709.2 10.8 
" style="fill:none;stroke:#000000;stroke-linecap:square;stroke-linejoin:miter;stroke-width:0.8;"/>
   </g>
   <g id="legend_1">
    <g id="patch_7">
     <path d="M 608.279688 133.503125 
L 702.2 133.503125 
Q 704.2 133.503125 704.2 131.503125 
L 704.2 103.146875 
Q 704.2 101.146875 702.2 101.146875 
L 608.279688 101.146875 
Q 606.279688 101.146875 606.279688 103.146875 
L 606.279688 131.503125 
Q 606.279688 133.503125 608.279688 133.503125 
z
" style="fill:#ffffff;opacity:0.8;stroke:#cccccc;stroke-linejoin:miter;"/>
    </g>
    <g id="line2d_11">
     <path d="M 610.279688 109.245313 
L 630.279688 109.245313 
" style="fill:none;stroke:#1f77b4;stroke-linecap:square;stroke-width:1.5;"/>
    </g>
    <g id="line2d_12"/>
    <g id="text_7">
     <!-- Sr model -->
     <defs>
      <path d="M 53.515625 70.515625 
L 53.515625 60.890625 
Q 47.90625 63.578125 42.921875 64.890625 
Q 37.9375 66.21875 33.296875 66.21875 
Q 25.25 66.21875 20.875 63.09375 
Q 16.5 59.96875 16.5 54.203125 
Q 16.5 49.359375 19.40625 46.890625 
Q 22.3125 44.4375 30.421875 42.921875 
L 36.375 41.703125 
Q 47.40625 39.59375 52.65625 34.296875 
Q 57.90625 29 57.90625 20.125 
Q 57.90625 9.515625 50.796875 4.046875 
Q 43.703125 -1.421875 29.984375 -1.421875 
Q 24.8125 -1.421875 18.96875 -0.25 
Q 13.140625 0.921875 6.890625 3.21875 
L 6.890625 13.375 
Q 12.890625 10.015625 18.65625 8.296875 
Q 24.421875 6.59375 29.984375 6.59375 
Q 38.421875 6.59375 43.015625 9.90625 
Q 47.609375 13.234375 47.609375 19.390625 
Q 47.609375 24.75 44.3125 27.78125 
Q 41.015625 30.8125 33.5 32.328125 
L 27.484375 33.5 
Q 16.453125 35.6875 11.515625 40.375 
Q 6.59375 45.0625 6.59375 53.421875 
Q 6.59375 63.09375 13.40625 68.65625 
Q 20.21875 74.21875 32.171875 74.21875 
Q 37.3125 74.21875 42.625 73.28125 
Q 47.953125 72.359375 53.515625 70.515625 
z
" id="DejaVuSans-83"/>
      <path d="M 41.109375 46.296875 
Q 39.59375 47.171875 37.8125 47.578125 
Q 36.03125 48 33.890625 48 
Q 26.265625 48 22.1875 43.046875 
Q 18.109375 38.09375 18.109375 28.8125 
L 18.109375 0 
L 9.078125 0 
L 9.078125 54.6875 
L 18.109375 54.6875 
L 18.109375 46.1875 
Q 20.953125 51.171875 25.484375 53.578125 
Q 30.03125 56 36.53125 56 
Q 37.453125 56 38.578125 55.875 
Q 39.703125 55.765625 41.0625 55.515625 
z
" id="DejaVuSans-114"/>
      <path id="DejaVuSans-32"/>
      <path d="M 52 44.1875 
Q 55.375 50.25 60.0625 53.125 
Q 64.75 56 71.09375 56 
Q 79.640625 56 84.28125 50.015625 
Q 88.921875 44.046875 88.921875 33.015625 
L 88.921875 0 
L 79.890625 0 
L 79.890625 32.71875 
Q 79.890625 40.578125 77.09375 44.375 
Q 74.3125 48.1875 68.609375 48.1875 
Q 61.625 48.1875 57.5625 43.546875 
Q 53.515625 38.921875 53.515625 30.90625 
L 53.515625 0 
L 44.484375 0 
L 44.484375 32.71875 
Q 44.484375 40.625 41.703125 44.40625 
Q 38.921875 48.1875 33.109375 48.1875 
Q 26.21875 48.1875 22.15625 43.53125 
Q 18.109375 38.875 18.109375 30.90625 
L 18.109375 0 
L 9.078125 0 
L 9.078125 54.6875 
L 18.109375 54.6875 
L 18.109375 46.1875 
Q 21.1875 51.21875 25.484375 53.609375 
Q 29.78125 56 35.6875 56 
Q 41.65625 56 45.828125 52.96875 
Q 50 49.953125 52 44.1875 
z
" id="DejaVuSans-109"/>
      <path d="M 30.609375 48.390625 
Q 23.390625 48.390625 19.1875 42.75 
Q 14.984375 37.109375 14.984375 27.296875 
Q 14.984375 17.484375 19.15625 11.84375 
Q 23.34375 6.203125 30.609375 6.203125 
Q 37.796875 6.203125 41.984375 11.859375 
Q 46.1875 17.53125 46.1875 27.296875 
Q 46.1875 37.015625 41.984375 42.703125 
Q 37.796875 48.390625 30.609375 48.390625 
z
M 30.609375 56 
Q 42.328125 56 49.015625 48.375 
Q 55.71875 40.765625 55.71875 27.296875 
Q 55.71875 13.875 49.015625 6.21875 
Q 42.328125 -1.421875 30.609375 -1.421875 
Q 18.84375 -1.421875 12.171875 6.21875 
Q 5.515625 13.875 5.515625 27.296875 
Q 5.515625 40.765625 12.171875 48.375 
Q 18.84375 56 30.609375 56 
z
" id="DejaVuSans-111"/>
      <path d="M 45.40625 46.390625 
L 45.40625 75.984375 
L 54.390625 75.984375 
L 54.390625 0 
L 45.40625 0 
L 45.40625 8.203125 
Q 42.578125 3.328125 38.25 0.953125 
Q 33.9375 -1.421875 27.875 -1.421875 
Q 17.96875 -1.421875 11.734375 6.484375 
Q 5.515625 14.40625 5.515625 27.296875 
Q 5.515625 40.1875 11.734375 48.09375 
Q 17.96875 56 27.875 56 
Q 33.9375 56 38.25 53.625 
Q 42.578125 51.265625 45.40625 46.390625 
z
M 14.796875 27.296875 
Q 14.796875 17.390625 18.875 11.75 
Q 22.953125 6.109375 30.078125 6.109375 
Q 37.203125 6.109375 41.296875 11.75 
Q 45.40625 17.390625 45.40625 27.296875 
Q 45.40625 37.203125 41.296875 42.84375 
Q 37.203125 48.484375 30.078125 48.484375 
Q 22.953125 48.484375 18.875 42.84375 
Q 14.796875 37.203125 14.796875 27.296875 
z
" id="DejaVuSans-100"/>
      <path d="M 56.203125 29.59375 
L 56.203125 25.203125 
L 14.890625 25.203125 
Q 15.484375 15.921875 20.484375 11.0625 
Q 25.484375 6.203125 34.421875 6.203125 
Q 39.59375 6.203125 44.453125 7.46875 
Q 49.3125 8.734375 54.109375 11.28125 
L 54.109375 2.78125 
Q 49.265625 0.734375 44.1875 -0.34375 
Q 39.109375 -1.421875 33.890625 -1.421875 
Q 20.796875 -1.421875 13.15625 6.1875 
Q 5.515625 13.8125 5.515625 26.8125 
Q 5.515625 40.234375 12.765625 48.109375 
Q 20.015625 56 32.328125 56 
Q 43.359375 56 49.78125 48.890625 
Q 56.203125 41.796875 56.203125 29.59375 
z
M 47.21875 32.234375 
Q 47.125 39.59375 43.09375 43.984375 
Q 39.0625 48.390625 32.421875 48.390625 
Q 24.90625 48.390625 20.390625 44.140625 
Q 15.875 39.890625 15.1875 32.171875 
z
" id="DejaVuSans-101"/>
      <path d="M 9.421875 75.984375 
L 18.40625 75.984375 
L 18.40625 0 
L 9.421875 0 
z
" id="DejaVuSans-108"/>
     </defs>
     <g transform="translate(638.279688 112.745313)scale(0.1 -0.1)">
      <use xlink:href="#DejaVuSans-83"/>
      <use x="63.476562" xlink:href="#DejaVuSans-114"/>
      <use x="104.589844" xlink:href="#DejaVuSans-32"/>
      <use x="136.376953" xlink:href="#DejaVuSans-109"/>
      <use x="233.789062" xlink:href="#DejaVuSans-111"/>
      <use x="294.970703" xlink:href="#DejaVuSans-100"/>
      <use x="358.447266" xlink:href="#DejaVuSans-101"/>
      <use x="419.970703" xlink:href="#DejaVuSans-108"/>
     </g>
    </g>
    <g id="PathCollection_2">
     <g>
      <use style="fill:#1f77b4;fill-opacity:0.4;stroke:#1f77b4;stroke-opacity:0.4;" x="620.279688" xlink:href="#mb373eaf8d2" y="124.798438"/>
     </g>
    </g>
    <g id="text_8">
     <!-- Sr Conodont -->
     <defs>
      <path d="M 64.40625 67.28125 
L 64.40625 56.890625 
Q 59.421875 61.53125 53.78125 63.8125 
Q 48.140625 66.109375 41.796875 66.109375 
Q 29.296875 66.109375 22.65625 58.46875 
Q 16.015625 50.828125 16.015625 36.375 
Q 16.015625 21.96875 22.65625 14.328125 
Q 29.296875 6.6875 41.796875 6.6875 
Q 48.140625 6.6875 53.78125 8.984375 
Q 59.421875 11.28125 64.40625 15.921875 
L 64.40625 5.609375 
Q 59.234375 2.09375 53.4375 0.328125 
Q 47.65625 -1.421875 41.21875 -1.421875 
Q 24.65625 -1.421875 15.125 8.703125 
Q 5.609375 18.84375 5.609375 36.375 
Q 5.609375 53.953125 15.125 64.078125 
Q 24.65625 74.21875 41.21875 74.21875 
Q 47.75 74.21875 53.53125 72.484375 
Q 59.328125 70.75 64.40625 67.28125 
z
" id="DejaVuSans-67"/>
      <path d="M 54.890625 33.015625 
L 54.890625 0 
L 45.90625 0 
L 45.90625 32.71875 
Q 45.90625 40.484375 42.875 44.328125 
Q 39.84375 48.1875 33.796875 48.1875 
Q 26.515625 48.1875 22.3125 43.546875 
Q 18.109375 38.921875 18.109375 30.90625 
L 18.109375 0 
L 9.078125 0 
L 9.078125 54.6875 
L 18.109375 54.6875 
L 18.109375 46.1875 
Q 21.34375 51.125 25.703125 53.5625 
Q 30.078125 56 35.796875 56 
Q 45.21875 56 50.046875 50.171875 
Q 54.890625 44.34375 54.890625 33.015625 
z
" id="DejaVuSans-110"/>
      <path d="M 18.3125 70.21875 
L 18.3125 54.6875 
L 36.8125 54.6875 
L 36.8125 47.703125 
L 18.3125 47.703125 
L 18.3125 18.015625 
Q 18.3125 11.328125 20.140625 9.421875 
Q 21.96875 7.515625 27.59375 7.515625 
L 36.8125 7.515625 
L 36.8125 0 
L 27.59375 0 
Q 17.1875 0 13.234375 3.875 
Q 9.28125 7.765625 9.28125 18.015625 
L 9.28125 47.703125 
L 2.6875 47.703125 
L 2.6875 54.6875 
L 9.28125 54.6875 
L 9.28125 70.21875 
z
" id="DejaVuSans-116"/>
     </defs>
     <g transform="translate(638.279688 127.423438)scale(0.1 -0.1)">
      <use xlink:href="#DejaVuSans-83"/>
      <use x="63.476562" xlink:href="#DejaVuSans-114"/>
      <use x="104.589844" xlink:href="#DejaVuSans-32"/>
      <use x="136.376953" xlink:href="#DejaVuSans-67"/>
      <use x="206.201172" xlink:href="#DejaVuSans-111"/>
      <use x="267.382812" xlink:href="#DejaVuSans-110"/>
      <use x="330.761719" xlink:href="#DejaVuSans-111"/>
      <use x="391.943359" xlink:href="#DejaVuSans-100"/>
      <use x="455.419922" xlink:href="#DejaVuSans-111"/>
      <use x="516.601562" xlink:href="#DejaVuSans-110"/>
      <use x="579.980469" xlink:href="#DejaVuSans-116"/>
     </g>
    </g>
   </g>
  </g>
  <g id="axes_2">
   <g id="patch_8">
    <path d="M 71.725 462.2 
L 709.2 462.2 
L 709.2 249.15 
L 71.725 249.15 
z
" style="fill:#ffffff;"/>
   </g>
   <g id="matplotlib.axis_3">
    <g id="xtick_5">
     <g id="line2d_13">
      <g>
       <use style="stroke:#000000;stroke-width:0.8;" x="192.897934" xlink:href="#mc497814ad6" y="462.2"/>
      </g>
     </g>
     <g id="text_9">
      <!-- 450 -->
      <defs>
       <path d="M 10.796875 72.90625 
L 49.515625 72.90625 
L 49.515625 64.59375 
L 19.828125 64.59375 
L 19.828125 46.734375 
Q 21.96875 47.46875 24.109375 47.828125 
Q 26.265625 48.1875 28.421875 48.1875 
Q 40.625 48.1875 47.75 41.5 
Q 54.890625 34.8125 54.890625 23.390625 
Q 54.890625 11.625 47.5625 5.09375 
Q 40.234375 -1.421875 26.90625 -1.421875 
Q 22.3125 -1.421875 17.546875 -0.640625 
Q 12.796875 0.140625 7.71875 1.703125 
L 7.71875 11.625 
Q 12.109375 9.234375 16.796875 8.0625 
Q 21.484375 6.890625 26.703125 6.890625 
Q 35.15625 6.890625 40.078125 11.328125 
Q 45.015625 15.765625 45.015625 23.390625 
Q 45.015625 31 40.078125 35.4375 
Q 35.15625 39.890625 26.703125 39.890625 
Q 22.75 39.890625 18.8125 39.015625 
Q 14.890625 38.140625 10.796875 36.28125 
z
" id="DejaVuSans-53"/>
      </defs>
      <g transform="translate(183.354184 476.798437)scale(0.1 -0.1)">
       <use xlink:href="#DejaVuSans-52"/>
       <use x="63.623047" xlink:href="#DejaVuSans-53"/>
       <use x="127.246094" xlink:href="#DejaVuSans-48"/>
      </g>
     </g>
    </g>
    <g id="xtick_6">
     <g id="line2d_14">
      <g>
       <use style="stroke:#000000;stroke-width:0.8;" x="324.607645" xlink:href="#mc497814ad6" y="462.2"/>
      </g>
     </g>
     <g id="text_10">
      <!-- 460 -->
      <g transform="translate(315.063895 476.798437)scale(0.1 -0.1)">
       <use xlink:href="#DejaVuSans-52"/>
       <use x="63.623047" xlink:href="#DejaVuSans-54"/>
       <use x="127.246094" xlink:href="#DejaVuSans-48"/>
      </g>
     </g>
    </g>
    <g id="xtick_7">
     <g id="line2d_15">
      <g>
       <use style="stroke:#000000;stroke-width:0.8;" x="456.317355" xlink:href="#mc497814ad6" y="462.2"/>
      </g>
     </g>
     <g id="text_11">
      <!-- 470 -->
      <g transform="translate(446.773605 476.798437)scale(0.1 -0.1)">
       <use xlink:href="#DejaVuSans-52"/>
       <use x="63.623047" xlink:href="#DejaVuSans-55"/>
       <use x="127.246094" xlink:href="#DejaVuSans-48"/>
      </g>
     </g>
    </g>
    <g id="xtick_8">
     <g id="line2d_16">
      <g>
       <use style="stroke:#000000;stroke-width:0.8;" x="588.027066" xlink:href="#mc497814ad6" y="462.2"/>
      </g>
     </g>
     <g id="text_12">
      <!-- 480 -->
      <g transform="translate(578.483316 476.798437)scale(0.1 -0.1)">
       <use xlink:href="#DejaVuSans-52"/>
       <use x="63.623047" xlink:href="#DejaVuSans-56"/>
       <use x="127.246094" xlink:href="#DejaVuSans-48"/>
      </g>
     </g>
    </g>
    <g id="text_13">
     <!-- Age (Ma) -->
     <defs>
      <path d="M 34.1875 63.1875 
L 20.796875 26.90625 
L 47.609375 26.90625 
z
M 28.609375 72.90625 
L 39.796875 72.90625 
L 67.578125 0 
L 57.328125 0 
L 50.6875 18.703125 
L 17.828125 18.703125 
L 11.1875 0 
L 0.78125 0 
z
" id="DejaVuSans-65"/>
      <path d="M 45.40625 27.984375 
Q 45.40625 37.75 41.375 43.109375 
Q 37.359375 48.484375 30.078125 48.484375 
Q 22.859375 48.484375 18.828125 43.109375 
Q 14.796875 37.75 14.796875 27.984375 
Q 14.796875 18.265625 18.828125 12.890625 
Q 22.859375 7.515625 30.078125 7.515625 
Q 37.359375 7.515625 41.375 12.890625 
Q 45.40625 18.265625 45.40625 27.984375 
z
M 54.390625 6.78125 
Q 54.390625 -7.171875 48.1875 -13.984375 
Q 42 -20.796875 29.203125 -20.796875 
Q 24.46875 -20.796875 20.265625 -20.09375 
Q 16.0625 -19.390625 12.109375 -17.921875 
L 12.109375 -9.1875 
Q 16.0625 -11.328125 19.921875 -12.34375 
Q 23.78125 -13.375 27.78125 -13.375 
Q 36.625 -13.375 41.015625 -8.765625 
Q 45.40625 -4.15625 45.40625 5.171875 
L 45.40625 9.625 
Q 42.625 4.78125 38.28125 2.390625 
Q 33.9375 0 27.875 0 
Q 17.828125 0 11.671875 7.65625 
Q 5.515625 15.328125 5.515625 27.984375 
Q 5.515625 40.671875 11.671875 48.328125 
Q 17.828125 56 27.875 56 
Q 33.9375 56 38.28125 53.609375 
Q 42.625 51.21875 45.40625 46.390625 
L 45.40625 54.6875 
L 54.390625 54.6875 
z
" id="DejaVuSans-103"/>
      <path d="M 31 75.875 
Q 24.46875 64.65625 21.28125 53.65625 
Q 18.109375 42.671875 18.109375 31.390625 
Q 18.109375 20.125 21.3125 9.0625 
Q 24.515625 -2 31 -13.1875 
L 23.1875 -13.1875 
Q 15.875 -1.703125 12.234375 9.375 
Q 8.59375 20.453125 8.59375 31.390625 
Q 8.59375 42.28125 12.203125 53.3125 
Q 15.828125 64.359375 23.1875 75.875 
z
" id="DejaVuSans-40"/>
      <path d="M 9.8125 72.90625 
L 24.515625 72.90625 
L 43.109375 23.296875 
L 61.8125 72.90625 
L 76.515625 72.90625 
L 76.515625 0 
L 66.890625 0 
L 66.890625 64.015625 
L 48.09375 14.015625 
L 38.1875 14.015625 
L 19.390625 64.015625 
L 19.390625 0 
L 9.8125 0 
z
" id="DejaVuSans-77"/>
      <path d="M 34.28125 27.484375 
Q 23.390625 27.484375 19.1875 25 
Q 14.984375 22.515625 14.984375 16.5 
Q 14.984375 11.71875 18.140625 8.90625 
Q 21.296875 6.109375 26.703125 6.109375 
Q 34.1875 6.109375 38.703125 11.40625 
Q 43.21875 16.703125 43.21875 25.484375 
L 43.21875 27.484375 
z
M 52.203125 31.203125 
L 52.203125 0 
L 43.21875 0 
L 43.21875 8.296875 
Q 40.140625 3.328125 35.546875 0.953125 
Q 30.953125 -1.421875 24.3125 -1.421875 
Q 15.921875 -1.421875 10.953125 3.296875 
Q 6 8.015625 6 15.921875 
Q 6 25.140625 12.171875 29.828125 
Q 18.359375 34.515625 30.609375 34.515625 
L 43.21875 34.515625 
L 43.21875 35.40625 
Q 43.21875 41.609375 39.140625 45 
Q 35.0625 48.390625 27.6875 48.390625 
Q 23 48.390625 18.546875 47.265625 
Q 14.109375 46.140625 10.015625 43.890625 
L 10.015625 52.203125 
Q 14.9375 54.109375 19.578125 55.046875 
Q 24.21875 56 28.609375 56 
Q 40.484375 56 46.34375 49.84375 
Q 52.203125 43.703125 52.203125 31.203125 
z
" id="DejaVuSans-97"/>
      <path d="M 8.015625 75.875 
L 15.828125 75.875 
Q 23.140625 64.359375 26.78125 53.3125 
Q 30.421875 42.28125 30.421875 31.390625 
Q 30.421875 20.453125 26.78125 9.375 
Q 23.140625 -1.703125 15.828125 -13.1875 
L 8.015625 -13.1875 
Q 14.5 -2 17.703125 9.0625 
Q 20.90625 20.125 20.90625 31.390625 
Q 20.90625 42.671875 17.703125 53.65625 
Q 14.5 64.65625 8.015625 75.875 
z
" id="DejaVuSans-41"/>
     </defs>
     <g transform="translate(367.922656 490.476562)scale(0.1 -0.1)">
      <use xlink:href="#DejaVuSans-65"/>
      <use x="68.408203" xlink:href="#DejaVuSans-103"/>
      <use x="131.884766" xlink:href="#DejaVuSans-101"/>
      <use x="193.408203" xlink:href="#DejaVuSans-32"/>
      <use x="225.195312" xlink:href="#DejaVuSans-40"/>
      <use x="264.208984" xlink:href="#DejaVuSans-77"/>
      <use x="350.488281" xlink:href="#DejaVuSans-97"/>
      <use x="411.767578" xlink:href="#DejaVuSans-41"/>
     </g>
    </g>
   </g>
   <g id="matplotlib.axis_4">
    <g id="ytick_6">
     <g id="line2d_17">
      <g>
       <use style="stroke:#000000;stroke-width:0.8;" x="71.725" xlink:href="#m3748f33378" y="448.811227"/>
      </g>
     </g>
     <g id="text_14">
      <!-- 1.0 -->
      <defs>
       <path d="M 12.40625 8.296875 
L 28.515625 8.296875 
L 28.515625 63.921875 
L 10.984375 60.40625 
L 10.984375 69.390625 
L 28.421875 72.90625 
L 38.28125 72.90625 
L 38.28125 8.296875 
L 54.390625 8.296875 
L 54.390625 0 
L 12.40625 0 
z
" id="DejaVuSans-49"/>
      </defs>
      <g transform="translate(48.821875 452.610445)scale(0.1 -0.1)">
       <use xlink:href="#DejaVuSans-49"/>
       <use x="63.623047" xlink:href="#DejaVuSans-46"/>
       <use x="95.410156" xlink:href="#DejaVuSans-48"/>
      </g>
     </g>
    </g>
    <g id="ytick_7">
     <g id="line2d_18">
      <g>
       <use style="stroke:#000000;stroke-width:0.8;" x="71.725" xlink:href="#m3748f33378" y="420.551567"/>
      </g>
     </g>
     <g id="text_15">
      <!-- 1.1 -->
      <g transform="translate(48.821875 424.350785)scale(0.1 -0.1)">
       <use xlink:href="#DejaVuSans-49"/>
       <use x="63.623047" xlink:href="#DejaVuSans-46"/>
       <use x="95.410156" xlink:href="#DejaVuSans-49"/>
      </g>
     </g>
    </g>
    <g id="ytick_8">
     <g id="line2d_19">
      <g>
       <use style="stroke:#000000;stroke-width:0.8;" x="71.725" xlink:href="#m3748f33378" y="392.291907"/>
      </g>
     </g>
     <g id="text_16">
      <!-- 1.2 -->
      <g transform="translate(48.821875 396.091125)scale(0.1 -0.1)">
       <use xlink:href="#DejaVuSans-49"/>
       <use x="63.623047" xlink:href="#DejaVuSans-46"/>
       <use x="95.410156" xlink:href="#DejaVuSans-50"/>
      </g>
     </g>
    </g>
    <g id="ytick_9">
     <g id="line2d_20">
      <g>
       <use style="stroke:#000000;stroke-width:0.8;" x="71.725" xlink:href="#m3748f33378" y="364.032247"/>
      </g>
     </g>
     <g id="text_17">
      <!-- 1.3 -->
      <defs>
       <path d="M 40.578125 39.3125 
Q 47.65625 37.796875 51.625 33 
Q 55.609375 28.21875 55.609375 21.1875 
Q 55.609375 10.40625 48.1875 4.484375 
Q 40.765625 -1.421875 27.09375 -1.421875 
Q 22.515625 -1.421875 17.65625 -0.515625 
Q 12.796875 0.390625 7.625 2.203125 
L 7.625 11.71875 
Q 11.71875 9.328125 16.59375 8.109375 
Q 21.484375 6.890625 26.8125 6.890625 
Q 36.078125 6.890625 40.9375 10.546875 
Q 45.796875 14.203125 45.796875 21.1875 
Q 45.796875 27.640625 41.28125 31.265625 
Q 36.765625 34.90625 28.71875 34.90625 
L 20.21875 34.90625 
L 20.21875 43.015625 
L 29.109375 43.015625 
Q 36.375 43.015625 40.234375 45.921875 
Q 44.09375 48.828125 44.09375 54.296875 
Q 44.09375 59.90625 40.109375 62.90625 
Q 36.140625 65.921875 28.71875 65.921875 
Q 24.65625 65.921875 20.015625 65.03125 
Q 15.375 64.15625 9.8125 62.3125 
L 9.8125 71.09375 
Q 15.4375 72.65625 20.34375 73.4375 
Q 25.25 74.21875 29.59375 74.21875 
Q 40.828125 74.21875 47.359375 69.109375 
Q 53.90625 64.015625 53.90625 55.328125 
Q 53.90625 49.265625 50.4375 45.09375 
Q 46.96875 40.921875 40.578125 39.3125 
z
" id="DejaVuSans-51"/>
      </defs>
      <g transform="translate(48.821875 367.831465)scale(0.1 -0.1)">
       <use xlink:href="#DejaVuSans-49"/>
       <use x="63.623047" xlink:href="#DejaVuSans-46"/>
       <use x="95.410156" xlink:href="#DejaVuSans-51"/>
      </g>
     </g>
    </g>
    <g id="ytick_10">
     <g id="line2d_21">
      <g>
       <use style="stroke:#000000;stroke-width:0.8;" x="71.725" xlink:href="#m3748f33378" y="335.772587"/>
      </g>
     </g>
     <g id="text_18">
      <!-- 1.4 -->
      <g transform="translate(48.821875 339.571806)scale(0.1 -0.1)">
       <use xlink:href="#DejaVuSans-49"/>
       <use x="63.623047" xlink:href="#DejaVuSans-46"/>
       <use x="95.410156" xlink:href="#DejaVuSans-52"/>
      </g>
     </g>
    </g>
    <g id="ytick_11">
     <g id="line2d_22">
      <g>
       <use style="stroke:#000000;stroke-width:0.8;" x="71.725" xlink:href="#m3748f33378" y="307.512927"/>
      </g>
     </g>
     <g id="text_19">
      <!-- 1.5 -->
      <g transform="translate(48.821875 311.312146)scale(0.1 -0.1)">
       <use xlink:href="#DejaVuSans-49"/>
       <use x="63.623047" xlink:href="#DejaVuSans-46"/>
       <use x="95.410156" xlink:href="#DejaVuSans-53"/>
      </g>
     </g>
    </g>
    <g id="ytick_12">
     <g id="line2d_23">
      <g>
       <use style="stroke:#000000;stroke-width:0.8;" x="71.725" xlink:href="#m3748f33378" y="279.253267"/>
      </g>
     </g>
     <g id="text_20">
      <!-- 1.6 -->
      <g transform="translate(48.821875 283.052486)scale(0.1 -0.1)">
       <use xlink:href="#DejaVuSans-49"/>
       <use x="63.623047" xlink:href="#DejaVuSans-46"/>
       <use x="95.410156" xlink:href="#DejaVuSans-54"/>
      </g>
     </g>
    </g>
    <g id="ytick_13">
     <g id="line2d_24">
      <g>
       <use style="stroke:#000000;stroke-width:0.8;" x="71.725" xlink:href="#m3748f33378" y="250.993607"/>
      </g>
     </g>
     <g id="text_21">
      <!-- 1.7 -->
      <g transform="translate(48.821875 254.792826)scale(0.1 -0.1)">
       <use xlink:href="#DejaVuSans-49"/>
       <use x="63.623047" xlink:href="#DejaVuSans-46"/>
       <use x="95.410156" xlink:href="#DejaVuSans-55"/>
      </g>
     </g>
    </g>
    <g id="text_22">
     <!-- mol/yr -->
     <defs>
      <path d="M 32.171875 -5.078125 
Q 28.375 -14.84375 24.75 -17.8125 
Q 21.140625 -20.796875 15.09375 -20.796875 
L 7.90625 -20.796875 
L 7.90625 -13.28125 
L 13.1875 -13.28125 
Q 16.890625 -13.28125 18.9375 -11.515625 
Q 21 -9.765625 23.484375 -3.21875 
L 25.09375 0.875 
L 2.984375 54.6875 
L 12.5 54.6875 
L 29.59375 11.921875 
L 46.6875 54.6875 
L 56.203125 54.6875 
z
" id="DejaVuSans-121"/>
     </defs>
     <g transform="translate(42.742187 371.692969)rotate(-90)scale(0.1 -0.1)">
      <use xlink:href="#DejaVuSans-109"/>
      <use x="97.412109" xlink:href="#DejaVuSans-111"/>
      <use x="158.59375" xlink:href="#DejaVuSans-108"/>
      <use x="186.376953" xlink:href="#DejaVuSans-47"/>
      <use x="220.068359" xlink:href="#DejaVuSans-121"/>
      <use x="279.248047" xlink:href="#DejaVuSans-114"/>
     </g>
    </g>
    <g id="text_23">
     <!-- 1e10 -->
     <g transform="translate(71.725 246.15)scale(0.1 -0.1)">
      <use xlink:href="#DejaVuSans-49"/>
      <use x="63.623047" xlink:href="#DejaVuSans-101"/>
      <use x="125.146484" xlink:href="#DejaVuSans-49"/>
      <use x="188.769531" xlink:href="#DejaVuSans-48"/>
     </g>
    </g>
   </g>
   <g id="line2d_25">
    <path clip-path="url(#p14421138df)" d="M 680.223864 406.572058 
L 660.566256 393.271053 
L 653.924859 389.149084 
L 642.119863 385.564282 
L 629.196377 380.768999 
L 617.217523 373.353801 
L 604.931518 367.340381 
L 591.370551 362.204234 
L 580.718816 356.165735 
L 578.232639 354.576533 
L 573.213922 351.192838 
L 563.674882 348.809761 
L 552.188627 345.099966 
L 541.849838 344.989394 
L 531.42412 343.856679 
L 521.977805 342.061324 
L 513.093633 343.046011 
L 501.485677 342.935517 
L 490.196461 341.48086 
L 485.693524 341.07442 
L 475.024404 344.512074 
L 464.187221 347.248292 
L 455.975302 348.336423 
L 445.735033 352.481215 
L 438.027303 354.342764 
L 423.075468 354.453367 
L 412.238284 356.347865 
L 403.435246 355.185291 
L 393.635419 354.414434 
L 381.140784 356.332953 
L 371.601744 354.171811 
L 363.349258 348.955252 
L 347.157231 328.571175 
L 338.481689 308.546044 
L 329.916258 295.030629 
L 320.41199 283.210294 
L 315.341115 277.749436 
L 306.995905 270.648428 
L 301.652652 266.554205 
L 293.875379 261.887555 
L 282.22106 260.523766 
L 270.972412 258.893542 
L 256.576923 261.530423 
L 244.557502 264.199176 
L 230.028721 270.130608 
L 218.148387 270.239261 
L 208.307992 277.507259 
L 201.324674 280.663091 
L 192.313005 287.771964 
L 185.683199 290.904774 
L 177.662524 298.238382 
L 171.959963 302.170326 
L 166.489214 312.198363 
L 159.529077 322.947617 
L 153.606295 333.566639 
L 149.549596 341.930857 
L 144.229524 356.674032 
L 139.390461 371.512986 
L 132.615772 386.043944 
L 129.503704 393.510849 
L 125.105082 406.502483 
L 121.384509 416.521543 
L 116.927935 427.5885 
L 107.116517 447.785763 
L 106.925273 447.92778 
L 100.915562 452.279903 
L 100.701136 452.515909 
L 100.701136 452.515909 
" style="fill:none;stroke:#800000;stroke-linecap:square;stroke-width:1.5;"/>
   </g>
   <g id="patch_9">
    <path d="M 71.725 462.2 
L 71.725 249.15 
" style="fill:none;stroke:#000000;stroke-linecap:square;stroke-linejoin:miter;stroke-width:0.8;"/>
   </g>
   <g id="patch_10">
    <path d="M 709.2 462.2 
L 709.2 249.15 
" style="fill:none;stroke:#000000;stroke-linecap:square;stroke-linejoin:miter;stroke-width:0.8;"/>
   </g>
   <g id="patch_11">
    <path d="M 71.725 462.2 
L 709.2 462.2 
" style="fill:none;stroke:#000000;stroke-linecap:square;stroke-linejoin:miter;stroke-width:0.8;"/>
   </g>
   <g id="patch_12">
    <path d="M 71.725 249.15 
L 709.2 249.15 
" style="fill:none;stroke:#000000;stroke-linecap:square;stroke-linejoin:miter;stroke-width:0.8;"/>
   </g>
   <g id="legend_2">
    <g id="patch_13">
     <path d="M 580.864063 364.514063 
L 702.2 364.514063 
Q 704.2 364.514063 704.2 362.514063 
L 704.2 348.835938 
Q 704.2 346.835938 702.2 346.835938 
L 580.864063 346.835938 
Q 578.864063 346.835938 578.864063 348.835938 
L 578.864063 362.514063 
Q 578.864063 364.514063 580.864063 364.514063 
z
" style="fill:#ffffff;opacity:0.8;stroke:#cccccc;stroke-linejoin:miter;"/>
    </g>
    <g id="line2d_26">
     <path d="M 582.864063 354.934375 
L 602.864063 354.934375 
" style="fill:none;stroke:#800000;stroke-linecap:square;stroke-width:1.5;"/>
    </g>
    <g id="line2d_27"/>
    <g id="text_24">
     <!-- hydrothermal flux -->
     <defs>
      <path d="M 54.890625 33.015625 
L 54.890625 0 
L 45.90625 0 
L 45.90625 32.71875 
Q 45.90625 40.484375 42.875 44.328125 
Q 39.84375 48.1875 33.796875 48.1875 
Q 26.515625 48.1875 22.3125 43.546875 
Q 18.109375 38.921875 18.109375 30.90625 
L 18.109375 0 
L 9.078125 0 
L 9.078125 75.984375 
L 18.109375 75.984375 
L 18.109375 46.1875 
Q 21.34375 51.125 25.703125 53.5625 
Q 30.078125 56 35.796875 56 
Q 45.21875 56 50.046875 50.171875 
Q 54.890625 44.34375 54.890625 33.015625 
z
" id="DejaVuSans-104"/>
      <path d="M 37.109375 75.984375 
L 37.109375 68.5 
L 28.515625 68.5 
Q 23.6875 68.5 21.796875 66.546875 
Q 19.921875 64.59375 19.921875 59.515625 
L 19.921875 54.6875 
L 34.71875 54.6875 
L 34.71875 47.703125 
L 19.921875 47.703125 
L 19.921875 0 
L 10.890625 0 
L 10.890625 47.703125 
L 2.296875 47.703125 
L 2.296875 54.6875 
L 10.890625 54.6875 
L 10.890625 58.5 
Q 10.890625 67.625 15.140625 71.796875 
Q 19.390625 75.984375 28.609375 75.984375 
z
" id="DejaVuSans-102"/>
      <path d="M 8.5 21.578125 
L 8.5 54.6875 
L 17.484375 54.6875 
L 17.484375 21.921875 
Q 17.484375 14.15625 20.5 10.265625 
Q 23.53125 6.390625 29.59375 6.390625 
Q 36.859375 6.390625 41.078125 11.03125 
Q 45.3125 15.671875 45.3125 23.6875 
L 45.3125 54.6875 
L 54.296875 54.6875 
L 54.296875 0 
L 45.3125 0 
L 45.3125 8.40625 
Q 42.046875 3.421875 37.71875 1 
Q 33.40625 -1.421875 27.6875 -1.421875 
Q 18.265625 -1.421875 13.375 4.4375 
Q 8.5 10.296875 8.5 21.578125 
z
M 31.109375 56 
z
" id="DejaVuSans-117"/>
      <path d="M 54.890625 54.6875 
L 35.109375 28.078125 
L 55.90625 0 
L 45.3125 0 
L 29.390625 21.484375 
L 13.484375 0 
L 2.875 0 
L 24.125 28.609375 
L 4.6875 54.6875 
L 15.28125 54.6875 
L 29.78125 35.203125 
L 44.28125 54.6875 
z
" id="DejaVuSans-120"/>
     </defs>
     <g transform="translate(610.864063 358.434375)scale(0.1 -0.1)">
      <use xlink:href="#DejaVuSans-104"/>
      <use x="63.378906" xlink:href="#DejaVuSans-121"/>
      <use x="122.558594" xlink:href="#DejaVuSans-100"/>
      <use x="186.035156" xlink:href="#DejaVuSans-114"/>
      <use x="224.898438" xlink:href="#DejaVuSans-111"/>
      <use x="286.080078" xlink:href="#DejaVuSans-116"/>
      <use x="325.289062" xlink:href="#DejaVuSans-104"/>
      <use x="388.667969" xlink:href="#DejaVuSans-101"/>
      <use x="450.191406" xlink:href="#DejaVuSans-114"/>
      <use x="489.554688" xlink:href="#DejaVuSans-109"/>
      <use x="586.966797" xlink:href="#DejaVuSans-97"/>
      <use x="648.246094" xlink:href="#DejaVuSans-108"/>
      <use x="676.029297" xlink:href="#DejaVuSans-32"/>
      <use x="707.816406" xlink:href="#DejaVuSans-102"/>
      <use x="743.021484" xlink:href="#DejaVuSans-108"/>
      <use x="770.804688" xlink:href="#DejaVuSans-117"/>
      <use x="834.183594" xlink:href="#DejaVuSans-120"/>
     </g>
    </g>
   </g>
  </g>
 </g>
 <defs>
  <clipPath id="p75bd93a82e">
   <rect height="213.05" width="637.475" x="71.725" y="10.8"/>
  </clipPath>
  <clipPath id="p14421138df">
   <rect height="213.05" width="637.475" x="71.725" y="249.15"/>
  </clipPath>
 </defs>
</svg>
