<?xml version="1.0" encoding="utf-8" standalone="no"?>
<!DOCTYPE svg PUBLIC "-//W3C//DTD SVG 1.1//EN"
  "http://www.w3.org/Graphics/SVG/1.1/DTD/svg11.dtd">
<!-- Created with matplotlib (https://matplotlib.org/) -->
<svg height="576pt" version="1.1" viewBox="0 0 864 576" width="864pt" xmlns="http://www.w3.org/2000/svg" xmlns:xlink="http://www.w3.org/1999/xlink">
 <defs>
  <style type="text/css">
*{stroke-linecap:butt;stroke-linejoin:round;}
  </style>
 </defs>
 <g id="figure_1">
  <g id="patch_1">
   <path d="M 0 576 
L 864 576 
L 864 0 
L 0 0 
z
" style="fill:#ffffff;"/>
  </g>
  <g id="axes_1">
   <g id="patch_2">
    <path d="M 108 504 
L 304.941176 504 
L 304.941176 69.12 
L 108 69.12 
z
" style="fill:#ffffff;"/>
   </g>
   <g id="PathCollection_1">
    <defs>
     <path d="M 0 3 
C 0.795609 3 1.55874 2.683901 2.12132 2.12132 
C 2.683901 1.55874 3 0.795609 3 0 
C 3 -0.795609 2.683901 -1.55874 2.12132 -2.12132 
C 1.55874 -2.683901 0.795609 -3 0 -3 
C -0.795609 -3 -1.55874 -2.683901 -2.12132 -2.12132 
C -2.683901 -1.55874 -3 -0.795609 -3 0 
C -3 0.795609 -2.683901 1.55874 -2.12132 2.12132 
C -1.55874 2.683901 -0.795609 3 0 3 
z
" id="C0_0_8d4305a007"/>
    </defs>
    <g clip-path="url(#pe14f958615)">
     <use style="fill:none;stroke:#0000ff;stroke-opacity:0.4;" x="265.749882" xlink:href="#C0_0_8d4305a007" y="338.943273"/>
    </g>
    <g clip-path="url(#pe14f958615)">
     <use style="fill:none;stroke:#0000ff;stroke-opacity:0.4;" x="254.130353" xlink:href="#C0_0_8d4305a007" y="333.013091"/>
    </g>
    <g clip-path="url(#pe14f958615)">
     <use style="fill:none;stroke:#0000ff;stroke-opacity:0.4;" x="261.220235" xlink:href="#C0_0_8d4305a007" y="330.937527"/>
    </g>
    <g clip-path="url(#pe14f958615)">
     <use style="fill:none;stroke:#0000ff;stroke-opacity:0.4;" x="268.113176" xlink:href="#C0_0_8d4305a007" y="329.356145"/>
    </g>
    <g clip-path="url(#pe14f958615)">
     <use style="fill:none;stroke:#0000ff;stroke-opacity:0.4;" x="249.994588" xlink:href="#C0_0_8d4305a007" y="327.675927"/>
    </g>
    <g clip-path="url(#pe14f958615)">
     <use style="fill:none;stroke:#0000ff;stroke-opacity:0.4;" x="250.191529" xlink:href="#C0_0_8d4305a007" y="326.391055"/>
    </g>
    <g clip-path="url(#pe14f958615)">
     <use style="fill:none;stroke:#0000ff;stroke-opacity:0.4;" x="244.480235" xlink:href="#C0_0_8d4305a007" y="316.606255"/>
    </g>
    <g clip-path="url(#pe14f958615)">
     <use style="fill:none;stroke:#0000ff;stroke-opacity:0.4;" x="250.388471" xlink:href="#C0_0_8d4305a007" y="304.251709"/>
    </g>
    <g clip-path="url(#pe14f958615)">
     <use style="fill:none;stroke:#0000ff;stroke-opacity:0.4;" x="253.736471" xlink:href="#C0_0_8d4305a007" y="289.623927"/>
    </g>
    <g clip-path="url(#pe14f958615)">
     <use style="fill:none;stroke:#0000ff;stroke-opacity:0.4;" x="245.858824" xlink:href="#C0_0_8d4305a007" y="276.379855"/>
    </g>
    <g clip-path="url(#pe14f958615)">
     <use style="fill:none;stroke:#0000ff;stroke-opacity:0.4;" x="247.434353" xlink:href="#C0_0_8d4305a007" y="275.688"/>
    </g>
    <g clip-path="url(#pe14f958615)">
     <use style="fill:none;stroke:#0000ff;stroke-opacity:0.4;" x="242.904706" xlink:href="#C0_0_8d4305a007" y="272.327564"/>
    </g>
    <g clip-path="url(#pe14f958615)">
     <use style="fill:none;stroke:#0000ff;stroke-opacity:0.4;" x="249.600706" xlink:href="#C0_0_8d4305a007" y="272.327564"/>
    </g>
    <g clip-path="url(#pe14f958615)">
     <use style="fill:none;stroke:#0000ff;stroke-opacity:0.4;" x="235.814824" xlink:href="#C0_0_8d4305a007" y="267.583418"/>
    </g>
    <g clip-path="url(#pe14f958615)">
     <use style="fill:none;stroke:#0000ff;stroke-opacity:0.4;" x="237.784235" xlink:href="#C0_0_8d4305a007" y="261.5544"/>
    </g>
    <g clip-path="url(#pe14f958615)">
     <use style="fill:none;stroke:#0000ff;stroke-opacity:0.4;" x="238.178118" xlink:href="#C0_0_8d4305a007" y="247.124291"/>
    </g>
    <g clip-path="url(#pe14f958615)">
     <use style="fill:none;stroke:#0000ff;stroke-opacity:0.4;" x="238.572" xlink:href="#C0_0_8d4305a007" y="247.124291"/>
    </g>
    <g clip-path="url(#pe14f958615)">
     <use style="fill:none;stroke:#0000ff;stroke-opacity:0.4;" x="243.298588" xlink:href="#C0_0_8d4305a007" y="244.851055"/>
    </g>
    <g clip-path="url(#pe14f958615)">
     <use style="fill:none;stroke:#0000ff;stroke-opacity:0.4;" x="235.027059" xlink:href="#C0_0_8d4305a007" y="244.851055"/>
    </g>
    <g clip-path="url(#pe14f958615)">
     <use style="fill:none;stroke:#0000ff;stroke-opacity:0.4;" x="234.239294" xlink:href="#C0_0_8d4305a007" y="244.851055"/>
    </g>
    <g clip-path="url(#pe14f958615)">
     <use style="fill:none;stroke:#0000ff;stroke-opacity:0.4;" x="236.799529" xlink:href="#C0_0_8d4305a007" y="243.467345"/>
    </g>
    <g clip-path="url(#pe14f958615)">
     <use style="fill:none;stroke:#0000ff;stroke-opacity:0.4;" x="235.814824" xlink:href="#C0_0_8d4305a007" y="243.467345"/>
    </g>
    <g clip-path="url(#pe14f958615)">
     <use style="fill:none;stroke:#0000ff;stroke-opacity:0.4;" x="232.072941" xlink:href="#C0_0_8d4305a007" y="243.467345"/>
    </g>
    <g clip-path="url(#pe14f958615)">
     <use style="fill:none;stroke:#0000ff;stroke-opacity:0.4;" x="229.709647" xlink:href="#C0_0_8d4305a007" y="240.601091"/>
    </g>
    <g clip-path="url(#pe14f958615)">
     <use style="fill:none;stroke:#0000ff;stroke-opacity:0.4;" x="232.663765" xlink:href="#C0_0_8d4305a007" y="239.513891"/>
    </g>
    <g clip-path="url(#pe14f958615)">
     <use style="fill:none;stroke:#0000ff;stroke-opacity:0.4;" x="228.921882" xlink:href="#C0_0_8d4305a007" y="238.624364"/>
    </g>
    <g clip-path="url(#pe14f958615)">
     <use style="fill:none;stroke:#0000ff;stroke-opacity:0.4;" x="227.543294" xlink:href="#C0_0_8d4305a007" y="238.624364"/>
    </g>
    <g clip-path="url(#pe14f958615)">
     <use style="fill:none;stroke:#0000ff;stroke-opacity:0.4;" x="229.512706" xlink:href="#C0_0_8d4305a007" y="238.624364"/>
    </g>
    <g clip-path="url(#pe14f958615)">
     <use style="fill:none;stroke:#0000ff;stroke-opacity:0.4;" x="229.512706" xlink:href="#C0_0_8d4305a007" y="237.734836"/>
    </g>
    <g clip-path="url(#pe14f958615)">
     <use style="fill:none;stroke:#0000ff;stroke-opacity:0.4;" x="228.921882" xlink:href="#C0_0_8d4305a007" y="236.944145"/>
    </g>
    <g clip-path="url(#pe14f958615)">
     <use style="fill:none;stroke:#0000ff;stroke-opacity:0.4;" x="227.937176" xlink:href="#C0_0_8d4305a007" y="236.944145"/>
    </g>
    <g clip-path="url(#pe14f958615)">
     <use style="fill:none;stroke:#0000ff;stroke-opacity:0.4;" x="229.709647" xlink:href="#C0_0_8d4305a007" y="236.054618"/>
    </g>
    <g clip-path="url(#pe14f958615)">
     <use style="fill:none;stroke:#0000ff;stroke-opacity:0.4;" x="227.740235" xlink:href="#C0_0_8d4305a007" y="236.054618"/>
    </g>
    <g clip-path="url(#pe14f958615)">
     <use style="fill:none;stroke:#0000ff;stroke-opacity:0.4;" x="229.709647" xlink:href="#C0_0_8d4305a007" y="236.054618"/>
    </g>
    <g clip-path="url(#pe14f958615)">
     <use style="fill:none;stroke:#0000ff;stroke-opacity:0.4;" x="208.243059" xlink:href="#C0_0_8d4305a007" y="229.630255"/>
    </g>
    <g clip-path="url(#pe14f958615)">
     <use style="fill:none;stroke:#0000ff;stroke-opacity:0.4;" x="223.407529" xlink:href="#C0_0_8d4305a007" y="229.630255"/>
    </g>
    <g clip-path="url(#pe14f958615)">
     <use style="fill:none;stroke:#0000ff;stroke-opacity:0.4;" x="196.032706" xlink:href="#C0_0_8d4305a007" y="224.391927"/>
    </g>
    <g clip-path="url(#pe14f958615)">
     <use style="fill:none;stroke:#0000ff;stroke-opacity:0.4;" x="221.438118" xlink:href="#C0_0_8d4305a007" y="224.391927"/>
    </g>
    <g clip-path="url(#pe14f958615)">
     <use style="fill:none;stroke:#0000ff;stroke-opacity:0.4;" x="210.803294" xlink:href="#C0_0_8d4305a007" y="224.391927"/>
    </g>
    <g clip-path="url(#pe14f958615)">
     <use style="fill:none;stroke:#0000ff;stroke-opacity:0.4;" x="208.833882" xlink:href="#C0_0_8d4305a007" y="224.391927"/>
    </g>
    <g clip-path="url(#pe14f958615)">
     <use style="fill:none;stroke:#0000ff;stroke-opacity:0.4;" x="218.877882" xlink:href="#C0_0_8d4305a007" y="221.723345"/>
    </g>
    <g clip-path="url(#pe14f958615)">
     <use style="fill:none;stroke:#0000ff;stroke-opacity:0.4;" x="211.788" xlink:href="#C0_0_8d4305a007" y="221.723345"/>
    </g>
    <g clip-path="url(#pe14f958615)">
     <use style="fill:none;stroke:#0000ff;stroke-opacity:0.4;" x="208.44" xlink:href="#C0_0_8d4305a007" y="221.723345"/>
    </g>
    <g clip-path="url(#pe14f958615)">
     <use style="fill:none;stroke:#0000ff;stroke-opacity:0.4;" x="208.046118" xlink:href="#C0_0_8d4305a007" y="214.014109"/>
    </g>
    <g clip-path="url(#pe14f958615)">
     <use style="fill:none;stroke:#0000ff;stroke-opacity:0.4;" x="213.363529" xlink:href="#C0_0_8d4305a007" y="214.014109"/>
    </g>
    <g clip-path="url(#pe14f958615)">
     <use style="fill:none;stroke:#0000ff;stroke-opacity:0.4;" x="211.000235" xlink:href="#C0_0_8d4305a007" y="214.014109"/>
    </g>
    <g clip-path="url(#pe14f958615)">
     <use style="fill:none;stroke:#0000ff;stroke-opacity:0.4;" x="202.925647" xlink:href="#C0_0_8d4305a007" y="214.014109"/>
    </g>
    <g clip-path="url(#pe14f958615)">
     <use style="fill:none;stroke:#0000ff;stroke-opacity:0.4;" x="207.258353" xlink:href="#C0_0_8d4305a007" y="213.7176"/>
    </g>
    <g clip-path="url(#pe14f958615)">
     <use style="fill:none;stroke:#0000ff;stroke-opacity:0.4;" x="201.547059" xlink:href="#C0_0_8d4305a007" y="213.7176"/>
    </g>
    <g clip-path="url(#pe14f958615)">
     <use style="fill:none;stroke:#0000ff;stroke-opacity:0.4;" x="205.682824" xlink:href="#C0_0_8d4305a007" y="211.839709"/>
    </g>
    <g clip-path="url(#pe14f958615)">
     <use style="fill:none;stroke:#0000ff;stroke-opacity:0.4;" x="203.319529" xlink:href="#C0_0_8d4305a007" y="211.839709"/>
    </g>
    <g clip-path="url(#pe14f958615)">
     <use style="fill:none;stroke:#0000ff;stroke-opacity:0.4;" x="198.789882" xlink:href="#C0_0_8d4305a007" y="208.973455"/>
    </g>
    <g clip-path="url(#pe14f958615)">
     <use style="fill:none;stroke:#0000ff;stroke-opacity:0.4;" x="198.002118" xlink:href="#C0_0_8d4305a007" y="208.973455"/>
    </g>
    <g clip-path="url(#pe14f958615)">
     <use style="fill:none;stroke:#0000ff;stroke-opacity:0.4;" x="182.246824" xlink:href="#C0_0_8d4305a007" y="206.897891"/>
    </g>
    <g clip-path="url(#pe14f958615)">
     <use style="fill:none;stroke:#0000ff;stroke-opacity:0.4;" x="181.459059" xlink:href="#C0_0_8d4305a007" y="206.897891"/>
    </g>
    <g clip-path="url(#pe14f958615)">
     <use style="fill:none;stroke:#0000ff;stroke-opacity:0.4;" x="177.914118" xlink:href="#C0_0_8d4305a007" y="206.897891"/>
    </g>
    <g clip-path="url(#pe14f958615)">
     <use style="fill:none;stroke:#0000ff;stroke-opacity:0.4;" x="176.338588" xlink:href="#C0_0_8d4305a007" y="205.613018"/>
    </g>
    <g clip-path="url(#pe14f958615)">
     <use style="fill:none;stroke:#0000ff;stroke-opacity:0.4;" x="176.732471" xlink:href="#C0_0_8d4305a007" y="205.118836"/>
    </g>
    <g clip-path="url(#pe14f958615)">
     <use style="fill:none;stroke:#0000ff;stroke-opacity:0.4;" x="176.535529" xlink:href="#C0_0_8d4305a007" y="205.118836"/>
    </g>
    <g clip-path="url(#pe14f958615)">
     <use style="fill:none;stroke:#0000ff;stroke-opacity:0.4;" x="174.369176" xlink:href="#C0_0_8d4305a007" y="203.240945"/>
    </g>
    <g clip-path="url(#pe14f958615)">
     <use style="fill:none;stroke:#0000ff;stroke-opacity:0.4;" x="163.931294" xlink:href="#C0_0_8d4305a007" y="201.264218"/>
    </g>
    <g clip-path="url(#pe14f958615)">
     <use style="fill:none;stroke:#0000ff;stroke-opacity:0.4;" x="136.950353" xlink:href="#C0_0_8d4305a007" y="188.514327"/>
    </g>
    <g clip-path="url(#pe14f958615)">
     <use style="fill:none;stroke:#0000ff;stroke-opacity:0.4;" x="142.070824" xlink:href="#C0_0_8d4305a007" y="182.781818"/>
    </g>
   </g>
   <g id="matplotlib.axis_1">
    <g id="xtick_1">
     <g id="line2d_1">
      <defs>
       <path d="M 0 0 
L 0 3.5 
" id="mc4bcce3a23" style="stroke:#000000;stroke-width:0.8;"/>
      </defs>
      <g>
       <use style="stroke:#000000;stroke-width:0.8;" x="147.388235" xlink:href="#mc4bcce3a23" y="504"/>
      </g>
     </g>
     <g id="text_1">
      <!-- 0.7082 -->
      <defs>
       <path d="M 31.78125 66.40625 
Q 24.171875 66.40625 20.328125 58.90625 
Q 16.5 51.421875 16.5 36.375 
Q 16.5 21.390625 20.328125 13.890625 
Q 24.171875 6.390625 31.78125 6.390625 
Q 39.453125 6.390625 43.28125 13.890625 
Q 47.125 21.390625 47.125 36.375 
Q 47.125 51.421875 43.28125 58.90625 
Q 39.453125 66.40625 31.78125 66.40625 
z
M 31.78125 74.21875 
Q 44.046875 74.21875 50.515625 64.515625 
Q 56.984375 54.828125 56.984375 36.375 
Q 56.984375 17.96875 50.515625 8.265625 
Q 44.046875 -1.421875 31.78125 -1.421875 
Q 19.53125 -1.421875 13.0625 8.265625 
Q 6.59375 17.96875 6.59375 36.375 
Q 6.59375 54.828125 13.0625 64.515625 
Q 19.53125 74.21875 31.78125 74.21875 
z
" id="DejaVuSans-48"/>
       <path d="M 10.6875 12.40625 
L 21 12.40625 
L 21 0 
L 10.6875 0 
z
" id="DejaVuSans-46"/>
       <path d="M 8.203125 72.90625 
L 55.078125 72.90625 
L 55.078125 68.703125 
L 28.609375 0 
L 18.3125 0 
L 43.21875 64.59375 
L 8.203125 64.59375 
z
" id="DejaVuSans-55"/>
       <path d="M 31.78125 34.625 
Q 24.75 34.625 20.71875 30.859375 
Q 16.703125 27.09375 16.703125 20.515625 
Q 16.703125 13.921875 20.71875 10.15625 
Q 24.75 6.390625 31.78125 6.390625 
Q 38.8125 6.390625 42.859375 10.171875 
Q 46.921875 13.96875 46.921875 20.515625 
Q 46.921875 27.09375 42.890625 30.859375 
Q 38.875 34.625 31.78125 34.625 
z
M 21.921875 38.8125 
Q 15.578125 40.375 12.03125 44.71875 
Q 8.5 49.078125 8.5 55.328125 
Q 8.5 64.0625 14.71875 69.140625 
Q 20.953125 74.21875 31.78125 74.21875 
Q 42.671875 74.21875 48.875 69.140625 
Q 55.078125 64.0625 55.078125 55.328125 
Q 55.078125 49.078125 51.53125 44.71875 
Q 48 40.375 41.703125 38.8125 
Q 48.828125 37.15625 52.796875 32.3125 
Q 56.78125 27.484375 56.78125 20.515625 
Q 56.78125 9.90625 50.3125 4.234375 
Q 43.84375 -1.421875 31.78125 -1.421875 
Q 19.734375 -1.421875 13.25 4.234375 
Q 6.78125 9.90625 6.78125 20.515625 
Q 6.78125 27.484375 10.78125 32.3125 
Q 14.796875 37.15625 21.921875 38.8125 
z
M 18.3125 54.390625 
Q 18.3125 48.734375 21.84375 45.5625 
Q 25.390625 42.390625 31.78125 42.390625 
Q 38.140625 42.390625 41.71875 45.5625 
Q 45.3125 48.734375 45.3125 54.390625 
Q 45.3125 60.0625 41.71875 63.234375 
Q 38.140625 66.40625 31.78125 66.40625 
Q 25.390625 66.40625 21.84375 63.234375 
Q 18.3125 60.0625 18.3125 54.390625 
z
" id="DejaVuSans-56"/>
       <path d="M 19.1875 8.296875 
L 53.609375 8.296875 
L 53.609375 0 
L 7.328125 0 
L 7.328125 8.296875 
Q 12.9375 14.109375 22.625 23.890625 
Q 32.328125 33.6875 34.8125 36.53125 
Q 39.546875 41.84375 41.421875 45.53125 
Q 43.3125 49.21875 43.3125 52.78125 
Q 43.3125 58.59375 39.234375 62.25 
Q 35.15625 65.921875 28.609375 65.921875 
Q 23.96875 65.921875 18.8125 64.3125 
Q 13.671875 62.703125 7.8125 59.421875 
L 7.8125 69.390625 
Q 13.765625 71.78125 18.9375 73 
Q 24.125 74.21875 28.421875 74.21875 
Q 39.75 74.21875 46.484375 68.546875 
Q 53.21875 62.890625 53.21875 53.421875 
Q 53.21875 48.921875 51.53125 44.890625 
Q 49.859375 40.875 45.40625 35.40625 
Q 44.1875 33.984375 37.640625 27.21875 
Q 31.109375 20.453125 19.1875 8.296875 
z
" id="DejaVuSans-50"/>
      </defs>
      <g transform="translate(129.892923 518.598438)scale(0.1 -0.1)">
       <use xlink:href="#DejaVuSans-48"/>
       <use x="63.623047" xlink:href="#DejaVuSans-46"/>
       <use x="95.410156" xlink:href="#DejaVuSans-55"/>
       <use x="159.033203" xlink:href="#DejaVuSans-48"/>
       <use x="222.65625" xlink:href="#DejaVuSans-56"/>
       <use x="286.279297" xlink:href="#DejaVuSans-50"/>
      </g>
     </g>
    </g>
    <g id="xtick_2">
     <g id="line2d_2">
      <g>
       <use style="stroke:#000000;stroke-width:0.8;" x="206.470588" xlink:href="#mc4bcce3a23" y="504"/>
      </g>
     </g>
     <g id="text_2">
      <!-- 0.7085 -->
      <defs>
       <path d="M 10.796875 72.90625 
L 49.515625 72.90625 
L 49.515625 64.59375 
L 19.828125 64.59375 
L 19.828125 46.734375 
Q 21.96875 47.46875 24.109375 47.828125 
Q 26.265625 48.1875 28.421875 48.1875 
Q 40.625 48.1875 47.75 41.5 
Q 54.890625 34.8125 54.890625 23.390625 
Q 54.890625 11.625 47.5625 5.09375 
Q 40.234375 -1.421875 26.90625 -1.421875 
Q 22.3125 -1.421875 17.546875 -0.640625 
Q 12.796875 0.140625 7.71875 1.703125 
L 7.71875 11.625 
Q 12.109375 9.234375 16.796875 8.0625 
Q 21.484375 6.890625 26.703125 6.890625 
Q 35.15625 6.890625 40.078125 11.328125 
Q 45.015625 15.765625 45.015625 23.390625 
Q 45.015625 31 40.078125 35.4375 
Q 35.15625 39.890625 26.703125 39.890625 
Q 22.75 39.890625 18.8125 39.015625 
Q 14.890625 38.140625 10.796875 36.28125 
z
" id="DejaVuSans-53"/>
      </defs>
      <g transform="translate(188.975276 518.598438)scale(0.1 -0.1)">
       <use xlink:href="#DejaVuSans-48"/>
       <use x="63.623047" xlink:href="#DejaVuSans-46"/>
       <use x="95.410156" xlink:href="#DejaVuSans-55"/>
       <use x="159.033203" xlink:href="#DejaVuSans-48"/>
       <use x="222.65625" xlink:href="#DejaVuSans-56"/>
       <use x="286.279297" xlink:href="#DejaVuSans-53"/>
      </g>
     </g>
    </g>
    <g id="xtick_3">
     <g id="line2d_3">
      <g>
       <use style="stroke:#000000;stroke-width:0.8;" x="265.552941" xlink:href="#mc4bcce3a23" y="504"/>
      </g>
     </g>
     <g id="text_3">
      <!-- 0.7088 -->
      <g transform="translate(248.057629 518.598438)scale(0.1 -0.1)">
       <use xlink:href="#DejaVuSans-48"/>
       <use x="63.623047" xlink:href="#DejaVuSans-46"/>
       <use x="95.410156" xlink:href="#DejaVuSans-55"/>
       <use x="159.033203" xlink:href="#DejaVuSans-48"/>
       <use x="222.65625" xlink:href="#DejaVuSans-56"/>
       <use x="286.279297" xlink:href="#DejaVuSans-56"/>
      </g>
     </g>
    </g>
    <g id="text_4">
     <!-- $^{87}Sr/^{86}Sr$ -->
     <defs>
      <path d="M 60.296875 70.515625 
L 58.40625 60.890625 
Q 53.46875 63.53125 48.609375 64.875 
Q 43.75 66.21875 39.203125 66.21875 
Q 30.375 66.21875 25.140625 62.359375 
Q 19.921875 58.5 19.921875 52.09375 
Q 19.921875 48.578125 21.84375 46.703125 
Q 23.78125 44.828125 31.78125 42.671875 
L 37.703125 41.21875 
Q 47.703125 38.625 51.609375 34.640625 
Q 55.515625 30.671875 55.515625 23.484375 
Q 55.515625 12.453125 46.84375 5.515625 
Q 38.1875 -1.421875 24.03125 -1.421875 
Q 18.21875 -1.421875 12.359375 -0.265625 
Q 6.5 0.875 0.59375 3.21875 
L 2.59375 13.375 
Q 8.015625 10.015625 13.453125 8.296875 
Q 18.890625 6.59375 24.3125 6.59375 
Q 33.546875 6.59375 39.109375 10.6875 
Q 44.671875 14.796875 44.671875 21.390625 
Q 44.671875 25.78125 42.453125 28.046875 
Q 40.234375 30.328125 32.90625 32.171875 
L 27 33.6875 
Q 16.890625 36.328125 13.203125 39.765625 
Q 9.515625 43.21875 9.515625 49.421875 
Q 9.515625 60.296875 17.890625 67.25 
Q 26.265625 74.21875 39.703125 74.21875 
Q 44.921875 74.21875 50.046875 73.28125 
Q 55.171875 72.359375 60.296875 70.515625 
z
" id="DejaVuSans-Oblique-83"/>
      <path d="M 44.578125 46.390625 
Q 43.21875 47.125 41.453125 47.515625 
Q 39.703125 47.90625 37.703125 47.90625 
Q 30.515625 47.90625 25.140625 42.453125 
Q 19.78125 37.015625 18.015625 27.875 
L 12.5 0 
L 3.515625 0 
L 14.203125 54.6875 
L 23.1875 54.6875 
L 21.484375 46.1875 
Q 25.046875 50.921875 30 53.453125 
Q 34.96875 56 40.578125 56 
Q 42.046875 56 43.453125 55.828125 
Q 44.875 55.671875 46.296875 55.28125 
z
" id="DejaVuSans-Oblique-114"/>
      <path d="M 25.390625 72.90625 
L 33.6875 72.90625 
L 8.296875 -9.28125 
L 0 -9.28125 
z
" id="DejaVuSans-47"/>
      <path d="M 33.015625 40.375 
Q 26.375 40.375 22.484375 35.828125 
Q 18.609375 31.296875 18.609375 23.390625 
Q 18.609375 15.53125 22.484375 10.953125 
Q 26.375 6.390625 33.015625 6.390625 
Q 39.65625 6.390625 43.53125 10.953125 
Q 47.40625 15.53125 47.40625 23.390625 
Q 47.40625 31.296875 43.53125 35.828125 
Q 39.65625 40.375 33.015625 40.375 
z
M 52.59375 71.296875 
L 52.59375 62.3125 
Q 48.875 64.0625 45.09375 64.984375 
Q 41.3125 65.921875 37.59375 65.921875 
Q 27.828125 65.921875 22.671875 59.328125 
Q 17.53125 52.734375 16.796875 39.40625 
Q 19.671875 43.65625 24.015625 45.921875 
Q 28.375 48.1875 33.59375 48.1875 
Q 44.578125 48.1875 50.953125 41.515625 
Q 57.328125 34.859375 57.328125 23.390625 
Q 57.328125 12.15625 50.6875 5.359375 
Q 44.046875 -1.421875 33.015625 -1.421875 
Q 20.359375 -1.421875 13.671875 8.265625 
Q 6.984375 17.96875 6.984375 36.375 
Q 6.984375 53.65625 15.1875 63.9375 
Q 23.390625 74.21875 37.203125 74.21875 
Q 40.921875 74.21875 44.703125 73.484375 
Q 48.484375 72.75 52.59375 71.296875 
z
" id="DejaVuSans-54"/>
     </defs>
     <g transform="translate(180.730588 534.3025)scale(0.12 -0.12)">
      <use transform="translate(0.957031 39.046875)scale(0.7)" xlink:href="#DejaVuSans-56"/>
      <use transform="translate(45.493164 39.046875)scale(0.7)" xlink:href="#DejaVuSans-55"/>
      <use transform="translate(92.763672 0.765625)" xlink:href="#DejaVuSans-Oblique-83"/>
      <use transform="translate(156.240234 0.765625)" xlink:href="#DejaVuSans-Oblique-114"/>
      <use transform="translate(197.353516 0.765625)" xlink:href="#DejaVuSans-47"/>
      <use transform="translate(232.001953 39.046875)scale(0.7)" xlink:href="#DejaVuSans-56"/>
      <use transform="translate(276.538086 39.046875)scale(0.7)" xlink:href="#DejaVuSans-54"/>
      <use transform="translate(323.808594 0.765625)" xlink:href="#DejaVuSans-Oblique-83"/>
      <use transform="translate(387.285156 0.765625)" xlink:href="#DejaVuSans-Oblique-114"/>
     </g>
    </g>
   </g>
   <g id="matplotlib.axis_2">
    <g id="ytick_1">
     <g id="line2d_4">
      <defs>
       <path d="M 0 0 
L -3.5 0 
" id="mbcf1dd1329" style="stroke:#000000;stroke-width:0.8;"/>
      </defs>
      <g>
       <use style="stroke:#000000;stroke-width:0.8;" x="108" xlink:href="#mbcf1dd1329" y="88.887273"/>
      </g>
     </g>
     <g id="text_5">
      <!-- 445 -->
      <defs>
       <path d="M 37.796875 64.3125 
L 12.890625 25.390625 
L 37.796875 25.390625 
z
M 35.203125 72.90625 
L 47.609375 72.90625 
L 47.609375 25.390625 
L 58.015625 25.390625 
L 58.015625 17.1875 
L 47.609375 17.1875 
L 47.609375 0 
L 37.796875 0 
L 37.796875 17.1875 
L 4.890625 17.1875 
L 4.890625 26.703125 
z
" id="DejaVuSans-52"/>
      </defs>
      <g transform="translate(81.9125 92.686491)scale(0.1 -0.1)">
       <use xlink:href="#DejaVuSans-52"/>
       <use x="63.623047" xlink:href="#DejaVuSans-52"/>
       <use x="127.246094" xlink:href="#DejaVuSans-53"/>
      </g>
     </g>
    </g>
    <g id="ytick_2">
     <g id="line2d_5">
      <g>
       <use style="stroke:#000000;stroke-width:0.8;" x="108" xlink:href="#mbcf1dd1329" y="138.305455"/>
      </g>
     </g>
     <g id="text_6">
      <!-- 450 -->
      <g transform="translate(81.9125 142.104673)scale(0.1 -0.1)">
       <use xlink:href="#DejaVuSans-52"/>
       <use x="63.623047" xlink:href="#DejaVuSans-53"/>
       <use x="127.246094" xlink:href="#DejaVuSans-48"/>
      </g>
     </g>
    </g>
    <g id="ytick_3">
     <g id="line2d_6">
      <g>
       <use style="stroke:#000000;stroke-width:0.8;" x="108" xlink:href="#mbcf1dd1329" y="187.723636"/>
      </g>
     </g>
     <g id="text_7">
      <!-- 455 -->
      <g transform="translate(81.9125 191.522855)scale(0.1 -0.1)">
       <use xlink:href="#DejaVuSans-52"/>
       <use x="63.623047" xlink:href="#DejaVuSans-53"/>
       <use x="127.246094" xlink:href="#DejaVuSans-53"/>
      </g>
     </g>
    </g>
    <g id="ytick_4">
     <g id="line2d_7">
      <g>
       <use style="stroke:#000000;stroke-width:0.8;" x="108" xlink:href="#mbcf1dd1329" y="237.141818"/>
      </g>
     </g>
     <g id="text_8">
      <!-- 460 -->
      <g transform="translate(81.9125 240.941037)scale(0.1 -0.1)">
       <use xlink:href="#DejaVuSans-52"/>
       <use x="63.623047" xlink:href="#DejaVuSans-54"/>
       <use x="127.246094" xlink:href="#DejaVuSans-48"/>
      </g>
     </g>
    </g>
    <g id="ytick_5">
     <g id="line2d_8">
      <g>
       <use style="stroke:#000000;stroke-width:0.8;" x="108" xlink:href="#mbcf1dd1329" y="286.56"/>
      </g>
     </g>
     <g id="text_9">
      <!-- 465 -->
      <g transform="translate(81.9125 290.359219)scale(0.1 -0.1)">
       <use xlink:href="#DejaVuSans-52"/>
       <use x="63.623047" xlink:href="#DejaVuSans-54"/>
       <use x="127.246094" xlink:href="#DejaVuSans-53"/>
      </g>
     </g>
    </g>
    <g id="ytick_6">
     <g id="line2d_9">
      <g>
       <use style="stroke:#000000;stroke-width:0.8;" x="108" xlink:href="#mbcf1dd1329" y="335.978182"/>
      </g>
     </g>
     <g id="text_10">
      <!-- 470 -->
      <g transform="translate(81.9125 339.777401)scale(0.1 -0.1)">
       <use xlink:href="#DejaVuSans-52"/>
       <use x="63.623047" xlink:href="#DejaVuSans-55"/>
       <use x="127.246094" xlink:href="#DejaVuSans-48"/>
      </g>
     </g>
    </g>
    <g id="ytick_7">
     <g id="line2d_10">
      <g>
       <use style="stroke:#000000;stroke-width:0.8;" x="108" xlink:href="#mbcf1dd1329" y="385.396364"/>
      </g>
     </g>
     <g id="text_11">
      <!-- 475 -->
      <g transform="translate(81.9125 389.195582)scale(0.1 -0.1)">
       <use xlink:href="#DejaVuSans-52"/>
       <use x="63.623047" xlink:href="#DejaVuSans-55"/>
       <use x="127.246094" xlink:href="#DejaVuSans-53"/>
      </g>
     </g>
    </g>
    <g id="ytick_8">
     <g id="line2d_11">
      <g>
       <use style="stroke:#000000;stroke-width:0.8;" x="108" xlink:href="#mbcf1dd1329" y="434.814545"/>
      </g>
     </g>
     <g id="text_12">
      <!-- 480 -->
      <g transform="translate(81.9125 438.613764)scale(0.1 -0.1)">
       <use xlink:href="#DejaVuSans-52"/>
       <use x="63.623047" xlink:href="#DejaVuSans-56"/>
       <use x="127.246094" xlink:href="#DejaVuSans-48"/>
      </g>
     </g>
    </g>
    <g id="ytick_9">
     <g id="line2d_12">
      <g>
       <use style="stroke:#000000;stroke-width:0.8;" x="108" xlink:href="#mbcf1dd1329" y="484.232727"/>
      </g>
     </g>
     <g id="text_13">
      <!-- 485 -->
      <g transform="translate(81.9125 488.031946)scale(0.1 -0.1)">
       <use xlink:href="#DejaVuSans-52"/>
       <use x="63.623047" xlink:href="#DejaVuSans-56"/>
       <use x="127.246094" xlink:href="#DejaVuSans-53"/>
      </g>
     </g>
    </g>
    <g id="text_14">
     <!-- Age (Ma) -->
     <defs>
      <path d="M 34.1875 63.1875 
L 20.796875 26.90625 
L 47.609375 26.90625 
z
M 28.609375 72.90625 
L 39.796875 72.90625 
L 67.578125 0 
L 57.328125 0 
L 50.6875 18.703125 
L 17.828125 18.703125 
L 11.1875 0 
L 0.78125 0 
z
" id="DejaVuSans-65"/>
      <path d="M 45.40625 27.984375 
Q 45.40625 37.75 41.375 43.109375 
Q 37.359375 48.484375 30.078125 48.484375 
Q 22.859375 48.484375 18.828125 43.109375 
Q 14.796875 37.75 14.796875 27.984375 
Q 14.796875 18.265625 18.828125 12.890625 
Q 22.859375 7.515625 30.078125 7.515625 
Q 37.359375 7.515625 41.375 12.890625 
Q 45.40625 18.265625 45.40625 27.984375 
z
M 54.390625 6.78125 
Q 54.390625 -7.171875 48.1875 -13.984375 
Q 42 -20.796875 29.203125 -20.796875 
Q 24.46875 -20.796875 20.265625 -20.09375 
Q 16.0625 -19.390625 12.109375 -17.921875 
L 12.109375 -9.1875 
Q 16.0625 -11.328125 19.921875 -12.34375 
Q 23.78125 -13.375 27.78125 -13.375 
Q 36.625 -13.375 41.015625 -8.765625 
Q 45.40625 -4.15625 45.40625 5.171875 
L 45.40625 9.625 
Q 42.625 4.78125 38.28125 2.390625 
Q 33.9375 0 27.875 0 
Q 17.828125 0 11.671875 7.65625 
Q 5.515625 15.328125 5.515625 27.984375 
Q 5.515625 40.671875 11.671875 48.328125 
Q 17.828125 56 27.875 56 
Q 33.9375 56 38.28125 53.609375 
Q 42.625 51.21875 45.40625 46.390625 
L 45.40625 54.6875 
L 54.390625 54.6875 
z
" id="DejaVuSans-103"/>
      <path d="M 56.203125 29.59375 
L 56.203125 25.203125 
L 14.890625 25.203125 
Q 15.484375 15.921875 20.484375 11.0625 
Q 25.484375 6.203125 34.421875 6.203125 
Q 39.59375 6.203125 44.453125 7.46875 
Q 49.3125 8.734375 54.109375 11.28125 
L 54.109375 2.78125 
Q 49.265625 0.734375 44.1875 -0.34375 
Q 39.109375 -1.421875 33.890625 -1.421875 
Q 20.796875 -1.421875 13.15625 6.1875 
Q 5.515625 13.8125 5.515625 26.8125 
Q 5.515625 40.234375 12.765625 48.109375 
Q 20.015625 56 32.328125 56 
Q 43.359375 56 49.78125 48.890625 
Q 56.203125 41.796875 56.203125 29.59375 
z
M 47.21875 32.234375 
Q 47.125 39.59375 43.09375 43.984375 
Q 39.0625 48.390625 32.421875 48.390625 
Q 24.90625 48.390625 20.390625 44.140625 
Q 15.875 39.890625 15.1875 32.171875 
z
" id="DejaVuSans-101"/>
      <path id="DejaVuSans-32"/>
      <path d="M 31 75.875 
Q 24.46875 64.65625 21.28125 53.65625 
Q 18.109375 42.671875 18.109375 31.390625 
Q 18.109375 20.125 21.3125 9.0625 
Q 24.515625 -2 31 -13.1875 
L 23.1875 -13.1875 
Q 15.875 -1.703125 12.234375 9.375 
Q 8.59375 20.453125 8.59375 31.390625 
Q 8.59375 42.28125 12.203125 53.3125 
Q 15.828125 64.359375 23.1875 75.875 
z
" id="DejaVuSans-40"/>
      <path d="M 9.8125 72.90625 
L 24.515625 72.90625 
L 43.109375 23.296875 
L 61.8125 72.90625 
L 76.515625 72.90625 
L 76.515625 0 
L 66.890625 0 
L 66.890625 64.015625 
L 48.09375 14.015625 
L 38.1875 14.015625 
L 19.390625 64.015625 
L 19.390625 0 
L 9.8125 0 
z
" id="DejaVuSans-77"/>
      <path d="M 34.28125 27.484375 
Q 23.390625 27.484375 19.1875 25 
Q 14.984375 22.515625 14.984375 16.5 
Q 14.984375 11.71875 18.140625 8.90625 
Q 21.296875 6.109375 26.703125 6.109375 
Q 34.1875 6.109375 38.703125 11.40625 
Q 43.21875 16.703125 43.21875 25.484375 
L 43.21875 27.484375 
z
M 52.203125 31.203125 
L 52.203125 0 
L 43.21875 0 
L 43.21875 8.296875 
Q 40.140625 3.328125 35.546875 0.953125 
Q 30.953125 -1.421875 24.3125 -1.421875 
Q 15.921875 -1.421875 10.953125 3.296875 
Q 6 8.015625 6 15.921875 
Q 6 25.140625 12.171875 29.828125 
Q 18.359375 34.515625 30.609375 34.515625 
L 43.21875 34.515625 
L 43.21875 35.40625 
Q 43.21875 41.609375 39.140625 45 
Q 35.0625 48.390625 27.6875 48.390625 
Q 23 48.390625 18.546875 47.265625 
Q 14.109375 46.140625 10.015625 43.890625 
L 10.015625 52.203125 
Q 14.9375 54.109375 19.578125 55.046875 
Q 24.21875 56 28.609375 56 
Q 40.484375 56 46.34375 49.84375 
Q 52.203125 43.703125 52.203125 31.203125 
z
" id="DejaVuSans-97"/>
      <path d="M 8.015625 75.875 
L 15.828125 75.875 
Q 23.140625 64.359375 26.78125 53.3125 
Q 30.421875 42.28125 30.421875 31.390625 
Q 30.421875 20.453125 26.78125 9.375 
Q 23.140625 -1.703125 15.828125 -13.1875 
L 8.015625 -13.1875 
Q 14.5 -2 17.703125 9.0625 
Q 20.90625 20.125 20.90625 31.390625 
Q 20.90625 42.671875 17.703125 53.65625 
Q 14.5 64.65625 8.015625 75.875 
z
" id="DejaVuSans-41"/>
     </defs>
     <g transform="translate(75.416875 313.607813)rotate(-90)scale(0.12 -0.12)">
      <use xlink:href="#DejaVuSans-65"/>
      <use x="68.408203" xlink:href="#DejaVuSans-103"/>
      <use x="131.884766" xlink:href="#DejaVuSans-101"/>
      <use x="193.408203" xlink:href="#DejaVuSans-32"/>
      <use x="225.195312" xlink:href="#DejaVuSans-40"/>
      <use x="264.208984" xlink:href="#DejaVuSans-77"/>
      <use x="350.488281" xlink:href="#DejaVuSans-97"/>
      <use x="411.767578" xlink:href="#DejaVuSans-41"/>
     </g>
    </g>
   </g>
   <g id="line2d_13">
    <path clip-path="url(#pe14f958615)" d="M 294.936143 504 
L 294.82505 497.737665 
L 294.481799 491.062191 
L 293.888337 483.903994 
L 293.022226 476.184797 
L 291.854322 467.800227 
L 290.34732 458.619818 
L 288.450908 448.465269 
L 286.095334 437.088694 
L 283.178455 424.124792 
L 279.540568 408.999514 
L 274.902721 390.703929 
L 268.677908 367.102756 
L 258.95856 331.220448 
L 234.030761 240.281782 
L 233.201195 238.877106 
L 232.061618 237.39415 
L 230.560961 235.81552 
L 228.646623 234.132517 
L 226.247886 232.327747 
L 223.29589 230.392512 
L 219.70883 228.313765 
L 215.397212 226.078459 
L 210.255228 223.6692 
L 193.566826 216.084817 
L 187.190617 212.810138 
L 181.237703 209.505017 
L 175.684461 206.169454 
L 170.501799 202.7991 
L 165.663563 199.389607 
L 161.140723 195.932276 
L 156.913294 192.422759 
L 152.958502 188.852359 
L 149.256701 185.212377 
L 145.787045 181.489767 
L 142.539391 177.68018 
L 139.494456 173.766221 
L 136.639854 169.734843 
L 133.965409 165.573 
L 131.457929 161.258947 
L 129.109731 156.775289 
L 126.91105 152.095934 
L 124.855145 147.194787 
L 122.93607 142.041408 
L 121.148941 136.601004 
L 119.487712 130.82574 
L 117.948749 124.663429 
L 116.529546 118.053187 
L 115.226685 110.912386 
L 114.038733 103.145351 
L 112.963552 94.621618 
L 112.000167 85.17593 
L 111.147258 74.577799 
L 110.784812 69.12 
L 110.784812 69.12 
" style="fill:none;stroke:#1f77b4;stroke-dasharray:5.55,2.4;stroke-dashoffset:0;stroke-width:1.5;"/>
   </g>
   <g id="line2d_14">
    <path clip-path="url(#pe14f958615)" d="M 141.540067 182.762051 
L 151.468463 188.543978 
L 173.342916 201.264218 
L 176.549512 203.191527 
L 179.704116 205.118836 
L 180.457613 205.581391 
L 182.556415 206.853415 
L 186.10431 208.973455 
L 190.849411 211.825872 
L 193.825783 213.676089 
L 194.311834 213.984458 
L 206.566696 221.693695 
L 210.742045 224.391927 
L 218.372137 229.658493 
L 226.102079 236.01226 
L 227.034595 236.894727 
L 227.955295 237.777195 
L 228.830108 238.659662 
L 229.624568 239.542129 
L 230.478702 240.601091 
L 232.42389 243.424987 
L 233.239621 244.836935 
L 234.38444 247.131351 
L 239.810563 261.521455 
L 241.929059 267.599891 
L 243.10854 272.327564 
L 244.009546 275.704473 
L 244.214759 276.379855 
L 247.931039 289.61336 
L 251.393461 304.253754 
L 254.164424 316.641781 
L 256.458001 326.372303 
L 256.790437 327.707312 
L 257.191213 329.309321 
L 257.606365 330.978081 
L 258.117033 333.037197 
L 259.583457 338.943273 
" style="fill:none;stroke:#8b0000;stroke-linecap:square;stroke-width:1.5;"/>
   </g>
   <g id="line2d_15">
    <path clip-path="url(#pe14f958615)" d="M 108 237.141818 
L 304.941176 237.141818 
" style="fill:none;stroke:#808080;stroke-linecap:square;stroke-opacity:0.2;stroke-width:5;"/>
   </g>
   <g id="line2d_16">
    <path clip-path="url(#pe14f958615)" d="M 108 271.734545 
L 304.941176 271.734545 
" style="fill:none;stroke:#808080;stroke-linecap:square;stroke-opacity:0.2;stroke-width:5;"/>
   </g>
   <g id="patch_3">
    <path d="M 108 504 
L 108 69.12 
" style="fill:none;stroke:#000000;stroke-linecap:square;stroke-linejoin:miter;stroke-width:0.8;"/>
   </g>
   <g id="patch_4">
    <path d="M 304.941176 504 
L 304.941176 69.12 
" style="fill:none;stroke:#000000;stroke-linecap:square;stroke-linejoin:miter;stroke-width:0.8;"/>
   </g>
   <g id="patch_5">
    <path d="M 108 504 
L 304.941176 504 
" style="fill:none;stroke:#000000;stroke-linecap:square;stroke-linejoin:miter;stroke-width:0.8;"/>
   </g>
   <g id="patch_6">
    <path d="M 108 69.12 
L 304.941176 69.12 
" style="fill:none;stroke:#000000;stroke-linecap:square;stroke-linejoin:miter;stroke-width:0.8;"/>
   </g>
   <g id="legend_1">
    <g id="patch_7">
     <path d="M 115 499 
L 211.778125 499 
Q 213.778125 499 213.778125 497 
L 213.778125 453.965625 
Q 213.778125 451.965625 211.778125 451.965625 
L 115 451.965625 
Q 113 451.965625 113 453.965625 
L 113 497 
Q 113 499 115 499 
z
" style="fill:#ffffff;opacity:0.8;stroke:#cccccc;stroke-linejoin:miter;"/>
    </g>
    <g id="line2d_17">
     <path d="M 117 460.064062 
L 137 460.064062 
" style="fill:none;stroke:#1f77b4;stroke-dasharray:5.55,2.4;stroke-dashoffset:0;stroke-width:1.5;"/>
    </g>
    <g id="line2d_18"/>
    <g id="text_15">
     <!-- Model -->
     <defs>
      <path d="M 30.609375 48.390625 
Q 23.390625 48.390625 19.1875 42.75 
Q 14.984375 37.109375 14.984375 27.296875 
Q 14.984375 17.484375 19.15625 11.84375 
Q 23.34375 6.203125 30.609375 6.203125 
Q 37.796875 6.203125 41.984375 11.859375 
Q 46.1875 17.53125 46.1875 27.296875 
Q 46.1875 37.015625 41.984375 42.703125 
Q 37.796875 48.390625 30.609375 48.390625 
z
M 30.609375 56 
Q 42.328125 56 49.015625 48.375 
Q 55.71875 40.765625 55.71875 27.296875 
Q 55.71875 13.875 49.015625 6.21875 
Q 42.328125 -1.421875 30.609375 -1.421875 
Q 18.84375 -1.421875 12.171875 6.21875 
Q 5.515625 13.875 5.515625 27.296875 
Q 5.515625 40.765625 12.171875 48.375 
Q 18.84375 56 30.609375 56 
z
" id="DejaVuSans-111"/>
      <path d="M 45.40625 46.390625 
L 45.40625 75.984375 
L 54.390625 75.984375 
L 54.390625 0 
L 45.40625 0 
L 45.40625 8.203125 
Q 42.578125 3.328125 38.25 0.953125 
Q 33.9375 -1.421875 27.875 -1.421875 
Q 17.96875 -1.421875 11.734375 6.484375 
Q 5.515625 14.40625 5.515625 27.296875 
Q 5.515625 40.1875 11.734375 48.09375 
Q 17.96875 56 27.875 56 
Q 33.9375 56 38.25 53.625 
Q 42.578125 51.265625 45.40625 46.390625 
z
M 14.796875 27.296875 
Q 14.796875 17.390625 18.875 11.75 
Q 22.953125 6.109375 30.078125 6.109375 
Q 37.203125 6.109375 41.296875 11.75 
Q 45.40625 17.390625 45.40625 27.296875 
Q 45.40625 37.203125 41.296875 42.84375 
Q 37.203125 48.484375 30.078125 48.484375 
Q 22.953125 48.484375 18.875 42.84375 
Q 14.796875 37.203125 14.796875 27.296875 
z
" id="DejaVuSans-100"/>
      <path d="M 9.421875 75.984375 
L 18.40625 75.984375 
L 18.40625 0 
L 9.421875 0 
z
" id="DejaVuSans-108"/>
     </defs>
     <g transform="translate(145 463.564062)scale(0.1 -0.1)">
      <use xlink:href="#DejaVuSans-77"/>
      <use x="86.279297" xlink:href="#DejaVuSans-111"/>
      <use x="147.460938" xlink:href="#DejaVuSans-100"/>
      <use x="210.9375" xlink:href="#DejaVuSans-101"/>
      <use x="272.460938" xlink:href="#DejaVuSans-108"/>
     </g>
    </g>
    <g id="line2d_19">
     <path d="M 117 474.742188 
L 137 474.742188 
" style="fill:none;stroke:#8b0000;stroke-linecap:square;stroke-width:1.5;"/>
    </g>
    <g id="line2d_20"/>
    <g id="text_16">
     <!-- LOESS Curve -->
     <defs>
      <path d="M 9.8125 72.90625 
L 19.671875 72.90625 
L 19.671875 8.296875 
L 55.171875 8.296875 
L 55.171875 0 
L 9.8125 0 
z
" id="DejaVuSans-76"/>
      <path d="M 39.40625 66.21875 
Q 28.65625 66.21875 22.328125 58.203125 
Q 16.015625 50.203125 16.015625 36.375 
Q 16.015625 22.609375 22.328125 14.59375 
Q 28.65625 6.59375 39.40625 6.59375 
Q 50.140625 6.59375 56.421875 14.59375 
Q 62.703125 22.609375 62.703125 36.375 
Q 62.703125 50.203125 56.421875 58.203125 
Q 50.140625 66.21875 39.40625 66.21875 
z
M 39.40625 74.21875 
Q 54.734375 74.21875 63.90625 63.9375 
Q 73.09375 53.65625 73.09375 36.375 
Q 73.09375 19.140625 63.90625 8.859375 
Q 54.734375 -1.421875 39.40625 -1.421875 
Q 24.03125 -1.421875 14.8125 8.828125 
Q 5.609375 19.09375 5.609375 36.375 
Q 5.609375 53.65625 14.8125 63.9375 
Q 24.03125 74.21875 39.40625 74.21875 
z
" id="DejaVuSans-79"/>
      <path d="M 9.8125 72.90625 
L 55.90625 72.90625 
L 55.90625 64.59375 
L 19.671875 64.59375 
L 19.671875 43.015625 
L 54.390625 43.015625 
L 54.390625 34.71875 
L 19.671875 34.71875 
L 19.671875 8.296875 
L 56.78125 8.296875 
L 56.78125 0 
L 9.8125 0 
z
" id="DejaVuSans-69"/>
      <path d="M 53.515625 70.515625 
L 53.515625 60.890625 
Q 47.90625 63.578125 42.921875 64.890625 
Q 37.9375 66.21875 33.296875 66.21875 
Q 25.25 66.21875 20.875 63.09375 
Q 16.5 59.96875 16.5 54.203125 
Q 16.5 49.359375 19.40625 46.890625 
Q 22.3125 44.4375 30.421875 42.921875 
L 36.375 41.703125 
Q 47.40625 39.59375 52.65625 34.296875 
Q 57.90625 29 57.90625 20.125 
Q 57.90625 9.515625 50.796875 4.046875 
Q 43.703125 -1.421875 29.984375 -1.421875 
Q 24.8125 -1.421875 18.96875 -0.25 
Q 13.140625 0.921875 6.890625 3.21875 
L 6.890625 13.375 
Q 12.890625 10.015625 18.65625 8.296875 
Q 24.421875 6.59375 29.984375 6.59375 
Q 38.421875 6.59375 43.015625 9.90625 
Q 47.609375 13.234375 47.609375 19.390625 
Q 47.609375 24.75 44.3125 27.78125 
Q 41.015625 30.8125 33.5 32.328125 
L 27.484375 33.5 
Q 16.453125 35.6875 11.515625 40.375 
Q 6.59375 45.0625 6.59375 53.421875 
Q 6.59375 63.09375 13.40625 68.65625 
Q 20.21875 74.21875 32.171875 74.21875 
Q 37.3125 74.21875 42.625 73.28125 
Q 47.953125 72.359375 53.515625 70.515625 
z
" id="DejaVuSans-83"/>
      <path d="M 64.40625 67.28125 
L 64.40625 56.890625 
Q 59.421875 61.53125 53.78125 63.8125 
Q 48.140625 66.109375 41.796875 66.109375 
Q 29.296875 66.109375 22.65625 58.46875 
Q 16.015625 50.828125 16.015625 36.375 
Q 16.015625 21.96875 22.65625 14.328125 
Q 29.296875 6.6875 41.796875 6.6875 
Q 48.140625 6.6875 53.78125 8.984375 
Q 59.421875 11.28125 64.40625 15.921875 
L 64.40625 5.609375 
Q 59.234375 2.09375 53.4375 0.328125 
Q 47.65625 -1.421875 41.21875 -1.421875 
Q 24.65625 -1.421875 15.125 8.703125 
Q 5.609375 18.84375 5.609375 36.375 
Q 5.609375 53.953125 15.125 64.078125 
Q 24.65625 74.21875 41.21875 74.21875 
Q 47.75 74.21875 53.53125 72.484375 
Q 59.328125 70.75 64.40625 67.28125 
z
" id="DejaVuSans-67"/>
      <path d="M 8.5 21.578125 
L 8.5 54.6875 
L 17.484375 54.6875 
L 17.484375 21.921875 
Q 17.484375 14.15625 20.5 10.265625 
Q 23.53125 6.390625 29.59375 6.390625 
Q 36.859375 6.390625 41.078125 11.03125 
Q 45.3125 15.671875 45.3125 23.6875 
L 45.3125 54.6875 
L 54.296875 54.6875 
L 54.296875 0 
L 45.3125 0 
L 45.3125 8.40625 
Q 42.046875 3.421875 37.71875 1 
Q 33.40625 -1.421875 27.6875 -1.421875 
Q 18.265625 -1.421875 13.375 4.4375 
Q 8.5 10.296875 8.5 21.578125 
z
M 31.109375 56 
z
" id="DejaVuSans-117"/>
      <path d="M 41.109375 46.296875 
Q 39.59375 47.171875 37.8125 47.578125 
Q 36.03125 48 33.890625 48 
Q 26.265625 48 22.1875 43.046875 
Q 18.109375 38.09375 18.109375 28.8125 
L 18.109375 0 
L 9.078125 0 
L 9.078125 54.6875 
L 18.109375 54.6875 
L 18.109375 46.1875 
Q 20.953125 51.171875 25.484375 53.578125 
Q 30.03125 56 36.53125 56 
Q 37.453125 56 38.578125 55.875 
Q 39.703125 55.765625 41.0625 55.515625 
z
" id="DejaVuSans-114"/>
      <path d="M 2.984375 54.6875 
L 12.5 54.6875 
L 29.59375 8.796875 
L 46.6875 54.6875 
L 56.203125 54.6875 
L 35.6875 0 
L 23.484375 0 
z
" id="DejaVuSans-118"/>
     </defs>
     <g transform="translate(145 478.242188)scale(0.1 -0.1)">
      <use xlink:href="#DejaVuSans-76"/>
      <use x="52.087891" xlink:href="#DejaVuSans-79"/>
      <use x="130.798828" xlink:href="#DejaVuSans-69"/>
      <use x="193.982422" xlink:href="#DejaVuSans-83"/>
      <use x="257.458984" xlink:href="#DejaVuSans-83"/>
      <use x="320.935547" xlink:href="#DejaVuSans-32"/>
      <use x="352.722656" xlink:href="#DejaVuSans-67"/>
      <use x="422.546875" xlink:href="#DejaVuSans-117"/>
      <use x="485.925781" xlink:href="#DejaVuSans-114"/>
      <use x="527.039062" xlink:href="#DejaVuSans-118"/>
      <use x="586.21875" xlink:href="#DejaVuSans-101"/>
     </g>
    </g>
    <g id="PathCollection_2">
     <path d="M 127 493.295313 
C 127.795609 493.295313 128.55874 492.979214 129.12132 492.416633 
C 129.683901 491.854052 130 491.090922 130 490.295313 
C 130 489.499703 129.683901 488.736573 129.12132 488.173992 
C 128.55874 487.611411 127.795609 487.295313 127 487.295313 
C 126.204391 487.295313 125.44126 487.611411 124.87868 488.173992 
C 124.316099 488.736573 124 489.499703 124 490.295313 
C 124 491.090922 124.316099 491.854052 124.87868 492.416633 
C 125.44126 492.979214 126.204391 493.295313 127 493.295313 
z
" style="fill:none;stroke:#0000ff;stroke-opacity:0.4;"/>
    </g>
    <g id="text_17">
     <!-- Sr Conodont -->
     <defs>
      <path d="M 54.890625 33.015625 
L 54.890625 0 
L 45.90625 0 
L 45.90625 32.71875 
Q 45.90625 40.484375 42.875 44.328125 
Q 39.84375 48.1875 33.796875 48.1875 
Q 26.515625 48.1875 22.3125 43.546875 
Q 18.109375 38.921875 18.109375 30.90625 
L 18.109375 0 
L 9.078125 0 
L 9.078125 54.6875 
L 18.109375 54.6875 
L 18.109375 46.1875 
Q 21.34375 51.125 25.703125 53.5625 
Q 30.078125 56 35.796875 56 
Q 45.21875 56 50.046875 50.171875 
Q 54.890625 44.34375 54.890625 33.015625 
z
" id="DejaVuSans-110"/>
      <path d="M 18.3125 70.21875 
L 18.3125 54.6875 
L 36.8125 54.6875 
L 36.8125 47.703125 
L 18.3125 47.703125 
L 18.3125 18.015625 
Q 18.3125 11.328125 20.140625 9.421875 
Q 21.96875 7.515625 27.59375 7.515625 
L 36.8125 7.515625 
L 36.8125 0 
L 27.59375 0 
Q 17.1875 0 13.234375 3.875 
Q 9.28125 7.765625 9.28125 18.015625 
L 9.28125 47.703125 
L 2.6875 47.703125 
L 2.6875 54.6875 
L 9.28125 54.6875 
L 9.28125 70.21875 
z
" id="DejaVuSans-116"/>
     </defs>
     <g transform="translate(145 492.920313)scale(0.1 -0.1)">
      <use xlink:href="#DejaVuSans-83"/>
      <use x="63.476562" xlink:href="#DejaVuSans-114"/>
      <use x="104.589844" xlink:href="#DejaVuSans-32"/>
      <use x="136.376953" xlink:href="#DejaVuSans-67"/>
      <use x="206.201172" xlink:href="#DejaVuSans-111"/>
      <use x="267.382812" xlink:href="#DejaVuSans-110"/>
      <use x="330.761719" xlink:href="#DejaVuSans-111"/>
      <use x="391.943359" xlink:href="#DejaVuSans-100"/>
      <use x="455.419922" xlink:href="#DejaVuSans-111"/>
      <use x="516.601562" xlink:href="#DejaVuSans-110"/>
      <use x="579.980469" xlink:href="#DejaVuSans-116"/>
     </g>
    </g>
   </g>
  </g>
  <g id="axes_2">
   <g id="patch_8">
    <path d="M 344.329412 504 
L 541.270588 504 
L 541.270588 69.12 
L 344.329412 69.12 
z
" style="fill:#ffffff;"/>
   </g>
   <g id="matplotlib.axis_3">
    <g id="xtick_4">
     <g id="line2d_21">
      <g>
       <use style="stroke:#000000;stroke-width:0.8;" x="376.094118" xlink:href="#mc4bcce3a23" y="504"/>
      </g>
     </g>
     <g id="text_18">
      <!-- 0.25 -->
      <g transform="translate(364.961305 518.598438)scale(0.1 -0.1)">
       <use xlink:href="#DejaVuSans-48"/>
       <use x="63.623047" xlink:href="#DejaVuSans-46"/>
       <use x="95.410156" xlink:href="#DejaVuSans-50"/>
       <use x="159.033203" xlink:href="#DejaVuSans-53"/>
      </g>
     </g>
    </g>
    <g id="xtick_5">
     <g id="line2d_22">
      <g>
       <use style="stroke:#000000;stroke-width:0.8;" x="439.623529" xlink:href="#mc4bcce3a23" y="504"/>
      </g>
     </g>
     <g id="text_19">
      <!-- 0.75 -->
      <g transform="translate(428.490717 518.598438)scale(0.1 -0.1)">
       <use xlink:href="#DejaVuSans-48"/>
       <use x="63.623047" xlink:href="#DejaVuSans-46"/>
       <use x="95.410156" xlink:href="#DejaVuSans-55"/>
       <use x="159.033203" xlink:href="#DejaVuSans-53"/>
      </g>
     </g>
    </g>
    <g id="xtick_6">
     <g id="line2d_23">
      <g>
       <use style="stroke:#000000;stroke-width:0.8;" x="503.152941" xlink:href="#mc4bcce3a23" y="504"/>
      </g>
     </g>
     <g id="text_20">
      <!-- 1.25 -->
      <defs>
       <path d="M 12.40625 8.296875 
L 28.515625 8.296875 
L 28.515625 63.921875 
L 10.984375 60.40625 
L 10.984375 69.390625 
L 28.421875 72.90625 
L 38.28125 72.90625 
L 38.28125 8.296875 
L 54.390625 8.296875 
L 54.390625 0 
L 12.40625 0 
z
" id="DejaVuSans-49"/>
      </defs>
      <g transform="translate(492.020129 518.598438)scale(0.1 -0.1)">
       <use xlink:href="#DejaVuSans-49"/>
       <use x="63.623047" xlink:href="#DejaVuSans-46"/>
       <use x="95.410156" xlink:href="#DejaVuSans-50"/>
       <use x="159.033203" xlink:href="#DejaVuSans-53"/>
      </g>
     </g>
    </g>
    <g id="text_21">
     <!-- Source Fluxes -->
     <defs>
      <path d="M 48.78125 52.59375 
L 48.78125 44.1875 
Q 44.96875 46.296875 41.140625 47.34375 
Q 37.3125 48.390625 33.40625 48.390625 
Q 24.65625 48.390625 19.8125 42.84375 
Q 14.984375 37.3125 14.984375 27.296875 
Q 14.984375 17.28125 19.8125 11.734375 
Q 24.65625 6.203125 33.40625 6.203125 
Q 37.3125 6.203125 41.140625 7.25 
Q 44.96875 8.296875 48.78125 10.40625 
L 48.78125 2.09375 
Q 45.015625 0.34375 40.984375 -0.53125 
Q 36.96875 -1.421875 32.421875 -1.421875 
Q 20.0625 -1.421875 12.78125 6.34375 
Q 5.515625 14.109375 5.515625 27.296875 
Q 5.515625 40.671875 12.859375 48.328125 
Q 20.21875 56 33.015625 56 
Q 37.15625 56 41.109375 55.140625 
Q 45.0625 54.296875 48.78125 52.59375 
z
" id="DejaVuSans-99"/>
      <path d="M 9.8125 72.90625 
L 51.703125 72.90625 
L 51.703125 64.59375 
L 19.671875 64.59375 
L 19.671875 43.109375 
L 48.578125 43.109375 
L 48.578125 34.8125 
L 19.671875 34.8125 
L 19.671875 0 
L 9.8125 0 
z
" id="DejaVuSans-70"/>
      <path d="M 54.890625 54.6875 
L 35.109375 28.078125 
L 55.90625 0 
L 45.3125 0 
L 29.390625 21.484375 
L 13.484375 0 
L 2.875 0 
L 24.125 28.609375 
L 4.6875 54.6875 
L 15.28125 54.6875 
L 29.78125 35.203125 
L 44.28125 54.6875 
z
" id="DejaVuSans-120"/>
      <path d="M 44.28125 53.078125 
L 44.28125 44.578125 
Q 40.484375 46.53125 36.375 47.5 
Q 32.28125 48.484375 27.875 48.484375 
Q 21.1875 48.484375 17.84375 46.4375 
Q 14.5 44.390625 14.5 40.28125 
Q 14.5 37.15625 16.890625 35.375 
Q 19.28125 33.59375 26.515625 31.984375 
L 29.59375 31.296875 
Q 39.15625 29.25 43.1875 25.515625 
Q 47.21875 21.78125 47.21875 15.09375 
Q 47.21875 7.46875 41.1875 3.015625 
Q 35.15625 -1.421875 24.609375 -1.421875 
Q 20.21875 -1.421875 15.453125 -0.5625 
Q 10.6875 0.296875 5.421875 2 
L 5.421875 11.28125 
Q 10.40625 8.6875 15.234375 7.390625 
Q 20.0625 6.109375 24.8125 6.109375 
Q 31.15625 6.109375 34.5625 8.28125 
Q 37.984375 10.453125 37.984375 14.40625 
Q 37.984375 18.0625 35.515625 20.015625 
Q 33.0625 21.96875 24.703125 23.78125 
L 21.578125 24.515625 
Q 13.234375 26.265625 9.515625 29.90625 
Q 5.8125 33.546875 5.8125 39.890625 
Q 5.8125 47.609375 11.28125 51.796875 
Q 16.75 56 26.8125 56 
Q 31.78125 56 36.171875 55.265625 
Q 40.578125 54.546875 44.28125 53.078125 
z
" id="DejaVuSans-115"/>
     </defs>
     <g transform="translate(401.18625 533.79625)scale(0.12 -0.12)">
      <use xlink:href="#DejaVuSans-83"/>
      <use x="63.476562" xlink:href="#DejaVuSans-111"/>
      <use x="124.658203" xlink:href="#DejaVuSans-117"/>
      <use x="188.037109" xlink:href="#DejaVuSans-114"/>
      <use x="226.900391" xlink:href="#DejaVuSans-99"/>
      <use x="281.880859" xlink:href="#DejaVuSans-101"/>
      <use x="343.404297" xlink:href="#DejaVuSans-32"/>
      <use x="375.191406" xlink:href="#DejaVuSans-70"/>
      <use x="432.710938" xlink:href="#DejaVuSans-108"/>
      <use x="460.494141" xlink:href="#DejaVuSans-117"/>
      <use x="523.873047" xlink:href="#DejaVuSans-120"/>
      <use x="579.927734" xlink:href="#DejaVuSans-101"/>
      <use x="641.451172" xlink:href="#DejaVuSans-115"/>
     </g>
     <!-- (mol/yr) -->
     <defs>
      <path d="M 52 44.1875 
Q 55.375 50.25 60.0625 53.125 
Q 64.75 56 71.09375 56 
Q 79.640625 56 84.28125 50.015625 
Q 88.921875 44.046875 88.921875 33.015625 
L 88.921875 0 
L 79.890625 0 
L 79.890625 32.71875 
Q 79.890625 40.578125 77.09375 44.375 
Q 74.3125 48.1875 68.609375 48.1875 
Q 61.625 48.1875 57.5625 43.546875 
Q 53.515625 38.921875 53.515625 30.90625 
L 53.515625 0 
L 44.484375 0 
L 44.484375 32.71875 
Q 44.484375 40.625 41.703125 44.40625 
Q 38.921875 48.1875 33.109375 48.1875 
Q 26.21875 48.1875 22.15625 43.53125 
Q 18.109375 38.875 18.109375 30.90625 
L 18.109375 0 
L 9.078125 0 
L 9.078125 54.6875 
L 18.109375 54.6875 
L 18.109375 46.1875 
Q 21.1875 51.21875 25.484375 53.609375 
Q 29.78125 56 35.6875 56 
Q 41.65625 56 45.828125 52.96875 
Q 50 49.953125 52 44.1875 
z
" id="DejaVuSans-109"/>
      <path d="M 32.171875 -5.078125 
Q 28.375 -14.84375 24.75 -17.8125 
Q 21.140625 -20.796875 15.09375 -20.796875 
L 7.90625 -20.796875 
L 7.90625 -13.28125 
L 13.1875 -13.28125 
Q 16.890625 -13.28125 18.9375 -11.515625 
Q 21 -9.765625 23.484375 -3.21875 
L 25.09375 0.875 
L 2.984375 54.6875 
L 12.5 54.6875 
L 29.59375 11.921875 
L 46.6875 54.6875 
L 56.203125 54.6875 
z
" id="DejaVuSans-121"/>
     </defs>
     <g transform="translate(418.896563 547.233625)scale(0.12 -0.12)">
      <use xlink:href="#DejaVuSans-40"/>
      <use x="39.013672" xlink:href="#DejaVuSans-109"/>
      <use x="136.425781" xlink:href="#DejaVuSans-111"/>
      <use x="197.607422" xlink:href="#DejaVuSans-108"/>
      <use x="225.390625" xlink:href="#DejaVuSans-47"/>
      <use x="259.082031" xlink:href="#DejaVuSans-121"/>
      <use x="318.261719" xlink:href="#DejaVuSans-114"/>
      <use x="359.375" xlink:href="#DejaVuSans-41"/>
     </g>
    </g>
    <g id="text_22">
     <!-- 1e10 -->
     <g transform="translate(516.029963 531.276562)scale(0.1 -0.1)">
      <use xlink:href="#DejaVuSans-49"/>
      <use x="63.623047" xlink:href="#DejaVuSans-101"/>
      <use x="125.146484" xlink:href="#DejaVuSans-49"/>
      <use x="188.769531" xlink:href="#DejaVuSans-48"/>
     </g>
    </g>
   </g>
   <g id="matplotlib.axis_4">
    <g id="ytick_10">
     <g id="line2d_24">
      <g>
       <use style="stroke:#000000;stroke-width:0.8;" x="344.329412" xlink:href="#mbcf1dd1329" y="88.887273"/>
      </g>
     </g>
    </g>
    <g id="ytick_11">
     <g id="line2d_25">
      <g>
       <use style="stroke:#000000;stroke-width:0.8;" x="344.329412" xlink:href="#mbcf1dd1329" y="138.305455"/>
      </g>
     </g>
    </g>
    <g id="ytick_12">
     <g id="line2d_26">
      <g>
       <use style="stroke:#000000;stroke-width:0.8;" x="344.329412" xlink:href="#mbcf1dd1329" y="187.723636"/>
      </g>
     </g>
    </g>
    <g id="ytick_13">
     <g id="line2d_27">
      <g>
       <use style="stroke:#000000;stroke-width:0.8;" x="344.329412" xlink:href="#mbcf1dd1329" y="237.141818"/>
      </g>
     </g>
    </g>
    <g id="ytick_14">
     <g id="line2d_28">
      <g>
       <use style="stroke:#000000;stroke-width:0.8;" x="344.329412" xlink:href="#mbcf1dd1329" y="286.56"/>
      </g>
     </g>
    </g>
    <g id="ytick_15">
     <g id="line2d_29">
      <g>
       <use style="stroke:#000000;stroke-width:0.8;" x="344.329412" xlink:href="#mbcf1dd1329" y="335.978182"/>
      </g>
     </g>
    </g>
    <g id="ytick_16">
     <g id="line2d_30">
      <g>
       <use style="stroke:#000000;stroke-width:0.8;" x="344.329412" xlink:href="#mbcf1dd1329" y="385.396364"/>
      </g>
     </g>
    </g>
    <g id="ytick_17">
     <g id="line2d_31">
      <g>
       <use style="stroke:#000000;stroke-width:0.8;" x="344.329412" xlink:href="#mbcf1dd1329" y="434.814545"/>
      </g>
     </g>
    </g>
    <g id="ytick_18">
     <g id="line2d_32">
      <g>
       <use style="stroke:#000000;stroke-width:0.8;" x="344.329412" xlink:href="#mbcf1dd1329" y="484.232727"/>
      </g>
     </g>
    </g>
   </g>
   <g id="line2d_33">
    <path clip-path="url(#pb0c7b08afb)" d="M 473.260785 504 
L 476.571229 495.498011 
L 477.614221 492.358146 
L 480.153846 483.58218 
L 485.331477 462.594661 
L 487.548882 453.657788 
L 490.354614 442.798726 
L 495.604606 421.524183 
L 496.318777 417.736341 
L 497.220957 411.700146 
L 497.771548 406.772906 
L 498.377659 399.658198 
L 499.027906 384.559014 
L 499.249079 364.797869 
L 499.013344 357.383091 
L 498.652794 352.438456 
L 498.125395 347.489472 
L 496.849418 337.595853 
L 496.211644 332.638171 
L 494.710986 318.934965 
L 494.416458 312.898771 
L 494.250526 304.657712 
L 494.195518 294.77714 
L 494.306461 289.301946 
L 494.722727 283.252705 
L 495.06449 280.512933 
L 496.300816 274.437599 
L 497.849854 268.34052 
L 498.642956 265.818191 
L 500.414756 261.543278 
L 505.212444 255.52013 
L 516.325063 242.638855 
L 517.551153 241.008039 
L 522.048502 234.445634 
L 524.034358 231.214443 
L 526.524652 226.195878 
L 528.448987 221.129475 
L 529.991068 215.649932 
L 530.900414 211.301089 
L 531.450086 206.382547 
L 531.689535 195.95402 
L 531.356784 189.361174 
L 530.912671 184.41219 
L 529.970698 176.179829 
L 526.716058 157.4885 
L 524.490668 147.825369 
L 522.292815 140.945499 
L 519.408998 133.108883 
L 515.806423 125.972431 
L 513.837309 122.545542 
L 510.417206 117.657442 
L 506.344386 112.886761 
L 500.963262 107.794265 
L 494.283427 102.419095 
L 474.300145 87.698259 
L 468.21053 83.088485 
L 462.94554 78.335199 
L 458.680935 73.381867 
L 455.815174 69.12 
L 455.815174 69.12 
" style="fill:none;stroke:#8b0000;stroke-linecap:square;stroke-width:1.5;"/>
   </g>
   <g id="line2d_34">
    <path clip-path="url(#pb0c7b08afb)" d="M 372.95098 504 
L 370.694872 495.624127 
L 370.008471 492.414681 
L 368.522397 483.643064 
L 365.878739 462.742522 
L 364.729856 453.727369 
L 363.24144 442.959633 
L 360.537018 421.598114 
L 360.273167 417.77548 
L 360.095881 411.739285 
L 360.136936 406.803348 
L 360.386773 399.666896 
L 361.554154 384.554665 
L 363.712363 364.780473 
L 364.842977 357.352649 
L 365.802101 352.394967 
L 366.929475 347.432937 
L 369.401189 337.526271 
L 370.636184 332.555543 
L 373.773955 318.891477 
L 374.7939 312.850933 
L 375.95408 304.583782 
L 377.194999 294.716256 
L 377.736663 289.28455 
L 378.047118 283.248356 
L 378.035098 280.517282 
L 377.533411 274.47239 
L 376.72425 268.410102 
L 376.230054 265.839935 
L 374.975293 261.556324 
L 370.949458 255.59406 
L 361.512504 242.891088 
L 360.929603 242.082203 
L 361.027853 242.038715 
L 383.830346 232.066817 
L 401.970026 224.765108 
L 408.210722 222.212337 
L 406.340979 215.649932 
L 405.431633 211.301089 
L 404.881961 206.382547 
L 404.642512 195.95402 
L 404.975263 189.361174 
L 405.419376 184.41219 
L 406.361349 176.179829 
L 409.615989 157.4885 
L 411.841379 147.825369 
L 414.039232 140.945499 
L 416.923049 133.108883 
L 420.525624 125.972431 
L 422.494738 122.545542 
L 425.914841 117.657442 
L 429.987661 112.886761 
L 435.368785 107.794265 
L 442.048621 102.419095 
L 462.031902 87.698259 
L 468.121517 83.088485 
L 473.386507 78.335199 
L 477.651112 73.381867 
L 480.516873 69.12 
L 480.516873 69.12 
" style="fill:none;stroke:#006400;stroke-linecap:square;stroke-width:1.5;"/>
   </g>
   <g id="line2d_35">
    <path clip-path="url(#pb0c7b08afb)" d="M 344.329412 237.141818 
L 541.270588 237.141818 
" style="fill:none;stroke:#808080;stroke-linecap:square;stroke-opacity:0.2;stroke-width:5;"/>
   </g>
   <g id="patch_9">
    <path d="M 344.329412 504 
L 344.329412 69.12 
" style="fill:none;stroke:#000000;stroke-linecap:square;stroke-linejoin:miter;stroke-width:0.8;"/>
   </g>
   <g id="patch_10">
    <path d="M 541.270588 504 
L 541.270588 69.12 
" style="fill:none;stroke:#000000;stroke-linecap:square;stroke-linejoin:miter;stroke-width:0.8;"/>
   </g>
   <g id="patch_11">
    <path d="M 344.329412 504 
L 541.270588 504 
" style="fill:none;stroke:#000000;stroke-linecap:square;stroke-linejoin:miter;stroke-width:0.8;"/>
   </g>
   <g id="patch_12">
    <path d="M 344.329412 69.12 
L 541.270588 69.12 
" style="fill:none;stroke:#000000;stroke-linecap:square;stroke-linejoin:miter;stroke-width:0.8;"/>
   </g>
   <g id="text_23">
    <!-- Taconic Uplift (?) -->
    <defs>
     <path d="M -0.296875 72.90625 
L 61.375 72.90625 
L 61.375 64.59375 
L 35.5 64.59375 
L 35.5 0 
L 25.59375 0 
L 25.59375 64.59375 
L -0.296875 64.59375 
z
" id="DejaVuSans-84"/>
     <path d="M 9.421875 54.6875 
L 18.40625 54.6875 
L 18.40625 0 
L 9.421875 0 
z
M 9.421875 75.984375 
L 18.40625 75.984375 
L 18.40625 64.59375 
L 9.421875 64.59375 
z
" id="DejaVuSans-105"/>
     <path d="M 8.6875 72.90625 
L 18.609375 72.90625 
L 18.609375 28.609375 
Q 18.609375 16.890625 22.84375 11.734375 
Q 27.09375 6.59375 36.625 6.59375 
Q 46.09375 6.59375 50.34375 11.734375 
Q 54.59375 16.890625 54.59375 28.609375 
L 54.59375 72.90625 
L 64.5 72.90625 
L 64.5 27.390625 
Q 64.5 13.140625 57.4375 5.859375 
Q 50.390625 -1.421875 36.625 -1.421875 
Q 22.796875 -1.421875 15.734375 5.859375 
Q 8.6875 13.140625 8.6875 27.390625 
z
" id="DejaVuSans-85"/>
     <path d="M 18.109375 8.203125 
L 18.109375 -20.796875 
L 9.078125 -20.796875 
L 9.078125 54.6875 
L 18.109375 54.6875 
L 18.109375 46.390625 
Q 20.953125 51.265625 25.265625 53.625 
Q 29.59375 56 35.59375 56 
Q 45.5625 56 51.78125 48.09375 
Q 58.015625 40.1875 58.015625 27.296875 
Q 58.015625 14.40625 51.78125 6.484375 
Q 45.5625 -1.421875 35.59375 -1.421875 
Q 29.59375 -1.421875 25.265625 0.953125 
Q 20.953125 3.328125 18.109375 8.203125 
z
M 48.6875 27.296875 
Q 48.6875 37.203125 44.609375 42.84375 
Q 40.53125 48.484375 33.40625 48.484375 
Q 26.265625 48.484375 22.1875 42.84375 
Q 18.109375 37.203125 18.109375 27.296875 
Q 18.109375 17.390625 22.1875 11.75 
Q 26.265625 6.109375 33.40625 6.109375 
Q 40.53125 6.109375 44.609375 11.75 
Q 48.6875 17.390625 48.6875 27.296875 
z
" id="DejaVuSans-112"/>
     <path d="M 37.109375 75.984375 
L 37.109375 68.5 
L 28.515625 68.5 
Q 23.6875 68.5 21.796875 66.546875 
Q 19.921875 64.59375 19.921875 59.515625 
L 19.921875 54.6875 
L 34.71875 54.6875 
L 34.71875 47.703125 
L 19.921875 47.703125 
L 19.921875 0 
L 10.890625 0 
L 10.890625 47.703125 
L 2.296875 47.703125 
L 2.296875 54.6875 
L 10.890625 54.6875 
L 10.890625 58.5 
Q 10.890625 67.625 15.140625 71.796875 
Q 19.390625 75.984375 28.609375 75.984375 
z
" id="DejaVuSans-102"/>
     <path d="M 19.09375 12.40625 
L 29 12.40625 
L 29 0 
L 19.09375 0 
z
M 28.71875 19.578125 
L 19.390625 19.578125 
L 19.390625 27.09375 
Q 19.390625 32.03125 20.75 35.203125 
Q 22.125 38.375 26.515625 42.578125 
L 30.90625 46.921875 
Q 33.6875 49.515625 34.9375 51.8125 
Q 36.1875 54.109375 36.1875 56.5 
Q 36.1875 60.84375 32.984375 63.53125 
Q 29.78125 66.21875 24.515625 66.21875 
Q 20.65625 66.21875 16.28125 64.5 
Q 11.921875 62.796875 7.171875 59.515625 
L 7.171875 68.703125 
Q 11.765625 71.484375 16.46875 72.84375 
Q 21.1875 74.21875 26.21875 74.21875 
Q 35.203125 74.21875 40.640625 69.484375 
Q 46.09375 64.75 46.09375 56.984375 
Q 46.09375 53.265625 44.328125 49.921875 
Q 42.578125 46.578125 38.1875 42.390625 
L 33.890625 38.1875 
Q 31.59375 35.890625 30.640625 34.59375 
Q 29.6875 33.296875 29.296875 32.078125 
Q 29 31.0625 28.859375 29.59375 
Q 28.71875 28.125 28.71875 25.59375 
z
" id="DejaVuSans-63"/>
    </defs>
    <g transform="translate(407.858824 234.959375)scale(0.1 -0.1)">
     <use xlink:href="#DejaVuSans-84"/>
     <use x="44.583984" xlink:href="#DejaVuSans-97"/>
     <use x="105.863281" xlink:href="#DejaVuSans-99"/>
     <use x="160.84375" xlink:href="#DejaVuSans-111"/>
     <use x="222.025391" xlink:href="#DejaVuSans-110"/>
     <use x="285.404297" xlink:href="#DejaVuSans-105"/>
     <use x="313.1875" xlink:href="#DejaVuSans-99"/>
     <use x="368.167969" xlink:href="#DejaVuSans-32"/>
     <use x="399.955078" xlink:href="#DejaVuSans-85"/>
     <use x="473.148438" xlink:href="#DejaVuSans-112"/>
     <use x="536.625" xlink:href="#DejaVuSans-108"/>
     <use x="564.408203" xlink:href="#DejaVuSans-105"/>
     <use x="592.191406" xlink:href="#DejaVuSans-102"/>
     <use x="625.646484" xlink:href="#DejaVuSans-116"/>
     <use x="664.855469" xlink:href="#DejaVuSans-32"/>
     <use x="696.642578" xlink:href="#DejaVuSans-40"/>
     <use x="735.65625" xlink:href="#DejaVuSans-63"/>
     <use x="788.732422" xlink:href="#DejaVuSans-41"/>
    </g>
   </g>
   <g id="legend_2">
    <g id="patch_13">
     <path d="M 351.329412 499 
L 501.866912 499 
Q 503.866912 499 503.866912 497 
L 503.866912 468.64375 
Q 503.866912 466.64375 501.866912 466.64375 
L 351.329412 466.64375 
Q 349.329412 466.64375 349.329412 468.64375 
L 349.329412 497 
Q 349.329412 499 351.329412 499 
z
" style="fill:#ffffff;opacity:0.8;stroke:#cccccc;stroke-linejoin:miter;"/>
    </g>
    <g id="line2d_36">
     <path d="M 353.329412 474.742188 
L 373.329412 474.742188 
" style="fill:none;stroke:#8b0000;stroke-linecap:square;stroke-width:1.5;"/>
    </g>
    <g id="line2d_37"/>
    <g id="text_24">
     <!-- Hydrothermal flux -->
     <defs>
      <path d="M 9.8125 72.90625 
L 19.671875 72.90625 
L 19.671875 43.015625 
L 55.515625 43.015625 
L 55.515625 72.90625 
L 65.375 72.90625 
L 65.375 0 
L 55.515625 0 
L 55.515625 34.71875 
L 19.671875 34.71875 
L 19.671875 0 
L 9.8125 0 
z
" id="DejaVuSans-72"/>
      <path d="M 54.890625 33.015625 
L 54.890625 0 
L 45.90625 0 
L 45.90625 32.71875 
Q 45.90625 40.484375 42.875 44.328125 
Q 39.84375 48.1875 33.796875 48.1875 
Q 26.515625 48.1875 22.3125 43.546875 
Q 18.109375 38.921875 18.109375 30.90625 
L 18.109375 0 
L 9.078125 0 
L 9.078125 75.984375 
L 18.109375 75.984375 
L 18.109375 46.1875 
Q 21.34375 51.125 25.703125 53.5625 
Q 30.078125 56 35.796875 56 
Q 45.21875 56 50.046875 50.171875 
Q 54.890625 44.34375 54.890625 33.015625 
z
" id="DejaVuSans-104"/>
     </defs>
     <g transform="translate(381.329412 478.242188)scale(0.1 -0.1)">
      <use xlink:href="#DejaVuSans-72"/>
      <use x="75.195312" xlink:href="#DejaVuSans-121"/>
      <use x="134.375" xlink:href="#DejaVuSans-100"/>
      <use x="197.851562" xlink:href="#DejaVuSans-114"/>
      <use x="236.714844" xlink:href="#DejaVuSans-111"/>
      <use x="297.896484" xlink:href="#DejaVuSans-116"/>
      <use x="337.105469" xlink:href="#DejaVuSans-104"/>
      <use x="400.484375" xlink:href="#DejaVuSans-101"/>
      <use x="462.007812" xlink:href="#DejaVuSans-114"/>
      <use x="501.371094" xlink:href="#DejaVuSans-109"/>
      <use x="598.783203" xlink:href="#DejaVuSans-97"/>
      <use x="660.0625" xlink:href="#DejaVuSans-108"/>
      <use x="687.845703" xlink:href="#DejaVuSans-32"/>
      <use x="719.632812" xlink:href="#DejaVuSans-102"/>
      <use x="754.837891" xlink:href="#DejaVuSans-108"/>
      <use x="782.621094" xlink:href="#DejaVuSans-117"/>
      <use x="846" xlink:href="#DejaVuSans-120"/>
     </g>
    </g>
    <g id="line2d_38">
     <path d="M 353.329412 489.420313 
L 373.329412 489.420313 
" style="fill:none;stroke:#006400;stroke-linecap:square;stroke-width:1.5;"/>
    </g>
    <g id="line2d_39"/>
    <g id="text_25">
     <!-- Continental Weathering -->
     <defs>
      <path d="M 3.328125 72.90625 
L 13.28125 72.90625 
L 28.609375 11.28125 
L 43.890625 72.90625 
L 54.984375 72.90625 
L 70.3125 11.28125 
L 85.59375 72.90625 
L 95.609375 72.90625 
L 77.296875 0 
L 64.890625 0 
L 49.515625 63.28125 
L 33.984375 0 
L 21.578125 0 
z
" id="DejaVuSans-87"/>
     </defs>
     <g transform="translate(381.329412 492.920313)scale(0.1 -0.1)">
      <use xlink:href="#DejaVuSans-67"/>
      <use x="69.824219" xlink:href="#DejaVuSans-111"/>
      <use x="131.005859" xlink:href="#DejaVuSans-110"/>
      <use x="194.384766" xlink:href="#DejaVuSans-116"/>
      <use x="233.59375" xlink:href="#DejaVuSans-105"/>
      <use x="261.376953" xlink:href="#DejaVuSans-110"/>
      <use x="324.755859" xlink:href="#DejaVuSans-101"/>
      <use x="386.279297" xlink:href="#DejaVuSans-110"/>
      <use x="449.658203" xlink:href="#DejaVuSans-116"/>
      <use x="488.867188" xlink:href="#DejaVuSans-97"/>
      <use x="550.146484" xlink:href="#DejaVuSans-108"/>
      <use x="577.929688" xlink:href="#DejaVuSans-32"/>
      <use x="609.716797" xlink:href="#DejaVuSans-87"/>
      <use x="702.71875" xlink:href="#DejaVuSans-101"/>
      <use x="764.242188" xlink:href="#DejaVuSans-97"/>
      <use x="825.521484" xlink:href="#DejaVuSans-116"/>
      <use x="864.730469" xlink:href="#DejaVuSans-104"/>
      <use x="928.109375" xlink:href="#DejaVuSans-101"/>
      <use x="989.632812" xlink:href="#DejaVuSans-114"/>
      <use x="1030.746094" xlink:href="#DejaVuSans-105"/>
      <use x="1058.529297" xlink:href="#DejaVuSans-110"/>
      <use x="1121.908203" xlink:href="#DejaVuSans-103"/>
     </g>
    </g>
   </g>
  </g>
  <g id="axes_3">
   <g id="patch_14">
    <path d="M 580.658824 504 
L 777.6 504 
L 777.6 69.12 
L 580.658824 69.12 
z
" style="fill:#ffffff;"/>
   </g>
   <g id="matplotlib.axis_5">
    <g id="xtick_7">
     <g id="line2d_40">
      <g>
       <use style="stroke:#000000;stroke-width:0.8;" x="600.971936" xlink:href="#mc4bcce3a23" y="504"/>
      </g>
     </g>
     <g id="text_26">
      <!-- 140 -->
      <g transform="translate(591.428186 518.598438)scale(0.1 -0.1)">
       <use xlink:href="#DejaVuSans-49"/>
       <use x="63.623047" xlink:href="#DejaVuSans-52"/>
       <use x="127.246094" xlink:href="#DejaVuSans-48"/>
      </g>
     </g>
    </g>
    <g id="xtick_8">
     <g id="line2d_41">
      <g>
       <use style="stroke:#000000;stroke-width:0.8;" x="640.148629" xlink:href="#mc4bcce3a23" y="504"/>
      </g>
     </g>
     <g id="text_27">
      <!-- 160 -->
      <g transform="translate(630.604879 518.598438)scale(0.1 -0.1)">
       <use xlink:href="#DejaVuSans-49"/>
       <use x="63.623047" xlink:href="#DejaVuSans-54"/>
       <use x="127.246094" xlink:href="#DejaVuSans-48"/>
      </g>
     </g>
    </g>
    <g id="xtick_9">
     <g id="line2d_42">
      <g>
       <use style="stroke:#000000;stroke-width:0.8;" x="679.325323" xlink:href="#mc4bcce3a23" y="504"/>
      </g>
     </g>
     <g id="text_28">
      <!-- 180 -->
      <g transform="translate(669.781573 518.598438)scale(0.1 -0.1)">
       <use xlink:href="#DejaVuSans-49"/>
       <use x="63.623047" xlink:href="#DejaVuSans-56"/>
       <use x="127.246094" xlink:href="#DejaVuSans-48"/>
      </g>
     </g>
    </g>
    <g id="xtick_10">
     <g id="line2d_43">
      <g>
       <use style="stroke:#000000;stroke-width:0.8;" x="718.502016" xlink:href="#mc4bcce3a23" y="504"/>
      </g>
     </g>
     <g id="text_29">
      <!-- 200 -->
      <g transform="translate(708.958266 518.598438)scale(0.1 -0.1)">
       <use xlink:href="#DejaVuSans-50"/>
       <use x="63.623047" xlink:href="#DejaVuSans-48"/>
       <use x="127.246094" xlink:href="#DejaVuSans-48"/>
      </g>
     </g>
    </g>
    <g id="xtick_11">
     <g id="line2d_44">
      <g>
       <use style="stroke:#000000;stroke-width:0.8;" x="757.678709" xlink:href="#mc4bcce3a23" y="504"/>
      </g>
     </g>
     <g id="text_30">
      <!-- 220 -->
      <g transform="translate(748.134959 518.598438)scale(0.1 -0.1)">
       <use xlink:href="#DejaVuSans-50"/>
       <use x="63.623047" xlink:href="#DejaVuSans-50"/>
       <use x="127.246094" xlink:href="#DejaVuSans-48"/>
      </g>
     </g>
    </g>
    <g id="text_31">
     <!-- Sea Levels -->
     <g transform="translate(647.079099 533.79625)scale(0.12 -0.12)">
      <use xlink:href="#DejaVuSans-83"/>
      <use x="63.476562" xlink:href="#DejaVuSans-101"/>
      <use x="125" xlink:href="#DejaVuSans-97"/>
      <use x="186.279297" xlink:href="#DejaVuSans-32"/>
      <use x="218.066406" xlink:href="#DejaVuSans-76"/>
      <use x="272.029297" xlink:href="#DejaVuSans-101"/>
      <use x="333.552734" xlink:href="#DejaVuSans-118"/>
      <use x="392.732422" xlink:href="#DejaVuSans-101"/>
      <use x="454.255859" xlink:href="#DejaVuSans-108"/>
      <use x="482.039062" xlink:href="#DejaVuSans-115"/>
     </g>
     <!-- (meter) -->
     <g transform="translate(656.400662 547.233625)scale(0.12 -0.12)">
      <use xlink:href="#DejaVuSans-40"/>
      <use x="39.013672" xlink:href="#DejaVuSans-109"/>
      <use x="136.425781" xlink:href="#DejaVuSans-101"/>
      <use x="197.949219" xlink:href="#DejaVuSans-116"/>
      <use x="237.158203" xlink:href="#DejaVuSans-101"/>
      <use x="298.681641" xlink:href="#DejaVuSans-114"/>
      <use x="339.794922" xlink:href="#DejaVuSans-41"/>
     </g>
    </g>
   </g>
   <g id="matplotlib.axis_6">
    <g id="ytick_19">
     <g id="line2d_45">
      <g>
       <use style="stroke:#000000;stroke-width:0.8;" x="580.658824" xlink:href="#mbcf1dd1329" y="88.887273"/>
      </g>
     </g>
    </g>
    <g id="ytick_20">
     <g id="line2d_46">
      <g>
       <use style="stroke:#000000;stroke-width:0.8;" x="580.658824" xlink:href="#mbcf1dd1329" y="138.305455"/>
      </g>
     </g>
    </g>
    <g id="ytick_21">
     <g id="line2d_47">
      <g>
       <use style="stroke:#000000;stroke-width:0.8;" x="580.658824" xlink:href="#mbcf1dd1329" y="187.723636"/>
      </g>
     </g>
    </g>
    <g id="ytick_22">
     <g id="line2d_48">
      <g>
       <use style="stroke:#000000;stroke-width:0.8;" x="580.658824" xlink:href="#mbcf1dd1329" y="237.141818"/>
      </g>
     </g>
    </g>
    <g id="ytick_23">
     <g id="line2d_49">
      <g>
       <use style="stroke:#000000;stroke-width:0.8;" x="580.658824" xlink:href="#mbcf1dd1329" y="286.56"/>
      </g>
     </g>
    </g>
    <g id="ytick_24">
     <g id="line2d_50">
      <g>
       <use style="stroke:#000000;stroke-width:0.8;" x="580.658824" xlink:href="#mbcf1dd1329" y="335.978182"/>
      </g>
     </g>
    </g>
    <g id="ytick_25">
     <g id="line2d_51">
      <g>
       <use style="stroke:#000000;stroke-width:0.8;" x="580.658824" xlink:href="#mbcf1dd1329" y="385.396364"/>
      </g>
     </g>
    </g>
    <g id="ytick_26">
     <g id="line2d_52">
      <g>
       <use style="stroke:#000000;stroke-width:0.8;" x="580.658824" xlink:href="#mbcf1dd1329" y="434.814545"/>
      </g>
     </g>
    </g>
    <g id="ytick_27">
     <g id="line2d_53">
      <g>
       <use style="stroke:#000000;stroke-width:0.8;" x="580.658824" xlink:href="#mbcf1dd1329" y="484.232727"/>
      </g>
     </g>
    </g>
   </g>
   <g id="line2d_54">
    <path clip-path="url(#p870c5d4f6f)" d="M 630.746223 504 
L 637.133682 497.124478 
L 640.418681 493.188775 
L 645.600581 485.734857 
L 647.617559 482.542806 
L 654.298995 471.087952 
L 657.136103 466.204201 
L 659.977915 461.20738 
L 662.817488 456.31928 
L 665.917637 451.322459 
L 668.957867 446.321289 
L 677.8654 431.556965 
L 679.852341 428.217053 
L 683.326063 421.728579 
L 684.637863 418.94097 
L 686.659298 413.539707 
L 688.09718 408.63856 
L 689.494148 402.2849 
L 690.072445 398.797127 
L 691.302044 387.516227 
L 691.581549 382.584639 
L 692.057748 367.768129 
L 691.946712 362.827843 
L 691.695458 359.287884 
L 690.994588 354.334551 
L 689.898918 349.37687 
L 687.033675 339.465855 
L 685.376774 334.490779 
L 681.522186 320.183083 
L 680.780132 314.794866 
L 680.389221 308.458601 
L 680.108857 298.582378 
L 680.219965 290.567459 
L 680.976192 285.1488 
L 681.882887 281.143515 
L 684.394863 275.659624 
L 687.589202 270.132244 
L 690.135697 266.322657 
L 694.511712 261.68679 
L 705.225478 255.937619 
L 729.953035 243.817392 
L 734.680252 241.308109 
L 744.419515 235.328449 
L 750.044592 231.558002 
L 755.929115 226.626413 
L 760.488282 221.673081 
L 764.032006 216.515352 
L 766.466121 211.901229 
L 767.903215 207.004432 
L 768.592622 196.906417 
L 768.033836 191.261618 
L 767.136273 186.308285 
L 764.838286 177.123528 
L 762.089252 169.887052 
L 760.751918 166.468861 
L 756.303729 156.544801 
L 752.794952 149.978047 
L 751.232414 147.390485 
L 747.323224 142.102291 
L 740.985026 134.66142 
L 739.245538 132.834906 
L 732.367664 126.998758 
L 727.008912 122.915194 
L 718.941273 117.957512 
L 709.238731 113.086808 
L 696.62523 107.989963 
L 681.060817 102.653932 
L 638.823935 89.450843 
L 619.201451 83.223299 
L 606.706817 78.470014 
L 596.650661 73.560169 
L 589.610695 69.12 
L 589.610695 69.12 
" style="fill:none;stroke:#000080;stroke-linecap:square;stroke-width:1.5;"/>
   </g>
   <g id="line2d_55">
    <path clip-path="url(#p870c5d4f6f)" d="M 580.658824 271.734545 
L 777.6 271.734545 
" style="fill:none;stroke:#808080;stroke-linecap:square;stroke-opacity:0.2;stroke-width:5;"/>
   </g>
   <g id="patch_15">
    <path d="M 580.658824 504 
L 580.658824 69.12 
" style="fill:none;stroke:#000000;stroke-linecap:square;stroke-linejoin:miter;stroke-width:0.8;"/>
   </g>
   <g id="patch_16">
    <path d="M 777.6 504 
L 777.6 69.12 
" style="fill:none;stroke:#000000;stroke-linecap:square;stroke-linejoin:miter;stroke-width:0.8;"/>
   </g>
   <g id="patch_17">
    <path d="M 580.658824 504 
L 777.6 504 
" style="fill:none;stroke:#000000;stroke-linecap:square;stroke-linejoin:miter;stroke-width:0.8;"/>
   </g>
   <g id="patch_18">
    <path d="M 580.658824 69.12 
L 777.6 69.12 
" style="fill:none;stroke:#000000;stroke-linecap:square;stroke-linejoin:miter;stroke-width:0.8;"/>
   </g>
   <g id="text_32">
    <!-- Sauk-Tippecanoe -->
    <defs>
     <path d="M 9.078125 75.984375 
L 18.109375 75.984375 
L 18.109375 31.109375 
L 44.921875 54.6875 
L 56.390625 54.6875 
L 27.390625 29.109375 
L 57.625 0 
L 45.90625 0 
L 18.109375 26.703125 
L 18.109375 0 
L 9.078125 0 
z
" id="DejaVuSans-107"/>
     <path d="M 4.890625 31.390625 
L 31.203125 31.390625 
L 31.203125 23.390625 
L 4.890625 23.390625 
z
" id="DejaVuSans-45"/>
    </defs>
    <g transform="translate(591.177763 259.011378)scale(0.1 -0.1)">
     <use xlink:href="#DejaVuSans-83"/>
     <use x="63.476562" xlink:href="#DejaVuSans-97"/>
     <use x="124.755859" xlink:href="#DejaVuSans-117"/>
     <use x="188.134766" xlink:href="#DejaVuSans-107"/>
     <use x="246.044922" xlink:href="#DejaVuSans-45"/>
     <use x="273.003906" xlink:href="#DejaVuSans-84"/>
     <use x="330.962891" xlink:href="#DejaVuSans-105"/>
     <use x="358.746094" xlink:href="#DejaVuSans-112"/>
     <use x="422.222656" xlink:href="#DejaVuSans-112"/>
     <use x="485.699219" xlink:href="#DejaVuSans-101"/>
     <use x="547.222656" xlink:href="#DejaVuSans-99"/>
     <use x="602.203125" xlink:href="#DejaVuSans-97"/>
     <use x="663.482422" xlink:href="#DejaVuSans-110"/>
     <use x="726.861328" xlink:href="#DejaVuSans-111"/>
     <use x="788.042969" xlink:href="#DejaVuSans-101"/>
    </g>
    <!-- Transgression (?) -->
    <g transform="translate(591.177763 270.20919)scale(0.1 -0.1)">
     <use xlink:href="#DejaVuSans-84"/>
     <use x="46.333984" xlink:href="#DejaVuSans-114"/>
     <use x="87.447266" xlink:href="#DejaVuSans-97"/>
     <use x="148.726562" xlink:href="#DejaVuSans-110"/>
     <use x="212.105469" xlink:href="#DejaVuSans-115"/>
     <use x="264.205078" xlink:href="#DejaVuSans-103"/>
     <use x="327.681641" xlink:href="#DejaVuSans-114"/>
     <use x="366.544922" xlink:href="#DejaVuSans-101"/>
     <use x="428.068359" xlink:href="#DejaVuSans-115"/>
     <use x="480.167969" xlink:href="#DejaVuSans-115"/>
     <use x="532.267578" xlink:href="#DejaVuSans-105"/>
     <use x="560.050781" xlink:href="#DejaVuSans-111"/>
     <use x="621.232422" xlink:href="#DejaVuSans-110"/>
     <use x="684.611328" xlink:href="#DejaVuSans-32"/>
     <use x="716.398438" xlink:href="#DejaVuSans-40"/>
     <use x="755.412109" xlink:href="#DejaVuSans-63"/>
     <use x="808.488281" xlink:href="#DejaVuSans-41"/>
    </g>
   </g>
   <g id="legend_3">
    <g id="patch_19">
     <path d="M 587.658824 499 
L 747.061949 499 
Q 749.061949 499 749.061949 497 
L 749.061949 472.124063 
Q 749.061949 470.124063 747.061949 470.124063 
L 587.658824 470.124063 
Q 585.658824 470.124063 585.658824 472.124063 
L 585.658824 497 
Q 585.658824 499 587.658824 499 
z
" style="fill:#ffffff;opacity:0.8;stroke:#cccccc;stroke-linejoin:miter;"/>
    </g>
    <g id="line2d_56">
     <path d="M 589.658824 484.86125 
L 609.658824 484.86125 
" style="fill:none;stroke:#000080;stroke-linecap:square;stroke-width:1.5;"/>
    </g>
    <g id="line2d_57"/>
    <g id="text_33">
     <!-- Sea Levels -->
     <g transform="translate(617.658824 481.7225)scale(0.1 -0.1)">
      <use xlink:href="#DejaVuSans-83"/>
      <use x="63.476562" xlink:href="#DejaVuSans-101"/>
      <use x="125" xlink:href="#DejaVuSans-97"/>
      <use x="186.279297" xlink:href="#DejaVuSans-32"/>
      <use x="218.066406" xlink:href="#DejaVuSans-76"/>
      <use x="272.029297" xlink:href="#DejaVuSans-101"/>
      <use x="333.552734" xlink:href="#DejaVuSans-118"/>
      <use x="392.732422" xlink:href="#DejaVuSans-101"/>
      <use x="454.255859" xlink:href="#DejaVuSans-108"/>
      <use x="482.039062" xlink:href="#DejaVuSans-115"/>
     </g>
     <!-- (Haq and Schutter, 2008) -->
     <defs>
      <path d="M 14.796875 27.296875 
Q 14.796875 17.390625 18.875 11.75 
Q 22.953125 6.109375 30.078125 6.109375 
Q 37.203125 6.109375 41.296875 11.75 
Q 45.40625 17.390625 45.40625 27.296875 
Q 45.40625 37.203125 41.296875 42.84375 
Q 37.203125 48.484375 30.078125 48.484375 
Q 22.953125 48.484375 18.875 42.84375 
Q 14.796875 37.203125 14.796875 27.296875 
z
M 45.40625 8.203125 
Q 42.578125 3.328125 38.25 0.953125 
Q 33.9375 -1.421875 27.875 -1.421875 
Q 17.96875 -1.421875 11.734375 6.484375 
Q 5.515625 14.40625 5.515625 27.296875 
Q 5.515625 40.1875 11.734375 48.09375 
Q 17.96875 56 27.875 56 
Q 33.9375 56 38.25 53.625 
Q 42.578125 51.265625 45.40625 46.390625 
L 45.40625 54.6875 
L 54.390625 54.6875 
L 54.390625 -20.796875 
L 45.40625 -20.796875 
z
" id="DejaVuSans-113"/>
      <path d="M 11.71875 12.40625 
L 22.015625 12.40625 
L 22.015625 4 
L 14.015625 -11.625 
L 7.71875 -11.625 
L 11.71875 4 
z
" id="DejaVuSans-44"/>
     </defs>
     <g transform="translate(617.658824 492.920313)scale(0.1 -0.1)">
      <use xlink:href="#DejaVuSans-40"/>
      <use x="39.013672" xlink:href="#DejaVuSans-72"/>
      <use x="114.208984" xlink:href="#DejaVuSans-97"/>
      <use x="175.488281" xlink:href="#DejaVuSans-113"/>
      <use x="238.964844" xlink:href="#DejaVuSans-32"/>
      <use x="270.751953" xlink:href="#DejaVuSans-97"/>
      <use x="332.03125" xlink:href="#DejaVuSans-110"/>
      <use x="395.410156" xlink:href="#DejaVuSans-100"/>
      <use x="458.886719" xlink:href="#DejaVuSans-32"/>
      <use x="490.673828" xlink:href="#DejaVuSans-83"/>
      <use x="554.150391" xlink:href="#DejaVuSans-99"/>
      <use x="609.130859" xlink:href="#DejaVuSans-104"/>
      <use x="672.509766" xlink:href="#DejaVuSans-117"/>
      <use x="735.888672" xlink:href="#DejaVuSans-116"/>
      <use x="775.097656" xlink:href="#DejaVuSans-116"/>
      <use x="814.306641" xlink:href="#DejaVuSans-101"/>
      <use x="875.830078" xlink:href="#DejaVuSans-114"/>
      <use x="916.943359" xlink:href="#DejaVuSans-44"/>
      <use x="948.730469" xlink:href="#DejaVuSans-32"/>
      <use x="980.517578" xlink:href="#DejaVuSans-50"/>
      <use x="1044.140625" xlink:href="#DejaVuSans-48"/>
      <use x="1107.763672" xlink:href="#DejaVuSans-48"/>
      <use x="1171.386719" xlink:href="#DejaVuSans-56"/>
      <use x="1235.009766" xlink:href="#DejaVuSans-41"/>
     </g>
    </g>
   </g>
  </g>
 </g>
 <defs>
  <clipPath id="pe14f958615">
   <rect height="434.88" width="196.941176" x="108" y="69.12"/>
  </clipPath>
  <clipPath id="pb0c7b08afb">
   <rect height="434.88" width="196.941176" x="344.329412" y="69.12"/>
  </clipPath>
  <clipPath id="p870c5d4f6f">
   <rect height="434.88" width="196.941176" x="580.658824" y="69.12"/>
  </clipPath>
 </defs>
</svg>
