<?xml version="1.0" encoding="utf-8" standalone="no"?>
<!DOCTYPE svg PUBLIC "-//W3C//DTD SVG 1.1//EN"
  "http://www.w3.org/Graphics/SVG/1.1/DTD/svg11.dtd">
<!-- Created with matplotlib (https://matplotlib.org/) -->
<svg height="720pt" version="1.1" viewBox="0 0 576 720" width="576pt" xmlns="http://www.w3.org/2000/svg" xmlns:xlink="http://www.w3.org/1999/xlink">
 <defs>
  <style type="text/css">
*{stroke-linecap:butt;stroke-linejoin:round;}
  </style>
 </defs>
 <g id="figure_1">
  <g id="patch_1">
   <path d="M 0 720 
L 576 720 
L 576 0 
L 0 0 
z
" style="fill:#ffffff;"/>
  </g>
  <g id="axes_1">
   <g id="patch_2">
    <path d="M 72 246.282353 
L 518.4 246.282353 
L 518.4 86.4 
L 72 86.4 
z
" style="fill:#ffffff;"/>
   </g>
   <g id="PathCollection_1">
    <defs>
     <path d="M 0 3 
C 0.795609 3 1.55874 2.683901 2.12132 2.12132 
C 2.683901 1.55874 3 0.795609 3 0 
C 3 -0.795609 2.683901 -1.55874 2.12132 -2.12132 
C 1.55874 -2.683901 0.795609 -3 0 -3 
C -0.795609 -3 -1.55874 -2.683901 -2.12132 -2.12132 
C -2.683901 -1.55874 -3 -0.795609 -3 0 
C -3 0.795609 -2.683901 1.55874 -2.12132 2.12132 
C -1.55874 2.683901 -0.795609 3 0 3 
z
" id="mc4b86e59b6" style="stroke:#1f77b4;stroke-opacity:0.4;"/>
    </defs>
    <g clip-path="url(#p13a281913c)">
     <use style="fill:#1f77b4;fill-opacity:0.4;stroke:#1f77b4;stroke-opacity:0.4;" x="344.082645" xlink:href="#mc4b86e59b6" y="128.293576"/>
     <use style="fill:#1f77b4;fill-opacity:0.4;stroke:#1f77b4;stroke-opacity:0.4;" x="338.54876" xlink:href="#mc4b86e59b6" y="135.200579"/>
     <use style="fill:#1f77b4;fill-opacity:0.4;stroke:#1f77b4;stroke-opacity:0.4;" x="336.611901" xlink:href="#mc4b86e59b6" y="130.986137"/>
     <use style="fill:#1f77b4;fill-opacity:0.4;stroke:#1f77b4;stroke-opacity:0.4;" x="335.136198" xlink:href="#mc4b86e59b6" y="126.888762"/>
     <use style="fill:#1f77b4;fill-opacity:0.4;stroke:#1f77b4;stroke-opacity:0.4;" x="333.568264" xlink:href="#mc4b86e59b6" y="137.659004"/>
     <use style="fill:#1f77b4;fill-opacity:0.4;stroke:#1f77b4;stroke-opacity:0.4;" x="332.369256" xlink:href="#mc4b86e59b6" y="137.541936"/>
     <use style="fill:#1f77b4;fill-opacity:0.4;stroke:#1f77b4;stroke-opacity:0.4;" x="323.238347" xlink:href="#mc4b86e59b6" y="140.936904"/>
     <use style="fill:#1f77b4;fill-opacity:0.4;stroke:#1f77b4;stroke-opacity:0.4;" x="311.709421" xlink:href="#mc4b86e59b6" y="137.424868"/>
     <use style="fill:#1f77b4;fill-opacity:0.4;stroke:#1f77b4;stroke-opacity:0.4;" x="298.059174" xlink:href="#mc4b86e59b6" y="135.434715"/>
     <use style="fill:#1f77b4;fill-opacity:0.4;stroke:#1f77b4;stroke-opacity:0.4;" x="285.700165" xlink:href="#mc4b86e59b6" y="140.117429"/>
     <use style="fill:#1f77b4;fill-opacity:0.4;stroke:#1f77b4;stroke-opacity:0.4;" x="285.054545" xlink:href="#mc4b86e59b6" y="139.180886"/>
     <use style="fill:#1f77b4;fill-opacity:0.4;stroke:#1f77b4;stroke-opacity:0.4;" x="281.918678" xlink:href="#mc4b86e59b6" y="141.873446"/>
     <use style="fill:#1f77b4;fill-opacity:0.4;stroke:#1f77b4;stroke-opacity:0.4;" x="281.918678" xlink:href="#mc4b86e59b6" y="137.89314"/>
     <use style="fill:#1f77b4;fill-opacity:0.4;stroke:#1f77b4;stroke-opacity:0.4;" x="277.49157" xlink:href="#mc4b86e59b6" y="146.087889"/>
     <use style="fill:#1f77b4;fill-opacity:0.4;stroke:#1f77b4;stroke-opacity:0.4;" x="271.865455" xlink:href="#mc4b86e59b6" y="144.91721"/>
     <use style="fill:#1f77b4;fill-opacity:0.4;stroke:#1f77b4;stroke-opacity:0.4;" x="258.399669" xlink:href="#mc4b86e59b6" y="144.683075"/>
     <use style="fill:#1f77b4;fill-opacity:0.4;stroke:#1f77b4;stroke-opacity:0.4;" x="258.399669" xlink:href="#mc4b86e59b6" y="144.448939"/>
     <use style="fill:#1f77b4;fill-opacity:0.4;stroke:#1f77b4;stroke-opacity:0.4;" x="256.278347" xlink:href="#mc4b86e59b6" y="141.639311"/>
     <use style="fill:#1f77b4;fill-opacity:0.4;stroke:#1f77b4;stroke-opacity:0.4;" x="256.278347" xlink:href="#mc4b86e59b6" y="146.55616"/>
     <use style="fill:#1f77b4;fill-opacity:0.4;stroke:#1f77b4;stroke-opacity:0.4;" x="256.278347" xlink:href="#mc4b86e59b6" y="147.024432"/>
     <use style="fill:#1f77b4;fill-opacity:0.4;stroke:#1f77b4;stroke-opacity:0.4;" x="254.987107" xlink:href="#mc4b86e59b6" y="145.50255"/>
     <use style="fill:#1f77b4;fill-opacity:0.4;stroke:#1f77b4;stroke-opacity:0.4;" x="254.987107" xlink:href="#mc4b86e59b6" y="146.087889"/>
     <use style="fill:#1f77b4;fill-opacity:0.4;stroke:#1f77b4;stroke-opacity:0.4;" x="254.987107" xlink:href="#mc4b86e59b6" y="148.312178"/>
     <use style="fill:#1f77b4;fill-opacity:0.4;stroke:#1f77b4;stroke-opacity:0.4;" x="252.312397" xlink:href="#mc4b86e59b6" y="149.716992"/>
     <use style="fill:#1f77b4;fill-opacity:0.4;stroke:#1f77b4;stroke-opacity:0.4;" x="251.297851" xlink:href="#mc4b86e59b6" y="147.960974"/>
     <use style="fill:#1f77b4;fill-opacity:0.4;stroke:#1f77b4;stroke-opacity:0.4;" x="250.467769" xlink:href="#mc4b86e59b6" y="150.185263"/>
     <use style="fill:#1f77b4;fill-opacity:0.4;stroke:#1f77b4;stroke-opacity:0.4;" x="250.467769" xlink:href="#mc4b86e59b6" y="151.004738"/>
     <use style="fill:#1f77b4;fill-opacity:0.4;stroke:#1f77b4;stroke-opacity:0.4;" x="250.467769" xlink:href="#mc4b86e59b6" y="149.83406"/>
     <use style="fill:#1f77b4;fill-opacity:0.4;stroke:#1f77b4;stroke-opacity:0.4;" x="249.637686" xlink:href="#mc4b86e59b6" y="149.83406"/>
     <use style="fill:#1f77b4;fill-opacity:0.4;stroke:#1f77b4;stroke-opacity:0.4;" x="248.899835" xlink:href="#mc4b86e59b6" y="150.185263"/>
     <use style="fill:#1f77b4;fill-opacity:0.4;stroke:#1f77b4;stroke-opacity:0.4;" x="248.899835" xlink:href="#mc4b86e59b6" y="150.770603"/>
     <use style="fill:#1f77b4;fill-opacity:0.4;stroke:#1f77b4;stroke-opacity:0.4;" x="248.069752" xlink:href="#mc4b86e59b6" y="149.716992"/>
     <use style="fill:#1f77b4;fill-opacity:0.4;stroke:#1f77b4;stroke-opacity:0.4;" x="248.069752" xlink:href="#mc4b86e59b6" y="150.88767"/>
     <use style="fill:#1f77b4;fill-opacity:0.4;stroke:#1f77b4;stroke-opacity:0.4;" x="248.069752" xlink:href="#mc4b86e59b6" y="149.716992"/>
     <use style="fill:#1f77b4;fill-opacity:0.4;stroke:#1f77b4;stroke-opacity:0.4;" x="242.074711" xlink:href="#mc4b86e59b6" y="162.477387"/>
     <use style="fill:#1f77b4;fill-opacity:0.4;stroke:#1f77b4;stroke-opacity:0.4;" x="242.074711" xlink:href="#mc4b86e59b6" y="153.463163"/>
     <use style="fill:#1f77b4;fill-opacity:0.4;stroke:#1f77b4;stroke-opacity:0.4;" x="237.186446" xlink:href="#mc4b86e59b6" y="169.735593"/>
     <use style="fill:#1f77b4;fill-opacity:0.4;stroke:#1f77b4;stroke-opacity:0.4;" x="237.186446" xlink:href="#mc4b86e59b6" y="154.633841"/>
     <use style="fill:#1f77b4;fill-opacity:0.4;stroke:#1f77b4;stroke-opacity:0.4;" x="237.186446" xlink:href="#mc4b86e59b6" y="160.955505"/>
     <use style="fill:#1f77b4;fill-opacity:0.4;stroke:#1f77b4;stroke-opacity:0.4;" x="237.186446" xlink:href="#mc4b86e59b6" y="162.126183"/>
     <use style="fill:#1f77b4;fill-opacity:0.4;stroke:#1f77b4;stroke-opacity:0.4;" x="234.696198" xlink:href="#mc4b86e59b6" y="156.155723"/>
     <use style="fill:#1f77b4;fill-opacity:0.4;stroke:#1f77b4;stroke-opacity:0.4;" x="234.696198" xlink:href="#mc4b86e59b6" y="160.370166"/>
     <use style="fill:#1f77b4;fill-opacity:0.4;stroke:#1f77b4;stroke-opacity:0.4;" x="234.696198" xlink:href="#mc4b86e59b6" y="162.360319"/>
     <use style="fill:#1f77b4;fill-opacity:0.4;stroke:#1f77b4;stroke-opacity:0.4;" x="227.502149" xlink:href="#mc4b86e59b6" y="162.594455"/>
     <use style="fill:#1f77b4;fill-opacity:0.4;stroke:#1f77b4;stroke-opacity:0.4;" x="227.502149" xlink:href="#mc4b86e59b6" y="159.433623"/>
     <use style="fill:#1f77b4;fill-opacity:0.4;stroke:#1f77b4;stroke-opacity:0.4;" x="227.502149" xlink:href="#mc4b86e59b6" y="160.838437"/>
     <use style="fill:#1f77b4;fill-opacity:0.4;stroke:#1f77b4;stroke-opacity:0.4;" x="227.502149" xlink:href="#mc4b86e59b6" y="165.638219"/>
     <use style="fill:#1f77b4;fill-opacity:0.4;stroke:#1f77b4;stroke-opacity:0.4;" x="227.225455" xlink:href="#mc4b86e59b6" y="163.062726"/>
     <use style="fill:#1f77b4;fill-opacity:0.4;stroke:#1f77b4;stroke-opacity:0.4;" x="227.225455" xlink:href="#mc4b86e59b6" y="166.457694"/>
     <use style="fill:#1f77b4;fill-opacity:0.4;stroke:#1f77b4;stroke-opacity:0.4;" x="225.473058" xlink:href="#mc4b86e59b6" y="163.999269"/>
     <use style="fill:#1f77b4;fill-opacity:0.4;stroke:#1f77b4;stroke-opacity:0.4;" x="225.473058" xlink:href="#mc4b86e59b6" y="165.404083"/>
     <use style="fill:#1f77b4;fill-opacity:0.4;stroke:#1f77b4;stroke-opacity:0.4;" x="222.798347" xlink:href="#mc4b86e59b6" y="168.096644"/>
     <use style="fill:#1f77b4;fill-opacity:0.4;stroke:#1f77b4;stroke-opacity:0.4;" x="222.798347" xlink:href="#mc4b86e59b6" y="168.564915"/>
     <use style="fill:#1f77b4;fill-opacity:0.4;stroke:#1f77b4;stroke-opacity:0.4;" x="220.861488" xlink:href="#mc4b86e59b6" y="177.930343"/>
     <use style="fill:#1f77b4;fill-opacity:0.4;stroke:#1f77b4;stroke-opacity:0.4;" x="220.861488" xlink:href="#mc4b86e59b6" y="178.398614"/>
     <use style="fill:#1f77b4;fill-opacity:0.4;stroke:#1f77b4;stroke-opacity:0.4;" x="220.861488" xlink:href="#mc4b86e59b6" y="180.505835"/>
     <use style="fill:#1f77b4;fill-opacity:0.4;stroke:#1f77b4;stroke-opacity:0.4;" x="219.662479" xlink:href="#mc4b86e59b6" y="181.442378"/>
     <use style="fill:#1f77b4;fill-opacity:0.4;stroke:#1f77b4;stroke-opacity:0.4;" x="219.201322" xlink:href="#mc4b86e59b6" y="181.208242"/>
     <use style="fill:#1f77b4;fill-opacity:0.4;stroke:#1f77b4;stroke-opacity:0.4;" x="219.201322" xlink:href="#mc4b86e59b6" y="181.32531"/>
     <use style="fill:#1f77b4;fill-opacity:0.4;stroke:#1f77b4;stroke-opacity:0.4;" x="217.448926" xlink:href="#mc4b86e59b6" y="182.613056"/>
     <use style="fill:#1f77b4;fill-opacity:0.4;stroke:#1f77b4;stroke-opacity:0.4;" x="215.604298" xlink:href="#mc4b86e59b6" y="188.817652"/>
     <use style="fill:#1f77b4;fill-opacity:0.4;stroke:#1f77b4;stroke-opacity:0.4;" x="203.706446" xlink:href="#mc4b86e59b6" y="204.855947"/>
     <use style="fill:#1f77b4;fill-opacity:0.4;stroke:#1f77b4;stroke-opacity:0.4;" x="198.357025" xlink:href="#mc4b86e59b6" y="201.812183"/>
    </g>
   </g>
   <g id="matplotlib.axis_1">
    <g id="xtick_1">
     <g id="line2d_1">
      <defs>
       <path d="M 0 0 
L 0 3.5 
" id="m0462ffb938" style="stroke:#000000;stroke-width:0.8;"/>
      </defs>
      <g>
       <use style="stroke:#000000;stroke-width:0.8;" x="156.852893" xlink:href="#m0462ffb938" y="246.282353"/>
      </g>
     </g>
    </g>
    <g id="xtick_2">
     <g id="line2d_2">
      <g>
       <use style="stroke:#000000;stroke-width:0.8;" x="249.084298" xlink:href="#m0462ffb938" y="246.282353"/>
      </g>
     </g>
    </g>
    <g id="xtick_3">
     <g id="line2d_3">
      <g>
       <use style="stroke:#000000;stroke-width:0.8;" x="341.315702" xlink:href="#m0462ffb938" y="246.282353"/>
      </g>
     </g>
    </g>
    <g id="xtick_4">
     <g id="line2d_4">
      <g>
       <use style="stroke:#000000;stroke-width:0.8;" x="433.547107" xlink:href="#m0462ffb938" y="246.282353"/>
      </g>
     </g>
    </g>
   </g>
   <g id="matplotlib.axis_2">
    <g id="ytick_1">
     <g id="line2d_5">
      <defs>
       <path d="M 0 0 
L -3.5 0 
" id="ma6fe0ff373" style="stroke:#000000;stroke-width:0.8;"/>
      </defs>
      <g>
       <use style="stroke:#000000;stroke-width:0.8;" x="72" xlink:href="#ma6fe0ff373" y="245.478489"/>
      </g>
     </g>
     <g id="text_1">
      <!-- 0.7078 -->
      <defs>
       <path d="M 31.78125 66.40625 
Q 24.171875 66.40625 20.328125 58.90625 
Q 16.5 51.421875 16.5 36.375 
Q 16.5 21.390625 20.328125 13.890625 
Q 24.171875 6.390625 31.78125 6.390625 
Q 39.453125 6.390625 43.28125 13.890625 
Q 47.125 21.390625 47.125 36.375 
Q 47.125 51.421875 43.28125 58.90625 
Q 39.453125 66.40625 31.78125 66.40625 
z
M 31.78125 74.21875 
Q 44.046875 74.21875 50.515625 64.515625 
Q 56.984375 54.828125 56.984375 36.375 
Q 56.984375 17.96875 50.515625 8.265625 
Q 44.046875 -1.421875 31.78125 -1.421875 
Q 19.53125 -1.421875 13.0625 8.265625 
Q 6.59375 17.96875 6.59375 36.375 
Q 6.59375 54.828125 13.0625 64.515625 
Q 19.53125 74.21875 31.78125 74.21875 
z
" id="DejaVuSans-48"/>
       <path d="M 10.6875 12.40625 
L 21 12.40625 
L 21 0 
L 10.6875 0 
z
" id="DejaVuSans-46"/>
       <path d="M 8.203125 72.90625 
L 55.078125 72.90625 
L 55.078125 68.703125 
L 28.609375 0 
L 18.3125 0 
L 43.21875 64.59375 
L 8.203125 64.59375 
z
" id="DejaVuSans-55"/>
       <path d="M 31.78125 34.625 
Q 24.75 34.625 20.71875 30.859375 
Q 16.703125 27.09375 16.703125 20.515625 
Q 16.703125 13.921875 20.71875 10.15625 
Q 24.75 6.390625 31.78125 6.390625 
Q 38.8125 6.390625 42.859375 10.171875 
Q 46.921875 13.96875 46.921875 20.515625 
Q 46.921875 27.09375 42.890625 30.859375 
Q 38.875 34.625 31.78125 34.625 
z
M 21.921875 38.8125 
Q 15.578125 40.375 12.03125 44.71875 
Q 8.5 49.078125 8.5 55.328125 
Q 8.5 64.0625 14.71875 69.140625 
Q 20.953125 74.21875 31.78125 74.21875 
Q 42.671875 74.21875 48.875 69.140625 
Q 55.078125 64.0625 55.078125 55.328125 
Q 55.078125 49.078125 51.53125 44.71875 
Q 48 40.375 41.703125 38.8125 
Q 48.828125 37.15625 52.796875 32.3125 
Q 56.78125 27.484375 56.78125 20.515625 
Q 56.78125 9.90625 50.3125 4.234375 
Q 43.84375 -1.421875 31.78125 -1.421875 
Q 19.734375 -1.421875 13.25 4.234375 
Q 6.78125 9.90625 6.78125 20.515625 
Q 6.78125 27.484375 10.78125 32.3125 
Q 14.796875 37.15625 21.921875 38.8125 
z
M 18.3125 54.390625 
Q 18.3125 48.734375 21.84375 45.5625 
Q 25.390625 42.390625 31.78125 42.390625 
Q 38.140625 42.390625 41.71875 45.5625 
Q 45.3125 48.734375 45.3125 54.390625 
Q 45.3125 60.0625 41.71875 63.234375 
Q 38.140625 66.40625 31.78125 66.40625 
Q 25.390625 66.40625 21.84375 63.234375 
Q 18.3125 60.0625 18.3125 54.390625 
z
" id="DejaVuSans-56"/>
      </defs>
      <g transform="translate(30.009375 249.277708)scale(0.1 -0.1)">
       <use xlink:href="#DejaVuSans-48"/>
       <use x="63.623047" xlink:href="#DejaVuSans-46"/>
       <use x="95.410156" xlink:href="#DejaVuSans-55"/>
       <use x="159.033203" xlink:href="#DejaVuSans-48"/>
       <use x="222.65625" xlink:href="#DejaVuSans-55"/>
       <use x="286.279297" xlink:href="#DejaVuSans-56"/>
      </g>
     </g>
    </g>
    <g id="ytick_2">
     <g id="line2d_6">
      <g>
       <use style="stroke:#000000;stroke-width:0.8;" x="72" xlink:href="#ma6fe0ff373" y="222.06492"/>
      </g>
     </g>
     <g id="text_2">
      <!-- 0.7080 -->
      <g transform="translate(30.009375 225.864139)scale(0.1 -0.1)">
       <use xlink:href="#DejaVuSans-48"/>
       <use x="63.623047" xlink:href="#DejaVuSans-46"/>
       <use x="95.410156" xlink:href="#DejaVuSans-55"/>
       <use x="159.033203" xlink:href="#DejaVuSans-48"/>
       <use x="222.65625" xlink:href="#DejaVuSans-56"/>
       <use x="286.279297" xlink:href="#DejaVuSans-48"/>
      </g>
     </g>
    </g>
    <g id="ytick_3">
     <g id="line2d_7">
      <g>
       <use style="stroke:#000000;stroke-width:0.8;" x="72" xlink:href="#ma6fe0ff373" y="198.651351"/>
      </g>
     </g>
     <g id="text_3">
      <!-- 0.7082 -->
      <defs>
       <path d="M 19.1875 8.296875 
L 53.609375 8.296875 
L 53.609375 0 
L 7.328125 0 
L 7.328125 8.296875 
Q 12.9375 14.109375 22.625 23.890625 
Q 32.328125 33.6875 34.8125 36.53125 
Q 39.546875 41.84375 41.421875 45.53125 
Q 43.3125 49.21875 43.3125 52.78125 
Q 43.3125 58.59375 39.234375 62.25 
Q 35.15625 65.921875 28.609375 65.921875 
Q 23.96875 65.921875 18.8125 64.3125 
Q 13.671875 62.703125 7.8125 59.421875 
L 7.8125 69.390625 
Q 13.765625 71.78125 18.9375 73 
Q 24.125 74.21875 28.421875 74.21875 
Q 39.75 74.21875 46.484375 68.546875 
Q 53.21875 62.890625 53.21875 53.421875 
Q 53.21875 48.921875 51.53125 44.890625 
Q 49.859375 40.875 45.40625 35.40625 
Q 44.1875 33.984375 37.640625 27.21875 
Q 31.109375 20.453125 19.1875 8.296875 
z
" id="DejaVuSans-50"/>
      </defs>
      <g transform="translate(30.009375 202.45057)scale(0.1 -0.1)">
       <use xlink:href="#DejaVuSans-48"/>
       <use x="63.623047" xlink:href="#DejaVuSans-46"/>
       <use x="95.410156" xlink:href="#DejaVuSans-55"/>
       <use x="159.033203" xlink:href="#DejaVuSans-48"/>
       <use x="222.65625" xlink:href="#DejaVuSans-56"/>
       <use x="286.279297" xlink:href="#DejaVuSans-50"/>
      </g>
     </g>
    </g>
    <g id="ytick_4">
     <g id="line2d_8">
      <g>
       <use style="stroke:#000000;stroke-width:0.8;" x="72" xlink:href="#ma6fe0ff373" y="175.237782"/>
      </g>
     </g>
     <g id="text_4">
      <!-- 0.7084 -->
      <defs>
       <path d="M 37.796875 64.3125 
L 12.890625 25.390625 
L 37.796875 25.390625 
z
M 35.203125 72.90625 
L 47.609375 72.90625 
L 47.609375 25.390625 
L 58.015625 25.390625 
L 58.015625 17.1875 
L 47.609375 17.1875 
L 47.609375 0 
L 37.796875 0 
L 37.796875 17.1875 
L 4.890625 17.1875 
L 4.890625 26.703125 
z
" id="DejaVuSans-52"/>
      </defs>
      <g transform="translate(30.009375 179.037001)scale(0.1 -0.1)">
       <use xlink:href="#DejaVuSans-48"/>
       <use x="63.623047" xlink:href="#DejaVuSans-46"/>
       <use x="95.410156" xlink:href="#DejaVuSans-55"/>
       <use x="159.033203" xlink:href="#DejaVuSans-48"/>
       <use x="222.65625" xlink:href="#DejaVuSans-56"/>
       <use x="286.279297" xlink:href="#DejaVuSans-52"/>
      </g>
     </g>
    </g>
    <g id="ytick_5">
     <g id="line2d_9">
      <g>
       <use style="stroke:#000000;stroke-width:0.8;" x="72" xlink:href="#ma6fe0ff373" y="151.824213"/>
      </g>
     </g>
     <g id="text_5">
      <!-- 0.7086 -->
      <defs>
       <path d="M 33.015625 40.375 
Q 26.375 40.375 22.484375 35.828125 
Q 18.609375 31.296875 18.609375 23.390625 
Q 18.609375 15.53125 22.484375 10.953125 
Q 26.375 6.390625 33.015625 6.390625 
Q 39.65625 6.390625 43.53125 10.953125 
Q 47.40625 15.53125 47.40625 23.390625 
Q 47.40625 31.296875 43.53125 35.828125 
Q 39.65625 40.375 33.015625 40.375 
z
M 52.59375 71.296875 
L 52.59375 62.3125 
Q 48.875 64.0625 45.09375 64.984375 
Q 41.3125 65.921875 37.59375 65.921875 
Q 27.828125 65.921875 22.671875 59.328125 
Q 17.53125 52.734375 16.796875 39.40625 
Q 19.671875 43.65625 24.015625 45.921875 
Q 28.375 48.1875 33.59375 48.1875 
Q 44.578125 48.1875 50.953125 41.515625 
Q 57.328125 34.859375 57.328125 23.390625 
Q 57.328125 12.15625 50.6875 5.359375 
Q 44.046875 -1.421875 33.015625 -1.421875 
Q 20.359375 -1.421875 13.671875 8.265625 
Q 6.984375 17.96875 6.984375 36.375 
Q 6.984375 53.65625 15.1875 63.9375 
Q 23.390625 74.21875 37.203125 74.21875 
Q 40.921875 74.21875 44.703125 73.484375 
Q 48.484375 72.75 52.59375 71.296875 
z
" id="DejaVuSans-54"/>
      </defs>
      <g transform="translate(30.009375 155.623432)scale(0.1 -0.1)">
       <use xlink:href="#DejaVuSans-48"/>
       <use x="63.623047" xlink:href="#DejaVuSans-46"/>
       <use x="95.410156" xlink:href="#DejaVuSans-55"/>
       <use x="159.033203" xlink:href="#DejaVuSans-48"/>
       <use x="222.65625" xlink:href="#DejaVuSans-56"/>
       <use x="286.279297" xlink:href="#DejaVuSans-54"/>
      </g>
     </g>
    </g>
    <g id="ytick_6">
     <g id="line2d_10">
      <g>
       <use style="stroke:#000000;stroke-width:0.8;" x="72" xlink:href="#ma6fe0ff373" y="128.410644"/>
      </g>
     </g>
     <g id="text_6">
      <!-- 0.7088 -->
      <g transform="translate(30.009375 132.209863)scale(0.1 -0.1)">
       <use xlink:href="#DejaVuSans-48"/>
       <use x="63.623047" xlink:href="#DejaVuSans-46"/>
       <use x="95.410156" xlink:href="#DejaVuSans-55"/>
       <use x="159.033203" xlink:href="#DejaVuSans-48"/>
       <use x="222.65625" xlink:href="#DejaVuSans-56"/>
       <use x="286.279297" xlink:href="#DejaVuSans-56"/>
      </g>
     </g>
    </g>
    <g id="ytick_7">
     <g id="line2d_11">
      <g>
       <use style="stroke:#000000;stroke-width:0.8;" x="72" xlink:href="#ma6fe0ff373" y="104.997075"/>
      </g>
     </g>
     <g id="text_7">
      <!-- 0.7090 -->
      <defs>
       <path d="M 10.984375 1.515625 
L 10.984375 10.5 
Q 14.703125 8.734375 18.5 7.8125 
Q 22.3125 6.890625 25.984375 6.890625 
Q 35.75 6.890625 40.890625 13.453125 
Q 46.046875 20.015625 46.78125 33.40625 
Q 43.953125 29.203125 39.59375 26.953125 
Q 35.25 24.703125 29.984375 24.703125 
Q 19.046875 24.703125 12.671875 31.3125 
Q 6.296875 37.9375 6.296875 49.421875 
Q 6.296875 60.640625 12.9375 67.421875 
Q 19.578125 74.21875 30.609375 74.21875 
Q 43.265625 74.21875 49.921875 64.515625 
Q 56.59375 54.828125 56.59375 36.375 
Q 56.59375 19.140625 48.40625 8.859375 
Q 40.234375 -1.421875 26.421875 -1.421875 
Q 22.703125 -1.421875 18.890625 -0.6875 
Q 15.09375 0.046875 10.984375 1.515625 
z
M 30.609375 32.421875 
Q 37.25 32.421875 41.125 36.953125 
Q 45.015625 41.5 45.015625 49.421875 
Q 45.015625 57.28125 41.125 61.84375 
Q 37.25 66.40625 30.609375 66.40625 
Q 23.96875 66.40625 20.09375 61.84375 
Q 16.21875 57.28125 16.21875 49.421875 
Q 16.21875 41.5 20.09375 36.953125 
Q 23.96875 32.421875 30.609375 32.421875 
z
" id="DejaVuSans-57"/>
      </defs>
      <g transform="translate(30.009375 108.796294)scale(0.1 -0.1)">
       <use xlink:href="#DejaVuSans-48"/>
       <use x="63.623047" xlink:href="#DejaVuSans-46"/>
       <use x="95.410156" xlink:href="#DejaVuSans-55"/>
       <use x="159.033203" xlink:href="#DejaVuSans-48"/>
       <use x="222.65625" xlink:href="#DejaVuSans-57"/>
       <use x="286.279297" xlink:href="#DejaVuSans-48"/>
      </g>
     </g>
    </g>
    <g id="text_8">
     <!-- $^{87}Sr/^{86}Sr$ -->
     <defs>
      <path d="M 60.296875 70.515625 
L 58.40625 60.890625 
Q 53.46875 63.53125 48.609375 64.875 
Q 43.75 66.21875 39.203125 66.21875 
Q 30.375 66.21875 25.140625 62.359375 
Q 19.921875 58.5 19.921875 52.09375 
Q 19.921875 48.578125 21.84375 46.703125 
Q 23.78125 44.828125 31.78125 42.671875 
L 37.703125 41.21875 
Q 47.703125 38.625 51.609375 34.640625 
Q 55.515625 30.671875 55.515625 23.484375 
Q 55.515625 12.453125 46.84375 5.515625 
Q 38.1875 -1.421875 24.03125 -1.421875 
Q 18.21875 -1.421875 12.359375 -0.265625 
Q 6.5 0.875 0.59375 3.21875 
L 2.59375 13.375 
Q 8.015625 10.015625 13.453125 8.296875 
Q 18.890625 6.59375 24.3125 6.59375 
Q 33.546875 6.59375 39.109375 10.6875 
Q 44.671875 14.796875 44.671875 21.390625 
Q 44.671875 25.78125 42.453125 28.046875 
Q 40.234375 30.328125 32.90625 32.171875 
L 27 33.6875 
Q 16.890625 36.328125 13.203125 39.765625 
Q 9.515625 43.21875 9.515625 49.421875 
Q 9.515625 60.296875 17.890625 67.25 
Q 26.265625 74.21875 39.703125 74.21875 
Q 44.921875 74.21875 50.046875 73.28125 
Q 55.171875 72.359375 60.296875 70.515625 
z
" id="DejaVuSans-Oblique-83"/>
      <path d="M 44.578125 46.390625 
Q 43.21875 47.125 41.453125 47.515625 
Q 39.703125 47.90625 37.703125 47.90625 
Q 30.515625 47.90625 25.140625 42.453125 
Q 19.78125 37.015625 18.015625 27.875 
L 12.5 0 
L 3.515625 0 
L 14.203125 54.6875 
L 23.1875 54.6875 
L 21.484375 46.1875 
Q 25.046875 50.921875 30 53.453125 
Q 34.96875 56 40.578125 56 
Q 42.046875 56 43.453125 55.828125 
Q 44.875 55.671875 46.296875 55.28125 
z
" id="DejaVuSans-Oblique-114"/>
      <path d="M 25.390625 72.90625 
L 33.6875 72.90625 
L 8.296875 -9.28125 
L 0 -9.28125 
z
" id="DejaVuSans-47"/>
     </defs>
     <g transform="translate(23.929687 187.791176)rotate(-90)scale(0.1 -0.1)">
      <use transform="translate(0.957031 39.046875)scale(0.7)" xlink:href="#DejaVuSans-56"/>
      <use transform="translate(45.493164 39.046875)scale(0.7)" xlink:href="#DejaVuSans-55"/>
      <use transform="translate(92.763672 0.765625)" xlink:href="#DejaVuSans-Oblique-83"/>
      <use transform="translate(156.240234 0.765625)" xlink:href="#DejaVuSans-Oblique-114"/>
      <use transform="translate(197.353516 0.765625)" xlink:href="#DejaVuSans-47"/>
      <use transform="translate(232.001953 39.046875)scale(0.7)" xlink:href="#DejaVuSans-56"/>
      <use transform="translate(276.538086 39.046875)scale(0.7)" xlink:href="#DejaVuSans-54"/>
      <use transform="translate(323.808594 0.765625)" xlink:href="#DejaVuSans-Oblique-83"/>
      <use transform="translate(387.285156 0.765625)" xlink:href="#DejaVuSans-Oblique-114"/>
     </g>
    </g>
   </g>
   <g id="line2d_12">
    <path clip-path="url(#p13a281913c)" d="M 498.109091 139.517081 
L 278.859568 139.628172 
L 276.278538 139.966918 
L 273.604169 140.544243 
L 270.820229 141.375077 
L 267.906425 142.479627 
L 264.846526 143.880459 
L 261.616181 145.607333 
L 258.191041 147.694352 
L 254.542699 150.181997 
L 250.634631 153.120669 
L 246.426254 156.568559 
L 241.860754 160.602167 
L 236.865082 165.318625 
L 231.325609 170.861413 
L 225.075946 177.43792 
L 217.827961 185.398253 
L 208.960745 195.482345 
L 204.025946 201.003257 
L 200.556166 204.498603 
L 197.00928 207.757307 
L 193.369054 210.800754 
L 189.623315 213.643135 
L 185.755829 216.298886 
L 181.750364 218.779429 
L 177.586628 221.095897 
L 173.24433 223.256597 
L 168.695062 225.271038 
L 163.90636 227.147024 
L 158.841698 228.890551 
L 153.460495 230.505855 
L 147.709994 231.997542 
L 141.529321 233.368615 
L 134.837313 234.622578 
L 127.532512 235.761929 
L 119.485057 236.788377 
L 110.520444 237.703396 
L 100.403296 238.507772 
L 92.290909 239.014973 
L 92.290909 239.014973 
" style="fill:none;stroke:#1f77b4;stroke-linecap:square;stroke-width:1.5;"/>
   </g>
   <g id="line2d_13">
    <path clip-path="url(#p13a281913c)" d="M 498.109091 139.517081 
L 271.631873 139.628076 
L 266.076167 139.922733 
L 261.198184 140.401643 
L 256.648916 141.070292 
L 252.286327 141.935339 
L 248.025194 143.006552 
L 243.808701 144.296151 
L 239.600324 145.816578 
L 235.367598 147.583286 
L 231.082115 149.614212 
L 226.715468 151.931186 
L 222.239249 154.559979 
L 217.62505 157.530146 
L 212.844464 160.874682 
L 207.865025 164.632649 
L 202.280911 169.138759 
L 193.296006 176.718561 
L 181.523103 186.587429 
L 174.417156 192.24567 
L 168.10662 196.990227 
L 162.165382 201.181749 
L 156.418939 204.965842 
L 150.765836 208.423743 
L 145.141139 211.604661 
L 139.492094 214.544429 
L 133.778117 217.267453 
L 127.962684 219.792447 
L 122.005214 222.136308 
L 115.869181 224.310825 
L 109.509947 226.32747 
L 102.886928 228.193226 
L 95.947367 229.915679 
L 92.290909 230.735827 
L 92.290909 230.735827 
" style="fill:none;stroke:#ff7f0e;stroke-dasharray:5.55,2.4;stroke-dashoffset:0;stroke-width:1.5;"/>
   </g>
   <g id="line2d_14">
    <path clip-path="url(#p13a281913c)" d="M 498.109091 93.66738 
L 494.079276 93.778353 
L 489.866841 94.118446 
L 485.423088 94.70225 
L 480.569454 95.570076 
L 471.028573 97.602686 
L 461.621613 99.805705 
L 455.976626 101.334586 
L 448.834155 103.523694 
L 436.172501 107.681084 
L 428.352306 110.393388 
L 421.047506 113.156073 
L 411.689245 116.599193 
L 403.727013 119.347982 
L 397.347487 121.268278 
L 388.845511 123.583592 
L 382.474102 125.14539 
L 375.830792 126.503103 
L 366.224979 128.211497 
L 358.136942 129.479109 
L 353.043873 130.010992 
L 347.285255 130.388902 
L 339.351431 130.653212 
L 334.100091 130.602891 
L 326.239314 130.263868 
L 298.834138 129.060027 
L 286.071029 128.647824 
L 279.837599 128.57841 
L 275.499359 128.764213 
L 272.333946 129.116307 
L 269.046786 129.707188 
L 265.625704 130.550463 
L 262.825531 131.446457 
L 260.276967 132.51139 
L 257.391571 133.971176 
L 253.674239 136.095096 
L 248.853071 139.137839 
L 242.822553 143.216578 
L 226.16355 154.614928 
L 221.171936 157.719182 
L 208.615796 165.365964 
L 200.531817 170.955678 
L 196.75767 173.149197 
L 192.865835 175.154056 
L 189.237784 176.779065 
L 185.487987 178.214831 
L 181.437881 179.521967 
L 175.66303 181.148973 
L 171.552051 182.113545 
L 167.984873 182.704534 
L 163.419373 183.207921 
L 159.52348 183.434531 
L 155.558596 183.43402 
L 150.343781 183.207331 
L 146.435712 182.808686 
L 141.492797 182.059047 
L 138.692624 181.420864 
L 135.352707 180.415247 
L 131.996557 179.174702 
L 128.733746 177.726273 
L 125.673847 176.124148 
L 123.003536 174.46904 
L 120.471205 172.641709 
L 117.395073 170.121629 
L 113.620926 166.757386 
L 110.382465 163.58489 
L 107.050664 159.979387 
L 103.22376 155.500079 
L 98.134749 149.180891 
L 92.290909 141.775325 
L 92.290909 141.775325 
" style="fill:none;stroke:#2ca02c;stroke-linecap:square;stroke-width:1.5;"/>
   </g>
   <g id="patch_3">
    <path d="M 72 246.282353 
L 72 86.4 
" style="fill:none;stroke:#000000;stroke-linecap:square;stroke-linejoin:miter;stroke-width:0.8;"/>
   </g>
   <g id="patch_4">
    <path d="M 518.4 246.282353 
L 518.4 86.4 
" style="fill:none;stroke:#000000;stroke-linecap:square;stroke-linejoin:miter;stroke-width:0.8;"/>
   </g>
   <g id="patch_5">
    <path d="M 72 246.282353 
L 518.4 246.282353 
" style="fill:none;stroke:#000000;stroke-linecap:square;stroke-linejoin:miter;stroke-width:0.8;"/>
   </g>
   <g id="patch_6">
    <path d="M 72 86.4 
L 518.4 86.4 
" style="fill:none;stroke:#000000;stroke-linecap:square;stroke-linejoin:miter;stroke-width:0.8;"/>
   </g>
   <g id="legend_1">
    <g id="patch_7">
     <path d="M 285.617188 241.282353 
L 511.4 241.282353 
Q 513.4 241.282353 513.4 239.282353 
L 513.4 181.569853 
Q 513.4 179.569853 511.4 179.569853 
L 285.617188 179.569853 
Q 283.617188 179.569853 283.617188 181.569853 
L 283.617188 239.282353 
Q 283.617188 241.282353 285.617188 241.282353 
z
" style="fill:#ffffff;opacity:0.8;stroke:#cccccc;stroke-linejoin:miter;"/>
    </g>
    <g id="line2d_15">
     <path d="M 287.617188 187.66829 
L 307.617188 187.66829 
" style="fill:none;stroke:#1f77b4;stroke-linecap:square;stroke-width:1.5;"/>
    </g>
    <g id="line2d_16"/>
    <g id="text_9">
     <!-- Sr model -->
     <defs>
      <path d="M 53.515625 70.515625 
L 53.515625 60.890625 
Q 47.90625 63.578125 42.921875 64.890625 
Q 37.9375 66.21875 33.296875 66.21875 
Q 25.25 66.21875 20.875 63.09375 
Q 16.5 59.96875 16.5 54.203125 
Q 16.5 49.359375 19.40625 46.890625 
Q 22.3125 44.4375 30.421875 42.921875 
L 36.375 41.703125 
Q 47.40625 39.59375 52.65625 34.296875 
Q 57.90625 29 57.90625 20.125 
Q 57.90625 9.515625 50.796875 4.046875 
Q 43.703125 -1.421875 29.984375 -1.421875 
Q 24.8125 -1.421875 18.96875 -0.25 
Q 13.140625 0.921875 6.890625 3.21875 
L 6.890625 13.375 
Q 12.890625 10.015625 18.65625 8.296875 
Q 24.421875 6.59375 29.984375 6.59375 
Q 38.421875 6.59375 43.015625 9.90625 
Q 47.609375 13.234375 47.609375 19.390625 
Q 47.609375 24.75 44.3125 27.78125 
Q 41.015625 30.8125 33.5 32.328125 
L 27.484375 33.5 
Q 16.453125 35.6875 11.515625 40.375 
Q 6.59375 45.0625 6.59375 53.421875 
Q 6.59375 63.09375 13.40625 68.65625 
Q 20.21875 74.21875 32.171875 74.21875 
Q 37.3125 74.21875 42.625 73.28125 
Q 47.953125 72.359375 53.515625 70.515625 
z
" id="DejaVuSans-83"/>
      <path d="M 41.109375 46.296875 
Q 39.59375 47.171875 37.8125 47.578125 
Q 36.03125 48 33.890625 48 
Q 26.265625 48 22.1875 43.046875 
Q 18.109375 38.09375 18.109375 28.8125 
L 18.109375 0 
L 9.078125 0 
L 9.078125 54.6875 
L 18.109375 54.6875 
L 18.109375 46.1875 
Q 20.953125 51.171875 25.484375 53.578125 
Q 30.03125 56 36.53125 56 
Q 37.453125 56 38.578125 55.875 
Q 39.703125 55.765625 41.0625 55.515625 
z
" id="DejaVuSans-114"/>
      <path id="DejaVuSans-32"/>
      <path d="M 52 44.1875 
Q 55.375 50.25 60.0625 53.125 
Q 64.75 56 71.09375 56 
Q 79.640625 56 84.28125 50.015625 
Q 88.921875 44.046875 88.921875 33.015625 
L 88.921875 0 
L 79.890625 0 
L 79.890625 32.71875 
Q 79.890625 40.578125 77.09375 44.375 
Q 74.3125 48.1875 68.609375 48.1875 
Q 61.625 48.1875 57.5625 43.546875 
Q 53.515625 38.921875 53.515625 30.90625 
L 53.515625 0 
L 44.484375 0 
L 44.484375 32.71875 
Q 44.484375 40.625 41.703125 44.40625 
Q 38.921875 48.1875 33.109375 48.1875 
Q 26.21875 48.1875 22.15625 43.53125 
Q 18.109375 38.875 18.109375 30.90625 
L 18.109375 0 
L 9.078125 0 
L 9.078125 54.6875 
L 18.109375 54.6875 
L 18.109375 46.1875 
Q 21.1875 51.21875 25.484375 53.609375 
Q 29.78125 56 35.6875 56 
Q 41.65625 56 45.828125 52.96875 
Q 50 49.953125 52 44.1875 
z
" id="DejaVuSans-109"/>
      <path d="M 30.609375 48.390625 
Q 23.390625 48.390625 19.1875 42.75 
Q 14.984375 37.109375 14.984375 27.296875 
Q 14.984375 17.484375 19.15625 11.84375 
Q 23.34375 6.203125 30.609375 6.203125 
Q 37.796875 6.203125 41.984375 11.859375 
Q 46.1875 17.53125 46.1875 27.296875 
Q 46.1875 37.015625 41.984375 42.703125 
Q 37.796875 48.390625 30.609375 48.390625 
z
M 30.609375 56 
Q 42.328125 56 49.015625 48.375 
Q 55.71875 40.765625 55.71875 27.296875 
Q 55.71875 13.875 49.015625 6.21875 
Q 42.328125 -1.421875 30.609375 -1.421875 
Q 18.84375 -1.421875 12.171875 6.21875 
Q 5.515625 13.875 5.515625 27.296875 
Q 5.515625 40.765625 12.171875 48.375 
Q 18.84375 56 30.609375 56 
z
" id="DejaVuSans-111"/>
      <path d="M 45.40625 46.390625 
L 45.40625 75.984375 
L 54.390625 75.984375 
L 54.390625 0 
L 45.40625 0 
L 45.40625 8.203125 
Q 42.578125 3.328125 38.25 0.953125 
Q 33.9375 -1.421875 27.875 -1.421875 
Q 17.96875 -1.421875 11.734375 6.484375 
Q 5.515625 14.40625 5.515625 27.296875 
Q 5.515625 40.1875 11.734375 48.09375 
Q 17.96875 56 27.875 56 
Q 33.9375 56 38.25 53.625 
Q 42.578125 51.265625 45.40625 46.390625 
z
M 14.796875 27.296875 
Q 14.796875 17.390625 18.875 11.75 
Q 22.953125 6.109375 30.078125 6.109375 
Q 37.203125 6.109375 41.296875 11.75 
Q 45.40625 17.390625 45.40625 27.296875 
Q 45.40625 37.203125 41.296875 42.84375 
Q 37.203125 48.484375 30.078125 48.484375 
Q 22.953125 48.484375 18.875 42.84375 
Q 14.796875 37.203125 14.796875 27.296875 
z
" id="DejaVuSans-100"/>
      <path d="M 56.203125 29.59375 
L 56.203125 25.203125 
L 14.890625 25.203125 
Q 15.484375 15.921875 20.484375 11.0625 
Q 25.484375 6.203125 34.421875 6.203125 
Q 39.59375 6.203125 44.453125 7.46875 
Q 49.3125 8.734375 54.109375 11.28125 
L 54.109375 2.78125 
Q 49.265625 0.734375 44.1875 -0.34375 
Q 39.109375 -1.421875 33.890625 -1.421875 
Q 20.796875 -1.421875 13.15625 6.1875 
Q 5.515625 13.8125 5.515625 26.8125 
Q 5.515625 40.234375 12.765625 48.109375 
Q 20.015625 56 32.328125 56 
Q 43.359375 56 49.78125 48.890625 
Q 56.203125 41.796875 56.203125 29.59375 
z
M 47.21875 32.234375 
Q 47.125 39.59375 43.09375 43.984375 
Q 39.0625 48.390625 32.421875 48.390625 
Q 24.90625 48.390625 20.390625 44.140625 
Q 15.875 39.890625 15.1875 32.171875 
z
" id="DejaVuSans-101"/>
      <path d="M 9.421875 75.984375 
L 18.40625 75.984375 
L 18.40625 0 
L 9.421875 0 
z
" id="DejaVuSans-108"/>
     </defs>
     <g transform="translate(315.617188 191.16829)scale(0.1 -0.1)">
      <use xlink:href="#DejaVuSans-83"/>
      <use x="63.476562" xlink:href="#DejaVuSans-114"/>
      <use x="104.589844" xlink:href="#DejaVuSans-32"/>
      <use x="136.376953" xlink:href="#DejaVuSans-109"/>
      <use x="233.789062" xlink:href="#DejaVuSans-111"/>
      <use x="294.970703" xlink:href="#DejaVuSans-100"/>
      <use x="358.447266" xlink:href="#DejaVuSans-101"/>
      <use x="419.970703" xlink:href="#DejaVuSans-108"/>
     </g>
    </g>
    <g id="line2d_17">
     <path d="M 287.617188 202.346415 
L 307.617188 202.346415 
" style="fill:none;stroke:#ff7f0e;stroke-dasharray:5.55,2.4;stroke-dashoffset:0;stroke-width:1.5;"/>
    </g>
    <g id="line2d_18"/>
    <g id="text_10">
     <!-- Sr model sea level + required Juv. Flux -->
     <defs>
      <path d="M 44.28125 53.078125 
L 44.28125 44.578125 
Q 40.484375 46.53125 36.375 47.5 
Q 32.28125 48.484375 27.875 48.484375 
Q 21.1875 48.484375 17.84375 46.4375 
Q 14.5 44.390625 14.5 40.28125 
Q 14.5 37.15625 16.890625 35.375 
Q 19.28125 33.59375 26.515625 31.984375 
L 29.59375 31.296875 
Q 39.15625 29.25 43.1875 25.515625 
Q 47.21875 21.78125 47.21875 15.09375 
Q 47.21875 7.46875 41.1875 3.015625 
Q 35.15625 -1.421875 24.609375 -1.421875 
Q 20.21875 -1.421875 15.453125 -0.5625 
Q 10.6875 0.296875 5.421875 2 
L 5.421875 11.28125 
Q 10.40625 8.6875 15.234375 7.390625 
Q 20.0625 6.109375 24.8125 6.109375 
Q 31.15625 6.109375 34.5625 8.28125 
Q 37.984375 10.453125 37.984375 14.40625 
Q 37.984375 18.0625 35.515625 20.015625 
Q 33.0625 21.96875 24.703125 23.78125 
L 21.578125 24.515625 
Q 13.234375 26.265625 9.515625 29.90625 
Q 5.8125 33.546875 5.8125 39.890625 
Q 5.8125 47.609375 11.28125 51.796875 
Q 16.75 56 26.8125 56 
Q 31.78125 56 36.171875 55.265625 
Q 40.578125 54.546875 44.28125 53.078125 
z
" id="DejaVuSans-115"/>
      <path d="M 34.28125 27.484375 
Q 23.390625 27.484375 19.1875 25 
Q 14.984375 22.515625 14.984375 16.5 
Q 14.984375 11.71875 18.140625 8.90625 
Q 21.296875 6.109375 26.703125 6.109375 
Q 34.1875 6.109375 38.703125 11.40625 
Q 43.21875 16.703125 43.21875 25.484375 
L 43.21875 27.484375 
z
M 52.203125 31.203125 
L 52.203125 0 
L 43.21875 0 
L 43.21875 8.296875 
Q 40.140625 3.328125 35.546875 0.953125 
Q 30.953125 -1.421875 24.3125 -1.421875 
Q 15.921875 -1.421875 10.953125 3.296875 
Q 6 8.015625 6 15.921875 
Q 6 25.140625 12.171875 29.828125 
Q 18.359375 34.515625 30.609375 34.515625 
L 43.21875 34.515625 
L 43.21875 35.40625 
Q 43.21875 41.609375 39.140625 45 
Q 35.0625 48.390625 27.6875 48.390625 
Q 23 48.390625 18.546875 47.265625 
Q 14.109375 46.140625 10.015625 43.890625 
L 10.015625 52.203125 
Q 14.9375 54.109375 19.578125 55.046875 
Q 24.21875 56 28.609375 56 
Q 40.484375 56 46.34375 49.84375 
Q 52.203125 43.703125 52.203125 31.203125 
z
" id="DejaVuSans-97"/>
      <path d="M 2.984375 54.6875 
L 12.5 54.6875 
L 29.59375 8.796875 
L 46.6875 54.6875 
L 56.203125 54.6875 
L 35.6875 0 
L 23.484375 0 
z
" id="DejaVuSans-118"/>
      <path d="M 46 62.703125 
L 46 35.5 
L 73.1875 35.5 
L 73.1875 27.203125 
L 46 27.203125 
L 46 0 
L 37.796875 0 
L 37.796875 27.203125 
L 10.59375 27.203125 
L 10.59375 35.5 
L 37.796875 35.5 
L 37.796875 62.703125 
z
" id="DejaVuSans-43"/>
      <path d="M 14.796875 27.296875 
Q 14.796875 17.390625 18.875 11.75 
Q 22.953125 6.109375 30.078125 6.109375 
Q 37.203125 6.109375 41.296875 11.75 
Q 45.40625 17.390625 45.40625 27.296875 
Q 45.40625 37.203125 41.296875 42.84375 
Q 37.203125 48.484375 30.078125 48.484375 
Q 22.953125 48.484375 18.875 42.84375 
Q 14.796875 37.203125 14.796875 27.296875 
z
M 45.40625 8.203125 
Q 42.578125 3.328125 38.25 0.953125 
Q 33.9375 -1.421875 27.875 -1.421875 
Q 17.96875 -1.421875 11.734375 6.484375 
Q 5.515625 14.40625 5.515625 27.296875 
Q 5.515625 40.1875 11.734375 48.09375 
Q 17.96875 56 27.875 56 
Q 33.9375 56 38.25 53.625 
Q 42.578125 51.265625 45.40625 46.390625 
L 45.40625 54.6875 
L 54.390625 54.6875 
L 54.390625 -20.796875 
L 45.40625 -20.796875 
z
" id="DejaVuSans-113"/>
      <path d="M 8.5 21.578125 
L 8.5 54.6875 
L 17.484375 54.6875 
L 17.484375 21.921875 
Q 17.484375 14.15625 20.5 10.265625 
Q 23.53125 6.390625 29.59375 6.390625 
Q 36.859375 6.390625 41.078125 11.03125 
Q 45.3125 15.671875 45.3125 23.6875 
L 45.3125 54.6875 
L 54.296875 54.6875 
L 54.296875 0 
L 45.3125 0 
L 45.3125 8.40625 
Q 42.046875 3.421875 37.71875 1 
Q 33.40625 -1.421875 27.6875 -1.421875 
Q 18.265625 -1.421875 13.375 4.4375 
Q 8.5 10.296875 8.5 21.578125 
z
M 31.109375 56 
z
" id="DejaVuSans-117"/>
      <path d="M 9.421875 54.6875 
L 18.40625 54.6875 
L 18.40625 0 
L 9.421875 0 
z
M 9.421875 75.984375 
L 18.40625 75.984375 
L 18.40625 64.59375 
L 9.421875 64.59375 
z
" id="DejaVuSans-105"/>
      <path d="M 9.8125 72.90625 
L 19.671875 72.90625 
L 19.671875 5.078125 
Q 19.671875 -8.109375 14.671875 -14.0625 
Q 9.671875 -20.015625 -1.421875 -20.015625 
L -5.171875 -20.015625 
L -5.171875 -11.71875 
L -2.09375 -11.71875 
Q 4.4375 -11.71875 7.125 -8.046875 
Q 9.8125 -4.390625 9.8125 5.078125 
z
" id="DejaVuSans-74"/>
      <path d="M 9.8125 72.90625 
L 51.703125 72.90625 
L 51.703125 64.59375 
L 19.671875 64.59375 
L 19.671875 43.109375 
L 48.578125 43.109375 
L 48.578125 34.8125 
L 19.671875 34.8125 
L 19.671875 0 
L 9.8125 0 
z
" id="DejaVuSans-70"/>
      <path d="M 54.890625 54.6875 
L 35.109375 28.078125 
L 55.90625 0 
L 45.3125 0 
L 29.390625 21.484375 
L 13.484375 0 
L 2.875 0 
L 24.125 28.609375 
L 4.6875 54.6875 
L 15.28125 54.6875 
L 29.78125 35.203125 
L 44.28125 54.6875 
z
" id="DejaVuSans-120"/>
     </defs>
     <g transform="translate(315.617188 205.846415)scale(0.1 -0.1)">
      <use xlink:href="#DejaVuSans-83"/>
      <use x="63.476562" xlink:href="#DejaVuSans-114"/>
      <use x="104.589844" xlink:href="#DejaVuSans-32"/>
      <use x="136.376953" xlink:href="#DejaVuSans-109"/>
      <use x="233.789062" xlink:href="#DejaVuSans-111"/>
      <use x="294.970703" xlink:href="#DejaVuSans-100"/>
      <use x="358.447266" xlink:href="#DejaVuSans-101"/>
      <use x="419.970703" xlink:href="#DejaVuSans-108"/>
      <use x="447.753906" xlink:href="#DejaVuSans-32"/>
      <use x="479.541016" xlink:href="#DejaVuSans-115"/>
      <use x="531.640625" xlink:href="#DejaVuSans-101"/>
      <use x="593.164062" xlink:href="#DejaVuSans-97"/>
      <use x="654.443359" xlink:href="#DejaVuSans-32"/>
      <use x="686.230469" xlink:href="#DejaVuSans-108"/>
      <use x="714.013672" xlink:href="#DejaVuSans-101"/>
      <use x="775.537109" xlink:href="#DejaVuSans-118"/>
      <use x="834.716797" xlink:href="#DejaVuSans-101"/>
      <use x="896.240234" xlink:href="#DejaVuSans-108"/>
      <use x="924.023438" xlink:href="#DejaVuSans-32"/>
      <use x="955.810547" xlink:href="#DejaVuSans-43"/>
      <use x="1039.599609" xlink:href="#DejaVuSans-32"/>
      <use x="1071.386719" xlink:href="#DejaVuSans-114"/>
      <use x="1110.25" xlink:href="#DejaVuSans-101"/>
      <use x="1171.773438" xlink:href="#DejaVuSans-113"/>
      <use x="1235.25" xlink:href="#DejaVuSans-117"/>
      <use x="1298.628906" xlink:href="#DejaVuSans-105"/>
      <use x="1326.412109" xlink:href="#DejaVuSans-114"/>
      <use x="1365.275391" xlink:href="#DejaVuSans-101"/>
      <use x="1426.798828" xlink:href="#DejaVuSans-100"/>
      <use x="1490.275391" xlink:href="#DejaVuSans-32"/>
      <use x="1522.0625" xlink:href="#DejaVuSans-74"/>
      <use x="1551.554688" xlink:href="#DejaVuSans-117"/>
      <use x="1614.933594" xlink:href="#DejaVuSans-118"/>
      <use x="1666.363281" xlink:href="#DejaVuSans-46"/>
      <use x="1698.150391" xlink:href="#DejaVuSans-32"/>
      <use x="1729.9375" xlink:href="#DejaVuSans-70"/>
      <use x="1787.457031" xlink:href="#DejaVuSans-108"/>
      <use x="1815.240234" xlink:href="#DejaVuSans-117"/>
      <use x="1878.619141" xlink:href="#DejaVuSans-120"/>
     </g>
    </g>
    <g id="line2d_19">
     <path d="M 287.617188 217.02454 
L 307.617188 217.02454 
" style="fill:none;stroke:#2ca02c;stroke-linecap:square;stroke-width:1.5;"/>
    </g>
    <g id="line2d_20"/>
    <g id="text_11">
     <!-- Sr model sea level -->
     <g transform="translate(315.617188 220.52454)scale(0.1 -0.1)">
      <use xlink:href="#DejaVuSans-83"/>
      <use x="63.476562" xlink:href="#DejaVuSans-114"/>
      <use x="104.589844" xlink:href="#DejaVuSans-32"/>
      <use x="136.376953" xlink:href="#DejaVuSans-109"/>
      <use x="233.789062" xlink:href="#DejaVuSans-111"/>
      <use x="294.970703" xlink:href="#DejaVuSans-100"/>
      <use x="358.447266" xlink:href="#DejaVuSans-101"/>
      <use x="419.970703" xlink:href="#DejaVuSans-108"/>
      <use x="447.753906" xlink:href="#DejaVuSans-32"/>
      <use x="479.541016" xlink:href="#DejaVuSans-115"/>
      <use x="531.640625" xlink:href="#DejaVuSans-101"/>
      <use x="593.164062" xlink:href="#DejaVuSans-97"/>
      <use x="654.443359" xlink:href="#DejaVuSans-32"/>
      <use x="686.230469" xlink:href="#DejaVuSans-108"/>
      <use x="714.013672" xlink:href="#DejaVuSans-101"/>
      <use x="775.537109" xlink:href="#DejaVuSans-118"/>
      <use x="834.716797" xlink:href="#DejaVuSans-101"/>
      <use x="896.240234" xlink:href="#DejaVuSans-108"/>
     </g>
    </g>
    <g id="PathCollection_2">
     <g>
      <use style="fill:#1f77b4;fill-opacity:0.4;stroke:#1f77b4;stroke-opacity:0.4;" x="297.617188" xlink:href="#mc4b86e59b6" y="232.577665"/>
     </g>
    </g>
    <g id="text_12">
     <!-- Sr Conodont -->
     <defs>
      <path d="M 64.40625 67.28125 
L 64.40625 56.890625 
Q 59.421875 61.53125 53.78125 63.8125 
Q 48.140625 66.109375 41.796875 66.109375 
Q 29.296875 66.109375 22.65625 58.46875 
Q 16.015625 50.828125 16.015625 36.375 
Q 16.015625 21.96875 22.65625 14.328125 
Q 29.296875 6.6875 41.796875 6.6875 
Q 48.140625 6.6875 53.78125 8.984375 
Q 59.421875 11.28125 64.40625 15.921875 
L 64.40625 5.609375 
Q 59.234375 2.09375 53.4375 0.328125 
Q 47.65625 -1.421875 41.21875 -1.421875 
Q 24.65625 -1.421875 15.125 8.703125 
Q 5.609375 18.84375 5.609375 36.375 
Q 5.609375 53.953125 15.125 64.078125 
Q 24.65625 74.21875 41.21875 74.21875 
Q 47.75 74.21875 53.53125 72.484375 
Q 59.328125 70.75 64.40625 67.28125 
z
" id="DejaVuSans-67"/>
      <path d="M 54.890625 33.015625 
L 54.890625 0 
L 45.90625 0 
L 45.90625 32.71875 
Q 45.90625 40.484375 42.875 44.328125 
Q 39.84375 48.1875 33.796875 48.1875 
Q 26.515625 48.1875 22.3125 43.546875 
Q 18.109375 38.921875 18.109375 30.90625 
L 18.109375 0 
L 9.078125 0 
L 9.078125 54.6875 
L 18.109375 54.6875 
L 18.109375 46.1875 
Q 21.34375 51.125 25.703125 53.5625 
Q 30.078125 56 35.796875 56 
Q 45.21875 56 50.046875 50.171875 
Q 54.890625 44.34375 54.890625 33.015625 
z
" id="DejaVuSans-110"/>
      <path d="M 18.3125 70.21875 
L 18.3125 54.6875 
L 36.8125 54.6875 
L 36.8125 47.703125 
L 18.3125 47.703125 
L 18.3125 18.015625 
Q 18.3125 11.328125 20.140625 9.421875 
Q 21.96875 7.515625 27.59375 7.515625 
L 36.8125 7.515625 
L 36.8125 0 
L 27.59375 0 
Q 17.1875 0 13.234375 3.875 
Q 9.28125 7.765625 9.28125 18.015625 
L 9.28125 47.703125 
L 2.6875 47.703125 
L 2.6875 54.6875 
L 9.28125 54.6875 
L 9.28125 70.21875 
z
" id="DejaVuSans-116"/>
     </defs>
     <g transform="translate(315.617188 235.202665)scale(0.1 -0.1)">
      <use xlink:href="#DejaVuSans-83"/>
      <use x="63.476562" xlink:href="#DejaVuSans-114"/>
      <use x="104.589844" xlink:href="#DejaVuSans-32"/>
      <use x="136.376953" xlink:href="#DejaVuSans-67"/>
      <use x="206.201172" xlink:href="#DejaVuSans-111"/>
      <use x="267.382812" xlink:href="#DejaVuSans-110"/>
      <use x="330.761719" xlink:href="#DejaVuSans-111"/>
      <use x="391.943359" xlink:href="#DejaVuSans-100"/>
      <use x="455.419922" xlink:href="#DejaVuSans-111"/>
      <use x="516.601562" xlink:href="#DejaVuSans-110"/>
      <use x="579.980469" xlink:href="#DejaVuSans-116"/>
     </g>
    </g>
   </g>
  </g>
  <g id="axes_2">
   <g id="patch_8">
    <path d="M 72 438.141176 
L 518.4 438.141176 
L 518.4 278.258824 
L 72 278.258824 
z
" style="fill:#ffffff;"/>
   </g>
   <g id="matplotlib.axis_3">
    <g id="xtick_5">
     <g id="line2d_21">
      <g>
       <use style="stroke:#000000;stroke-width:0.8;" x="156.852893" xlink:href="#m0462ffb938" y="438.141176"/>
      </g>
     </g>
    </g>
    <g id="xtick_6">
     <g id="line2d_22">
      <g>
       <use style="stroke:#000000;stroke-width:0.8;" x="249.084298" xlink:href="#m0462ffb938" y="438.141176"/>
      </g>
     </g>
    </g>
    <g id="xtick_7">
     <g id="line2d_23">
      <g>
       <use style="stroke:#000000;stroke-width:0.8;" x="341.315702" xlink:href="#m0462ffb938" y="438.141176"/>
      </g>
     </g>
    </g>
    <g id="xtick_8">
     <g id="line2d_24">
      <g>
       <use style="stroke:#000000;stroke-width:0.8;" x="433.547107" xlink:href="#m0462ffb938" y="438.141176"/>
      </g>
     </g>
    </g>
   </g>
   <g id="matplotlib.axis_4">
    <g id="ytick_8">
     <g id="line2d_25">
      <g>
       <use style="stroke:#000000;stroke-width:0.8;" x="72" xlink:href="#ma6fe0ff373" y="425.352576"/>
      </g>
     </g>
     <g id="text_13">
      <!-- 0.0 -->
      <g transform="translate(49.096875 429.151795)scale(0.1 -0.1)">
       <use xlink:href="#DejaVuSans-48"/>
       <use x="63.623047" xlink:href="#DejaVuSans-46"/>
       <use x="95.410156" xlink:href="#DejaVuSans-48"/>
      </g>
     </g>
    </g>
    <g id="ytick_9">
     <g id="line2d_26">
      <g>
       <use style="stroke:#000000;stroke-width:0.8;" x="72" xlink:href="#ma6fe0ff373" y="392.060583"/>
      </g>
     </g>
     <g id="text_14">
      <!-- 0.5 -->
      <defs>
       <path d="M 10.796875 72.90625 
L 49.515625 72.90625 
L 49.515625 64.59375 
L 19.828125 64.59375 
L 19.828125 46.734375 
Q 21.96875 47.46875 24.109375 47.828125 
Q 26.265625 48.1875 28.421875 48.1875 
Q 40.625 48.1875 47.75 41.5 
Q 54.890625 34.8125 54.890625 23.390625 
Q 54.890625 11.625 47.5625 5.09375 
Q 40.234375 -1.421875 26.90625 -1.421875 
Q 22.3125 -1.421875 17.546875 -0.640625 
Q 12.796875 0.140625 7.71875 1.703125 
L 7.71875 11.625 
Q 12.109375 9.234375 16.796875 8.0625 
Q 21.484375 6.890625 26.703125 6.890625 
Q 35.15625 6.890625 40.078125 11.328125 
Q 45.015625 15.765625 45.015625 23.390625 
Q 45.015625 31 40.078125 35.4375 
Q 35.15625 39.890625 26.703125 39.890625 
Q 22.75 39.890625 18.8125 39.015625 
Q 14.890625 38.140625 10.796875 36.28125 
z
" id="DejaVuSans-53"/>
      </defs>
      <g transform="translate(49.096875 395.859801)scale(0.1 -0.1)">
       <use xlink:href="#DejaVuSans-48"/>
       <use x="63.623047" xlink:href="#DejaVuSans-46"/>
       <use x="95.410156" xlink:href="#DejaVuSans-53"/>
      </g>
     </g>
    </g>
    <g id="ytick_10">
     <g id="line2d_27">
      <g>
       <use style="stroke:#000000;stroke-width:0.8;" x="72" xlink:href="#ma6fe0ff373" y="358.768589"/>
      </g>
     </g>
     <g id="text_15">
      <!-- 1.0 -->
      <defs>
       <path d="M 12.40625 8.296875 
L 28.515625 8.296875 
L 28.515625 63.921875 
L 10.984375 60.40625 
L 10.984375 69.390625 
L 28.421875 72.90625 
L 38.28125 72.90625 
L 38.28125 8.296875 
L 54.390625 8.296875 
L 54.390625 0 
L 12.40625 0 
z
" id="DejaVuSans-49"/>
      </defs>
      <g transform="translate(49.096875 362.567808)scale(0.1 -0.1)">
       <use xlink:href="#DejaVuSans-49"/>
       <use x="63.623047" xlink:href="#DejaVuSans-46"/>
       <use x="95.410156" xlink:href="#DejaVuSans-48"/>
      </g>
     </g>
    </g>
    <g id="ytick_11">
     <g id="line2d_28">
      <g>
       <use style="stroke:#000000;stroke-width:0.8;" x="72" xlink:href="#ma6fe0ff373" y="325.476596"/>
      </g>
     </g>
     <g id="text_16">
      <!-- 1.5 -->
      <g transform="translate(49.096875 329.275814)scale(0.1 -0.1)">
       <use xlink:href="#DejaVuSans-49"/>
       <use x="63.623047" xlink:href="#DejaVuSans-46"/>
       <use x="95.410156" xlink:href="#DejaVuSans-53"/>
      </g>
     </g>
    </g>
    <g id="ytick_12">
     <g id="line2d_29">
      <g>
       <use style="stroke:#000000;stroke-width:0.8;" x="72" xlink:href="#ma6fe0ff373" y="292.184602"/>
      </g>
     </g>
     <g id="text_17">
      <!-- 2.0 -->
      <g transform="translate(49.096875 295.983821)scale(0.1 -0.1)">
       <use xlink:href="#DejaVuSans-50"/>
       <use x="63.623047" xlink:href="#DejaVuSans-46"/>
       <use x="95.410156" xlink:href="#DejaVuSans-48"/>
      </g>
     </g>
    </g>
    <g id="text_18">
     <!-- mol/yr -->
     <defs>
      <path d="M 32.171875 -5.078125 
Q 28.375 -14.84375 24.75 -17.8125 
Q 21.140625 -20.796875 15.09375 -20.796875 
L 7.90625 -20.796875 
L 7.90625 -13.28125 
L 13.1875 -13.28125 
Q 16.890625 -13.28125 18.9375 -11.515625 
Q 21 -9.765625 23.484375 -3.21875 
L 25.09375 0.875 
L 2.984375 54.6875 
L 12.5 54.6875 
L 29.59375 11.921875 
L 46.6875 54.6875 
L 56.203125 54.6875 
z
" id="DejaVuSans-121"/>
     </defs>
     <g transform="translate(43.017187 374.217969)rotate(-90)scale(0.1 -0.1)">
      <use xlink:href="#DejaVuSans-109"/>
      <use x="97.412109" xlink:href="#DejaVuSans-111"/>
      <use x="158.59375" xlink:href="#DejaVuSans-108"/>
      <use x="186.376953" xlink:href="#DejaVuSans-47"/>
      <use x="220.068359" xlink:href="#DejaVuSans-121"/>
      <use x="279.248047" xlink:href="#DejaVuSans-114"/>
     </g>
    </g>
    <g id="text_19">
     <!-- 1e10 -->
     <g transform="translate(72 275.258824)scale(0.1 -0.1)">
      <use xlink:href="#DejaVuSans-49"/>
      <use x="63.623047" xlink:href="#DejaVuSans-101"/>
      <use x="125.146484" xlink:href="#DejaVuSans-49"/>
      <use x="188.769531" xlink:href="#DejaVuSans-48"/>
     </g>
    </g>
   </g>
   <g id="line2d_30">
    <path clip-path="url(#p0a39c030ca)" d="M 498.109091 332.134994 
L 281.188987 332.024759 
L 207.37398 285.526203 
L 92.290909 285.526203 
L 92.290909 285.526203 
" style="fill:none;stroke:#800000;stroke-linecap:square;stroke-width:1.5;"/>
   </g>
   <g id="line2d_31">
    <path clip-path="url(#p0a39c030ca)" d="M 498.109091 348.816409 
L 479.814624 344.723334 
L 467.745471 343.418344 
L 461.443052 342.538981 
L 452.105082 340.673216 
L 443.469185 339.334352 
L 434.537037 338.110334 
L 426.002595 336.403727 
L 422.646445 335.726006 
L 413.852277 334.910703 
L 407.700012 334.332664 
L 398.633943 334.221667 
L 391.483356 333.8749 
L 386.52015 333.648894 
L 379.028671 333.848722 
L 371.127312 333.73779 
L 361.67977 333.407388 
L 350.848375 334.509843 
L 345.081641 334.908699 
L 340.228007 335.214083 
L 332.350997 336.205825 
L 327.525771 336.510406 
L 316.674084 336.621381 
L 309.685825 336.945662 
L 299.686365 336.569643 
L 296.423554 336.58188 
L 288.006801 336.931205 
L 281.363491 336.33962 
L 275.824017 335.077412 
L 264.659847 330.268845 
L 258.499466 325.558118 
L 252.128057 322.249412 
L 244.620345 319.180857 
L 241.617261 318.178068 
L 233.573864 315.943228 
L 228.087147 314.804783 
L 227.080708 314.709116 
L 214.090338 314.128344 
L 210.766654 314.065913 
L 194.696093 315.125313 
L 191.794464 315.444116 
L 182.257641 316.668762 
L 174.198012 316.779651 
L 166.876979 318.518973 
L 162.084218 319.331621 
L 155.749333 320.931423 
L 151.28123 321.726582 
L 145.287235 323.492503 
L 141.987901 324.345878 
L 137.734884 326.899257 
L 132.528184 329.678844 
L 128.417205 332.235537 
L 126.181124 333.874735 
L 122.256823 337.604457 
L 119.168516 340.708427 
L 113.539762 344.834305 
L 112.155908 346.049718 
L 108.499449 349.623996 
L 105.80479 351.993316 
L 103.17912 354.101249 
L 96.621032 358.567142 
L 92.290909 359.641468 
L 92.290909 359.641468 
" style="fill:none;stroke:#008000;stroke-linecap:square;stroke-width:1.5;"/>
   </g>
   <g id="line2d_32">
    <path clip-path="url(#p0a39c030ca)" d="M 498.109091 425.352575 
L 227.153756 425.241545 
L 221.679214 425.003218 
L 218.310889 424.645333 
L 215.851607 424.16898 
L 213.895543 423.569878 
L 212.251963 422.837585 
L 210.819411 421.957846 
L 209.528896 420.904645 
L 208.33172 419.637487 
L 207.378038 418.664607 
L 92.290909 418.664607 
L 92.290909 418.664607 
" style="fill:none;stroke:#ff6347;stroke-linecap:square;stroke-width:1.5;"/>
   </g>
   <g id="line2d_33">
    <path clip-path="url(#p0a39c030ca)" d="M 498.109091 408.671162 
L 479.814624 412.764237 
L 467.745471 414.069227 
L 461.443052 414.94859 
L 452.105082 416.814354 
L 443.469185 418.153219 
L 434.537037 419.377237 
L 426.002595 421.083844 
L 422.646445 421.761564 
L 413.852277 422.576867 
L 407.700012 423.154906 
L 398.633943 423.265903 
L 391.483356 423.61267 
L 386.52015 423.838677 
L 379.028671 423.638849 
L 371.127312 423.749781 
L 361.67977 424.080183 
L 350.848375 422.977728 
L 345.081641 422.578871 
L 340.228007 422.273487 
L 332.350997 421.281746 
L 327.525771 420.977165 
L 316.674084 420.86619 
L 309.685825 420.541909 
L 299.686365 420.917927 
L 296.423554 420.90569 
L 288.006801 420.556366 
L 281.363491 421.147951 
L 277.284977 421.880757 
L 275.759086 422.225599 
L 271.34374 423.635118 
L 266.299369 424.999446 
L 264.546217 425.541411 
L 259.343576 428.477427 
L 258.572514 428.768811 
L 253.345523 430.143693 
L 252.274153 430.28869 
L 246.897008 430.816719 
L 242.514128 430.828404 
L 237.18974 430.277556 
L 232.656705 429.528183 
L 227.482472 428.250456 
L 219.552705 424.778536 
L 211.752802 421.207976 
L 200.349197 414.683747 
L 195.385991 412.186608 
L 188.21917 408.633304 
L 182.959714 406.212238 
L 177.209213 404.587533 
L 174.060032 403.644067 
L 167.826603 400.671084 
L 161.154885 398.184575 
L 156.147039 396.065284 
L 150.940339 394.341856 
L 145.729582 392.115262 
L 141.927027 390.690458 
L 137.860688 387.820073 
L 131.9438 384.093682 
L 128.17777 381.418924 
L 126.1446 379.756378 
L 122.114786 375.632498 
L 119.172574 372.496515 
L 113.077124 367.666938 
L 112.139675 366.746589 
L 108.548148 363.061432 
L 105.816964 360.535809 
L 103.183178 358.311268 
L 96.657556 353.611152 
L 92.290909 352.388922 
L 92.290909 352.388922 
" style="fill:none;stroke:#ff00ff;stroke-linecap:square;stroke-width:1.5;"/>
   </g>
   <g id="patch_9">
    <path d="M 72 438.141176 
L 72 278.258824 
" style="fill:none;stroke:#000000;stroke-linecap:square;stroke-linejoin:miter;stroke-width:0.8;"/>
   </g>
   <g id="patch_10">
    <path d="M 518.4 438.141176 
L 518.4 278.258824 
" style="fill:none;stroke:#000000;stroke-linecap:square;stroke-linejoin:miter;stroke-width:0.8;"/>
   </g>
   <g id="patch_11">
    <path d="M 72 438.141176 
L 518.4 438.141176 
" style="fill:none;stroke:#000000;stroke-linecap:square;stroke-linejoin:miter;stroke-width:0.8;"/>
   </g>
   <g id="patch_12">
    <path d="M 72 278.258824 
L 518.4 278.258824 
" style="fill:none;stroke:#000000;stroke-linecap:square;stroke-linejoin:miter;stroke-width:0.8;"/>
   </g>
   <g id="legend_2">
    <g id="patch_13">
     <path d="M 79 394.655156 
L 203.514063 394.655156 
Q 205.514063 394.655156 205.514063 392.655156 
L 205.514063 323.744844 
Q 205.514063 321.744844 203.514063 321.744844 
L 79 321.744844 
Q 77 321.744844 77 323.744844 
L 77 392.655156 
Q 77 394.655156 79 394.655156 
z
" style="fill:#ffffff;opacity:0.8;stroke:#cccccc;stroke-linejoin:miter;"/>
    </g>
    <g id="line2d_34">
     <path d="M 81 329.843281 
L 101 329.843281 
" style="fill:none;stroke:#800000;stroke-linecap:square;stroke-width:1.5;"/>
    </g>
    <g id="line2d_35"/>
    <g id="text_20">
     <!-- hydrothermal flux -->
     <defs>
      <path d="M 54.890625 33.015625 
L 54.890625 0 
L 45.90625 0 
L 45.90625 32.71875 
Q 45.90625 40.484375 42.875 44.328125 
Q 39.84375 48.1875 33.796875 48.1875 
Q 26.515625 48.1875 22.3125 43.546875 
Q 18.109375 38.921875 18.109375 30.90625 
L 18.109375 0 
L 9.078125 0 
L 9.078125 75.984375 
L 18.109375 75.984375 
L 18.109375 46.1875 
Q 21.34375 51.125 25.703125 53.5625 
Q 30.078125 56 35.796875 56 
Q 45.21875 56 50.046875 50.171875 
Q 54.890625 44.34375 54.890625 33.015625 
z
" id="DejaVuSans-104"/>
      <path d="M 37.109375 75.984375 
L 37.109375 68.5 
L 28.515625 68.5 
Q 23.6875 68.5 21.796875 66.546875 
Q 19.921875 64.59375 19.921875 59.515625 
L 19.921875 54.6875 
L 34.71875 54.6875 
L 34.71875 47.703125 
L 19.921875 47.703125 
L 19.921875 0 
L 10.890625 0 
L 10.890625 47.703125 
L 2.296875 47.703125 
L 2.296875 54.6875 
L 10.890625 54.6875 
L 10.890625 58.5 
Q 10.890625 67.625 15.140625 71.796875 
Q 19.390625 75.984375 28.609375 75.984375 
z
" id="DejaVuSans-102"/>
     </defs>
     <g transform="translate(109 333.343281)scale(0.1 -0.1)">
      <use xlink:href="#DejaVuSans-104"/>
      <use x="63.378906" xlink:href="#DejaVuSans-121"/>
      <use x="122.558594" xlink:href="#DejaVuSans-100"/>
      <use x="186.035156" xlink:href="#DejaVuSans-114"/>
      <use x="224.898438" xlink:href="#DejaVuSans-111"/>
      <use x="286.080078" xlink:href="#DejaVuSans-116"/>
      <use x="325.289062" xlink:href="#DejaVuSans-104"/>
      <use x="388.667969" xlink:href="#DejaVuSans-101"/>
      <use x="450.191406" xlink:href="#DejaVuSans-114"/>
      <use x="489.554688" xlink:href="#DejaVuSans-109"/>
      <use x="586.966797" xlink:href="#DejaVuSans-97"/>
      <use x="648.246094" xlink:href="#DejaVuSans-108"/>
      <use x="676.029297" xlink:href="#DejaVuSans-32"/>
      <use x="707.816406" xlink:href="#DejaVuSans-102"/>
      <use x="743.021484" xlink:href="#DejaVuSans-108"/>
      <use x="770.804688" xlink:href="#DejaVuSans-117"/>
      <use x="834.183594" xlink:href="#DejaVuSans-120"/>
     </g>
    </g>
    <g id="line2d_36">
     <path d="M 81 351.160156 
L 101 351.160156 
" style="fill:none;stroke:#008000;stroke-linecap:square;stroke-width:1.5;"/>
    </g>
    <g id="line2d_37"/>
    <g id="text_21">
     <!-- hydrothermal flux  -->
     <g transform="translate(109 348.021406)scale(0.1 -0.1)">
      <use xlink:href="#DejaVuSans-104"/>
      <use x="63.378906" xlink:href="#DejaVuSans-121"/>
      <use x="122.558594" xlink:href="#DejaVuSans-100"/>
      <use x="186.035156" xlink:href="#DejaVuSans-114"/>
      <use x="224.898438" xlink:href="#DejaVuSans-111"/>
      <use x="286.080078" xlink:href="#DejaVuSans-116"/>
      <use x="325.289062" xlink:href="#DejaVuSans-104"/>
      <use x="388.667969" xlink:href="#DejaVuSans-101"/>
      <use x="450.191406" xlink:href="#DejaVuSans-114"/>
      <use x="489.554688" xlink:href="#DejaVuSans-109"/>
      <use x="586.966797" xlink:href="#DejaVuSans-97"/>
      <use x="648.246094" xlink:href="#DejaVuSans-108"/>
      <use x="676.029297" xlink:href="#DejaVuSans-32"/>
      <use x="707.816406" xlink:href="#DejaVuSans-102"/>
      <use x="743.021484" xlink:href="#DejaVuSans-108"/>
      <use x="770.804688" xlink:href="#DejaVuSans-117"/>
      <use x="834.183594" xlink:href="#DejaVuSans-120"/>
      <use x="893.363281" xlink:href="#DejaVuSans-32"/>
     </g>
     <!-- (sea level) -->
     <defs>
      <path d="M 31 75.875 
Q 24.46875 64.65625 21.28125 53.65625 
Q 18.109375 42.671875 18.109375 31.390625 
Q 18.109375 20.125 21.3125 9.0625 
Q 24.515625 -2 31 -13.1875 
L 23.1875 -13.1875 
Q 15.875 -1.703125 12.234375 9.375 
Q 8.59375 20.453125 8.59375 31.390625 
Q 8.59375 42.28125 12.203125 53.3125 
Q 15.828125 64.359375 23.1875 75.875 
z
" id="DejaVuSans-40"/>
      <path d="M 8.015625 75.875 
L 15.828125 75.875 
Q 23.140625 64.359375 26.78125 53.3125 
Q 30.421875 42.28125 30.421875 31.390625 
Q 30.421875 20.453125 26.78125 9.375 
Q 23.140625 -1.703125 15.828125 -13.1875 
L 8.015625 -13.1875 
Q 14.5 -2 17.703125 9.0625 
Q 20.90625 20.125 20.90625 31.390625 
Q 20.90625 42.671875 17.703125 53.65625 
Q 14.5 64.65625 8.015625 75.875 
z
" id="DejaVuSans-41"/>
     </defs>
     <g transform="translate(109 359.219219)scale(0.1 -0.1)">
      <use xlink:href="#DejaVuSans-40"/>
      <use x="39.013672" xlink:href="#DejaVuSans-115"/>
      <use x="91.113281" xlink:href="#DejaVuSans-101"/>
      <use x="152.636719" xlink:href="#DejaVuSans-97"/>
      <use x="213.916016" xlink:href="#DejaVuSans-32"/>
      <use x="245.703125" xlink:href="#DejaVuSans-108"/>
      <use x="273.486328" xlink:href="#DejaVuSans-101"/>
      <use x="335.009766" xlink:href="#DejaVuSans-118"/>
      <use x="394.189453" xlink:href="#DejaVuSans-101"/>
      <use x="455.712891" xlink:href="#DejaVuSans-108"/>
      <use x="483.496094" xlink:href="#DejaVuSans-41"/>
     </g>
    </g>
    <g id="line2d_38">
     <path d="M 81 370.397344 
L 101 370.397344 
" style="fill:none;stroke:#ff6347;stroke-linecap:square;stroke-width:1.5;"/>
    </g>
    <g id="line2d_39"/>
    <g id="text_22">
     <!-- Taconic Sr flux -->
     <defs>
      <path d="M -0.296875 72.90625 
L 61.375 72.90625 
L 61.375 64.59375 
L 35.5 64.59375 
L 35.5 0 
L 25.59375 0 
L 25.59375 64.59375 
L -0.296875 64.59375 
z
" id="DejaVuSans-84"/>
      <path d="M 48.78125 52.59375 
L 48.78125 44.1875 
Q 44.96875 46.296875 41.140625 47.34375 
Q 37.3125 48.390625 33.40625 48.390625 
Q 24.65625 48.390625 19.8125 42.84375 
Q 14.984375 37.3125 14.984375 27.296875 
Q 14.984375 17.28125 19.8125 11.734375 
Q 24.65625 6.203125 33.40625 6.203125 
Q 37.3125 6.203125 41.140625 7.25 
Q 44.96875 8.296875 48.78125 10.40625 
L 48.78125 2.09375 
Q 45.015625 0.34375 40.984375 -0.53125 
Q 36.96875 -1.421875 32.421875 -1.421875 
Q 20.0625 -1.421875 12.78125 6.34375 
Q 5.515625 14.109375 5.515625 27.296875 
Q 5.515625 40.671875 12.859375 48.328125 
Q 20.21875 56 33.015625 56 
Q 37.15625 56 41.109375 55.140625 
Q 45.0625 54.296875 48.78125 52.59375 
z
" id="DejaVuSans-99"/>
     </defs>
     <g transform="translate(109 373.897344)scale(0.1 -0.1)">
      <use xlink:href="#DejaVuSans-84"/>
      <use x="44.583984" xlink:href="#DejaVuSans-97"/>
      <use x="105.863281" xlink:href="#DejaVuSans-99"/>
      <use x="160.84375" xlink:href="#DejaVuSans-111"/>
      <use x="222.025391" xlink:href="#DejaVuSans-110"/>
      <use x="285.404297" xlink:href="#DejaVuSans-105"/>
      <use x="313.1875" xlink:href="#DejaVuSans-99"/>
      <use x="368.167969" xlink:href="#DejaVuSans-32"/>
      <use x="399.955078" xlink:href="#DejaVuSans-83"/>
      <use x="463.431641" xlink:href="#DejaVuSans-114"/>
      <use x="504.544922" xlink:href="#DejaVuSans-32"/>
      <use x="536.332031" xlink:href="#DejaVuSans-102"/>
      <use x="571.537109" xlink:href="#DejaVuSans-108"/>
      <use x="599.320312" xlink:href="#DejaVuSans-117"/>
      <use x="662.699219" xlink:href="#DejaVuSans-120"/>
     </g>
    </g>
    <g id="line2d_40">
     <path d="M 81 385.075469 
L 101 385.075469 
" style="fill:none;stroke:#ff00ff;stroke-linecap:square;stroke-width:1.5;"/>
    </g>
    <g id="line2d_41"/>
    <g id="text_23">
     <!-- Required Juv. Flux -->
     <defs>
      <path d="M 44.390625 34.1875 
Q 47.5625 33.109375 50.5625 29.59375 
Q 53.5625 26.078125 56.59375 19.921875 
L 66.609375 0 
L 56 0 
L 46.6875 18.703125 
Q 43.0625 26.03125 39.671875 28.421875 
Q 36.28125 30.8125 30.421875 30.8125 
L 19.671875 30.8125 
L 19.671875 0 
L 9.8125 0 
L 9.8125 72.90625 
L 32.078125 72.90625 
Q 44.578125 72.90625 50.734375 67.671875 
Q 56.890625 62.453125 56.890625 51.90625 
Q 56.890625 45.015625 53.6875 40.46875 
Q 50.484375 35.9375 44.390625 34.1875 
z
M 19.671875 64.796875 
L 19.671875 38.921875 
L 32.078125 38.921875 
Q 39.203125 38.921875 42.84375 42.21875 
Q 46.484375 45.515625 46.484375 51.90625 
Q 46.484375 58.296875 42.84375 61.546875 
Q 39.203125 64.796875 32.078125 64.796875 
z
" id="DejaVuSans-82"/>
     </defs>
     <g transform="translate(109 388.575469)scale(0.1 -0.1)">
      <use xlink:href="#DejaVuSans-82"/>
      <use x="64.982422" xlink:href="#DejaVuSans-101"/>
      <use x="126.505859" xlink:href="#DejaVuSans-113"/>
      <use x="189.982422" xlink:href="#DejaVuSans-117"/>
      <use x="253.361328" xlink:href="#DejaVuSans-105"/>
      <use x="281.144531" xlink:href="#DejaVuSans-114"/>
      <use x="320.007812" xlink:href="#DejaVuSans-101"/>
      <use x="381.53125" xlink:href="#DejaVuSans-100"/>
      <use x="445.007812" xlink:href="#DejaVuSans-32"/>
      <use x="476.794922" xlink:href="#DejaVuSans-74"/>
      <use x="506.287109" xlink:href="#DejaVuSans-117"/>
      <use x="569.666016" xlink:href="#DejaVuSans-118"/>
      <use x="621.095703" xlink:href="#DejaVuSans-46"/>
      <use x="652.882812" xlink:href="#DejaVuSans-32"/>
      <use x="684.669922" xlink:href="#DejaVuSans-70"/>
      <use x="742.189453" xlink:href="#DejaVuSans-108"/>
      <use x="769.972656" xlink:href="#DejaVuSans-117"/>
      <use x="833.351562" xlink:href="#DejaVuSans-120"/>
     </g>
    </g>
   </g>
  </g>
  <g id="axes_3">
   <g id="patch_14">
    <path d="M 72 630 
L 518.4 630 
L 518.4 470.117647 
L 72 470.117647 
z
" style="fill:#ffffff;"/>
   </g>
   <g id="matplotlib.axis_5">
    <g id="xtick_9">
     <g id="line2d_42">
      <g>
       <use style="stroke:#000000;stroke-width:0.8;" x="156.852893" xlink:href="#m0462ffb938" y="630"/>
      </g>
     </g>
     <g id="text_24">
      <!-- 450 -->
      <g transform="translate(147.309143 644.598438)scale(0.1 -0.1)">
       <use xlink:href="#DejaVuSans-52"/>
       <use x="63.623047" xlink:href="#DejaVuSans-53"/>
       <use x="127.246094" xlink:href="#DejaVuSans-48"/>
      </g>
     </g>
    </g>
    <g id="xtick_10">
     <g id="line2d_43">
      <g>
       <use style="stroke:#000000;stroke-width:0.8;" x="249.084298" xlink:href="#m0462ffb938" y="630"/>
      </g>
     </g>
     <g id="text_25">
      <!-- 460 -->
      <g transform="translate(239.540548 644.598438)scale(0.1 -0.1)">
       <use xlink:href="#DejaVuSans-52"/>
       <use x="63.623047" xlink:href="#DejaVuSans-54"/>
       <use x="127.246094" xlink:href="#DejaVuSans-48"/>
      </g>
     </g>
    </g>
    <g id="xtick_11">
     <g id="line2d_44">
      <g>
       <use style="stroke:#000000;stroke-width:0.8;" x="341.315702" xlink:href="#m0462ffb938" y="630"/>
      </g>
     </g>
     <g id="text_26">
      <!-- 470 -->
      <g transform="translate(331.771952 644.598438)scale(0.1 -0.1)">
       <use xlink:href="#DejaVuSans-52"/>
       <use x="63.623047" xlink:href="#DejaVuSans-55"/>
       <use x="127.246094" xlink:href="#DejaVuSans-48"/>
      </g>
     </g>
    </g>
    <g id="xtick_12">
     <g id="line2d_45">
      <g>
       <use style="stroke:#000000;stroke-width:0.8;" x="433.547107" xlink:href="#m0462ffb938" y="630"/>
      </g>
     </g>
     <g id="text_27">
      <!-- 480 -->
      <g transform="translate(424.003357 644.598438)scale(0.1 -0.1)">
       <use xlink:href="#DejaVuSans-52"/>
       <use x="63.623047" xlink:href="#DejaVuSans-56"/>
       <use x="127.246094" xlink:href="#DejaVuSans-48"/>
      </g>
     </g>
    </g>
    <g id="text_28">
     <!-- Age (Ma) -->
     <defs>
      <path d="M 34.1875 63.1875 
L 20.796875 26.90625 
L 47.609375 26.90625 
z
M 28.609375 72.90625 
L 39.796875 72.90625 
L 67.578125 0 
L 57.328125 0 
L 50.6875 18.703125 
L 17.828125 18.703125 
L 11.1875 0 
L 0.78125 0 
z
" id="DejaVuSans-65"/>
      <path d="M 45.40625 27.984375 
Q 45.40625 37.75 41.375 43.109375 
Q 37.359375 48.484375 30.078125 48.484375 
Q 22.859375 48.484375 18.828125 43.109375 
Q 14.796875 37.75 14.796875 27.984375 
Q 14.796875 18.265625 18.828125 12.890625 
Q 22.859375 7.515625 30.078125 7.515625 
Q 37.359375 7.515625 41.375 12.890625 
Q 45.40625 18.265625 45.40625 27.984375 
z
M 54.390625 6.78125 
Q 54.390625 -7.171875 48.1875 -13.984375 
Q 42 -20.796875 29.203125 -20.796875 
Q 24.46875 -20.796875 20.265625 -20.09375 
Q 16.0625 -19.390625 12.109375 -17.921875 
L 12.109375 -9.1875 
Q 16.0625 -11.328125 19.921875 -12.34375 
Q 23.78125 -13.375 27.78125 -13.375 
Q 36.625 -13.375 41.015625 -8.765625 
Q 45.40625 -4.15625 45.40625 5.171875 
L 45.40625 9.625 
Q 42.625 4.78125 38.28125 2.390625 
Q 33.9375 0 27.875 0 
Q 17.828125 0 11.671875 7.65625 
Q 5.515625 15.328125 5.515625 27.984375 
Q 5.515625 40.671875 11.671875 48.328125 
Q 17.828125 56 27.875 56 
Q 33.9375 56 38.28125 53.609375 
Q 42.625 51.21875 45.40625 46.390625 
L 45.40625 54.6875 
L 54.390625 54.6875 
z
" id="DejaVuSans-103"/>
      <path d="M 9.8125 72.90625 
L 24.515625 72.90625 
L 43.109375 23.296875 
L 61.8125 72.90625 
L 76.515625 72.90625 
L 76.515625 0 
L 66.890625 0 
L 66.890625 64.015625 
L 48.09375 14.015625 
L 38.1875 14.015625 
L 19.390625 64.015625 
L 19.390625 0 
L 9.8125 0 
z
" id="DejaVuSans-77"/>
     </defs>
     <g transform="translate(272.660156 658.276562)scale(0.1 -0.1)">
      <use xlink:href="#DejaVuSans-65"/>
      <use x="68.408203" xlink:href="#DejaVuSans-103"/>
      <use x="131.884766" xlink:href="#DejaVuSans-101"/>
      <use x="193.408203" xlink:href="#DejaVuSans-32"/>
      <use x="225.195312" xlink:href="#DejaVuSans-40"/>
      <use x="264.208984" xlink:href="#DejaVuSans-77"/>
      <use x="350.488281" xlink:href="#DejaVuSans-97"/>
      <use x="411.767578" xlink:href="#DejaVuSans-41"/>
     </g>
    </g>
   </g>
   <g id="matplotlib.axis_6">
    <g id="ytick_13">
     <g id="line2d_46">
      <g>
       <use style="stroke:#000000;stroke-width:0.8;" x="72" xlink:href="#ma6fe0ff373" y="612.952367"/>
      </g>
     </g>
     <g id="text_29">
      <!-- 140 -->
      <g transform="translate(45.9125 616.751585)scale(0.1 -0.1)">
       <use xlink:href="#DejaVuSans-49"/>
       <use x="63.623047" xlink:href="#DejaVuSans-52"/>
       <use x="127.246094" xlink:href="#DejaVuSans-48"/>
      </g>
     </g>
    </g>
    <g id="ytick_14">
     <g id="line2d_47">
      <g>
       <use style="stroke:#000000;stroke-width:0.8;" x="72" xlink:href="#ma6fe0ff373" y="581.656173"/>
      </g>
     </g>
     <g id="text_30">
      <!-- 160 -->
      <g transform="translate(45.9125 585.455391)scale(0.1 -0.1)">
       <use xlink:href="#DejaVuSans-49"/>
       <use x="63.623047" xlink:href="#DejaVuSans-54"/>
       <use x="127.246094" xlink:href="#DejaVuSans-48"/>
      </g>
     </g>
    </g>
    <g id="ytick_15">
     <g id="line2d_48">
      <g>
       <use style="stroke:#000000;stroke-width:0.8;" x="72" xlink:href="#ma6fe0ff373" y="550.359979"/>
      </g>
     </g>
     <g id="text_31">
      <!-- 180 -->
      <g transform="translate(45.9125 554.159197)scale(0.1 -0.1)">
       <use xlink:href="#DejaVuSans-49"/>
       <use x="63.623047" xlink:href="#DejaVuSans-56"/>
       <use x="127.246094" xlink:href="#DejaVuSans-48"/>
      </g>
     </g>
    </g>
    <g id="ytick_16">
     <g id="line2d_49">
      <g>
       <use style="stroke:#000000;stroke-width:0.8;" x="72" xlink:href="#ma6fe0ff373" y="519.063785"/>
      </g>
     </g>
     <g id="text_32">
      <!-- 200 -->
      <g transform="translate(45.9125 522.863003)scale(0.1 -0.1)">
       <use xlink:href="#DejaVuSans-50"/>
       <use x="63.623047" xlink:href="#DejaVuSans-48"/>
       <use x="127.246094" xlink:href="#DejaVuSans-48"/>
      </g>
     </g>
    </g>
    <g id="ytick_17">
     <g id="line2d_50">
      <g>
       <use style="stroke:#000000;stroke-width:0.8;" x="72" xlink:href="#ma6fe0ff373" y="487.767591"/>
      </g>
     </g>
     <g id="text_33">
      <!-- 220 -->
      <g transform="translate(45.9125 491.566809)scale(0.1 -0.1)">
       <use xlink:href="#DejaVuSans-50"/>
       <use x="63.623047" xlink:href="#DejaVuSans-50"/>
       <use x="127.246094" xlink:href="#DejaVuSans-48"/>
      </g>
     </g>
    </g>
    <g id="text_34">
     <!-- meter -->
     <g transform="translate(39.832812 565.097886)rotate(-90)scale(0.1 -0.1)">
      <use xlink:href="#DejaVuSans-109"/>
      <use x="97.412109" xlink:href="#DejaVuSans-101"/>
      <use x="158.935547" xlink:href="#DejaVuSans-116"/>
      <use x="198.144531" xlink:href="#DejaVuSans-101"/>
      <use x="259.667969" xlink:href="#DejaVuSans-114"/>
     </g>
    </g>
   </g>
   <g id="line2d_51">
    <path clip-path="url(#p00997354cd)" d="M 498.109091 588.254277 
L 483.548189 577.726769 
L 479.59548 575.148617 
L 471.020456 572.331659 
L 462.270929 568.819263 
L 453.732429 563.188935 
L 445.14523 558.718103 
L 435.734213 554.866936 
L 427.47573 549.825906 
L 423.100966 546.676583 
L 416.210105 544.805449 
L 408.365561 542.12284 
L 400.943072 542.011742 
L 393.658563 541.135392 
L 387.210047 539.853774 
L 380.862988 540.581459 
L 372.758717 540.470775 
L 363.9402 539.271529 
L 361.829924 539.122175 
L 354.017846 541.793763 
L 346.63594 543.75936 
L 340.986894 544.591474 
L 333.722676 547.712219 
L 328.402347 549.059053 
L 317.899667 549.169423 
L 310.367606 550.551175 
L 303.805461 549.645124 
L 297.320421 549.130507 
L 288.603359 550.536694 
L 281.923525 548.885173 
L 276.16085 544.945452 
L 264.830293 529.606914 
L 258.690202 514.502983 
L 252.627218 504.312445 
L 245.825637 495.296806 
L 242.408614 491.406207 
L 236.240116 485.816644 
L 232.802801 483.04178 
L 227.498705 479.669007 
L 218.850633 478.561404 
L 211.448435 477.444131 
L 200.734728 479.570323 
L 192.894242 481.471004 
L 182.78521 485.862444 
L 174.49832 485.973438 
L 167.530352 491.451141 
L 162.676718 493.832971 
L 156.337775 499.152694 
L 151.739809 501.5132 
L 146.033948 507.063039 
L 142.162404 509.963608 
L 138.173172 517.735196 
L 133.24649 525.949085 
L 129.078695 534.024729 
L 126.39621 540.039378 
L 122.553074 551.546309 
L 119.278088 562.182579 
L 114.2743 573.753047 
L 112.350702 578.808839 
L 108.970203 589.423568 
L 106.356708 596.863759 
L 103.463195 604.452093 
L 96.726546 619.231506 
L 92.355841 622.656032 
L 92.290909 622.73262 
L 92.290909 622.73262 
" style="fill:none;stroke:#1f77b4;stroke-linecap:square;stroke-width:1.5;"/>
   </g>
   <g id="patch_15">
    <path d="M 72 630 
L 72 470.117647 
" style="fill:none;stroke:#000000;stroke-linecap:square;stroke-linejoin:miter;stroke-width:0.8;"/>
   </g>
   <g id="patch_16">
    <path d="M 518.4 630 
L 518.4 470.117647 
" style="fill:none;stroke:#000000;stroke-linecap:square;stroke-linejoin:miter;stroke-width:0.8;"/>
   </g>
   <g id="patch_17">
    <path d="M 72 630 
L 518.4 630 
" style="fill:none;stroke:#000000;stroke-linecap:square;stroke-linejoin:miter;stroke-width:0.8;"/>
   </g>
   <g id="patch_18">
    <path d="M 72 470.117647 
L 518.4 470.117647 
" style="fill:none;stroke:#000000;stroke-linecap:square;stroke-linejoin:miter;stroke-width:0.8;"/>
   </g>
   <g id="legend_3">
    <g id="patch_19">
     <path d="M 425.982812 492.795772 
L 511.4 492.795772 
Q 513.4 492.795772 513.4 490.795772 
L 513.4 477.117647 
Q 513.4 475.117647 511.4 475.117647 
L 425.982812 475.117647 
Q 423.982812 475.117647 423.982812 477.117647 
L 423.982812 490.795772 
Q 423.982812 492.795772 425.982812 492.795772 
z
" style="fill:#ffffff;opacity:0.8;stroke:#cccccc;stroke-linejoin:miter;"/>
    </g>
    <g id="line2d_52">
     <path d="M 427.982812 483.216085 
L 447.982812 483.216085 
" style="fill:none;stroke:#1f77b4;stroke-linecap:square;stroke-width:1.5;"/>
    </g>
    <g id="line2d_53"/>
    <g id="text_35">
     <!-- Sea Levels -->
     <defs>
      <path d="M 9.8125 72.90625 
L 19.671875 72.90625 
L 19.671875 8.296875 
L 55.171875 8.296875 
L 55.171875 0 
L 9.8125 0 
z
" id="DejaVuSans-76"/>
     </defs>
     <g transform="translate(455.982812 486.716085)scale(0.1 -0.1)">
      <use xlink:href="#DejaVuSans-83"/>
      <use x="63.476562" xlink:href="#DejaVuSans-101"/>
      <use x="125" xlink:href="#DejaVuSans-97"/>
      <use x="186.279297" xlink:href="#DejaVuSans-32"/>
      <use x="218.066406" xlink:href="#DejaVuSans-76"/>
      <use x="272.029297" xlink:href="#DejaVuSans-101"/>
      <use x="333.552734" xlink:href="#DejaVuSans-118"/>
      <use x="392.732422" xlink:href="#DejaVuSans-101"/>
      <use x="454.255859" xlink:href="#DejaVuSans-108"/>
      <use x="482.039062" xlink:href="#DejaVuSans-115"/>
     </g>
    </g>
   </g>
  </g>
 </g>
 <defs>
  <clipPath id="p13a281913c">
   <rect height="159.882353" width="446.4" x="72" y="86.4"/>
  </clipPath>
  <clipPath id="p0a39c030ca">
   <rect height="159.882353" width="446.4" x="72" y="278.258824"/>
  </clipPath>
  <clipPath id="p00997354cd">
   <rect height="159.882353" width="446.4" x="72" y="470.117647"/>
  </clipPath>
 </defs>
</svg>
