<?xml version="1.0" encoding="utf-8" standalone="no"?>
<!DOCTYPE svg PUBLIC "-//W3C//DTD SVG 1.1//EN"
  "http://www.w3.org/Graphics/SVG/1.1/DTD/svg11.dtd">
<!-- Created with matplotlib (https://matplotlib.org/) -->
<svg height="720pt" version="1.1" viewBox="0 0 576 720" width="576pt" xmlns="http://www.w3.org/2000/svg" xmlns:xlink="http://www.w3.org/1999/xlink">
 <defs>
  <style type="text/css">
*{stroke-linecap:butt;stroke-linejoin:round;}
  </style>
 </defs>
 <g id="figure_1">
  <g id="patch_1">
   <path d="M 0 720 
L 576 720 
L 576 0 
L 0 0 
z
" style="fill:#ffffff;"/>
  </g>
  <g id="axes_1">
   <g id="patch_2">
    <path d="M 72 246.282353 
L 518.4 246.282353 
L 518.4 86.4 
L 72 86.4 
z
" style="fill:#ffffff;"/>
   </g>
   <g id="PathCollection_1">
    <defs>
     <path d="M 0 3 
C 0.795609 3 1.55874 2.683901 2.12132 2.12132 
C 2.683901 1.55874 3 0.795609 3 0 
C 3 -0.795609 2.683901 -1.55874 2.12132 -2.12132 
C 1.55874 -2.683901 0.795609 -3 0 -3 
C -0.795609 -3 -1.55874 -2.683901 -2.12132 -2.12132 
C -2.683901 -1.55874 -3 -0.795609 -3 0 
C -3 0.795609 -2.683901 1.55874 -2.12132 2.12132 
C -1.55874 2.683901 -0.795609 3 0 3 
z
" id="C0_0_5046acd104"/>
    </defs>
    <g clip-path="url(#p397acbc1b3)">
     <use style="fill:none;stroke:#0000ff;stroke-opacity:0.4;" x="344.082645" xlink:href="#C0_0_5046acd104" y="118.216588"/>
    </g>
    <g clip-path="url(#p397acbc1b3)">
     <use style="fill:none;stroke:#0000ff;stroke-opacity:0.4;" x="338.54876" xlink:href="#C0_0_5046acd104" y="127.649647"/>
    </g>
    <g clip-path="url(#p397acbc1b3)">
     <use style="fill:none;stroke:#0000ff;stroke-opacity:0.4;" x="336.611901" xlink:href="#C0_0_5046acd104" y="121.893882"/>
    </g>
    <g clip-path="url(#p397acbc1b3)">
     <use style="fill:none;stroke:#0000ff;stroke-opacity:0.4;" x="335.136198" xlink:href="#C0_0_5046acd104" y="116.298"/>
    </g>
    <g clip-path="url(#p397acbc1b3)">
     <use style="fill:none;stroke:#0000ff;stroke-opacity:0.4;" x="333.568264" xlink:href="#C0_0_5046acd104" y="131.007176"/>
    </g>
    <g clip-path="url(#p397acbc1b3)">
     <use style="fill:none;stroke:#0000ff;stroke-opacity:0.4;" x="332.369256" xlink:href="#C0_0_5046acd104" y="130.847294"/>
    </g>
    <g clip-path="url(#p397acbc1b3)">
     <use style="fill:none;stroke:#0000ff;stroke-opacity:0.4;" x="323.238347" xlink:href="#C0_0_5046acd104" y="135.483882"/>
    </g>
    <g clip-path="url(#p397acbc1b3)">
     <use style="fill:none;stroke:#0000ff;stroke-opacity:0.4;" x="311.709421" xlink:href="#C0_0_5046acd104" y="130.687412"/>
    </g>
    <g clip-path="url(#p397acbc1b3)">
     <use style="fill:none;stroke:#0000ff;stroke-opacity:0.4;" x="298.059174" xlink:href="#C0_0_5046acd104" y="127.969412"/>
    </g>
    <g clip-path="url(#p397acbc1b3)">
     <use style="fill:none;stroke:#0000ff;stroke-opacity:0.4;" x="285.700165" xlink:href="#C0_0_5046acd104" y="134.364706"/>
    </g>
    <g clip-path="url(#p397acbc1b3)">
     <use style="fill:none;stroke:#0000ff;stroke-opacity:0.4;" x="285.054545" xlink:href="#C0_0_5046acd104" y="133.085647"/>
    </g>
    <g clip-path="url(#p397acbc1b3)">
     <use style="fill:none;stroke:#0000ff;stroke-opacity:0.4;" x="281.918678" xlink:href="#C0_0_5046acd104" y="136.762941"/>
    </g>
    <g clip-path="url(#p397acbc1b3)">
     <use style="fill:none;stroke:#0000ff;stroke-opacity:0.4;" x="281.918678" xlink:href="#C0_0_5046acd104" y="131.326941"/>
    </g>
    <g clip-path="url(#p397acbc1b3)">
     <use style="fill:none;stroke:#0000ff;stroke-opacity:0.4;" x="277.49157" xlink:href="#C0_0_5046acd104" y="142.518706"/>
    </g>
    <g clip-path="url(#p397acbc1b3)">
     <use style="fill:none;stroke:#0000ff;stroke-opacity:0.4;" x="271.865455" xlink:href="#C0_0_5046acd104" y="140.919882"/>
    </g>
    <g clip-path="url(#p397acbc1b3)">
     <use style="fill:none;stroke:#0000ff;stroke-opacity:0.4;" x="258.399669" xlink:href="#C0_0_5046acd104" y="140.600118"/>
    </g>
    <g clip-path="url(#p397acbc1b3)">
     <use style="fill:none;stroke:#0000ff;stroke-opacity:0.4;" x="258.399669" xlink:href="#C0_0_5046acd104" y="140.280353"/>
    </g>
    <g clip-path="url(#p397acbc1b3)">
     <use style="fill:none;stroke:#0000ff;stroke-opacity:0.4;" x="256.278347" xlink:href="#C0_0_5046acd104" y="136.443176"/>
    </g>
    <g clip-path="url(#p397acbc1b3)">
     <use style="fill:none;stroke:#0000ff;stroke-opacity:0.4;" x="256.278347" xlink:href="#C0_0_5046acd104" y="143.158235"/>
    </g>
    <g clip-path="url(#p397acbc1b3)">
     <use style="fill:none;stroke:#0000ff;stroke-opacity:0.4;" x="256.278347" xlink:href="#C0_0_5046acd104" y="143.797765"/>
    </g>
    <g clip-path="url(#p397acbc1b3)">
     <use style="fill:none;stroke:#0000ff;stroke-opacity:0.4;" x="254.987107" xlink:href="#C0_0_5046acd104" y="141.719294"/>
    </g>
    <g clip-path="url(#p397acbc1b3)">
     <use style="fill:none;stroke:#0000ff;stroke-opacity:0.4;" x="254.987107" xlink:href="#C0_0_5046acd104" y="142.518706"/>
    </g>
    <g clip-path="url(#p397acbc1b3)">
     <use style="fill:none;stroke:#0000ff;stroke-opacity:0.4;" x="254.987107" xlink:href="#C0_0_5046acd104" y="145.556471"/>
    </g>
    <g clip-path="url(#p397acbc1b3)">
     <use style="fill:none;stroke:#0000ff;stroke-opacity:0.4;" x="252.312397" xlink:href="#C0_0_5046acd104" y="147.475059"/>
    </g>
    <g clip-path="url(#p397acbc1b3)">
     <use style="fill:none;stroke:#0000ff;stroke-opacity:0.4;" x="251.297851" xlink:href="#C0_0_5046acd104" y="145.076824"/>
    </g>
    <g clip-path="url(#p397acbc1b3)">
     <use style="fill:none;stroke:#0000ff;stroke-opacity:0.4;" x="250.467769" xlink:href="#C0_0_5046acd104" y="148.114588"/>
    </g>
    <g clip-path="url(#p397acbc1b3)">
     <use style="fill:none;stroke:#0000ff;stroke-opacity:0.4;" x="250.467769" xlink:href="#C0_0_5046acd104" y="149.233765"/>
    </g>
    <g clip-path="url(#p397acbc1b3)">
     <use style="fill:none;stroke:#0000ff;stroke-opacity:0.4;" x="250.467769" xlink:href="#C0_0_5046acd104" y="147.634941"/>
    </g>
    <g clip-path="url(#p397acbc1b3)">
     <use style="fill:none;stroke:#0000ff;stroke-opacity:0.4;" x="249.637686" xlink:href="#C0_0_5046acd104" y="147.634941"/>
    </g>
    <g clip-path="url(#p397acbc1b3)">
     <use style="fill:none;stroke:#0000ff;stroke-opacity:0.4;" x="248.899835" xlink:href="#C0_0_5046acd104" y="148.114588"/>
    </g>
    <g clip-path="url(#p397acbc1b3)">
     <use style="fill:none;stroke:#0000ff;stroke-opacity:0.4;" x="248.899835" xlink:href="#C0_0_5046acd104" y="148.914"/>
    </g>
    <g clip-path="url(#p397acbc1b3)">
     <use style="fill:none;stroke:#0000ff;stroke-opacity:0.4;" x="248.069752" xlink:href="#C0_0_5046acd104" y="147.475059"/>
    </g>
    <g clip-path="url(#p397acbc1b3)">
     <use style="fill:none;stroke:#0000ff;stroke-opacity:0.4;" x="248.069752" xlink:href="#C0_0_5046acd104" y="149.073882"/>
    </g>
    <g clip-path="url(#p397acbc1b3)">
     <use style="fill:none;stroke:#0000ff;stroke-opacity:0.4;" x="248.069752" xlink:href="#C0_0_5046acd104" y="147.475059"/>
    </g>
    <g clip-path="url(#p397acbc1b3)">
     <use style="fill:none;stroke:#0000ff;stroke-opacity:0.4;" x="242.074711" xlink:href="#C0_0_5046acd104" y="164.902235"/>
    </g>
    <g clip-path="url(#p397acbc1b3)">
     <use style="fill:none;stroke:#0000ff;stroke-opacity:0.4;" x="242.074711" xlink:href="#C0_0_5046acd104" y="152.591294"/>
    </g>
    <g clip-path="url(#p397acbc1b3)">
     <use style="fill:none;stroke:#0000ff;stroke-opacity:0.4;" x="237.186446" xlink:href="#C0_0_5046acd104" y="174.814941"/>
    </g>
    <g clip-path="url(#p397acbc1b3)">
     <use style="fill:none;stroke:#0000ff;stroke-opacity:0.4;" x="237.186446" xlink:href="#C0_0_5046acd104" y="154.190118"/>
    </g>
    <g clip-path="url(#p397acbc1b3)">
     <use style="fill:none;stroke:#0000ff;stroke-opacity:0.4;" x="237.186446" xlink:href="#C0_0_5046acd104" y="162.823765"/>
    </g>
    <g clip-path="url(#p397acbc1b3)">
     <use style="fill:none;stroke:#0000ff;stroke-opacity:0.4;" x="237.186446" xlink:href="#C0_0_5046acd104" y="164.422588"/>
    </g>
    <g clip-path="url(#p397acbc1b3)">
     <use style="fill:none;stroke:#0000ff;stroke-opacity:0.4;" x="234.696198" xlink:href="#C0_0_5046acd104" y="156.268588"/>
    </g>
    <g clip-path="url(#p397acbc1b3)">
     <use style="fill:none;stroke:#0000ff;stroke-opacity:0.4;" x="234.696198" xlink:href="#C0_0_5046acd104" y="162.024353"/>
    </g>
    <g clip-path="url(#p397acbc1b3)">
     <use style="fill:none;stroke:#0000ff;stroke-opacity:0.4;" x="234.696198" xlink:href="#C0_0_5046acd104" y="164.742353"/>
    </g>
    <g clip-path="url(#p397acbc1b3)">
     <use style="fill:none;stroke:#0000ff;stroke-opacity:0.4;" x="227.502149" xlink:href="#C0_0_5046acd104" y="165.062118"/>
    </g>
    <g clip-path="url(#p397acbc1b3)">
     <use style="fill:none;stroke:#0000ff;stroke-opacity:0.4;" x="227.502149" xlink:href="#C0_0_5046acd104" y="160.745294"/>
    </g>
    <g clip-path="url(#p397acbc1b3)">
     <use style="fill:none;stroke:#0000ff;stroke-opacity:0.4;" x="227.502149" xlink:href="#C0_0_5046acd104" y="162.663882"/>
    </g>
    <g clip-path="url(#p397acbc1b3)">
     <use style="fill:none;stroke:#0000ff;stroke-opacity:0.4;" x="227.502149" xlink:href="#C0_0_5046acd104" y="169.219059"/>
    </g>
    <g clip-path="url(#p397acbc1b3)">
     <use style="fill:none;stroke:#0000ff;stroke-opacity:0.4;" x="227.225455" xlink:href="#C0_0_5046acd104" y="165.701647"/>
    </g>
    <g clip-path="url(#p397acbc1b3)">
     <use style="fill:none;stroke:#0000ff;stroke-opacity:0.4;" x="227.225455" xlink:href="#C0_0_5046acd104" y="170.338235"/>
    </g>
    <g clip-path="url(#p397acbc1b3)">
     <use style="fill:none;stroke:#0000ff;stroke-opacity:0.4;" x="225.473058" xlink:href="#C0_0_5046acd104" y="166.980706"/>
    </g>
    <g clip-path="url(#p397acbc1b3)">
     <use style="fill:none;stroke:#0000ff;stroke-opacity:0.4;" x="225.473058" xlink:href="#C0_0_5046acd104" y="168.899294"/>
    </g>
    <g clip-path="url(#p397acbc1b3)">
     <use style="fill:none;stroke:#0000ff;stroke-opacity:0.4;" x="222.798347" xlink:href="#C0_0_5046acd104" y="172.576588"/>
    </g>
    <g clip-path="url(#p397acbc1b3)">
     <use style="fill:none;stroke:#0000ff;stroke-opacity:0.4;" x="222.798347" xlink:href="#C0_0_5046acd104" y="173.216118"/>
    </g>
    <g clip-path="url(#p397acbc1b3)">
     <use style="fill:none;stroke:#0000ff;stroke-opacity:0.4;" x="220.861488" xlink:href="#C0_0_5046acd104" y="186.006706"/>
    </g>
    <g clip-path="url(#p397acbc1b3)">
     <use style="fill:none;stroke:#0000ff;stroke-opacity:0.4;" x="220.861488" xlink:href="#C0_0_5046acd104" y="186.646235"/>
    </g>
    <g clip-path="url(#p397acbc1b3)">
     <use style="fill:none;stroke:#0000ff;stroke-opacity:0.4;" x="220.861488" xlink:href="#C0_0_5046acd104" y="189.524118"/>
    </g>
    <g clip-path="url(#p397acbc1b3)">
     <use style="fill:none;stroke:#0000ff;stroke-opacity:0.4;" x="219.662479" xlink:href="#C0_0_5046acd104" y="190.803176"/>
    </g>
    <g clip-path="url(#p397acbc1b3)">
     <use style="fill:none;stroke:#0000ff;stroke-opacity:0.4;" x="219.201322" xlink:href="#C0_0_5046acd104" y="190.483412"/>
    </g>
    <g clip-path="url(#p397acbc1b3)">
     <use style="fill:none;stroke:#0000ff;stroke-opacity:0.4;" x="219.201322" xlink:href="#C0_0_5046acd104" y="190.643294"/>
    </g>
    <g clip-path="url(#p397acbc1b3)">
     <use style="fill:none;stroke:#0000ff;stroke-opacity:0.4;" x="217.448926" xlink:href="#C0_0_5046acd104" y="192.402"/>
    </g>
    <g clip-path="url(#p397acbc1b3)">
     <use style="fill:none;stroke:#0000ff;stroke-opacity:0.4;" x="215.604298" xlink:href="#C0_0_5046acd104" y="200.875765"/>
    </g>
    <g clip-path="url(#p397acbc1b3)">
     <use style="fill:none;stroke:#0000ff;stroke-opacity:0.4;" x="203.706446" xlink:href="#C0_0_5046acd104" y="222.779647"/>
    </g>
    <g clip-path="url(#p397acbc1b3)">
     <use style="fill:none;stroke:#0000ff;stroke-opacity:0.4;" x="198.357025" xlink:href="#C0_0_5046acd104" y="218.622706"/>
    </g>
   </g>
   <g id="matplotlib.axis_1">
    <g id="xtick_1">
     <g id="line2d_1">
      <defs>
       <path d="M 0 0 
L 0 3.5 
" id="m4760505056" style="stroke:#000000;stroke-width:0.8;"/>
      </defs>
      <g>
       <use style="stroke:#000000;stroke-width:0.8;" x="156.852893" xlink:href="#m4760505056" y="246.282353"/>
      </g>
     </g>
    </g>
    <g id="xtick_2">
     <g id="line2d_2">
      <g>
       <use style="stroke:#000000;stroke-width:0.8;" x="249.084298" xlink:href="#m4760505056" y="246.282353"/>
      </g>
     </g>
    </g>
    <g id="xtick_3">
     <g id="line2d_3">
      <g>
       <use style="stroke:#000000;stroke-width:0.8;" x="341.315702" xlink:href="#m4760505056" y="246.282353"/>
      </g>
     </g>
    </g>
    <g id="xtick_4">
     <g id="line2d_4">
      <g>
       <use style="stroke:#000000;stroke-width:0.8;" x="433.547107" xlink:href="#m4760505056" y="246.282353"/>
      </g>
     </g>
    </g>
   </g>
   <g id="matplotlib.axis_2">
    <g id="ytick_1">
     <g id="line2d_5">
      <defs>
       <path d="M 0 0 
L -3.5 0 
" id="m793422cbee" style="stroke:#000000;stroke-width:0.8;"/>
      </defs>
      <g>
       <use style="stroke:#000000;stroke-width:0.8;" x="72" xlink:href="#m793422cbee" y="214.305882"/>
      </g>
     </g>
     <g id="text_1">
      <!-- 0.7082 -->
      <defs>
       <path d="M 31.78125 66.40625 
Q 24.171875 66.40625 20.328125 58.90625 
Q 16.5 51.421875 16.5 36.375 
Q 16.5 21.390625 20.328125 13.890625 
Q 24.171875 6.390625 31.78125 6.390625 
Q 39.453125 6.390625 43.28125 13.890625 
Q 47.125 21.390625 47.125 36.375 
Q 47.125 51.421875 43.28125 58.90625 
Q 39.453125 66.40625 31.78125 66.40625 
z
M 31.78125 74.21875 
Q 44.046875 74.21875 50.515625 64.515625 
Q 56.984375 54.828125 56.984375 36.375 
Q 56.984375 17.96875 50.515625 8.265625 
Q 44.046875 -1.421875 31.78125 -1.421875 
Q 19.53125 -1.421875 13.0625 8.265625 
Q 6.59375 17.96875 6.59375 36.375 
Q 6.59375 54.828125 13.0625 64.515625 
Q 19.53125 74.21875 31.78125 74.21875 
z
" id="DejaVuSans-48"/>
       <path d="M 10.6875 12.40625 
L 21 12.40625 
L 21 0 
L 10.6875 0 
z
" id="DejaVuSans-46"/>
       <path d="M 8.203125 72.90625 
L 55.078125 72.90625 
L 55.078125 68.703125 
L 28.609375 0 
L 18.3125 0 
L 43.21875 64.59375 
L 8.203125 64.59375 
z
" id="DejaVuSans-55"/>
       <path d="M 31.78125 34.625 
Q 24.75 34.625 20.71875 30.859375 
Q 16.703125 27.09375 16.703125 20.515625 
Q 16.703125 13.921875 20.71875 10.15625 
Q 24.75 6.390625 31.78125 6.390625 
Q 38.8125 6.390625 42.859375 10.171875 
Q 46.921875 13.96875 46.921875 20.515625 
Q 46.921875 27.09375 42.890625 30.859375 
Q 38.875 34.625 31.78125 34.625 
z
M 21.921875 38.8125 
Q 15.578125 40.375 12.03125 44.71875 
Q 8.5 49.078125 8.5 55.328125 
Q 8.5 64.0625 14.71875 69.140625 
Q 20.953125 74.21875 31.78125 74.21875 
Q 42.671875 74.21875 48.875 69.140625 
Q 55.078125 64.0625 55.078125 55.328125 
Q 55.078125 49.078125 51.53125 44.71875 
Q 48 40.375 41.703125 38.8125 
Q 48.828125 37.15625 52.796875 32.3125 
Q 56.78125 27.484375 56.78125 20.515625 
Q 56.78125 9.90625 50.3125 4.234375 
Q 43.84375 -1.421875 31.78125 -1.421875 
Q 19.734375 -1.421875 13.25 4.234375 
Q 6.78125 9.90625 6.78125 20.515625 
Q 6.78125 27.484375 10.78125 32.3125 
Q 14.796875 37.15625 21.921875 38.8125 
z
M 18.3125 54.390625 
Q 18.3125 48.734375 21.84375 45.5625 
Q 25.390625 42.390625 31.78125 42.390625 
Q 38.140625 42.390625 41.71875 45.5625 
Q 45.3125 48.734375 45.3125 54.390625 
Q 45.3125 60.0625 41.71875 63.234375 
Q 38.140625 66.40625 31.78125 66.40625 
Q 25.390625 66.40625 21.84375 63.234375 
Q 18.3125 60.0625 18.3125 54.390625 
z
" id="DejaVuSans-56"/>
       <path d="M 19.1875 8.296875 
L 53.609375 8.296875 
L 53.609375 0 
L 7.328125 0 
L 7.328125 8.296875 
Q 12.9375 14.109375 22.625 23.890625 
Q 32.328125 33.6875 34.8125 36.53125 
Q 39.546875 41.84375 41.421875 45.53125 
Q 43.3125 49.21875 43.3125 52.78125 
Q 43.3125 58.59375 39.234375 62.25 
Q 35.15625 65.921875 28.609375 65.921875 
Q 23.96875 65.921875 18.8125 64.3125 
Q 13.671875 62.703125 7.8125 59.421875 
L 7.8125 69.390625 
Q 13.765625 71.78125 18.9375 73 
Q 24.125 74.21875 28.421875 74.21875 
Q 39.75 74.21875 46.484375 68.546875 
Q 53.21875 62.890625 53.21875 53.421875 
Q 53.21875 48.921875 51.53125 44.890625 
Q 49.859375 40.875 45.40625 35.40625 
Q 44.1875 33.984375 37.640625 27.21875 
Q 31.109375 20.453125 19.1875 8.296875 
z
" id="DejaVuSans-50"/>
      </defs>
      <g transform="translate(30.009375 218.105101)scale(0.1 -0.1)">
       <use xlink:href="#DejaVuSans-48"/>
       <use x="63.623047" xlink:href="#DejaVuSans-46"/>
       <use x="95.410156" xlink:href="#DejaVuSans-55"/>
       <use x="159.033203" xlink:href="#DejaVuSans-48"/>
       <use x="222.65625" xlink:href="#DejaVuSans-56"/>
       <use x="286.279297" xlink:href="#DejaVuSans-50"/>
      </g>
     </g>
    </g>
    <g id="ytick_2">
     <g id="line2d_6">
      <g>
       <use style="stroke:#000000;stroke-width:0.8;" x="72" xlink:href="#m793422cbee" y="166.341176"/>
      </g>
     </g>
     <g id="text_2">
      <!-- 0.7085 -->
      <defs>
       <path d="M 10.796875 72.90625 
L 49.515625 72.90625 
L 49.515625 64.59375 
L 19.828125 64.59375 
L 19.828125 46.734375 
Q 21.96875 47.46875 24.109375 47.828125 
Q 26.265625 48.1875 28.421875 48.1875 
Q 40.625 48.1875 47.75 41.5 
Q 54.890625 34.8125 54.890625 23.390625 
Q 54.890625 11.625 47.5625 5.09375 
Q 40.234375 -1.421875 26.90625 -1.421875 
Q 22.3125 -1.421875 17.546875 -0.640625 
Q 12.796875 0.140625 7.71875 1.703125 
L 7.71875 11.625 
Q 12.109375 9.234375 16.796875 8.0625 
Q 21.484375 6.890625 26.703125 6.890625 
Q 35.15625 6.890625 40.078125 11.328125 
Q 45.015625 15.765625 45.015625 23.390625 
Q 45.015625 31 40.078125 35.4375 
Q 35.15625 39.890625 26.703125 39.890625 
Q 22.75 39.890625 18.8125 39.015625 
Q 14.890625 38.140625 10.796875 36.28125 
z
" id="DejaVuSans-53"/>
      </defs>
      <g transform="translate(30.009375 170.140395)scale(0.1 -0.1)">
       <use xlink:href="#DejaVuSans-48"/>
       <use x="63.623047" xlink:href="#DejaVuSans-46"/>
       <use x="95.410156" xlink:href="#DejaVuSans-55"/>
       <use x="159.033203" xlink:href="#DejaVuSans-48"/>
       <use x="222.65625" xlink:href="#DejaVuSans-56"/>
       <use x="286.279297" xlink:href="#DejaVuSans-53"/>
      </g>
     </g>
    </g>
    <g id="ytick_3">
     <g id="line2d_7">
      <g>
       <use style="stroke:#000000;stroke-width:0.8;" x="72" xlink:href="#m793422cbee" y="118.376471"/>
      </g>
     </g>
     <g id="text_3">
      <!-- 0.7088 -->
      <g transform="translate(30.009375 122.175689)scale(0.1 -0.1)">
       <use xlink:href="#DejaVuSans-48"/>
       <use x="63.623047" xlink:href="#DejaVuSans-46"/>
       <use x="95.410156" xlink:href="#DejaVuSans-55"/>
       <use x="159.033203" xlink:href="#DejaVuSans-48"/>
       <use x="222.65625" xlink:href="#DejaVuSans-56"/>
       <use x="286.279297" xlink:href="#DejaVuSans-56"/>
      </g>
     </g>
    </g>
    <g id="text_4">
     <!-- $^{87}Sr/^{86}Sr$ -->
     <defs>
      <path d="M 60.296875 70.515625 
L 58.40625 60.890625 
Q 53.46875 63.53125 48.609375 64.875 
Q 43.75 66.21875 39.203125 66.21875 
Q 30.375 66.21875 25.140625 62.359375 
Q 19.921875 58.5 19.921875 52.09375 
Q 19.921875 48.578125 21.84375 46.703125 
Q 23.78125 44.828125 31.78125 42.671875 
L 37.703125 41.21875 
Q 47.703125 38.625 51.609375 34.640625 
Q 55.515625 30.671875 55.515625 23.484375 
Q 55.515625 12.453125 46.84375 5.515625 
Q 38.1875 -1.421875 24.03125 -1.421875 
Q 18.21875 -1.421875 12.359375 -0.265625 
Q 6.5 0.875 0.59375 3.21875 
L 2.59375 13.375 
Q 8.015625 10.015625 13.453125 8.296875 
Q 18.890625 6.59375 24.3125 6.59375 
Q 33.546875 6.59375 39.109375 10.6875 
Q 44.671875 14.796875 44.671875 21.390625 
Q 44.671875 25.78125 42.453125 28.046875 
Q 40.234375 30.328125 32.90625 32.171875 
L 27 33.6875 
Q 16.890625 36.328125 13.203125 39.765625 
Q 9.515625 43.21875 9.515625 49.421875 
Q 9.515625 60.296875 17.890625 67.25 
Q 26.265625 74.21875 39.703125 74.21875 
Q 44.921875 74.21875 50.046875 73.28125 
Q 55.171875 72.359375 60.296875 70.515625 
z
" id="DejaVuSans-Oblique-83"/>
      <path d="M 44.578125 46.390625 
Q 43.21875 47.125 41.453125 47.515625 
Q 39.703125 47.90625 37.703125 47.90625 
Q 30.515625 47.90625 25.140625 42.453125 
Q 19.78125 37.015625 18.015625 27.875 
L 12.5 0 
L 3.515625 0 
L 14.203125 54.6875 
L 23.1875 54.6875 
L 21.484375 46.1875 
Q 25.046875 50.921875 30 53.453125 
Q 34.96875 56 40.578125 56 
Q 42.046875 56 43.453125 55.828125 
Q 44.875 55.671875 46.296875 55.28125 
z
" id="DejaVuSans-Oblique-114"/>
      <path d="M 25.390625 72.90625 
L 33.6875 72.90625 
L 8.296875 -9.28125 
L 0 -9.28125 
z
" id="DejaVuSans-47"/>
      <path d="M 33.015625 40.375 
Q 26.375 40.375 22.484375 35.828125 
Q 18.609375 31.296875 18.609375 23.390625 
Q 18.609375 15.53125 22.484375 10.953125 
Q 26.375 6.390625 33.015625 6.390625 
Q 39.65625 6.390625 43.53125 10.953125 
Q 47.40625 15.53125 47.40625 23.390625 
Q 47.40625 31.296875 43.53125 35.828125 
Q 39.65625 40.375 33.015625 40.375 
z
M 52.59375 71.296875 
L 52.59375 62.3125 
Q 48.875 64.0625 45.09375 64.984375 
Q 41.3125 65.921875 37.59375 65.921875 
Q 27.828125 65.921875 22.671875 59.328125 
Q 17.53125 52.734375 16.796875 39.40625 
Q 19.671875 43.65625 24.015625 45.921875 
Q 28.375 48.1875 33.59375 48.1875 
Q 44.578125 48.1875 50.953125 41.515625 
Q 57.328125 34.859375 57.328125 23.390625 
Q 57.328125 12.15625 50.6875 5.359375 
Q 44.046875 -1.421875 33.015625 -1.421875 
Q 20.359375 -1.421875 13.671875 8.265625 
Q 6.984375 17.96875 6.984375 36.375 
Q 6.984375 53.65625 15.1875 63.9375 
Q 23.390625 74.21875 37.203125 74.21875 
Q 40.921875 74.21875 44.703125 73.484375 
Q 48.484375 72.75 52.59375 71.296875 
z
" id="DejaVuSans-54"/>
     </defs>
     <g transform="translate(23.51375 192.081176)rotate(-90)scale(0.12 -0.12)">
      <use transform="translate(0.957031 39.046875)scale(0.7)" xlink:href="#DejaVuSans-56"/>
      <use transform="translate(45.493164 39.046875)scale(0.7)" xlink:href="#DejaVuSans-55"/>
      <use transform="translate(92.763672 0.765625)" xlink:href="#DejaVuSans-Oblique-83"/>
      <use transform="translate(156.240234 0.765625)" xlink:href="#DejaVuSans-Oblique-114"/>
      <use transform="translate(197.353516 0.765625)" xlink:href="#DejaVuSans-47"/>
      <use transform="translate(232.001953 39.046875)scale(0.7)" xlink:href="#DejaVuSans-56"/>
      <use transform="translate(276.538086 39.046875)scale(0.7)" xlink:href="#DejaVuSans-54"/>
      <use transform="translate(323.808594 0.765625)" xlink:href="#DejaVuSans-Oblique-83"/>
      <use transform="translate(387.285156 0.765625)" xlink:href="#DejaVuSans-Oblique-114"/>
     </g>
    </g>
   </g>
   <g id="line2d_8">
    <path clip-path="url(#p397acbc1b3)" d="M 498.109091 94.522366 
L 491.611877 94.63335 
L 484.631734 94.977628 
L 477.083441 95.575585 
L 468.861482 96.45333 
L 459.823821 97.645572 
L 449.77972 99.199192 
L 438.461338 101.179869 
L 425.462852 103.686181 
L 410.134946 106.875323 
L 391.284503 111.034033 
L 366.20063 116.810143 
L 323.670459 126.867651 
L 251.783108 144.071274 
L 250.334322 144.866189 
L 248.804372 145.96495 
L 247.181083 147.410958 
L 245.448222 149.25977 
L 243.593615 151.571755 
L 241.601028 154.420447 
L 239.458286 157.881832 
L 237.149158 162.044993 
L 234.446382 167.407359 
L 231.27691 173.496148 
L 228.079031 179.162475 
L 224.848686 184.437793 
L 221.581817 189.350397 
L 218.274365 193.925794 
L 214.918215 198.191988 
L 211.50525 202.173186 
L 208.027354 205.890343 
L 204.476409 209.361629 
L 200.840242 212.606304 
L 197.106677 215.640378 
L 193.263541 218.477144 
L 189.294599 221.130233 
L 185.18362 223.610434 
L 180.910312 225.928334 
L 176.450325 228.093703 
L 171.775253 230.11506 
L 166.856687 231.997953 
L 161.658105 233.748299 
L 156.134864 235.371448 
L 150.234209 236.871579 
L 143.891207 238.252221 
L 137.024695 239.516294 
L 129.537274 240.665323 
L 121.295025 241.701555 
L 112.123442 242.626323 
L 101.783091 243.440671 
L 92.290909 244.021565 
L 92.290909 244.021565 
" style="fill:none;stroke:#1f77b4;stroke-dasharray:5.55,2.4;stroke-dashoffset:0;stroke-width:1.5;"/>
   </g>
   <g id="line2d_9">
    <path clip-path="url(#p397acbc1b3)" d="M 198.338579 219.053589 
L 203.734116 210.99344 
L 215.604298 193.235147 
L 217.40281 190.631942 
L 219.201322 188.070947 
L 219.632965 187.459237 
L 220.819983 185.755371 
L 222.798347 182.87509 
L 225.460145 179.022885 
L 227.186717 176.606583 
L 227.474479 176.211993 
L 234.668529 166.263154 
L 237.186446 162.873488 
L 242.101062 156.679166 
L 248.030224 150.403784 
L 248.853719 149.646741 
L 249.677214 148.899291 
L 250.500708 148.189093 
L 251.324203 147.544128 
L 252.312397 146.850718 
L 254.94758 145.27156 
L 256.265171 144.609328 
L 258.406258 143.679931 
L 271.834711 139.274853 
L 277.506942 137.554998 
L 281.918678 136.597463 
L 285.069918 135.866001 
L 285.700165 135.699404 
L 298.049312 132.682424 
L 311.71133 129.871532 
L 323.2715 127.621987 
L 332.351758 125.759998 
L 333.597552 125.490116 
L 335.092503 125.164756 
L 336.649744 124.827724 
L 338.571256 124.413149 
L 344.082645 123.222665 
" style="fill:none;stroke:#8b0000;stroke-linecap:square;stroke-width:1.5;"/>
   </g>
   <g id="line2d_10">
    <path clip-path="url(#p397acbc1b3)" d="M 249.084298 246.282353 
L 249.084298 86.4 
" style="fill:none;stroke:#808080;stroke-linecap:square;stroke-opacity:0.2;stroke-width:5;"/>
   </g>
   <g id="line2d_11">
    <path clip-path="url(#p397acbc1b3)" d="M 281.365289 246.282353 
L 281.365289 86.4 
" style="fill:none;stroke:#808080;stroke-linecap:square;stroke-opacity:0.2;stroke-width:5;"/>
   </g>
   <g id="patch_3">
    <path d="M 72 246.282353 
L 72 86.4 
" style="fill:none;stroke:#000000;stroke-linecap:square;stroke-linejoin:miter;stroke-width:0.8;"/>
   </g>
   <g id="patch_4">
    <path d="M 518.4 246.282353 
L 518.4 86.4 
" style="fill:none;stroke:#000000;stroke-linecap:square;stroke-linejoin:miter;stroke-width:0.8;"/>
   </g>
   <g id="patch_5">
    <path d="M 72 246.282353 
L 518.4 246.282353 
" style="fill:none;stroke:#000000;stroke-linecap:square;stroke-linejoin:miter;stroke-width:0.8;"/>
   </g>
   <g id="patch_6">
    <path d="M 72 86.4 
L 518.4 86.4 
" style="fill:none;stroke:#000000;stroke-linecap:square;stroke-linejoin:miter;stroke-width:0.8;"/>
   </g>
   <g id="legend_1">
    <g id="patch_7">
     <path d="M 414.621875 241.282353 
L 511.4 241.282353 
Q 513.4 241.282353 513.4 239.282353 
L 513.4 196.247978 
Q 513.4 194.247978 511.4 194.247978 
L 414.621875 194.247978 
Q 412.621875 194.247978 412.621875 196.247978 
L 412.621875 239.282353 
Q 412.621875 241.282353 414.621875 241.282353 
z
" style="fill:#ffffff;opacity:0.8;stroke:#cccccc;stroke-linejoin:miter;"/>
    </g>
    <g id="line2d_12">
     <path d="M 416.621875 202.346415 
L 436.621875 202.346415 
" style="fill:none;stroke:#1f77b4;stroke-dasharray:5.55,2.4;stroke-dashoffset:0;stroke-width:1.5;"/>
    </g>
    <g id="line2d_13"/>
    <g id="text_5">
     <!-- Model -->
     <defs>
      <path d="M 9.8125 72.90625 
L 24.515625 72.90625 
L 43.109375 23.296875 
L 61.8125 72.90625 
L 76.515625 72.90625 
L 76.515625 0 
L 66.890625 0 
L 66.890625 64.015625 
L 48.09375 14.015625 
L 38.1875 14.015625 
L 19.390625 64.015625 
L 19.390625 0 
L 9.8125 0 
z
" id="DejaVuSans-77"/>
      <path d="M 30.609375 48.390625 
Q 23.390625 48.390625 19.1875 42.75 
Q 14.984375 37.109375 14.984375 27.296875 
Q 14.984375 17.484375 19.15625 11.84375 
Q 23.34375 6.203125 30.609375 6.203125 
Q 37.796875 6.203125 41.984375 11.859375 
Q 46.1875 17.53125 46.1875 27.296875 
Q 46.1875 37.015625 41.984375 42.703125 
Q 37.796875 48.390625 30.609375 48.390625 
z
M 30.609375 56 
Q 42.328125 56 49.015625 48.375 
Q 55.71875 40.765625 55.71875 27.296875 
Q 55.71875 13.875 49.015625 6.21875 
Q 42.328125 -1.421875 30.609375 -1.421875 
Q 18.84375 -1.421875 12.171875 6.21875 
Q 5.515625 13.875 5.515625 27.296875 
Q 5.515625 40.765625 12.171875 48.375 
Q 18.84375 56 30.609375 56 
z
" id="DejaVuSans-111"/>
      <path d="M 45.40625 46.390625 
L 45.40625 75.984375 
L 54.390625 75.984375 
L 54.390625 0 
L 45.40625 0 
L 45.40625 8.203125 
Q 42.578125 3.328125 38.25 0.953125 
Q 33.9375 -1.421875 27.875 -1.421875 
Q 17.96875 -1.421875 11.734375 6.484375 
Q 5.515625 14.40625 5.515625 27.296875 
Q 5.515625 40.1875 11.734375 48.09375 
Q 17.96875 56 27.875 56 
Q 33.9375 56 38.25 53.625 
Q 42.578125 51.265625 45.40625 46.390625 
z
M 14.796875 27.296875 
Q 14.796875 17.390625 18.875 11.75 
Q 22.953125 6.109375 30.078125 6.109375 
Q 37.203125 6.109375 41.296875 11.75 
Q 45.40625 17.390625 45.40625 27.296875 
Q 45.40625 37.203125 41.296875 42.84375 
Q 37.203125 48.484375 30.078125 48.484375 
Q 22.953125 48.484375 18.875 42.84375 
Q 14.796875 37.203125 14.796875 27.296875 
z
" id="DejaVuSans-100"/>
      <path d="M 56.203125 29.59375 
L 56.203125 25.203125 
L 14.890625 25.203125 
Q 15.484375 15.921875 20.484375 11.0625 
Q 25.484375 6.203125 34.421875 6.203125 
Q 39.59375 6.203125 44.453125 7.46875 
Q 49.3125 8.734375 54.109375 11.28125 
L 54.109375 2.78125 
Q 49.265625 0.734375 44.1875 -0.34375 
Q 39.109375 -1.421875 33.890625 -1.421875 
Q 20.796875 -1.421875 13.15625 6.1875 
Q 5.515625 13.8125 5.515625 26.8125 
Q 5.515625 40.234375 12.765625 48.109375 
Q 20.015625 56 32.328125 56 
Q 43.359375 56 49.78125 48.890625 
Q 56.203125 41.796875 56.203125 29.59375 
z
M 47.21875 32.234375 
Q 47.125 39.59375 43.09375 43.984375 
Q 39.0625 48.390625 32.421875 48.390625 
Q 24.90625 48.390625 20.390625 44.140625 
Q 15.875 39.890625 15.1875 32.171875 
z
" id="DejaVuSans-101"/>
      <path d="M 9.421875 75.984375 
L 18.40625 75.984375 
L 18.40625 0 
L 9.421875 0 
z
" id="DejaVuSans-108"/>
     </defs>
     <g transform="translate(444.621875 205.846415)scale(0.1 -0.1)">
      <use xlink:href="#DejaVuSans-77"/>
      <use x="86.279297" xlink:href="#DejaVuSans-111"/>
      <use x="147.460938" xlink:href="#DejaVuSans-100"/>
      <use x="210.9375" xlink:href="#DejaVuSans-101"/>
      <use x="272.460938" xlink:href="#DejaVuSans-108"/>
     </g>
    </g>
    <g id="line2d_14">
     <path d="M 416.621875 217.02454 
L 436.621875 217.02454 
" style="fill:none;stroke:#8b0000;stroke-linecap:square;stroke-width:1.5;"/>
    </g>
    <g id="line2d_15"/>
    <g id="text_6">
     <!-- LOESS Curve -->
     <defs>
      <path d="M 9.8125 72.90625 
L 19.671875 72.90625 
L 19.671875 8.296875 
L 55.171875 8.296875 
L 55.171875 0 
L 9.8125 0 
z
" id="DejaVuSans-76"/>
      <path d="M 39.40625 66.21875 
Q 28.65625 66.21875 22.328125 58.203125 
Q 16.015625 50.203125 16.015625 36.375 
Q 16.015625 22.609375 22.328125 14.59375 
Q 28.65625 6.59375 39.40625 6.59375 
Q 50.140625 6.59375 56.421875 14.59375 
Q 62.703125 22.609375 62.703125 36.375 
Q 62.703125 50.203125 56.421875 58.203125 
Q 50.140625 66.21875 39.40625 66.21875 
z
M 39.40625 74.21875 
Q 54.734375 74.21875 63.90625 63.9375 
Q 73.09375 53.65625 73.09375 36.375 
Q 73.09375 19.140625 63.90625 8.859375 
Q 54.734375 -1.421875 39.40625 -1.421875 
Q 24.03125 -1.421875 14.8125 8.828125 
Q 5.609375 19.09375 5.609375 36.375 
Q 5.609375 53.65625 14.8125 63.9375 
Q 24.03125 74.21875 39.40625 74.21875 
z
" id="DejaVuSans-79"/>
      <path d="M 9.8125 72.90625 
L 55.90625 72.90625 
L 55.90625 64.59375 
L 19.671875 64.59375 
L 19.671875 43.015625 
L 54.390625 43.015625 
L 54.390625 34.71875 
L 19.671875 34.71875 
L 19.671875 8.296875 
L 56.78125 8.296875 
L 56.78125 0 
L 9.8125 0 
z
" id="DejaVuSans-69"/>
      <path d="M 53.515625 70.515625 
L 53.515625 60.890625 
Q 47.90625 63.578125 42.921875 64.890625 
Q 37.9375 66.21875 33.296875 66.21875 
Q 25.25 66.21875 20.875 63.09375 
Q 16.5 59.96875 16.5 54.203125 
Q 16.5 49.359375 19.40625 46.890625 
Q 22.3125 44.4375 30.421875 42.921875 
L 36.375 41.703125 
Q 47.40625 39.59375 52.65625 34.296875 
Q 57.90625 29 57.90625 20.125 
Q 57.90625 9.515625 50.796875 4.046875 
Q 43.703125 -1.421875 29.984375 -1.421875 
Q 24.8125 -1.421875 18.96875 -0.25 
Q 13.140625 0.921875 6.890625 3.21875 
L 6.890625 13.375 
Q 12.890625 10.015625 18.65625 8.296875 
Q 24.421875 6.59375 29.984375 6.59375 
Q 38.421875 6.59375 43.015625 9.90625 
Q 47.609375 13.234375 47.609375 19.390625 
Q 47.609375 24.75 44.3125 27.78125 
Q 41.015625 30.8125 33.5 32.328125 
L 27.484375 33.5 
Q 16.453125 35.6875 11.515625 40.375 
Q 6.59375 45.0625 6.59375 53.421875 
Q 6.59375 63.09375 13.40625 68.65625 
Q 20.21875 74.21875 32.171875 74.21875 
Q 37.3125 74.21875 42.625 73.28125 
Q 47.953125 72.359375 53.515625 70.515625 
z
" id="DejaVuSans-83"/>
      <path id="DejaVuSans-32"/>
      <path d="M 64.40625 67.28125 
L 64.40625 56.890625 
Q 59.421875 61.53125 53.78125 63.8125 
Q 48.140625 66.109375 41.796875 66.109375 
Q 29.296875 66.109375 22.65625 58.46875 
Q 16.015625 50.828125 16.015625 36.375 
Q 16.015625 21.96875 22.65625 14.328125 
Q 29.296875 6.6875 41.796875 6.6875 
Q 48.140625 6.6875 53.78125 8.984375 
Q 59.421875 11.28125 64.40625 15.921875 
L 64.40625 5.609375 
Q 59.234375 2.09375 53.4375 0.328125 
Q 47.65625 -1.421875 41.21875 -1.421875 
Q 24.65625 -1.421875 15.125 8.703125 
Q 5.609375 18.84375 5.609375 36.375 
Q 5.609375 53.953125 15.125 64.078125 
Q 24.65625 74.21875 41.21875 74.21875 
Q 47.75 74.21875 53.53125 72.484375 
Q 59.328125 70.75 64.40625 67.28125 
z
" id="DejaVuSans-67"/>
      <path d="M 8.5 21.578125 
L 8.5 54.6875 
L 17.484375 54.6875 
L 17.484375 21.921875 
Q 17.484375 14.15625 20.5 10.265625 
Q 23.53125 6.390625 29.59375 6.390625 
Q 36.859375 6.390625 41.078125 11.03125 
Q 45.3125 15.671875 45.3125 23.6875 
L 45.3125 54.6875 
L 54.296875 54.6875 
L 54.296875 0 
L 45.3125 0 
L 45.3125 8.40625 
Q 42.046875 3.421875 37.71875 1 
Q 33.40625 -1.421875 27.6875 -1.421875 
Q 18.265625 -1.421875 13.375 4.4375 
Q 8.5 10.296875 8.5 21.578125 
z
M 31.109375 56 
z
" id="DejaVuSans-117"/>
      <path d="M 41.109375 46.296875 
Q 39.59375 47.171875 37.8125 47.578125 
Q 36.03125 48 33.890625 48 
Q 26.265625 48 22.1875 43.046875 
Q 18.109375 38.09375 18.109375 28.8125 
L 18.109375 0 
L 9.078125 0 
L 9.078125 54.6875 
L 18.109375 54.6875 
L 18.109375 46.1875 
Q 20.953125 51.171875 25.484375 53.578125 
Q 30.03125 56 36.53125 56 
Q 37.453125 56 38.578125 55.875 
Q 39.703125 55.765625 41.0625 55.515625 
z
" id="DejaVuSans-114"/>
      <path d="M 2.984375 54.6875 
L 12.5 54.6875 
L 29.59375 8.796875 
L 46.6875 54.6875 
L 56.203125 54.6875 
L 35.6875 0 
L 23.484375 0 
z
" id="DejaVuSans-118"/>
     </defs>
     <g transform="translate(444.621875 220.52454)scale(0.1 -0.1)">
      <use xlink:href="#DejaVuSans-76"/>
      <use x="52.087891" xlink:href="#DejaVuSans-79"/>
      <use x="130.798828" xlink:href="#DejaVuSans-69"/>
      <use x="193.982422" xlink:href="#DejaVuSans-83"/>
      <use x="257.458984" xlink:href="#DejaVuSans-83"/>
      <use x="320.935547" xlink:href="#DejaVuSans-32"/>
      <use x="352.722656" xlink:href="#DejaVuSans-67"/>
      <use x="422.546875" xlink:href="#DejaVuSans-117"/>
      <use x="485.925781" xlink:href="#DejaVuSans-114"/>
      <use x="527.039062" xlink:href="#DejaVuSans-118"/>
      <use x="586.21875" xlink:href="#DejaVuSans-101"/>
     </g>
    </g>
    <g id="PathCollection_2">
     <path d="M 426.621875 235.577665 
C 427.417484 235.577665 428.180615 235.261567 428.743195 234.698986 
C 429.305776 234.136405 429.621875 233.373275 429.621875 232.577665 
C 429.621875 231.782056 429.305776 231.018926 428.743195 230.456345 
C 428.180615 229.893764 427.417484 229.577665 426.621875 229.577665 
C 425.826266 229.577665 425.063135 229.893764 424.500555 230.456345 
C 423.937974 231.018926 423.621875 231.782056 423.621875 232.577665 
C 423.621875 233.373275 423.937974 234.136405 424.500555 234.698986 
C 425.063135 235.261567 425.826266 235.577665 426.621875 235.577665 
z
" style="fill:none;stroke:#0000ff;stroke-opacity:0.4;"/>
    </g>
    <g id="text_7">
     <!-- Sr Conodont -->
     <defs>
      <path d="M 54.890625 33.015625 
L 54.890625 0 
L 45.90625 0 
L 45.90625 32.71875 
Q 45.90625 40.484375 42.875 44.328125 
Q 39.84375 48.1875 33.796875 48.1875 
Q 26.515625 48.1875 22.3125 43.546875 
Q 18.109375 38.921875 18.109375 30.90625 
L 18.109375 0 
L 9.078125 0 
L 9.078125 54.6875 
L 18.109375 54.6875 
L 18.109375 46.1875 
Q 21.34375 51.125 25.703125 53.5625 
Q 30.078125 56 35.796875 56 
Q 45.21875 56 50.046875 50.171875 
Q 54.890625 44.34375 54.890625 33.015625 
z
" id="DejaVuSans-110"/>
      <path d="M 18.3125 70.21875 
L 18.3125 54.6875 
L 36.8125 54.6875 
L 36.8125 47.703125 
L 18.3125 47.703125 
L 18.3125 18.015625 
Q 18.3125 11.328125 20.140625 9.421875 
Q 21.96875 7.515625 27.59375 7.515625 
L 36.8125 7.515625 
L 36.8125 0 
L 27.59375 0 
Q 17.1875 0 13.234375 3.875 
Q 9.28125 7.765625 9.28125 18.015625 
L 9.28125 47.703125 
L 2.6875 47.703125 
L 2.6875 54.6875 
L 9.28125 54.6875 
L 9.28125 70.21875 
z
" id="DejaVuSans-116"/>
     </defs>
     <g transform="translate(444.621875 235.202665)scale(0.1 -0.1)">
      <use xlink:href="#DejaVuSans-83"/>
      <use x="63.476562" xlink:href="#DejaVuSans-114"/>
      <use x="104.589844" xlink:href="#DejaVuSans-32"/>
      <use x="136.376953" xlink:href="#DejaVuSans-67"/>
      <use x="206.201172" xlink:href="#DejaVuSans-111"/>
      <use x="267.382812" xlink:href="#DejaVuSans-110"/>
      <use x="330.761719" xlink:href="#DejaVuSans-111"/>
      <use x="391.943359" xlink:href="#DejaVuSans-100"/>
      <use x="455.419922" xlink:href="#DejaVuSans-111"/>
      <use x="516.601562" xlink:href="#DejaVuSans-110"/>
      <use x="579.980469" xlink:href="#DejaVuSans-116"/>
     </g>
    </g>
   </g>
  </g>
  <g id="axes_2">
   <g id="patch_8">
    <path d="M 72 438.141176 
L 518.4 438.141176 
L 518.4 278.258824 
L 72 278.258824 
z
" style="fill:#ffffff;"/>
   </g>
   <g id="matplotlib.axis_3">
    <g id="xtick_5">
     <g id="line2d_16">
      <g>
       <use style="stroke:#000000;stroke-width:0.8;" x="156.852893" xlink:href="#m4760505056" y="438.141176"/>
      </g>
     </g>
    </g>
    <g id="xtick_6">
     <g id="line2d_17">
      <g>
       <use style="stroke:#000000;stroke-width:0.8;" x="249.084298" xlink:href="#m4760505056" y="438.141176"/>
      </g>
     </g>
    </g>
    <g id="xtick_7">
     <g id="line2d_18">
      <g>
       <use style="stroke:#000000;stroke-width:0.8;" x="341.315702" xlink:href="#m4760505056" y="438.141176"/>
      </g>
     </g>
    </g>
    <g id="xtick_8">
     <g id="line2d_19">
      <g>
       <use style="stroke:#000000;stroke-width:0.8;" x="433.547107" xlink:href="#m4760505056" y="438.141176"/>
      </g>
     </g>
    </g>
   </g>
   <g id="matplotlib.axis_4">
    <g id="ytick_4">
     <g id="line2d_20">
      <g>
       <use style="stroke:#000000;stroke-width:0.8;" x="72" xlink:href="#m793422cbee" y="421.601623"/>
      </g>
     </g>
     <g id="text_8">
      <!-- 0.25 -->
      <g transform="translate(42.734375 425.400841)scale(0.1 -0.1)">
       <use xlink:href="#DejaVuSans-48"/>
       <use x="63.623047" xlink:href="#DejaVuSans-46"/>
       <use x="95.410156" xlink:href="#DejaVuSans-50"/>
       <use x="159.033203" xlink:href="#DejaVuSans-53"/>
      </g>
     </g>
    </g>
    <g id="ytick_5">
     <g id="line2d_21">
      <g>
       <use style="stroke:#000000;stroke-width:0.8;" x="72" xlink:href="#m793422cbee" y="366.469777"/>
      </g>
     </g>
     <g id="text_9">
      <!-- 0.75 -->
      <g transform="translate(42.734375 370.268996)scale(0.1 -0.1)">
       <use xlink:href="#DejaVuSans-48"/>
       <use x="63.623047" xlink:href="#DejaVuSans-46"/>
       <use x="95.410156" xlink:href="#DejaVuSans-55"/>
       <use x="159.033203" xlink:href="#DejaVuSans-53"/>
      </g>
     </g>
    </g>
    <g id="ytick_6">
     <g id="line2d_22">
      <g>
       <use style="stroke:#000000;stroke-width:0.8;" x="72" xlink:href="#m793422cbee" y="311.337931"/>
      </g>
     </g>
     <g id="text_10">
      <!-- 1.25 -->
      <defs>
       <path d="M 12.40625 8.296875 
L 28.515625 8.296875 
L 28.515625 63.921875 
L 10.984375 60.40625 
L 10.984375 69.390625 
L 28.421875 72.90625 
L 38.28125 72.90625 
L 38.28125 8.296875 
L 54.390625 8.296875 
L 54.390625 0 
L 12.40625 0 
z
" id="DejaVuSans-49"/>
      </defs>
      <g transform="translate(42.734375 315.13715)scale(0.1 -0.1)">
       <use xlink:href="#DejaVuSans-49"/>
       <use x="63.623047" xlink:href="#DejaVuSans-46"/>
       <use x="95.410156" xlink:href="#DejaVuSans-50"/>
       <use x="159.033203" xlink:href="#DejaVuSans-53"/>
      </g>
     </g>
    </g>
    <g id="text_11">
     <!-- Source Fluxes -->
     <defs>
      <path d="M 48.78125 52.59375 
L 48.78125 44.1875 
Q 44.96875 46.296875 41.140625 47.34375 
Q 37.3125 48.390625 33.40625 48.390625 
Q 24.65625 48.390625 19.8125 42.84375 
Q 14.984375 37.3125 14.984375 27.296875 
Q 14.984375 17.28125 19.8125 11.734375 
Q 24.65625 6.203125 33.40625 6.203125 
Q 37.3125 6.203125 41.140625 7.25 
Q 44.96875 8.296875 48.78125 10.40625 
L 48.78125 2.09375 
Q 45.015625 0.34375 40.984375 -0.53125 
Q 36.96875 -1.421875 32.421875 -1.421875 
Q 20.0625 -1.421875 12.78125 6.34375 
Q 5.515625 14.109375 5.515625 27.296875 
Q 5.515625 40.671875 12.859375 48.328125 
Q 20.21875 56 33.015625 56 
Q 37.15625 56 41.109375 55.140625 
Q 45.0625 54.296875 48.78125 52.59375 
z
" id="DejaVuSans-99"/>
      <path d="M 9.8125 72.90625 
L 51.703125 72.90625 
L 51.703125 64.59375 
L 19.671875 64.59375 
L 19.671875 43.109375 
L 48.578125 43.109375 
L 48.578125 34.8125 
L 19.671875 34.8125 
L 19.671875 0 
L 9.8125 0 
z
" id="DejaVuSans-70"/>
      <path d="M 54.890625 54.6875 
L 35.109375 28.078125 
L 55.90625 0 
L 45.3125 0 
L 29.390625 21.484375 
L 13.484375 0 
L 2.875 0 
L 24.125 28.609375 
L 4.6875 54.6875 
L 15.28125 54.6875 
L 29.78125 35.203125 
L 44.28125 54.6875 
z
" id="DejaVuSans-120"/>
      <path d="M 44.28125 53.078125 
L 44.28125 44.578125 
Q 40.484375 46.53125 36.375 47.5 
Q 32.28125 48.484375 27.875 48.484375 
Q 21.1875 48.484375 17.84375 46.4375 
Q 14.5 44.390625 14.5 40.28125 
Q 14.5 37.15625 16.890625 35.375 
Q 19.28125 33.59375 26.515625 31.984375 
L 29.59375 31.296875 
Q 39.15625 29.25 43.1875 25.515625 
Q 47.21875 21.78125 47.21875 15.09375 
Q 47.21875 7.46875 41.1875 3.015625 
Q 35.15625 -1.421875 24.609375 -1.421875 
Q 20.21875 -1.421875 15.453125 -0.5625 
Q 10.6875 0.296875 5.421875 2 
L 5.421875 11.28125 
Q 10.40625 8.6875 15.234375 7.390625 
Q 20.0625 6.109375 24.8125 6.109375 
Q 31.15625 6.109375 34.5625 8.28125 
Q 37.984375 10.453125 37.984375 14.40625 
Q 37.984375 18.0625 35.515625 20.015625 
Q 33.0625 21.96875 24.703125 23.78125 
L 21.578125 24.515625 
Q 13.234375 26.265625 9.515625 29.90625 
Q 5.8125 33.546875 5.8125 39.890625 
Q 5.8125 47.609375 11.28125 51.796875 
Q 16.75 56 26.8125 56 
Q 31.78125 56 36.171875 55.265625 
Q 40.578125 54.546875 44.28125 53.078125 
z
" id="DejaVuSans-115"/>
     </defs>
     <g transform="translate(22.801375 399.81375)rotate(-90)scale(0.12 -0.12)">
      <use xlink:href="#DejaVuSans-83"/>
      <use x="63.476562" xlink:href="#DejaVuSans-111"/>
      <use x="124.658203" xlink:href="#DejaVuSans-117"/>
      <use x="188.037109" xlink:href="#DejaVuSans-114"/>
      <use x="226.900391" xlink:href="#DejaVuSans-99"/>
      <use x="281.880859" xlink:href="#DejaVuSans-101"/>
      <use x="343.404297" xlink:href="#DejaVuSans-32"/>
      <use x="375.191406" xlink:href="#DejaVuSans-70"/>
      <use x="432.710938" xlink:href="#DejaVuSans-108"/>
      <use x="460.494141" xlink:href="#DejaVuSans-117"/>
      <use x="523.873047" xlink:href="#DejaVuSans-120"/>
      <use x="579.927734" xlink:href="#DejaVuSans-101"/>
      <use x="641.451172" xlink:href="#DejaVuSans-115"/>
     </g>
     <!-- (mol/yr) -->
     <defs>
      <path d="M 31 75.875 
Q 24.46875 64.65625 21.28125 53.65625 
Q 18.109375 42.671875 18.109375 31.390625 
Q 18.109375 20.125 21.3125 9.0625 
Q 24.515625 -2 31 -13.1875 
L 23.1875 -13.1875 
Q 15.875 -1.703125 12.234375 9.375 
Q 8.59375 20.453125 8.59375 31.390625 
Q 8.59375 42.28125 12.203125 53.3125 
Q 15.828125 64.359375 23.1875 75.875 
z
" id="DejaVuSans-40"/>
      <path d="M 52 44.1875 
Q 55.375 50.25 60.0625 53.125 
Q 64.75 56 71.09375 56 
Q 79.640625 56 84.28125 50.015625 
Q 88.921875 44.046875 88.921875 33.015625 
L 88.921875 0 
L 79.890625 0 
L 79.890625 32.71875 
Q 79.890625 40.578125 77.09375 44.375 
Q 74.3125 48.1875 68.609375 48.1875 
Q 61.625 48.1875 57.5625 43.546875 
Q 53.515625 38.921875 53.515625 30.90625 
L 53.515625 0 
L 44.484375 0 
L 44.484375 32.71875 
Q 44.484375 40.625 41.703125 44.40625 
Q 38.921875 48.1875 33.109375 48.1875 
Q 26.21875 48.1875 22.15625 43.53125 
Q 18.109375 38.875 18.109375 30.90625 
L 18.109375 0 
L 9.078125 0 
L 9.078125 54.6875 
L 18.109375 54.6875 
L 18.109375 46.1875 
Q 21.1875 51.21875 25.484375 53.609375 
Q 29.78125 56 35.6875 56 
Q 41.65625 56 45.828125 52.96875 
Q 50 49.953125 52 44.1875 
z
" id="DejaVuSans-109"/>
      <path d="M 32.171875 -5.078125 
Q 28.375 -14.84375 24.75 -17.8125 
Q 21.140625 -20.796875 15.09375 -20.796875 
L 7.90625 -20.796875 
L 7.90625 -13.28125 
L 13.1875 -13.28125 
Q 16.890625 -13.28125 18.9375 -11.515625 
Q 21 -9.765625 23.484375 -3.21875 
L 25.09375 0.875 
L 2.984375 54.6875 
L 12.5 54.6875 
L 29.59375 11.921875 
L 46.6875 54.6875 
L 56.203125 54.6875 
z
" id="DejaVuSans-121"/>
      <path d="M 8.015625 75.875 
L 15.828125 75.875 
Q 23.140625 64.359375 26.78125 53.3125 
Q 30.421875 42.28125 30.421875 31.390625 
Q 30.421875 20.453125 26.78125 9.375 
Q 23.140625 -1.703125 15.828125 -13.1875 
L 8.015625 -13.1875 
Q 14.5 -2 17.703125 9.0625 
Q 20.90625 20.125 20.90625 31.390625 
Q 20.90625 42.671875 17.703125 53.65625 
Q 14.5 64.65625 8.015625 75.875 
z
" id="DejaVuSans-41"/>
     </defs>
     <g transform="translate(36.23875 382.103437)rotate(-90)scale(0.12 -0.12)">
      <use xlink:href="#DejaVuSans-40"/>
      <use x="39.013672" xlink:href="#DejaVuSans-109"/>
      <use x="136.425781" xlink:href="#DejaVuSans-111"/>
      <use x="197.607422" xlink:href="#DejaVuSans-108"/>
      <use x="225.390625" xlink:href="#DejaVuSans-47"/>
      <use x="259.082031" xlink:href="#DejaVuSans-121"/>
      <use x="318.261719" xlink:href="#DejaVuSans-114"/>
      <use x="359.375" xlink:href="#DejaVuSans-41"/>
     </g>
    </g>
    <g id="text_12">
     <!-- 1e10 -->
     <g transform="translate(72 275.258824)scale(0.1 -0.1)">
      <use xlink:href="#DejaVuSans-49"/>
      <use x="63.623047" xlink:href="#DejaVuSans-101"/>
      <use x="125.146484" xlink:href="#DejaVuSans-49"/>
      <use x="188.769531" xlink:href="#DejaVuSans-48"/>
     </g>
    </g>
   </g>
   <g id="line2d_23">
    <path clip-path="url(#p618d4cc583)" d="M 498.109091 271.12061 
L 489.704512 268.085848 
L 487.009853 267.276394 
L 478.739195 265.064473 
L 458.529248 260.439407 
L 450.664413 258.604435 
L 440.056219 256.06553 
L 420.674149 251.634611 
L 417.297708 251.061663 
L 411.506625 250.268713 
L 406.908659 249.80562 
L 400.427678 249.309127 
L 386.183317 248.752192 
L 367.738696 248.574909 
L 360.819427 248.794203 
L 356.205228 249.121813 
L 351.586971 249.594217 
L 342.354515 250.716249 
L 337.728142 251.255001 
L 325.098954 252.525321 
L 319.311928 252.775968 
L 311.150843 252.92003 
L 301.926504 252.953112 
L 297.446226 252.842179 
L 291.642968 252.458795 
L 289.402829 252.172485 
L 283.575222 251.057709 
L 277.731382 249.665086 
L 275.710387 249.0454 
L 271.814493 247.526773 
L 266.072109 243.260486 
L 253.731054 233.371252 
L 252.570403 232.604778 
L 246.251751 228.588852 
L 243.435344 227.001452 
L 238.735923 224.847123 
L 233.987802 223.184006 
L 228.793278 221.837642 
L 224.81622 221.080726 
L 220.222312 220.61805 
L 210.417647 220.422433 
L 204.025946 220.733405 
L 199.411748 221.133151 
L 191.960851 221.943632 
L 174.441505 224.79477 
L 165.54994 226.715024 
L 159.004027 228.672412 
L 151.885905 231.125804 
L 145.031567 234.355143 
L 142.028483 235.981243 
L 137.479216 238.956496 
L 133.051695 242.487529 
L 128.2914 247.180448 
L 123.234855 253.039237 
L 108.580614 271.544462 
L 105.244755 275.589585 
L 100.825351 280.126146 
L 96.194919 283.818918 
L 92.290909 286.260192 
L 92.290909 286.260192 
" style="fill:none;stroke:#8b0000;stroke-linecap:square;stroke-width:1.5;"/>
   </g>
   <g id="line2d_24">
    <path clip-path="url(#p618d4cc583)" d="M 498.109091 490.487503 
L 489.826259 492.553685 
L 487.06261 493.08096 
L 478.800069 494.369014 
L 458.671286 496.725197 
L 450.725286 497.687007 
L 440.210432 499.028542 
L 420.747197 501.303171 
L 417.334232 501.503403 
L 411.547207 501.649517 
L 406.937066 501.599224 
L 400.435794 501.370618 
L 386.179259 500.332933 
L 367.722463 498.444895 
L 360.795078 497.449656 
L 356.164646 496.601949 
L 351.534214 495.608877 
L 342.289584 493.449165 
L 337.651035 492.392136 
L 325.058371 489.718811 
L 319.26323 488.8208 
L 311.081853 487.761825 
L 301.873747 486.69959 
L 297.429993 486.314104 
L 291.63891 486.04912 
L 289.406888 486.084689 
L 283.603629 486.544659 
L 277.792255 487.278079 
L 275.730678 487.675039 
L 271.826668 488.755415 
L 266.145157 492.33541 
L 253.97049 500.734731 
L 253.69453 500.919848 
L 253.64989 500.826059 
L 244.230756 480.778715 
L 237.339894 464.840233 
L 235.144396 459.890816 
L 228.793278 461.56264 
L 224.81622 462.319556 
L 220.222312 462.782232 
L 210.417647 462.977849 
L 204.025946 462.666878 
L 199.411748 462.267131 
L 191.960851 461.456651 
L 174.441505 458.605512 
L 165.54994 456.685258 
L 159.004027 454.72787 
L 151.885905 452.274479 
L 145.031567 449.045139 
L 142.028483 447.419039 
L 137.479216 444.443786 
L 133.051695 440.912753 
L 128.2914 436.219834 
L 123.234855 430.361045 
L 108.580614 411.85582 
L 105.244755 407.810697 
L 100.825351 403.274137 
L 96.194919 399.581365 
L 92.290909 397.14009 
L 92.290909 397.14009 
" style="fill:none;stroke:#006400;stroke-linecap:square;stroke-width:1.5;"/>
   </g>
   <g id="line2d_25">
    <path clip-path="url(#p618d4cc583)" d="M 249.084298 438.141176 
L 249.084298 278.258824 
" style="fill:none;stroke:#808080;stroke-linecap:square;stroke-opacity:0.2;stroke-width:5;"/>
   </g>
   <g id="patch_9">
    <path d="M 72 438.141176 
L 72 278.258824 
" style="fill:none;stroke:#000000;stroke-linecap:square;stroke-linejoin:miter;stroke-width:0.8;"/>
   </g>
   <g id="patch_10">
    <path d="M 518.4 438.141176 
L 518.4 278.258824 
" style="fill:none;stroke:#000000;stroke-linecap:square;stroke-linejoin:miter;stroke-width:0.8;"/>
   </g>
   <g id="patch_11">
    <path d="M 72 438.141176 
L 518.4 438.141176 
" style="fill:none;stroke:#000000;stroke-linecap:square;stroke-linejoin:miter;stroke-width:0.8;"/>
   </g>
   <g id="patch_12">
    <path d="M 72 278.258824 
L 518.4 278.258824 
" style="fill:none;stroke:#000000;stroke-linecap:square;stroke-linejoin:miter;stroke-width:0.8;"/>
   </g>
   <g id="text_13">
    <!-- Taconic Uplift (?) -->
    <defs>
     <path d="M -0.296875 72.90625 
L 61.375 72.90625 
L 61.375 64.59375 
L 35.5 64.59375 
L 35.5 0 
L 25.59375 0 
L 25.59375 64.59375 
L -0.296875 64.59375 
z
" id="DejaVuSans-84"/>
     <path d="M 34.28125 27.484375 
Q 23.390625 27.484375 19.1875 25 
Q 14.984375 22.515625 14.984375 16.5 
Q 14.984375 11.71875 18.140625 8.90625 
Q 21.296875 6.109375 26.703125 6.109375 
Q 34.1875 6.109375 38.703125 11.40625 
Q 43.21875 16.703125 43.21875 25.484375 
L 43.21875 27.484375 
z
M 52.203125 31.203125 
L 52.203125 0 
L 43.21875 0 
L 43.21875 8.296875 
Q 40.140625 3.328125 35.546875 0.953125 
Q 30.953125 -1.421875 24.3125 -1.421875 
Q 15.921875 -1.421875 10.953125 3.296875 
Q 6 8.015625 6 15.921875 
Q 6 25.140625 12.171875 29.828125 
Q 18.359375 34.515625 30.609375 34.515625 
L 43.21875 34.515625 
L 43.21875 35.40625 
Q 43.21875 41.609375 39.140625 45 
Q 35.0625 48.390625 27.6875 48.390625 
Q 23 48.390625 18.546875 47.265625 
Q 14.109375 46.140625 10.015625 43.890625 
L 10.015625 52.203125 
Q 14.9375 54.109375 19.578125 55.046875 
Q 24.21875 56 28.609375 56 
Q 40.484375 56 46.34375 49.84375 
Q 52.203125 43.703125 52.203125 31.203125 
z
" id="DejaVuSans-97"/>
     <path d="M 9.421875 54.6875 
L 18.40625 54.6875 
L 18.40625 0 
L 9.421875 0 
z
M 9.421875 75.984375 
L 18.40625 75.984375 
L 18.40625 64.59375 
L 9.421875 64.59375 
z
" id="DejaVuSans-105"/>
     <path d="M 8.6875 72.90625 
L 18.609375 72.90625 
L 18.609375 28.609375 
Q 18.609375 16.890625 22.84375 11.734375 
Q 27.09375 6.59375 36.625 6.59375 
Q 46.09375 6.59375 50.34375 11.734375 
Q 54.59375 16.890625 54.59375 28.609375 
L 54.59375 72.90625 
L 64.5 72.90625 
L 64.5 27.390625 
Q 64.5 13.140625 57.4375 5.859375 
Q 50.390625 -1.421875 36.625 -1.421875 
Q 22.796875 -1.421875 15.734375 5.859375 
Q 8.6875 13.140625 8.6875 27.390625 
z
" id="DejaVuSans-85"/>
     <path d="M 18.109375 8.203125 
L 18.109375 -20.796875 
L 9.078125 -20.796875 
L 9.078125 54.6875 
L 18.109375 54.6875 
L 18.109375 46.390625 
Q 20.953125 51.265625 25.265625 53.625 
Q 29.59375 56 35.59375 56 
Q 45.5625 56 51.78125 48.09375 
Q 58.015625 40.1875 58.015625 27.296875 
Q 58.015625 14.40625 51.78125 6.484375 
Q 45.5625 -1.421875 35.59375 -1.421875 
Q 29.59375 -1.421875 25.265625 0.953125 
Q 20.953125 3.328125 18.109375 8.203125 
z
M 48.6875 27.296875 
Q 48.6875 37.203125 44.609375 42.84375 
Q 40.53125 48.484375 33.40625 48.484375 
Q 26.265625 48.484375 22.1875 42.84375 
Q 18.109375 37.203125 18.109375 27.296875 
Q 18.109375 17.390625 22.1875 11.75 
Q 26.265625 6.109375 33.40625 6.109375 
Q 40.53125 6.109375 44.609375 11.75 
Q 48.6875 17.390625 48.6875 27.296875 
z
" id="DejaVuSans-112"/>
     <path d="M 37.109375 75.984375 
L 37.109375 68.5 
L 28.515625 68.5 
Q 23.6875 68.5 21.796875 66.546875 
Q 19.921875 64.59375 19.921875 59.515625 
L 19.921875 54.6875 
L 34.71875 54.6875 
L 34.71875 47.703125 
L 19.921875 47.703125 
L 19.921875 0 
L 10.890625 0 
L 10.890625 47.703125 
L 2.296875 47.703125 
L 2.296875 54.6875 
L 10.890625 54.6875 
L 10.890625 58.5 
Q 10.890625 67.625 15.140625 71.796875 
Q 19.390625 75.984375 28.609375 75.984375 
z
" id="DejaVuSans-102"/>
     <path d="M 19.09375 12.40625 
L 29 12.40625 
L 29 0 
L 19.09375 0 
z
M 28.71875 19.578125 
L 19.390625 19.578125 
L 19.390625 27.09375 
Q 19.390625 32.03125 20.75 35.203125 
Q 22.125 38.375 26.515625 42.578125 
L 30.90625 46.921875 
Q 33.6875 49.515625 34.9375 51.8125 
Q 36.1875 54.109375 36.1875 56.5 
Q 36.1875 60.84375 32.984375 63.53125 
Q 29.78125 66.21875 24.515625 66.21875 
Q 20.65625 66.21875 16.28125 64.5 
Q 11.921875 62.796875 7.171875 59.515625 
L 7.171875 68.703125 
Q 11.765625 71.484375 16.46875 72.84375 
Q 21.1875 74.21875 26.21875 74.21875 
Q 35.203125 74.21875 40.640625 69.484375 
Q 46.09375 64.75 46.09375 56.984375 
Q 46.09375 53.265625 44.328125 49.921875 
Q 42.578125 46.578125 38.1875 42.390625 
L 33.890625 38.1875 
Q 31.59375 35.890625 30.640625 34.59375 
Q 29.6875 33.296875 29.296875 32.078125 
Q 29 31.0625 28.859375 29.59375 
Q 28.71875 28.125 28.71875 25.59375 
z
" id="DejaVuSans-63"/>
    </defs>
    <g transform="translate(247.459595 396.830126)rotate(-90)scale(0.1 -0.1)">
     <use xlink:href="#DejaVuSans-84"/>
     <use x="44.583984" xlink:href="#DejaVuSans-97"/>
     <use x="105.863281" xlink:href="#DejaVuSans-99"/>
     <use x="160.84375" xlink:href="#DejaVuSans-111"/>
     <use x="222.025391" xlink:href="#DejaVuSans-110"/>
     <use x="285.404297" xlink:href="#DejaVuSans-105"/>
     <use x="313.1875" xlink:href="#DejaVuSans-99"/>
     <use x="368.167969" xlink:href="#DejaVuSans-32"/>
     <use x="399.955078" xlink:href="#DejaVuSans-85"/>
     <use x="473.148438" xlink:href="#DejaVuSans-112"/>
     <use x="536.625" xlink:href="#DejaVuSans-108"/>
     <use x="564.408203" xlink:href="#DejaVuSans-105"/>
     <use x="592.191406" xlink:href="#DejaVuSans-102"/>
     <use x="625.646484" xlink:href="#DejaVuSans-116"/>
     <use x="664.855469" xlink:href="#DejaVuSans-32"/>
     <use x="696.642578" xlink:href="#DejaVuSans-40"/>
     <use x="735.65625" xlink:href="#DejaVuSans-63"/>
     <use x="788.732422" xlink:href="#DejaVuSans-41"/>
    </g>
   </g>
   <g id="legend_2">
    <g id="patch_13">
     <path d="M 360.8625 374.378125 
L 511.4 374.378125 
Q 513.4 374.378125 513.4 372.378125 
L 513.4 344.021875 
Q 513.4 342.021875 511.4 342.021875 
L 360.8625 342.021875 
Q 358.8625 342.021875 358.8625 344.021875 
L 358.8625 372.378125 
Q 358.8625 374.378125 360.8625 374.378125 
z
" style="fill:#ffffff;opacity:0.8;stroke:#cccccc;stroke-linejoin:miter;"/>
    </g>
    <g id="line2d_26">
     <path d="M 362.8625 350.120313 
L 382.8625 350.120313 
" style="fill:none;stroke:#8b0000;stroke-linecap:square;stroke-width:1.5;"/>
    </g>
    <g id="line2d_27"/>
    <g id="text_14">
     <!-- Hydrothermal flux -->
     <defs>
      <path d="M 9.8125 72.90625 
L 19.671875 72.90625 
L 19.671875 43.015625 
L 55.515625 43.015625 
L 55.515625 72.90625 
L 65.375 72.90625 
L 65.375 0 
L 55.515625 0 
L 55.515625 34.71875 
L 19.671875 34.71875 
L 19.671875 0 
L 9.8125 0 
z
" id="DejaVuSans-72"/>
      <path d="M 54.890625 33.015625 
L 54.890625 0 
L 45.90625 0 
L 45.90625 32.71875 
Q 45.90625 40.484375 42.875 44.328125 
Q 39.84375 48.1875 33.796875 48.1875 
Q 26.515625 48.1875 22.3125 43.546875 
Q 18.109375 38.921875 18.109375 30.90625 
L 18.109375 0 
L 9.078125 0 
L 9.078125 75.984375 
L 18.109375 75.984375 
L 18.109375 46.1875 
Q 21.34375 51.125 25.703125 53.5625 
Q 30.078125 56 35.796875 56 
Q 45.21875 56 50.046875 50.171875 
Q 54.890625 44.34375 54.890625 33.015625 
z
" id="DejaVuSans-104"/>
     </defs>
     <g transform="translate(390.8625 353.620313)scale(0.1 -0.1)">
      <use xlink:href="#DejaVuSans-72"/>
      <use x="75.195312" xlink:href="#DejaVuSans-121"/>
      <use x="134.375" xlink:href="#DejaVuSans-100"/>
      <use x="197.851562" xlink:href="#DejaVuSans-114"/>
      <use x="236.714844" xlink:href="#DejaVuSans-111"/>
      <use x="297.896484" xlink:href="#DejaVuSans-116"/>
      <use x="337.105469" xlink:href="#DejaVuSans-104"/>
      <use x="400.484375" xlink:href="#DejaVuSans-101"/>
      <use x="462.007812" xlink:href="#DejaVuSans-114"/>
      <use x="501.371094" xlink:href="#DejaVuSans-109"/>
      <use x="598.783203" xlink:href="#DejaVuSans-97"/>
      <use x="660.0625" xlink:href="#DejaVuSans-108"/>
      <use x="687.845703" xlink:href="#DejaVuSans-32"/>
      <use x="719.632812" xlink:href="#DejaVuSans-102"/>
      <use x="754.837891" xlink:href="#DejaVuSans-108"/>
      <use x="782.621094" xlink:href="#DejaVuSans-117"/>
      <use x="846" xlink:href="#DejaVuSans-120"/>
     </g>
    </g>
    <g id="line2d_28">
     <path d="M 362.8625 364.798438 
L 382.8625 364.798438 
" style="fill:none;stroke:#006400;stroke-linecap:square;stroke-width:1.5;"/>
    </g>
    <g id="line2d_29"/>
    <g id="text_15">
     <!-- Continental Weathering -->
     <defs>
      <path d="M 3.328125 72.90625 
L 13.28125 72.90625 
L 28.609375 11.28125 
L 43.890625 72.90625 
L 54.984375 72.90625 
L 70.3125 11.28125 
L 85.59375 72.90625 
L 95.609375 72.90625 
L 77.296875 0 
L 64.890625 0 
L 49.515625 63.28125 
L 33.984375 0 
L 21.578125 0 
z
" id="DejaVuSans-87"/>
      <path d="M 45.40625 27.984375 
Q 45.40625 37.75 41.375 43.109375 
Q 37.359375 48.484375 30.078125 48.484375 
Q 22.859375 48.484375 18.828125 43.109375 
Q 14.796875 37.75 14.796875 27.984375 
Q 14.796875 18.265625 18.828125 12.890625 
Q 22.859375 7.515625 30.078125 7.515625 
Q 37.359375 7.515625 41.375 12.890625 
Q 45.40625 18.265625 45.40625 27.984375 
z
M 54.390625 6.78125 
Q 54.390625 -7.171875 48.1875 -13.984375 
Q 42 -20.796875 29.203125 -20.796875 
Q 24.46875 -20.796875 20.265625 -20.09375 
Q 16.0625 -19.390625 12.109375 -17.921875 
L 12.109375 -9.1875 
Q 16.0625 -11.328125 19.921875 -12.34375 
Q 23.78125 -13.375 27.78125 -13.375 
Q 36.625 -13.375 41.015625 -8.765625 
Q 45.40625 -4.15625 45.40625 5.171875 
L 45.40625 9.625 
Q 42.625 4.78125 38.28125 2.390625 
Q 33.9375 0 27.875 0 
Q 17.828125 0 11.671875 7.65625 
Q 5.515625 15.328125 5.515625 27.984375 
Q 5.515625 40.671875 11.671875 48.328125 
Q 17.828125 56 27.875 56 
Q 33.9375 56 38.28125 53.609375 
Q 42.625 51.21875 45.40625 46.390625 
L 45.40625 54.6875 
L 54.390625 54.6875 
z
" id="DejaVuSans-103"/>
     </defs>
     <g transform="translate(390.8625 368.298438)scale(0.1 -0.1)">
      <use xlink:href="#DejaVuSans-67"/>
      <use x="69.824219" xlink:href="#DejaVuSans-111"/>
      <use x="131.005859" xlink:href="#DejaVuSans-110"/>
      <use x="194.384766" xlink:href="#DejaVuSans-116"/>
      <use x="233.59375" xlink:href="#DejaVuSans-105"/>
      <use x="261.376953" xlink:href="#DejaVuSans-110"/>
      <use x="324.755859" xlink:href="#DejaVuSans-101"/>
      <use x="386.279297" xlink:href="#DejaVuSans-110"/>
      <use x="449.658203" xlink:href="#DejaVuSans-116"/>
      <use x="488.867188" xlink:href="#DejaVuSans-97"/>
      <use x="550.146484" xlink:href="#DejaVuSans-108"/>
      <use x="577.929688" xlink:href="#DejaVuSans-32"/>
      <use x="609.716797" xlink:href="#DejaVuSans-87"/>
      <use x="702.71875" xlink:href="#DejaVuSans-101"/>
      <use x="764.242188" xlink:href="#DejaVuSans-97"/>
      <use x="825.521484" xlink:href="#DejaVuSans-116"/>
      <use x="864.730469" xlink:href="#DejaVuSans-104"/>
      <use x="928.109375" xlink:href="#DejaVuSans-101"/>
      <use x="989.632812" xlink:href="#DejaVuSans-114"/>
      <use x="1030.746094" xlink:href="#DejaVuSans-105"/>
      <use x="1058.529297" xlink:href="#DejaVuSans-110"/>
      <use x="1121.908203" xlink:href="#DejaVuSans-103"/>
     </g>
    </g>
   </g>
  </g>
  <g id="axes_3">
   <g id="patch_14">
    <path d="M 72 630 
L 518.4 630 
L 518.4 470.117647 
L 72 470.117647 
z
" style="fill:#ffffff;"/>
   </g>
   <g id="matplotlib.axis_5">
    <g id="xtick_9">
     <g id="line2d_30">
      <g>
       <use style="stroke:#000000;stroke-width:0.8;" x="156.852893" xlink:href="#m4760505056" y="630"/>
      </g>
     </g>
     <g id="text_16">
      <!-- 450 -->
      <defs>
       <path d="M 37.796875 64.3125 
L 12.890625 25.390625 
L 37.796875 25.390625 
z
M 35.203125 72.90625 
L 47.609375 72.90625 
L 47.609375 25.390625 
L 58.015625 25.390625 
L 58.015625 17.1875 
L 47.609375 17.1875 
L 47.609375 0 
L 37.796875 0 
L 37.796875 17.1875 
L 4.890625 17.1875 
L 4.890625 26.703125 
z
" id="DejaVuSans-52"/>
      </defs>
      <g transform="translate(147.309143 644.598438)scale(0.1 -0.1)">
       <use xlink:href="#DejaVuSans-52"/>
       <use x="63.623047" xlink:href="#DejaVuSans-53"/>
       <use x="127.246094" xlink:href="#DejaVuSans-48"/>
      </g>
     </g>
    </g>
    <g id="xtick_10">
     <g id="line2d_31">
      <g>
       <use style="stroke:#000000;stroke-width:0.8;" x="249.084298" xlink:href="#m4760505056" y="630"/>
      </g>
     </g>
     <g id="text_17">
      <!-- 460 -->
      <g transform="translate(239.540548 644.598438)scale(0.1 -0.1)">
       <use xlink:href="#DejaVuSans-52"/>
       <use x="63.623047" xlink:href="#DejaVuSans-54"/>
       <use x="127.246094" xlink:href="#DejaVuSans-48"/>
      </g>
     </g>
    </g>
    <g id="xtick_11">
     <g id="line2d_32">
      <g>
       <use style="stroke:#000000;stroke-width:0.8;" x="341.315702" xlink:href="#m4760505056" y="630"/>
      </g>
     </g>
     <g id="text_18">
      <!-- 470 -->
      <g transform="translate(331.771952 644.598438)scale(0.1 -0.1)">
       <use xlink:href="#DejaVuSans-52"/>
       <use x="63.623047" xlink:href="#DejaVuSans-55"/>
       <use x="127.246094" xlink:href="#DejaVuSans-48"/>
      </g>
     </g>
    </g>
    <g id="xtick_12">
     <g id="line2d_33">
      <g>
       <use style="stroke:#000000;stroke-width:0.8;" x="433.547107" xlink:href="#m4760505056" y="630"/>
      </g>
     </g>
     <g id="text_19">
      <!-- 480 -->
      <g transform="translate(424.003357 644.598438)scale(0.1 -0.1)">
       <use xlink:href="#DejaVuSans-52"/>
       <use x="63.623047" xlink:href="#DejaVuSans-56"/>
       <use x="127.246094" xlink:href="#DejaVuSans-48"/>
      </g>
     </g>
    </g>
    <g id="text_20">
     <!-- Age (Ma) -->
     <defs>
      <path d="M 34.1875 63.1875 
L 20.796875 26.90625 
L 47.609375 26.90625 
z
M 28.609375 72.90625 
L 39.796875 72.90625 
L 67.578125 0 
L 57.328125 0 
L 50.6875 18.703125 
L 17.828125 18.703125 
L 11.1875 0 
L 0.78125 0 
z
" id="DejaVuSans-65"/>
     </defs>
     <g transform="translate(268.152187 659.79625)scale(0.12 -0.12)">
      <use xlink:href="#DejaVuSans-65"/>
      <use x="68.408203" xlink:href="#DejaVuSans-103"/>
      <use x="131.884766" xlink:href="#DejaVuSans-101"/>
      <use x="193.408203" xlink:href="#DejaVuSans-32"/>
      <use x="225.195312" xlink:href="#DejaVuSans-40"/>
      <use x="264.208984" xlink:href="#DejaVuSans-77"/>
      <use x="350.488281" xlink:href="#DejaVuSans-97"/>
      <use x="411.767578" xlink:href="#DejaVuSans-41"/>
     </g>
    </g>
   </g>
   <g id="matplotlib.axis_6">
    <g id="ytick_7">
     <g id="line2d_34">
      <g>
       <use style="stroke:#000000;stroke-width:0.8;" x="72" xlink:href="#m793422cbee" y="613.509247"/>
      </g>
     </g>
     <g id="text_21">
      <!-- 140 -->
      <g transform="translate(45.9125 617.308466)scale(0.1 -0.1)">
       <use xlink:href="#DejaVuSans-49"/>
       <use x="63.623047" xlink:href="#DejaVuSans-52"/>
       <use x="127.246094" xlink:href="#DejaVuSans-48"/>
      </g>
     </g>
    </g>
    <g id="ytick_8">
     <g id="line2d_35">
      <g>
       <use style="stroke:#000000;stroke-width:0.8;" x="72" xlink:href="#m793422cbee" y="581.704512"/>
      </g>
     </g>
     <g id="text_22">
      <!-- 160 -->
      <g transform="translate(45.9125 585.503731)scale(0.1 -0.1)">
       <use xlink:href="#DejaVuSans-49"/>
       <use x="63.623047" xlink:href="#DejaVuSans-54"/>
       <use x="127.246094" xlink:href="#DejaVuSans-48"/>
      </g>
     </g>
    </g>
    <g id="ytick_9">
     <g id="line2d_36">
      <g>
       <use style="stroke:#000000;stroke-width:0.8;" x="72" xlink:href="#m793422cbee" y="549.899778"/>
      </g>
     </g>
     <g id="text_23">
      <!-- 180 -->
      <g transform="translate(45.9125 553.698996)scale(0.1 -0.1)">
       <use xlink:href="#DejaVuSans-49"/>
       <use x="63.623047" xlink:href="#DejaVuSans-56"/>
       <use x="127.246094" xlink:href="#DejaVuSans-48"/>
      </g>
     </g>
    </g>
    <g id="ytick_10">
     <g id="line2d_37">
      <g>
       <use style="stroke:#000000;stroke-width:0.8;" x="72" xlink:href="#m793422cbee" y="518.095043"/>
      </g>
     </g>
     <g id="text_24">
      <!-- 200 -->
      <g transform="translate(45.9125 521.894262)scale(0.1 -0.1)">
       <use xlink:href="#DejaVuSans-50"/>
       <use x="63.623047" xlink:href="#DejaVuSans-48"/>
       <use x="127.246094" xlink:href="#DejaVuSans-48"/>
      </g>
     </g>
    </g>
    <g id="ytick_11">
     <g id="line2d_38">
      <g>
       <use style="stroke:#000000;stroke-width:0.8;" x="72" xlink:href="#m793422cbee" y="486.290308"/>
      </g>
     </g>
     <g id="text_25">
      <!-- 220 -->
      <g transform="translate(45.9125 490.089527)scale(0.1 -0.1)">
       <use xlink:href="#DejaVuSans-50"/>
       <use x="63.623047" xlink:href="#DejaVuSans-50"/>
       <use x="127.246094" xlink:href="#DejaVuSans-48"/>
      </g>
     </g>
    </g>
    <g id="text_26">
     <!-- Sea Levels -->
     <g transform="translate(25.9795 582.109136)rotate(-90)scale(0.12 -0.12)">
      <use xlink:href="#DejaVuSans-83"/>
      <use x="63.476562" xlink:href="#DejaVuSans-101"/>
      <use x="125" xlink:href="#DejaVuSans-97"/>
      <use x="186.279297" xlink:href="#DejaVuSans-32"/>
      <use x="218.066406" xlink:href="#DejaVuSans-76"/>
      <use x="272.029297" xlink:href="#DejaVuSans-101"/>
      <use x="333.552734" xlink:href="#DejaVuSans-118"/>
      <use x="392.732422" xlink:href="#DejaVuSans-101"/>
      <use x="454.255859" xlink:href="#DejaVuSans-108"/>
      <use x="482.039062" xlink:href="#DejaVuSans-115"/>
     </g>
     <!-- (meter) -->
     <g transform="translate(39.416875 572.787574)rotate(-90)scale(0.12 -0.12)">
      <use xlink:href="#DejaVuSans-40"/>
      <use x="39.013672" xlink:href="#DejaVuSans-109"/>
      <use x="136.425781" xlink:href="#DejaVuSans-101"/>
      <use x="197.949219" xlink:href="#DejaVuSans-116"/>
      <use x="237.158203" xlink:href="#DejaVuSans-101"/>
      <use x="298.681641" xlink:href="#DejaVuSans-114"/>
      <use x="339.794922" xlink:href="#DejaVuSans-41"/>
     </g>
    </g>
   </g>
   <g id="line2d_39">
    <path clip-path="url(#pd454879a26)" d="M 498.109091 589.337649 
L 491.408966 583.93662 
L 487.878312 581.397113 
L 480.484231 576.938266 
L 477.797688 575.491988 
L 466.81208 569.934727 
L 462.250638 567.609232 
L 457.591798 565.32442 
L 453.030356 562.999024 
L 448.367459 560.462085 
L 443.704561 558.016192 
L 429.922838 550.762556 
L 427.098315 549.330868 
L 420.747197 546.388074 
L 418.535466 545.518337 
L 413.397757 543.864125 
L 408.820082 542.716404 
L 402.59071 541.540883 
L 399.632266 541.143476 
L 388.804929 540.135038 
L 384.202905 539.928979 
L 370.376541 539.563239 
L 365.7664 539.674232 
L 362.763316 539.888843 
L 358.145059 540.478121 
L 353.518685 541.388327 
L 344.269996 543.735123 
L 339.631448 545.058551 
L 326.377294 548.143732 
L 321.243642 548.739714 
L 315.030504 549.056926 
L 305.814281 549.263683 
L 298.740799 549.152911 
L 293.582798 548.507777 
L 290.044028 547.784991 
L 284.829213 545.688183 
L 279.577873 543.029716 
L 276.229839 541.056022 
L 271.964648 537.532418 
L 266.52663 528.69866 
L 255.001278 508.260008 
L 252.895061 504.849425 
L 247.197316 496.792521 
L 243.800584 492.40981 
L 239.190444 487.643505 
L 234.555954 483.951482 
L 229.690145 481.061993 
L 225.43307 479.129572 
L 220.859453 477.982771 
L 211.387562 477.440444 
L 205.965777 477.925709 
L 201.343461 478.675367 
L 192.926708 480.529742 
L 185.727422 482.89485 
L 182.837967 483.907764 
L 173.577104 487.539361 
L 167.156996 490.539161 
L 165.1847 491.614273 
L 160.201203 494.838242 
L 152.876111 500.279886 
L 151.666761 501.336038 
L 146.111055 507.048995 
L 142.42213 511.284067 
L 137.799815 517.848156 
L 133.270839 525.717674 
L 128.502428 536.006367 
L 123.494581 548.737153 
L 110.508269 584.888306 
L 105.390851 598.852758 
L 100.967389 608.942514 
L 96.389714 617.078954 
L 92.290909 622.73262 
L 92.290909 622.73262 
" style="fill:none;stroke:#000080;stroke-linecap:square;stroke-width:1.5;"/>
   </g>
   <g id="line2d_40">
    <path clip-path="url(#pd454879a26)" d="M 281.365289 630 
L 281.365289 470.117647 
" style="fill:none;stroke:#808080;stroke-linecap:square;stroke-opacity:0.2;stroke-width:5;"/>
   </g>
   <g id="patch_15">
    <path d="M 72 630 
L 72 470.117647 
" style="fill:none;stroke:#000000;stroke-linecap:square;stroke-linejoin:miter;stroke-width:0.8;"/>
   </g>
   <g id="patch_16">
    <path d="M 518.4 630 
L 518.4 470.117647 
" style="fill:none;stroke:#000000;stroke-linecap:square;stroke-linejoin:miter;stroke-width:0.8;"/>
   </g>
   <g id="patch_17">
    <path d="M 72 630 
L 518.4 630 
" style="fill:none;stroke:#000000;stroke-linecap:square;stroke-linejoin:miter;stroke-width:0.8;"/>
   </g>
   <g id="patch_18">
    <path d="M 72 470.117647 
L 518.4 470.117647 
" style="fill:none;stroke:#000000;stroke-linecap:square;stroke-linejoin:miter;stroke-width:0.8;"/>
   </g>
   <g id="text_27">
    <!-- Sauk-Tippecanoe -->
    <defs>
     <path d="M 9.078125 75.984375 
L 18.109375 75.984375 
L 18.109375 31.109375 
L 44.921875 54.6875 
L 56.390625 54.6875 
L 27.390625 29.109375 
L 57.625 0 
L 45.90625 0 
L 18.109375 26.703125 
L 18.109375 0 
L 9.078125 0 
z
" id="DejaVuSans-107"/>
     <path d="M 4.890625 31.390625 
L 31.203125 31.390625 
L 31.203125 23.390625 
L 4.890625 23.390625 
z
" id="DejaVuSans-45"/>
    </defs>
    <g transform="translate(265.905876 624.1842)rotate(-90)scale(0.1 -0.1)">
     <use xlink:href="#DejaVuSans-83"/>
     <use x="63.476562" xlink:href="#DejaVuSans-97"/>
     <use x="124.755859" xlink:href="#DejaVuSans-117"/>
     <use x="188.134766" xlink:href="#DejaVuSans-107"/>
     <use x="246.044922" xlink:href="#DejaVuSans-45"/>
     <use x="273.003906" xlink:href="#DejaVuSans-84"/>
     <use x="330.962891" xlink:href="#DejaVuSans-105"/>
     <use x="358.746094" xlink:href="#DejaVuSans-112"/>
     <use x="422.222656" xlink:href="#DejaVuSans-112"/>
     <use x="485.699219" xlink:href="#DejaVuSans-101"/>
     <use x="547.222656" xlink:href="#DejaVuSans-99"/>
     <use x="602.203125" xlink:href="#DejaVuSans-97"/>
     <use x="663.482422" xlink:href="#DejaVuSans-110"/>
     <use x="726.861328" xlink:href="#DejaVuSans-111"/>
     <use x="788.042969" xlink:href="#DejaVuSans-101"/>
    </g>
    <!-- Transgression (?) -->
    <g transform="translate(277.103688 624.1842)rotate(-90)scale(0.1 -0.1)">
     <use xlink:href="#DejaVuSans-84"/>
     <use x="46.333984" xlink:href="#DejaVuSans-114"/>
     <use x="87.447266" xlink:href="#DejaVuSans-97"/>
     <use x="148.726562" xlink:href="#DejaVuSans-110"/>
     <use x="212.105469" xlink:href="#DejaVuSans-115"/>
     <use x="264.205078" xlink:href="#DejaVuSans-103"/>
     <use x="327.681641" xlink:href="#DejaVuSans-114"/>
     <use x="366.544922" xlink:href="#DejaVuSans-101"/>
     <use x="428.068359" xlink:href="#DejaVuSans-115"/>
     <use x="480.167969" xlink:href="#DejaVuSans-115"/>
     <use x="532.267578" xlink:href="#DejaVuSans-105"/>
     <use x="560.050781" xlink:href="#DejaVuSans-111"/>
     <use x="621.232422" xlink:href="#DejaVuSans-110"/>
     <use x="684.611328" xlink:href="#DejaVuSans-32"/>
     <use x="716.398438" xlink:href="#DejaVuSans-40"/>
     <use x="755.412109" xlink:href="#DejaVuSans-63"/>
     <use x="808.488281" xlink:href="#DejaVuSans-41"/>
    </g>
   </g>
   <g id="legend_3">
    <g id="patch_19">
     <path d="M 351.996875 503.993585 
L 511.4 503.993585 
Q 513.4 503.993585 513.4 501.993585 
L 513.4 477.117647 
Q 513.4 475.117647 511.4 475.117647 
L 351.996875 475.117647 
Q 349.996875 475.117647 349.996875 477.117647 
L 349.996875 501.993585 
Q 349.996875 503.993585 351.996875 503.993585 
z
" style="fill:#ffffff;opacity:0.8;stroke:#cccccc;stroke-linejoin:miter;"/>
    </g>
    <g id="line2d_41">
     <path d="M 353.996875 489.854835 
L 373.996875 489.854835 
" style="fill:none;stroke:#000080;stroke-linecap:square;stroke-width:1.5;"/>
    </g>
    <g id="line2d_42"/>
    <g id="text_28">
     <!-- Sea Levels -->
     <g transform="translate(381.996875 486.716085)scale(0.1 -0.1)">
      <use xlink:href="#DejaVuSans-83"/>
      <use x="63.476562" xlink:href="#DejaVuSans-101"/>
      <use x="125" xlink:href="#DejaVuSans-97"/>
      <use x="186.279297" xlink:href="#DejaVuSans-32"/>
      <use x="218.066406" xlink:href="#DejaVuSans-76"/>
      <use x="272.029297" xlink:href="#DejaVuSans-101"/>
      <use x="333.552734" xlink:href="#DejaVuSans-118"/>
      <use x="392.732422" xlink:href="#DejaVuSans-101"/>
      <use x="454.255859" xlink:href="#DejaVuSans-108"/>
      <use x="482.039062" xlink:href="#DejaVuSans-115"/>
     </g>
     <!-- (Haq and Schutter, 2008) -->
     <defs>
      <path d="M 14.796875 27.296875 
Q 14.796875 17.390625 18.875 11.75 
Q 22.953125 6.109375 30.078125 6.109375 
Q 37.203125 6.109375 41.296875 11.75 
Q 45.40625 17.390625 45.40625 27.296875 
Q 45.40625 37.203125 41.296875 42.84375 
Q 37.203125 48.484375 30.078125 48.484375 
Q 22.953125 48.484375 18.875 42.84375 
Q 14.796875 37.203125 14.796875 27.296875 
z
M 45.40625 8.203125 
Q 42.578125 3.328125 38.25 0.953125 
Q 33.9375 -1.421875 27.875 -1.421875 
Q 17.96875 -1.421875 11.734375 6.484375 
Q 5.515625 14.40625 5.515625 27.296875 
Q 5.515625 40.1875 11.734375 48.09375 
Q 17.96875 56 27.875 56 
Q 33.9375 56 38.25 53.625 
Q 42.578125 51.265625 45.40625 46.390625 
L 45.40625 54.6875 
L 54.390625 54.6875 
L 54.390625 -20.796875 
L 45.40625 -20.796875 
z
" id="DejaVuSans-113"/>
      <path d="M 11.71875 12.40625 
L 22.015625 12.40625 
L 22.015625 4 
L 14.015625 -11.625 
L 7.71875 -11.625 
L 11.71875 4 
z
" id="DejaVuSans-44"/>
     </defs>
     <g transform="translate(381.996875 497.913897)scale(0.1 -0.1)">
      <use xlink:href="#DejaVuSans-40"/>
      <use x="39.013672" xlink:href="#DejaVuSans-72"/>
      <use x="114.208984" xlink:href="#DejaVuSans-97"/>
      <use x="175.488281" xlink:href="#DejaVuSans-113"/>
      <use x="238.964844" xlink:href="#DejaVuSans-32"/>
      <use x="270.751953" xlink:href="#DejaVuSans-97"/>
      <use x="332.03125" xlink:href="#DejaVuSans-110"/>
      <use x="395.410156" xlink:href="#DejaVuSans-100"/>
      <use x="458.886719" xlink:href="#DejaVuSans-32"/>
      <use x="490.673828" xlink:href="#DejaVuSans-83"/>
      <use x="554.150391" xlink:href="#DejaVuSans-99"/>
      <use x="609.130859" xlink:href="#DejaVuSans-104"/>
      <use x="672.509766" xlink:href="#DejaVuSans-117"/>
      <use x="735.888672" xlink:href="#DejaVuSans-116"/>
      <use x="775.097656" xlink:href="#DejaVuSans-116"/>
      <use x="814.306641" xlink:href="#DejaVuSans-101"/>
      <use x="875.830078" xlink:href="#DejaVuSans-114"/>
      <use x="916.943359" xlink:href="#DejaVuSans-44"/>
      <use x="948.730469" xlink:href="#DejaVuSans-32"/>
      <use x="980.517578" xlink:href="#DejaVuSans-50"/>
      <use x="1044.140625" xlink:href="#DejaVuSans-48"/>
      <use x="1107.763672" xlink:href="#DejaVuSans-48"/>
      <use x="1171.386719" xlink:href="#DejaVuSans-56"/>
      <use x="1235.009766" xlink:href="#DejaVuSans-41"/>
     </g>
    </g>
   </g>
  </g>
 </g>
 <defs>
  <clipPath id="p397acbc1b3">
   <rect height="159.882353" width="446.4" x="72" y="86.4"/>
  </clipPath>
  <clipPath id="p618d4cc583">
   <rect height="159.882353" width="446.4" x="72" y="278.258824"/>
  </clipPath>
  <clipPath id="pd454879a26">
   <rect height="159.882353" width="446.4" x="72" y="470.117647"/>
  </clipPath>
 </defs>
</svg>
