<?xml version="1.0" encoding="utf-8" standalone="no"?>
<!DOCTYPE svg PUBLIC "-//W3C//DTD SVG 1.1//EN"
  "http://www.w3.org/Graphics/SVG/1.1/DTD/svg11.dtd">
<!-- Created with matplotlib (https://matplotlib.org/) -->
<svg height="504pt" version="1.1" viewBox="0 0 720 504" width="720pt" xmlns="http://www.w3.org/2000/svg" xmlns:xlink="http://www.w3.org/1999/xlink">
 <defs>
  <style type="text/css">
*{stroke-linecap:butt;stroke-linejoin:round;}
  </style>
 </defs>
 <g id="figure_1">
  <g id="patch_1">
   <path d="M 0 504 
L 720 504 
L 720 0 
L 0 0 
z
" style="fill:#ffffff;"/>
  </g>
  <g id="axes_1">
   <g id="patch_2">
    <path d="M 71.725 223.85 
L 635.1 223.85 
L 635.1 10.8 
L 71.725 10.8 
z
" style="fill:#ffffff;"/>
   </g>
   <g id="PathCollection_1">
    <defs>
     <path d="M 0 3 
C 0.795609 3 1.55874 2.683901 2.12132 2.12132 
C 2.683901 1.55874 3 0.795609 3 0 
C 3 -0.795609 2.683901 -1.55874 2.12132 -2.12132 
C 1.55874 -2.683901 0.795609 -3 0 -3 
C -0.795609 -3 -1.55874 -2.683901 -2.12132 -2.12132 
C -2.683901 -1.55874 -3 -0.795609 -3 0 
C -3 0.795609 -2.683901 1.55874 -2.12132 2.12132 
C -1.55874 2.683901 -0.795609 3 0 3 
z
" id="m2985f40d72" style="stroke:#6b8e23;stroke-opacity:0.4;"/>
    </defs>
    <g clip-path="url(#paa0e3438a1)">
     <use style="fill:#6b8e23;fill-opacity:0.4;stroke:#6b8e23;stroke-opacity:0.4;" x="415.10439" xlink:href="#m2985f40d72" y="51.180845"/>
     <use style="fill:#6b8e23;fill-opacity:0.4;stroke:#6b8e23;stroke-opacity:0.4;" x="408.120403" xlink:href="#m2985f40d72" y="63.401726"/>
     <use style="fill:#6b8e23;fill-opacity:0.4;stroke:#6b8e23;stroke-opacity:0.4;" x="405.676007" xlink:href="#m2985f40d72" y="55.944917"/>
     <use style="fill:#6b8e23;fill-opacity:0.4;stroke:#6b8e23;stroke-opacity:0.4;" x="403.813611" xlink:href="#m2985f40d72" y="48.695242"/>
     <use style="fill:#6b8e23;fill-opacity:0.4;stroke:#6b8e23;stroke-opacity:0.4;" x="401.834814" xlink:href="#m2985f40d72" y="67.751531"/>
     <use style="fill:#6b8e23;fill-opacity:0.4;stroke:#6b8e23;stroke-opacity:0.4;" x="400.321617" xlink:href="#m2985f40d72" y="67.544398"/>
     <use style="fill:#6b8e23;fill-opacity:0.4;stroke:#6b8e23;stroke-opacity:0.4;" x="388.798037" xlink:href="#m2985f40d72" y="73.551272"/>
     <use style="fill:#6b8e23;fill-opacity:0.4;stroke:#6b8e23;stroke-opacity:0.4;" x="374.248063" xlink:href="#m2985f40d72" y="67.337264"/>
     <use style="fill:#6b8e23;fill-opacity:0.4;stroke:#6b8e23;stroke-opacity:0.4;" x="357.020894" xlink:href="#m2985f40d72" y="63.815993"/>
     <use style="fill:#6b8e23;fill-opacity:0.4;stroke:#6b8e23;stroke-opacity:0.4;" x="341.423321" xlink:href="#m2985f40d72" y="72.101337"/>
     <use style="fill:#6b8e23;fill-opacity:0.4;stroke:#6b8e23;stroke-opacity:0.4;" x="340.608523" xlink:href="#m2985f40d72" y="70.444268"/>
     <use style="fill:#6b8e23;fill-opacity:0.4;stroke:#6b8e23;stroke-opacity:0.4;" x="336.65093" xlink:href="#m2985f40d72" y="75.20834"/>
     <use style="fill:#6b8e23;fill-opacity:0.4;stroke:#6b8e23;stroke-opacity:0.4;" x="336.65093" xlink:href="#m2985f40d72" y="68.165799"/>
     <use style="fill:#6b8e23;fill-opacity:0.4;stroke:#6b8e23;stroke-opacity:0.4;" x="331.06374" xlink:href="#m2985f40d72" y="82.665149"/>
     <use style="fill:#6b8e23;fill-opacity:0.4;stroke:#6b8e23;stroke-opacity:0.4;" x="323.963352" xlink:href="#m2985f40d72" y="80.593814"/>
     <use style="fill:#6b8e23;fill-opacity:0.4;stroke:#6b8e23;stroke-opacity:0.4;" x="306.968982" xlink:href="#m2985f40d72" y="80.179546"/>
     <use style="fill:#6b8e23;fill-opacity:0.4;stroke:#6b8e23;stroke-opacity:0.4;" x="306.968982" xlink:href="#m2985f40d72" y="79.765279"/>
     <use style="fill:#6b8e23;fill-opacity:0.4;stroke:#6b8e23;stroke-opacity:0.4;" x="304.291787" xlink:href="#m2985f40d72" y="74.794073"/>
     <use style="fill:#6b8e23;fill-opacity:0.4;stroke:#6b8e23;stroke-opacity:0.4;" x="304.291787" xlink:href="#m2985f40d72" y="83.493684"/>
     <use style="fill:#6b8e23;fill-opacity:0.4;stroke:#6b8e23;stroke-opacity:0.4;" x="304.291787" xlink:href="#m2985f40d72" y="84.322218"/>
     <use style="fill:#6b8e23;fill-opacity:0.4;stroke:#6b8e23;stroke-opacity:0.4;" x="302.66219" xlink:href="#m2985f40d72" y="81.629481"/>
     <use style="fill:#6b8e23;fill-opacity:0.4;stroke:#6b8e23;stroke-opacity:0.4;" x="302.66219" xlink:href="#m2985f40d72" y="82.665149"/>
     <use style="fill:#6b8e23;fill-opacity:0.4;stroke:#6b8e23;stroke-opacity:0.4;" x="302.66219" xlink:href="#m2985f40d72" y="86.600687"/>
     <use style="fill:#6b8e23;fill-opacity:0.4;stroke:#6b8e23;stroke-opacity:0.4;" x="299.286596" xlink:href="#m2985f40d72" y="89.08629"/>
     <use style="fill:#6b8e23;fill-opacity:0.4;stroke:#6b8e23;stroke-opacity:0.4;" x="298.006198" xlink:href="#m2985f40d72" y="85.979287"/>
     <use style="fill:#6b8e23;fill-opacity:0.4;stroke:#6b8e23;stroke-opacity:0.4;" x="296.9586" xlink:href="#m2985f40d72" y="89.914825"/>
     <use style="fill:#6b8e23;fill-opacity:0.4;stroke:#6b8e23;stroke-opacity:0.4;" x="296.9586" xlink:href="#m2985f40d72" y="91.36476"/>
     <use style="fill:#6b8e23;fill-opacity:0.4;stroke:#6b8e23;stroke-opacity:0.4;" x="296.9586" xlink:href="#m2985f40d72" y="89.293424"/>
     <use style="fill:#6b8e23;fill-opacity:0.4;stroke:#6b8e23;stroke-opacity:0.4;" x="295.911002" xlink:href="#m2985f40d72" y="89.293424"/>
     <use style="fill:#6b8e23;fill-opacity:0.4;stroke:#6b8e23;stroke-opacity:0.4;" x="294.979804" xlink:href="#m2985f40d72" y="89.914825"/>
     <use style="fill:#6b8e23;fill-opacity:0.4;stroke:#6b8e23;stroke-opacity:0.4;" x="294.979804" xlink:href="#m2985f40d72" y="90.950493"/>
     <use style="fill:#6b8e23;fill-opacity:0.4;stroke:#6b8e23;stroke-opacity:0.4;" x="293.932206" xlink:href="#m2985f40d72" y="89.08629"/>
     <use style="fill:#6b8e23;fill-opacity:0.4;stroke:#6b8e23;stroke-opacity:0.4;" x="293.932206" xlink:href="#m2985f40d72" y="91.157626"/>
     <use style="fill:#6b8e23;fill-opacity:0.4;stroke:#6b8e23;stroke-opacity:0.4;" x="293.932206" xlink:href="#m2985f40d72" y="89.08629"/>
     <use style="fill:#6b8e23;fill-opacity:0.4;stroke:#6b8e23;stroke-opacity:0.4;" x="286.366219" xlink:href="#m2985f40d72" y="111.663851"/>
     <use style="fill:#6b8e23;fill-opacity:0.4;stroke:#6b8e23;stroke-opacity:0.4;" x="286.366219" xlink:href="#m2985f40d72" y="95.714565"/>
     <use style="fill:#6b8e23;fill-opacity:0.4;stroke:#6b8e23;stroke-opacity:0.4;" x="280.19703" xlink:href="#m2985f40d72" y="124.506133"/>
     <use style="fill:#6b8e23;fill-opacity:0.4;stroke:#6b8e23;stroke-opacity:0.4;" x="280.19703" xlink:href="#m2985f40d72" y="97.785901"/>
     <use style="fill:#6b8e23;fill-opacity:0.4;stroke:#6b8e23;stroke-opacity:0.4;" x="280.19703" xlink:href="#m2985f40d72" y="108.971114"/>
     <use style="fill:#6b8e23;fill-opacity:0.4;stroke:#6b8e23;stroke-opacity:0.4;" x="280.19703" xlink:href="#m2985f40d72" y="111.04245"/>
     <use style="fill:#6b8e23;fill-opacity:0.4;stroke:#6b8e23;stroke-opacity:0.4;" x="277.054236" xlink:href="#m2985f40d72" y="100.478637"/>
     <use style="fill:#6b8e23;fill-opacity:0.4;stroke:#6b8e23;stroke-opacity:0.4;" x="277.054236" xlink:href="#m2985f40d72" y="107.935446"/>
     <use style="fill:#6b8e23;fill-opacity:0.4;stroke:#6b8e23;stroke-opacity:0.4;" x="277.054236" xlink:href="#m2985f40d72" y="111.456717"/>
     <use style="fill:#6b8e23;fill-opacity:0.4;stroke:#6b8e23;stroke-opacity:0.4;" x="267.975052" xlink:href="#m2985f40d72" y="111.870985"/>
     <use style="fill:#6b8e23;fill-opacity:0.4;stroke:#6b8e23;stroke-opacity:0.4;" x="267.975052" xlink:href="#m2985f40d72" y="106.278378"/>
     <use style="fill:#6b8e23;fill-opacity:0.4;stroke:#6b8e23;stroke-opacity:0.4;" x="267.975052" xlink:href="#m2985f40d72" y="108.763981"/>
     <use style="fill:#6b8e23;fill-opacity:0.4;stroke:#6b8e23;stroke-opacity:0.4;" x="267.975052" xlink:href="#m2985f40d72" y="117.256458"/>
     <use style="fill:#6b8e23;fill-opacity:0.4;stroke:#6b8e23;stroke-opacity:0.4;" x="267.625852" xlink:href="#m2985f40d72" y="112.699519"/>
     <use style="fill:#6b8e23;fill-opacity:0.4;stroke:#6b8e23;stroke-opacity:0.4;" x="267.625852" xlink:href="#m2985f40d72" y="118.706393"/>
     <use style="fill:#6b8e23;fill-opacity:0.4;stroke:#6b8e23;stroke-opacity:0.4;" x="265.414256" xlink:href="#m2985f40d72" y="114.356588"/>
     <use style="fill:#6b8e23;fill-opacity:0.4;stroke:#6b8e23;stroke-opacity:0.4;" x="265.414256" xlink:href="#m2985f40d72" y="116.842191"/>
     <use style="fill:#6b8e23;fill-opacity:0.4;stroke:#6b8e23;stroke-opacity:0.4;" x="262.038662" xlink:href="#m2985f40d72" y="121.606263"/>
     <use style="fill:#6b8e23;fill-opacity:0.4;stroke:#6b8e23;stroke-opacity:0.4;" x="262.038662" xlink:href="#m2985f40d72" y="122.434797"/>
     <use style="fill:#6b8e23;fill-opacity:0.4;stroke:#6b8e23;stroke-opacity:0.4;" x="259.594267" xlink:href="#m2985f40d72" y="139.005484"/>
     <use style="fill:#6b8e23;fill-opacity:0.4;stroke:#6b8e23;stroke-opacity:0.4;" x="259.594267" xlink:href="#m2985f40d72" y="139.834018"/>
     <use style="fill:#6b8e23;fill-opacity:0.4;stroke:#6b8e23;stroke-opacity:0.4;" x="259.594267" xlink:href="#m2985f40d72" y="143.562423"/>
     <use style="fill:#6b8e23;fill-opacity:0.4;stroke:#6b8e23;stroke-opacity:0.4;" x="258.081069" xlink:href="#m2985f40d72" y="145.219491"/>
     <use style="fill:#6b8e23;fill-opacity:0.4;stroke:#6b8e23;stroke-opacity:0.4;" x="257.49907" xlink:href="#m2985f40d72" y="144.805224"/>
     <use style="fill:#6b8e23;fill-opacity:0.4;stroke:#6b8e23;stroke-opacity:0.4;" x="257.49907" xlink:href="#m2985f40d72" y="145.012358"/>
     <use style="fill:#6b8e23;fill-opacity:0.4;stroke:#6b8e23;stroke-opacity:0.4;" x="255.287474" xlink:href="#m2985f40d72" y="147.290827"/>
     <use style="fill:#6b8e23;fill-opacity:0.4;stroke:#6b8e23;stroke-opacity:0.4;" x="252.959478" xlink:href="#m2985f40d72" y="158.268907"/>
     <use style="fill:#6b8e23;fill-opacity:0.4;stroke:#6b8e23;stroke-opacity:0.4;" x="237.943905" xlink:href="#m2985f40d72" y="186.646208"/>
     <use style="fill:#6b8e23;fill-opacity:0.4;stroke:#6b8e23;stroke-opacity:0.4;" x="231.192717" xlink:href="#m2985f40d72" y="181.260735"/>
    </g>
   </g>
   <g id="matplotlib.axis_1">
    <g id="xtick_1">
     <g id="line2d_1">
      <defs>
       <path d="M 0 0 
L 0 3.5 
" id="m4e17902396" style="stroke:#000000;stroke-width:0.8;"/>
      </defs>
      <g>
       <use style="stroke:#000000;stroke-width:0.8;" x="178.81281" xlink:href="#m4e17902396" y="223.85"/>
      </g>
     </g>
    </g>
    <g id="xtick_2">
     <g id="line2d_2">
      <g>
       <use style="stroke:#000000;stroke-width:0.8;" x="295.212603" xlink:href="#m4e17902396" y="223.85"/>
      </g>
     </g>
    </g>
    <g id="xtick_3">
     <g id="line2d_3">
      <g>
       <use style="stroke:#000000;stroke-width:0.8;" x="411.612397" xlink:href="#m4e17902396" y="223.85"/>
      </g>
     </g>
    </g>
    <g id="xtick_4">
     <g id="line2d_4">
      <g>
       <use style="stroke:#000000;stroke-width:0.8;" x="528.01219" xlink:href="#m4e17902396" y="223.85"/>
      </g>
     </g>
    </g>
   </g>
   <g id="matplotlib.axis_2">
    <g id="ytick_1">
     <g id="line2d_5">
      <defs>
       <path d="M 0 0 
L -3.5 0 
" id="m06b1eb689f" style="stroke:#000000;stroke-width:0.8;"/>
      </defs>
      <g>
       <use style="stroke:#000000;stroke-width:0.8;" x="71.725" xlink:href="#m06b1eb689f" y="217.094845"/>
      </g>
     </g>
     <g id="text_1">
      <!-- 0.7080 -->
      <defs>
       <path d="M 31.78125 66.40625 
Q 24.171875 66.40625 20.328125 58.90625 
Q 16.5 51.421875 16.5 36.375 
Q 16.5 21.390625 20.328125 13.890625 
Q 24.171875 6.390625 31.78125 6.390625 
Q 39.453125 6.390625 43.28125 13.890625 
Q 47.125 21.390625 47.125 36.375 
Q 47.125 51.421875 43.28125 58.90625 
Q 39.453125 66.40625 31.78125 66.40625 
z
M 31.78125 74.21875 
Q 44.046875 74.21875 50.515625 64.515625 
Q 56.984375 54.828125 56.984375 36.375 
Q 56.984375 17.96875 50.515625 8.265625 
Q 44.046875 -1.421875 31.78125 -1.421875 
Q 19.53125 -1.421875 13.0625 8.265625 
Q 6.59375 17.96875 6.59375 36.375 
Q 6.59375 54.828125 13.0625 64.515625 
Q 19.53125 74.21875 31.78125 74.21875 
z
" id="DejaVuSans-48"/>
       <path d="M 10.6875 12.40625 
L 21 12.40625 
L 21 0 
L 10.6875 0 
z
" id="DejaVuSans-46"/>
       <path d="M 8.203125 72.90625 
L 55.078125 72.90625 
L 55.078125 68.703125 
L 28.609375 0 
L 18.3125 0 
L 43.21875 64.59375 
L 8.203125 64.59375 
z
" id="DejaVuSans-55"/>
       <path d="M 31.78125 34.625 
Q 24.75 34.625 20.71875 30.859375 
Q 16.703125 27.09375 16.703125 20.515625 
Q 16.703125 13.921875 20.71875 10.15625 
Q 24.75 6.390625 31.78125 6.390625 
Q 38.8125 6.390625 42.859375 10.171875 
Q 46.921875 13.96875 46.921875 20.515625 
Q 46.921875 27.09375 42.890625 30.859375 
Q 38.875 34.625 31.78125 34.625 
z
M 21.921875 38.8125 
Q 15.578125 40.375 12.03125 44.71875 
Q 8.5 49.078125 8.5 55.328125 
Q 8.5 64.0625 14.71875 69.140625 
Q 20.953125 74.21875 31.78125 74.21875 
Q 42.671875 74.21875 48.875 69.140625 
Q 55.078125 64.0625 55.078125 55.328125 
Q 55.078125 49.078125 51.53125 44.71875 
Q 48 40.375 41.703125 38.8125 
Q 48.828125 37.15625 52.796875 32.3125 
Q 56.78125 27.484375 56.78125 20.515625 
Q 56.78125 9.90625 50.3125 4.234375 
Q 43.84375 -1.421875 31.78125 -1.421875 
Q 19.734375 -1.421875 13.25 4.234375 
Q 6.78125 9.90625 6.78125 20.515625 
Q 6.78125 27.484375 10.78125 32.3125 
Q 14.796875 37.15625 21.921875 38.8125 
z
M 18.3125 54.390625 
Q 18.3125 48.734375 21.84375 45.5625 
Q 25.390625 42.390625 31.78125 42.390625 
Q 38.140625 42.390625 41.71875 45.5625 
Q 45.3125 48.734375 45.3125 54.390625 
Q 45.3125 60.0625 41.71875 63.234375 
Q 38.140625 66.40625 31.78125 66.40625 
Q 25.390625 66.40625 21.84375 63.234375 
Q 18.3125 60.0625 18.3125 54.390625 
z
" id="DejaVuSans-56"/>
      </defs>
      <g transform="translate(29.734375 220.894063)scale(0.1 -0.1)">
       <use xlink:href="#DejaVuSans-48"/>
       <use x="63.623047" xlink:href="#DejaVuSans-46"/>
       <use x="95.410156" xlink:href="#DejaVuSans-55"/>
       <use x="159.033203" xlink:href="#DejaVuSans-48"/>
       <use x="222.65625" xlink:href="#DejaVuSans-56"/>
       <use x="286.279297" xlink:href="#DejaVuSans-48"/>
      </g>
     </g>
    </g>
    <g id="ytick_2">
     <g id="line2d_6">
      <g>
       <use style="stroke:#000000;stroke-width:0.8;" x="71.725" xlink:href="#m06b1eb689f" y="175.668128"/>
      </g>
     </g>
     <g id="text_2">
      <!-- 0.7082 -->
      <defs>
       <path d="M 19.1875 8.296875 
L 53.609375 8.296875 
L 53.609375 0 
L 7.328125 0 
L 7.328125 8.296875 
Q 12.9375 14.109375 22.625 23.890625 
Q 32.328125 33.6875 34.8125 36.53125 
Q 39.546875 41.84375 41.421875 45.53125 
Q 43.3125 49.21875 43.3125 52.78125 
Q 43.3125 58.59375 39.234375 62.25 
Q 35.15625 65.921875 28.609375 65.921875 
Q 23.96875 65.921875 18.8125 64.3125 
Q 13.671875 62.703125 7.8125 59.421875 
L 7.8125 69.390625 
Q 13.765625 71.78125 18.9375 73 
Q 24.125 74.21875 28.421875 74.21875 
Q 39.75 74.21875 46.484375 68.546875 
Q 53.21875 62.890625 53.21875 53.421875 
Q 53.21875 48.921875 51.53125 44.890625 
Q 49.859375 40.875 45.40625 35.40625 
Q 44.1875 33.984375 37.640625 27.21875 
Q 31.109375 20.453125 19.1875 8.296875 
z
" id="DejaVuSans-50"/>
      </defs>
      <g transform="translate(29.734375 179.467347)scale(0.1 -0.1)">
       <use xlink:href="#DejaVuSans-48"/>
       <use x="63.623047" xlink:href="#DejaVuSans-46"/>
       <use x="95.410156" xlink:href="#DejaVuSans-55"/>
       <use x="159.033203" xlink:href="#DejaVuSans-48"/>
       <use x="222.65625" xlink:href="#DejaVuSans-56"/>
       <use x="286.279297" xlink:href="#DejaVuSans-50"/>
      </g>
     </g>
    </g>
    <g id="ytick_3">
     <g id="line2d_7">
      <g>
       <use style="stroke:#000000;stroke-width:0.8;" x="71.725" xlink:href="#m06b1eb689f" y="134.241411"/>
      </g>
     </g>
     <g id="text_3">
      <!-- 0.7084 -->
      <defs>
       <path d="M 37.796875 64.3125 
L 12.890625 25.390625 
L 37.796875 25.390625 
z
M 35.203125 72.90625 
L 47.609375 72.90625 
L 47.609375 25.390625 
L 58.015625 25.390625 
L 58.015625 17.1875 
L 47.609375 17.1875 
L 47.609375 0 
L 37.796875 0 
L 37.796875 17.1875 
L 4.890625 17.1875 
L 4.890625 26.703125 
z
" id="DejaVuSans-52"/>
      </defs>
      <g transform="translate(29.734375 138.04063)scale(0.1 -0.1)">
       <use xlink:href="#DejaVuSans-48"/>
       <use x="63.623047" xlink:href="#DejaVuSans-46"/>
       <use x="95.410156" xlink:href="#DejaVuSans-55"/>
       <use x="159.033203" xlink:href="#DejaVuSans-48"/>
       <use x="222.65625" xlink:href="#DejaVuSans-56"/>
       <use x="286.279297" xlink:href="#DejaVuSans-52"/>
      </g>
     </g>
    </g>
    <g id="ytick_4">
     <g id="line2d_8">
      <g>
       <use style="stroke:#000000;stroke-width:0.8;" x="71.725" xlink:href="#m06b1eb689f" y="92.814695"/>
      </g>
     </g>
     <g id="text_4">
      <!-- 0.7086 -->
      <defs>
       <path d="M 33.015625 40.375 
Q 26.375 40.375 22.484375 35.828125 
Q 18.609375 31.296875 18.609375 23.390625 
Q 18.609375 15.53125 22.484375 10.953125 
Q 26.375 6.390625 33.015625 6.390625 
Q 39.65625 6.390625 43.53125 10.953125 
Q 47.40625 15.53125 47.40625 23.390625 
Q 47.40625 31.296875 43.53125 35.828125 
Q 39.65625 40.375 33.015625 40.375 
z
M 52.59375 71.296875 
L 52.59375 62.3125 
Q 48.875 64.0625 45.09375 64.984375 
Q 41.3125 65.921875 37.59375 65.921875 
Q 27.828125 65.921875 22.671875 59.328125 
Q 17.53125 52.734375 16.796875 39.40625 
Q 19.671875 43.65625 24.015625 45.921875 
Q 28.375 48.1875 33.59375 48.1875 
Q 44.578125 48.1875 50.953125 41.515625 
Q 57.328125 34.859375 57.328125 23.390625 
Q 57.328125 12.15625 50.6875 5.359375 
Q 44.046875 -1.421875 33.015625 -1.421875 
Q 20.359375 -1.421875 13.671875 8.265625 
Q 6.984375 17.96875 6.984375 36.375 
Q 6.984375 53.65625 15.1875 63.9375 
Q 23.390625 74.21875 37.203125 74.21875 
Q 40.921875 74.21875 44.703125 73.484375 
Q 48.484375 72.75 52.59375 71.296875 
z
" id="DejaVuSans-54"/>
      </defs>
      <g transform="translate(29.734375 96.613914)scale(0.1 -0.1)">
       <use xlink:href="#DejaVuSans-48"/>
       <use x="63.623047" xlink:href="#DejaVuSans-46"/>
       <use x="95.410156" xlink:href="#DejaVuSans-55"/>
       <use x="159.033203" xlink:href="#DejaVuSans-48"/>
       <use x="222.65625" xlink:href="#DejaVuSans-56"/>
       <use x="286.279297" xlink:href="#DejaVuSans-54"/>
      </g>
     </g>
    </g>
    <g id="ytick_5">
     <g id="line2d_9">
      <g>
       <use style="stroke:#000000;stroke-width:0.8;" x="71.725" xlink:href="#m06b1eb689f" y="51.387978"/>
      </g>
     </g>
     <g id="text_5">
      <!-- 0.7088 -->
      <g transform="translate(29.734375 55.187197)scale(0.1 -0.1)">
       <use xlink:href="#DejaVuSans-48"/>
       <use x="63.623047" xlink:href="#DejaVuSans-46"/>
       <use x="95.410156" xlink:href="#DejaVuSans-55"/>
       <use x="159.033203" xlink:href="#DejaVuSans-48"/>
       <use x="222.65625" xlink:href="#DejaVuSans-56"/>
       <use x="286.279297" xlink:href="#DejaVuSans-56"/>
      </g>
     </g>
    </g>
    <g id="text_6">
     <!-- $^{87}Sr/^{86}Sr$ -->
     <defs>
      <path d="M 60.296875 70.515625 
L 58.40625 60.890625 
Q 53.46875 63.53125 48.609375 64.875 
Q 43.75 66.21875 39.203125 66.21875 
Q 30.375 66.21875 25.140625 62.359375 
Q 19.921875 58.5 19.921875 52.09375 
Q 19.921875 48.578125 21.84375 46.703125 
Q 23.78125 44.828125 31.78125 42.671875 
L 37.703125 41.21875 
Q 47.703125 38.625 51.609375 34.640625 
Q 55.515625 30.671875 55.515625 23.484375 
Q 55.515625 12.453125 46.84375 5.515625 
Q 38.1875 -1.421875 24.03125 -1.421875 
Q 18.21875 -1.421875 12.359375 -0.265625 
Q 6.5 0.875 0.59375 3.21875 
L 2.59375 13.375 
Q 8.015625 10.015625 13.453125 8.296875 
Q 18.890625 6.59375 24.3125 6.59375 
Q 33.546875 6.59375 39.109375 10.6875 
Q 44.671875 14.796875 44.671875 21.390625 
Q 44.671875 25.78125 42.453125 28.046875 
Q 40.234375 30.328125 32.90625 32.171875 
L 27 33.6875 
Q 16.890625 36.328125 13.203125 39.765625 
Q 9.515625 43.21875 9.515625 49.421875 
Q 9.515625 60.296875 17.890625 67.25 
Q 26.265625 74.21875 39.703125 74.21875 
Q 44.921875 74.21875 50.046875 73.28125 
Q 55.171875 72.359375 60.296875 70.515625 
z
" id="DejaVuSans-Oblique-83"/>
      <path d="M 44.578125 46.390625 
Q 43.21875 47.125 41.453125 47.515625 
Q 39.703125 47.90625 37.703125 47.90625 
Q 30.515625 47.90625 25.140625 42.453125 
Q 19.78125 37.015625 18.015625 27.875 
L 12.5 0 
L 3.515625 0 
L 14.203125 54.6875 
L 23.1875 54.6875 
L 21.484375 46.1875 
Q 25.046875 50.921875 30 53.453125 
Q 34.96875 56 40.578125 56 
Q 42.046875 56 43.453125 55.828125 
Q 44.875 55.671875 46.296875 55.28125 
z
" id="DejaVuSans-Oblique-114"/>
      <path d="M 25.390625 72.90625 
L 33.6875 72.90625 
L 8.296875 -9.28125 
L 0 -9.28125 
z
" id="DejaVuSans-47"/>
     </defs>
     <g transform="translate(23.654687 138.775)rotate(-90)scale(0.1 -0.1)">
      <use transform="translate(0.957031 39.046875)scale(0.7)" xlink:href="#DejaVuSans-56"/>
      <use transform="translate(45.493164 39.046875)scale(0.7)" xlink:href="#DejaVuSans-55"/>
      <use transform="translate(92.763672 0.765625)" xlink:href="#DejaVuSans-Oblique-83"/>
      <use transform="translate(156.240234 0.765625)" xlink:href="#DejaVuSans-Oblique-114"/>
      <use transform="translate(197.353516 0.765625)" xlink:href="#DejaVuSans-47"/>
      <use transform="translate(232.001953 39.046875)scale(0.7)" xlink:href="#DejaVuSans-56"/>
      <use transform="translate(276.538086 39.046875)scale(0.7)" xlink:href="#DejaVuSans-54"/>
      <use transform="translate(323.808594 0.765625)" xlink:href="#DejaVuSans-Oblique-83"/>
      <use transform="translate(387.285156 0.765625)" xlink:href="#DejaVuSans-Oblique-114"/>
     </g>
    </g>
   </g>
   <g id="line2d_10">
    <path clip-path="url(#paa0e3438a1)" d="M 609.492045 20.484091 
L 602.306382 20.595121 
L 594.654648 20.9382 
L 586.470264 21.530423 
L 577.666161 22.393347 
L 568.134785 23.554161 
L 557.737852 25.047852 
L 546.28586 26.921722 
L 533.527849 29.239135 
L 519.100184 32.091033 
L 502.444603 35.616136 
L 482.618727 40.047232 
L 457.778762 45.837518 
L 423.043786 54.180948 
L 299.724886 84.208535 
L 298.162786 84.903713 
L 296.528982 85.87906 
L 294.813232 87.167983 
L 293.00017 88.814673 
L 291.079555 90.866418 
L 289.036019 93.382863 
L 286.859321 96.424869 
L 284.539218 100.058316 
L 282.060343 104.362795 
L 279.407332 109.424933 
L 270.439337 127.053339 
L 266.843944 133.324808 
L 263.217821 139.206715 
L 259.550726 144.734331 
L 255.842657 149.924069 
L 252.088493 154.798376 
L 248.277991 159.383349 
L 244.40603 163.695823 
L 240.467487 167.751028 
L 236.45212 171.567467 
L 232.349684 175.160949 
L 228.149938 178.544967 
L 223.837515 181.734671 
L 219.402173 184.738999 
L 214.823425 187.571671 
L 210.091028 190.23769 
L 205.179373 192.748941 
L 200.067974 195.11175 
L 194.731223 197.332694 
L 189.13839 199.417976 
L 183.258744 201.37136 
L 177.051314 203.19766 
L 170.470004 204.900356 
L 163.453354 206.48376 
L 155.939905 207.94889 
L 147.842589 209.298614 
L 139.058973 210.534316 
L 129.455894 211.657457 
L 118.854095 212.669693 
L 107.028223 213.571171 
L 97.332955 214.165909 
L 97.332955 214.165909 
" style="fill:none;stroke:#800000;stroke-linecap:square;stroke-width:1.5;"/>
   </g>
   <g id="line2d_11">
    <path clip-path="url(#paa0e3438a1)" d="M 231.169437 181.81896 
L 237.978825 171.376734 
L 252.959478 148.3702 
L 255.229274 144.997651 
L 257.49907 141.679786 
L 258.043821 140.887292 
L 259.541887 138.67987 
L 262.038662 134.948358 
L 265.39796 129.957682 
L 267.576964 126.827272 
L 267.940132 126.316066 
L 277.019316 113.426972 
L 280.19703 109.035533 
L 286.399476 101.010557 
L 293.88232 92.880563 
L 294.921604 91.899786 
L 295.960888 90.931436 
L 297.000171 90.011349 
L 298.039455 89.175772 
L 299.286596 88.277434 
L 302.612305 86.231575 
L 304.275158 85.373628 
L 306.977297 84.169561 
L 323.924553 78.462616 
L 331.08314 76.23448 
L 336.65093 74.993957 
L 340.627923 74.046321 
L 341.423321 73.830488 
L 357.008448 69.921877 
L 374.250471 66.280262 
L 388.839877 63.365892 
L 400.299533 60.953614 
L 401.871776 60.603973 
L 403.758465 60.182456 
L 405.723767 59.745818 
L 408.148793 59.208721 
L 415.10439 57.666404 
" style="fill:none;stroke:#6b8e23;stroke-linecap:square;stroke-width:1.5;"/>
   </g>
   <g id="patch_3">
    <path d="M 71.725 223.85 
L 71.725 10.8 
" style="fill:none;stroke:#000000;stroke-linecap:square;stroke-linejoin:miter;stroke-width:0.8;"/>
   </g>
   <g id="patch_4">
    <path d="M 635.1 223.85 
L 635.1 10.8 
" style="fill:none;stroke:#000000;stroke-linecap:square;stroke-linejoin:miter;stroke-width:0.8;"/>
   </g>
   <g id="patch_5">
    <path d="M 71.725 223.85 
L 635.1 223.85 
" style="fill:none;stroke:#000000;stroke-linecap:square;stroke-linejoin:miter;stroke-width:0.8;"/>
   </g>
   <g id="patch_6">
    <path d="M 71.725 10.8 
L 635.1 10.8 
" style="fill:none;stroke:#000000;stroke-linecap:square;stroke-linejoin:miter;stroke-width:0.8;"/>
   </g>
   <g id="legend_1">
    <g id="patch_7">
     <path d="M 490.298437 140.842188 
L 628.1 140.842188 
Q 630.1 140.842188 630.1 138.842188 
L 630.1 95.807813 
Q 630.1 93.807813 628.1 93.807813 
L 490.298437 93.807813 
Q 488.298437 93.807813 488.298437 95.807813 
L 488.298437 138.842188 
Q 488.298437 140.842188 490.298437 140.842188 
z
" style="fill:#ffffff;opacity:0.8;stroke:#cccccc;stroke-linejoin:miter;"/>
    </g>
    <g id="line2d_12">
     <path d="M 492.298437 101.90625 
L 512.298437 101.90625 
" style="fill:none;stroke:#800000;stroke-linecap:square;stroke-width:1.5;"/>
    </g>
    <g id="line2d_13"/>
    <g id="text_7">
     <!-- Unconstrained Model -->
     <defs>
      <path d="M 8.6875 72.90625 
L 18.609375 72.90625 
L 18.609375 28.609375 
Q 18.609375 16.890625 22.84375 11.734375 
Q 27.09375 6.59375 36.625 6.59375 
Q 46.09375 6.59375 50.34375 11.734375 
Q 54.59375 16.890625 54.59375 28.609375 
L 54.59375 72.90625 
L 64.5 72.90625 
L 64.5 27.390625 
Q 64.5 13.140625 57.4375 5.859375 
Q 50.390625 -1.421875 36.625 -1.421875 
Q 22.796875 -1.421875 15.734375 5.859375 
Q 8.6875 13.140625 8.6875 27.390625 
z
" id="DejaVuSans-85"/>
      <path d="M 54.890625 33.015625 
L 54.890625 0 
L 45.90625 0 
L 45.90625 32.71875 
Q 45.90625 40.484375 42.875 44.328125 
Q 39.84375 48.1875 33.796875 48.1875 
Q 26.515625 48.1875 22.3125 43.546875 
Q 18.109375 38.921875 18.109375 30.90625 
L 18.109375 0 
L 9.078125 0 
L 9.078125 54.6875 
L 18.109375 54.6875 
L 18.109375 46.1875 
Q 21.34375 51.125 25.703125 53.5625 
Q 30.078125 56 35.796875 56 
Q 45.21875 56 50.046875 50.171875 
Q 54.890625 44.34375 54.890625 33.015625 
z
" id="DejaVuSans-110"/>
      <path d="M 48.78125 52.59375 
L 48.78125 44.1875 
Q 44.96875 46.296875 41.140625 47.34375 
Q 37.3125 48.390625 33.40625 48.390625 
Q 24.65625 48.390625 19.8125 42.84375 
Q 14.984375 37.3125 14.984375 27.296875 
Q 14.984375 17.28125 19.8125 11.734375 
Q 24.65625 6.203125 33.40625 6.203125 
Q 37.3125 6.203125 41.140625 7.25 
Q 44.96875 8.296875 48.78125 10.40625 
L 48.78125 2.09375 
Q 45.015625 0.34375 40.984375 -0.53125 
Q 36.96875 -1.421875 32.421875 -1.421875 
Q 20.0625 -1.421875 12.78125 6.34375 
Q 5.515625 14.109375 5.515625 27.296875 
Q 5.515625 40.671875 12.859375 48.328125 
Q 20.21875 56 33.015625 56 
Q 37.15625 56 41.109375 55.140625 
Q 45.0625 54.296875 48.78125 52.59375 
z
" id="DejaVuSans-99"/>
      <path d="M 30.609375 48.390625 
Q 23.390625 48.390625 19.1875 42.75 
Q 14.984375 37.109375 14.984375 27.296875 
Q 14.984375 17.484375 19.15625 11.84375 
Q 23.34375 6.203125 30.609375 6.203125 
Q 37.796875 6.203125 41.984375 11.859375 
Q 46.1875 17.53125 46.1875 27.296875 
Q 46.1875 37.015625 41.984375 42.703125 
Q 37.796875 48.390625 30.609375 48.390625 
z
M 30.609375 56 
Q 42.328125 56 49.015625 48.375 
Q 55.71875 40.765625 55.71875 27.296875 
Q 55.71875 13.875 49.015625 6.21875 
Q 42.328125 -1.421875 30.609375 -1.421875 
Q 18.84375 -1.421875 12.171875 6.21875 
Q 5.515625 13.875 5.515625 27.296875 
Q 5.515625 40.765625 12.171875 48.375 
Q 18.84375 56 30.609375 56 
z
" id="DejaVuSans-111"/>
      <path d="M 44.28125 53.078125 
L 44.28125 44.578125 
Q 40.484375 46.53125 36.375 47.5 
Q 32.28125 48.484375 27.875 48.484375 
Q 21.1875 48.484375 17.84375 46.4375 
Q 14.5 44.390625 14.5 40.28125 
Q 14.5 37.15625 16.890625 35.375 
Q 19.28125 33.59375 26.515625 31.984375 
L 29.59375 31.296875 
Q 39.15625 29.25 43.1875 25.515625 
Q 47.21875 21.78125 47.21875 15.09375 
Q 47.21875 7.46875 41.1875 3.015625 
Q 35.15625 -1.421875 24.609375 -1.421875 
Q 20.21875 -1.421875 15.453125 -0.5625 
Q 10.6875 0.296875 5.421875 2 
L 5.421875 11.28125 
Q 10.40625 8.6875 15.234375 7.390625 
Q 20.0625 6.109375 24.8125 6.109375 
Q 31.15625 6.109375 34.5625 8.28125 
Q 37.984375 10.453125 37.984375 14.40625 
Q 37.984375 18.0625 35.515625 20.015625 
Q 33.0625 21.96875 24.703125 23.78125 
L 21.578125 24.515625 
Q 13.234375 26.265625 9.515625 29.90625 
Q 5.8125 33.546875 5.8125 39.890625 
Q 5.8125 47.609375 11.28125 51.796875 
Q 16.75 56 26.8125 56 
Q 31.78125 56 36.171875 55.265625 
Q 40.578125 54.546875 44.28125 53.078125 
z
" id="DejaVuSans-115"/>
      <path d="M 18.3125 70.21875 
L 18.3125 54.6875 
L 36.8125 54.6875 
L 36.8125 47.703125 
L 18.3125 47.703125 
L 18.3125 18.015625 
Q 18.3125 11.328125 20.140625 9.421875 
Q 21.96875 7.515625 27.59375 7.515625 
L 36.8125 7.515625 
L 36.8125 0 
L 27.59375 0 
Q 17.1875 0 13.234375 3.875 
Q 9.28125 7.765625 9.28125 18.015625 
L 9.28125 47.703125 
L 2.6875 47.703125 
L 2.6875 54.6875 
L 9.28125 54.6875 
L 9.28125 70.21875 
z
" id="DejaVuSans-116"/>
      <path d="M 41.109375 46.296875 
Q 39.59375 47.171875 37.8125 47.578125 
Q 36.03125 48 33.890625 48 
Q 26.265625 48 22.1875 43.046875 
Q 18.109375 38.09375 18.109375 28.8125 
L 18.109375 0 
L 9.078125 0 
L 9.078125 54.6875 
L 18.109375 54.6875 
L 18.109375 46.1875 
Q 20.953125 51.171875 25.484375 53.578125 
Q 30.03125 56 36.53125 56 
Q 37.453125 56 38.578125 55.875 
Q 39.703125 55.765625 41.0625 55.515625 
z
" id="DejaVuSans-114"/>
      <path d="M 34.28125 27.484375 
Q 23.390625 27.484375 19.1875 25 
Q 14.984375 22.515625 14.984375 16.5 
Q 14.984375 11.71875 18.140625 8.90625 
Q 21.296875 6.109375 26.703125 6.109375 
Q 34.1875 6.109375 38.703125 11.40625 
Q 43.21875 16.703125 43.21875 25.484375 
L 43.21875 27.484375 
z
M 52.203125 31.203125 
L 52.203125 0 
L 43.21875 0 
L 43.21875 8.296875 
Q 40.140625 3.328125 35.546875 0.953125 
Q 30.953125 -1.421875 24.3125 -1.421875 
Q 15.921875 -1.421875 10.953125 3.296875 
Q 6 8.015625 6 15.921875 
Q 6 25.140625 12.171875 29.828125 
Q 18.359375 34.515625 30.609375 34.515625 
L 43.21875 34.515625 
L 43.21875 35.40625 
Q 43.21875 41.609375 39.140625 45 
Q 35.0625 48.390625 27.6875 48.390625 
Q 23 48.390625 18.546875 47.265625 
Q 14.109375 46.140625 10.015625 43.890625 
L 10.015625 52.203125 
Q 14.9375 54.109375 19.578125 55.046875 
Q 24.21875 56 28.609375 56 
Q 40.484375 56 46.34375 49.84375 
Q 52.203125 43.703125 52.203125 31.203125 
z
" id="DejaVuSans-97"/>
      <path d="M 9.421875 54.6875 
L 18.40625 54.6875 
L 18.40625 0 
L 9.421875 0 
z
M 9.421875 75.984375 
L 18.40625 75.984375 
L 18.40625 64.59375 
L 9.421875 64.59375 
z
" id="DejaVuSans-105"/>
      <path d="M 56.203125 29.59375 
L 56.203125 25.203125 
L 14.890625 25.203125 
Q 15.484375 15.921875 20.484375 11.0625 
Q 25.484375 6.203125 34.421875 6.203125 
Q 39.59375 6.203125 44.453125 7.46875 
Q 49.3125 8.734375 54.109375 11.28125 
L 54.109375 2.78125 
Q 49.265625 0.734375 44.1875 -0.34375 
Q 39.109375 -1.421875 33.890625 -1.421875 
Q 20.796875 -1.421875 13.15625 6.1875 
Q 5.515625 13.8125 5.515625 26.8125 
Q 5.515625 40.234375 12.765625 48.109375 
Q 20.015625 56 32.328125 56 
Q 43.359375 56 49.78125 48.890625 
Q 56.203125 41.796875 56.203125 29.59375 
z
M 47.21875 32.234375 
Q 47.125 39.59375 43.09375 43.984375 
Q 39.0625 48.390625 32.421875 48.390625 
Q 24.90625 48.390625 20.390625 44.140625 
Q 15.875 39.890625 15.1875 32.171875 
z
" id="DejaVuSans-101"/>
      <path d="M 45.40625 46.390625 
L 45.40625 75.984375 
L 54.390625 75.984375 
L 54.390625 0 
L 45.40625 0 
L 45.40625 8.203125 
Q 42.578125 3.328125 38.25 0.953125 
Q 33.9375 -1.421875 27.875 -1.421875 
Q 17.96875 -1.421875 11.734375 6.484375 
Q 5.515625 14.40625 5.515625 27.296875 
Q 5.515625 40.1875 11.734375 48.09375 
Q 17.96875 56 27.875 56 
Q 33.9375 56 38.25 53.625 
Q 42.578125 51.265625 45.40625 46.390625 
z
M 14.796875 27.296875 
Q 14.796875 17.390625 18.875 11.75 
Q 22.953125 6.109375 30.078125 6.109375 
Q 37.203125 6.109375 41.296875 11.75 
Q 45.40625 17.390625 45.40625 27.296875 
Q 45.40625 37.203125 41.296875 42.84375 
Q 37.203125 48.484375 30.078125 48.484375 
Q 22.953125 48.484375 18.875 42.84375 
Q 14.796875 37.203125 14.796875 27.296875 
z
" id="DejaVuSans-100"/>
      <path id="DejaVuSans-32"/>
      <path d="M 9.8125 72.90625 
L 24.515625 72.90625 
L 43.109375 23.296875 
L 61.8125 72.90625 
L 76.515625 72.90625 
L 76.515625 0 
L 66.890625 0 
L 66.890625 64.015625 
L 48.09375 14.015625 
L 38.1875 14.015625 
L 19.390625 64.015625 
L 19.390625 0 
L 9.8125 0 
z
" id="DejaVuSans-77"/>
      <path d="M 9.421875 75.984375 
L 18.40625 75.984375 
L 18.40625 0 
L 9.421875 0 
z
" id="DejaVuSans-108"/>
     </defs>
     <g transform="translate(520.298437 105.40625)scale(0.1 -0.1)">
      <use xlink:href="#DejaVuSans-85"/>
      <use x="73.193359" xlink:href="#DejaVuSans-110"/>
      <use x="136.572266" xlink:href="#DejaVuSans-99"/>
      <use x="191.552734" xlink:href="#DejaVuSans-111"/>
      <use x="252.734375" xlink:href="#DejaVuSans-110"/>
      <use x="316.113281" xlink:href="#DejaVuSans-115"/>
      <use x="368.212891" xlink:href="#DejaVuSans-116"/>
      <use x="407.421875" xlink:href="#DejaVuSans-114"/>
      <use x="448.535156" xlink:href="#DejaVuSans-97"/>
      <use x="509.814453" xlink:href="#DejaVuSans-105"/>
      <use x="537.597656" xlink:href="#DejaVuSans-110"/>
      <use x="600.976562" xlink:href="#DejaVuSans-101"/>
      <use x="662.5" xlink:href="#DejaVuSans-100"/>
      <use x="725.976562" xlink:href="#DejaVuSans-32"/>
      <use x="757.763672" xlink:href="#DejaVuSans-77"/>
      <use x="844.042969" xlink:href="#DejaVuSans-111"/>
      <use x="905.224609" xlink:href="#DejaVuSans-100"/>
      <use x="968.701172" xlink:href="#DejaVuSans-101"/>
      <use x="1030.224609" xlink:href="#DejaVuSans-108"/>
     </g>
    </g>
    <g id="line2d_14">
     <path d="M 492.298437 116.584375 
L 512.298437 116.584375 
" style="fill:none;stroke:#6b8e23;stroke-linecap:square;stroke-width:1.5;"/>
    </g>
    <g id="line2d_15"/>
    <g id="text_8">
     <!-- LOESS Curve -->
     <defs>
      <path d="M 9.8125 72.90625 
L 19.671875 72.90625 
L 19.671875 8.296875 
L 55.171875 8.296875 
L 55.171875 0 
L 9.8125 0 
z
" id="DejaVuSans-76"/>
      <path d="M 39.40625 66.21875 
Q 28.65625 66.21875 22.328125 58.203125 
Q 16.015625 50.203125 16.015625 36.375 
Q 16.015625 22.609375 22.328125 14.59375 
Q 28.65625 6.59375 39.40625 6.59375 
Q 50.140625 6.59375 56.421875 14.59375 
Q 62.703125 22.609375 62.703125 36.375 
Q 62.703125 50.203125 56.421875 58.203125 
Q 50.140625 66.21875 39.40625 66.21875 
z
M 39.40625 74.21875 
Q 54.734375 74.21875 63.90625 63.9375 
Q 73.09375 53.65625 73.09375 36.375 
Q 73.09375 19.140625 63.90625 8.859375 
Q 54.734375 -1.421875 39.40625 -1.421875 
Q 24.03125 -1.421875 14.8125 8.828125 
Q 5.609375 19.09375 5.609375 36.375 
Q 5.609375 53.65625 14.8125 63.9375 
Q 24.03125 74.21875 39.40625 74.21875 
z
" id="DejaVuSans-79"/>
      <path d="M 9.8125 72.90625 
L 55.90625 72.90625 
L 55.90625 64.59375 
L 19.671875 64.59375 
L 19.671875 43.015625 
L 54.390625 43.015625 
L 54.390625 34.71875 
L 19.671875 34.71875 
L 19.671875 8.296875 
L 56.78125 8.296875 
L 56.78125 0 
L 9.8125 0 
z
" id="DejaVuSans-69"/>
      <path d="M 53.515625 70.515625 
L 53.515625 60.890625 
Q 47.90625 63.578125 42.921875 64.890625 
Q 37.9375 66.21875 33.296875 66.21875 
Q 25.25 66.21875 20.875 63.09375 
Q 16.5 59.96875 16.5 54.203125 
Q 16.5 49.359375 19.40625 46.890625 
Q 22.3125 44.4375 30.421875 42.921875 
L 36.375 41.703125 
Q 47.40625 39.59375 52.65625 34.296875 
Q 57.90625 29 57.90625 20.125 
Q 57.90625 9.515625 50.796875 4.046875 
Q 43.703125 -1.421875 29.984375 -1.421875 
Q 24.8125 -1.421875 18.96875 -0.25 
Q 13.140625 0.921875 6.890625 3.21875 
L 6.890625 13.375 
Q 12.890625 10.015625 18.65625 8.296875 
Q 24.421875 6.59375 29.984375 6.59375 
Q 38.421875 6.59375 43.015625 9.90625 
Q 47.609375 13.234375 47.609375 19.390625 
Q 47.609375 24.75 44.3125 27.78125 
Q 41.015625 30.8125 33.5 32.328125 
L 27.484375 33.5 
Q 16.453125 35.6875 11.515625 40.375 
Q 6.59375 45.0625 6.59375 53.421875 
Q 6.59375 63.09375 13.40625 68.65625 
Q 20.21875 74.21875 32.171875 74.21875 
Q 37.3125 74.21875 42.625 73.28125 
Q 47.953125 72.359375 53.515625 70.515625 
z
" id="DejaVuSans-83"/>
      <path d="M 64.40625 67.28125 
L 64.40625 56.890625 
Q 59.421875 61.53125 53.78125 63.8125 
Q 48.140625 66.109375 41.796875 66.109375 
Q 29.296875 66.109375 22.65625 58.46875 
Q 16.015625 50.828125 16.015625 36.375 
Q 16.015625 21.96875 22.65625 14.328125 
Q 29.296875 6.6875 41.796875 6.6875 
Q 48.140625 6.6875 53.78125 8.984375 
Q 59.421875 11.28125 64.40625 15.921875 
L 64.40625 5.609375 
Q 59.234375 2.09375 53.4375 0.328125 
Q 47.65625 -1.421875 41.21875 -1.421875 
Q 24.65625 -1.421875 15.125 8.703125 
Q 5.609375 18.84375 5.609375 36.375 
Q 5.609375 53.953125 15.125 64.078125 
Q 24.65625 74.21875 41.21875 74.21875 
Q 47.75 74.21875 53.53125 72.484375 
Q 59.328125 70.75 64.40625 67.28125 
z
" id="DejaVuSans-67"/>
      <path d="M 8.5 21.578125 
L 8.5 54.6875 
L 17.484375 54.6875 
L 17.484375 21.921875 
Q 17.484375 14.15625 20.5 10.265625 
Q 23.53125 6.390625 29.59375 6.390625 
Q 36.859375 6.390625 41.078125 11.03125 
Q 45.3125 15.671875 45.3125 23.6875 
L 45.3125 54.6875 
L 54.296875 54.6875 
L 54.296875 0 
L 45.3125 0 
L 45.3125 8.40625 
Q 42.046875 3.421875 37.71875 1 
Q 33.40625 -1.421875 27.6875 -1.421875 
Q 18.265625 -1.421875 13.375 4.4375 
Q 8.5 10.296875 8.5 21.578125 
z
M 31.109375 56 
z
" id="DejaVuSans-117"/>
      <path d="M 2.984375 54.6875 
L 12.5 54.6875 
L 29.59375 8.796875 
L 46.6875 54.6875 
L 56.203125 54.6875 
L 35.6875 0 
L 23.484375 0 
z
" id="DejaVuSans-118"/>
     </defs>
     <g transform="translate(520.298437 120.084375)scale(0.1 -0.1)">
      <use xlink:href="#DejaVuSans-76"/>
      <use x="52.087891" xlink:href="#DejaVuSans-79"/>
      <use x="130.798828" xlink:href="#DejaVuSans-69"/>
      <use x="193.982422" xlink:href="#DejaVuSans-83"/>
      <use x="257.458984" xlink:href="#DejaVuSans-83"/>
      <use x="320.935547" xlink:href="#DejaVuSans-32"/>
      <use x="352.722656" xlink:href="#DejaVuSans-67"/>
      <use x="422.546875" xlink:href="#DejaVuSans-117"/>
      <use x="485.925781" xlink:href="#DejaVuSans-114"/>
      <use x="527.039062" xlink:href="#DejaVuSans-118"/>
      <use x="586.21875" xlink:href="#DejaVuSans-101"/>
     </g>
    </g>
    <g id="PathCollection_2">
     <g>
      <use style="fill:#6b8e23;fill-opacity:0.4;stroke:#6b8e23;stroke-opacity:0.4;" x="502.298437" xlink:href="#m2985f40d72" y="132.1375"/>
     </g>
    </g>
    <g id="text_9">
     <!-- Sr Conodont Data -->
     <defs>
      <path d="M 19.671875 64.796875 
L 19.671875 8.109375 
L 31.59375 8.109375 
Q 46.6875 8.109375 53.6875 14.9375 
Q 60.6875 21.78125 60.6875 36.53125 
Q 60.6875 51.171875 53.6875 57.984375 
Q 46.6875 64.796875 31.59375 64.796875 
z
M 9.8125 72.90625 
L 30.078125 72.90625 
Q 51.265625 72.90625 61.171875 64.09375 
Q 71.09375 55.28125 71.09375 36.53125 
Q 71.09375 17.671875 61.125 8.828125 
Q 51.171875 0 30.078125 0 
L 9.8125 0 
z
" id="DejaVuSans-68"/>
     </defs>
     <g transform="translate(520.298437 134.7625)scale(0.1 -0.1)">
      <use xlink:href="#DejaVuSans-83"/>
      <use x="63.476562" xlink:href="#DejaVuSans-114"/>
      <use x="104.589844" xlink:href="#DejaVuSans-32"/>
      <use x="136.376953" xlink:href="#DejaVuSans-67"/>
      <use x="206.201172" xlink:href="#DejaVuSans-111"/>
      <use x="267.382812" xlink:href="#DejaVuSans-110"/>
      <use x="330.761719" xlink:href="#DejaVuSans-111"/>
      <use x="391.943359" xlink:href="#DejaVuSans-100"/>
      <use x="455.419922" xlink:href="#DejaVuSans-111"/>
      <use x="516.601562" xlink:href="#DejaVuSans-110"/>
      <use x="579.980469" xlink:href="#DejaVuSans-116"/>
      <use x="619.189453" xlink:href="#DejaVuSans-32"/>
      <use x="650.976562" xlink:href="#DejaVuSans-68"/>
      <use x="727.978516" xlink:href="#DejaVuSans-97"/>
      <use x="789.257812" xlink:href="#DejaVuSans-116"/>
      <use x="828.466797" xlink:href="#DejaVuSans-97"/>
     </g>
    </g>
   </g>
  </g>
  <g id="axes_2">
   <g id="patch_8">
    <path d="M 71.725 462.2 
L 635.1 462.2 
L 635.1 249.15 
L 71.725 249.15 
z
" style="fill:#ffffff;"/>
   </g>
   <g id="matplotlib.axis_3">
    <g id="xtick_5">
     <g id="line2d_16">
      <g>
       <use style="stroke:#000000;stroke-width:0.8;" x="178.81281" xlink:href="#m4e17902396" y="462.2"/>
      </g>
     </g>
     <g id="text_10">
      <!-- 450 -->
      <defs>
       <path d="M 10.796875 72.90625 
L 49.515625 72.90625 
L 49.515625 64.59375 
L 19.828125 64.59375 
L 19.828125 46.734375 
Q 21.96875 47.46875 24.109375 47.828125 
Q 26.265625 48.1875 28.421875 48.1875 
Q 40.625 48.1875 47.75 41.5 
Q 54.890625 34.8125 54.890625 23.390625 
Q 54.890625 11.625 47.5625 5.09375 
Q 40.234375 -1.421875 26.90625 -1.421875 
Q 22.3125 -1.421875 17.546875 -0.640625 
Q 12.796875 0.140625 7.71875 1.703125 
L 7.71875 11.625 
Q 12.109375 9.234375 16.796875 8.0625 
Q 21.484375 6.890625 26.703125 6.890625 
Q 35.15625 6.890625 40.078125 11.328125 
Q 45.015625 15.765625 45.015625 23.390625 
Q 45.015625 31 40.078125 35.4375 
Q 35.15625 39.890625 26.703125 39.890625 
Q 22.75 39.890625 18.8125 39.015625 
Q 14.890625 38.140625 10.796875 36.28125 
z
" id="DejaVuSans-53"/>
      </defs>
      <g transform="translate(169.26906 476.798437)scale(0.1 -0.1)">
       <use xlink:href="#DejaVuSans-52"/>
       <use x="63.623047" xlink:href="#DejaVuSans-53"/>
       <use x="127.246094" xlink:href="#DejaVuSans-48"/>
      </g>
     </g>
    </g>
    <g id="xtick_6">
     <g id="line2d_17">
      <g>
       <use style="stroke:#000000;stroke-width:0.8;" x="295.212603" xlink:href="#m4e17902396" y="462.2"/>
      </g>
     </g>
     <g id="text_11">
      <!-- 460 -->
      <g transform="translate(285.668853 476.798437)scale(0.1 -0.1)">
       <use xlink:href="#DejaVuSans-52"/>
       <use x="63.623047" xlink:href="#DejaVuSans-54"/>
       <use x="127.246094" xlink:href="#DejaVuSans-48"/>
      </g>
     </g>
    </g>
    <g id="xtick_7">
     <g id="line2d_18">
      <g>
       <use style="stroke:#000000;stroke-width:0.8;" x="411.612397" xlink:href="#m4e17902396" y="462.2"/>
      </g>
     </g>
     <g id="text_12">
      <!-- 470 -->
      <g transform="translate(402.068647 476.798437)scale(0.1 -0.1)">
       <use xlink:href="#DejaVuSans-52"/>
       <use x="63.623047" xlink:href="#DejaVuSans-55"/>
       <use x="127.246094" xlink:href="#DejaVuSans-48"/>
      </g>
     </g>
    </g>
    <g id="xtick_8">
     <g id="line2d_19">
      <g>
       <use style="stroke:#000000;stroke-width:0.8;" x="528.01219" xlink:href="#m4e17902396" y="462.2"/>
      </g>
     </g>
     <g id="text_13">
      <!-- 480 -->
      <g transform="translate(518.46844 476.798437)scale(0.1 -0.1)">
       <use xlink:href="#DejaVuSans-52"/>
       <use x="63.623047" xlink:href="#DejaVuSans-56"/>
       <use x="127.246094" xlink:href="#DejaVuSans-48"/>
      </g>
     </g>
    </g>
    <g id="text_14">
     <!-- Age (Ma) -->
     <defs>
      <path d="M 34.1875 63.1875 
L 20.796875 26.90625 
L 47.609375 26.90625 
z
M 28.609375 72.90625 
L 39.796875 72.90625 
L 67.578125 0 
L 57.328125 0 
L 50.6875 18.703125 
L 17.828125 18.703125 
L 11.1875 0 
L 0.78125 0 
z
" id="DejaVuSans-65"/>
      <path d="M 45.40625 27.984375 
Q 45.40625 37.75 41.375 43.109375 
Q 37.359375 48.484375 30.078125 48.484375 
Q 22.859375 48.484375 18.828125 43.109375 
Q 14.796875 37.75 14.796875 27.984375 
Q 14.796875 18.265625 18.828125 12.890625 
Q 22.859375 7.515625 30.078125 7.515625 
Q 37.359375 7.515625 41.375 12.890625 
Q 45.40625 18.265625 45.40625 27.984375 
z
M 54.390625 6.78125 
Q 54.390625 -7.171875 48.1875 -13.984375 
Q 42 -20.796875 29.203125 -20.796875 
Q 24.46875 -20.796875 20.265625 -20.09375 
Q 16.0625 -19.390625 12.109375 -17.921875 
L 12.109375 -9.1875 
Q 16.0625 -11.328125 19.921875 -12.34375 
Q 23.78125 -13.375 27.78125 -13.375 
Q 36.625 -13.375 41.015625 -8.765625 
Q 45.40625 -4.15625 45.40625 5.171875 
L 45.40625 9.625 
Q 42.625 4.78125 38.28125 2.390625 
Q 33.9375 0 27.875 0 
Q 17.828125 0 11.671875 7.65625 
Q 5.515625 15.328125 5.515625 27.984375 
Q 5.515625 40.671875 11.671875 48.328125 
Q 17.828125 56 27.875 56 
Q 33.9375 56 38.28125 53.609375 
Q 42.625 51.21875 45.40625 46.390625 
L 45.40625 54.6875 
L 54.390625 54.6875 
z
" id="DejaVuSans-103"/>
      <path d="M 31 75.875 
Q 24.46875 64.65625 21.28125 53.65625 
Q 18.109375 42.671875 18.109375 31.390625 
Q 18.109375 20.125 21.3125 9.0625 
Q 24.515625 -2 31 -13.1875 
L 23.1875 -13.1875 
Q 15.875 -1.703125 12.234375 9.375 
Q 8.59375 20.453125 8.59375 31.390625 
Q 8.59375 42.28125 12.203125 53.3125 
Q 15.828125 64.359375 23.1875 75.875 
z
" id="DejaVuSans-40"/>
      <path d="M 8.015625 75.875 
L 15.828125 75.875 
Q 23.140625 64.359375 26.78125 53.3125 
Q 30.421875 42.28125 30.421875 31.390625 
Q 30.421875 20.453125 26.78125 9.375 
Q 23.140625 -1.703125 15.828125 -13.1875 
L 8.015625 -13.1875 
Q 14.5 -2 17.703125 9.0625 
Q 20.90625 20.125 20.90625 31.390625 
Q 20.90625 42.671875 17.703125 53.65625 
Q 14.5 64.65625 8.015625 75.875 
z
" id="DejaVuSans-41"/>
     </defs>
     <g transform="translate(330.872656 490.476562)scale(0.1 -0.1)">
      <use xlink:href="#DejaVuSans-65"/>
      <use x="68.408203" xlink:href="#DejaVuSans-103"/>
      <use x="131.884766" xlink:href="#DejaVuSans-101"/>
      <use x="193.408203" xlink:href="#DejaVuSans-32"/>
      <use x="225.195312" xlink:href="#DejaVuSans-40"/>
      <use x="264.208984" xlink:href="#DejaVuSans-77"/>
      <use x="350.488281" xlink:href="#DejaVuSans-97"/>
      <use x="411.767578" xlink:href="#DejaVuSans-41"/>
     </g>
    </g>
   </g>
   <g id="matplotlib.axis_4">
    <g id="ytick_6">
     <g id="line2d_20">
      <g>
       <use style="stroke:#000000;stroke-width:0.8;" x="71.725" xlink:href="#m06b1eb689f" y="436.131817"/>
      </g>
     </g>
     <g id="text_15">
      <!-- 1.3 -->
      <defs>
       <path d="M 12.40625 8.296875 
L 28.515625 8.296875 
L 28.515625 63.921875 
L 10.984375 60.40625 
L 10.984375 69.390625 
L 28.421875 72.90625 
L 38.28125 72.90625 
L 38.28125 8.296875 
L 54.390625 8.296875 
L 54.390625 0 
L 12.40625 0 
z
" id="DejaVuSans-49"/>
       <path d="M 40.578125 39.3125 
Q 47.65625 37.796875 51.625 33 
Q 55.609375 28.21875 55.609375 21.1875 
Q 55.609375 10.40625 48.1875 4.484375 
Q 40.765625 -1.421875 27.09375 -1.421875 
Q 22.515625 -1.421875 17.65625 -0.515625 
Q 12.796875 0.390625 7.625 2.203125 
L 7.625 11.71875 
Q 11.71875 9.328125 16.59375 8.109375 
Q 21.484375 6.890625 26.8125 6.890625 
Q 36.078125 6.890625 40.9375 10.546875 
Q 45.796875 14.203125 45.796875 21.1875 
Q 45.796875 27.640625 41.28125 31.265625 
Q 36.765625 34.90625 28.71875 34.90625 
L 20.21875 34.90625 
L 20.21875 43.015625 
L 29.109375 43.015625 
Q 36.375 43.015625 40.234375 45.921875 
Q 44.09375 48.828125 44.09375 54.296875 
Q 44.09375 59.90625 40.109375 62.90625 
Q 36.140625 65.921875 28.71875 65.921875 
Q 24.65625 65.921875 20.015625 65.03125 
Q 15.375 64.15625 9.8125 62.3125 
L 9.8125 71.09375 
Q 15.4375 72.65625 20.34375 73.4375 
Q 25.25 74.21875 29.59375 74.21875 
Q 40.828125 74.21875 47.359375 69.109375 
Q 53.90625 64.015625 53.90625 55.328125 
Q 53.90625 49.265625 50.4375 45.09375 
Q 46.96875 40.921875 40.578125 39.3125 
z
" id="DejaVuSans-51"/>
      </defs>
      <g transform="translate(48.821875 439.931035)scale(0.1 -0.1)">
       <use xlink:href="#DejaVuSans-49"/>
       <use x="63.623047" xlink:href="#DejaVuSans-46"/>
       <use x="95.410156" xlink:href="#DejaVuSans-51"/>
      </g>
     </g>
    </g>
    <g id="ytick_7">
     <g id="line2d_21">
      <g>
       <use style="stroke:#000000;stroke-width:0.8;" x="71.725" xlink:href="#m06b1eb689f" y="408.824996"/>
      </g>
     </g>
     <g id="text_16">
      <!-- 1.4 -->
      <g transform="translate(48.821875 412.624215)scale(0.1 -0.1)">
       <use xlink:href="#DejaVuSans-49"/>
       <use x="63.623047" xlink:href="#DejaVuSans-46"/>
       <use x="95.410156" xlink:href="#DejaVuSans-52"/>
      </g>
     </g>
    </g>
    <g id="ytick_8">
     <g id="line2d_22">
      <g>
       <use style="stroke:#000000;stroke-width:0.8;" x="71.725" xlink:href="#m06b1eb689f" y="381.518175"/>
      </g>
     </g>
     <g id="text_17">
      <!-- 1.5 -->
      <g transform="translate(48.821875 385.317394)scale(0.1 -0.1)">
       <use xlink:href="#DejaVuSans-49"/>
       <use x="63.623047" xlink:href="#DejaVuSans-46"/>
       <use x="95.410156" xlink:href="#DejaVuSans-53"/>
      </g>
     </g>
    </g>
    <g id="ytick_9">
     <g id="line2d_23">
      <g>
       <use style="stroke:#000000;stroke-width:0.8;" x="71.725" xlink:href="#m06b1eb689f" y="354.211354"/>
      </g>
     </g>
     <g id="text_18">
      <!-- 1.6 -->
      <g transform="translate(48.821875 358.010573)scale(0.1 -0.1)">
       <use xlink:href="#DejaVuSans-49"/>
       <use x="63.623047" xlink:href="#DejaVuSans-46"/>
       <use x="95.410156" xlink:href="#DejaVuSans-54"/>
      </g>
     </g>
    </g>
    <g id="ytick_10">
     <g id="line2d_24">
      <g>
       <use style="stroke:#000000;stroke-width:0.8;" x="71.725" xlink:href="#m06b1eb689f" y="326.904534"/>
      </g>
     </g>
     <g id="text_19">
      <!-- 1.7 -->
      <g transform="translate(48.821875 330.703752)scale(0.1 -0.1)">
       <use xlink:href="#DejaVuSans-49"/>
       <use x="63.623047" xlink:href="#DejaVuSans-46"/>
       <use x="95.410156" xlink:href="#DejaVuSans-55"/>
      </g>
     </g>
    </g>
    <g id="ytick_11">
     <g id="line2d_25">
      <g>
       <use style="stroke:#000000;stroke-width:0.8;" x="71.725" xlink:href="#m06b1eb689f" y="299.597713"/>
      </g>
     </g>
     <g id="text_20">
      <!-- 1.8 -->
      <g transform="translate(48.821875 303.396932)scale(0.1 -0.1)">
       <use xlink:href="#DejaVuSans-49"/>
       <use x="63.623047" xlink:href="#DejaVuSans-46"/>
       <use x="95.410156" xlink:href="#DejaVuSans-56"/>
      </g>
     </g>
    </g>
    <g id="ytick_12">
     <g id="line2d_26">
      <g>
       <use style="stroke:#000000;stroke-width:0.8;" x="71.725" xlink:href="#m06b1eb689f" y="272.290892"/>
      </g>
     </g>
     <g id="text_21">
      <!-- 1.9 -->
      <defs>
       <path d="M 10.984375 1.515625 
L 10.984375 10.5 
Q 14.703125 8.734375 18.5 7.8125 
Q 22.3125 6.890625 25.984375 6.890625 
Q 35.75 6.890625 40.890625 13.453125 
Q 46.046875 20.015625 46.78125 33.40625 
Q 43.953125 29.203125 39.59375 26.953125 
Q 35.25 24.703125 29.984375 24.703125 
Q 19.046875 24.703125 12.671875 31.3125 
Q 6.296875 37.9375 6.296875 49.421875 
Q 6.296875 60.640625 12.9375 67.421875 
Q 19.578125 74.21875 30.609375 74.21875 
Q 43.265625 74.21875 49.921875 64.515625 
Q 56.59375 54.828125 56.59375 36.375 
Q 56.59375 19.140625 48.40625 8.859375 
Q 40.234375 -1.421875 26.421875 -1.421875 
Q 22.703125 -1.421875 18.890625 -0.6875 
Q 15.09375 0.046875 10.984375 1.515625 
z
M 30.609375 32.421875 
Q 37.25 32.421875 41.125 36.953125 
Q 45.015625 41.5 45.015625 49.421875 
Q 45.015625 57.28125 41.125 61.84375 
Q 37.25 66.40625 30.609375 66.40625 
Q 23.96875 66.40625 20.09375 61.84375 
Q 16.21875 57.28125 16.21875 49.421875 
Q 16.21875 41.5 20.09375 36.953125 
Q 23.96875 32.421875 30.609375 32.421875 
z
" id="DejaVuSans-57"/>
      </defs>
      <g transform="translate(48.821875 276.090111)scale(0.1 -0.1)">
       <use xlink:href="#DejaVuSans-49"/>
       <use x="63.623047" xlink:href="#DejaVuSans-46"/>
       <use x="95.410156" xlink:href="#DejaVuSans-57"/>
      </g>
     </g>
    </g>
    <g id="text_22">
     <!-- mol/yr -->
     <defs>
      <path d="M 52 44.1875 
Q 55.375 50.25 60.0625 53.125 
Q 64.75 56 71.09375 56 
Q 79.640625 56 84.28125 50.015625 
Q 88.921875 44.046875 88.921875 33.015625 
L 88.921875 0 
L 79.890625 0 
L 79.890625 32.71875 
Q 79.890625 40.578125 77.09375 44.375 
Q 74.3125 48.1875 68.609375 48.1875 
Q 61.625 48.1875 57.5625 43.546875 
Q 53.515625 38.921875 53.515625 30.90625 
L 53.515625 0 
L 44.484375 0 
L 44.484375 32.71875 
Q 44.484375 40.625 41.703125 44.40625 
Q 38.921875 48.1875 33.109375 48.1875 
Q 26.21875 48.1875 22.15625 43.53125 
Q 18.109375 38.875 18.109375 30.90625 
L 18.109375 0 
L 9.078125 0 
L 9.078125 54.6875 
L 18.109375 54.6875 
L 18.109375 46.1875 
Q 21.1875 51.21875 25.484375 53.609375 
Q 29.78125 56 35.6875 56 
Q 41.65625 56 45.828125 52.96875 
Q 50 49.953125 52 44.1875 
z
" id="DejaVuSans-109"/>
      <path d="M 32.171875 -5.078125 
Q 28.375 -14.84375 24.75 -17.8125 
Q 21.140625 -20.796875 15.09375 -20.796875 
L 7.90625 -20.796875 
L 7.90625 -13.28125 
L 13.1875 -13.28125 
Q 16.890625 -13.28125 18.9375 -11.515625 
Q 21 -9.765625 23.484375 -3.21875 
L 25.09375 0.875 
L 2.984375 54.6875 
L 12.5 54.6875 
L 29.59375 11.921875 
L 46.6875 54.6875 
L 56.203125 54.6875 
z
" id="DejaVuSans-121"/>
     </defs>
     <g transform="translate(42.742187 371.692969)rotate(-90)scale(0.1 -0.1)">
      <use xlink:href="#DejaVuSans-109"/>
      <use x="97.412109" xlink:href="#DejaVuSans-111"/>
      <use x="158.59375" xlink:href="#DejaVuSans-108"/>
      <use x="186.376953" xlink:href="#DejaVuSans-47"/>
      <use x="220.068359" xlink:href="#DejaVuSans-121"/>
      <use x="279.248047" xlink:href="#DejaVuSans-114"/>
     </g>
    </g>
    <g id="text_23">
     <!-- 1e10 -->
     <g transform="translate(71.725 246.15)scale(0.1 -0.1)">
      <use xlink:href="#DejaVuSans-49"/>
      <use x="63.623047" xlink:href="#DejaVuSans-101"/>
      <use x="125.146484" xlink:href="#DejaVuSans-49"/>
      <use x="188.769531" xlink:href="#DejaVuSans-48"/>
     </g>
    </g>
   </g>
   <g id="line2d_27">
    <path clip-path="url(#p99035769f4)" d="M 609.492045 452.515909 
L 301.010419 384.684137 
L 277.640366 258.834091 
L 97.332955 258.834091 
L 97.332955 258.834091 
" style="fill:none;stroke:#800000;stroke-linecap:square;stroke-width:1.5;"/>
   </g>
   <g id="patch_9">
    <path d="M 71.725 462.2 
L 71.725 249.15 
" style="fill:none;stroke:#000000;stroke-linecap:square;stroke-linejoin:miter;stroke-width:0.8;"/>
   </g>
   <g id="patch_10">
    <path d="M 635.1 462.2 
L 635.1 249.15 
" style="fill:none;stroke:#000000;stroke-linecap:square;stroke-linejoin:miter;stroke-width:0.8;"/>
   </g>
   <g id="patch_11">
    <path d="M 71.725 462.2 
L 635.1 462.2 
" style="fill:none;stroke:#000000;stroke-linecap:square;stroke-linejoin:miter;stroke-width:0.8;"/>
   </g>
   <g id="patch_12">
    <path d="M 71.725 249.15 
L 635.1 249.15 
" style="fill:none;stroke:#000000;stroke-linecap:square;stroke-linejoin:miter;stroke-width:0.8;"/>
   </g>
   <g id="legend_2">
    <g id="patch_13">
     <path d="M 427.575 364.514063 
L 628.1 364.514063 
Q 630.1 364.514063 630.1 362.514063 
L 630.1 348.835938 
Q 630.1 346.835938 628.1 346.835938 
L 427.575 346.835938 
Q 425.575 346.835938 425.575 348.835938 
L 425.575 362.514063 
Q 425.575 364.514063 427.575 364.514063 
z
" style="fill:#ffffff;opacity:0.8;stroke:#cccccc;stroke-linejoin:miter;"/>
    </g>
    <g id="line2d_28">
     <path d="M 429.575 354.934375 
L 449.575 354.934375 
" style="fill:none;stroke:#800000;stroke-linecap:square;stroke-width:1.5;"/>
    </g>
    <g id="line2d_29"/>
    <g id="text_24">
     <!-- Unconstrained Hydrothermal Flux -->
     <defs>
      <path d="M 9.8125 72.90625 
L 19.671875 72.90625 
L 19.671875 43.015625 
L 55.515625 43.015625 
L 55.515625 72.90625 
L 65.375 72.90625 
L 65.375 0 
L 55.515625 0 
L 55.515625 34.71875 
L 19.671875 34.71875 
L 19.671875 0 
L 9.8125 0 
z
" id="DejaVuSans-72"/>
      <path d="M 54.890625 33.015625 
L 54.890625 0 
L 45.90625 0 
L 45.90625 32.71875 
Q 45.90625 40.484375 42.875 44.328125 
Q 39.84375 48.1875 33.796875 48.1875 
Q 26.515625 48.1875 22.3125 43.546875 
Q 18.109375 38.921875 18.109375 30.90625 
L 18.109375 0 
L 9.078125 0 
L 9.078125 75.984375 
L 18.109375 75.984375 
L 18.109375 46.1875 
Q 21.34375 51.125 25.703125 53.5625 
Q 30.078125 56 35.796875 56 
Q 45.21875 56 50.046875 50.171875 
Q 54.890625 44.34375 54.890625 33.015625 
z
" id="DejaVuSans-104"/>
      <path d="M 9.8125 72.90625 
L 51.703125 72.90625 
L 51.703125 64.59375 
L 19.671875 64.59375 
L 19.671875 43.109375 
L 48.578125 43.109375 
L 48.578125 34.8125 
L 19.671875 34.8125 
L 19.671875 0 
L 9.8125 0 
z
" id="DejaVuSans-70"/>
      <path d="M 54.890625 54.6875 
L 35.109375 28.078125 
L 55.90625 0 
L 45.3125 0 
L 29.390625 21.484375 
L 13.484375 0 
L 2.875 0 
L 24.125 28.609375 
L 4.6875 54.6875 
L 15.28125 54.6875 
L 29.78125 35.203125 
L 44.28125 54.6875 
z
" id="DejaVuSans-120"/>
     </defs>
     <g transform="translate(457.575 358.434375)scale(0.1 -0.1)">
      <use xlink:href="#DejaVuSans-85"/>
      <use x="73.193359" xlink:href="#DejaVuSans-110"/>
      <use x="136.572266" xlink:href="#DejaVuSans-99"/>
      <use x="191.552734" xlink:href="#DejaVuSans-111"/>
      <use x="252.734375" xlink:href="#DejaVuSans-110"/>
      <use x="316.113281" xlink:href="#DejaVuSans-115"/>
      <use x="368.212891" xlink:href="#DejaVuSans-116"/>
      <use x="407.421875" xlink:href="#DejaVuSans-114"/>
      <use x="448.535156" xlink:href="#DejaVuSans-97"/>
      <use x="509.814453" xlink:href="#DejaVuSans-105"/>
      <use x="537.597656" xlink:href="#DejaVuSans-110"/>
      <use x="600.976562" xlink:href="#DejaVuSans-101"/>
      <use x="662.5" xlink:href="#DejaVuSans-100"/>
      <use x="725.976562" xlink:href="#DejaVuSans-32"/>
      <use x="757.763672" xlink:href="#DejaVuSans-72"/>
      <use x="832.958984" xlink:href="#DejaVuSans-121"/>
      <use x="892.138672" xlink:href="#DejaVuSans-100"/>
      <use x="955.615234" xlink:href="#DejaVuSans-114"/>
      <use x="994.478516" xlink:href="#DejaVuSans-111"/>
      <use x="1055.660156" xlink:href="#DejaVuSans-116"/>
      <use x="1094.869141" xlink:href="#DejaVuSans-104"/>
      <use x="1158.248047" xlink:href="#DejaVuSans-101"/>
      <use x="1219.771484" xlink:href="#DejaVuSans-114"/>
      <use x="1259.134766" xlink:href="#DejaVuSans-109"/>
      <use x="1356.546875" xlink:href="#DejaVuSans-97"/>
      <use x="1417.826172" xlink:href="#DejaVuSans-108"/>
      <use x="1445.609375" xlink:href="#DejaVuSans-32"/>
      <use x="1477.396484" xlink:href="#DejaVuSans-70"/>
      <use x="1534.916016" xlink:href="#DejaVuSans-108"/>
      <use x="1562.699219" xlink:href="#DejaVuSans-117"/>
      <use x="1626.078125" xlink:href="#DejaVuSans-120"/>
     </g>
    </g>
   </g>
  </g>
  <g id="axes_3">
   <g id="matplotlib.axis_5">
    <g id="ytick_13">
     <g id="line2d_30">
      <defs>
       <path d="M 0 0 
L 3.5 0 
" id="mc9cf7569b5" style="stroke:#000000;stroke-width:0.8;"/>
      </defs>
      <g>
       <use style="stroke:#000000;stroke-width:0.8;" x="635.1" xlink:href="#mc9cf7569b5" y="214.165909"/>
      </g>
     </g>
     <g id="text_25">
      <!-- 0.00000 -->
      <g transform="translate(642.1 217.965128)scale(0.1 -0.1)">
       <use xlink:href="#DejaVuSans-48"/>
       <use x="63.623047" xlink:href="#DejaVuSans-46"/>
       <use x="95.410156" xlink:href="#DejaVuSans-48"/>
       <use x="159.033203" xlink:href="#DejaVuSans-48"/>
       <use x="222.65625" xlink:href="#DejaVuSans-48"/>
       <use x="286.279297" xlink:href="#DejaVuSans-48"/>
       <use x="349.902344" xlink:href="#DejaVuSans-48"/>
      </g>
     </g>
    </g>
    <g id="ytick_14">
     <g id="line2d_31">
      <g>
       <use style="stroke:#000000;stroke-width:0.8;" x="635.1" xlink:href="#mc9cf7569b5" y="181.257978"/>
      </g>
     </g>
     <g id="text_26">
      <!-- 0.00002 -->
      <g transform="translate(642.1 185.057197)scale(0.1 -0.1)">
       <use xlink:href="#DejaVuSans-48"/>
       <use x="63.623047" xlink:href="#DejaVuSans-46"/>
       <use x="95.410156" xlink:href="#DejaVuSans-48"/>
       <use x="159.033203" xlink:href="#DejaVuSans-48"/>
       <use x="222.65625" xlink:href="#DejaVuSans-48"/>
       <use x="286.279297" xlink:href="#DejaVuSans-48"/>
       <use x="349.902344" xlink:href="#DejaVuSans-50"/>
      </g>
     </g>
    </g>
    <g id="ytick_15">
     <g id="line2d_32">
      <g>
       <use style="stroke:#000000;stroke-width:0.8;" x="635.1" xlink:href="#mc9cf7569b5" y="148.350047"/>
      </g>
     </g>
     <g id="text_27">
      <!-- 0.00004 -->
      <g transform="translate(642.1 152.149266)scale(0.1 -0.1)">
       <use xlink:href="#DejaVuSans-48"/>
       <use x="63.623047" xlink:href="#DejaVuSans-46"/>
       <use x="95.410156" xlink:href="#DejaVuSans-48"/>
       <use x="159.033203" xlink:href="#DejaVuSans-48"/>
       <use x="222.65625" xlink:href="#DejaVuSans-48"/>
       <use x="286.279297" xlink:href="#DejaVuSans-48"/>
       <use x="349.902344" xlink:href="#DejaVuSans-52"/>
      </g>
     </g>
    </g>
    <g id="ytick_16">
     <g id="line2d_33">
      <g>
       <use style="stroke:#000000;stroke-width:0.8;" x="635.1" xlink:href="#mc9cf7569b5" y="115.442116"/>
      </g>
     </g>
     <g id="text_28">
      <!-- 0.00006 -->
      <g transform="translate(642.1 119.241335)scale(0.1 -0.1)">
       <use xlink:href="#DejaVuSans-48"/>
       <use x="63.623047" xlink:href="#DejaVuSans-46"/>
       <use x="95.410156" xlink:href="#DejaVuSans-48"/>
       <use x="159.033203" xlink:href="#DejaVuSans-48"/>
       <use x="222.65625" xlink:href="#DejaVuSans-48"/>
       <use x="286.279297" xlink:href="#DejaVuSans-48"/>
       <use x="349.902344" xlink:href="#DejaVuSans-54"/>
      </g>
     </g>
    </g>
    <g id="ytick_17">
     <g id="line2d_34">
      <g>
       <use style="stroke:#000000;stroke-width:0.8;" x="635.1" xlink:href="#mc9cf7569b5" y="82.534185"/>
      </g>
     </g>
     <g id="text_29">
      <!-- 0.00008 -->
      <g transform="translate(642.1 86.333404)scale(0.1 -0.1)">
       <use xlink:href="#DejaVuSans-48"/>
       <use x="63.623047" xlink:href="#DejaVuSans-46"/>
       <use x="95.410156" xlink:href="#DejaVuSans-48"/>
       <use x="159.033203" xlink:href="#DejaVuSans-48"/>
       <use x="222.65625" xlink:href="#DejaVuSans-48"/>
       <use x="286.279297" xlink:href="#DejaVuSans-48"/>
       <use x="349.902344" xlink:href="#DejaVuSans-56"/>
      </g>
     </g>
    </g>
    <g id="ytick_18">
     <g id="line2d_35">
      <g>
       <use style="stroke:#000000;stroke-width:0.8;" x="635.1" xlink:href="#mc9cf7569b5" y="49.626254"/>
      </g>
     </g>
     <g id="text_30">
      <!-- 0.00010 -->
      <g transform="translate(642.1 53.425473)scale(0.1 -0.1)">
       <use xlink:href="#DejaVuSans-48"/>
       <use x="63.623047" xlink:href="#DejaVuSans-46"/>
       <use x="95.410156" xlink:href="#DejaVuSans-48"/>
       <use x="159.033203" xlink:href="#DejaVuSans-48"/>
       <use x="222.65625" xlink:href="#DejaVuSans-48"/>
       <use x="286.279297" xlink:href="#DejaVuSans-49"/>
       <use x="349.902344" xlink:href="#DejaVuSans-48"/>
      </g>
     </g>
    </g>
    <g id="ytick_19">
     <g id="line2d_36">
      <g>
       <use style="stroke:#000000;stroke-width:0.8;" x="635.1" xlink:href="#mc9cf7569b5" y="16.718323"/>
      </g>
     </g>
     <g id="text_31">
      <!-- 0.00012 -->
      <g transform="translate(642.1 20.517542)scale(0.1 -0.1)">
       <use xlink:href="#DejaVuSans-48"/>
       <use x="63.623047" xlink:href="#DejaVuSans-46"/>
       <use x="95.410156" xlink:href="#DejaVuSans-48"/>
       <use x="159.033203" xlink:href="#DejaVuSans-48"/>
       <use x="222.65625" xlink:href="#DejaVuSans-48"/>
       <use x="286.279297" xlink:href="#DejaVuSans-49"/>
       <use x="349.902344" xlink:href="#DejaVuSans-50"/>
      </g>
     </g>
    </g>
    <g id="text_32">
     <!-- Rate of Change -->
     <defs>
      <path d="M 44.390625 34.1875 
Q 47.5625 33.109375 50.5625 29.59375 
Q 53.5625 26.078125 56.59375 19.921875 
L 66.609375 0 
L 56 0 
L 46.6875 18.703125 
Q 43.0625 26.03125 39.671875 28.421875 
Q 36.28125 30.8125 30.421875 30.8125 
L 19.671875 30.8125 
L 19.671875 0 
L 9.8125 0 
L 9.8125 72.90625 
L 32.078125 72.90625 
Q 44.578125 72.90625 50.734375 67.671875 
Q 56.890625 62.453125 56.890625 51.90625 
Q 56.890625 45.015625 53.6875 40.46875 
Q 50.484375 35.9375 44.390625 34.1875 
z
M 19.671875 64.796875 
L 19.671875 38.921875 
L 32.078125 38.921875 
Q 39.203125 38.921875 42.84375 42.21875 
Q 46.484375 45.515625 46.484375 51.90625 
Q 46.484375 58.296875 42.84375 61.546875 
Q 39.203125 64.796875 32.078125 64.796875 
z
" id="DejaVuSans-82"/>
      <path d="M 37.109375 75.984375 
L 37.109375 68.5 
L 28.515625 68.5 
Q 23.6875 68.5 21.796875 66.546875 
Q 19.921875 64.59375 19.921875 59.515625 
L 19.921875 54.6875 
L 34.71875 54.6875 
L 34.71875 47.703125 
L 19.921875 47.703125 
L 19.921875 0 
L 10.890625 0 
L 10.890625 47.703125 
L 2.296875 47.703125 
L 2.296875 54.6875 
L 10.890625 54.6875 
L 10.890625 58.5 
Q 10.890625 67.625 15.140625 71.796875 
Q 19.390625 75.984375 28.609375 75.984375 
z
" id="DejaVuSans-102"/>
     </defs>
     <g transform="translate(695.051563 155.928906)rotate(-90)scale(0.1 -0.1)">
      <use xlink:href="#DejaVuSans-82"/>
      <use x="67.232422" xlink:href="#DejaVuSans-97"/>
      <use x="128.511719" xlink:href="#DejaVuSans-116"/>
      <use x="167.720703" xlink:href="#DejaVuSans-101"/>
      <use x="229.244141" xlink:href="#DejaVuSans-32"/>
      <use x="261.03125" xlink:href="#DejaVuSans-111"/>
      <use x="322.212891" xlink:href="#DejaVuSans-102"/>
      <use x="357.417969" xlink:href="#DejaVuSans-32"/>
      <use x="389.205078" xlink:href="#DejaVuSans-67"/>
      <use x="459.029297" xlink:href="#DejaVuSans-104"/>
      <use x="522.408203" xlink:href="#DejaVuSans-97"/>
      <use x="583.6875" xlink:href="#DejaVuSans-110"/>
      <use x="647.066406" xlink:href="#DejaVuSans-103"/>
      <use x="710.542969" xlink:href="#DejaVuSans-101"/>
     </g>
     <!-- (/yr) -->
     <g transform="translate(706.249375 127.925781)rotate(-90)scale(0.1 -0.1)">
      <use xlink:href="#DejaVuSans-40"/>
      <use x="39.013672" xlink:href="#DejaVuSans-47"/>
      <use x="72.705078" xlink:href="#DejaVuSans-121"/>
      <use x="131.884766" xlink:href="#DejaVuSans-114"/>
      <use x="172.998047" xlink:href="#DejaVuSans-41"/>
     </g>
    </g>
   </g>
   <g id="line2d_37">
    <path clip-path="url(#paa0e3438a1)" d="M 609.492045 214.165909 
L 603.540697 211.820793 
L 597.317902 209.609405 
L 590.82366 207.538646 
L 583.996511 205.5965 
L 576.800604 203.782385 
L 569.184722 202.093789 
L 561.082284 200.527806 
L 552.436952 199.086208 
L 543.161658 197.767784 
L 533.138605 196.570821 
L 522.224385 195.495222 
L 510.249986 194.54292 
L 496.995176 193.716263 
L 482.142414 193.017209 
L 465.148805 192.446481 
L 445.399753 192.013297 
L 421.819713 191.726803 
L 392.518798 191.602763 
L 353.727481 191.672993 
L 301.010419 191.792662 
L 297.52258 160.458339 
L 294.12181 131.885673 
L 290.802986 105.854021 
L 287.560986 82.157138 
L 284.395812 60.636872 
L 281.30234 41.108618 
L 278.280571 23.431317 
L 277.753042 20.484091 
L 277.691582 20.723429 
L 274.275447 33.571862 
L 270.85419 45.584274 
L 267.42269 56.830095 
L 263.980946 67.355982 
L 260.523838 77.22002 
L 257.056486 86.447624 
L 253.573769 95.090274 
L 250.075688 103.182392 
L 246.55712 110.767213 
L 243.018065 117.873371 
L 239.44828 124.546576 
L 235.852887 130.800281 
L 232.221643 136.673511 
L 228.554547 142.184902 
L 224.846479 147.359407 
L 221.087193 152.225788 
L 217.276691 156.796832 
L 213.40473 161.096204 
L 209.466187 165.139089 
L 205.45082 168.943934 
L 201.343263 172.530789 
L 197.138395 175.908121 
L 192.815729 179.094707 
L 188.375265 182.091979 
L 183.791395 184.917604 
L 179.053876 187.576621 
L 174.126857 190.085882 
L 169.005214 192.443563 
L 163.65822 194.659045 
L 158.055144 196.738586 
L 152.160133 198.687614 
L 145.932217 200.510434 
L 139.33042 202.208867 
L 132.303527 203.785215 
L 124.759348 205.24705 
L 116.62618 206.593294 
L 107.827199 207.821883 
L 98.167782 208.942356 
L 97.332955 209.028828 
L 97.332955 209.028828 
" style="fill:none;stroke:#ff7f50;stroke-linecap:square;stroke-width:1.5;"/>
   </g>
   <g id="patch_14">
    <path d="M 71.725 223.85 
L 71.725 10.8 
" style="fill:none;stroke:#000000;stroke-linecap:square;stroke-linejoin:miter;stroke-width:0.8;"/>
   </g>
   <g id="patch_15">
    <path d="M 635.1 223.85 
L 635.1 10.8 
" style="fill:none;stroke:#000000;stroke-linecap:square;stroke-linejoin:miter;stroke-width:0.8;"/>
   </g>
   <g id="patch_16">
    <path d="M 71.725 223.85 
L 635.1 223.85 
" style="fill:none;stroke:#000000;stroke-linecap:square;stroke-linejoin:miter;stroke-width:0.8;"/>
   </g>
   <g id="patch_17">
    <path d="M 71.725 10.8 
L 635.1 10.8 
" style="fill:none;stroke:#000000;stroke-linecap:square;stroke-linejoin:miter;stroke-width:0.8;"/>
   </g>
   <g id="legend_3">
    <g id="patch_18">
     <path d="M 78.725 33.478125 
L 187.932813 33.478125 
Q 189.932813 33.478125 189.932813 31.478125 
L 189.932813 17.8 
Q 189.932813 15.8 187.932813 15.8 
L 78.725 15.8 
Q 76.725 15.8 76.725 17.8 
L 76.725 31.478125 
Q 76.725 33.478125 78.725 33.478125 
z
" style="fill:#ffffff;opacity:0.8;stroke:#cccccc;stroke-linejoin:miter;"/>
    </g>
    <g id="line2d_38">
     <path d="M 80.725 23.898438 
L 100.725 23.898438 
" style="fill:none;stroke:#ff7f50;stroke-linecap:square;stroke-width:1.5;"/>
    </g>
    <g id="line2d_39"/>
    <g id="text_33">
     <!-- Rate of Change -->
     <g transform="translate(108.725 27.398438)scale(0.1 -0.1)">
      <use xlink:href="#DejaVuSans-82"/>
      <use x="67.232422" xlink:href="#DejaVuSans-97"/>
      <use x="128.511719" xlink:href="#DejaVuSans-116"/>
      <use x="167.720703" xlink:href="#DejaVuSans-101"/>
      <use x="229.244141" xlink:href="#DejaVuSans-32"/>
      <use x="261.03125" xlink:href="#DejaVuSans-111"/>
      <use x="322.212891" xlink:href="#DejaVuSans-102"/>
      <use x="357.417969" xlink:href="#DejaVuSans-32"/>
      <use x="389.205078" xlink:href="#DejaVuSans-67"/>
      <use x="459.029297" xlink:href="#DejaVuSans-104"/>
      <use x="522.408203" xlink:href="#DejaVuSans-97"/>
      <use x="583.6875" xlink:href="#DejaVuSans-110"/>
      <use x="647.066406" xlink:href="#DejaVuSans-103"/>
      <use x="710.542969" xlink:href="#DejaVuSans-101"/>
     </g>
    </g>
   </g>
  </g>
 </g>
 <defs>
  <clipPath id="paa0e3438a1">
   <rect height="213.05" width="563.375" x="71.725" y="10.8"/>
  </clipPath>
  <clipPath id="p99035769f4">
   <rect height="213.05" width="563.375" x="71.725" y="249.15"/>
  </clipPath>
 </defs>
</svg>
