<?xml version="1.0" encoding="utf-8" standalone="no"?>
<!DOCTYPE svg PUBLIC "-//W3C//DTD SVG 1.1//EN"
  "http://www.w3.org/Graphics/SVG/1.1/DTD/svg11.dtd">
<!-- Created with matplotlib (https://matplotlib.org/) -->
<svg height="576pt" version="1.1" viewBox="0 0 720 576" width="720pt" xmlns="http://www.w3.org/2000/svg" xmlns:xlink="http://www.w3.org/1999/xlink">
 <defs>
  <style type="text/css">
*{stroke-linecap:butt;stroke-linejoin:round;}
  </style>
 </defs>
 <g id="figure_1">
  <g id="patch_1">
   <path d="M 0 576 
L 720 576 
L 720 0 
L 0 0 
z
" style="fill:#ffffff;"/>
  </g>
  <g id="axes_1">
   <g id="patch_2">
    <path d="M 59.090865 253.303354 
L 359.792729 253.303354 
L 359.792729 3.00024 
L 59.090865 3.00024 
z
" style="fill:#ffffff;"/>
   </g>
   <g id="PathCollection_1">
    <defs>
     <path d="M 0 3 
C 0.795609 3 1.55874 2.683901 2.12132 2.12132 
C 2.683901 1.55874 3 0.795609 3 0 
C 3 -0.795609 2.683901 -1.55874 2.12132 -2.12132 
C 1.55874 -2.683901 0.795609 -3 0 -3 
C -0.795609 -3 -1.55874 -2.683901 -2.12132 -2.12132 
C -2.683901 -1.55874 -3 -0.795609 -3 0 
C -3 0.795609 -2.683901 1.55874 -2.12132 2.12132 
C -1.55874 2.683901 -0.795609 3 0 3 
z
" id="mc535e6041d" style="stroke:#6b8e23;stroke-opacity:0.4;"/>
    </defs>
    <g clip-path="url(#p8566a495c0)">
     <use style="fill:#6b8e23;fill-opacity:0.4;stroke:#6b8e23;stroke-opacity:0.4;" x="176.5137" xlink:href="#mc535e6041d" y="94.332441"/>
     <use style="fill:#6b8e23;fill-opacity:0.4;stroke:#6b8e23;stroke-opacity:0.4;" x="180.241409" xlink:href="#mc535e6041d" y="102.884041"/>
     <use style="fill:#6b8e23;fill-opacity:0.4;stroke:#6b8e23;stroke-opacity:0.4;" x="181.546107" xlink:href="#mc535e6041d" y="97.666116"/>
     <use style="fill:#6b8e23;fill-opacity:0.4;stroke:#6b8e23;stroke-opacity:0.4;" x="182.540163" xlink:href="#mc535e6041d" y="92.593133"/>
     <use style="fill:#6b8e23;fill-opacity:0.4;stroke:#6b8e23;stroke-opacity:0.4;" x="183.596347" xlink:href="#mc535e6041d" y="105.927831"/>
     <use style="fill:#6b8e23;fill-opacity:0.4;stroke:#6b8e23;stroke-opacity:0.4;" x="184.404018" xlink:href="#mc535e6041d" y="105.782889"/>
     <use style="fill:#6b8e23;fill-opacity:0.4;stroke:#6b8e23;stroke-opacity:0.4;" x="190.554738" xlink:href="#mc535e6041d" y="109.986217"/>
     <use style="fill:#6b8e23;fill-opacity:0.4;stroke:#6b8e23;stroke-opacity:0.4;" x="198.320798" xlink:href="#mc535e6041d" y="105.637946"/>
     <use style="fill:#6b8e23;fill-opacity:0.4;stroke:#6b8e23;stroke-opacity:0.4;" x="207.515814" xlink:href="#mc535e6041d" y="103.173926"/>
     <use style="fill:#6b8e23;fill-opacity:0.4;stroke:#6b8e23;stroke-opacity:0.4;" x="215.841031" xlink:href="#mc535e6041d" y="108.971621"/>
     <use style="fill:#6b8e23;fill-opacity:0.4;stroke:#6b8e23;stroke-opacity:0.4;" x="216.27593" xlink:href="#mc535e6041d" y="107.812082"/>
     <use style="fill:#6b8e23;fill-opacity:0.4;stroke:#6b8e23;stroke-opacity:0.4;" x="218.388299" xlink:href="#mc535e6041d" y="111.145756"/>
     <use style="fill:#6b8e23;fill-opacity:0.4;stroke:#6b8e23;stroke-opacity:0.4;" x="218.388299" xlink:href="#mc535e6041d" y="106.217716"/>
     <use style="fill:#6b8e23;fill-opacity:0.4;stroke:#6b8e23;stroke-opacity:0.4;" x="221.370466" xlink:href="#mc535e6041d" y="116.363681"/>
     <use style="fill:#6b8e23;fill-opacity:0.4;stroke:#6b8e23;stroke-opacity:0.4;" x="225.160303" xlink:href="#mc535e6041d" y="114.914258"/>
     <use style="fill:#6b8e23;fill-opacity:0.4;stroke:#6b8e23;stroke-opacity:0.4;" x="234.231062" xlink:href="#mc535e6041d" y="114.624373"/>
     <use style="fill:#6b8e23;fill-opacity:0.4;stroke:#6b8e23;stroke-opacity:0.4;" x="234.231062" xlink:href="#mc535e6041d" y="114.334488"/>
     <use style="fill:#6b8e23;fill-opacity:0.4;stroke:#6b8e23;stroke-opacity:0.4;" x="235.660017" xlink:href="#mc535e6041d" y="110.855871"/>
     <use style="fill:#6b8e23;fill-opacity:0.4;stroke:#6b8e23;stroke-opacity:0.4;" x="235.660017" xlink:href="#mc535e6041d" y="116.943451"/>
     <use style="fill:#6b8e23;fill-opacity:0.4;stroke:#6b8e23;stroke-opacity:0.4;" x="235.660017" xlink:href="#mc535e6041d" y="117.52322"/>
     <use style="fill:#6b8e23;fill-opacity:0.4;stroke:#6b8e23;stroke-opacity:0.4;" x="236.529816" xlink:href="#mc535e6041d" y="115.63897"/>
     <use style="fill:#6b8e23;fill-opacity:0.4;stroke:#6b8e23;stroke-opacity:0.4;" x="236.529816" xlink:href="#mc535e6041d" y="116.363681"/>
     <use style="fill:#6b8e23;fill-opacity:0.4;stroke:#6b8e23;stroke-opacity:0.4;" x="236.529816" xlink:href="#mc535e6041d" y="119.117586"/>
     <use style="fill:#6b8e23;fill-opacity:0.4;stroke:#6b8e23;stroke-opacity:0.4;" x="238.331542" xlink:href="#mc535e6041d" y="120.856895"/>
     <use style="fill:#6b8e23;fill-opacity:0.4;stroke:#6b8e23;stroke-opacity:0.4;" x="239.014955" xlink:href="#mc535e6041d" y="118.682759"/>
     <use style="fill:#6b8e23;fill-opacity:0.4;stroke:#6b8e23;stroke-opacity:0.4;" x="239.574112" xlink:href="#mc535e6041d" y="121.436664"/>
     <use style="fill:#6b8e23;fill-opacity:0.4;stroke:#6b8e23;stroke-opacity:0.4;" x="239.574112" xlink:href="#mc535e6041d" y="122.451261"/>
     <use style="fill:#6b8e23;fill-opacity:0.4;stroke:#6b8e23;stroke-opacity:0.4;" x="239.574112" xlink:href="#mc535e6041d" y="121.001837"/>
     <use style="fill:#6b8e23;fill-opacity:0.4;stroke:#6b8e23;stroke-opacity:0.4;" x="240.133268" xlink:href="#mc535e6041d" y="121.001837"/>
     <use style="fill:#6b8e23;fill-opacity:0.4;stroke:#6b8e23;stroke-opacity:0.4;" x="240.630296" xlink:href="#mc535e6041d" y="121.436664"/>
     <use style="fill:#6b8e23;fill-opacity:0.4;stroke:#6b8e23;stroke-opacity:0.4;" x="240.630296" xlink:href="#mc535e6041d" y="122.161376"/>
     <use style="fill:#6b8e23;fill-opacity:0.4;stroke:#6b8e23;stroke-opacity:0.4;" x="241.189452" xlink:href="#mc535e6041d" y="120.856895"/>
     <use style="fill:#6b8e23;fill-opacity:0.4;stroke:#6b8e23;stroke-opacity:0.4;" x="241.189452" xlink:href="#mc535e6041d" y="122.306318"/>
     <use style="fill:#6b8e23;fill-opacity:0.4;stroke:#6b8e23;stroke-opacity:0.4;" x="241.189452" xlink:href="#mc535e6041d" y="120.856895"/>
     <use style="fill:#6b8e23;fill-opacity:0.4;stroke:#6b8e23;stroke-opacity:0.4;" x="245.227804" xlink:href="#mc535e6041d" y="136.655613"/>
     <use style="fill:#6b8e23;fill-opacity:0.4;stroke:#6b8e23;stroke-opacity:0.4;" x="245.227804" xlink:href="#mc535e6041d" y="125.495051"/>
     <use style="fill:#6b8e23;fill-opacity:0.4;stroke:#6b8e23;stroke-opacity:0.4;" x="248.520613" xlink:href="#mc535e6041d" y="145.64204"/>
     <use style="fill:#6b8e23;fill-opacity:0.4;stroke:#6b8e23;stroke-opacity:0.4;" x="248.520613" xlink:href="#mc535e6041d" y="126.944474"/>
     <use style="fill:#6b8e23;fill-opacity:0.4;stroke:#6b8e23;stroke-opacity:0.4;" x="248.520613" xlink:href="#mc535e6041d" y="134.771362"/>
     <use style="fill:#6b8e23;fill-opacity:0.4;stroke:#6b8e23;stroke-opacity:0.4;" x="248.520613" xlink:href="#mc535e6041d" y="136.220786"/>
     <use style="fill:#6b8e23;fill-opacity:0.4;stroke:#6b8e23;stroke-opacity:0.4;" x="250.198083" xlink:href="#mc535e6041d" y="128.828725"/>
     <use style="fill:#6b8e23;fill-opacity:0.4;stroke:#6b8e23;stroke-opacity:0.4;" x="250.198083" xlink:href="#mc535e6041d" y="134.04665"/>
     <use style="fill:#6b8e23;fill-opacity:0.4;stroke:#6b8e23;stroke-opacity:0.4;" x="250.198083" xlink:href="#mc535e6041d" y="136.51067"/>
     <use style="fill:#6b8e23;fill-opacity:0.4;stroke:#6b8e23;stroke-opacity:0.4;" x="255.044104" xlink:href="#mc535e6041d" y="136.800555"/>
     <use style="fill:#6b8e23;fill-opacity:0.4;stroke:#6b8e23;stroke-opacity:0.4;" x="255.044104" xlink:href="#mc535e6041d" y="132.887111"/>
     <use style="fill:#6b8e23;fill-opacity:0.4;stroke:#6b8e23;stroke-opacity:0.4;" x="255.044104" xlink:href="#mc535e6041d" y="134.62642"/>
     <use style="fill:#6b8e23;fill-opacity:0.4;stroke:#6b8e23;stroke-opacity:0.4;" x="255.044104" xlink:href="#mc535e6041d" y="140.569057"/>
     <use style="fill:#6b8e23;fill-opacity:0.4;stroke:#6b8e23;stroke-opacity:0.4;" x="255.23049" xlink:href="#mc535e6041d" y="137.380325"/>
     <use style="fill:#6b8e23;fill-opacity:0.4;stroke:#6b8e23;stroke-opacity:0.4;" x="255.23049" xlink:href="#mc535e6041d" y="141.583653"/>
     <use style="fill:#6b8e23;fill-opacity:0.4;stroke:#6b8e23;stroke-opacity:0.4;" x="256.410931" xlink:href="#mc535e6041d" y="138.539864"/>
     <use style="fill:#6b8e23;fill-opacity:0.4;stroke:#6b8e23;stroke-opacity:0.4;" x="256.410931" xlink:href="#mc535e6041d" y="140.279172"/>
     <use style="fill:#6b8e23;fill-opacity:0.4;stroke:#6b8e23;stroke-opacity:0.4;" x="258.212657" xlink:href="#mc535e6041d" y="143.612846"/>
     <use style="fill:#6b8e23;fill-opacity:0.4;stroke:#6b8e23;stroke-opacity:0.4;" x="258.212657" xlink:href="#mc535e6041d" y="144.192616"/>
     <use style="fill:#6b8e23;fill-opacity:0.4;stroke:#6b8e23;stroke-opacity:0.4;" x="259.517355" xlink:href="#mc535e6041d" y="155.788005"/>
     <use style="fill:#6b8e23;fill-opacity:0.4;stroke:#6b8e23;stroke-opacity:0.4;" x="259.517355" xlink:href="#mc535e6041d" y="156.367775"/>
     <use style="fill:#6b8e23;fill-opacity:0.4;stroke:#6b8e23;stroke-opacity:0.4;" x="259.517355" xlink:href="#mc535e6041d" y="158.976737"/>
     <use style="fill:#6b8e23;fill-opacity:0.4;stroke:#6b8e23;stroke-opacity:0.4;" x="260.325025" xlink:href="#mc535e6041d" y="160.136276"/>
     <use style="fill:#6b8e23;fill-opacity:0.4;stroke:#6b8e23;stroke-opacity:0.4;" x="260.635668" xlink:href="#mc535e6041d" y="159.846392"/>
     <use style="fill:#6b8e23;fill-opacity:0.4;stroke:#6b8e23;stroke-opacity:0.4;" x="260.635668" xlink:href="#mc535e6041d" y="159.991334"/>
     <use style="fill:#6b8e23;fill-opacity:0.4;stroke:#6b8e23;stroke-opacity:0.4;" x="261.816109" xlink:href="#mc535e6041d" y="161.5857"/>
     <use style="fill:#6b8e23;fill-opacity:0.4;stroke:#6b8e23;stroke-opacity:0.4;" x="263.058679" xlink:href="#mc535e6041d" y="169.267646"/>
     <use style="fill:#6b8e23;fill-opacity:0.4;stroke:#6b8e23;stroke-opacity:0.4;" x="271.073253" xlink:href="#mc535e6041d" y="189.12475"/>
     <use style="fill:#6b8e23;fill-opacity:0.4;stroke:#6b8e23;stroke-opacity:0.4;" x="274.676705" xlink:href="#mc535e6041d" y="185.356248"/>
    </g>
   </g>
   <g id="matplotlib.axis_1">
    <g id="xtick_1">
     <g id="line2d_1">
      <defs>
       <path d="M 0 0 
L 0 3.5 
" id="m37b82fc09a" style="stroke:#000000;stroke-width:0.8;"/>
      </defs>
      <g>
       <use style="stroke:#000000;stroke-width:0.8;" x="302.634523" xlink:href="#m37b82fc09a" y="253.303354"/>
      </g>
     </g>
     <g id="text_1">
      <!-- 450 -->
      <defs>
       <path d="M 37.796875 64.3125 
L 12.890625 25.390625 
L 37.796875 25.390625 
z
M 35.203125 72.90625 
L 47.609375 72.90625 
L 47.609375 25.390625 
L 58.015625 25.390625 
L 58.015625 17.1875 
L 47.609375 17.1875 
L 47.609375 0 
L 37.796875 0 
L 37.796875 17.1875 
L 4.890625 17.1875 
L 4.890625 26.703125 
z
" id="DejaVuSans-52"/>
       <path d="M 10.796875 72.90625 
L 49.515625 72.90625 
L 49.515625 64.59375 
L 19.828125 64.59375 
L 19.828125 46.734375 
Q 21.96875 47.46875 24.109375 47.828125 
Q 26.265625 48.1875 28.421875 48.1875 
Q 40.625 48.1875 47.75 41.5 
Q 54.890625 34.8125 54.890625 23.390625 
Q 54.890625 11.625 47.5625 5.09375 
Q 40.234375 -1.421875 26.90625 -1.421875 
Q 22.3125 -1.421875 17.546875 -0.640625 
Q 12.796875 0.140625 7.71875 1.703125 
L 7.71875 11.625 
Q 12.109375 9.234375 16.796875 8.0625 
Q 21.484375 6.890625 26.703125 6.890625 
Q 35.15625 6.890625 40.078125 11.328125 
Q 45.015625 15.765625 45.015625 23.390625 
Q 45.015625 31 40.078125 35.4375 
Q 35.15625 39.890625 26.703125 39.890625 
Q 22.75 39.890625 18.8125 39.015625 
Q 14.890625 38.140625 10.796875 36.28125 
z
" id="DejaVuSans-53"/>
       <path d="M 31.78125 66.40625 
Q 24.171875 66.40625 20.328125 58.90625 
Q 16.5 51.421875 16.5 36.375 
Q 16.5 21.390625 20.328125 13.890625 
Q 24.171875 6.390625 31.78125 6.390625 
Q 39.453125 6.390625 43.28125 13.890625 
Q 47.125 21.390625 47.125 36.375 
Q 47.125 51.421875 43.28125 58.90625 
Q 39.453125 66.40625 31.78125 66.40625 
z
M 31.78125 74.21875 
Q 44.046875 74.21875 50.515625 64.515625 
Q 56.984375 54.828125 56.984375 36.375 
Q 56.984375 17.96875 50.515625 8.265625 
Q 44.046875 -1.421875 31.78125 -1.421875 
Q 19.53125 -1.421875 13.0625 8.265625 
Q 6.59375 17.96875 6.59375 36.375 
Q 6.59375 54.828125 13.0625 64.515625 
Q 19.53125 74.21875 31.78125 74.21875 
z
" id="DejaVuSans-48"/>
      </defs>
      <g transform="translate(293.090773 267.901791)scale(0.1 -0.1)">
       <use xlink:href="#DejaVuSans-52"/>
       <use x="63.623047" xlink:href="#DejaVuSans-53"/>
       <use x="127.246094" xlink:href="#DejaVuSans-48"/>
      </g>
     </g>
    </g>
    <g id="xtick_2">
     <g id="line2d_2">
      <g>
       <use style="stroke:#000000;stroke-width:0.8;" x="240.506039" xlink:href="#m37b82fc09a" y="253.303354"/>
      </g>
     </g>
     <g id="text_2">
      <!-- 460 -->
      <defs>
       <path d="M 33.015625 40.375 
Q 26.375 40.375 22.484375 35.828125 
Q 18.609375 31.296875 18.609375 23.390625 
Q 18.609375 15.53125 22.484375 10.953125 
Q 26.375 6.390625 33.015625 6.390625 
Q 39.65625 6.390625 43.53125 10.953125 
Q 47.40625 15.53125 47.40625 23.390625 
Q 47.40625 31.296875 43.53125 35.828125 
Q 39.65625 40.375 33.015625 40.375 
z
M 52.59375 71.296875 
L 52.59375 62.3125 
Q 48.875 64.0625 45.09375 64.984375 
Q 41.3125 65.921875 37.59375 65.921875 
Q 27.828125 65.921875 22.671875 59.328125 
Q 17.53125 52.734375 16.796875 39.40625 
Q 19.671875 43.65625 24.015625 45.921875 
Q 28.375 48.1875 33.59375 48.1875 
Q 44.578125 48.1875 50.953125 41.515625 
Q 57.328125 34.859375 57.328125 23.390625 
Q 57.328125 12.15625 50.6875 5.359375 
Q 44.046875 -1.421875 33.015625 -1.421875 
Q 20.359375 -1.421875 13.671875 8.265625 
Q 6.984375 17.96875 6.984375 36.375 
Q 6.984375 53.65625 15.1875 63.9375 
Q 23.390625 74.21875 37.203125 74.21875 
Q 40.921875 74.21875 44.703125 73.484375 
Q 48.484375 72.75 52.59375 71.296875 
z
" id="DejaVuSans-54"/>
      </defs>
      <g transform="translate(230.962289 267.901791)scale(0.1 -0.1)">
       <use xlink:href="#DejaVuSans-52"/>
       <use x="63.623047" xlink:href="#DejaVuSans-54"/>
       <use x="127.246094" xlink:href="#DejaVuSans-48"/>
      </g>
     </g>
    </g>
    <g id="xtick_3">
     <g id="line2d_3">
      <g>
       <use style="stroke:#000000;stroke-width:0.8;" x="178.377555" xlink:href="#m37b82fc09a" y="253.303354"/>
      </g>
     </g>
     <g id="text_3">
      <!-- 470 -->
      <defs>
       <path d="M 8.203125 72.90625 
L 55.078125 72.90625 
L 55.078125 68.703125 
L 28.609375 0 
L 18.3125 0 
L 43.21875 64.59375 
L 8.203125 64.59375 
z
" id="DejaVuSans-55"/>
      </defs>
      <g transform="translate(168.833805 267.901791)scale(0.1 -0.1)">
       <use xlink:href="#DejaVuSans-52"/>
       <use x="63.623047" xlink:href="#DejaVuSans-55"/>
       <use x="127.246094" xlink:href="#DejaVuSans-48"/>
      </g>
     </g>
    </g>
    <g id="xtick_4">
     <g id="line2d_4">
      <g>
       <use style="stroke:#000000;stroke-width:0.8;" x="116.249071" xlink:href="#m37b82fc09a" y="253.303354"/>
      </g>
     </g>
     <g id="text_4">
      <!-- 480 -->
      <defs>
       <path d="M 31.78125 34.625 
Q 24.75 34.625 20.71875 30.859375 
Q 16.703125 27.09375 16.703125 20.515625 
Q 16.703125 13.921875 20.71875 10.15625 
Q 24.75 6.390625 31.78125 6.390625 
Q 38.8125 6.390625 42.859375 10.171875 
Q 46.921875 13.96875 46.921875 20.515625 
Q 46.921875 27.09375 42.890625 30.859375 
Q 38.875 34.625 31.78125 34.625 
z
M 21.921875 38.8125 
Q 15.578125 40.375 12.03125 44.71875 
Q 8.5 49.078125 8.5 55.328125 
Q 8.5 64.0625 14.71875 69.140625 
Q 20.953125 74.21875 31.78125 74.21875 
Q 42.671875 74.21875 48.875 69.140625 
Q 55.078125 64.0625 55.078125 55.328125 
Q 55.078125 49.078125 51.53125 44.71875 
Q 48 40.375 41.703125 38.8125 
Q 48.828125 37.15625 52.796875 32.3125 
Q 56.78125 27.484375 56.78125 20.515625 
Q 56.78125 9.90625 50.3125 4.234375 
Q 43.84375 -1.421875 31.78125 -1.421875 
Q 19.734375 -1.421875 13.25 4.234375 
Q 6.78125 9.90625 6.78125 20.515625 
Q 6.78125 27.484375 10.78125 32.3125 
Q 14.796875 37.15625 21.921875 38.8125 
z
M 18.3125 54.390625 
Q 18.3125 48.734375 21.84375 45.5625 
Q 25.390625 42.390625 31.78125 42.390625 
Q 38.140625 42.390625 41.71875 45.5625 
Q 45.3125 48.734375 45.3125 54.390625 
Q 45.3125 60.0625 41.71875 63.234375 
Q 38.140625 66.40625 31.78125 66.40625 
Q 25.390625 66.40625 21.84375 63.234375 
Q 18.3125 60.0625 18.3125 54.390625 
z
" id="DejaVuSans-56"/>
      </defs>
      <g transform="translate(106.705321 267.901791)scale(0.1 -0.1)">
       <use xlink:href="#DejaVuSans-52"/>
       <use x="63.623047" xlink:href="#DejaVuSans-56"/>
       <use x="127.246094" xlink:href="#DejaVuSans-48"/>
      </g>
     </g>
    </g>
   </g>
   <g id="matplotlib.axis_2">
    <g id="ytick_1">
     <g id="line2d_5">
      <defs>
       <path d="M 0 0 
L -3.5 0 
" id="m380dd8f167" style="stroke:#000000;stroke-width:0.8;"/>
      </defs>
      <g>
       <use style="stroke:#000000;stroke-width:0.8;" x="59.090865" xlink:href="#m380dd8f167" y="239.419752"/>
      </g>
     </g>
     <g id="text_5">
      <!-- 0.7078 -->
      <defs>
       <path d="M 10.6875 12.40625 
L 21 12.40625 
L 21 0 
L 10.6875 0 
z
" id="DejaVuSans-46"/>
      </defs>
      <g transform="translate(17.10024 243.21897)scale(0.1 -0.1)">
       <use xlink:href="#DejaVuSans-48"/>
       <use x="63.623047" xlink:href="#DejaVuSans-46"/>
       <use x="95.410156" xlink:href="#DejaVuSans-55"/>
       <use x="159.033203" xlink:href="#DejaVuSans-48"/>
       <use x="222.65625" xlink:href="#DejaVuSans-55"/>
       <use x="286.279297" xlink:href="#DejaVuSans-56"/>
      </g>
     </g>
    </g>
    <g id="ytick_2">
     <g id="line2d_6">
      <g>
       <use style="stroke:#000000;stroke-width:0.8;" x="59.090865" xlink:href="#m380dd8f167" y="210.431278"/>
      </g>
     </g>
     <g id="text_6">
      <!-- 0.7080 -->
      <g transform="translate(17.10024 214.230497)scale(0.1 -0.1)">
       <use xlink:href="#DejaVuSans-48"/>
       <use x="63.623047" xlink:href="#DejaVuSans-46"/>
       <use x="95.410156" xlink:href="#DejaVuSans-55"/>
       <use x="159.033203" xlink:href="#DejaVuSans-48"/>
       <use x="222.65625" xlink:href="#DejaVuSans-56"/>
       <use x="286.279297" xlink:href="#DejaVuSans-48"/>
      </g>
     </g>
    </g>
    <g id="ytick_3">
     <g id="line2d_7">
      <g>
       <use style="stroke:#000000;stroke-width:0.8;" x="59.090865" xlink:href="#m380dd8f167" y="181.442804"/>
      </g>
     </g>
     <g id="text_7">
      <!-- 0.7082 -->
      <defs>
       <path d="M 19.1875 8.296875 
L 53.609375 8.296875 
L 53.609375 0 
L 7.328125 0 
L 7.328125 8.296875 
Q 12.9375 14.109375 22.625 23.890625 
Q 32.328125 33.6875 34.8125 36.53125 
Q 39.546875 41.84375 41.421875 45.53125 
Q 43.3125 49.21875 43.3125 52.78125 
Q 43.3125 58.59375 39.234375 62.25 
Q 35.15625 65.921875 28.609375 65.921875 
Q 23.96875 65.921875 18.8125 64.3125 
Q 13.671875 62.703125 7.8125 59.421875 
L 7.8125 69.390625 
Q 13.765625 71.78125 18.9375 73 
Q 24.125 74.21875 28.421875 74.21875 
Q 39.75 74.21875 46.484375 68.546875 
Q 53.21875 62.890625 53.21875 53.421875 
Q 53.21875 48.921875 51.53125 44.890625 
Q 49.859375 40.875 45.40625 35.40625 
Q 44.1875 33.984375 37.640625 27.21875 
Q 31.109375 20.453125 19.1875 8.296875 
z
" id="DejaVuSans-50"/>
      </defs>
      <g transform="translate(17.10024 185.242023)scale(0.1 -0.1)">
       <use xlink:href="#DejaVuSans-48"/>
       <use x="63.623047" xlink:href="#DejaVuSans-46"/>
       <use x="95.410156" xlink:href="#DejaVuSans-55"/>
       <use x="159.033203" xlink:href="#DejaVuSans-48"/>
       <use x="222.65625" xlink:href="#DejaVuSans-56"/>
       <use x="286.279297" xlink:href="#DejaVuSans-50"/>
      </g>
     </g>
    </g>
    <g id="ytick_4">
     <g id="line2d_8">
      <g>
       <use style="stroke:#000000;stroke-width:0.8;" x="59.090865" xlink:href="#m380dd8f167" y="152.454331"/>
      </g>
     </g>
     <g id="text_8">
      <!-- 0.7084 -->
      <g transform="translate(17.10024 156.25355)scale(0.1 -0.1)">
       <use xlink:href="#DejaVuSans-48"/>
       <use x="63.623047" xlink:href="#DejaVuSans-46"/>
       <use x="95.410156" xlink:href="#DejaVuSans-55"/>
       <use x="159.033203" xlink:href="#DejaVuSans-48"/>
       <use x="222.65625" xlink:href="#DejaVuSans-56"/>
       <use x="286.279297" xlink:href="#DejaVuSans-52"/>
      </g>
     </g>
    </g>
    <g id="ytick_5">
     <g id="line2d_9">
      <g>
       <use style="stroke:#000000;stroke-width:0.8;" x="59.090865" xlink:href="#m380dd8f167" y="123.465857"/>
      </g>
     </g>
     <g id="text_9">
      <!-- 0.7086 -->
      <g transform="translate(17.10024 127.265076)scale(0.1 -0.1)">
       <use xlink:href="#DejaVuSans-48"/>
       <use x="63.623047" xlink:href="#DejaVuSans-46"/>
       <use x="95.410156" xlink:href="#DejaVuSans-55"/>
       <use x="159.033203" xlink:href="#DejaVuSans-48"/>
       <use x="222.65625" xlink:href="#DejaVuSans-56"/>
       <use x="286.279297" xlink:href="#DejaVuSans-54"/>
      </g>
     </g>
    </g>
    <g id="ytick_6">
     <g id="line2d_10">
      <g>
       <use style="stroke:#000000;stroke-width:0.8;" x="59.090865" xlink:href="#m380dd8f167" y="94.477384"/>
      </g>
     </g>
     <g id="text_10">
      <!-- 0.7088 -->
      <g transform="translate(17.10024 98.276603)scale(0.1 -0.1)">
       <use xlink:href="#DejaVuSans-48"/>
       <use x="63.623047" xlink:href="#DejaVuSans-46"/>
       <use x="95.410156" xlink:href="#DejaVuSans-55"/>
       <use x="159.033203" xlink:href="#DejaVuSans-48"/>
       <use x="222.65625" xlink:href="#DejaVuSans-56"/>
       <use x="286.279297" xlink:href="#DejaVuSans-56"/>
      </g>
     </g>
    </g>
    <g id="ytick_7">
     <g id="line2d_11">
      <g>
       <use style="stroke:#000000;stroke-width:0.8;" x="59.090865" xlink:href="#m380dd8f167" y="65.48891"/>
      </g>
     </g>
     <g id="text_11">
      <!-- 0.7090 -->
      <defs>
       <path d="M 10.984375 1.515625 
L 10.984375 10.5 
Q 14.703125 8.734375 18.5 7.8125 
Q 22.3125 6.890625 25.984375 6.890625 
Q 35.75 6.890625 40.890625 13.453125 
Q 46.046875 20.015625 46.78125 33.40625 
Q 43.953125 29.203125 39.59375 26.953125 
Q 35.25 24.703125 29.984375 24.703125 
Q 19.046875 24.703125 12.671875 31.3125 
Q 6.296875 37.9375 6.296875 49.421875 
Q 6.296875 60.640625 12.9375 67.421875 
Q 19.578125 74.21875 30.609375 74.21875 
Q 43.265625 74.21875 49.921875 64.515625 
Q 56.59375 54.828125 56.59375 36.375 
Q 56.59375 19.140625 48.40625 8.859375 
Q 40.234375 -1.421875 26.421875 -1.421875 
Q 22.703125 -1.421875 18.890625 -0.6875 
Q 15.09375 0.046875 10.984375 1.515625 
z
M 30.609375 32.421875 
Q 37.25 32.421875 41.125 36.953125 
Q 45.015625 41.5 45.015625 49.421875 
Q 45.015625 57.28125 41.125 61.84375 
Q 37.25 66.40625 30.609375 66.40625 
Q 23.96875 66.40625 20.09375 61.84375 
Q 16.21875 57.28125 16.21875 49.421875 
Q 16.21875 41.5 20.09375 36.953125 
Q 23.96875 32.421875 30.609375 32.421875 
z
" id="DejaVuSans-57"/>
      </defs>
      <g transform="translate(17.10024 69.288129)scale(0.1 -0.1)">
       <use xlink:href="#DejaVuSans-48"/>
       <use x="63.623047" xlink:href="#DejaVuSans-46"/>
       <use x="95.410156" xlink:href="#DejaVuSans-55"/>
       <use x="159.033203" xlink:href="#DejaVuSans-48"/>
       <use x="222.65625" xlink:href="#DejaVuSans-57"/>
       <use x="286.279297" xlink:href="#DejaVuSans-48"/>
      </g>
     </g>
    </g>
    <g id="ytick_8">
     <g id="line2d_12">
      <g>
       <use style="stroke:#000000;stroke-width:0.8;" x="59.090865" xlink:href="#m380dd8f167" y="36.500437"/>
      </g>
     </g>
     <g id="text_12">
      <!-- 0.7092 -->
      <g transform="translate(17.10024 40.299655)scale(0.1 -0.1)">
       <use xlink:href="#DejaVuSans-48"/>
       <use x="63.623047" xlink:href="#DejaVuSans-46"/>
       <use x="95.410156" xlink:href="#DejaVuSans-55"/>
       <use x="159.033203" xlink:href="#DejaVuSans-48"/>
       <use x="222.65625" xlink:href="#DejaVuSans-57"/>
       <use x="286.279297" xlink:href="#DejaVuSans-50"/>
      </g>
     </g>
    </g>
    <g id="ytick_9">
     <g id="line2d_13">
      <g>
       <use style="stroke:#000000;stroke-width:0.8;" x="59.090865" xlink:href="#m380dd8f167" y="7.511963"/>
      </g>
     </g>
     <g id="text_13">
      <!-- 0.7094 -->
      <g transform="translate(17.10024 11.311182)scale(0.1 -0.1)">
       <use xlink:href="#DejaVuSans-48"/>
       <use x="63.623047" xlink:href="#DejaVuSans-46"/>
       <use x="95.410156" xlink:href="#DejaVuSans-55"/>
       <use x="159.033203" xlink:href="#DejaVuSans-48"/>
       <use x="222.65625" xlink:href="#DejaVuSans-57"/>
       <use x="286.279297" xlink:href="#DejaVuSans-52"/>
      </g>
     </g>
    </g>
    <g id="text_14">
     <!-- Seawater $^{87}Sr/^{86}Sr$ -->
     <defs>
      <path d="M 53.515625 70.515625 
L 53.515625 60.890625 
Q 47.90625 63.578125 42.921875 64.890625 
Q 37.9375 66.21875 33.296875 66.21875 
Q 25.25 66.21875 20.875 63.09375 
Q 16.5 59.96875 16.5 54.203125 
Q 16.5 49.359375 19.40625 46.890625 
Q 22.3125 44.4375 30.421875 42.921875 
L 36.375 41.703125 
Q 47.40625 39.59375 52.65625 34.296875 
Q 57.90625 29 57.90625 20.125 
Q 57.90625 9.515625 50.796875 4.046875 
Q 43.703125 -1.421875 29.984375 -1.421875 
Q 24.8125 -1.421875 18.96875 -0.25 
Q 13.140625 0.921875 6.890625 3.21875 
L 6.890625 13.375 
Q 12.890625 10.015625 18.65625 8.296875 
Q 24.421875 6.59375 29.984375 6.59375 
Q 38.421875 6.59375 43.015625 9.90625 
Q 47.609375 13.234375 47.609375 19.390625 
Q 47.609375 24.75 44.3125 27.78125 
Q 41.015625 30.8125 33.5 32.328125 
L 27.484375 33.5 
Q 16.453125 35.6875 11.515625 40.375 
Q 6.59375 45.0625 6.59375 53.421875 
Q 6.59375 63.09375 13.40625 68.65625 
Q 20.21875 74.21875 32.171875 74.21875 
Q 37.3125 74.21875 42.625 73.28125 
Q 47.953125 72.359375 53.515625 70.515625 
z
" id="DejaVuSans-83"/>
      <path d="M 56.203125 29.59375 
L 56.203125 25.203125 
L 14.890625 25.203125 
Q 15.484375 15.921875 20.484375 11.0625 
Q 25.484375 6.203125 34.421875 6.203125 
Q 39.59375 6.203125 44.453125 7.46875 
Q 49.3125 8.734375 54.109375 11.28125 
L 54.109375 2.78125 
Q 49.265625 0.734375 44.1875 -0.34375 
Q 39.109375 -1.421875 33.890625 -1.421875 
Q 20.796875 -1.421875 13.15625 6.1875 
Q 5.515625 13.8125 5.515625 26.8125 
Q 5.515625 40.234375 12.765625 48.109375 
Q 20.015625 56 32.328125 56 
Q 43.359375 56 49.78125 48.890625 
Q 56.203125 41.796875 56.203125 29.59375 
z
M 47.21875 32.234375 
Q 47.125 39.59375 43.09375 43.984375 
Q 39.0625 48.390625 32.421875 48.390625 
Q 24.90625 48.390625 20.390625 44.140625 
Q 15.875 39.890625 15.1875 32.171875 
z
" id="DejaVuSans-101"/>
      <path d="M 34.28125 27.484375 
Q 23.390625 27.484375 19.1875 25 
Q 14.984375 22.515625 14.984375 16.5 
Q 14.984375 11.71875 18.140625 8.90625 
Q 21.296875 6.109375 26.703125 6.109375 
Q 34.1875 6.109375 38.703125 11.40625 
Q 43.21875 16.703125 43.21875 25.484375 
L 43.21875 27.484375 
z
M 52.203125 31.203125 
L 52.203125 0 
L 43.21875 0 
L 43.21875 8.296875 
Q 40.140625 3.328125 35.546875 0.953125 
Q 30.953125 -1.421875 24.3125 -1.421875 
Q 15.921875 -1.421875 10.953125 3.296875 
Q 6 8.015625 6 15.921875 
Q 6 25.140625 12.171875 29.828125 
Q 18.359375 34.515625 30.609375 34.515625 
L 43.21875 34.515625 
L 43.21875 35.40625 
Q 43.21875 41.609375 39.140625 45 
Q 35.0625 48.390625 27.6875 48.390625 
Q 23 48.390625 18.546875 47.265625 
Q 14.109375 46.140625 10.015625 43.890625 
L 10.015625 52.203125 
Q 14.9375 54.109375 19.578125 55.046875 
Q 24.21875 56 28.609375 56 
Q 40.484375 56 46.34375 49.84375 
Q 52.203125 43.703125 52.203125 31.203125 
z
" id="DejaVuSans-97"/>
      <path d="M 4.203125 54.6875 
L 13.1875 54.6875 
L 24.421875 12.015625 
L 35.59375 54.6875 
L 46.1875 54.6875 
L 57.421875 12.015625 
L 68.609375 54.6875 
L 77.59375 54.6875 
L 63.28125 0 
L 52.6875 0 
L 40.921875 44.828125 
L 29.109375 0 
L 18.5 0 
z
" id="DejaVuSans-119"/>
      <path d="M 18.3125 70.21875 
L 18.3125 54.6875 
L 36.8125 54.6875 
L 36.8125 47.703125 
L 18.3125 47.703125 
L 18.3125 18.015625 
Q 18.3125 11.328125 20.140625 9.421875 
Q 21.96875 7.515625 27.59375 7.515625 
L 36.8125 7.515625 
L 36.8125 0 
L 27.59375 0 
Q 17.1875 0 13.234375 3.875 
Q 9.28125 7.765625 9.28125 18.015625 
L 9.28125 47.703125 
L 2.6875 47.703125 
L 2.6875 54.6875 
L 9.28125 54.6875 
L 9.28125 70.21875 
z
" id="DejaVuSans-116"/>
      <path d="M 41.109375 46.296875 
Q 39.59375 47.171875 37.8125 47.578125 
Q 36.03125 48 33.890625 48 
Q 26.265625 48 22.1875 43.046875 
Q 18.109375 38.09375 18.109375 28.8125 
L 18.109375 0 
L 9.078125 0 
L 9.078125 54.6875 
L 18.109375 54.6875 
L 18.109375 46.1875 
Q 20.953125 51.171875 25.484375 53.578125 
Q 30.03125 56 36.53125 56 
Q 37.453125 56 38.578125 55.875 
Q 39.703125 55.765625 41.0625 55.515625 
z
" id="DejaVuSans-114"/>
      <path id="DejaVuSans-32"/>
      <path d="M 60.296875 70.515625 
L 58.40625 60.890625 
Q 53.46875 63.53125 48.609375 64.875 
Q 43.75 66.21875 39.203125 66.21875 
Q 30.375 66.21875 25.140625 62.359375 
Q 19.921875 58.5 19.921875 52.09375 
Q 19.921875 48.578125 21.84375 46.703125 
Q 23.78125 44.828125 31.78125 42.671875 
L 37.703125 41.21875 
Q 47.703125 38.625 51.609375 34.640625 
Q 55.515625 30.671875 55.515625 23.484375 
Q 55.515625 12.453125 46.84375 5.515625 
Q 38.1875 -1.421875 24.03125 -1.421875 
Q 18.21875 -1.421875 12.359375 -0.265625 
Q 6.5 0.875 0.59375 3.21875 
L 2.59375 13.375 
Q 8.015625 10.015625 13.453125 8.296875 
Q 18.890625 6.59375 24.3125 6.59375 
Q 33.546875 6.59375 39.109375 10.6875 
Q 44.671875 14.796875 44.671875 21.390625 
Q 44.671875 25.78125 42.453125 28.046875 
Q 40.234375 30.328125 32.90625 32.171875 
L 27 33.6875 
Q 16.890625 36.328125 13.203125 39.765625 
Q 9.515625 43.21875 9.515625 49.421875 
Q 9.515625 60.296875 17.890625 67.25 
Q 26.265625 74.21875 39.703125 74.21875 
Q 44.921875 74.21875 50.046875 73.28125 
Q 55.171875 72.359375 60.296875 70.515625 
z
" id="DejaVuSans-Oblique-83"/>
      <path d="M 44.578125 46.390625 
Q 43.21875 47.125 41.453125 47.515625 
Q 39.703125 47.90625 37.703125 47.90625 
Q 30.515625 47.90625 25.140625 42.453125 
Q 19.78125 37.015625 18.015625 27.875 
L 12.5 0 
L 3.515625 0 
L 14.203125 54.6875 
L 23.1875 54.6875 
L 21.484375 46.1875 
Q 25.046875 50.921875 30 53.453125 
Q 34.96875 56 40.578125 56 
Q 42.046875 56 43.453125 55.828125 
Q 44.875 55.671875 46.296875 55.28125 
z
" id="DejaVuSans-Oblique-114"/>
      <path d="M 25.390625 72.90625 
L 33.6875 72.90625 
L 8.296875 -9.28125 
L 0 -9.28125 
z
" id="DejaVuSans-47"/>
     </defs>
     <g transform="translate(11.020552 174.751797)rotate(-90)scale(0.1 -0.1)">
      <use transform="translate(0 0.765625)" xlink:href="#DejaVuSans-83"/>
      <use transform="translate(63.476562 0.765625)" xlink:href="#DejaVuSans-101"/>
      <use transform="translate(125 0.765625)" xlink:href="#DejaVuSans-97"/>
      <use transform="translate(186.279297 0.765625)" xlink:href="#DejaVuSans-119"/>
      <use transform="translate(268.066406 0.765625)" xlink:href="#DejaVuSans-97"/>
      <use transform="translate(329.345703 0.765625)" xlink:href="#DejaVuSans-116"/>
      <use transform="translate(368.554688 0.765625)" xlink:href="#DejaVuSans-101"/>
      <use transform="translate(430.078125 0.765625)" xlink:href="#DejaVuSans-114"/>
      <use transform="translate(471.191406 0.765625)" xlink:href="#DejaVuSans-32"/>
      <use transform="translate(503.935547 39.046875)scale(0.7)" xlink:href="#DejaVuSans-56"/>
      <use transform="translate(548.47168 39.046875)scale(0.7)" xlink:href="#DejaVuSans-55"/>
      <use transform="translate(595.742188 0.765625)" xlink:href="#DejaVuSans-Oblique-83"/>
      <use transform="translate(659.21875 0.765625)" xlink:href="#DejaVuSans-Oblique-114"/>
      <use transform="translate(700.332031 0.765625)" xlink:href="#DejaVuSans-47"/>
      <use transform="translate(734.980469 39.046875)scale(0.7)" xlink:href="#DejaVuSans-56"/>
      <use transform="translate(779.516602 39.046875)scale(0.7)" xlink:href="#DejaVuSans-54"/>
      <use transform="translate(826.787109 0.765625)" xlink:href="#DejaVuSans-Oblique-83"/>
      <use transform="translate(890.263672 0.765625)" xlink:href="#DejaVuSans-Oblique-114"/>
     </g>
    </g>
   </g>
   <g id="line2d_14">
    <path clip-path="url(#p8566a495c0)" d="M 72.759132 14.377654 
L 75.326058 14.488534 
L 78.067939 14.832282 
L 81.017581 15.429415 
L 84.218721 16.308097 
L 87.723299 17.504909 
L 91.602392 19.069618 
L 95.943477 21.066042 
L 100.880504 23.587801 
L 106.607565 26.770387 
L 113.458169 30.841165 
L 122.077464 36.234429 
L 134.179468 44.090754 
L 188.885885 79.901029 
L 206.641141 91.10602 
L 224.120295 101.874114 
L 238.841165 110.962187 
L 240.074055 112.220635 
L 241.432695 113.936976 
L 242.936219 116.20777 
L 244.606498 119.147674 
L 246.468134 122.889986 
L 248.556666 127.605184 
L 250.913099 133.493278 
L 253.603041 140.834282 
L 256.730371 150.040307 
L 260.475514 161.786877 
L 265.256721 177.558892 
L 270.893571 196.124851 
L 272.859087 201.534899 
L 274.838272 206.342518 
L 276.836593 210.621872 
L 278.856783 214.430875 
L 280.907043 217.828864 
L 282.995575 220.86492 
L 285.127846 223.576611 
L 287.317524 226.005011 
L 289.578278 228.182579 
L 291.92651 230.1372 
L 294.384089 231.894041 
L 296.975618 233.472915 
L 299.731168 234.890274 
L 302.68901 236.159989 
L 305.901085 237.294279 
L 309.427533 238.300511 
L 313.353099 239.185481 
L 317.79533 239.954237 
L 322.923715 240.61029 
L 328.997953 241.156117 
L 336.449966 241.593686 
L 346.07799 241.924781 
L 346.124462 241.925939 
L 346.124462 241.925939 
" style="fill:none;stroke:#800000;stroke-linecap:square;stroke-width:1.5;"/>
   </g>
   <g id="line2d_15">
    <path clip-path="url(#p8566a495c0)" d="M 72.759132 14.377654 
L 74.94881 14.488502 
L 77.31071 14.835395 
L 79.96238 15.452886 
L 83.237329 16.448306 
L 87.124623 17.870637 
L 92.026113 19.903449 
L 98.146824 22.693547 
L 105.388344 26.259192 
L 112.966106 30.268568 
L 123.181871 35.923209 
L 130.417924 39.828203 
L 135.152659 42.119416 
L 139.537482 43.994556 
L 143.793823 45.568897 
L 148.178647 46.958534 
L 152.618144 48.130403 
L 157.552438 49.199142 
L 162.423857 50.030186 
L 166.797746 50.560715 
L 170.777985 50.821259 
L 174.72542 50.850553 
L 178.656452 50.664863 
L 183.639952 50.182426 
L 189.58024 49.373196 
L 198.73807 48.147246 
L 205.74176 47.448586 
L 210.913884 47.12776 
L 214.831248 47.099999 
L 218.026921 47.307342 
L 221.143317 47.734534 
L 223.964475 48.335766 
L 226.2553 49.041902 
L 228.136072 49.876907 
L 229.994975 50.941464 
L 232.006964 52.35599 
L 234.199376 54.176131 
L 236.689759 56.5456 
L 239.814356 59.853695 
L 244.223783 64.861349 
L 251.082587 72.639196 
L 254.814061 76.507088 
L 258.108147 79.607403 
L 261.027717 82.051582 
L 263.837941 84.106931 
L 266.719241 85.94207 
L 269.491193 87.441345 
L 272.271346 88.691448 
L 275.056967 89.700615 
L 278.020276 90.536052 
L 280.794962 91.095822 
L 283.864886 91.482243 
L 286.953945 91.652683 
L 290.280834 91.609771 
L 293.588588 91.350746 
L 297.019357 90.859681 
L 300.165823 90.188539 
L 303.233013 89.307004 
L 306.417751 88.159167 
L 309.186969 86.926264 
L 311.95072 85.453498 
L 314.405566 83.912209 
L 316.811205 82.146584 
L 319.140301 80.15193 
L 321.313577 77.984347 
L 323.352902 75.649031 
L 325.515244 72.830709 
L 327.71859 69.578294 
L 330.094159 65.666516 
L 332.688422 60.955135 
L 335.517781 55.344261 
L 338.915746 48.074317 
L 346.124462 32.23992 
L 346.124462 32.23992 
" style="fill:none;stroke:#4682b4;stroke-linecap:square;stroke-width:1.5;"/>
   </g>
   <g id="line2d_16">
    <path clip-path="url(#p8566a495c0)" d="M 176.5137 98.908272 
L 180.226256 99.938812 
L 181.520616 100.29682 
L 182.5696 100.583806 
L 183.576622 100.854848 
L 184.415803 101.07516 
L 190.532409 102.569516 
L 198.319512 104.32042 
L 207.522455 106.501803 
L 215.841031 108.912194 
L 216.265573 109.04844 
L 218.388299 109.65285 
L 221.360109 110.45728 
L 225.181011 111.880614 
L 234.226626 115.840439 
L 235.668895 116.704296 
L 236.556444 117.311604 
L 238.331542 118.742186 
L 238.997205 119.36109 
L 239.551926 119.869837 
L 240.10664 120.348147 
L 240.66136 120.842401 
L 241.216081 121.39608 
L 245.210054 126.358907 
L 248.520613 131.392755 
L 250.216721 134.265513 
L 255.062743 143.433118 
L 255.256584 143.827361 
L 256.419629 146.242101 
L 258.212657 150.132354 
L 259.545313 153.139908 
L 260.344907 154.985025 
L 260.635668 155.663355 
L 261.847173 158.534663 
L 263.058679 161.482791 
L 271.054615 182.93861 
L 274.689131 193.860017 
" style="fill:none;stroke:#6b8e23;stroke-linecap:square;stroke-width:1.5;"/>
   </g>
   <g id="patch_3">
    <path d="M 59.090865 253.303354 
L 59.090865 3.00024 
" style="fill:none;stroke:#000000;stroke-linecap:square;stroke-linejoin:miter;stroke-width:0.8;"/>
   </g>
   <g id="patch_4">
    <path d="M 359.792729 253.303354 
L 359.792729 3.00024 
" style="fill:none;stroke:#000000;stroke-linecap:square;stroke-linejoin:miter;stroke-width:0.8;"/>
   </g>
   <g id="patch_5">
    <path d="M 59.090865 253.303354 
L 359.792729 253.303354 
" style="fill:none;stroke:#000000;stroke-linecap:square;stroke-linejoin:miter;stroke-width:0.8;"/>
   </g>
   <g id="patch_6">
    <path d="M 59.090865 3.00024 
L 359.792729 3.00024 
" style="fill:none;stroke:#000000;stroke-linecap:square;stroke-linejoin:miter;stroke-width:0.8;"/>
   </g>
   <g id="legend_1">
    <g id="patch_7">
     <path d="M 66.090865 248.303354 
L 187.065865 248.303354 
Q 189.065865 248.303354 189.065865 246.303354 
L 189.065865 188.590854 
Q 189.065865 186.590854 187.065865 186.590854 
L 66.090865 186.590854 
Q 64.090865 186.590854 64.090865 188.590854 
L 64.090865 246.303354 
Q 64.090865 248.303354 66.090865 248.303354 
z
" style="fill:#ffffff;opacity:0.8;"/>
    </g>
    <g id="line2d_17">
     <path d="M 68.090865 194.689291 
L 88.090865 194.689291 
" style="fill:none;stroke:#800000;stroke-linecap:square;stroke-width:1.5;"/>
    </g>
    <g id="line2d_18"/>
    <g id="text_15">
     <!-- Standard Model -->
     <defs>
      <path d="M 54.890625 33.015625 
L 54.890625 0 
L 45.90625 0 
L 45.90625 32.71875 
Q 45.90625 40.484375 42.875 44.328125 
Q 39.84375 48.1875 33.796875 48.1875 
Q 26.515625 48.1875 22.3125 43.546875 
Q 18.109375 38.921875 18.109375 30.90625 
L 18.109375 0 
L 9.078125 0 
L 9.078125 54.6875 
L 18.109375 54.6875 
L 18.109375 46.1875 
Q 21.34375 51.125 25.703125 53.5625 
Q 30.078125 56 35.796875 56 
Q 45.21875 56 50.046875 50.171875 
Q 54.890625 44.34375 54.890625 33.015625 
z
" id="DejaVuSans-110"/>
      <path d="M 45.40625 46.390625 
L 45.40625 75.984375 
L 54.390625 75.984375 
L 54.390625 0 
L 45.40625 0 
L 45.40625 8.203125 
Q 42.578125 3.328125 38.25 0.953125 
Q 33.9375 -1.421875 27.875 -1.421875 
Q 17.96875 -1.421875 11.734375 6.484375 
Q 5.515625 14.40625 5.515625 27.296875 
Q 5.515625 40.1875 11.734375 48.09375 
Q 17.96875 56 27.875 56 
Q 33.9375 56 38.25 53.625 
Q 42.578125 51.265625 45.40625 46.390625 
z
M 14.796875 27.296875 
Q 14.796875 17.390625 18.875 11.75 
Q 22.953125 6.109375 30.078125 6.109375 
Q 37.203125 6.109375 41.296875 11.75 
Q 45.40625 17.390625 45.40625 27.296875 
Q 45.40625 37.203125 41.296875 42.84375 
Q 37.203125 48.484375 30.078125 48.484375 
Q 22.953125 48.484375 18.875 42.84375 
Q 14.796875 37.203125 14.796875 27.296875 
z
" id="DejaVuSans-100"/>
      <path d="M 9.8125 72.90625 
L 24.515625 72.90625 
L 43.109375 23.296875 
L 61.8125 72.90625 
L 76.515625 72.90625 
L 76.515625 0 
L 66.890625 0 
L 66.890625 64.015625 
L 48.09375 14.015625 
L 38.1875 14.015625 
L 19.390625 64.015625 
L 19.390625 0 
L 9.8125 0 
z
" id="DejaVuSans-77"/>
      <path d="M 30.609375 48.390625 
Q 23.390625 48.390625 19.1875 42.75 
Q 14.984375 37.109375 14.984375 27.296875 
Q 14.984375 17.484375 19.15625 11.84375 
Q 23.34375 6.203125 30.609375 6.203125 
Q 37.796875 6.203125 41.984375 11.859375 
Q 46.1875 17.53125 46.1875 27.296875 
Q 46.1875 37.015625 41.984375 42.703125 
Q 37.796875 48.390625 30.609375 48.390625 
z
M 30.609375 56 
Q 42.328125 56 49.015625 48.375 
Q 55.71875 40.765625 55.71875 27.296875 
Q 55.71875 13.875 49.015625 6.21875 
Q 42.328125 -1.421875 30.609375 -1.421875 
Q 18.84375 -1.421875 12.171875 6.21875 
Q 5.515625 13.875 5.515625 27.296875 
Q 5.515625 40.765625 12.171875 48.375 
Q 18.84375 56 30.609375 56 
z
" id="DejaVuSans-111"/>
      <path d="M 9.421875 75.984375 
L 18.40625 75.984375 
L 18.40625 0 
L 9.421875 0 
z
" id="DejaVuSans-108"/>
     </defs>
     <g transform="translate(96.090865 198.189291)scale(0.1 -0.1)">
      <use xlink:href="#DejaVuSans-83"/>
      <use x="63.476562" xlink:href="#DejaVuSans-116"/>
      <use x="102.685547" xlink:href="#DejaVuSans-97"/>
      <use x="163.964844" xlink:href="#DejaVuSans-110"/>
      <use x="227.34375" xlink:href="#DejaVuSans-100"/>
      <use x="290.820312" xlink:href="#DejaVuSans-97"/>
      <use x="352.099609" xlink:href="#DejaVuSans-114"/>
      <use x="393.197266" xlink:href="#DejaVuSans-100"/>
      <use x="456.673828" xlink:href="#DejaVuSans-32"/>
      <use x="488.460938" xlink:href="#DejaVuSans-77"/>
      <use x="574.740234" xlink:href="#DejaVuSans-111"/>
      <use x="635.921875" xlink:href="#DejaVuSans-100"/>
      <use x="699.398438" xlink:href="#DejaVuSans-101"/>
      <use x="760.921875" xlink:href="#DejaVuSans-108"/>
     </g>
    </g>
    <g id="line2d_19">
     <path d="M 68.090865 209.367416 
L 88.090865 209.367416 
" style="fill:none;stroke:#4682b4;stroke-linecap:square;stroke-width:1.5;"/>
    </g>
    <g id="line2d_20"/>
    <g id="text_16">
     <!-- Sea Level Model -->
     <defs>
      <path d="M 9.8125 72.90625 
L 19.671875 72.90625 
L 19.671875 8.296875 
L 55.171875 8.296875 
L 55.171875 0 
L 9.8125 0 
z
" id="DejaVuSans-76"/>
      <path d="M 2.984375 54.6875 
L 12.5 54.6875 
L 29.59375 8.796875 
L 46.6875 54.6875 
L 56.203125 54.6875 
L 35.6875 0 
L 23.484375 0 
z
" id="DejaVuSans-118"/>
     </defs>
     <g transform="translate(96.090865 212.867416)scale(0.1 -0.1)">
      <use xlink:href="#DejaVuSans-83"/>
      <use x="63.476562" xlink:href="#DejaVuSans-101"/>
      <use x="125" xlink:href="#DejaVuSans-97"/>
      <use x="186.279297" xlink:href="#DejaVuSans-32"/>
      <use x="218.066406" xlink:href="#DejaVuSans-76"/>
      <use x="273.763672" xlink:href="#DejaVuSans-101"/>
      <use x="335.287109" xlink:href="#DejaVuSans-118"/>
      <use x="394.466797" xlink:href="#DejaVuSans-101"/>
      <use x="455.990234" xlink:href="#DejaVuSans-108"/>
      <use x="483.773438" xlink:href="#DejaVuSans-32"/>
      <use x="515.560547" xlink:href="#DejaVuSans-77"/>
      <use x="601.839844" xlink:href="#DejaVuSans-111"/>
      <use x="663.021484" xlink:href="#DejaVuSans-100"/>
      <use x="726.498047" xlink:href="#DejaVuSans-101"/>
      <use x="788.021484" xlink:href="#DejaVuSans-108"/>
     </g>
    </g>
    <g id="line2d_21">
     <path d="M 68.090865 224.045541 
L 88.090865 224.045541 
" style="fill:none;stroke:#6b8e23;stroke-linecap:square;stroke-width:1.5;"/>
    </g>
    <g id="line2d_22"/>
    <g id="text_17">
     <!-- LOESS Curve -->
     <defs>
      <path d="M 39.40625 66.21875 
Q 28.65625 66.21875 22.328125 58.203125 
Q 16.015625 50.203125 16.015625 36.375 
Q 16.015625 22.609375 22.328125 14.59375 
Q 28.65625 6.59375 39.40625 6.59375 
Q 50.140625 6.59375 56.421875 14.59375 
Q 62.703125 22.609375 62.703125 36.375 
Q 62.703125 50.203125 56.421875 58.203125 
Q 50.140625 66.21875 39.40625 66.21875 
z
M 39.40625 74.21875 
Q 54.734375 74.21875 63.90625 63.9375 
Q 73.09375 53.65625 73.09375 36.375 
Q 73.09375 19.140625 63.90625 8.859375 
Q 54.734375 -1.421875 39.40625 -1.421875 
Q 24.03125 -1.421875 14.8125 8.828125 
Q 5.609375 19.09375 5.609375 36.375 
Q 5.609375 53.65625 14.8125 63.9375 
Q 24.03125 74.21875 39.40625 74.21875 
z
" id="DejaVuSans-79"/>
      <path d="M 9.8125 72.90625 
L 55.90625 72.90625 
L 55.90625 64.59375 
L 19.671875 64.59375 
L 19.671875 43.015625 
L 54.390625 43.015625 
L 54.390625 34.71875 
L 19.671875 34.71875 
L 19.671875 8.296875 
L 56.78125 8.296875 
L 56.78125 0 
L 9.8125 0 
z
" id="DejaVuSans-69"/>
      <path d="M 64.40625 67.28125 
L 64.40625 56.890625 
Q 59.421875 61.53125 53.78125 63.8125 
Q 48.140625 66.109375 41.796875 66.109375 
Q 29.296875 66.109375 22.65625 58.46875 
Q 16.015625 50.828125 16.015625 36.375 
Q 16.015625 21.96875 22.65625 14.328125 
Q 29.296875 6.6875 41.796875 6.6875 
Q 48.140625 6.6875 53.78125 8.984375 
Q 59.421875 11.28125 64.40625 15.921875 
L 64.40625 5.609375 
Q 59.234375 2.09375 53.4375 0.328125 
Q 47.65625 -1.421875 41.21875 -1.421875 
Q 24.65625 -1.421875 15.125 8.703125 
Q 5.609375 18.84375 5.609375 36.375 
Q 5.609375 53.953125 15.125 64.078125 
Q 24.65625 74.21875 41.21875 74.21875 
Q 47.75 74.21875 53.53125 72.484375 
Q 59.328125 70.75 64.40625 67.28125 
z
" id="DejaVuSans-67"/>
      <path d="M 8.5 21.578125 
L 8.5 54.6875 
L 17.484375 54.6875 
L 17.484375 21.921875 
Q 17.484375 14.15625 20.5 10.265625 
Q 23.53125 6.390625 29.59375 6.390625 
Q 36.859375 6.390625 41.078125 11.03125 
Q 45.3125 15.671875 45.3125 23.6875 
L 45.3125 54.6875 
L 54.296875 54.6875 
L 54.296875 0 
L 45.3125 0 
L 45.3125 8.40625 
Q 42.046875 3.421875 37.71875 1 
Q 33.40625 -1.421875 27.6875 -1.421875 
Q 18.265625 -1.421875 13.375 4.4375 
Q 8.5 10.296875 8.5 21.578125 
z
M 31.109375 56 
z
" id="DejaVuSans-117"/>
     </defs>
     <g transform="translate(96.090865 227.545541)scale(0.1 -0.1)">
      <use xlink:href="#DejaVuSans-76"/>
      <use x="55.666016" xlink:href="#DejaVuSans-79"/>
      <use x="134.376953" xlink:href="#DejaVuSans-69"/>
      <use x="197.560547" xlink:href="#DejaVuSans-83"/>
      <use x="261.037109" xlink:href="#DejaVuSans-83"/>
      <use x="324.513672" xlink:href="#DejaVuSans-32"/>
      <use x="356.300781" xlink:href="#DejaVuSans-67"/>
      <use x="426.125" xlink:href="#DejaVuSans-117"/>
      <use x="489.503906" xlink:href="#DejaVuSans-114"/>
      <use x="530.617188" xlink:href="#DejaVuSans-118"/>
      <use x="589.796875" xlink:href="#DejaVuSans-101"/>
     </g>
    </g>
    <g id="PathCollection_2">
     <g>
      <use style="fill:#6b8e23;fill-opacity:0.4;stroke:#6b8e23;stroke-opacity:0.4;" x="78.090865" xlink:href="#mc535e6041d" y="239.598666"/>
     </g>
    </g>
    <g id="text_18">
     <!-- Sr Conodont Data -->
     <defs>
      <path d="M 19.671875 64.796875 
L 19.671875 8.109375 
L 31.59375 8.109375 
Q 46.6875 8.109375 53.6875 14.9375 
Q 60.6875 21.78125 60.6875 36.53125 
Q 60.6875 51.171875 53.6875 57.984375 
Q 46.6875 64.796875 31.59375 64.796875 
z
M 9.8125 72.90625 
L 30.078125 72.90625 
Q 51.265625 72.90625 61.171875 64.09375 
Q 71.09375 55.28125 71.09375 36.53125 
Q 71.09375 17.671875 61.125 8.828125 
Q 51.171875 0 30.078125 0 
L 9.8125 0 
z
" id="DejaVuSans-68"/>
     </defs>
     <g transform="translate(96.090865 242.223666)scale(0.1 -0.1)">
      <use xlink:href="#DejaVuSans-83"/>
      <use x="63.476562" xlink:href="#DejaVuSans-114"/>
      <use x="104.589844" xlink:href="#DejaVuSans-32"/>
      <use x="136.376953" xlink:href="#DejaVuSans-67"/>
      <use x="206.201172" xlink:href="#DejaVuSans-111"/>
      <use x="267.382812" xlink:href="#DejaVuSans-110"/>
      <use x="330.761719" xlink:href="#DejaVuSans-111"/>
      <use x="391.943359" xlink:href="#DejaVuSans-100"/>
      <use x="455.419922" xlink:href="#DejaVuSans-111"/>
      <use x="516.601562" xlink:href="#DejaVuSans-110"/>
      <use x="579.980469" xlink:href="#DejaVuSans-116"/>
      <use x="619.189453" xlink:href="#DejaVuSans-32"/>
      <use x="650.976562" xlink:href="#DejaVuSans-68"/>
      <use x="727.978516" xlink:href="#DejaVuSans-97"/>
      <use x="789.257812" xlink:href="#DejaVuSans-116"/>
      <use x="828.466797" xlink:href="#DejaVuSans-97"/>
     </g>
    </g>
   </g>
  </g>
  <g id="axes_2">
   <g id="patch_8">
    <path d="M 416.297896 253.303354 
L 716.99976 253.303354 
L 716.99976 3.00024 
L 416.297896 3.00024 
z
" style="fill:#ffffff;"/>
   </g>
   <g id="matplotlib.axis_3">
    <g id="xtick_5">
     <g id="line2d_23">
      <g>
       <use style="stroke:#000000;stroke-width:0.8;" x="659.841554" xlink:href="#m37b82fc09a" y="253.303354"/>
      </g>
     </g>
     <g id="text_19">
      <!-- 450 -->
      <g transform="translate(650.297804 267.901791)scale(0.1 -0.1)">
       <use xlink:href="#DejaVuSans-52"/>
       <use x="63.623047" xlink:href="#DejaVuSans-53"/>
       <use x="127.246094" xlink:href="#DejaVuSans-48"/>
      </g>
     </g>
    </g>
    <g id="xtick_6">
     <g id="line2d_24">
      <g>
       <use style="stroke:#000000;stroke-width:0.8;" x="597.71307" xlink:href="#m37b82fc09a" y="253.303354"/>
      </g>
     </g>
     <g id="text_20">
      <!-- 460 -->
      <g transform="translate(588.16932 267.901791)scale(0.1 -0.1)">
       <use xlink:href="#DejaVuSans-52"/>
       <use x="63.623047" xlink:href="#DejaVuSans-54"/>
       <use x="127.246094" xlink:href="#DejaVuSans-48"/>
      </g>
     </g>
    </g>
    <g id="xtick_7">
     <g id="line2d_25">
      <g>
       <use style="stroke:#000000;stroke-width:0.8;" x="535.584586" xlink:href="#m37b82fc09a" y="253.303354"/>
      </g>
     </g>
     <g id="text_21">
      <!-- 470 -->
      <g transform="translate(526.040836 267.901791)scale(0.1 -0.1)">
       <use xlink:href="#DejaVuSans-52"/>
       <use x="63.623047" xlink:href="#DejaVuSans-55"/>
       <use x="127.246094" xlink:href="#DejaVuSans-48"/>
      </g>
     </g>
    </g>
    <g id="xtick_8">
     <g id="line2d_26">
      <g>
       <use style="stroke:#000000;stroke-width:0.8;" x="473.456102" xlink:href="#m37b82fc09a" y="253.303354"/>
      </g>
     </g>
     <g id="text_22">
      <!-- 480 -->
      <g transform="translate(463.912352 267.901791)scale(0.1 -0.1)">
       <use xlink:href="#DejaVuSans-52"/>
       <use x="63.623047" xlink:href="#DejaVuSans-56"/>
       <use x="127.246094" xlink:href="#DejaVuSans-48"/>
      </g>
     </g>
    </g>
   </g>
   <g id="matplotlib.axis_4">
    <g id="ytick_10">
     <g id="line2d_27">
      <g>
       <use style="stroke:#000000;stroke-width:0.8;" x="416.297896" xlink:href="#m380dd8f167" y="218.107488"/>
      </g>
     </g>
     <g id="text_23">
      <!-- 10 -->
      <defs>
       <path d="M 10.59375 35.5 
L 73.1875 35.5 
L 73.1875 27.203125 
L 10.59375 27.203125 
z
" id="DejaVuSans-8722"/>
       <path d="M 12.40625 8.296875 
L 28.515625 8.296875 
L 28.515625 63.921875 
L 10.984375 60.40625 
L 10.984375 69.390625 
L 28.421875 72.90625 
L 38.28125 72.90625 
L 38.28125 8.296875 
L 54.390625 8.296875 
L 54.390625 0 
L 12.40625 0 
z
" id="DejaVuSans-49"/>
      </defs>
      <g transform="translate(388.193209 221.906707)scale(0.1 -0.1)">
       <use xlink:href="#DejaVuSans-8722"/>
       <use x="83.789062" xlink:href="#DejaVuSans-49"/>
       <use x="147.412109" xlink:href="#DejaVuSans-48"/>
      </g>
     </g>
    </g>
    <g id="ytick_11">
     <g id="line2d_28">
      <g>
       <use style="stroke:#000000;stroke-width:0.8;" x="416.297896" xlink:href="#m380dd8f167" y="176.760316"/>
      </g>
     </g>
     <g id="text_24">
      <!-- 5 -->
      <g transform="translate(394.555709 180.559535)scale(0.1 -0.1)">
       <use xlink:href="#DejaVuSans-8722"/>
       <use x="83.789062" xlink:href="#DejaVuSans-53"/>
      </g>
     </g>
    </g>
    <g id="ytick_12">
     <g id="line2d_29">
      <g>
       <use style="stroke:#000000;stroke-width:0.8;" x="416.297896" xlink:href="#m380dd8f167" y="135.413145"/>
      </g>
     </g>
     <g id="text_25">
      <!-- 0 -->
      <g transform="translate(402.935396 139.212363)scale(0.1 -0.1)">
       <use xlink:href="#DejaVuSans-48"/>
      </g>
     </g>
    </g>
    <g id="ytick_13">
     <g id="line2d_30">
      <g>
       <use style="stroke:#000000;stroke-width:0.8;" x="416.297896" xlink:href="#m380dd8f167" y="94.065973"/>
      </g>
     </g>
     <g id="text_26">
      <!-- 5 -->
      <g transform="translate(402.935396 97.865192)scale(0.1 -0.1)">
       <use xlink:href="#DejaVuSans-53"/>
      </g>
     </g>
    </g>
    <g id="ytick_14">
     <g id="line2d_31">
      <g>
       <use style="stroke:#000000;stroke-width:0.8;" x="416.297896" xlink:href="#m380dd8f167" y="52.718802"/>
      </g>
     </g>
     <g id="text_27">
      <!-- 10 -->
      <g transform="translate(396.572896 56.51802)scale(0.1 -0.1)">
       <use xlink:href="#DejaVuSans-49"/>
       <use x="63.623047" xlink:href="#DejaVuSans-48"/>
      </g>
     </g>
    </g>
    <g id="ytick_15">
     <g id="line2d_32">
      <g>
       <use style="stroke:#000000;stroke-width:0.8;" x="416.297896" xlink:href="#m380dd8f167" y="11.37163"/>
      </g>
     </g>
     <g id="text_28">
      <!-- 15 -->
      <g transform="translate(396.572896 15.170849)scale(0.1 -0.1)">
       <use xlink:href="#DejaVuSans-49"/>
       <use x="63.623047" xlink:href="#DejaVuSans-53"/>
      </g>
     </g>
    </g>
    <g id="text_29">
     <!-- Rate of $^{87}Sr/^{86}Sr$ Change ($10^{-5}$/yr) -->
     <defs>
      <path d="M 44.390625 34.1875 
Q 47.5625 33.109375 50.5625 29.59375 
Q 53.5625 26.078125 56.59375 19.921875 
L 66.609375 0 
L 56 0 
L 46.6875 18.703125 
Q 43.0625 26.03125 39.671875 28.421875 
Q 36.28125 30.8125 30.421875 30.8125 
L 19.671875 30.8125 
L 19.671875 0 
L 9.8125 0 
L 9.8125 72.90625 
L 32.078125 72.90625 
Q 44.578125 72.90625 50.734375 67.671875 
Q 56.890625 62.453125 56.890625 51.90625 
Q 56.890625 45.015625 53.6875 40.46875 
Q 50.484375 35.9375 44.390625 34.1875 
z
M 19.671875 64.796875 
L 19.671875 38.921875 
L 32.078125 38.921875 
Q 39.203125 38.921875 42.84375 42.21875 
Q 46.484375 45.515625 46.484375 51.90625 
Q 46.484375 58.296875 42.84375 61.546875 
Q 39.203125 64.796875 32.078125 64.796875 
z
" id="DejaVuSans-82"/>
      <path d="M 37.109375 75.984375 
L 37.109375 68.5 
L 28.515625 68.5 
Q 23.6875 68.5 21.796875 66.546875 
Q 19.921875 64.59375 19.921875 59.515625 
L 19.921875 54.6875 
L 34.71875 54.6875 
L 34.71875 47.703125 
L 19.921875 47.703125 
L 19.921875 0 
L 10.890625 0 
L 10.890625 47.703125 
L 2.296875 47.703125 
L 2.296875 54.6875 
L 10.890625 54.6875 
L 10.890625 58.5 
Q 10.890625 67.625 15.140625 71.796875 
Q 19.390625 75.984375 28.609375 75.984375 
z
" id="DejaVuSans-102"/>
      <path d="M 54.890625 33.015625 
L 54.890625 0 
L 45.90625 0 
L 45.90625 32.71875 
Q 45.90625 40.484375 42.875 44.328125 
Q 39.84375 48.1875 33.796875 48.1875 
Q 26.515625 48.1875 22.3125 43.546875 
Q 18.109375 38.921875 18.109375 30.90625 
L 18.109375 0 
L 9.078125 0 
L 9.078125 75.984375 
L 18.109375 75.984375 
L 18.109375 46.1875 
Q 21.34375 51.125 25.703125 53.5625 
Q 30.078125 56 35.796875 56 
Q 45.21875 56 50.046875 50.171875 
Q 54.890625 44.34375 54.890625 33.015625 
z
" id="DejaVuSans-104"/>
      <path d="M 45.40625 27.984375 
Q 45.40625 37.75 41.375 43.109375 
Q 37.359375 48.484375 30.078125 48.484375 
Q 22.859375 48.484375 18.828125 43.109375 
Q 14.796875 37.75 14.796875 27.984375 
Q 14.796875 18.265625 18.828125 12.890625 
Q 22.859375 7.515625 30.078125 7.515625 
Q 37.359375 7.515625 41.375 12.890625 
Q 45.40625 18.265625 45.40625 27.984375 
z
M 54.390625 6.78125 
Q 54.390625 -7.171875 48.1875 -13.984375 
Q 42 -20.796875 29.203125 -20.796875 
Q 24.46875 -20.796875 20.265625 -20.09375 
Q 16.0625 -19.390625 12.109375 -17.921875 
L 12.109375 -9.1875 
Q 16.0625 -11.328125 19.921875 -12.34375 
Q 23.78125 -13.375 27.78125 -13.375 
Q 36.625 -13.375 41.015625 -8.765625 
Q 45.40625 -4.15625 45.40625 5.171875 
L 45.40625 9.625 
Q 42.625 4.78125 38.28125 2.390625 
Q 33.9375 0 27.875 0 
Q 17.828125 0 11.671875 7.65625 
Q 5.515625 15.328125 5.515625 27.984375 
Q 5.515625 40.671875 11.671875 48.328125 
Q 17.828125 56 27.875 56 
Q 33.9375 56 38.28125 53.609375 
Q 42.625 51.21875 45.40625 46.390625 
L 45.40625 54.6875 
L 54.390625 54.6875 
z
" id="DejaVuSans-103"/>
      <path d="M 31 75.875 
Q 24.46875 64.65625 21.28125 53.65625 
Q 18.109375 42.671875 18.109375 31.390625 
Q 18.109375 20.125 21.3125 9.0625 
Q 24.515625 -2 31 -13.1875 
L 23.1875 -13.1875 
Q 15.875 -1.703125 12.234375 9.375 
Q 8.59375 20.453125 8.59375 31.390625 
Q 8.59375 42.28125 12.203125 53.3125 
Q 15.828125 64.359375 23.1875 75.875 
z
" id="DejaVuSans-40"/>
      <path d="M 32.171875 -5.078125 
Q 28.375 -14.84375 24.75 -17.8125 
Q 21.140625 -20.796875 15.09375 -20.796875 
L 7.90625 -20.796875 
L 7.90625 -13.28125 
L 13.1875 -13.28125 
Q 16.890625 -13.28125 18.9375 -11.515625 
Q 21 -9.765625 23.484375 -3.21875 
L 25.09375 0.875 
L 2.984375 54.6875 
L 12.5 54.6875 
L 29.59375 11.921875 
L 46.6875 54.6875 
L 56.203125 54.6875 
z
" id="DejaVuSans-121"/>
      <path d="M 8.015625 75.875 
L 15.828125 75.875 
Q 23.140625 64.359375 26.78125 53.3125 
Q 30.421875 42.28125 30.421875 31.390625 
Q 30.421875 20.453125 26.78125 9.375 
Q 23.140625 -1.703125 15.828125 -13.1875 
L 8.015625 -13.1875 
Q 14.5 -2 17.703125 9.0625 
Q 20.90625 20.125 20.90625 31.390625 
Q 20.90625 42.671875 17.703125 53.65625 
Q 14.5 64.65625 8.015625 75.875 
z
" id="DejaVuSans-41"/>
     </defs>
     <g transform="translate(382.093209 213.801797)rotate(-90)scale(0.1 -0.1)">
      <use transform="translate(0 0.765625)" xlink:href="#DejaVuSans-82"/>
      <use transform="translate(69.482422 0.765625)" xlink:href="#DejaVuSans-97"/>
      <use transform="translate(130.761719 0.765625)" xlink:href="#DejaVuSans-116"/>
      <use transform="translate(169.970703 0.765625)" xlink:href="#DejaVuSans-101"/>
      <use transform="translate(231.494141 0.765625)" xlink:href="#DejaVuSans-32"/>
      <use transform="translate(263.28125 0.765625)" xlink:href="#DejaVuSans-111"/>
      <use transform="translate(324.462891 0.765625)" xlink:href="#DejaVuSans-102"/>
      <use transform="translate(359.667969 0.765625)" xlink:href="#DejaVuSans-32"/>
      <use transform="translate(392.412109 39.046875)scale(0.7)" xlink:href="#DejaVuSans-56"/>
      <use transform="translate(436.948242 39.046875)scale(0.7)" xlink:href="#DejaVuSans-55"/>
      <use transform="translate(484.21875 0.765625)" xlink:href="#DejaVuSans-Oblique-83"/>
      <use transform="translate(547.695312 0.765625)" xlink:href="#DejaVuSans-Oblique-114"/>
      <use transform="translate(588.808594 0.765625)" xlink:href="#DejaVuSans-47"/>
      <use transform="translate(623.457031 39.046875)scale(0.7)" xlink:href="#DejaVuSans-56"/>
      <use transform="translate(667.993164 39.046875)scale(0.7)" xlink:href="#DejaVuSans-54"/>
      <use transform="translate(715.263672 0.765625)" xlink:href="#DejaVuSans-Oblique-83"/>
      <use transform="translate(778.740234 0.765625)" xlink:href="#DejaVuSans-Oblique-114"/>
      <use transform="translate(819.853516 0.765625)" xlink:href="#DejaVuSans-32"/>
      <use transform="translate(851.640625 0.765625)" xlink:href="#DejaVuSans-67"/>
      <use transform="translate(921.464844 0.765625)" xlink:href="#DejaVuSans-104"/>
      <use transform="translate(984.84375 0.765625)" xlink:href="#DejaVuSans-97"/>
      <use transform="translate(1046.123047 0.765625)" xlink:href="#DejaVuSans-110"/>
      <use transform="translate(1109.501953 0.765625)" xlink:href="#DejaVuSans-103"/>
      <use transform="translate(1172.978516 0.765625)" xlink:href="#DejaVuSans-101"/>
      <use transform="translate(1234.501953 0.765625)" xlink:href="#DejaVuSans-32"/>
      <use transform="translate(1266.289062 0.765625)" xlink:href="#DejaVuSans-40"/>
      <use transform="translate(1305.302734 0.765625)" xlink:href="#DejaVuSans-49"/>
      <use transform="translate(1368.925781 0.765625)" xlink:href="#DejaVuSans-48"/>
      <use transform="translate(1433.505859 39.046875)scale(0.7)" xlink:href="#DejaVuSans-8722"/>
      <use transform="translate(1492.158203 39.046875)scale(0.7)" xlink:href="#DejaVuSans-53"/>
      <use transform="translate(1539.428711 0.765625)" xlink:href="#DejaVuSans-47"/>
      <use transform="translate(1573.120117 0.765625)" xlink:href="#DejaVuSans-121"/>
      <use transform="translate(1632.299805 0.765625)" xlink:href="#DejaVuSans-114"/>
      <use transform="translate(1673.413086 0.765625)" xlink:href="#DejaVuSans-41"/>
     </g>
    </g>
   </g>
   <g id="line2d_33">
    <path clip-path="url(#pcfaacae3cb)" d="M 429.966163 135.413145 
L 432.445611 132.506081 
L 434.982467 129.871985 
L 437.587664 127.485627 
L 440.274872 125.324133 
L 443.06596 123.363848 
L 445.980064 121.589159 
L 449.039053 119.987229 
L 452.275731 118.544537 
L 455.722902 117.253133 
L 459.429773 116.104298 
L 463.448283 115.094569 
L 467.854977 114.2202 
L 472.740064 113.481657 
L 478.234762 112.880237 
L 484.546831 112.418893 
L 491.949638 112.107504 
L 500.962583 111.959989 
L 512.498715 112.00591 
L 528.561823 112.308273 
L 556.557446 113.090377 
L 594.621215 114.136665 
L 596.649606 99.30096 
L 598.645193 86.310607 
L 600.605242 74.982236 
L 602.532487 65.118242 
L 604.424194 56.568853 
L 606.280363 49.184471 
L 608.100995 42.83095 
L 609.886088 37.388194 
L 611.635644 32.748853 
L 613.352395 28.811292 
L 615.033609 25.497581 
L 616.684752 22.722978 
L 618.305824 20.42371 
L 619.902294 18.536914 
L 621.479628 17.010265 
L 623.046027 15.79844 
L 624.612426 14.864019 
L 625.67036 14.377654 
L 625.678561 14.440544 
L 627.597605 28.293407 
L 629.519382 40.576378 
L 631.443894 51.465456 
L 633.371138 61.117132 
L 635.303851 69.681909 
L 637.24203 77.279493 
L 639.188411 84.02562 
L 641.142993 90.012494 
L 643.108509 95.329657 
L 645.090427 100.060859 
L 647.091482 104.271409 
L 649.117139 108.023211 
L 651.172867 111.368878 
L 653.266866 114.357005 
L 655.407338 117.028007 
L 657.607951 119.421255 
L 659.882373 121.56788 
L 662.244273 123.492628 
L 664.720988 125.224208 
L 667.334387 126.779369 
L 670.117274 128.175324 
L 673.10792 129.424938 
L 676.358267 130.539678 
L 679.936655 131.528506 
L 683.927828 132.396652 
L 688.457537 133.149377 
L 693.695269 133.788813 
L 699.925327 134.31867 
L 703.331493 134.531012 
L 703.331493 134.531012 
" style="fill:none;stroke:#800000;stroke-linecap:square;stroke-width:1.5;"/>
   </g>
   <g id="line2d_34">
    <path clip-path="url(#pcfaacae3cb)" d="M 429.966163 135.413145 
L 432.319862 131.63248 
L 433.888995 129.454712 
L 436.231759 126.660776 
L 438.927168 124.517782 
L 440.583778 123.424922 
L 442.79806 122.186506 
L 446.272568 120.866326 
L 449.227677 119.958111 
L 456.652353 118.367284 
L 460.479506 117.702367 
L 463.300665 117.08852 
L 465.432935 116.745705 
L 471.206469 116.137554 
L 476.138029 115.593608 
L 477.343582 115.555864 
L 481.312886 115.739286 
L 483.349478 116.019053 
L 487.581216 117.311185 
L 490.342233 118.407861 
L 497.310385 121.586818 
L 500.585335 123.060427 
L 511.831697 127.598925 
L 520.333444 130.470091 
L 527.014559 133.615489 
L 530.087216 135.229297 
L 536.809337 138.371291 
L 540.713033 139.538378 
L 544.922901 140.564512 
L 548.804728 140.51476 
L 554.053395 139.784745 
L 563.725157 138.22627 
L 569.769325 136.023587 
L 572.519407 134.012875 
L 573.632015 133.11976 
L 578.610048 129.071628 
L 579.394614 128.323549 
L 581.822123 125.547919 
L 582.286848 124.888861 
L 584.47926 119.476474 
L 586.808356 113.764108 
L 588.978898 108.756459 
L 591.149441 104.299386 
L 592.554553 101.822409 
L 594.643085 98.565741 
L 597.043256 96.465926 
L 598.254277 95.623531 
L 600.843072 94.301361 
L 604.142625 94.620127 
L 607.715546 96.643583 
L 612.371004 100.691191 
L 613.732377 102.069078 
L 616.132548 104.842036 
L 616.8023 105.732214 
L 619.117728 108.857636 
L 621.485095 111.683147 
L 623.844261 114.493933 
L 627.447252 118.765515 
L 631.821142 123.580012 
L 634.30059 125.937539 
L 635.763109 127.387077 
L 638.171482 129.809813 
L 640.752076 131.933713 
L 648.570403 137.800047 
L 652.337415 140.378083 
L 654.425947 141.871703 
L 663.728662 149.782292 
L 668.736765 155.372868 
L 669.502196 156.353375 
L 671.87503 159.815031 
L 672.618591 161.026284 
L 674.947687 165.232857 
L 675.680314 166.703087 
L 677.982073 172.000022 
L 678.908791 174.286115 
L 681.221484 180.433859 
L 682.282153 183.410037 
L 684.641319 189.955595 
L 687.733112 197.791664 
L 690.250832 203.494373 
L 692.866964 208.873453 
L 694.220136 211.28199 
L 697.167044 214.059913 
L 700.477531 213.623104 
L 702.839431 211.606019 
L 703.331493 211.224108 
L 703.331493 211.224108 
" style="fill:none;stroke:#4682b4;stroke-linecap:square;stroke-width:1.5;"/>
   </g>
   <g id="line2d_35">
    <path clip-path="url(#pcfaacae3cb)" d="M 537.433287 145.252448 
L 538.727647 145.217221 
L 539.776631 145.11071 
L 540.783653 144.953591 
L 541.622835 144.718987 
L 547.73944 144.073062 
L 555.526543 143.383135 
L 564.729487 143.815055 
L 573.048062 145.684113 
L 573.472605 146.788744 
L 575.59533 145.505907 
L 578.56714 145.008004 
L 582.388042 148.617364 
L 591.433657 150.930159 
L 592.875927 156.643925 
L 593.763476 159.667396 
L 595.538573 163.979906 
L 596.204237 168.369569 
L 596.758957 167.921862 
L 597.313671 165.977222 
L 597.868391 166.995686 
L 598.423112 170.79301 
L 602.417085 179.457971 
L 605.727645 189.310837 
L 607.423752 195.449817 
L 612.269774 202.469739 
L 612.463615 207.50566 
L 613.62666 209.007554 
L 615.419688 212.319463 
L 616.752344 215.408841 
L 617.551938 217.207939 
L 617.842699 218.107488 
L 619.054205 219.422328 
L 620.26571 221.66996 
L 628.261646 230.527351 
L 631.896162 241.925939 
" style="fill:none;stroke:#6b8e23;stroke-linecap:square;stroke-width:1.5;"/>
   </g>
   <g id="patch_9">
    <path d="M 416.297896 253.303354 
L 416.297896 3.00024 
" style="fill:none;stroke:#000000;stroke-linecap:square;stroke-linejoin:miter;stroke-width:0.8;"/>
   </g>
   <g id="patch_10">
    <path d="M 716.99976 253.303354 
L 716.99976 3.00024 
" style="fill:none;stroke:#000000;stroke-linecap:square;stroke-linejoin:miter;stroke-width:0.8;"/>
   </g>
   <g id="patch_11">
    <path d="M 416.297896 253.303354 
L 716.99976 253.303354 
" style="fill:none;stroke:#000000;stroke-linecap:square;stroke-linejoin:miter;stroke-width:0.8;"/>
   </g>
   <g id="patch_12">
    <path d="M 416.297896 3.00024 
L 716.99976 3.00024 
" style="fill:none;stroke:#000000;stroke-linecap:square;stroke-linejoin:miter;stroke-width:0.8;"/>
   </g>
   <g id="legend_2">
    <g id="patch_13">
     <path d="M 423.297896 55.034615 
L 567.136959 55.034615 
Q 569.136959 55.034615 569.136959 53.034615 
L 569.136959 10.00024 
Q 569.136959 8.00024 567.136959 8.00024 
L 423.297896 8.00024 
Q 421.297896 8.00024 421.297896 10.00024 
L 421.297896 53.034615 
Q 421.297896 55.034615 423.297896 55.034615 
z
" style="fill:#ffffff;opacity:0.8;"/>
    </g>
    <g id="line2d_36">
     <path d="M 425.297896 16.098678 
L 445.297896 16.098678 
" style="fill:none;stroke:#800000;stroke-linecap:square;stroke-width:1.5;"/>
    </g>
    <g id="line2d_37"/>
    <g id="text_30">
     <!-- Standard Model -->
     <g transform="translate(453.297896 19.598678)scale(0.1 -0.1)">
      <use xlink:href="#DejaVuSans-83"/>
      <use x="63.476562" xlink:href="#DejaVuSans-116"/>
      <use x="102.685547" xlink:href="#DejaVuSans-97"/>
      <use x="163.964844" xlink:href="#DejaVuSans-110"/>
      <use x="227.34375" xlink:href="#DejaVuSans-100"/>
      <use x="290.820312" xlink:href="#DejaVuSans-97"/>
      <use x="352.099609" xlink:href="#DejaVuSans-114"/>
      <use x="393.197266" xlink:href="#DejaVuSans-100"/>
      <use x="456.673828" xlink:href="#DejaVuSans-32"/>
      <use x="488.460938" xlink:href="#DejaVuSans-77"/>
      <use x="574.740234" xlink:href="#DejaVuSans-111"/>
      <use x="635.921875" xlink:href="#DejaVuSans-100"/>
      <use x="699.398438" xlink:href="#DejaVuSans-101"/>
      <use x="760.921875" xlink:href="#DejaVuSans-108"/>
     </g>
    </g>
    <g id="line2d_38">
     <path d="M 425.297896 30.776803 
L 445.297896 30.776803 
" style="fill:none;stroke:#4682b4;stroke-linecap:square;stroke-width:1.5;"/>
    </g>
    <g id="line2d_39"/>
    <g id="text_31">
     <!-- Sea Level Model -->
     <g transform="translate(453.297896 34.276803)scale(0.1 -0.1)">
      <use xlink:href="#DejaVuSans-83"/>
      <use x="63.476562" xlink:href="#DejaVuSans-101"/>
      <use x="125" xlink:href="#DejaVuSans-97"/>
      <use x="186.279297" xlink:href="#DejaVuSans-32"/>
      <use x="218.066406" xlink:href="#DejaVuSans-76"/>
      <use x="273.763672" xlink:href="#DejaVuSans-101"/>
      <use x="335.287109" xlink:href="#DejaVuSans-118"/>
      <use x="394.466797" xlink:href="#DejaVuSans-101"/>
      <use x="455.990234" xlink:href="#DejaVuSans-108"/>
      <use x="483.773438" xlink:href="#DejaVuSans-32"/>
      <use x="515.560547" xlink:href="#DejaVuSans-77"/>
      <use x="601.839844" xlink:href="#DejaVuSans-111"/>
      <use x="663.021484" xlink:href="#DejaVuSans-100"/>
      <use x="726.498047" xlink:href="#DejaVuSans-101"/>
      <use x="788.021484" xlink:href="#DejaVuSans-108"/>
     </g>
    </g>
    <g id="line2d_40">
     <path d="M 425.297896 45.454928 
L 445.297896 45.454928 
" style="fill:none;stroke:#6b8e23;stroke-linecap:square;stroke-width:1.5;"/>
    </g>
    <g id="line2d_41"/>
    <g id="text_32">
     <!-- LOESS Curve Gradient -->
     <defs>
      <path d="M 59.515625 10.40625 
L 59.515625 29.984375 
L 43.40625 29.984375 
L 43.40625 38.09375 
L 69.28125 38.09375 
L 69.28125 6.78125 
Q 63.578125 2.734375 56.6875 0.65625 
Q 49.8125 -1.421875 42 -1.421875 
Q 24.90625 -1.421875 15.25 8.5625 
Q 5.609375 18.5625 5.609375 36.375 
Q 5.609375 54.25 15.25 64.234375 
Q 24.90625 74.21875 42 74.21875 
Q 49.125 74.21875 55.546875 72.453125 
Q 61.96875 70.703125 67.390625 67.28125 
L 67.390625 56.78125 
Q 61.921875 61.421875 55.765625 63.765625 
Q 49.609375 66.109375 42.828125 66.109375 
Q 29.4375 66.109375 22.71875 58.640625 
Q 16.015625 51.171875 16.015625 36.375 
Q 16.015625 21.625 22.71875 14.15625 
Q 29.4375 6.6875 42.828125 6.6875 
Q 48.046875 6.6875 52.140625 7.59375 
Q 56.25 8.5 59.515625 10.40625 
z
" id="DejaVuSans-71"/>
      <path d="M 9.421875 54.6875 
L 18.40625 54.6875 
L 18.40625 0 
L 9.421875 0 
z
M 9.421875 75.984375 
L 18.40625 75.984375 
L 18.40625 64.59375 
L 9.421875 64.59375 
z
" id="DejaVuSans-105"/>
     </defs>
     <g transform="translate(453.297896 48.954928)scale(0.1 -0.1)">
      <use xlink:href="#DejaVuSans-76"/>
      <use x="55.666016" xlink:href="#DejaVuSans-79"/>
      <use x="134.376953" xlink:href="#DejaVuSans-69"/>
      <use x="197.560547" xlink:href="#DejaVuSans-83"/>
      <use x="261.037109" xlink:href="#DejaVuSans-83"/>
      <use x="324.513672" xlink:href="#DejaVuSans-32"/>
      <use x="356.300781" xlink:href="#DejaVuSans-67"/>
      <use x="426.125" xlink:href="#DejaVuSans-117"/>
      <use x="489.503906" xlink:href="#DejaVuSans-114"/>
      <use x="530.617188" xlink:href="#DejaVuSans-118"/>
      <use x="589.796875" xlink:href="#DejaVuSans-101"/>
      <use x="651.320312" xlink:href="#DejaVuSans-32"/>
      <use x="683.107422" xlink:href="#DejaVuSans-71"/>
      <use x="760.597656" xlink:href="#DejaVuSans-114"/>
      <use x="801.710938" xlink:href="#DejaVuSans-97"/>
      <use x="862.990234" xlink:href="#DejaVuSans-100"/>
      <use x="926.466797" xlink:href="#DejaVuSans-105"/>
      <use x="954.25" xlink:href="#DejaVuSans-101"/>
      <use x="1015.773438" xlink:href="#DejaVuSans-110"/>
      <use x="1079.152344" xlink:href="#DejaVuSans-116"/>
     </g>
    </g>
   </g>
  </g>
  <g id="axes_3">
   <g id="patch_14">
    <path d="M 59.090865 542.64351 
L 359.792729 542.64351 
L 359.792729 292.340396 
L 59.090865 292.340396 
z
" style="fill:#ffffff;"/>
   </g>
   <g id="matplotlib.axis_5">
    <g id="xtick_9">
     <g id="line2d_42">
      <g>
       <use style="stroke:#000000;stroke-width:0.8;" x="302.634523" xlink:href="#m37b82fc09a" y="542.64351"/>
      </g>
     </g>
     <g id="text_33">
      <!-- 450 -->
      <g transform="translate(293.090773 557.241948)scale(0.1 -0.1)">
       <use xlink:href="#DejaVuSans-52"/>
       <use x="63.623047" xlink:href="#DejaVuSans-53"/>
       <use x="127.246094" xlink:href="#DejaVuSans-48"/>
      </g>
     </g>
    </g>
    <g id="xtick_10">
     <g id="line2d_43">
      <g>
       <use style="stroke:#000000;stroke-width:0.8;" x="240.506039" xlink:href="#m37b82fc09a" y="542.64351"/>
      </g>
     </g>
     <g id="text_34">
      <!-- 460 -->
      <g transform="translate(230.962289 557.241948)scale(0.1 -0.1)">
       <use xlink:href="#DejaVuSans-52"/>
       <use x="63.623047" xlink:href="#DejaVuSans-54"/>
       <use x="127.246094" xlink:href="#DejaVuSans-48"/>
      </g>
     </g>
    </g>
    <g id="xtick_11">
     <g id="line2d_44">
      <g>
       <use style="stroke:#000000;stroke-width:0.8;" x="178.377555" xlink:href="#m37b82fc09a" y="542.64351"/>
      </g>
     </g>
     <g id="text_35">
      <!-- 470 -->
      <g transform="translate(168.833805 557.241948)scale(0.1 -0.1)">
       <use xlink:href="#DejaVuSans-52"/>
       <use x="63.623047" xlink:href="#DejaVuSans-55"/>
       <use x="127.246094" xlink:href="#DejaVuSans-48"/>
      </g>
     </g>
    </g>
    <g id="xtick_12">
     <g id="line2d_45">
      <g>
       <use style="stroke:#000000;stroke-width:0.8;" x="116.249071" xlink:href="#m37b82fc09a" y="542.64351"/>
      </g>
     </g>
     <g id="text_36">
      <!-- 480 -->
      <g transform="translate(106.705321 557.241948)scale(0.1 -0.1)">
       <use xlink:href="#DejaVuSans-52"/>
       <use x="63.623047" xlink:href="#DejaVuSans-56"/>
       <use x="127.246094" xlink:href="#DejaVuSans-48"/>
      </g>
     </g>
    </g>
    <g id="text_37">
     <!-- Age (Ma) -->
     <defs>
      <path d="M 34.1875 63.1875 
L 20.796875 26.90625 
L 47.609375 26.90625 
z
M 28.609375 72.90625 
L 39.796875 72.90625 
L 67.578125 0 
L 57.328125 0 
L 50.6875 18.703125 
L 17.828125 18.703125 
L 11.1875 0 
L 0.78125 0 
z
" id="DejaVuSans-65"/>
     </defs>
     <g transform="translate(186.901953 570.920073)scale(0.1 -0.1)">
      <use xlink:href="#DejaVuSans-65"/>
      <use x="68.408203" xlink:href="#DejaVuSans-103"/>
      <use x="131.884766" xlink:href="#DejaVuSans-101"/>
      <use x="193.408203" xlink:href="#DejaVuSans-32"/>
      <use x="225.195312" xlink:href="#DejaVuSans-40"/>
      <use x="264.208984" xlink:href="#DejaVuSans-77"/>
      <use x="350.488281" xlink:href="#DejaVuSans-97"/>
      <use x="411.767578" xlink:href="#DejaVuSans-41"/>
     </g>
    </g>
   </g>
   <g id="matplotlib.axis_6">
    <g id="ytick_16">
     <g id="line2d_46">
      <g>
       <use style="stroke:#000000;stroke-width:0.8;" x="59.090865" xlink:href="#m380dd8f167" y="512.438223"/>
      </g>
     </g>
     <g id="text_38">
      <!-- 0.8 -->
      <g transform="translate(36.18774 516.237442)scale(0.1 -0.1)">
       <use xlink:href="#DejaVuSans-48"/>
       <use x="63.623047" xlink:href="#DejaVuSans-46"/>
       <use x="95.410156" xlink:href="#DejaVuSans-56"/>
      </g>
     </g>
    </g>
    <g id="ytick_17">
     <g id="line2d_47">
      <g>
       <use style="stroke:#000000;stroke-width:0.8;" x="59.090865" xlink:href="#m380dd8f167" y="477.651488"/>
      </g>
     </g>
     <g id="text_39">
      <!-- 1.0 -->
      <g transform="translate(36.18774 481.450707)scale(0.1 -0.1)">
       <use xlink:href="#DejaVuSans-49"/>
       <use x="63.623047" xlink:href="#DejaVuSans-46"/>
       <use x="95.410156" xlink:href="#DejaVuSans-48"/>
      </g>
     </g>
    </g>
    <g id="ytick_18">
     <g id="line2d_48">
      <g>
       <use style="stroke:#000000;stroke-width:0.8;" x="59.090865" xlink:href="#m380dd8f167" y="442.864752"/>
      </g>
     </g>
     <g id="text_40">
      <!-- 1.2 -->
      <g transform="translate(36.18774 446.663971)scale(0.1 -0.1)">
       <use xlink:href="#DejaVuSans-49"/>
       <use x="63.623047" xlink:href="#DejaVuSans-46"/>
       <use x="95.410156" xlink:href="#DejaVuSans-50"/>
      </g>
     </g>
    </g>
    <g id="ytick_19">
     <g id="line2d_49">
      <g>
       <use style="stroke:#000000;stroke-width:0.8;" x="59.090865" xlink:href="#m380dd8f167" y="408.078017"/>
      </g>
     </g>
     <g id="text_41">
      <!-- 1.4 -->
      <g transform="translate(36.18774 411.877236)scale(0.1 -0.1)">
       <use xlink:href="#DejaVuSans-49"/>
       <use x="63.623047" xlink:href="#DejaVuSans-46"/>
       <use x="95.410156" xlink:href="#DejaVuSans-52"/>
      </g>
     </g>
    </g>
    <g id="ytick_20">
     <g id="line2d_50">
      <g>
       <use style="stroke:#000000;stroke-width:0.8;" x="59.090865" xlink:href="#m380dd8f167" y="373.291281"/>
      </g>
     </g>
     <g id="text_42">
      <!-- 1.6 -->
      <g transform="translate(36.18774 377.0905)scale(0.1 -0.1)">
       <use xlink:href="#DejaVuSans-49"/>
       <use x="63.623047" xlink:href="#DejaVuSans-46"/>
       <use x="95.410156" xlink:href="#DejaVuSans-54"/>
      </g>
     </g>
    </g>
    <g id="ytick_21">
     <g id="line2d_51">
      <g>
       <use style="stroke:#000000;stroke-width:0.8;" x="59.090865" xlink:href="#m380dd8f167" y="338.504546"/>
      </g>
     </g>
     <g id="text_43">
      <!-- 1.8 -->
      <g transform="translate(36.18774 342.303765)scale(0.1 -0.1)">
       <use xlink:href="#DejaVuSans-49"/>
       <use x="63.623047" xlink:href="#DejaVuSans-46"/>
       <use x="95.410156" xlink:href="#DejaVuSans-56"/>
      </g>
     </g>
    </g>
    <g id="ytick_22">
     <g id="line2d_52">
      <g>
       <use style="stroke:#000000;stroke-width:0.8;" x="59.090865" xlink:href="#m380dd8f167" y="303.717811"/>
      </g>
     </g>
     <g id="text_44">
      <!-- 2.0 -->
      <g transform="translate(36.18774 307.517029)scale(0.1 -0.1)">
       <use xlink:href="#DejaVuSans-50"/>
       <use x="63.623047" xlink:href="#DejaVuSans-46"/>
       <use x="95.410156" xlink:href="#DejaVuSans-48"/>
      </g>
     </g>
    </g>
    <g id="text_45">
     <!-- Hydrothermal Flux (mol/yr) -->
     <defs>
      <path d="M 9.8125 72.90625 
L 19.671875 72.90625 
L 19.671875 43.015625 
L 55.515625 43.015625 
L 55.515625 72.90625 
L 65.375 72.90625 
L 65.375 0 
L 55.515625 0 
L 55.515625 34.71875 
L 19.671875 34.71875 
L 19.671875 0 
L 9.8125 0 
z
" id="DejaVuSans-72"/>
      <path d="M 52 44.1875 
Q 55.375 50.25 60.0625 53.125 
Q 64.75 56 71.09375 56 
Q 79.640625 56 84.28125 50.015625 
Q 88.921875 44.046875 88.921875 33.015625 
L 88.921875 0 
L 79.890625 0 
L 79.890625 32.71875 
Q 79.890625 40.578125 77.09375 44.375 
Q 74.3125 48.1875 68.609375 48.1875 
Q 61.625 48.1875 57.5625 43.546875 
Q 53.515625 38.921875 53.515625 30.90625 
L 53.515625 0 
L 44.484375 0 
L 44.484375 32.71875 
Q 44.484375 40.625 41.703125 44.40625 
Q 38.921875 48.1875 33.109375 48.1875 
Q 26.21875 48.1875 22.15625 43.53125 
Q 18.109375 38.875 18.109375 30.90625 
L 18.109375 0 
L 9.078125 0 
L 9.078125 54.6875 
L 18.109375 54.6875 
L 18.109375 46.1875 
Q 21.1875 51.21875 25.484375 53.609375 
Q 29.78125 56 35.6875 56 
Q 41.65625 56 45.828125 52.96875 
Q 50 49.953125 52 44.1875 
z
" id="DejaVuSans-109"/>
      <path d="M 9.8125 72.90625 
L 51.703125 72.90625 
L 51.703125 64.59375 
L 19.671875 64.59375 
L 19.671875 43.109375 
L 48.578125 43.109375 
L 48.578125 34.8125 
L 19.671875 34.8125 
L 19.671875 0 
L 9.8125 0 
z
" id="DejaVuSans-70"/>
      <path d="M 54.890625 54.6875 
L 35.109375 28.078125 
L 55.90625 0 
L 45.3125 0 
L 29.390625 21.484375 
L 13.484375 0 
L 2.875 0 
L 24.125 28.609375 
L 4.6875 54.6875 
L 15.28125 54.6875 
L 29.78125 35.203125 
L 44.28125 54.6875 
z
" id="DejaVuSans-120"/>
     </defs>
     <g transform="translate(30.108052 485.573203)rotate(-90)scale(0.1 -0.1)">
      <use xlink:href="#DejaVuSans-72"/>
      <use x="75.195312" xlink:href="#DejaVuSans-121"/>
      <use x="134.375" xlink:href="#DejaVuSans-100"/>
      <use x="197.851562" xlink:href="#DejaVuSans-114"/>
      <use x="238.933594" xlink:href="#DejaVuSans-111"/>
      <use x="300.115234" xlink:href="#DejaVuSans-116"/>
      <use x="339.324219" xlink:href="#DejaVuSans-104"/>
      <use x="402.703125" xlink:href="#DejaVuSans-101"/>
      <use x="464.226562" xlink:href="#DejaVuSans-114"/>
      <use x="505.324219" xlink:href="#DejaVuSans-109"/>
      <use x="602.736328" xlink:href="#DejaVuSans-97"/>
      <use x="664.015625" xlink:href="#DejaVuSans-108"/>
      <use x="691.798828" xlink:href="#DejaVuSans-32"/>
      <use x="723.585938" xlink:href="#DejaVuSans-70"/>
      <use x="781.105469" xlink:href="#DejaVuSans-108"/>
      <use x="808.888672" xlink:href="#DejaVuSans-117"/>
      <use x="872.267578" xlink:href="#DejaVuSans-120"/>
      <use x="931.447266" xlink:href="#DejaVuSans-32"/>
      <use x="963.234375" xlink:href="#DejaVuSans-40"/>
      <use x="1002.248047" xlink:href="#DejaVuSans-109"/>
      <use x="1099.660156" xlink:href="#DejaVuSans-111"/>
      <use x="1160.841797" xlink:href="#DejaVuSans-108"/>
      <use x="1188.625" xlink:href="#DejaVuSans-47"/>
      <use x="1222.316406" xlink:href="#DejaVuSans-121"/>
      <use x="1281.496094" xlink:href="#DejaVuSans-114"/>
      <use x="1322.609375" xlink:href="#DejaVuSans-41"/>
     </g>
    </g>
    <g id="text_46">
     <!-- 1e10 -->
     <g transform="translate(59.090865 289.340396)scale(0.1 -0.1)">
      <use xlink:href="#DejaVuSans-49"/>
      <use x="63.623047" xlink:href="#DejaVuSans-101"/>
      <use x="125.146484" xlink:href="#DejaVuSans-49"/>
      <use x="188.769531" xlink:href="#DejaVuSans-48"/>
     </g>
    </g>
   </g>
   <g id="line2d_53">
    <path clip-path="url(#pf810b44773)" d="M 72.759132 512.438223 
L 237.436054 428.806785 
L 268.57541 303.717811 
L 346.124462 303.717811 
L 346.124462 303.717811 
" style="fill:none;stroke:#800000;stroke-linecap:square;stroke-width:1.5;"/>
   </g>
   <g id="line2d_54">
    <path clip-path="url(#pf810b44773)" d="M 72.759132 512.438223 
L 78.204623 508.801261 
L 80.109999 507.722811 
L 85.593762 504.999007 
L 98.699027 499.446485 
L 104.344078 497.045815 
L 111.170078 494.016042 
L 124.556912 488.34148 
L 126.937948 487.566699 
L 130.677623 486.602978 
L 133.755748 486.006238 
L 138.260853 485.338848 
L 147.692052 484.633767 
L 160.111163 484.386469 
L 164.769355 484.631967 
L 167.883017 485.013036 
L 171.002147 485.575359 
L 177.232205 486.947227 
L 180.365003 487.646264 
L 189.003434 489.278368 
L 192.740375 489.597968 
L 197.76488 489.776731 
L 203.973069 489.844777 
L 207.617065 489.733801 
L 211.373142 489.297098 
L 213.193774 488.922576 
L 216.999057 487.598075 
L 220.837145 485.927408 
L 222.471886 485.0504 
L 225.172762 483.125513 
L 229.1448 477.667761 
L 237.471591 465.37095 
L 242.5207 459.424914 
L 244.335863 457.548786 
L 247.454993 454.906782 
L 250.604193 452.860274 
L 254.015827 451.213052 
L 256.727638 450.236706 
L 259.803029 449.640642 
L 266.320123 449.375593 
L 270.390574 449.721769 
L 273.50697 450.193338 
L 278.75837 451.215311 
L 290.50773 454.721907 
L 296.620239 457.133641 
L 300.972259 459.5196 
L 305.914754 462.645007 
L 310.518272 466.642771 
L 312.606804 468.722458 
L 315.712265 472.476979 
L 318.722047 476.925835 
L 321.980595 482.88733 
L 325.487907 490.431586 
L 338.388146 519.938092 
L 340.476678 523.792398 
L 343.557536 528.302667 
L 346.124462 531.266096 
L 346.124462 531.266096 
" style="fill:none;stroke:#4682b4;stroke-linecap:square;stroke-width:1.5;"/>
   </g>
   <g id="line2d_55">
    <path clip-path="url(#pf810b44773)" d="M 59.090865 390.684649 
L 359.792729 390.684649 
" style="fill:none;stroke:#ff0000;stroke-dasharray:5.55,2.4;stroke-dashoffset:0;stroke-opacity:0.4;stroke-width:1.5;"/>
   </g>
   <g id="patch_15">
    <path d="M 59.090865 542.64351 
L 59.090865 292.340396 
" style="fill:none;stroke:#000000;stroke-linecap:square;stroke-linejoin:miter;stroke-width:0.8;"/>
   </g>
   <g id="patch_16">
    <path d="M 359.792729 542.64351 
L 359.792729 292.340396 
" style="fill:none;stroke:#000000;stroke-linecap:square;stroke-linejoin:miter;stroke-width:0.8;"/>
   </g>
   <g id="patch_17">
    <path d="M 59.090865 542.64351 
L 359.792729 542.64351 
" style="fill:none;stroke:#000000;stroke-linecap:square;stroke-linejoin:miter;stroke-width:0.8;"/>
   </g>
   <g id="patch_18">
    <path d="M 59.090865 292.340396 
L 359.792729 292.340396 
" style="fill:none;stroke:#000000;stroke-linecap:square;stroke-linejoin:miter;stroke-width:0.8;"/>
   </g>
   <g id="legend_3">
    <g id="patch_19">
     <path d="M 66.090865 344.374771 
L 179.676803 344.374771 
Q 181.676803 344.374771 181.676803 342.374771 
L 181.676803 299.340396 
Q 181.676803 297.340396 179.676803 297.340396 
L 66.090865 297.340396 
Q 64.090865 297.340396 64.090865 299.340396 
L 64.090865 342.374771 
Q 64.090865 344.374771 66.090865 344.374771 
z
" style="fill:#ffffff;opacity:0.8;"/>
    </g>
    <g id="line2d_56">
     <path d="M 68.090865 305.438834 
L 88.090865 305.438834 
" style="fill:none;stroke:#800000;stroke-linecap:square;stroke-width:1.5;"/>
    </g>
    <g id="line2d_57"/>
    <g id="text_47">
     <!-- Standard Model -->
     <g transform="translate(96.090865 308.938834)scale(0.1 -0.1)">
      <use xlink:href="#DejaVuSans-83"/>
      <use x="63.476562" xlink:href="#DejaVuSans-116"/>
      <use x="102.685547" xlink:href="#DejaVuSans-97"/>
      <use x="163.964844" xlink:href="#DejaVuSans-110"/>
      <use x="227.34375" xlink:href="#DejaVuSans-100"/>
      <use x="290.820312" xlink:href="#DejaVuSans-97"/>
      <use x="352.099609" xlink:href="#DejaVuSans-114"/>
      <use x="393.197266" xlink:href="#DejaVuSans-100"/>
      <use x="456.673828" xlink:href="#DejaVuSans-32"/>
      <use x="488.460938" xlink:href="#DejaVuSans-77"/>
      <use x="574.740234" xlink:href="#DejaVuSans-111"/>
      <use x="635.921875" xlink:href="#DejaVuSans-100"/>
      <use x="699.398438" xlink:href="#DejaVuSans-101"/>
      <use x="760.921875" xlink:href="#DejaVuSans-108"/>
     </g>
    </g>
    <g id="line2d_58">
     <path d="M 68.090865 320.116959 
L 88.090865 320.116959 
" style="fill:none;stroke:#4682b4;stroke-linecap:square;stroke-width:1.5;"/>
    </g>
    <g id="line2d_59"/>
    <g id="text_48">
     <!-- Sea Level Model -->
     <g transform="translate(96.090865 323.616959)scale(0.1 -0.1)">
      <use xlink:href="#DejaVuSans-83"/>
      <use x="63.476562" xlink:href="#DejaVuSans-101"/>
      <use x="125" xlink:href="#DejaVuSans-97"/>
      <use x="186.279297" xlink:href="#DejaVuSans-32"/>
      <use x="218.066406" xlink:href="#DejaVuSans-76"/>
      <use x="273.763672" xlink:href="#DejaVuSans-101"/>
      <use x="335.287109" xlink:href="#DejaVuSans-118"/>
      <use x="394.466797" xlink:href="#DejaVuSans-101"/>
      <use x="455.990234" xlink:href="#DejaVuSans-108"/>
      <use x="483.773438" xlink:href="#DejaVuSans-32"/>
      <use x="515.560547" xlink:href="#DejaVuSans-77"/>
      <use x="601.839844" xlink:href="#DejaVuSans-111"/>
      <use x="663.021484" xlink:href="#DejaVuSans-100"/>
      <use x="726.498047" xlink:href="#DejaVuSans-101"/>
      <use x="788.021484" xlink:href="#DejaVuSans-108"/>
     </g>
    </g>
    <g id="line2d_60">
     <path d="M 68.090865 334.795084 
L 88.090865 334.795084 
" style="fill:none;stroke:#ff0000;stroke-dasharray:5.55,2.4;stroke-dashoffset:0;stroke-opacity:0.4;stroke-width:1.5;"/>
    </g>
    <g id="line2d_61"/>
    <g id="text_49">
     <!-- Present Day -->
     <defs>
      <path d="M 19.671875 64.796875 
L 19.671875 37.40625 
L 32.078125 37.40625 
Q 38.96875 37.40625 42.71875 40.96875 
Q 46.484375 44.53125 46.484375 51.125 
Q 46.484375 57.671875 42.71875 61.234375 
Q 38.96875 64.796875 32.078125 64.796875 
z
M 9.8125 72.90625 
L 32.078125 72.90625 
Q 44.34375 72.90625 50.609375 67.359375 
Q 56.890625 61.8125 56.890625 51.125 
Q 56.890625 40.328125 50.609375 34.8125 
Q 44.34375 29.296875 32.078125 29.296875 
L 19.671875 29.296875 
L 19.671875 0 
L 9.8125 0 
z
" id="DejaVuSans-80"/>
      <path d="M 44.28125 53.078125 
L 44.28125 44.578125 
Q 40.484375 46.53125 36.375 47.5 
Q 32.28125 48.484375 27.875 48.484375 
Q 21.1875 48.484375 17.84375 46.4375 
Q 14.5 44.390625 14.5 40.28125 
Q 14.5 37.15625 16.890625 35.375 
Q 19.28125 33.59375 26.515625 31.984375 
L 29.59375 31.296875 
Q 39.15625 29.25 43.1875 25.515625 
Q 47.21875 21.78125 47.21875 15.09375 
Q 47.21875 7.46875 41.1875 3.015625 
Q 35.15625 -1.421875 24.609375 -1.421875 
Q 20.21875 -1.421875 15.453125 -0.5625 
Q 10.6875 0.296875 5.421875 2 
L 5.421875 11.28125 
Q 10.40625 8.6875 15.234375 7.390625 
Q 20.0625 6.109375 24.8125 6.109375 
Q 31.15625 6.109375 34.5625 8.28125 
Q 37.984375 10.453125 37.984375 14.40625 
Q 37.984375 18.0625 35.515625 20.015625 
Q 33.0625 21.96875 24.703125 23.78125 
L 21.578125 24.515625 
Q 13.234375 26.265625 9.515625 29.90625 
Q 5.8125 33.546875 5.8125 39.890625 
Q 5.8125 47.609375 11.28125 51.796875 
Q 16.75 56 26.8125 56 
Q 31.78125 56 36.171875 55.265625 
Q 40.578125 54.546875 44.28125 53.078125 
z
" id="DejaVuSans-115"/>
     </defs>
     <g transform="translate(96.090865 338.295084)scale(0.1 -0.1)">
      <use xlink:href="#DejaVuSans-80"/>
      <use x="60.287109" xlink:href="#DejaVuSans-114"/>
      <use x="101.369141" xlink:href="#DejaVuSans-101"/>
      <use x="162.892578" xlink:href="#DejaVuSans-115"/>
      <use x="214.992188" xlink:href="#DejaVuSans-101"/>
      <use x="276.515625" xlink:href="#DejaVuSans-110"/>
      <use x="339.894531" xlink:href="#DejaVuSans-116"/>
      <use x="379.103516" xlink:href="#DejaVuSans-32"/>
      <use x="410.890625" xlink:href="#DejaVuSans-68"/>
      <use x="487.892578" xlink:href="#DejaVuSans-97"/>
      <use x="549.171875" xlink:href="#DejaVuSans-121"/>
     </g>
    </g>
   </g>
  </g>
  <g id="axes_4">
   <g id="patch_20">
    <path d="M 416.297896 542.64351 
L 716.99976 542.64351 
L 716.99976 292.340396 
L 416.297896 292.340396 
z
" style="fill:#ffffff;"/>
   </g>
   <g id="matplotlib.axis_7">
    <g id="xtick_13">
     <g id="line2d_62">
      <g>
       <use style="stroke:#000000;stroke-width:0.8;" x="659.841554" xlink:href="#m37b82fc09a" y="542.64351"/>
      </g>
     </g>
     <g id="text_50">
      <!-- 450 -->
      <g transform="translate(650.297804 557.241948)scale(0.1 -0.1)">
       <use xlink:href="#DejaVuSans-52"/>
       <use x="63.623047" xlink:href="#DejaVuSans-53"/>
       <use x="127.246094" xlink:href="#DejaVuSans-48"/>
      </g>
     </g>
    </g>
    <g id="xtick_14">
     <g id="line2d_63">
      <g>
       <use style="stroke:#000000;stroke-width:0.8;" x="597.71307" xlink:href="#m37b82fc09a" y="542.64351"/>
      </g>
     </g>
     <g id="text_51">
      <!-- 460 -->
      <g transform="translate(588.16932 557.241948)scale(0.1 -0.1)">
       <use xlink:href="#DejaVuSans-52"/>
       <use x="63.623047" xlink:href="#DejaVuSans-54"/>
       <use x="127.246094" xlink:href="#DejaVuSans-48"/>
      </g>
     </g>
    </g>
    <g id="xtick_15">
     <g id="line2d_64">
      <g>
       <use style="stroke:#000000;stroke-width:0.8;" x="535.584586" xlink:href="#m37b82fc09a" y="542.64351"/>
      </g>
     </g>
     <g id="text_52">
      <!-- 470 -->
      <g transform="translate(526.040836 557.241948)scale(0.1 -0.1)">
       <use xlink:href="#DejaVuSans-52"/>
       <use x="63.623047" xlink:href="#DejaVuSans-55"/>
       <use x="127.246094" xlink:href="#DejaVuSans-48"/>
      </g>
     </g>
    </g>
    <g id="xtick_16">
     <g id="line2d_65">
      <g>
       <use style="stroke:#000000;stroke-width:0.8;" x="473.456102" xlink:href="#m37b82fc09a" y="542.64351"/>
      </g>
     </g>
     <g id="text_53">
      <!-- 480 -->
      <g transform="translate(463.912352 557.241948)scale(0.1 -0.1)">
       <use xlink:href="#DejaVuSans-52"/>
       <use x="63.623047" xlink:href="#DejaVuSans-56"/>
       <use x="127.246094" xlink:href="#DejaVuSans-48"/>
      </g>
     </g>
    </g>
    <g id="text_54">
     <!-- Age (Ma) -->
     <g transform="translate(544.108984 570.920073)scale(0.1 -0.1)">
      <use xlink:href="#DejaVuSans-65"/>
      <use x="68.408203" xlink:href="#DejaVuSans-103"/>
      <use x="131.884766" xlink:href="#DejaVuSans-101"/>
      <use x="193.408203" xlink:href="#DejaVuSans-32"/>
      <use x="225.195312" xlink:href="#DejaVuSans-40"/>
      <use x="264.208984" xlink:href="#DejaVuSans-77"/>
      <use x="350.488281" xlink:href="#DejaVuSans-97"/>
      <use x="411.767578" xlink:href="#DejaVuSans-41"/>
     </g>
    </g>
   </g>
   <g id="matplotlib.axis_8">
    <g id="ytick_23">
     <g id="line2d_66">
      <g>
       <use style="stroke:#000000;stroke-width:0.8;" x="416.297896" xlink:href="#m380dd8f167" y="516.826485"/>
      </g>
     </g>
     <g id="text_55">
      <!-- 140 -->
      <g transform="translate(390.210396 520.625703)scale(0.1 -0.1)">
       <use xlink:href="#DejaVuSans-49"/>
       <use x="63.623047" xlink:href="#DejaVuSans-52"/>
       <use x="127.246094" xlink:href="#DejaVuSans-48"/>
      </g>
     </g>
    </g>
    <g id="ytick_24">
     <g id="line2d_67">
      <g>
       <use style="stroke:#000000;stroke-width:0.8;" x="416.297896" xlink:href="#m380dd8f167" y="467.034722"/>
      </g>
     </g>
     <g id="text_56">
      <!-- 160 -->
      <g transform="translate(390.210396 470.833941)scale(0.1 -0.1)">
       <use xlink:href="#DejaVuSans-49"/>
       <use x="63.623047" xlink:href="#DejaVuSans-54"/>
       <use x="127.246094" xlink:href="#DejaVuSans-48"/>
      </g>
     </g>
    </g>
    <g id="ytick_25">
     <g id="line2d_68">
      <g>
       <use style="stroke:#000000;stroke-width:0.8;" x="416.297896" xlink:href="#m380dd8f167" y="417.242959"/>
      </g>
     </g>
     <g id="text_57">
      <!-- 180 -->
      <g transform="translate(390.210396 421.042178)scale(0.1 -0.1)">
       <use xlink:href="#DejaVuSans-49"/>
       <use x="63.623047" xlink:href="#DejaVuSans-56"/>
       <use x="127.246094" xlink:href="#DejaVuSans-48"/>
      </g>
     </g>
    </g>
    <g id="ytick_26">
     <g id="line2d_69">
      <g>
       <use style="stroke:#000000;stroke-width:0.8;" x="416.297896" xlink:href="#m380dd8f167" y="367.451197"/>
      </g>
     </g>
     <g id="text_58">
      <!-- 200 -->
      <g transform="translate(390.210396 371.250416)scale(0.1 -0.1)">
       <use xlink:href="#DejaVuSans-50"/>
       <use x="63.623047" xlink:href="#DejaVuSans-48"/>
       <use x="127.246094" xlink:href="#DejaVuSans-48"/>
      </g>
     </g>
    </g>
    <g id="ytick_27">
     <g id="line2d_70">
      <g>
       <use style="stroke:#000000;stroke-width:0.8;" x="416.297896" xlink:href="#m380dd8f167" y="317.659434"/>
      </g>
     </g>
     <g id="text_59">
      <!-- 220 -->
      <g transform="translate(390.210396 321.458653)scale(0.1 -0.1)">
       <use xlink:href="#DejaVuSans-50"/>
       <use x="63.623047" xlink:href="#DejaVuSans-50"/>
       <use x="127.246094" xlink:href="#DejaVuSans-48"/>
      </g>
     </g>
    </g>
    <g id="text_60">
     <!-- Sea Level (m) -->
     <g transform="translate(384.130709 452.043516)rotate(-90)scale(0.1 -0.1)">
      <use xlink:href="#DejaVuSans-83"/>
      <use x="63.476562" xlink:href="#DejaVuSans-101"/>
      <use x="125" xlink:href="#DejaVuSans-97"/>
      <use x="186.279297" xlink:href="#DejaVuSans-32"/>
      <use x="218.066406" xlink:href="#DejaVuSans-76"/>
      <use x="273.763672" xlink:href="#DejaVuSans-101"/>
      <use x="335.287109" xlink:href="#DejaVuSans-118"/>
      <use x="394.466797" xlink:href="#DejaVuSans-101"/>
      <use x="455.990234" xlink:href="#DejaVuSans-108"/>
      <use x="483.773438" xlink:href="#DejaVuSans-32"/>
      <use x="515.560547" xlink:href="#DejaVuSans-40"/>
      <use x="554.574219" xlink:href="#DejaVuSans-109"/>
      <use x="651.986328" xlink:href="#DejaVuSans-41"/>
     </g>
    </g>
   </g>
   <g id="line2d_71">
    <path clip-path="url(#p71d88c5b8a)" d="M 429.966163 478.984745 
L 434.575148 470.360492 
L 436.879641 466.521926 
L 441.718256 459.736822 
L 443.560757 457.413894 
L 450.772206 448.918373 
L 453.792923 445.362272 
L 456.983129 441.700729 
L 460.006579 438.141496 
L 463.196785 434.132776 
L 466.389724 430.219052 
L 475.621363 418.947722 
L 477.688026 416.478061 
L 481.750275 412.087001 
L 483.442424 410.484395 
L 486.769313 407.960375 
L 489.809166 406.142972 
L 493.630851 404.428396 
L 495.946279 403.620014 
L 502.837888 402.077188 
L 505.924213 401.695002 
L 515.229662 401.060637 
L 518.33239 401.171743 
L 520.74623 401.476397 
L 523.870827 402.341757 
L 527.011826 403.720061 
L 533.271954 407.359243 
L 536.437556 409.505837 
L 545.431366 414.424558 
L 548.736386 415.367673 
L 552.5198 415.861655 
L 558.719787 416.247124 
L 564.003992 416.136145 
L 567.360952 415.214888 
L 570.001687 414.038203 
L 573.476196 410.827413 
L 577.008111 406.697887 
L 579.394614 403.458124 
L 582.305984 397.861138 
L 586.168675 383.197208 
L 594.470863 349.074432 
L 595.321038 346.125675 
L 599.334081 333.00745 
L 601.387075 326.954544 
L 604.454265 319.6307 
L 607.532389 313.950573 
L 610.744464 309.511075 
L 613.590225 306.48403 
L 616.624611 304.669819 
L 622.91481 303.773897 
L 626.372916 304.440709 
L 629.50298 305.560438 
L 635.372193 308.505172 
L 639.871831 311.969053 
L 642.056042 313.681229 
L 648.33804 319.367097 
L 652.523305 323.887933 
L 654.147111 325.876039 
L 657.545076 330.972603 
L 662.553179 339.618595 
L 663.34868 341.245978 
L 667.222306 350.529676 
L 669.636146 357.024917 
L 672.782612 367.483358 
L 675.841601 379.946072 
L 679.108349 396.470191 
L 682.599259 417.26314 
L 693.687068 489.072966 
L 694.712198 494.998421 
L 697.629036 510.280856 
L 700.688024 522.791851 
L 703.331493 531.266096 
L 703.331493 531.266096 
" style="fill:none;stroke:#4682b4;stroke-linecap:square;stroke-width:1.5;"/>
   </g>
   <g id="patch_21">
    <path d="M 416.297896 542.64351 
L 416.297896 292.340396 
" style="fill:none;stroke:#000000;stroke-linecap:square;stroke-linejoin:miter;stroke-width:0.8;"/>
   </g>
   <g id="patch_22">
    <path d="M 716.99976 542.64351 
L 716.99976 292.340396 
" style="fill:none;stroke:#000000;stroke-linecap:square;stroke-linejoin:miter;stroke-width:0.8;"/>
   </g>
   <g id="patch_23">
    <path d="M 416.297896 542.64351 
L 716.99976 542.64351 
" style="fill:none;stroke:#000000;stroke-linecap:square;stroke-linejoin:miter;stroke-width:0.8;"/>
   </g>
   <g id="patch_24">
    <path d="M 416.297896 292.340396 
L 716.99976 292.340396 
" style="fill:none;stroke:#000000;stroke-linecap:square;stroke-linejoin:miter;stroke-width:0.8;"/>
   </g>
   <g id="legend_4">
    <g id="patch_25">
     <path d="M 423.297896 315.018521 
L 503.679146 315.018521 
Q 505.679146 315.018521 505.679146 313.018521 
L 505.679146 299.340396 
Q 505.679146 297.340396 503.679146 297.340396 
L 423.297896 297.340396 
Q 421.297896 297.340396 421.297896 299.340396 
L 421.297896 313.018521 
Q 421.297896 315.018521 423.297896 315.018521 
z
" style="fill:#ffffff;opacity:0.8;"/>
    </g>
    <g id="line2d_72">
     <path d="M 425.297896 305.438834 
L 445.297896 305.438834 
" style="fill:none;stroke:#4682b4;stroke-linecap:square;stroke-width:1.5;"/>
    </g>
    <g id="line2d_73"/>
    <g id="text_61">
     <!-- Sea Level -->
     <g transform="translate(453.297896 308.938834)scale(0.1 -0.1)">
      <use xlink:href="#DejaVuSans-83"/>
      <use x="63.476562" xlink:href="#DejaVuSans-101"/>
      <use x="125" xlink:href="#DejaVuSans-97"/>
      <use x="186.279297" xlink:href="#DejaVuSans-32"/>
      <use x="218.066406" xlink:href="#DejaVuSans-76"/>
      <use x="273.763672" xlink:href="#DejaVuSans-101"/>
      <use x="335.287109" xlink:href="#DejaVuSans-118"/>
      <use x="394.466797" xlink:href="#DejaVuSans-101"/>
      <use x="455.990234" xlink:href="#DejaVuSans-108"/>
     </g>
    </g>
   </g>
  </g>
 </g>
 <defs>
  <clipPath id="p8566a495c0">
   <rect height="250.303114" width="300.701864" x="59.090865" y="3.00024"/>
  </clipPath>
  <clipPath id="pcfaacae3cb">
   <rect height="250.303114" width="300.701864" x="416.297896" y="3.00024"/>
  </clipPath>
  <clipPath id="pf810b44773">
   <rect height="250.303114" width="300.701864" x="59.090865" y="292.340396"/>
  </clipPath>
  <clipPath id="p71d88c5b8a">
   <rect height="250.303114" width="300.701864" x="416.297896" y="292.340396"/>
  </clipPath>
 </defs>
</svg>
