<?xml version="1.0" encoding="utf-8" standalone="no"?>
<!DOCTYPE svg PUBLIC "-//W3C//DTD SVG 1.1//EN"
  "http://www.w3.org/Graphics/SVG/1.1/DTD/svg11.dtd">
<!-- Created with matplotlib (https://matplotlib.org/) -->
<svg height="576pt" version="1.1" viewBox="0 0 720 576" width="720pt" xmlns="http://www.w3.org/2000/svg" xmlns:xlink="http://www.w3.org/1999/xlink">
 <defs>
  <style type="text/css">
*{stroke-linecap:butt;stroke-linejoin:round;}
  </style>
 </defs>
 <g id="figure_1">
  <g id="patch_1">
   <path d="M 0 576 
L 720 576 
L 720 0 
L 0 0 
z
" style="fill:#ffffff;"/>
  </g>
  <g id="axes_1">
   <g id="patch_2">
    <path d="M 59.090865 254.380142 
L 359.792729 254.380142 
L 359.792729 5.153816 
L 59.090865 5.153816 
z
" style="fill:#ffffff;"/>
   </g>
   <g id="PathCollection_1">
    <defs>
     <path d="M 0 3 
C 0.795609 3 1.55874 2.683901 2.12132 2.12132 
C 2.683901 1.55874 3 0.795609 3 0 
C 3 -0.795609 2.683901 -1.55874 2.12132 -2.12132 
C 1.55874 -2.683901 0.795609 -3 0 -3 
C -0.795609 -3 -1.55874 -2.683901 -2.12132 -2.12132 
C -2.683901 -1.55874 -3 -0.795609 -3 0 
C -3 0.795609 -2.683901 1.55874 -2.12132 2.12132 
C -1.55874 2.683901 -0.795609 3 0 3 
z
" id="mc49889c0f4" style="stroke:#6b8e23;stroke-opacity:0.4;"/>
    </defs>
    <g clip-path="url(#p0fc1c109bc)">
     <use style="fill:#6b8e23;fill-opacity:0.4;stroke:#6b8e23;stroke-opacity:0.4;" x="176.5137" xlink:href="#mc49889c0f4" y="21.008319"/>
     <use style="fill:#6b8e23;fill-opacity:0.4;stroke:#6b8e23;stroke-opacity:0.4;" x="180.241409" xlink:href="#mc49889c0f4" y="25.220991"/>
     <use style="fill:#6b8e23;fill-opacity:0.4;stroke:#6b8e23;stroke-opacity:0.4;" x="181.546107" xlink:href="#mc49889c0f4" y="22.650547"/>
     <use style="fill:#6b8e23;fill-opacity:0.4;stroke:#6b8e23;stroke-opacity:0.4;" x="182.540163" xlink:href="#mc49889c0f4" y="20.151504"/>
     <use style="fill:#6b8e23;fill-opacity:0.4;stroke:#6b8e23;stroke-opacity:0.4;" x="183.596347" xlink:href="#mc49889c0f4" y="26.720416"/>
     <use style="fill:#6b8e23;fill-opacity:0.4;stroke:#6b8e23;stroke-opacity:0.4;" x="184.404018" xlink:href="#mc49889c0f4" y="26.649015"/>
     <use style="fill:#6b8e23;fill-opacity:0.4;stroke:#6b8e23;stroke-opacity:0.4;" x="190.554738" xlink:href="#mc49889c0f4" y="28.71965"/>
     <use style="fill:#6b8e23;fill-opacity:0.4;stroke:#6b8e23;stroke-opacity:0.4;" x="198.320798" xlink:href="#mc49889c0f4" y="26.577614"/>
     <use style="fill:#6b8e23;fill-opacity:0.4;stroke:#6b8e23;stroke-opacity:0.4;" x="207.515814" xlink:href="#mc49889c0f4" y="25.363793"/>
     <use style="fill:#6b8e23;fill-opacity:0.4;stroke:#6b8e23;stroke-opacity:0.4;" x="215.841031" xlink:href="#mc49889c0f4" y="28.219842"/>
     <use style="fill:#6b8e23;fill-opacity:0.4;stroke:#6b8e23;stroke-opacity:0.4;" x="216.27593" xlink:href="#mc49889c0f4" y="27.648632"/>
     <use style="fill:#6b8e23;fill-opacity:0.4;stroke:#6b8e23;stroke-opacity:0.4;" x="218.388299" xlink:href="#mc49889c0f4" y="29.29086"/>
     <use style="fill:#6b8e23;fill-opacity:0.4;stroke:#6b8e23;stroke-opacity:0.4;" x="218.388299" xlink:href="#mc49889c0f4" y="26.863219"/>
     <use style="fill:#6b8e23;fill-opacity:0.4;stroke:#6b8e23;stroke-opacity:0.4;" x="221.370466" xlink:href="#mc49889c0f4" y="31.861304"/>
     <use style="fill:#6b8e23;fill-opacity:0.4;stroke:#6b8e23;stroke-opacity:0.4;" x="225.160303" xlink:href="#mc49889c0f4" y="31.147292"/>
     <use style="fill:#6b8e23;fill-opacity:0.4;stroke:#6b8e23;stroke-opacity:0.4;" x="234.231062" xlink:href="#mc49889c0f4" y="31.00449"/>
     <use style="fill:#6b8e23;fill-opacity:0.4;stroke:#6b8e23;stroke-opacity:0.4;" x="234.231062" xlink:href="#mc49889c0f4" y="30.861687"/>
     <use style="fill:#6b8e23;fill-opacity:0.4;stroke:#6b8e23;stroke-opacity:0.4;" x="235.660017" xlink:href="#mc49889c0f4" y="29.148058"/>
     <use style="fill:#6b8e23;fill-opacity:0.4;stroke:#6b8e23;stroke-opacity:0.4;" x="235.660017" xlink:href="#mc49889c0f4" y="32.146909"/>
     <use style="fill:#6b8e23;fill-opacity:0.4;stroke:#6b8e23;stroke-opacity:0.4;" x="235.660017" xlink:href="#mc49889c0f4" y="32.432514"/>
     <use style="fill:#6b8e23;fill-opacity:0.4;stroke:#6b8e23;stroke-opacity:0.4;" x="236.529816" xlink:href="#mc49889c0f4" y="31.504298"/>
     <use style="fill:#6b8e23;fill-opacity:0.4;stroke:#6b8e23;stroke-opacity:0.4;" x="236.529816" xlink:href="#mc49889c0f4" y="31.861304"/>
     <use style="fill:#6b8e23;fill-opacity:0.4;stroke:#6b8e23;stroke-opacity:0.4;" x="236.529816" xlink:href="#mc49889c0f4" y="33.217927"/>
     <use style="fill:#6b8e23;fill-opacity:0.4;stroke:#6b8e23;stroke-opacity:0.4;" x="238.331542" xlink:href="#mc49889c0f4" y="34.074742"/>
     <use style="fill:#6b8e23;fill-opacity:0.4;stroke:#6b8e23;stroke-opacity:0.4;" x="239.014955" xlink:href="#mc49889c0f4" y="33.003724"/>
     <use style="fill:#6b8e23;fill-opacity:0.4;stroke:#6b8e23;stroke-opacity:0.4;" x="239.574112" xlink:href="#mc49889c0f4" y="34.360347"/>
     <use style="fill:#6b8e23;fill-opacity:0.4;stroke:#6b8e23;stroke-opacity:0.4;" x="239.574112" xlink:href="#mc49889c0f4" y="34.860155"/>
     <use style="fill:#6b8e23;fill-opacity:0.4;stroke:#6b8e23;stroke-opacity:0.4;" x="239.574112" xlink:href="#mc49889c0f4" y="34.146143"/>
     <use style="fill:#6b8e23;fill-opacity:0.4;stroke:#6b8e23;stroke-opacity:0.4;" x="240.133268" xlink:href="#mc49889c0f4" y="34.146143"/>
     <use style="fill:#6b8e23;fill-opacity:0.4;stroke:#6b8e23;stroke-opacity:0.4;" x="240.630296" xlink:href="#mc49889c0f4" y="34.360347"/>
     <use style="fill:#6b8e23;fill-opacity:0.4;stroke:#6b8e23;stroke-opacity:0.4;" x="240.630296" xlink:href="#mc49889c0f4" y="34.717353"/>
     <use style="fill:#6b8e23;fill-opacity:0.4;stroke:#6b8e23;stroke-opacity:0.4;" x="241.189452" xlink:href="#mc49889c0f4" y="34.074742"/>
     <use style="fill:#6b8e23;fill-opacity:0.4;stroke:#6b8e23;stroke-opacity:0.4;" x="241.189452" xlink:href="#mc49889c0f4" y="34.788754"/>
     <use style="fill:#6b8e23;fill-opacity:0.4;stroke:#6b8e23;stroke-opacity:0.4;" x="241.189452" xlink:href="#mc49889c0f4" y="34.074742"/>
     <use style="fill:#6b8e23;fill-opacity:0.4;stroke:#6b8e23;stroke-opacity:0.4;" x="245.227804" xlink:href="#mc49889c0f4" y="41.857475"/>
     <use style="fill:#6b8e23;fill-opacity:0.4;stroke:#6b8e23;stroke-opacity:0.4;" x="245.227804" xlink:href="#mc49889c0f4" y="36.359581"/>
     <use style="fill:#6b8e23;fill-opacity:0.4;stroke:#6b8e23;stroke-opacity:0.4;" x="248.520613" xlink:href="#mc49889c0f4" y="46.284351"/>
     <use style="fill:#6b8e23;fill-opacity:0.4;stroke:#6b8e23;stroke-opacity:0.4;" x="248.520613" xlink:href="#mc49889c0f4" y="37.073593"/>
     <use style="fill:#6b8e23;fill-opacity:0.4;stroke:#6b8e23;stroke-opacity:0.4;" x="248.520613" xlink:href="#mc49889c0f4" y="40.929259"/>
     <use style="fill:#6b8e23;fill-opacity:0.4;stroke:#6b8e23;stroke-opacity:0.4;" x="248.520613" xlink:href="#mc49889c0f4" y="41.643271"/>
     <use style="fill:#6b8e23;fill-opacity:0.4;stroke:#6b8e23;stroke-opacity:0.4;" x="250.198083" xlink:href="#mc49889c0f4" y="38.001809"/>
     <use style="fill:#6b8e23;fill-opacity:0.4;stroke:#6b8e23;stroke-opacity:0.4;" x="250.198083" xlink:href="#mc49889c0f4" y="40.572253"/>
     <use style="fill:#6b8e23;fill-opacity:0.4;stroke:#6b8e23;stroke-opacity:0.4;" x="250.198083" xlink:href="#mc49889c0f4" y="41.786074"/>
     <use style="fill:#6b8e23;fill-opacity:0.4;stroke:#6b8e23;stroke-opacity:0.4;" x="255.044104" xlink:href="#mc49889c0f4" y="41.928876"/>
     <use style="fill:#6b8e23;fill-opacity:0.4;stroke:#6b8e23;stroke-opacity:0.4;" x="255.044104" xlink:href="#mc49889c0f4" y="40.001043"/>
     <use style="fill:#6b8e23;fill-opacity:0.4;stroke:#6b8e23;stroke-opacity:0.4;" x="255.044104" xlink:href="#mc49889c0f4" y="40.857858"/>
     <use style="fill:#6b8e23;fill-opacity:0.4;stroke:#6b8e23;stroke-opacity:0.4;" x="255.044104" xlink:href="#mc49889c0f4" y="43.785308"/>
     <use style="fill:#6b8e23;fill-opacity:0.4;stroke:#6b8e23;stroke-opacity:0.4;" x="255.23049" xlink:href="#mc49889c0f4" y="42.214481"/>
     <use style="fill:#6b8e23;fill-opacity:0.4;stroke:#6b8e23;stroke-opacity:0.4;" x="255.23049" xlink:href="#mc49889c0f4" y="44.285117"/>
     <use style="fill:#6b8e23;fill-opacity:0.4;stroke:#6b8e23;stroke-opacity:0.4;" x="256.410931" xlink:href="#mc49889c0f4" y="42.785691"/>
     <use style="fill:#6b8e23;fill-opacity:0.4;stroke:#6b8e23;stroke-opacity:0.4;" x="256.410931" xlink:href="#mc49889c0f4" y="43.642506"/>
     <use style="fill:#6b8e23;fill-opacity:0.4;stroke:#6b8e23;stroke-opacity:0.4;" x="258.212657" xlink:href="#mc49889c0f4" y="45.284734"/>
     <use style="fill:#6b8e23;fill-opacity:0.4;stroke:#6b8e23;stroke-opacity:0.4;" x="258.212657" xlink:href="#mc49889c0f4" y="45.570338"/>
     <use style="fill:#6b8e23;fill-opacity:0.4;stroke:#6b8e23;stroke-opacity:0.4;" x="259.517355" xlink:href="#mc49889c0f4" y="51.282436"/>
     <use style="fill:#6b8e23;fill-opacity:0.4;stroke:#6b8e23;stroke-opacity:0.4;" x="259.517355" xlink:href="#mc49889c0f4" y="51.568041"/>
     <use style="fill:#6b8e23;fill-opacity:0.4;stroke:#6b8e23;stroke-opacity:0.4;" x="259.517355" xlink:href="#mc49889c0f4" y="52.853263"/>
     <use style="fill:#6b8e23;fill-opacity:0.4;stroke:#6b8e23;stroke-opacity:0.4;" x="260.325025" xlink:href="#mc49889c0f4" y="53.424473"/>
     <use style="fill:#6b8e23;fill-opacity:0.4;stroke:#6b8e23;stroke-opacity:0.4;" x="260.635668" xlink:href="#mc49889c0f4" y="53.28167"/>
     <use style="fill:#6b8e23;fill-opacity:0.4;stroke:#6b8e23;stroke-opacity:0.4;" x="260.635668" xlink:href="#mc49889c0f4" y="53.353072"/>
     <use style="fill:#6b8e23;fill-opacity:0.4;stroke:#6b8e23;stroke-opacity:0.4;" x="261.816109" xlink:href="#mc49889c0f4" y="54.138485"/>
     <use style="fill:#6b8e23;fill-opacity:0.4;stroke:#6b8e23;stroke-opacity:0.4;" x="263.058679" xlink:href="#mc49889c0f4" y="57.92275"/>
     <use style="fill:#6b8e23;fill-opacity:0.4;stroke:#6b8e23;stroke-opacity:0.4;" x="271.073253" xlink:href="#mc49889c0f4" y="67.704717"/>
     <use style="fill:#6b8e23;fill-opacity:0.4;stroke:#6b8e23;stroke-opacity:0.4;" x="274.676705" xlink:href="#mc49889c0f4" y="65.848285"/>
    </g>
   </g>
   <g id="matplotlib.axis_1">
    <g id="xtick_1">
     <g id="line2d_1">
      <defs>
       <path d="M 0 0 
L 0 3.5 
" id="mddbacf9650" style="stroke:#000000;stroke-width:0.8;"/>
      </defs>
      <g>
       <use style="stroke:#000000;stroke-width:0.8;" x="302.634523" xlink:href="#mddbacf9650" y="254.380142"/>
      </g>
     </g>
     <g id="text_1">
      <!-- 450 -->
      <defs>
       <path d="M 37.796875 64.3125 
L 12.890625 25.390625 
L 37.796875 25.390625 
z
M 35.203125 72.90625 
L 47.609375 72.90625 
L 47.609375 25.390625 
L 58.015625 25.390625 
L 58.015625 17.1875 
L 47.609375 17.1875 
L 47.609375 0 
L 37.796875 0 
L 37.796875 17.1875 
L 4.890625 17.1875 
L 4.890625 26.703125 
z
" id="DejaVuSans-52"/>
       <path d="M 10.796875 72.90625 
L 49.515625 72.90625 
L 49.515625 64.59375 
L 19.828125 64.59375 
L 19.828125 46.734375 
Q 21.96875 47.46875 24.109375 47.828125 
Q 26.265625 48.1875 28.421875 48.1875 
Q 40.625 48.1875 47.75 41.5 
Q 54.890625 34.8125 54.890625 23.390625 
Q 54.890625 11.625 47.5625 5.09375 
Q 40.234375 -1.421875 26.90625 -1.421875 
Q 22.3125 -1.421875 17.546875 -0.640625 
Q 12.796875 0.140625 7.71875 1.703125 
L 7.71875 11.625 
Q 12.109375 9.234375 16.796875 8.0625 
Q 21.484375 6.890625 26.703125 6.890625 
Q 35.15625 6.890625 40.078125 11.328125 
Q 45.015625 15.765625 45.015625 23.390625 
Q 45.015625 31 40.078125 35.4375 
Q 35.15625 39.890625 26.703125 39.890625 
Q 22.75 39.890625 18.8125 39.015625 
Q 14.890625 38.140625 10.796875 36.28125 
z
" id="DejaVuSans-53"/>
       <path d="M 31.78125 66.40625 
Q 24.171875 66.40625 20.328125 58.90625 
Q 16.5 51.421875 16.5 36.375 
Q 16.5 21.390625 20.328125 13.890625 
Q 24.171875 6.390625 31.78125 6.390625 
Q 39.453125 6.390625 43.28125 13.890625 
Q 47.125 21.390625 47.125 36.375 
Q 47.125 51.421875 43.28125 58.90625 
Q 39.453125 66.40625 31.78125 66.40625 
z
M 31.78125 74.21875 
Q 44.046875 74.21875 50.515625 64.515625 
Q 56.984375 54.828125 56.984375 36.375 
Q 56.984375 17.96875 50.515625 8.265625 
Q 44.046875 -1.421875 31.78125 -1.421875 
Q 19.53125 -1.421875 13.0625 8.265625 
Q 6.59375 17.96875 6.59375 36.375 
Q 6.59375 54.828125 13.0625 64.515625 
Q 19.53125 74.21875 31.78125 74.21875 
z
" id="DejaVuSans-48"/>
      </defs>
      <g transform="translate(293.090773 268.978579)scale(0.1 -0.1)">
       <use xlink:href="#DejaVuSans-52"/>
       <use x="63.623047" xlink:href="#DejaVuSans-53"/>
       <use x="127.246094" xlink:href="#DejaVuSans-48"/>
      </g>
     </g>
    </g>
    <g id="xtick_2">
     <g id="line2d_2">
      <g>
       <use style="stroke:#000000;stroke-width:0.8;" x="240.506039" xlink:href="#mddbacf9650" y="254.380142"/>
      </g>
     </g>
     <g id="text_2">
      <!-- 460 -->
      <defs>
       <path d="M 33.015625 40.375 
Q 26.375 40.375 22.484375 35.828125 
Q 18.609375 31.296875 18.609375 23.390625 
Q 18.609375 15.53125 22.484375 10.953125 
Q 26.375 6.390625 33.015625 6.390625 
Q 39.65625 6.390625 43.53125 10.953125 
Q 47.40625 15.53125 47.40625 23.390625 
Q 47.40625 31.296875 43.53125 35.828125 
Q 39.65625 40.375 33.015625 40.375 
z
M 52.59375 71.296875 
L 52.59375 62.3125 
Q 48.875 64.0625 45.09375 64.984375 
Q 41.3125 65.921875 37.59375 65.921875 
Q 27.828125 65.921875 22.671875 59.328125 
Q 17.53125 52.734375 16.796875 39.40625 
Q 19.671875 43.65625 24.015625 45.921875 
Q 28.375 48.1875 33.59375 48.1875 
Q 44.578125 48.1875 50.953125 41.515625 
Q 57.328125 34.859375 57.328125 23.390625 
Q 57.328125 12.15625 50.6875 5.359375 
Q 44.046875 -1.421875 33.015625 -1.421875 
Q 20.359375 -1.421875 13.671875 8.265625 
Q 6.984375 17.96875 6.984375 36.375 
Q 6.984375 53.65625 15.1875 63.9375 
Q 23.390625 74.21875 37.203125 74.21875 
Q 40.921875 74.21875 44.703125 73.484375 
Q 48.484375 72.75 52.59375 71.296875 
z
" id="DejaVuSans-54"/>
      </defs>
      <g transform="translate(230.962289 268.978579)scale(0.1 -0.1)">
       <use xlink:href="#DejaVuSans-52"/>
       <use x="63.623047" xlink:href="#DejaVuSans-54"/>
       <use x="127.246094" xlink:href="#DejaVuSans-48"/>
      </g>
     </g>
    </g>
    <g id="xtick_3">
     <g id="line2d_3">
      <g>
       <use style="stroke:#000000;stroke-width:0.8;" x="178.377555" xlink:href="#mddbacf9650" y="254.380142"/>
      </g>
     </g>
     <g id="text_3">
      <!-- 470 -->
      <defs>
       <path d="M 8.203125 72.90625 
L 55.078125 72.90625 
L 55.078125 68.703125 
L 28.609375 0 
L 18.3125 0 
L 43.21875 64.59375 
L 8.203125 64.59375 
z
" id="DejaVuSans-55"/>
      </defs>
      <g transform="translate(168.833805 268.978579)scale(0.1 -0.1)">
       <use xlink:href="#DejaVuSans-52"/>
       <use x="63.623047" xlink:href="#DejaVuSans-55"/>
       <use x="127.246094" xlink:href="#DejaVuSans-48"/>
      </g>
     </g>
    </g>
    <g id="xtick_4">
     <g id="line2d_4">
      <g>
       <use style="stroke:#000000;stroke-width:0.8;" x="116.249071" xlink:href="#mddbacf9650" y="254.380142"/>
      </g>
     </g>
     <g id="text_4">
      <!-- 480 -->
      <defs>
       <path d="M 31.78125 34.625 
Q 24.75 34.625 20.71875 30.859375 
Q 16.703125 27.09375 16.703125 20.515625 
Q 16.703125 13.921875 20.71875 10.15625 
Q 24.75 6.390625 31.78125 6.390625 
Q 38.8125 6.390625 42.859375 10.171875 
Q 46.921875 13.96875 46.921875 20.515625 
Q 46.921875 27.09375 42.890625 30.859375 
Q 38.875 34.625 31.78125 34.625 
z
M 21.921875 38.8125 
Q 15.578125 40.375 12.03125 44.71875 
Q 8.5 49.078125 8.5 55.328125 
Q 8.5 64.0625 14.71875 69.140625 
Q 20.953125 74.21875 31.78125 74.21875 
Q 42.671875 74.21875 48.875 69.140625 
Q 55.078125 64.0625 55.078125 55.328125 
Q 55.078125 49.078125 51.53125 44.71875 
Q 48 40.375 41.703125 38.8125 
Q 48.828125 37.15625 52.796875 32.3125 
Q 56.78125 27.484375 56.78125 20.515625 
Q 56.78125 9.90625 50.3125 4.234375 
Q 43.84375 -1.421875 31.78125 -1.421875 
Q 19.734375 -1.421875 13.25 4.234375 
Q 6.78125 9.90625 6.78125 20.515625 
Q 6.78125 27.484375 10.78125 32.3125 
Q 14.796875 37.15625 21.921875 38.8125 
z
M 18.3125 54.390625 
Q 18.3125 48.734375 21.84375 45.5625 
Q 25.390625 42.390625 31.78125 42.390625 
Q 38.140625 42.390625 41.71875 45.5625 
Q 45.3125 48.734375 45.3125 54.390625 
Q 45.3125 60.0625 41.71875 63.234375 
Q 38.140625 66.40625 31.78125 66.40625 
Q 25.390625 66.40625 21.84375 63.234375 
Q 18.3125 60.0625 18.3125 54.390625 
z
" id="DejaVuSans-56"/>
      </defs>
      <g transform="translate(106.705321 268.978579)scale(0.1 -0.1)">
       <use xlink:href="#DejaVuSans-52"/>
       <use x="63.623047" xlink:href="#DejaVuSans-56"/>
       <use x="127.246094" xlink:href="#DejaVuSans-48"/>
      </g>
     </g>
    </g>
   </g>
   <g id="matplotlib.axis_2">
    <g id="ytick_1">
     <g id="line2d_5">
      <defs>
       <path d="M 0 0 
L -3.5 0 
" id="m201edc9a2c" style="stroke:#000000;stroke-width:0.8;"/>
      </defs>
      <g>
       <use style="stroke:#000000;stroke-width:0.8;" x="59.090865" xlink:href="#m201edc9a2c" y="221.003137"/>
      </g>
     </g>
     <g id="text_5">
      <!-- 0.7060 -->
      <defs>
       <path d="M 10.6875 12.40625 
L 21 12.40625 
L 21 0 
L 10.6875 0 
z
" id="DejaVuSans-46"/>
      </defs>
      <g transform="translate(17.10024 224.802356)scale(0.1 -0.1)">
       <use xlink:href="#DejaVuSans-48"/>
       <use x="63.623047" xlink:href="#DejaVuSans-46"/>
       <use x="95.410156" xlink:href="#DejaVuSans-55"/>
       <use x="159.033203" xlink:href="#DejaVuSans-48"/>
       <use x="222.65625" xlink:href="#DejaVuSans-54"/>
       <use x="286.279297" xlink:href="#DejaVuSans-48"/>
      </g>
     </g>
    </g>
    <g id="ytick_2">
     <g id="line2d_6">
      <g>
       <use style="stroke:#000000;stroke-width:0.8;" x="59.090865" xlink:href="#m201edc9a2c" y="185.302527"/>
      </g>
     </g>
     <g id="text_6">
      <!-- 0.7065 -->
      <g transform="translate(17.10024 189.101745)scale(0.1 -0.1)">
       <use xlink:href="#DejaVuSans-48"/>
       <use x="63.623047" xlink:href="#DejaVuSans-46"/>
       <use x="95.410156" xlink:href="#DejaVuSans-55"/>
       <use x="159.033203" xlink:href="#DejaVuSans-48"/>
       <use x="222.65625" xlink:href="#DejaVuSans-54"/>
       <use x="286.279297" xlink:href="#DejaVuSans-53"/>
      </g>
     </g>
    </g>
    <g id="ytick_3">
     <g id="line2d_7">
      <g>
       <use style="stroke:#000000;stroke-width:0.8;" x="59.090865" xlink:href="#m201edc9a2c" y="149.601917"/>
      </g>
     </g>
     <g id="text_7">
      <!-- 0.7070 -->
      <g transform="translate(17.10024 153.401135)scale(0.1 -0.1)">
       <use xlink:href="#DejaVuSans-48"/>
       <use x="63.623047" xlink:href="#DejaVuSans-46"/>
       <use x="95.410156" xlink:href="#DejaVuSans-55"/>
       <use x="159.033203" xlink:href="#DejaVuSans-48"/>
       <use x="222.65625" xlink:href="#DejaVuSans-55"/>
       <use x="286.279297" xlink:href="#DejaVuSans-48"/>
      </g>
     </g>
    </g>
    <g id="ytick_4">
     <g id="line2d_8">
      <g>
       <use style="stroke:#000000;stroke-width:0.8;" x="59.090865" xlink:href="#m201edc9a2c" y="113.901306"/>
      </g>
     </g>
     <g id="text_8">
      <!-- 0.7075 -->
      <g transform="translate(17.10024 117.700525)scale(0.1 -0.1)">
       <use xlink:href="#DejaVuSans-48"/>
       <use x="63.623047" xlink:href="#DejaVuSans-46"/>
       <use x="95.410156" xlink:href="#DejaVuSans-55"/>
       <use x="159.033203" xlink:href="#DejaVuSans-48"/>
       <use x="222.65625" xlink:href="#DejaVuSans-55"/>
       <use x="286.279297" xlink:href="#DejaVuSans-53"/>
      </g>
     </g>
    </g>
    <g id="ytick_5">
     <g id="line2d_9">
      <g>
       <use style="stroke:#000000;stroke-width:0.8;" x="59.090865" xlink:href="#m201edc9a2c" y="78.200696"/>
      </g>
     </g>
     <g id="text_9">
      <!-- 0.7080 -->
      <g transform="translate(17.10024 81.999915)scale(0.1 -0.1)">
       <use xlink:href="#DejaVuSans-48"/>
       <use x="63.623047" xlink:href="#DejaVuSans-46"/>
       <use x="95.410156" xlink:href="#DejaVuSans-55"/>
       <use x="159.033203" xlink:href="#DejaVuSans-48"/>
       <use x="222.65625" xlink:href="#DejaVuSans-56"/>
       <use x="286.279297" xlink:href="#DejaVuSans-48"/>
      </g>
     </g>
    </g>
    <g id="ytick_6">
     <g id="line2d_10">
      <g>
       <use style="stroke:#000000;stroke-width:0.8;" x="59.090865" xlink:href="#m201edc9a2c" y="42.500086"/>
      </g>
     </g>
     <g id="text_10">
      <!-- 0.7085 -->
      <g transform="translate(17.10024 46.299305)scale(0.1 -0.1)">
       <use xlink:href="#DejaVuSans-48"/>
       <use x="63.623047" xlink:href="#DejaVuSans-46"/>
       <use x="95.410156" xlink:href="#DejaVuSans-55"/>
       <use x="159.033203" xlink:href="#DejaVuSans-48"/>
       <use x="222.65625" xlink:href="#DejaVuSans-56"/>
       <use x="286.279297" xlink:href="#DejaVuSans-53"/>
      </g>
     </g>
    </g>
    <g id="ytick_7">
     <g id="line2d_11">
      <g>
       <use style="stroke:#000000;stroke-width:0.8;" x="59.090865" xlink:href="#m201edc9a2c" y="6.799476"/>
      </g>
     </g>
     <g id="text_11">
      <!-- 0.7090 -->
      <defs>
       <path d="M 10.984375 1.515625 
L 10.984375 10.5 
Q 14.703125 8.734375 18.5 7.8125 
Q 22.3125 6.890625 25.984375 6.890625 
Q 35.75 6.890625 40.890625 13.453125 
Q 46.046875 20.015625 46.78125 33.40625 
Q 43.953125 29.203125 39.59375 26.953125 
Q 35.25 24.703125 29.984375 24.703125 
Q 19.046875 24.703125 12.671875 31.3125 
Q 6.296875 37.9375 6.296875 49.421875 
Q 6.296875 60.640625 12.9375 67.421875 
Q 19.578125 74.21875 30.609375 74.21875 
Q 43.265625 74.21875 49.921875 64.515625 
Q 56.59375 54.828125 56.59375 36.375 
Q 56.59375 19.140625 48.40625 8.859375 
Q 40.234375 -1.421875 26.421875 -1.421875 
Q 22.703125 -1.421875 18.890625 -0.6875 
Q 15.09375 0.046875 10.984375 1.515625 
z
M 30.609375 32.421875 
Q 37.25 32.421875 41.125 36.953125 
Q 45.015625 41.5 45.015625 49.421875 
Q 45.015625 57.28125 41.125 61.84375 
Q 37.25 66.40625 30.609375 66.40625 
Q 23.96875 66.40625 20.09375 61.84375 
Q 16.21875 57.28125 16.21875 49.421875 
Q 16.21875 41.5 20.09375 36.953125 
Q 23.96875 32.421875 30.609375 32.421875 
z
" id="DejaVuSans-57"/>
      </defs>
      <g transform="translate(17.10024 10.598695)scale(0.1 -0.1)">
       <use xlink:href="#DejaVuSans-48"/>
       <use x="63.623047" xlink:href="#DejaVuSans-46"/>
       <use x="95.410156" xlink:href="#DejaVuSans-55"/>
       <use x="159.033203" xlink:href="#DejaVuSans-48"/>
       <use x="222.65625" xlink:href="#DejaVuSans-57"/>
       <use x="286.279297" xlink:href="#DejaVuSans-48"/>
      </g>
     </g>
    </g>
    <g id="text_12">
     <!-- Seawater $^{87}Sr/^{86}Sr$ -->
     <defs>
      <path d="M 53.515625 70.515625 
L 53.515625 60.890625 
Q 47.90625 63.578125 42.921875 64.890625 
Q 37.9375 66.21875 33.296875 66.21875 
Q 25.25 66.21875 20.875 63.09375 
Q 16.5 59.96875 16.5 54.203125 
Q 16.5 49.359375 19.40625 46.890625 
Q 22.3125 44.4375 30.421875 42.921875 
L 36.375 41.703125 
Q 47.40625 39.59375 52.65625 34.296875 
Q 57.90625 29 57.90625 20.125 
Q 57.90625 9.515625 50.796875 4.046875 
Q 43.703125 -1.421875 29.984375 -1.421875 
Q 24.8125 -1.421875 18.96875 -0.25 
Q 13.140625 0.921875 6.890625 3.21875 
L 6.890625 13.375 
Q 12.890625 10.015625 18.65625 8.296875 
Q 24.421875 6.59375 29.984375 6.59375 
Q 38.421875 6.59375 43.015625 9.90625 
Q 47.609375 13.234375 47.609375 19.390625 
Q 47.609375 24.75 44.3125 27.78125 
Q 41.015625 30.8125 33.5 32.328125 
L 27.484375 33.5 
Q 16.453125 35.6875 11.515625 40.375 
Q 6.59375 45.0625 6.59375 53.421875 
Q 6.59375 63.09375 13.40625 68.65625 
Q 20.21875 74.21875 32.171875 74.21875 
Q 37.3125 74.21875 42.625 73.28125 
Q 47.953125 72.359375 53.515625 70.515625 
z
" id="DejaVuSans-83"/>
      <path d="M 56.203125 29.59375 
L 56.203125 25.203125 
L 14.890625 25.203125 
Q 15.484375 15.921875 20.484375 11.0625 
Q 25.484375 6.203125 34.421875 6.203125 
Q 39.59375 6.203125 44.453125 7.46875 
Q 49.3125 8.734375 54.109375 11.28125 
L 54.109375 2.78125 
Q 49.265625 0.734375 44.1875 -0.34375 
Q 39.109375 -1.421875 33.890625 -1.421875 
Q 20.796875 -1.421875 13.15625 6.1875 
Q 5.515625 13.8125 5.515625 26.8125 
Q 5.515625 40.234375 12.765625 48.109375 
Q 20.015625 56 32.328125 56 
Q 43.359375 56 49.78125 48.890625 
Q 56.203125 41.796875 56.203125 29.59375 
z
M 47.21875 32.234375 
Q 47.125 39.59375 43.09375 43.984375 
Q 39.0625 48.390625 32.421875 48.390625 
Q 24.90625 48.390625 20.390625 44.140625 
Q 15.875 39.890625 15.1875 32.171875 
z
" id="DejaVuSans-101"/>
      <path d="M 34.28125 27.484375 
Q 23.390625 27.484375 19.1875 25 
Q 14.984375 22.515625 14.984375 16.5 
Q 14.984375 11.71875 18.140625 8.90625 
Q 21.296875 6.109375 26.703125 6.109375 
Q 34.1875 6.109375 38.703125 11.40625 
Q 43.21875 16.703125 43.21875 25.484375 
L 43.21875 27.484375 
z
M 52.203125 31.203125 
L 52.203125 0 
L 43.21875 0 
L 43.21875 8.296875 
Q 40.140625 3.328125 35.546875 0.953125 
Q 30.953125 -1.421875 24.3125 -1.421875 
Q 15.921875 -1.421875 10.953125 3.296875 
Q 6 8.015625 6 15.921875 
Q 6 25.140625 12.171875 29.828125 
Q 18.359375 34.515625 30.609375 34.515625 
L 43.21875 34.515625 
L 43.21875 35.40625 
Q 43.21875 41.609375 39.140625 45 
Q 35.0625 48.390625 27.6875 48.390625 
Q 23 48.390625 18.546875 47.265625 
Q 14.109375 46.140625 10.015625 43.890625 
L 10.015625 52.203125 
Q 14.9375 54.109375 19.578125 55.046875 
Q 24.21875 56 28.609375 56 
Q 40.484375 56 46.34375 49.84375 
Q 52.203125 43.703125 52.203125 31.203125 
z
" id="DejaVuSans-97"/>
      <path d="M 4.203125 54.6875 
L 13.1875 54.6875 
L 24.421875 12.015625 
L 35.59375 54.6875 
L 46.1875 54.6875 
L 57.421875 12.015625 
L 68.609375 54.6875 
L 77.59375 54.6875 
L 63.28125 0 
L 52.6875 0 
L 40.921875 44.828125 
L 29.109375 0 
L 18.5 0 
z
" id="DejaVuSans-119"/>
      <path d="M 18.3125 70.21875 
L 18.3125 54.6875 
L 36.8125 54.6875 
L 36.8125 47.703125 
L 18.3125 47.703125 
L 18.3125 18.015625 
Q 18.3125 11.328125 20.140625 9.421875 
Q 21.96875 7.515625 27.59375 7.515625 
L 36.8125 7.515625 
L 36.8125 0 
L 27.59375 0 
Q 17.1875 0 13.234375 3.875 
Q 9.28125 7.765625 9.28125 18.015625 
L 9.28125 47.703125 
L 2.6875 47.703125 
L 2.6875 54.6875 
L 9.28125 54.6875 
L 9.28125 70.21875 
z
" id="DejaVuSans-116"/>
      <path d="M 41.109375 46.296875 
Q 39.59375 47.171875 37.8125 47.578125 
Q 36.03125 48 33.890625 48 
Q 26.265625 48 22.1875 43.046875 
Q 18.109375 38.09375 18.109375 28.8125 
L 18.109375 0 
L 9.078125 0 
L 9.078125 54.6875 
L 18.109375 54.6875 
L 18.109375 46.1875 
Q 20.953125 51.171875 25.484375 53.578125 
Q 30.03125 56 36.53125 56 
Q 37.453125 56 38.578125 55.875 
Q 39.703125 55.765625 41.0625 55.515625 
z
" id="DejaVuSans-114"/>
      <path id="DejaVuSans-32"/>
      <path d="M 60.296875 70.515625 
L 58.40625 60.890625 
Q 53.46875 63.53125 48.609375 64.875 
Q 43.75 66.21875 39.203125 66.21875 
Q 30.375 66.21875 25.140625 62.359375 
Q 19.921875 58.5 19.921875 52.09375 
Q 19.921875 48.578125 21.84375 46.703125 
Q 23.78125 44.828125 31.78125 42.671875 
L 37.703125 41.21875 
Q 47.703125 38.625 51.609375 34.640625 
Q 55.515625 30.671875 55.515625 23.484375 
Q 55.515625 12.453125 46.84375 5.515625 
Q 38.1875 -1.421875 24.03125 -1.421875 
Q 18.21875 -1.421875 12.359375 -0.265625 
Q 6.5 0.875 0.59375 3.21875 
L 2.59375 13.375 
Q 8.015625 10.015625 13.453125 8.296875 
Q 18.890625 6.59375 24.3125 6.59375 
Q 33.546875 6.59375 39.109375 10.6875 
Q 44.671875 14.796875 44.671875 21.390625 
Q 44.671875 25.78125 42.453125 28.046875 
Q 40.234375 30.328125 32.90625 32.171875 
L 27 33.6875 
Q 16.890625 36.328125 13.203125 39.765625 
Q 9.515625 43.21875 9.515625 49.421875 
Q 9.515625 60.296875 17.890625 67.25 
Q 26.265625 74.21875 39.703125 74.21875 
Q 44.921875 74.21875 50.046875 73.28125 
Q 55.171875 72.359375 60.296875 70.515625 
z
" id="DejaVuSans-Oblique-83"/>
      <path d="M 44.578125 46.390625 
Q 43.21875 47.125 41.453125 47.515625 
Q 39.703125 47.90625 37.703125 47.90625 
Q 30.515625 47.90625 25.140625 42.453125 
Q 19.78125 37.015625 18.015625 27.875 
L 12.5 0 
L 3.515625 0 
L 14.203125 54.6875 
L 23.1875 54.6875 
L 21.484375 46.1875 
Q 25.046875 50.921875 30 53.453125 
Q 34.96875 56 40.578125 56 
Q 42.046875 56 43.453125 55.828125 
Q 44.875 55.671875 46.296875 55.28125 
z
" id="DejaVuSans-Oblique-114"/>
      <path d="M 25.390625 72.90625 
L 33.6875 72.90625 
L 8.296875 -9.28125 
L 0 -9.28125 
z
" id="DejaVuSans-47"/>
     </defs>
     <g transform="translate(11.020552 176.366979)rotate(-90)scale(0.1 -0.1)">
      <use transform="translate(0 0.765625)" xlink:href="#DejaVuSans-83"/>
      <use transform="translate(63.476562 0.765625)" xlink:href="#DejaVuSans-101"/>
      <use transform="translate(125 0.765625)" xlink:href="#DejaVuSans-97"/>
      <use transform="translate(186.279297 0.765625)" xlink:href="#DejaVuSans-119"/>
      <use transform="translate(268.066406 0.765625)" xlink:href="#DejaVuSans-97"/>
      <use transform="translate(329.345703 0.765625)" xlink:href="#DejaVuSans-116"/>
      <use transform="translate(368.554688 0.765625)" xlink:href="#DejaVuSans-101"/>
      <use transform="translate(430.078125 0.765625)" xlink:href="#DejaVuSans-114"/>
      <use transform="translate(471.191406 0.765625)" xlink:href="#DejaVuSans-32"/>
      <use transform="translate(503.935547 39.046875)scale(0.7)" xlink:href="#DejaVuSans-56"/>
      <use transform="translate(548.47168 39.046875)scale(0.7)" xlink:href="#DejaVuSans-55"/>
      <use transform="translate(595.742188 0.765625)" xlink:href="#DejaVuSans-Oblique-83"/>
      <use transform="translate(659.21875 0.765625)" xlink:href="#DejaVuSans-Oblique-114"/>
      <use transform="translate(700.332031 0.765625)" xlink:href="#DejaVuSans-47"/>
      <use transform="translate(734.980469 39.046875)scale(0.7)" xlink:href="#DejaVuSans-56"/>
      <use transform="translate(779.516602 39.046875)scale(0.7)" xlink:href="#DejaVuSans-54"/>
      <use transform="translate(826.787109 0.765625)" xlink:href="#DejaVuSans-Oblique-83"/>
      <use transform="translate(890.263672 0.765625)" xlink:href="#DejaVuSans-Oblique-114"/>
     </g>
    </g>
   </g>
   <g id="line2d_12">
    <path clip-path="url(#p0fc1c109bc)" d="M 72.759132 135.785043 
L 75.749778 135.89613 
L 79.049331 136.245324 
L 82.745267 136.864949 
L 86.960602 137.802937 
L 91.886695 139.133941 
L 97.857054 140.986523 
L 105.563299 143.623532 
L 117.159573 147.851586 
L 152.577139 160.877442 
L 168.858941 166.56389 
L 184.952119 171.948404 
L 201.324132 177.190923 
L 218.144469 182.342575 
L 235.489673 187.42144 
L 238.688079 188.452493 
L 240.068588 189.218413 
L 241.593982 190.326672 
L 243.302532 191.852112 
L 245.243445 193.893673 
L 247.493265 196.595537 
L 250.177739 200.182599 
L 253.562036 205.097308 
L 258.551003 212.777249 
L 269.204156 229.242302 
L 270.890837 231.414811 
L 272.634925 233.302647 
L 274.452823 234.945333 
L 276.369133 236.378399 
L 278.413926 237.629503 
L 280.625474 238.720235 
L 283.052982 239.666874 
L 285.767527 240.482952 
L 288.867521 241.177554 
L 292.497849 241.75663 
L 296.893608 242.224552 
L 302.475783 242.584596 
L 310.10822 242.839363 
L 322.062605 242.992495 
L 346.124462 243.051673 
L 346.124462 243.051673 
" style="fill:none;stroke:#800000;stroke-linecap:square;stroke-width:1.5;"/>
   </g>
   <g id="line2d_13">
    <path clip-path="url(#p0fc1c109bc)" d="M 72.759132 135.785043 
L 75.306922 135.896143 
L 78.174553 136.251417 
L 81.714669 136.927481 
L 86.342791 138.045034 
L 93.248068 139.959505 
L 103.441963 143.024672 
L 115.005432 146.724902 
L 130.314044 151.571737 
L 135.614651 152.955295 
L 140.712965 154.05429 
L 146.04911 154.966652 
L 151.603949 155.690444 
L 158.049968 156.295446 
L 164.474117 156.68099 
L 169.905941 156.788184 
L 175.009722 156.661497 
L 180.302128 156.316109 
L 188.114987 155.569301 
L 197.368496 154.700066 
L 205.170421 154.213005 
L 211.479756 154.020279 
L 215.897384 154.096295 
L 219.702667 154.387428 
L 223.458744 154.894579 
L 226.372848 155.505441 
L 228.655471 156.233009 
L 230.962698 157.205128 
L 233.532358 158.535101 
L 236.52027 160.342379 
L 240.875024 163.273151 
L 249.682943 169.224508 
L 253.310537 171.364791 
L 256.779578 173.159403 
L 260.002587 174.580343 
L 263.088913 175.697344 
L 266.470476 176.682743 
L 269.835636 177.429185 
L 273.367552 177.981649 
L 277.181036 178.345998 
L 281.040993 178.50027 
L 285.466822 178.440171 
L 290.182422 178.147252 
L 295.02377 177.633155 
L 299.744836 176.916285 
L 303.932835 176.055711 
L 308.057959 174.988434 
L 311.68282 173.811971 
L 314.851156 172.56505 
L 317.672314 171.228804 
L 320.269311 169.763175 
L 322.770628 168.091685 
L 325.217273 166.176826 
L 327.650248 163.982355 
L 330.271848 161.312622 
L 333.128544 158.078769 
L 336.225805 154.229523 
L 340.59696 148.379413 
L 346.124462 141.012264 
L 346.124462 141.012264 
" style="fill:none;stroke:#4682b4;stroke-linecap:square;stroke-width:1.5;"/>
   </g>
   <g id="line2d_14">
    <path clip-path="url(#p0fc1c109bc)" d="M 176.5137 23.262455 
L 180.226256 23.770118 
L 181.520616 23.946479 
L 182.5696 24.087853 
L 183.576622 24.221374 
L 184.415803 24.329903 
L 190.532409 25.06605 
L 198.319512 25.928577 
L 207.522455 27.003165 
L 215.841031 28.190567 
L 216.265573 28.257685 
L 218.388299 28.555428 
L 221.360109 28.951704 
L 225.181011 29.652864 
L 234.226626 31.603546 
L 235.668895 32.029097 
L 236.556444 32.328268 
L 238.331542 33.032998 
L 238.997205 33.337881 
L 239.551926 33.5885 
L 240.10664 33.824124 
L 240.66136 34.067602 
L 241.216081 34.340355 
L 245.210054 36.785132 
L 248.520613 39.264897 
L 250.216721 40.680069 
L 255.062743 45.196196 
L 255.256584 45.390407 
L 256.419629 46.579952 
L 258.212657 48.49636 
L 259.545313 49.977936 
L 260.344907 50.886873 
L 260.635668 51.221031 
L 261.847173 52.635489 
L 263.058679 54.08779 
L 271.054615 64.657313 
L 274.689131 70.037395 
" style="fill:none;stroke:#6b8e23;stroke-linecap:square;stroke-width:1.5;"/>
   </g>
   <g id="patch_3">
    <path d="M 59.090865 254.380142 
L 59.090865 5.153816 
" style="fill:none;stroke:#000000;stroke-linecap:square;stroke-linejoin:miter;stroke-width:0.8;"/>
   </g>
   <g id="patch_4">
    <path d="M 359.792729 254.380142 
L 359.792729 5.153816 
" style="fill:none;stroke:#000000;stroke-linecap:square;stroke-linejoin:miter;stroke-width:0.8;"/>
   </g>
   <g id="patch_5">
    <path d="M 59.090865 254.380142 
L 359.792729 254.380142 
" style="fill:none;stroke:#000000;stroke-linecap:square;stroke-linejoin:miter;stroke-width:0.8;"/>
   </g>
   <g id="patch_6">
    <path d="M 59.090865 5.153816 
L 359.792729 5.153816 
" style="fill:none;stroke:#000000;stroke-linecap:square;stroke-linejoin:miter;stroke-width:0.8;"/>
   </g>
   <g id="legend_1">
    <g id="patch_7">
     <path d="M 66.090865 249.380142 
L 187.065865 249.380142 
Q 189.065865 249.380142 189.065865 247.380142 
L 189.065865 189.667642 
Q 189.065865 187.667642 187.065865 187.667642 
L 66.090865 187.667642 
Q 64.090865 187.667642 64.090865 189.667642 
L 64.090865 247.380142 
Q 64.090865 249.380142 66.090865 249.380142 
z
" style="fill:#ffffff;opacity:0.8;"/>
    </g>
    <g id="line2d_15">
     <path d="M 68.090865 195.766079 
L 88.090865 195.766079 
" style="fill:none;stroke:#800000;stroke-linecap:square;stroke-width:1.5;"/>
    </g>
    <g id="line2d_16"/>
    <g id="text_13">
     <!-- Standard Model -->
     <defs>
      <path d="M 54.890625 33.015625 
L 54.890625 0 
L 45.90625 0 
L 45.90625 32.71875 
Q 45.90625 40.484375 42.875 44.328125 
Q 39.84375 48.1875 33.796875 48.1875 
Q 26.515625 48.1875 22.3125 43.546875 
Q 18.109375 38.921875 18.109375 30.90625 
L 18.109375 0 
L 9.078125 0 
L 9.078125 54.6875 
L 18.109375 54.6875 
L 18.109375 46.1875 
Q 21.34375 51.125 25.703125 53.5625 
Q 30.078125 56 35.796875 56 
Q 45.21875 56 50.046875 50.171875 
Q 54.890625 44.34375 54.890625 33.015625 
z
" id="DejaVuSans-110"/>
      <path d="M 45.40625 46.390625 
L 45.40625 75.984375 
L 54.390625 75.984375 
L 54.390625 0 
L 45.40625 0 
L 45.40625 8.203125 
Q 42.578125 3.328125 38.25 0.953125 
Q 33.9375 -1.421875 27.875 -1.421875 
Q 17.96875 -1.421875 11.734375 6.484375 
Q 5.515625 14.40625 5.515625 27.296875 
Q 5.515625 40.1875 11.734375 48.09375 
Q 17.96875 56 27.875 56 
Q 33.9375 56 38.25 53.625 
Q 42.578125 51.265625 45.40625 46.390625 
z
M 14.796875 27.296875 
Q 14.796875 17.390625 18.875 11.75 
Q 22.953125 6.109375 30.078125 6.109375 
Q 37.203125 6.109375 41.296875 11.75 
Q 45.40625 17.390625 45.40625 27.296875 
Q 45.40625 37.203125 41.296875 42.84375 
Q 37.203125 48.484375 30.078125 48.484375 
Q 22.953125 48.484375 18.875 42.84375 
Q 14.796875 37.203125 14.796875 27.296875 
z
" id="DejaVuSans-100"/>
      <path d="M 9.8125 72.90625 
L 24.515625 72.90625 
L 43.109375 23.296875 
L 61.8125 72.90625 
L 76.515625 72.90625 
L 76.515625 0 
L 66.890625 0 
L 66.890625 64.015625 
L 48.09375 14.015625 
L 38.1875 14.015625 
L 19.390625 64.015625 
L 19.390625 0 
L 9.8125 0 
z
" id="DejaVuSans-77"/>
      <path d="M 30.609375 48.390625 
Q 23.390625 48.390625 19.1875 42.75 
Q 14.984375 37.109375 14.984375 27.296875 
Q 14.984375 17.484375 19.15625 11.84375 
Q 23.34375 6.203125 30.609375 6.203125 
Q 37.796875 6.203125 41.984375 11.859375 
Q 46.1875 17.53125 46.1875 27.296875 
Q 46.1875 37.015625 41.984375 42.703125 
Q 37.796875 48.390625 30.609375 48.390625 
z
M 30.609375 56 
Q 42.328125 56 49.015625 48.375 
Q 55.71875 40.765625 55.71875 27.296875 
Q 55.71875 13.875 49.015625 6.21875 
Q 42.328125 -1.421875 30.609375 -1.421875 
Q 18.84375 -1.421875 12.171875 6.21875 
Q 5.515625 13.875 5.515625 27.296875 
Q 5.515625 40.765625 12.171875 48.375 
Q 18.84375 56 30.609375 56 
z
" id="DejaVuSans-111"/>
      <path d="M 9.421875 75.984375 
L 18.40625 75.984375 
L 18.40625 0 
L 9.421875 0 
z
" id="DejaVuSans-108"/>
     </defs>
     <g transform="translate(96.090865 199.266079)scale(0.1 -0.1)">
      <use xlink:href="#DejaVuSans-83"/>
      <use x="63.476562" xlink:href="#DejaVuSans-116"/>
      <use x="102.685547" xlink:href="#DejaVuSans-97"/>
      <use x="163.964844" xlink:href="#DejaVuSans-110"/>
      <use x="227.34375" xlink:href="#DejaVuSans-100"/>
      <use x="290.820312" xlink:href="#DejaVuSans-97"/>
      <use x="352.099609" xlink:href="#DejaVuSans-114"/>
      <use x="393.197266" xlink:href="#DejaVuSans-100"/>
      <use x="456.673828" xlink:href="#DejaVuSans-32"/>
      <use x="488.460938" xlink:href="#DejaVuSans-77"/>
      <use x="574.740234" xlink:href="#DejaVuSans-111"/>
      <use x="635.921875" xlink:href="#DejaVuSans-100"/>
      <use x="699.398438" xlink:href="#DejaVuSans-101"/>
      <use x="760.921875" xlink:href="#DejaVuSans-108"/>
     </g>
    </g>
    <g id="line2d_17">
     <path d="M 68.090865 210.444204 
L 88.090865 210.444204 
" style="fill:none;stroke:#4682b4;stroke-linecap:square;stroke-width:1.5;"/>
    </g>
    <g id="line2d_18"/>
    <g id="text_14">
     <!-- Sea Level Model -->
     <defs>
      <path d="M 9.8125 72.90625 
L 19.671875 72.90625 
L 19.671875 8.296875 
L 55.171875 8.296875 
L 55.171875 0 
L 9.8125 0 
z
" id="DejaVuSans-76"/>
      <path d="M 2.984375 54.6875 
L 12.5 54.6875 
L 29.59375 8.796875 
L 46.6875 54.6875 
L 56.203125 54.6875 
L 35.6875 0 
L 23.484375 0 
z
" id="DejaVuSans-118"/>
     </defs>
     <g transform="translate(96.090865 213.944204)scale(0.1 -0.1)">
      <use xlink:href="#DejaVuSans-83"/>
      <use x="63.476562" xlink:href="#DejaVuSans-101"/>
      <use x="125" xlink:href="#DejaVuSans-97"/>
      <use x="186.279297" xlink:href="#DejaVuSans-32"/>
      <use x="218.066406" xlink:href="#DejaVuSans-76"/>
      <use x="273.763672" xlink:href="#DejaVuSans-101"/>
      <use x="335.287109" xlink:href="#DejaVuSans-118"/>
      <use x="394.466797" xlink:href="#DejaVuSans-101"/>
      <use x="455.990234" xlink:href="#DejaVuSans-108"/>
      <use x="483.773438" xlink:href="#DejaVuSans-32"/>
      <use x="515.560547" xlink:href="#DejaVuSans-77"/>
      <use x="601.839844" xlink:href="#DejaVuSans-111"/>
      <use x="663.021484" xlink:href="#DejaVuSans-100"/>
      <use x="726.498047" xlink:href="#DejaVuSans-101"/>
      <use x="788.021484" xlink:href="#DejaVuSans-108"/>
     </g>
    </g>
    <g id="line2d_19">
     <path d="M 68.090865 225.122329 
L 88.090865 225.122329 
" style="fill:none;stroke:#6b8e23;stroke-linecap:square;stroke-width:1.5;"/>
    </g>
    <g id="line2d_20"/>
    <g id="text_15">
     <!-- LOESS Curve -->
     <defs>
      <path d="M 39.40625 66.21875 
Q 28.65625 66.21875 22.328125 58.203125 
Q 16.015625 50.203125 16.015625 36.375 
Q 16.015625 22.609375 22.328125 14.59375 
Q 28.65625 6.59375 39.40625 6.59375 
Q 50.140625 6.59375 56.421875 14.59375 
Q 62.703125 22.609375 62.703125 36.375 
Q 62.703125 50.203125 56.421875 58.203125 
Q 50.140625 66.21875 39.40625 66.21875 
z
M 39.40625 74.21875 
Q 54.734375 74.21875 63.90625 63.9375 
Q 73.09375 53.65625 73.09375 36.375 
Q 73.09375 19.140625 63.90625 8.859375 
Q 54.734375 -1.421875 39.40625 -1.421875 
Q 24.03125 -1.421875 14.8125 8.828125 
Q 5.609375 19.09375 5.609375 36.375 
Q 5.609375 53.65625 14.8125 63.9375 
Q 24.03125 74.21875 39.40625 74.21875 
z
" id="DejaVuSans-79"/>
      <path d="M 9.8125 72.90625 
L 55.90625 72.90625 
L 55.90625 64.59375 
L 19.671875 64.59375 
L 19.671875 43.015625 
L 54.390625 43.015625 
L 54.390625 34.71875 
L 19.671875 34.71875 
L 19.671875 8.296875 
L 56.78125 8.296875 
L 56.78125 0 
L 9.8125 0 
z
" id="DejaVuSans-69"/>
      <path d="M 64.40625 67.28125 
L 64.40625 56.890625 
Q 59.421875 61.53125 53.78125 63.8125 
Q 48.140625 66.109375 41.796875 66.109375 
Q 29.296875 66.109375 22.65625 58.46875 
Q 16.015625 50.828125 16.015625 36.375 
Q 16.015625 21.96875 22.65625 14.328125 
Q 29.296875 6.6875 41.796875 6.6875 
Q 48.140625 6.6875 53.78125 8.984375 
Q 59.421875 11.28125 64.40625 15.921875 
L 64.40625 5.609375 
Q 59.234375 2.09375 53.4375 0.328125 
Q 47.65625 -1.421875 41.21875 -1.421875 
Q 24.65625 -1.421875 15.125 8.703125 
Q 5.609375 18.84375 5.609375 36.375 
Q 5.609375 53.953125 15.125 64.078125 
Q 24.65625 74.21875 41.21875 74.21875 
Q 47.75 74.21875 53.53125 72.484375 
Q 59.328125 70.75 64.40625 67.28125 
z
" id="DejaVuSans-67"/>
      <path d="M 8.5 21.578125 
L 8.5 54.6875 
L 17.484375 54.6875 
L 17.484375 21.921875 
Q 17.484375 14.15625 20.5 10.265625 
Q 23.53125 6.390625 29.59375 6.390625 
Q 36.859375 6.390625 41.078125 11.03125 
Q 45.3125 15.671875 45.3125 23.6875 
L 45.3125 54.6875 
L 54.296875 54.6875 
L 54.296875 0 
L 45.3125 0 
L 45.3125 8.40625 
Q 42.046875 3.421875 37.71875 1 
Q 33.40625 -1.421875 27.6875 -1.421875 
Q 18.265625 -1.421875 13.375 4.4375 
Q 8.5 10.296875 8.5 21.578125 
z
M 31.109375 56 
z
" id="DejaVuSans-117"/>
     </defs>
     <g transform="translate(96.090865 228.622329)scale(0.1 -0.1)">
      <use xlink:href="#DejaVuSans-76"/>
      <use x="55.666016" xlink:href="#DejaVuSans-79"/>
      <use x="134.376953" xlink:href="#DejaVuSans-69"/>
      <use x="197.560547" xlink:href="#DejaVuSans-83"/>
      <use x="261.037109" xlink:href="#DejaVuSans-83"/>
      <use x="324.513672" xlink:href="#DejaVuSans-32"/>
      <use x="356.300781" xlink:href="#DejaVuSans-67"/>
      <use x="426.125" xlink:href="#DejaVuSans-117"/>
      <use x="489.503906" xlink:href="#DejaVuSans-114"/>
      <use x="530.617188" xlink:href="#DejaVuSans-118"/>
      <use x="589.796875" xlink:href="#DejaVuSans-101"/>
     </g>
    </g>
    <g id="PathCollection_2">
     <g>
      <use style="fill:#6b8e23;fill-opacity:0.4;stroke:#6b8e23;stroke-opacity:0.4;" x="78.090865" xlink:href="#mc49889c0f4" y="240.675454"/>
     </g>
    </g>
    <g id="text_16">
     <!-- Sr Conodont Data -->
     <defs>
      <path d="M 19.671875 64.796875 
L 19.671875 8.109375 
L 31.59375 8.109375 
Q 46.6875 8.109375 53.6875 14.9375 
Q 60.6875 21.78125 60.6875 36.53125 
Q 60.6875 51.171875 53.6875 57.984375 
Q 46.6875 64.796875 31.59375 64.796875 
z
M 9.8125 72.90625 
L 30.078125 72.90625 
Q 51.265625 72.90625 61.171875 64.09375 
Q 71.09375 55.28125 71.09375 36.53125 
Q 71.09375 17.671875 61.125 8.828125 
Q 51.171875 0 30.078125 0 
L 9.8125 0 
z
" id="DejaVuSans-68"/>
     </defs>
     <g transform="translate(96.090865 243.300454)scale(0.1 -0.1)">
      <use xlink:href="#DejaVuSans-83"/>
      <use x="63.476562" xlink:href="#DejaVuSans-114"/>
      <use x="104.589844" xlink:href="#DejaVuSans-32"/>
      <use x="136.376953" xlink:href="#DejaVuSans-67"/>
      <use x="206.201172" xlink:href="#DejaVuSans-111"/>
      <use x="267.382812" xlink:href="#DejaVuSans-110"/>
      <use x="330.761719" xlink:href="#DejaVuSans-111"/>
      <use x="391.943359" xlink:href="#DejaVuSans-100"/>
      <use x="455.419922" xlink:href="#DejaVuSans-111"/>
      <use x="516.601562" xlink:href="#DejaVuSans-110"/>
      <use x="579.980469" xlink:href="#DejaVuSans-116"/>
      <use x="619.189453" xlink:href="#DejaVuSans-32"/>
      <use x="650.976562" xlink:href="#DejaVuSans-68"/>
      <use x="727.978516" xlink:href="#DejaVuSans-97"/>
      <use x="789.257812" xlink:href="#DejaVuSans-116"/>
      <use x="828.466797" xlink:href="#DejaVuSans-97"/>
     </g>
    </g>
   </g>
  </g>
  <g id="axes_2">
   <g id="patch_8">
    <path d="M 416.297896 254.380142 
L 716.99976 254.380142 
L 716.99976 5.153816 
L 416.297896 5.153816 
z
" style="fill:#ffffff;"/>
   </g>
   <g id="matplotlib.axis_3">
    <g id="xtick_5">
     <g id="line2d_21">
      <g>
       <use style="stroke:#000000;stroke-width:0.8;" x="659.841554" xlink:href="#mddbacf9650" y="254.380142"/>
      </g>
     </g>
     <g id="text_17">
      <!-- 450 -->
      <g transform="translate(650.297804 268.978579)scale(0.1 -0.1)">
       <use xlink:href="#DejaVuSans-52"/>
       <use x="63.623047" xlink:href="#DejaVuSans-53"/>
       <use x="127.246094" xlink:href="#DejaVuSans-48"/>
      </g>
     </g>
    </g>
    <g id="xtick_6">
     <g id="line2d_22">
      <g>
       <use style="stroke:#000000;stroke-width:0.8;" x="597.71307" xlink:href="#mddbacf9650" y="254.380142"/>
      </g>
     </g>
     <g id="text_18">
      <!-- 460 -->
      <g transform="translate(588.16932 268.978579)scale(0.1 -0.1)">
       <use xlink:href="#DejaVuSans-52"/>
       <use x="63.623047" xlink:href="#DejaVuSans-54"/>
       <use x="127.246094" xlink:href="#DejaVuSans-48"/>
      </g>
     </g>
    </g>
    <g id="xtick_7">
     <g id="line2d_23">
      <g>
       <use style="stroke:#000000;stroke-width:0.8;" x="535.584586" xlink:href="#mddbacf9650" y="254.380142"/>
      </g>
     </g>
     <g id="text_19">
      <!-- 470 -->
      <g transform="translate(526.040836 268.978579)scale(0.1 -0.1)">
       <use xlink:href="#DejaVuSans-52"/>
       <use x="63.623047" xlink:href="#DejaVuSans-55"/>
       <use x="127.246094" xlink:href="#DejaVuSans-48"/>
      </g>
     </g>
    </g>
    <g id="xtick_8">
     <g id="line2d_24">
      <g>
       <use style="stroke:#000000;stroke-width:0.8;" x="473.456102" xlink:href="#mddbacf9650" y="254.380142"/>
      </g>
     </g>
     <g id="text_20">
      <!-- 480 -->
      <g transform="translate(463.912352 268.978579)scale(0.1 -0.1)">
       <use xlink:href="#DejaVuSans-52"/>
       <use x="63.623047" xlink:href="#DejaVuSans-56"/>
       <use x="127.246094" xlink:href="#DejaVuSans-48"/>
      </g>
     </g>
    </g>
   </g>
   <g id="matplotlib.axis_4">
    <g id="ytick_8">
     <g id="line2d_25">
      <g>
       <use style="stroke:#000000;stroke-width:0.8;" x="416.297896" xlink:href="#m201edc9a2c" y="218.460182"/>
      </g>
     </g>
     <g id="text_21">
      <!-- −10 -->
      <defs>
       <path d="M 10.59375 35.5 
L 73.1875 35.5 
L 73.1875 27.203125 
L 10.59375 27.203125 
z
" id="DejaVuSans-8722"/>
       <path d="M 12.40625 8.296875 
L 28.515625 8.296875 
L 28.515625 63.921875 
L 10.984375 60.40625 
L 10.984375 69.390625 
L 28.421875 72.90625 
L 38.28125 72.90625 
L 38.28125 8.296875 
L 54.390625 8.296875 
L 54.390625 0 
L 12.40625 0 
z
" id="DejaVuSans-49"/>
      </defs>
      <g transform="translate(388.193209 222.259401)scale(0.1 -0.1)">
       <use xlink:href="#DejaVuSans-8722"/>
       <use x="83.789062" xlink:href="#DejaVuSans-49"/>
       <use x="147.412109" xlink:href="#DejaVuSans-48"/>
      </g>
     </g>
    </g>
    <g id="ytick_9">
     <g id="line2d_26">
      <g>
       <use style="stroke:#000000;stroke-width:0.8;" x="416.297896" xlink:href="#m201edc9a2c" y="175.771069"/>
      </g>
     </g>
     <g id="text_22">
      <!-- −5 -->
      <g transform="translate(394.555709 179.570288)scale(0.1 -0.1)">
       <use xlink:href="#DejaVuSans-8722"/>
       <use x="83.789062" xlink:href="#DejaVuSans-53"/>
      </g>
     </g>
    </g>
    <g id="ytick_10">
     <g id="line2d_27">
      <g>
       <use style="stroke:#000000;stroke-width:0.8;" x="416.297896" xlink:href="#m201edc9a2c" y="133.081956"/>
      </g>
     </g>
     <g id="text_23">
      <!-- 0 -->
      <g transform="translate(402.935396 136.881175)scale(0.1 -0.1)">
       <use xlink:href="#DejaVuSans-48"/>
      </g>
     </g>
    </g>
    <g id="ytick_11">
     <g id="line2d_28">
      <g>
       <use style="stroke:#000000;stroke-width:0.8;" x="416.297896" xlink:href="#m201edc9a2c" y="90.392843"/>
      </g>
     </g>
     <g id="text_24">
      <!-- 5 -->
      <g transform="translate(402.935396 94.192062)scale(0.1 -0.1)">
       <use xlink:href="#DejaVuSans-53"/>
      </g>
     </g>
    </g>
    <g id="ytick_12">
     <g id="line2d_29">
      <g>
       <use style="stroke:#000000;stroke-width:0.8;" x="416.297896" xlink:href="#m201edc9a2c" y="47.70373"/>
      </g>
     </g>
     <g id="text_25">
      <!-- 10 -->
      <g transform="translate(396.572896 51.502948)scale(0.1 -0.1)">
       <use xlink:href="#DejaVuSans-49"/>
       <use x="63.623047" xlink:href="#DejaVuSans-48"/>
      </g>
     </g>
    </g>
    <g id="text_26">
     <!-- Rate of $^{87}Sr/^{86}Sr$ Change ($10^{-5}$/yr) -->
     <defs>
      <path d="M 44.390625 34.1875 
Q 47.5625 33.109375 50.5625 29.59375 
Q 53.5625 26.078125 56.59375 19.921875 
L 66.609375 0 
L 56 0 
L 46.6875 18.703125 
Q 43.0625 26.03125 39.671875 28.421875 
Q 36.28125 30.8125 30.421875 30.8125 
L 19.671875 30.8125 
L 19.671875 0 
L 9.8125 0 
L 9.8125 72.90625 
L 32.078125 72.90625 
Q 44.578125 72.90625 50.734375 67.671875 
Q 56.890625 62.453125 56.890625 51.90625 
Q 56.890625 45.015625 53.6875 40.46875 
Q 50.484375 35.9375 44.390625 34.1875 
z
M 19.671875 64.796875 
L 19.671875 38.921875 
L 32.078125 38.921875 
Q 39.203125 38.921875 42.84375 42.21875 
Q 46.484375 45.515625 46.484375 51.90625 
Q 46.484375 58.296875 42.84375 61.546875 
Q 39.203125 64.796875 32.078125 64.796875 
z
" id="DejaVuSans-82"/>
      <path d="M 37.109375 75.984375 
L 37.109375 68.5 
L 28.515625 68.5 
Q 23.6875 68.5 21.796875 66.546875 
Q 19.921875 64.59375 19.921875 59.515625 
L 19.921875 54.6875 
L 34.71875 54.6875 
L 34.71875 47.703125 
L 19.921875 47.703125 
L 19.921875 0 
L 10.890625 0 
L 10.890625 47.703125 
L 2.296875 47.703125 
L 2.296875 54.6875 
L 10.890625 54.6875 
L 10.890625 58.5 
Q 10.890625 67.625 15.140625 71.796875 
Q 19.390625 75.984375 28.609375 75.984375 
z
" id="DejaVuSans-102"/>
      <path d="M 54.890625 33.015625 
L 54.890625 0 
L 45.90625 0 
L 45.90625 32.71875 
Q 45.90625 40.484375 42.875 44.328125 
Q 39.84375 48.1875 33.796875 48.1875 
Q 26.515625 48.1875 22.3125 43.546875 
Q 18.109375 38.921875 18.109375 30.90625 
L 18.109375 0 
L 9.078125 0 
L 9.078125 75.984375 
L 18.109375 75.984375 
L 18.109375 46.1875 
Q 21.34375 51.125 25.703125 53.5625 
Q 30.078125 56 35.796875 56 
Q 45.21875 56 50.046875 50.171875 
Q 54.890625 44.34375 54.890625 33.015625 
z
" id="DejaVuSans-104"/>
      <path d="M 45.40625 27.984375 
Q 45.40625 37.75 41.375 43.109375 
Q 37.359375 48.484375 30.078125 48.484375 
Q 22.859375 48.484375 18.828125 43.109375 
Q 14.796875 37.75 14.796875 27.984375 
Q 14.796875 18.265625 18.828125 12.890625 
Q 22.859375 7.515625 30.078125 7.515625 
Q 37.359375 7.515625 41.375 12.890625 
Q 45.40625 18.265625 45.40625 27.984375 
z
M 54.390625 6.78125 
Q 54.390625 -7.171875 48.1875 -13.984375 
Q 42 -20.796875 29.203125 -20.796875 
Q 24.46875 -20.796875 20.265625 -20.09375 
Q 16.0625 -19.390625 12.109375 -17.921875 
L 12.109375 -9.1875 
Q 16.0625 -11.328125 19.921875 -12.34375 
Q 23.78125 -13.375 27.78125 -13.375 
Q 36.625 -13.375 41.015625 -8.765625 
Q 45.40625 -4.15625 45.40625 5.171875 
L 45.40625 9.625 
Q 42.625 4.78125 38.28125 2.390625 
Q 33.9375 0 27.875 0 
Q 17.828125 0 11.671875 7.65625 
Q 5.515625 15.328125 5.515625 27.984375 
Q 5.515625 40.671875 11.671875 48.328125 
Q 17.828125 56 27.875 56 
Q 33.9375 56 38.28125 53.609375 
Q 42.625 51.21875 45.40625 46.390625 
L 45.40625 54.6875 
L 54.390625 54.6875 
z
" id="DejaVuSans-103"/>
      <path d="M 31 75.875 
Q 24.46875 64.65625 21.28125 53.65625 
Q 18.109375 42.671875 18.109375 31.390625 
Q 18.109375 20.125 21.3125 9.0625 
Q 24.515625 -2 31 -13.1875 
L 23.1875 -13.1875 
Q 15.875 -1.703125 12.234375 9.375 
Q 8.59375 20.453125 8.59375 31.390625 
Q 8.59375 42.28125 12.203125 53.3125 
Q 15.828125 64.359375 23.1875 75.875 
z
" id="DejaVuSans-40"/>
      <path d="M 32.171875 -5.078125 
Q 28.375 -14.84375 24.75 -17.8125 
Q 21.140625 -20.796875 15.09375 -20.796875 
L 7.90625 -20.796875 
L 7.90625 -13.28125 
L 13.1875 -13.28125 
Q 16.890625 -13.28125 18.9375 -11.515625 
Q 21 -9.765625 23.484375 -3.21875 
L 25.09375 0.875 
L 2.984375 54.6875 
L 12.5 54.6875 
L 29.59375 11.921875 
L 46.6875 54.6875 
L 56.203125 54.6875 
z
" id="DejaVuSans-121"/>
      <path d="M 8.015625 75.875 
L 15.828125 75.875 
Q 23.140625 64.359375 26.78125 53.3125 
Q 30.421875 42.28125 30.421875 31.390625 
Q 30.421875 20.453125 26.78125 9.375 
Q 23.140625 -1.703125 15.828125 -13.1875 
L 8.015625 -13.1875 
Q 14.5 -2 17.703125 9.0625 
Q 20.90625 20.125 20.90625 31.390625 
Q 20.90625 42.671875 17.703125 53.65625 
Q 14.5 64.65625 8.015625 75.875 
z
" id="DejaVuSans-41"/>
     </defs>
     <g transform="translate(382.093209 215.416979)rotate(-90)scale(0.1 -0.1)">
      <use transform="translate(0 0.765625)" xlink:href="#DejaVuSans-82"/>
      <use transform="translate(69.482422 0.765625)" xlink:href="#DejaVuSans-97"/>
      <use transform="translate(130.761719 0.765625)" xlink:href="#DejaVuSans-116"/>
      <use transform="translate(169.970703 0.765625)" xlink:href="#DejaVuSans-101"/>
      <use transform="translate(231.494141 0.765625)" xlink:href="#DejaVuSans-32"/>
      <use transform="translate(263.28125 0.765625)" xlink:href="#DejaVuSans-111"/>
      <use transform="translate(324.462891 0.765625)" xlink:href="#DejaVuSans-102"/>
      <use transform="translate(359.667969 0.765625)" xlink:href="#DejaVuSans-32"/>
      <use transform="translate(392.412109 39.046875)scale(0.7)" xlink:href="#DejaVuSans-56"/>
      <use transform="translate(436.948242 39.046875)scale(0.7)" xlink:href="#DejaVuSans-55"/>
      <use transform="translate(484.21875 0.765625)" xlink:href="#DejaVuSans-Oblique-83"/>
      <use transform="translate(547.695312 0.765625)" xlink:href="#DejaVuSans-Oblique-114"/>
      <use transform="translate(588.808594 0.765625)" xlink:href="#DejaVuSans-47"/>
      <use transform="translate(623.457031 39.046875)scale(0.7)" xlink:href="#DejaVuSans-56"/>
      <use transform="translate(667.993164 39.046875)scale(0.7)" xlink:href="#DejaVuSans-54"/>
      <use transform="translate(715.263672 0.765625)" xlink:href="#DejaVuSans-Oblique-83"/>
      <use transform="translate(778.740234 0.765625)" xlink:href="#DejaVuSans-Oblique-114"/>
      <use transform="translate(819.853516 0.765625)" xlink:href="#DejaVuSans-32"/>
      <use transform="translate(851.640625 0.765625)" xlink:href="#DejaVuSans-67"/>
      <use transform="translate(921.464844 0.765625)" xlink:href="#DejaVuSans-104"/>
      <use transform="translate(984.84375 0.765625)" xlink:href="#DejaVuSans-97"/>
      <use transform="translate(1046.123047 0.765625)" xlink:href="#DejaVuSans-110"/>
      <use transform="translate(1109.501953 0.765625)" xlink:href="#DejaVuSans-103"/>
      <use transform="translate(1172.978516 0.765625)" xlink:href="#DejaVuSans-101"/>
      <use transform="translate(1234.501953 0.765625)" xlink:href="#DejaVuSans-32"/>
      <use transform="translate(1266.289062 0.765625)" xlink:href="#DejaVuSans-40"/>
      <use transform="translate(1305.302734 0.765625)" xlink:href="#DejaVuSans-49"/>
      <use transform="translate(1368.925781 0.765625)" xlink:href="#DejaVuSans-48"/>
      <use transform="translate(1433.505859 39.046875)scale(0.7)" xlink:href="#DejaVuSans-8722"/>
      <use transform="translate(1492.158203 39.046875)scale(0.7)" xlink:href="#DejaVuSans-53"/>
      <use transform="translate(1539.428711 0.765625)" xlink:href="#DejaVuSans-47"/>
      <use transform="translate(1573.120117 0.765625)" xlink:href="#DejaVuSans-121"/>
      <use transform="translate(1632.299805 0.765625)" xlink:href="#DejaVuSans-114"/>
      <use transform="translate(1673.413086 0.765625)" xlink:href="#DejaVuSans-41"/>
     </g>
    </g>
   </g>
   <g id="line2d_30">
    <path clip-path="url(#pf0b8e639d4)" d="M 429.966163 133.081956 
L 432.005489 129.321563 
L 434.066684 125.980655 
L 436.155216 123.013716 
L 438.279286 120.378567 
L 440.447094 118.040104 
L 442.67231 115.964224 
L 444.971336 114.122145 
L 447.357839 112.493762 
L 449.859157 111.055998 
L 452.499892 109.795072 
L 455.315583 108.698364 
L 458.347235 107.758291 
L 461.649521 106.970037 
L 465.290784 106.333018 
L 469.366702 105.849762 
L 474.02216 105.526878 
L 479.467652 105.378466 
L 486.066757 105.429242 
L 494.500162 105.72712 
L 506.561161 106.394358 
L 531.727425 108.066478 
L 567.475767 110.363774 
L 594.610281 111.893166 
L 596.294228 94.546208 
L 597.93717 79.859888 
L 599.536373 67.507811 
L 601.091837 57.173614 
L 602.603563 48.577947 
L 604.071549 41.475205 
L 605.493063 35.66053 
L 606.868105 30.94115 
L 608.196673 27.149943 
L 609.476036 24.148221 
L 610.708926 21.803388 
L 611.895343 20.008752 
L 613.038022 18.669969 
L 614.145162 17.704879 
L 615.2277 17.048921 
L 616.302036 16.653713 
L 617.390041 16.489088 
L 618.519051 16.544631 
L 619.719137 16.830213 
L 621.023103 17.374976 
L 622.466486 18.226165 
L 624.09576 19.45385 
L 625.673094 20.895759 
L 627.19302 36.924994 
L 628.71568 50.686813 
L 630.23834 62.479064 
L 631.763734 72.600402 
L 633.291862 81.285152 
L 634.822723 88.735129 
L 636.359051 95.134621 
L 637.903581 100.637632 
L 639.456312 105.36568 
L 641.022711 109.437524 
L 642.605512 112.944698 
L 644.210182 115.969658 
L 645.844923 118.584507 
L 647.517936 120.847382 
L 649.245622 122.814152 
L 651.04165 124.524287 
L 652.92789 126.014562 
L 654.931678 127.314496 
L 657.091285 128.449136 
L 659.453185 129.436142 
L 662.077519 130.288239 
L 665.057231 131.016982 
L 668.515337 131.627933 
L 672.665064 132.127491 
L 677.845389 132.517609 
L 684.745199 132.801682 
L 695.034773 132.983263 
L 703.331493 133.039405 
L 703.331493 133.039405 
" style="fill:none;stroke:#800000;stroke-linecap:square;stroke-width:1.5;"/>
   </g>
   <g id="line2d_31">
    <path clip-path="url(#pf0b8e639d4)" d="M 429.966163 133.081956 
L 431.953549 128.068575 
L 433.539083 124.598459 
L 435.559273 120.951106 
L 436.551599 119.490604 
L 438.719408 117.168085 
L 440.135455 115.913613 
L 442.423545 114.222428 
L 445.24197 113.036528 
L 448.270888 112.005273 
L 449.525648 111.740481 
L 454.274051 110.810534 
L 455.722902 110.625693 
L 459.566457 110.209229 
L 462.729325 109.629188 
L 464.850661 109.304173 
L 470.315289 109.041243 
L 475.170306 108.784838 
L 477.007339 108.710968 
L 481.132463 109.339436 
L 483.204593 109.876399 
L 488.516135 112.619205 
L 489.716221 113.383097 
L 492.996637 115.520549 
L 500.686481 120.44534 
L 509.950925 125.319656 
L 512.968908 126.46807 
L 516.421547 127.770439 
L 518.873658 128.768238 
L 520.907517 129.690212 
L 526.325672 132.73774 
L 528.739512 134.400907 
L 531.295503 135.891567 
L 533.534388 137.214551 
L 535.740468 138.523209 
L 539.015417 139.583019 
L 542.659414 140.524672 
L 545.133395 140.97808 
L 548.79926 140.459023 
L 564.512457 135.892501 
L 568.539168 133.75398 
L 570.023557 132.785947 
L 572.180431 130.517866 
L 573.569141 129.005494 
L 575.690477 126.65585 
L 577.095589 125.049399 
L 579.637912 122.012763 
L 581.617096 118.9627 
L 582.270446 117.831596 
L 584.118414 111.33429 
L 588.694596 96.659026 
L 590.476955 91.949871 
L 591.947676 88.624909 
L 593.716367 85.355657 
L 594.777035 83.757097 
L 596.728883 82.414712 
L 597.978175 81.771754 
L 600.465825 81.283994 
L 600.955153 81.321094 
L 604.355852 83.67751 
L 606.54553 86.200649 
L 607.346499 87.22415 
L 609.358488 90.231562 
L 610.944022 92.633914 
L 612.920474 95.624118 
L 613.620296 96.802592 
L 615.525671 100.198879 
L 616.93625 102.758657 
L 618.808822 106.350377 
L 620.711463 109.525502 
L 626.211629 117.868882 
L 628.149808 120.589458 
L 632.367878 125.910596 
L 634.429073 128.009885 
L 635.506143 129.177229 
L 637.520866 131.487862 
L 638.983385 132.881139 
L 641.189465 134.645107 
L 642.064243 135.427175 
L 644.275791 137.200994 
L 646.610354 138.788625 
L 648.605941 140.165238 
L 651.976569 142.437919 
L 654.297464 144.073673 
L 656.525413 145.957231 
L 657.293578 146.698401 
L 659.475055 148.75606 
L 663.329545 152.274161 
L 665.396207 154.984627 
L 667.071953 157.210819 
L 669.822036 161.156322 
L 671.858628 164.760164 
L 672.542048 166.108386 
L 674.551304 170.734534 
L 675.669379 173.418483 
L 677.686835 179.452859 
L 678.897856 183.196656 
L 680.961785 190.379597 
L 682.257549 195.018813 
L 684.414423 202.849577 
L 687.331261 212.484539 
L 689.783372 219.733545 
L 692.443243 226.901078 
L 694.157261 231.019408 
L 697.235386 234.266823 
L 698.954871 233.595926 
L 700.359983 233.028944 
L 702.136875 230.373549 
L 703.331493 228.814081 
L 703.331493 228.814081 
" style="fill:none;stroke:#4682b4;stroke-linecap:square;stroke-width:1.5;"/>
   </g>
   <g id="line2d_32">
    <path clip-path="url(#pf0b8e639d4)" d="M 537.433287 143.240599 
L 538.727647 143.204228 
L 539.776631 143.09426 
L 540.783653 142.932042 
L 541.622835 142.689824 
L 547.73944 142.022934 
L 555.526543 141.310615 
L 564.729487 141.756554 
L 573.048062 143.686273 
L 573.472605 144.826755 
L 575.59533 143.502283 
L 578.56714 142.988221 
L 582.388042 146.714724 
L 591.433657 149.102582 
L 592.875927 155.001791 
L 593.763476 158.12339 
L 595.538573 162.575864 
L 596.204237 167.107996 
L 596.758957 166.645759 
L 597.313671 164.638004 
L 597.868391 165.689523 
L 598.423112 169.610091 
L 602.417085 178.556277 
L 605.727645 188.728922 
L 607.423752 195.067146 
L 612.269774 202.314903 
L 612.463615 207.514267 
L 613.62666 209.064906 
L 615.419688 212.484304 
L 616.752344 215.673949 
L 617.551938 217.531438 
L 617.842699 218.460182 
L 619.054205 219.817696 
L 620.26571 222.138276 
L 628.261646 231.283138 
L 631.896162 243.051673 
" style="fill:none;stroke:#6b8e23;stroke-linecap:square;stroke-width:1.5;"/>
   </g>
   <g id="patch_9">
    <path d="M 416.297896 254.380142 
L 416.297896 5.153816 
" style="fill:none;stroke:#000000;stroke-linecap:square;stroke-linejoin:miter;stroke-width:0.8;"/>
   </g>
   <g id="patch_10">
    <path d="M 716.99976 254.380142 
L 716.99976 5.153816 
" style="fill:none;stroke:#000000;stroke-linecap:square;stroke-linejoin:miter;stroke-width:0.8;"/>
   </g>
   <g id="patch_11">
    <path d="M 416.297896 254.380142 
L 716.99976 254.380142 
" style="fill:none;stroke:#000000;stroke-linecap:square;stroke-linejoin:miter;stroke-width:0.8;"/>
   </g>
   <g id="patch_12">
    <path d="M 416.297896 5.153816 
L 716.99976 5.153816 
" style="fill:none;stroke:#000000;stroke-linecap:square;stroke-linejoin:miter;stroke-width:0.8;"/>
   </g>
   <g id="legend_2">
    <g id="patch_13">
     <path d="M 423.297896 57.188191 
L 567.136959 57.188191 
Q 569.136959 57.188191 569.136959 55.188191 
L 569.136959 12.153816 
Q 569.136959 10.153816 567.136959 10.153816 
L 423.297896 10.153816 
Q 421.297896 10.153816 421.297896 12.153816 
L 421.297896 55.188191 
Q 421.297896 57.188191 423.297896 57.188191 
z
" style="fill:#ffffff;opacity:0.8;"/>
    </g>
    <g id="line2d_33">
     <path d="M 425.297896 18.252254 
L 445.297896 18.252254 
" style="fill:none;stroke:#800000;stroke-linecap:square;stroke-width:1.5;"/>
    </g>
    <g id="line2d_34"/>
    <g id="text_27">
     <!-- Standard Model -->
     <g transform="translate(453.297896 21.752254)scale(0.1 -0.1)">
      <use xlink:href="#DejaVuSans-83"/>
      <use x="63.476562" xlink:href="#DejaVuSans-116"/>
      <use x="102.685547" xlink:href="#DejaVuSans-97"/>
      <use x="163.964844" xlink:href="#DejaVuSans-110"/>
      <use x="227.34375" xlink:href="#DejaVuSans-100"/>
      <use x="290.820312" xlink:href="#DejaVuSans-97"/>
      <use x="352.099609" xlink:href="#DejaVuSans-114"/>
      <use x="393.197266" xlink:href="#DejaVuSans-100"/>
      <use x="456.673828" xlink:href="#DejaVuSans-32"/>
      <use x="488.460938" xlink:href="#DejaVuSans-77"/>
      <use x="574.740234" xlink:href="#DejaVuSans-111"/>
      <use x="635.921875" xlink:href="#DejaVuSans-100"/>
      <use x="699.398438" xlink:href="#DejaVuSans-101"/>
      <use x="760.921875" xlink:href="#DejaVuSans-108"/>
     </g>
    </g>
    <g id="line2d_35">
     <path d="M 425.297896 32.930379 
L 445.297896 32.930379 
" style="fill:none;stroke:#4682b4;stroke-linecap:square;stroke-width:1.5;"/>
    </g>
    <g id="line2d_36"/>
    <g id="text_28">
     <!-- Sea Level Model -->
     <g transform="translate(453.297896 36.430379)scale(0.1 -0.1)">
      <use xlink:href="#DejaVuSans-83"/>
      <use x="63.476562" xlink:href="#DejaVuSans-101"/>
      <use x="125" xlink:href="#DejaVuSans-97"/>
      <use x="186.279297" xlink:href="#DejaVuSans-32"/>
      <use x="218.066406" xlink:href="#DejaVuSans-76"/>
      <use x="273.763672" xlink:href="#DejaVuSans-101"/>
      <use x="335.287109" xlink:href="#DejaVuSans-118"/>
      <use x="394.466797" xlink:href="#DejaVuSans-101"/>
      <use x="455.990234" xlink:href="#DejaVuSans-108"/>
      <use x="483.773438" xlink:href="#DejaVuSans-32"/>
      <use x="515.560547" xlink:href="#DejaVuSans-77"/>
      <use x="601.839844" xlink:href="#DejaVuSans-111"/>
      <use x="663.021484" xlink:href="#DejaVuSans-100"/>
      <use x="726.498047" xlink:href="#DejaVuSans-101"/>
      <use x="788.021484" xlink:href="#DejaVuSans-108"/>
     </g>
    </g>
    <g id="line2d_37">
     <path d="M 425.297896 47.608504 
L 445.297896 47.608504 
" style="fill:none;stroke:#6b8e23;stroke-linecap:square;stroke-width:1.5;"/>
    </g>
    <g id="line2d_38"/>
    <g id="text_29">
     <!-- LOESS Curve Gradient -->
     <defs>
      <path d="M 59.515625 10.40625 
L 59.515625 29.984375 
L 43.40625 29.984375 
L 43.40625 38.09375 
L 69.28125 38.09375 
L 69.28125 6.78125 
Q 63.578125 2.734375 56.6875 0.65625 
Q 49.8125 -1.421875 42 -1.421875 
Q 24.90625 -1.421875 15.25 8.5625 
Q 5.609375 18.5625 5.609375 36.375 
Q 5.609375 54.25 15.25 64.234375 
Q 24.90625 74.21875 42 74.21875 
Q 49.125 74.21875 55.546875 72.453125 
Q 61.96875 70.703125 67.390625 67.28125 
L 67.390625 56.78125 
Q 61.921875 61.421875 55.765625 63.765625 
Q 49.609375 66.109375 42.828125 66.109375 
Q 29.4375 66.109375 22.71875 58.640625 
Q 16.015625 51.171875 16.015625 36.375 
Q 16.015625 21.625 22.71875 14.15625 
Q 29.4375 6.6875 42.828125 6.6875 
Q 48.046875 6.6875 52.140625 7.59375 
Q 56.25 8.5 59.515625 10.40625 
z
" id="DejaVuSans-71"/>
      <path d="M 9.421875 54.6875 
L 18.40625 54.6875 
L 18.40625 0 
L 9.421875 0 
z
M 9.421875 75.984375 
L 18.40625 75.984375 
L 18.40625 64.59375 
L 9.421875 64.59375 
z
" id="DejaVuSans-105"/>
     </defs>
     <g transform="translate(453.297896 51.108504)scale(0.1 -0.1)">
      <use xlink:href="#DejaVuSans-76"/>
      <use x="55.666016" xlink:href="#DejaVuSans-79"/>
      <use x="134.376953" xlink:href="#DejaVuSans-69"/>
      <use x="197.560547" xlink:href="#DejaVuSans-83"/>
      <use x="261.037109" xlink:href="#DejaVuSans-83"/>
      <use x="324.513672" xlink:href="#DejaVuSans-32"/>
      <use x="356.300781" xlink:href="#DejaVuSans-67"/>
      <use x="426.125" xlink:href="#DejaVuSans-117"/>
      <use x="489.503906" xlink:href="#DejaVuSans-114"/>
      <use x="530.617188" xlink:href="#DejaVuSans-118"/>
      <use x="589.796875" xlink:href="#DejaVuSans-101"/>
      <use x="651.320312" xlink:href="#DejaVuSans-32"/>
      <use x="683.107422" xlink:href="#DejaVuSans-71"/>
      <use x="760.597656" xlink:href="#DejaVuSans-114"/>
      <use x="801.710938" xlink:href="#DejaVuSans-97"/>
      <use x="862.990234" xlink:href="#DejaVuSans-100"/>
      <use x="926.466797" xlink:href="#DejaVuSans-105"/>
      <use x="954.25" xlink:href="#DejaVuSans-101"/>
      <use x="1015.773438" xlink:href="#DejaVuSans-110"/>
      <use x="1079.152344" xlink:href="#DejaVuSans-116"/>
     </g>
    </g>
   </g>
  </g>
  <g id="axes_3">
   <g id="patch_14">
    <path d="M 59.090865 542.64351 
L 359.792729 542.64351 
L 359.792729 293.417184 
L 59.090865 293.417184 
z
" style="fill:#ffffff;"/>
   </g>
   <g id="matplotlib.axis_5">
    <g id="xtick_9">
     <g id="line2d_39">
      <g>
       <use style="stroke:#000000;stroke-width:0.8;" x="302.634523" xlink:href="#mddbacf9650" y="542.64351"/>
      </g>
     </g>
     <g id="text_30">
      <!-- 450 -->
      <g transform="translate(293.090773 557.241948)scale(0.1 -0.1)">
       <use xlink:href="#DejaVuSans-52"/>
       <use x="63.623047" xlink:href="#DejaVuSans-53"/>
       <use x="127.246094" xlink:href="#DejaVuSans-48"/>
      </g>
     </g>
    </g>
    <g id="xtick_10">
     <g id="line2d_40">
      <g>
       <use style="stroke:#000000;stroke-width:0.8;" x="240.506039" xlink:href="#mddbacf9650" y="542.64351"/>
      </g>
     </g>
     <g id="text_31">
      <!-- 460 -->
      <g transform="translate(230.962289 557.241948)scale(0.1 -0.1)">
       <use xlink:href="#DejaVuSans-52"/>
       <use x="63.623047" xlink:href="#DejaVuSans-54"/>
       <use x="127.246094" xlink:href="#DejaVuSans-48"/>
      </g>
     </g>
    </g>
    <g id="xtick_11">
     <g id="line2d_41">
      <g>
       <use style="stroke:#000000;stroke-width:0.8;" x="178.377555" xlink:href="#mddbacf9650" y="542.64351"/>
      </g>
     </g>
     <g id="text_32">
      <!-- 470 -->
      <g transform="translate(168.833805 557.241948)scale(0.1 -0.1)">
       <use xlink:href="#DejaVuSans-52"/>
       <use x="63.623047" xlink:href="#DejaVuSans-55"/>
       <use x="127.246094" xlink:href="#DejaVuSans-48"/>
      </g>
     </g>
    </g>
    <g id="xtick_12">
     <g id="line2d_42">
      <g>
       <use style="stroke:#000000;stroke-width:0.8;" x="116.249071" xlink:href="#mddbacf9650" y="542.64351"/>
      </g>
     </g>
     <g id="text_33">
      <!-- 480 -->
      <g transform="translate(106.705321 557.241948)scale(0.1 -0.1)">
       <use xlink:href="#DejaVuSans-52"/>
       <use x="63.623047" xlink:href="#DejaVuSans-56"/>
       <use x="127.246094" xlink:href="#DejaVuSans-48"/>
      </g>
     </g>
    </g>
    <g id="text_34">
     <!-- Age (Ma) -->
     <defs>
      <path d="M 34.1875 63.1875 
L 20.796875 26.90625 
L 47.609375 26.90625 
z
M 28.609375 72.90625 
L 39.796875 72.90625 
L 67.578125 0 
L 57.328125 0 
L 50.6875 18.703125 
L 17.828125 18.703125 
L 11.1875 0 
L 0.78125 0 
z
" id="DejaVuSans-65"/>
     </defs>
     <g transform="translate(186.901953 570.920073)scale(0.1 -0.1)">
      <use xlink:href="#DejaVuSans-65"/>
      <use x="68.408203" xlink:href="#DejaVuSans-103"/>
      <use x="131.884766" xlink:href="#DejaVuSans-101"/>
      <use x="193.408203" xlink:href="#DejaVuSans-32"/>
      <use x="225.195312" xlink:href="#DejaVuSans-40"/>
      <use x="264.208984" xlink:href="#DejaVuSans-77"/>
      <use x="350.488281" xlink:href="#DejaVuSans-97"/>
      <use x="411.767578" xlink:href="#DejaVuSans-41"/>
     </g>
    </g>
   </g>
   <g id="matplotlib.axis_6">
    <g id="ytick_13">
     <g id="line2d_43">
      <g>
       <use style="stroke:#000000;stroke-width:0.8;" x="59.090865" xlink:href="#m201edc9a2c" y="504.762624"/>
      </g>
     </g>
     <g id="text_35">
      <!-- 1.5 -->
      <g transform="translate(36.18774 508.561843)scale(0.1 -0.1)">
       <use xlink:href="#DejaVuSans-49"/>
       <use x="63.623047" xlink:href="#DejaVuSans-46"/>
       <use x="95.410156" xlink:href="#DejaVuSans-53"/>
      </g>
     </g>
    </g>
    <g id="ytick_14">
     <g id="line2d_44">
      <g>
       <use style="stroke:#000000;stroke-width:0.8;" x="59.090865" xlink:href="#m201edc9a2c" y="455.977997"/>
      </g>
     </g>
     <g id="text_36">
      <!-- 2.0 -->
      <defs>
       <path d="M 19.1875 8.296875 
L 53.609375 8.296875 
L 53.609375 0 
L 7.328125 0 
L 7.328125 8.296875 
Q 12.9375 14.109375 22.625 23.890625 
Q 32.328125 33.6875 34.8125 36.53125 
Q 39.546875 41.84375 41.421875 45.53125 
Q 43.3125 49.21875 43.3125 52.78125 
Q 43.3125 58.59375 39.234375 62.25 
Q 35.15625 65.921875 28.609375 65.921875 
Q 23.96875 65.921875 18.8125 64.3125 
Q 13.671875 62.703125 7.8125 59.421875 
L 7.8125 69.390625 
Q 13.765625 71.78125 18.9375 73 
Q 24.125 74.21875 28.421875 74.21875 
Q 39.75 74.21875 46.484375 68.546875 
Q 53.21875 62.890625 53.21875 53.421875 
Q 53.21875 48.921875 51.53125 44.890625 
Q 49.859375 40.875 45.40625 35.40625 
Q 44.1875 33.984375 37.640625 27.21875 
Q 31.109375 20.453125 19.1875 8.296875 
z
" id="DejaVuSans-50"/>
      </defs>
      <g transform="translate(36.18774 459.777216)scale(0.1 -0.1)">
       <use xlink:href="#DejaVuSans-50"/>
       <use x="63.623047" xlink:href="#DejaVuSans-46"/>
       <use x="95.410156" xlink:href="#DejaVuSans-48"/>
      </g>
     </g>
    </g>
    <g id="ytick_15">
     <g id="line2d_45">
      <g>
       <use style="stroke:#000000;stroke-width:0.8;" x="59.090865" xlink:href="#m201edc9a2c" y="407.19337"/>
      </g>
     </g>
     <g id="text_37">
      <!-- 2.5 -->
      <g transform="translate(36.18774 410.992589)scale(0.1 -0.1)">
       <use xlink:href="#DejaVuSans-50"/>
       <use x="63.623047" xlink:href="#DejaVuSans-46"/>
       <use x="95.410156" xlink:href="#DejaVuSans-53"/>
      </g>
     </g>
    </g>
    <g id="ytick_16">
     <g id="line2d_46">
      <g>
       <use style="stroke:#000000;stroke-width:0.8;" x="59.090865" xlink:href="#m201edc9a2c" y="358.408743"/>
      </g>
     </g>
     <g id="text_38">
      <!-- 3.0 -->
      <defs>
       <path d="M 40.578125 39.3125 
Q 47.65625 37.796875 51.625 33 
Q 55.609375 28.21875 55.609375 21.1875 
Q 55.609375 10.40625 48.1875 4.484375 
Q 40.765625 -1.421875 27.09375 -1.421875 
Q 22.515625 -1.421875 17.65625 -0.515625 
Q 12.796875 0.390625 7.625 2.203125 
L 7.625 11.71875 
Q 11.71875 9.328125 16.59375 8.109375 
Q 21.484375 6.890625 26.8125 6.890625 
Q 36.078125 6.890625 40.9375 10.546875 
Q 45.796875 14.203125 45.796875 21.1875 
Q 45.796875 27.640625 41.28125 31.265625 
Q 36.765625 34.90625 28.71875 34.90625 
L 20.21875 34.90625 
L 20.21875 43.015625 
L 29.109375 43.015625 
Q 36.375 43.015625 40.234375 45.921875 
Q 44.09375 48.828125 44.09375 54.296875 
Q 44.09375 59.90625 40.109375 62.90625 
Q 36.140625 65.921875 28.71875 65.921875 
Q 24.65625 65.921875 20.015625 65.03125 
Q 15.375 64.15625 9.8125 62.3125 
L 9.8125 71.09375 
Q 15.4375 72.65625 20.34375 73.4375 
Q 25.25 74.21875 29.59375 74.21875 
Q 40.828125 74.21875 47.359375 69.109375 
Q 53.90625 64.015625 53.90625 55.328125 
Q 53.90625 49.265625 50.4375 45.09375 
Q 46.96875 40.921875 40.578125 39.3125 
z
" id="DejaVuSans-51"/>
      </defs>
      <g transform="translate(36.18774 362.207962)scale(0.1 -0.1)">
       <use xlink:href="#DejaVuSans-51"/>
       <use x="63.623047" xlink:href="#DejaVuSans-46"/>
       <use x="95.410156" xlink:href="#DejaVuSans-48"/>
      </g>
     </g>
    </g>
    <g id="ytick_17">
     <g id="line2d_47">
      <g>
       <use style="stroke:#000000;stroke-width:0.8;" x="59.090865" xlink:href="#m201edc9a2c" y="309.624116"/>
      </g>
     </g>
     <g id="text_39">
      <!-- 3.5 -->
      <g transform="translate(36.18774 313.423335)scale(0.1 -0.1)">
       <use xlink:href="#DejaVuSans-51"/>
       <use x="63.623047" xlink:href="#DejaVuSans-46"/>
       <use x="95.410156" xlink:href="#DejaVuSans-53"/>
      </g>
     </g>
    </g>
    <g id="text_40">
     <!-- Hydrothermal Flux (mol/yr) -->
     <defs>
      <path d="M 9.8125 72.90625 
L 19.671875 72.90625 
L 19.671875 43.015625 
L 55.515625 43.015625 
L 55.515625 72.90625 
L 65.375 72.90625 
L 65.375 0 
L 55.515625 0 
L 55.515625 34.71875 
L 19.671875 34.71875 
L 19.671875 0 
L 9.8125 0 
z
" id="DejaVuSans-72"/>
      <path d="M 52 44.1875 
Q 55.375 50.25 60.0625 53.125 
Q 64.75 56 71.09375 56 
Q 79.640625 56 84.28125 50.015625 
Q 88.921875 44.046875 88.921875 33.015625 
L 88.921875 0 
L 79.890625 0 
L 79.890625 32.71875 
Q 79.890625 40.578125 77.09375 44.375 
Q 74.3125 48.1875 68.609375 48.1875 
Q 61.625 48.1875 57.5625 43.546875 
Q 53.515625 38.921875 53.515625 30.90625 
L 53.515625 0 
L 44.484375 0 
L 44.484375 32.71875 
Q 44.484375 40.625 41.703125 44.40625 
Q 38.921875 48.1875 33.109375 48.1875 
Q 26.21875 48.1875 22.15625 43.53125 
Q 18.109375 38.875 18.109375 30.90625 
L 18.109375 0 
L 9.078125 0 
L 9.078125 54.6875 
L 18.109375 54.6875 
L 18.109375 46.1875 
Q 21.1875 51.21875 25.484375 53.609375 
Q 29.78125 56 35.6875 56 
Q 41.65625 56 45.828125 52.96875 
Q 50 49.953125 52 44.1875 
z
" id="DejaVuSans-109"/>
      <path d="M 9.8125 72.90625 
L 51.703125 72.90625 
L 51.703125 64.59375 
L 19.671875 64.59375 
L 19.671875 43.109375 
L 48.578125 43.109375 
L 48.578125 34.8125 
L 19.671875 34.8125 
L 19.671875 0 
L 9.8125 0 
z
" id="DejaVuSans-70"/>
      <path d="M 54.890625 54.6875 
L 35.109375 28.078125 
L 55.90625 0 
L 45.3125 0 
L 29.390625 21.484375 
L 13.484375 0 
L 2.875 0 
L 24.125 28.609375 
L 4.6875 54.6875 
L 15.28125 54.6875 
L 29.78125 35.203125 
L 44.28125 54.6875 
z
" id="DejaVuSans-120"/>
     </defs>
     <g transform="translate(30.108052 486.111597)rotate(-90)scale(0.1 -0.1)">
      <use xlink:href="#DejaVuSans-72"/>
      <use x="75.195312" xlink:href="#DejaVuSans-121"/>
      <use x="134.375" xlink:href="#DejaVuSans-100"/>
      <use x="197.851562" xlink:href="#DejaVuSans-114"/>
      <use x="238.933594" xlink:href="#DejaVuSans-111"/>
      <use x="300.115234" xlink:href="#DejaVuSans-116"/>
      <use x="339.324219" xlink:href="#DejaVuSans-104"/>
      <use x="402.703125" xlink:href="#DejaVuSans-101"/>
      <use x="464.226562" xlink:href="#DejaVuSans-114"/>
      <use x="505.324219" xlink:href="#DejaVuSans-109"/>
      <use x="602.736328" xlink:href="#DejaVuSans-97"/>
      <use x="664.015625" xlink:href="#DejaVuSans-108"/>
      <use x="691.798828" xlink:href="#DejaVuSans-32"/>
      <use x="723.585938" xlink:href="#DejaVuSans-70"/>
      <use x="781.105469" xlink:href="#DejaVuSans-108"/>
      <use x="808.888672" xlink:href="#DejaVuSans-117"/>
      <use x="872.267578" xlink:href="#DejaVuSans-120"/>
      <use x="931.447266" xlink:href="#DejaVuSans-32"/>
      <use x="963.234375" xlink:href="#DejaVuSans-40"/>
      <use x="1002.248047" xlink:href="#DejaVuSans-109"/>
      <use x="1099.660156" xlink:href="#DejaVuSans-111"/>
      <use x="1160.841797" xlink:href="#DejaVuSans-108"/>
      <use x="1188.625" xlink:href="#DejaVuSans-47"/>
      <use x="1222.316406" xlink:href="#DejaVuSans-121"/>
      <use x="1281.496094" xlink:href="#DejaVuSans-114"/>
      <use x="1322.609375" xlink:href="#DejaVuSans-41"/>
     </g>
    </g>
    <g id="text_41">
     <!-- 1e10 -->
     <g transform="translate(59.090865 290.417184)scale(0.1 -0.1)">
      <use xlink:href="#DejaVuSans-49"/>
      <use x="63.623047" xlink:href="#DejaVuSans-101"/>
      <use x="125.146484" xlink:href="#DejaVuSans-49"/>
      <use x="188.769531" xlink:href="#DejaVuSans-48"/>
     </g>
    </g>
   </g>
   <g id="line2d_48">
    <path clip-path="url(#p4794707335)" d="M 72.759132 512.568165 
L 237.436054 429.296503 
L 268.57541 304.745654 
L 346.124462 304.745654 
L 346.124462 304.745654 
" style="fill:none;stroke:#800000;stroke-linecap:square;stroke-width:1.5;"/>
   </g>
   <g id="line2d_49">
    <path clip-path="url(#p4794707335)" d="M 72.759132 512.568165 
L 78.212824 508.941663 
L 80.115466 507.870209 
L 85.59923 505.158594 
L 98.712696 499.626817 
L 104.352279 497.238203 
L 111.183747 494.219342 
L 124.565113 488.57202 
L 126.943416 487.802065 
L 130.685824 486.842176 
L 133.763949 486.248474 
L 138.266321 485.584898 
L 147.700253 484.883085 
L 160.119364 484.637323 
L 164.777556 484.882236 
L 167.891218 485.262137 
L 171.010348 485.822512 
L 177.240406 487.18895 
L 180.373204 487.884509 
L 189.008901 489.50857 
L 192.748576 489.826638 
L 197.781282 490.004632 
L 203.989471 490.071913 
L 207.622532 489.960944 
L 211.381343 489.525412 
L 213.199241 489.151951 
L 217.004524 487.832678 
L 220.842612 486.168883 
L 222.474619 485.296355 
L 225.172762 483.381556 
L 229.147534 477.943197 
L 237.471591 465.703372 
L 242.523433 459.779851 
L 244.335863 457.914858 
L 247.457727 455.282334 
L 250.606927 453.245102 
L 254.01856 451.60528 
L 256.730371 450.633605 
L 259.805762 450.040577 
L 266.325591 449.77714 
L 270.398775 450.122455 
L 273.515171 450.592467 
L 278.763837 451.610201 
L 290.513197 455.102183 
L 296.625707 457.504327 
L 300.977726 459.880494 
L 305.914754 462.989156 
L 310.523739 466.974749 
L 312.609538 469.043604 
L 315.712265 472.778831 
L 318.722047 477.208548 
L 321.980595 483.144397 
L 325.487907 490.656199 
L 338.388146 520.035769 
L 340.476678 523.873495 
L 343.557536 528.36436 
L 346.124462 531.315041 
L 346.124462 531.315041 
" style="fill:none;stroke:#4682b4;stroke-linecap:square;stroke-width:1.5;"/>
   </g>
   <g id="line2d_50">
    <path clip-path="url(#p4794707335)" d="M 59.090865 504.762624 
L 359.792729 504.762624 
" style="fill:none;stroke:#ff0000;stroke-dasharray:5.55,2.4;stroke-dashoffset:0;stroke-opacity:0.4;stroke-width:1.5;"/>
   </g>
   <g id="patch_15">
    <path d="M 59.090865 542.64351 
L 59.090865 293.417184 
" style="fill:none;stroke:#000000;stroke-linecap:square;stroke-linejoin:miter;stroke-width:0.8;"/>
   </g>
   <g id="patch_16">
    <path d="M 359.792729 542.64351 
L 359.792729 293.417184 
" style="fill:none;stroke:#000000;stroke-linecap:square;stroke-linejoin:miter;stroke-width:0.8;"/>
   </g>
   <g id="patch_17">
    <path d="M 59.090865 542.64351 
L 359.792729 542.64351 
" style="fill:none;stroke:#000000;stroke-linecap:square;stroke-linejoin:miter;stroke-width:0.8;"/>
   </g>
   <g id="patch_18">
    <path d="M 59.090865 293.417184 
L 359.792729 293.417184 
" style="fill:none;stroke:#000000;stroke-linecap:square;stroke-linejoin:miter;stroke-width:0.8;"/>
   </g>
   <g id="legend_3">
    <g id="patch_19">
     <path d="M 66.090865 345.451559 
L 179.676803 345.451559 
Q 181.676803 345.451559 181.676803 343.451559 
L 181.676803 300.417184 
Q 181.676803 298.417184 179.676803 298.417184 
L 66.090865 298.417184 
Q 64.090865 298.417184 64.090865 300.417184 
L 64.090865 343.451559 
Q 64.090865 345.451559 66.090865 345.451559 
z
" style="fill:#ffffff;opacity:0.8;"/>
    </g>
    <g id="line2d_51">
     <path d="M 68.090865 306.515622 
L 88.090865 306.515622 
" style="fill:none;stroke:#800000;stroke-linecap:square;stroke-width:1.5;"/>
    </g>
    <g id="line2d_52"/>
    <g id="text_42">
     <!-- Standard Model -->
     <g transform="translate(96.090865 310.015622)scale(0.1 -0.1)">
      <use xlink:href="#DejaVuSans-83"/>
      <use x="63.476562" xlink:href="#DejaVuSans-116"/>
      <use x="102.685547" xlink:href="#DejaVuSans-97"/>
      <use x="163.964844" xlink:href="#DejaVuSans-110"/>
      <use x="227.34375" xlink:href="#DejaVuSans-100"/>
      <use x="290.820312" xlink:href="#DejaVuSans-97"/>
      <use x="352.099609" xlink:href="#DejaVuSans-114"/>
      <use x="393.197266" xlink:href="#DejaVuSans-100"/>
      <use x="456.673828" xlink:href="#DejaVuSans-32"/>
      <use x="488.460938" xlink:href="#DejaVuSans-77"/>
      <use x="574.740234" xlink:href="#DejaVuSans-111"/>
      <use x="635.921875" xlink:href="#DejaVuSans-100"/>
      <use x="699.398438" xlink:href="#DejaVuSans-101"/>
      <use x="760.921875" xlink:href="#DejaVuSans-108"/>
     </g>
    </g>
    <g id="line2d_53">
     <path d="M 68.090865 321.193747 
L 88.090865 321.193747 
" style="fill:none;stroke:#4682b4;stroke-linecap:square;stroke-width:1.5;"/>
    </g>
    <g id="line2d_54"/>
    <g id="text_43">
     <!-- Sea Level Model -->
     <g transform="translate(96.090865 324.693747)scale(0.1 -0.1)">
      <use xlink:href="#DejaVuSans-83"/>
      <use x="63.476562" xlink:href="#DejaVuSans-101"/>
      <use x="125" xlink:href="#DejaVuSans-97"/>
      <use x="186.279297" xlink:href="#DejaVuSans-32"/>
      <use x="218.066406" xlink:href="#DejaVuSans-76"/>
      <use x="273.763672" xlink:href="#DejaVuSans-101"/>
      <use x="335.287109" xlink:href="#DejaVuSans-118"/>
      <use x="394.466797" xlink:href="#DejaVuSans-101"/>
      <use x="455.990234" xlink:href="#DejaVuSans-108"/>
      <use x="483.773438" xlink:href="#DejaVuSans-32"/>
      <use x="515.560547" xlink:href="#DejaVuSans-77"/>
      <use x="601.839844" xlink:href="#DejaVuSans-111"/>
      <use x="663.021484" xlink:href="#DejaVuSans-100"/>
      <use x="726.498047" xlink:href="#DejaVuSans-101"/>
      <use x="788.021484" xlink:href="#DejaVuSans-108"/>
     </g>
    </g>
    <g id="line2d_55">
     <path d="M 68.090865 335.871872 
L 88.090865 335.871872 
" style="fill:none;stroke:#ff0000;stroke-dasharray:5.55,2.4;stroke-dashoffset:0;stroke-opacity:0.4;stroke-width:1.5;"/>
    </g>
    <g id="line2d_56"/>
    <g id="text_44">
     <!-- Present Day -->
     <defs>
      <path d="M 19.671875 64.796875 
L 19.671875 37.40625 
L 32.078125 37.40625 
Q 38.96875 37.40625 42.71875 40.96875 
Q 46.484375 44.53125 46.484375 51.125 
Q 46.484375 57.671875 42.71875 61.234375 
Q 38.96875 64.796875 32.078125 64.796875 
z
M 9.8125 72.90625 
L 32.078125 72.90625 
Q 44.34375 72.90625 50.609375 67.359375 
Q 56.890625 61.8125 56.890625 51.125 
Q 56.890625 40.328125 50.609375 34.8125 
Q 44.34375 29.296875 32.078125 29.296875 
L 19.671875 29.296875 
L 19.671875 0 
L 9.8125 0 
z
" id="DejaVuSans-80"/>
      <path d="M 44.28125 53.078125 
L 44.28125 44.578125 
Q 40.484375 46.53125 36.375 47.5 
Q 32.28125 48.484375 27.875 48.484375 
Q 21.1875 48.484375 17.84375 46.4375 
Q 14.5 44.390625 14.5 40.28125 
Q 14.5 37.15625 16.890625 35.375 
Q 19.28125 33.59375 26.515625 31.984375 
L 29.59375 31.296875 
Q 39.15625 29.25 43.1875 25.515625 
Q 47.21875 21.78125 47.21875 15.09375 
Q 47.21875 7.46875 41.1875 3.015625 
Q 35.15625 -1.421875 24.609375 -1.421875 
Q 20.21875 -1.421875 15.453125 -0.5625 
Q 10.6875 0.296875 5.421875 2 
L 5.421875 11.28125 
Q 10.40625 8.6875 15.234375 7.390625 
Q 20.0625 6.109375 24.8125 6.109375 
Q 31.15625 6.109375 34.5625 8.28125 
Q 37.984375 10.453125 37.984375 14.40625 
Q 37.984375 18.0625 35.515625 20.015625 
Q 33.0625 21.96875 24.703125 23.78125 
L 21.578125 24.515625 
Q 13.234375 26.265625 9.515625 29.90625 
Q 5.8125 33.546875 5.8125 39.890625 
Q 5.8125 47.609375 11.28125 51.796875 
Q 16.75 56 26.8125 56 
Q 31.78125 56 36.171875 55.265625 
Q 40.578125 54.546875 44.28125 53.078125 
z
" id="DejaVuSans-115"/>
     </defs>
     <g transform="translate(96.090865 339.371872)scale(0.1 -0.1)">
      <use xlink:href="#DejaVuSans-80"/>
      <use x="60.287109" xlink:href="#DejaVuSans-114"/>
      <use x="101.369141" xlink:href="#DejaVuSans-101"/>
      <use x="162.892578" xlink:href="#DejaVuSans-115"/>
      <use x="214.992188" xlink:href="#DejaVuSans-101"/>
      <use x="276.515625" xlink:href="#DejaVuSans-110"/>
      <use x="339.894531" xlink:href="#DejaVuSans-116"/>
      <use x="379.103516" xlink:href="#DejaVuSans-32"/>
      <use x="410.890625" xlink:href="#DejaVuSans-68"/>
      <use x="487.892578" xlink:href="#DejaVuSans-97"/>
      <use x="549.171875" xlink:href="#DejaVuSans-121"/>
     </g>
    </g>
   </g>
  </g>
  <g id="axes_4">
   <g id="patch_20">
    <path d="M 416.297896 542.64351 
L 716.99976 542.64351 
L 716.99976 293.417184 
L 416.297896 293.417184 
z
" style="fill:#ffffff;"/>
   </g>
   <g id="matplotlib.axis_7">
    <g id="xtick_13">
     <g id="line2d_57">
      <g>
       <use style="stroke:#000000;stroke-width:0.8;" x="659.841554" xlink:href="#mddbacf9650" y="542.64351"/>
      </g>
     </g>
     <g id="text_45">
      <!-- 450 -->
      <g transform="translate(650.297804 557.241948)scale(0.1 -0.1)">
       <use xlink:href="#DejaVuSans-52"/>
       <use x="63.623047" xlink:href="#DejaVuSans-53"/>
       <use x="127.246094" xlink:href="#DejaVuSans-48"/>
      </g>
     </g>
    </g>
    <g id="xtick_14">
     <g id="line2d_58">
      <g>
       <use style="stroke:#000000;stroke-width:0.8;" x="597.71307" xlink:href="#mddbacf9650" y="542.64351"/>
      </g>
     </g>
     <g id="text_46">
      <!-- 460 -->
      <g transform="translate(588.16932 557.241948)scale(0.1 -0.1)">
       <use xlink:href="#DejaVuSans-52"/>
       <use x="63.623047" xlink:href="#DejaVuSans-54"/>
       <use x="127.246094" xlink:href="#DejaVuSans-48"/>
      </g>
     </g>
    </g>
    <g id="xtick_15">
     <g id="line2d_59">
      <g>
       <use style="stroke:#000000;stroke-width:0.8;" x="535.584586" xlink:href="#mddbacf9650" y="542.64351"/>
      </g>
     </g>
     <g id="text_47">
      <!-- 470 -->
      <g transform="translate(526.040836 557.241948)scale(0.1 -0.1)">
       <use xlink:href="#DejaVuSans-52"/>
       <use x="63.623047" xlink:href="#DejaVuSans-55"/>
       <use x="127.246094" xlink:href="#DejaVuSans-48"/>
      </g>
     </g>
    </g>
    <g id="xtick_16">
     <g id="line2d_60">
      <g>
       <use style="stroke:#000000;stroke-width:0.8;" x="473.456102" xlink:href="#mddbacf9650" y="542.64351"/>
      </g>
     </g>
     <g id="text_48">
      <!-- 480 -->
      <g transform="translate(463.912352 557.241948)scale(0.1 -0.1)">
       <use xlink:href="#DejaVuSans-52"/>
       <use x="63.623047" xlink:href="#DejaVuSans-56"/>
       <use x="127.246094" xlink:href="#DejaVuSans-48"/>
      </g>
     </g>
    </g>
    <g id="text_49">
     <!-- Age (Ma) -->
     <g transform="translate(544.108984 570.920073)scale(0.1 -0.1)">
      <use xlink:href="#DejaVuSans-65"/>
      <use x="68.408203" xlink:href="#DejaVuSans-103"/>
      <use x="131.884766" xlink:href="#DejaVuSans-101"/>
      <use x="193.408203" xlink:href="#DejaVuSans-32"/>
      <use x="225.195312" xlink:href="#DejaVuSans-40"/>
      <use x="264.208984" xlink:href="#DejaVuSans-77"/>
      <use x="350.488281" xlink:href="#DejaVuSans-97"/>
      <use x="411.767578" xlink:href="#DejaVuSans-41"/>
     </g>
    </g>
   </g>
   <g id="matplotlib.axis_8">
    <g id="ytick_18">
     <g id="line2d_61">
      <g>
       <use style="stroke:#000000;stroke-width:0.8;" x="416.297896" xlink:href="#m201edc9a2c" y="516.937548"/>
      </g>
     </g>
     <g id="text_50">
      <!-- 140 -->
      <g transform="translate(390.210396 520.736767)scale(0.1 -0.1)">
       <use xlink:href="#DejaVuSans-49"/>
       <use x="63.623047" xlink:href="#DejaVuSans-52"/>
       <use x="127.246094" xlink:href="#DejaVuSans-48"/>
      </g>
     </g>
    </g>
    <g id="ytick_19">
     <g id="line2d_62">
      <g>
       <use style="stroke:#000000;stroke-width:0.8;" x="416.297896" xlink:href="#m201edc9a2c" y="467.359986"/>
      </g>
     </g>
     <g id="text_51">
      <!-- 160 -->
      <g transform="translate(390.210396 471.159205)scale(0.1 -0.1)">
       <use xlink:href="#DejaVuSans-49"/>
       <use x="63.623047" xlink:href="#DejaVuSans-54"/>
       <use x="127.246094" xlink:href="#DejaVuSans-48"/>
      </g>
     </g>
    </g>
    <g id="ytick_20">
     <g id="line2d_63">
      <g>
       <use style="stroke:#000000;stroke-width:0.8;" x="416.297896" xlink:href="#m201edc9a2c" y="417.782425"/>
      </g>
     </g>
     <g id="text_52">
      <!-- 180 -->
      <g transform="translate(390.210396 421.581643)scale(0.1 -0.1)">
       <use xlink:href="#DejaVuSans-49"/>
       <use x="63.623047" xlink:href="#DejaVuSans-56"/>
       <use x="127.246094" xlink:href="#DejaVuSans-48"/>
      </g>
     </g>
    </g>
    <g id="ytick_21">
     <g id="line2d_64">
      <g>
       <use style="stroke:#000000;stroke-width:0.8;" x="416.297896" xlink:href="#m201edc9a2c" y="368.204863"/>
      </g>
     </g>
     <g id="text_53">
      <!-- 200 -->
      <g transform="translate(390.210396 372.004082)scale(0.1 -0.1)">
       <use xlink:href="#DejaVuSans-50"/>
       <use x="63.623047" xlink:href="#DejaVuSans-48"/>
       <use x="127.246094" xlink:href="#DejaVuSans-48"/>
      </g>
     </g>
    </g>
    <g id="ytick_22">
     <g id="line2d_65">
      <g>
       <use style="stroke:#000000;stroke-width:0.8;" x="416.297896" xlink:href="#m201edc9a2c" y="318.627302"/>
      </g>
     </g>
     <g id="text_54">
      <!-- 220 -->
      <g transform="translate(390.210396 322.42652)scale(0.1 -0.1)">
       <use xlink:href="#DejaVuSans-50"/>
       <use x="63.623047" xlink:href="#DejaVuSans-50"/>
       <use x="127.246094" xlink:href="#DejaVuSans-48"/>
      </g>
     </g>
    </g>
    <g id="text_55">
     <!-- Sea Level (m) -->
     <g transform="translate(384.130709 452.58191)rotate(-90)scale(0.1 -0.1)">
      <use xlink:href="#DejaVuSans-83"/>
      <use x="63.476562" xlink:href="#DejaVuSans-101"/>
      <use x="125" xlink:href="#DejaVuSans-97"/>
      <use x="186.279297" xlink:href="#DejaVuSans-32"/>
      <use x="218.066406" xlink:href="#DejaVuSans-76"/>
      <use x="273.763672" xlink:href="#DejaVuSans-101"/>
      <use x="335.287109" xlink:href="#DejaVuSans-118"/>
      <use x="394.466797" xlink:href="#DejaVuSans-101"/>
      <use x="455.990234" xlink:href="#DejaVuSans-108"/>
      <use x="483.773438" xlink:href="#DejaVuSans-32"/>
      <use x="515.560547" xlink:href="#DejaVuSans-40"/>
      <use x="554.574219" xlink:href="#DejaVuSans-109"/>
      <use x="651.986328" xlink:href="#DejaVuSans-41"/>
     </g>
    </g>
   </g>
   <g id="line2d_66">
    <path clip-path="url(#p16395b3df5)" d="M 429.966163 479.258601 
L 434.575148 470.671448 
L 436.879641 466.849397 
L 441.72099 460.089773 
L 443.56349 457.777274 
L 450.77494 449.318519 
L 453.798391 445.774226 
L 456.988596 442.12887 
L 460.009313 438.587785 
L 463.199518 434.596092 
L 466.392457 430.699422 
L 475.626831 419.472873 
L 477.690759 417.017762 
L 481.755743 412.642975 
L 483.442424 411.052935 
L 486.772047 408.538028 
L 489.811899 406.72888 
L 493.636319 405.020807 
L 495.949012 404.217429 
L 502.843355 402.681023 
L 505.929681 402.300918 
L 515.235129 401.669717 
L 518.337857 401.780782 
L 520.748963 402.084343 
L 523.87356 402.946417 
L 527.014559 404.319228 
L 533.274688 407.943191 
L 536.44029 410.080114 
L 545.434099 414.977021 
L 548.739119 415.915642 
L 552.525267 416.407499 
L 558.725255 416.790873 
L 564.003992 416.680371 
L 567.363686 415.761987 
L 570.004421 414.589055 
L 573.478929 411.391424 
L 577.010845 407.279226 
L 579.394614 404.056891 
L 582.305984 398.483982 
L 586.168675 383.883135 
L 594.470863 349.907154 
L 595.321038 346.971082 
L 599.334081 333.909292 
L 601.387075 327.882424 
L 604.454265 320.590087 
L 607.532389 314.934396 
L 610.747197 310.510942 
L 613.592959 307.498227 
L 616.624611 305.693566 
L 622.91481 304.801498 
L 626.37565 305.466315 
L 629.505714 306.581663 
L 635.374926 309.514602 
L 639.877298 312.965326 
L 642.058776 314.66861 
L 648.340774 320.330454 
L 652.526039 324.83206 
L 654.149845 326.812485 
L 657.545076 331.883197 
L 662.558647 340.501594 
L 663.34868 342.112378 
L 667.222306 351.356137 
L 669.636146 357.823436 
L 672.782612 368.236886 
L 675.841601 380.645986 
L 679.108349 397.099019 
L 682.599259 417.802519 
L 693.689802 489.321092 
L 694.712198 495.203388 
L 697.629036 510.420078 
L 700.688024 522.877252 
L 703.331493 531.315041 
L 703.331493 531.315041 
" style="fill:none;stroke:#4682b4;stroke-linecap:square;stroke-width:1.5;"/>
   </g>
   <g id="patch_21">
    <path d="M 416.297896 542.64351 
L 416.297896 293.417184 
" style="fill:none;stroke:#000000;stroke-linecap:square;stroke-linejoin:miter;stroke-width:0.8;"/>
   </g>
   <g id="patch_22">
    <path d="M 716.99976 542.64351 
L 716.99976 293.417184 
" style="fill:none;stroke:#000000;stroke-linecap:square;stroke-linejoin:miter;stroke-width:0.8;"/>
   </g>
   <g id="patch_23">
    <path d="M 416.297896 542.64351 
L 716.99976 542.64351 
" style="fill:none;stroke:#000000;stroke-linecap:square;stroke-linejoin:miter;stroke-width:0.8;"/>
   </g>
   <g id="patch_24">
    <path d="M 416.297896 293.417184 
L 716.99976 293.417184 
" style="fill:none;stroke:#000000;stroke-linecap:square;stroke-linejoin:miter;stroke-width:0.8;"/>
   </g>
   <g id="legend_4">
    <g id="patch_25">
     <path d="M 423.297896 316.095309 
L 503.679146 316.095309 
Q 505.679146 316.095309 505.679146 314.095309 
L 505.679146 300.417184 
Q 505.679146 298.417184 503.679146 298.417184 
L 423.297896 298.417184 
Q 421.297896 298.417184 421.297896 300.417184 
L 421.297896 314.095309 
Q 421.297896 316.095309 423.297896 316.095309 
z
" style="fill:#ffffff;opacity:0.8;"/>
    </g>
    <g id="line2d_67">
     <path d="M 425.297896 306.515622 
L 445.297896 306.515622 
" style="fill:none;stroke:#4682b4;stroke-linecap:square;stroke-width:1.5;"/>
    </g>
    <g id="line2d_68"/>
    <g id="text_56">
     <!-- Sea Level -->
     <g transform="translate(453.297896 310.015622)scale(0.1 -0.1)">
      <use xlink:href="#DejaVuSans-83"/>
      <use x="63.476562" xlink:href="#DejaVuSans-101"/>
      <use x="125" xlink:href="#DejaVuSans-97"/>
      <use x="186.279297" xlink:href="#DejaVuSans-32"/>
      <use x="218.066406" xlink:href="#DejaVuSans-76"/>
      <use x="273.763672" xlink:href="#DejaVuSans-101"/>
      <use x="335.287109" xlink:href="#DejaVuSans-118"/>
      <use x="394.466797" xlink:href="#DejaVuSans-101"/>
      <use x="455.990234" xlink:href="#DejaVuSans-108"/>
     </g>
    </g>
   </g>
  </g>
 </g>
 <defs>
  <clipPath id="p0fc1c109bc">
   <rect height="249.226326" width="300.701864" x="59.090865" y="5.153816"/>
  </clipPath>
  <clipPath id="pf0b8e639d4">
   <rect height="249.226326" width="300.701864" x="416.297896" y="5.153816"/>
  </clipPath>
  <clipPath id="p4794707335">
   <rect height="249.226326" width="300.701864" x="59.090865" y="293.417184"/>
  </clipPath>
  <clipPath id="p16395b3df5">
   <rect height="249.226326" width="300.701864" x="416.297896" y="293.417184"/>
  </clipPath>
 </defs>
</svg>
