<?xml version="1.0" encoding="utf-8" standalone="no"?>
<!DOCTYPE svg PUBLIC "-//W3C//DTD SVG 1.1//EN"
  "http://www.w3.org/Graphics/SVG/1.1/DTD/svg11.dtd">
<svg height="504pt" version="1.1" viewBox="0 0 720 504" width="720pt" xmlns="http://www.w3.org/2000/svg" xmlns:xlink="http://www.w3.org/1999/xlink">
 <metadata>
  <rdf:RDF xmlns:cc="http://creativecommons.org/ns#" xmlns:dc="http://purl.org/dc/elements/1.1/" xmlns:rdf="http://www.w3.org/1999/02/22-rdf-syntax-ns#">
   <cc:Work>
    <dc:type rdf:resource="http://purl.org/dc/dcmitype/StillImage"/>
    <dc:date>2022-04-26T15:27:16.367242</dc:date>
    <dc:format>image/svg+xml</dc:format>
    <dc:creator>
     <cc:Agent>
      <dc:title>Matplotlib v3.4.2, https://matplotlib.org/</dc:title>
     </cc:Agent>
    </dc:creator>
   </cc:Work>
  </rdf:RDF>
 </metadata>
 <defs>
  <style type="text/css">*{stroke-linecap:butt;stroke-linejoin:round;}</style>
 </defs>
 <g id="figure_1">
  <g id="patch_1">
   <path d="M 0 504 
L 720 504 
L 720 0 
L 0 0 
z
" style="fill:none;"/>
  </g>
  <g id="axes_1">
   <g id="patch_2">
    <path d="M 86.02 227.35 
L 709.2 227.35 
L 709.2 10.8 
L 86.02 10.8 
z
" style="fill:#ffffff;"/>
   </g>
   <g id="matplotlib.axis_1">
    <g id="xtick_1">
     <g id="line2d_1">
      <defs>
       <path d="M 0 0 
L 0 3.5 
" id="mdc90e28579" style="stroke:#000000;stroke-width:0.8;"/>
      </defs>
      <g>
       <use style="stroke:#000000;stroke-width:0.8;" x="128.495736" xlink:href="#mdc90e28579" y="227.35"/>
      </g>
     </g>
    </g>
    <g id="xtick_2">
     <g id="line2d_2">
      <g>
       <use style="stroke:#000000;stroke-width:0.8;" x="199.313416" xlink:href="#mdc90e28579" y="227.35"/>
      </g>
     </g>
    </g>
    <g id="xtick_3">
     <g id="line2d_3">
      <g>
       <use style="stroke:#000000;stroke-width:0.8;" x="270.131095" xlink:href="#mdc90e28579" y="227.35"/>
      </g>
     </g>
    </g>
    <g id="xtick_4">
     <g id="line2d_4">
      <g>
       <use style="stroke:#000000;stroke-width:0.8;" x="340.948775" xlink:href="#mdc90e28579" y="227.35"/>
      </g>
     </g>
    </g>
    <g id="xtick_5">
     <g id="line2d_5">
      <g>
       <use style="stroke:#000000;stroke-width:0.8;" x="411.766454" xlink:href="#mdc90e28579" y="227.35"/>
      </g>
     </g>
    </g>
    <g id="xtick_6">
     <g id="line2d_6">
      <g>
       <use style="stroke:#000000;stroke-width:0.8;" x="482.584134" xlink:href="#mdc90e28579" y="227.35"/>
      </g>
     </g>
    </g>
    <g id="xtick_7">
     <g id="line2d_7">
      <g>
       <use style="stroke:#000000;stroke-width:0.8;" x="553.401813" xlink:href="#mdc90e28579" y="227.35"/>
      </g>
     </g>
    </g>
    <g id="xtick_8">
     <g id="line2d_8">
      <g>
       <use style="stroke:#000000;stroke-width:0.8;" x="624.219493" xlink:href="#mdc90e28579" y="227.35"/>
      </g>
     </g>
    </g>
    <g id="xtick_9">
     <g id="line2d_9">
      <g>
       <use style="stroke:#000000;stroke-width:0.8;" x="695.037172" xlink:href="#mdc90e28579" y="227.35"/>
      </g>
     </g>
    </g>
   </g>
   <g id="matplotlib.axis_2">
    <g id="ytick_1">
     <g id="line2d_10">
      <defs>
       <path d="M 0 0 
L -3.5 0 
" id="me2d1d356ad" style="stroke:#000000;stroke-width:0.8;"/>
      </defs>
      <g>
       <use style="stroke:#000000;stroke-width:0.8;" x="86.02" xlink:href="#me2d1d356ad" y="219.147069"/>
      </g>
     </g>
     <g id="text_1">
      <!-- 5000 -->
      <g transform="translate(53.57 222.946287)scale(0.1 -0.1)">
       <defs>
        <path d="M 691 4666 
L 3169 4666 
L 3169 4134 
L 1269 4134 
L 1269 2991 
Q 1406 3038 1543 3061 
Q 1681 3084 1819 3084 
Q 2600 3084 3056 2656 
Q 3513 2228 3513 1497 
Q 3513 744 3044 326 
Q 2575 -91 1722 -91 
Q 1428 -91 1123 -41 
Q 819 9 494 109 
L 494 744 
Q 775 591 1075 516 
Q 1375 441 1709 441 
Q 2250 441 2565 725 
Q 2881 1009 2881 1497 
Q 2881 1984 2565 2268 
Q 2250 2553 1709 2553 
Q 1456 2553 1204 2497 
Q 953 2441 691 2322 
L 691 4666 
z
" id="DejaVuSans-35" transform="scale(0.015625)"/>
        <path d="M 2034 4250 
Q 1547 4250 1301 3770 
Q 1056 3291 1056 2328 
Q 1056 1369 1301 889 
Q 1547 409 2034 409 
Q 2525 409 2770 889 
Q 3016 1369 3016 2328 
Q 3016 3291 2770 3770 
Q 2525 4250 2034 4250 
z
M 2034 4750 
Q 2819 4750 3233 4129 
Q 3647 3509 3647 2328 
Q 3647 1150 3233 529 
Q 2819 -91 2034 -91 
Q 1250 -91 836 529 
Q 422 1150 422 2328 
Q 422 3509 836 4129 
Q 1250 4750 2034 4750 
z
" id="DejaVuSans-30" transform="scale(0.015625)"/>
       </defs>
       <use xlink:href="#DejaVuSans-35"/>
       <use x="63.623047" xlink:href="#DejaVuSans-30"/>
       <use x="127.246094" xlink:href="#DejaVuSans-30"/>
       <use x="190.869141" xlink:href="#DejaVuSans-30"/>
      </g>
     </g>
    </g>
    <g id="ytick_2">
     <g id="line2d_11">
      <g>
       <use style="stroke:#000000;stroke-width:0.8;" x="86.02" xlink:href="#me2d1d356ad" y="176.765379"/>
      </g>
     </g>
     <g id="text_2">
      <!-- 5500 -->
      <g transform="translate(53.57 180.564598)scale(0.1 -0.1)">
       <use xlink:href="#DejaVuSans-35"/>
       <use x="63.623047" xlink:href="#DejaVuSans-35"/>
       <use x="127.246094" xlink:href="#DejaVuSans-30"/>
       <use x="190.869141" xlink:href="#DejaVuSans-30"/>
      </g>
     </g>
    </g>
    <g id="ytick_3">
     <g id="line2d_12">
      <g>
       <use style="stroke:#000000;stroke-width:0.8;" x="86.02" xlink:href="#me2d1d356ad" y="134.383689"/>
      </g>
     </g>
     <g id="text_3">
      <!-- 6000 -->
      <g transform="translate(53.57 138.182908)scale(0.1 -0.1)">
       <defs>
        <path d="M 2113 2584 
Q 1688 2584 1439 2293 
Q 1191 2003 1191 1497 
Q 1191 994 1439 701 
Q 1688 409 2113 409 
Q 2538 409 2786 701 
Q 3034 994 3034 1497 
Q 3034 2003 2786 2293 
Q 2538 2584 2113 2584 
z
M 3366 4563 
L 3366 3988 
Q 3128 4100 2886 4159 
Q 2644 4219 2406 4219 
Q 1781 4219 1451 3797 
Q 1122 3375 1075 2522 
Q 1259 2794 1537 2939 
Q 1816 3084 2150 3084 
Q 2853 3084 3261 2657 
Q 3669 2231 3669 1497 
Q 3669 778 3244 343 
Q 2819 -91 2113 -91 
Q 1303 -91 875 529 
Q 447 1150 447 2328 
Q 447 3434 972 4092 
Q 1497 4750 2381 4750 
Q 2619 4750 2861 4703 
Q 3103 4656 3366 4563 
z
" id="DejaVuSans-36" transform="scale(0.015625)"/>
       </defs>
       <use xlink:href="#DejaVuSans-36"/>
       <use x="63.623047" xlink:href="#DejaVuSans-30"/>
       <use x="127.246094" xlink:href="#DejaVuSans-30"/>
       <use x="190.869141" xlink:href="#DejaVuSans-30"/>
      </g>
     </g>
    </g>
    <g id="ytick_4">
     <g id="line2d_13">
      <g>
       <use style="stroke:#000000;stroke-width:0.8;" x="86.02" xlink:href="#me2d1d356ad" y="92.002"/>
      </g>
     </g>
     <g id="text_4">
      <!-- 6500 -->
      <g transform="translate(53.57 95.801218)scale(0.1 -0.1)">
       <use xlink:href="#DejaVuSans-36"/>
       <use x="63.623047" xlink:href="#DejaVuSans-35"/>
       <use x="127.246094" xlink:href="#DejaVuSans-30"/>
       <use x="190.869141" xlink:href="#DejaVuSans-30"/>
      </g>
     </g>
    </g>
    <g id="ytick_5">
     <g id="line2d_14">
      <g>
       <use style="stroke:#000000;stroke-width:0.8;" x="86.02" xlink:href="#me2d1d356ad" y="49.62031"/>
      </g>
     </g>
     <g id="text_5">
      <!-- 7000 -->
      <g transform="translate(53.57 53.419529)scale(0.1 -0.1)">
       <defs>
        <path d="M 525 4666 
L 3525 4666 
L 3525 4397 
L 1831 0 
L 1172 0 
L 2766 4134 
L 525 4134 
L 525 4666 
z
" id="DejaVuSans-37" transform="scale(0.015625)"/>
       </defs>
       <use xlink:href="#DejaVuSans-37"/>
       <use x="63.623047" xlink:href="#DejaVuSans-30"/>
       <use x="127.246094" xlink:href="#DejaVuSans-30"/>
       <use x="190.869141" xlink:href="#DejaVuSans-30"/>
      </g>
     </g>
    </g>
    <g id="text_6">
     <!-- Silicate Weathering -->
     <g transform="translate(28.430438 187.064688)rotate(-90)scale(0.14 -0.14)">
      <defs>
       <path d="M 3425 4513 
L 3425 3897 
Q 3066 4069 2747 4153 
Q 2428 4238 2131 4238 
Q 1616 4238 1336 4038 
Q 1056 3838 1056 3469 
Q 1056 3159 1242 3001 
Q 1428 2844 1947 2747 
L 2328 2669 
Q 3034 2534 3370 2195 
Q 3706 1856 3706 1288 
Q 3706 609 3251 259 
Q 2797 -91 1919 -91 
Q 1588 -91 1214 -16 
Q 841 59 441 206 
L 441 856 
Q 825 641 1194 531 
Q 1563 422 1919 422 
Q 2459 422 2753 634 
Q 3047 847 3047 1241 
Q 3047 1584 2836 1778 
Q 2625 1972 2144 2069 
L 1759 2144 
Q 1053 2284 737 2584 
Q 422 2884 422 3419 
Q 422 4038 858 4394 
Q 1294 4750 2059 4750 
Q 2388 4750 2728 4690 
Q 3069 4631 3425 4513 
z
" id="DejaVuSans-53" transform="scale(0.015625)"/>
       <path d="M 603 3500 
L 1178 3500 
L 1178 0 
L 603 0 
L 603 3500 
z
M 603 4863 
L 1178 4863 
L 1178 4134 
L 603 4134 
L 603 4863 
z
" id="DejaVuSans-69" transform="scale(0.015625)"/>
       <path d="M 603 4863 
L 1178 4863 
L 1178 0 
L 603 0 
L 603 4863 
z
" id="DejaVuSans-6c" transform="scale(0.015625)"/>
       <path d="M 3122 3366 
L 3122 2828 
Q 2878 2963 2633 3030 
Q 2388 3097 2138 3097 
Q 1578 3097 1268 2742 
Q 959 2388 959 1747 
Q 959 1106 1268 751 
Q 1578 397 2138 397 
Q 2388 397 2633 464 
Q 2878 531 3122 666 
L 3122 134 
Q 2881 22 2623 -34 
Q 2366 -91 2075 -91 
Q 1284 -91 818 406 
Q 353 903 353 1747 
Q 353 2603 823 3093 
Q 1294 3584 2113 3584 
Q 2378 3584 2631 3529 
Q 2884 3475 3122 3366 
z
" id="DejaVuSans-63" transform="scale(0.015625)"/>
       <path d="M 2194 1759 
Q 1497 1759 1228 1600 
Q 959 1441 959 1056 
Q 959 750 1161 570 
Q 1363 391 1709 391 
Q 2188 391 2477 730 
Q 2766 1069 2766 1631 
L 2766 1759 
L 2194 1759 
z
M 3341 1997 
L 3341 0 
L 2766 0 
L 2766 531 
Q 2569 213 2275 61 
Q 1981 -91 1556 -91 
Q 1019 -91 701 211 
Q 384 513 384 1019 
Q 384 1609 779 1909 
Q 1175 2209 1959 2209 
L 2766 2209 
L 2766 2266 
Q 2766 2663 2505 2880 
Q 2244 3097 1772 3097 
Q 1472 3097 1187 3025 
Q 903 2953 641 2809 
L 641 3341 
Q 956 3463 1253 3523 
Q 1550 3584 1831 3584 
Q 2591 3584 2966 3190 
Q 3341 2797 3341 1997 
z
" id="DejaVuSans-61" transform="scale(0.015625)"/>
       <path d="M 1172 4494 
L 1172 3500 
L 2356 3500 
L 2356 3053 
L 1172 3053 
L 1172 1153 
Q 1172 725 1289 603 
Q 1406 481 1766 481 
L 2356 481 
L 2356 0 
L 1766 0 
Q 1100 0 847 248 
Q 594 497 594 1153 
L 594 3053 
L 172 3053 
L 172 3500 
L 594 3500 
L 594 4494 
L 1172 4494 
z
" id="DejaVuSans-74" transform="scale(0.015625)"/>
       <path d="M 3597 1894 
L 3597 1613 
L 953 1613 
Q 991 1019 1311 708 
Q 1631 397 2203 397 
Q 2534 397 2845 478 
Q 3156 559 3463 722 
L 3463 178 
Q 3153 47 2828 -22 
Q 2503 -91 2169 -91 
Q 1331 -91 842 396 
Q 353 884 353 1716 
Q 353 2575 817 3079 
Q 1281 3584 2069 3584 
Q 2775 3584 3186 3129 
Q 3597 2675 3597 1894 
z
M 3022 2063 
Q 3016 2534 2758 2815 
Q 2500 3097 2075 3097 
Q 1594 3097 1305 2825 
Q 1016 2553 972 2059 
L 3022 2063 
z
" id="DejaVuSans-65" transform="scale(0.015625)"/>
       <path id="DejaVuSans-20" transform="scale(0.015625)"/>
       <path d="M 213 4666 
L 850 4666 
L 1831 722 
L 2809 4666 
L 3519 4666 
L 4500 722 
L 5478 4666 
L 6119 4666 
L 4947 0 
L 4153 0 
L 3169 4050 
L 2175 0 
L 1381 0 
L 213 4666 
z
" id="DejaVuSans-57" transform="scale(0.015625)"/>
       <path d="M 3513 2113 
L 3513 0 
L 2938 0 
L 2938 2094 
Q 2938 2591 2744 2837 
Q 2550 3084 2163 3084 
Q 1697 3084 1428 2787 
Q 1159 2491 1159 1978 
L 1159 0 
L 581 0 
L 581 4863 
L 1159 4863 
L 1159 2956 
Q 1366 3272 1645 3428 
Q 1925 3584 2291 3584 
Q 2894 3584 3203 3211 
Q 3513 2838 3513 2113 
z
" id="DejaVuSans-68" transform="scale(0.015625)"/>
       <path d="M 2631 2963 
Q 2534 3019 2420 3045 
Q 2306 3072 2169 3072 
Q 1681 3072 1420 2755 
Q 1159 2438 1159 1844 
L 1159 0 
L 581 0 
L 581 3500 
L 1159 3500 
L 1159 2956 
Q 1341 3275 1631 3429 
Q 1922 3584 2338 3584 
Q 2397 3584 2469 3576 
Q 2541 3569 2628 3553 
L 2631 2963 
z
" id="DejaVuSans-72" transform="scale(0.015625)"/>
       <path d="M 3513 2113 
L 3513 0 
L 2938 0 
L 2938 2094 
Q 2938 2591 2744 2837 
Q 2550 3084 2163 3084 
Q 1697 3084 1428 2787 
Q 1159 2491 1159 1978 
L 1159 0 
L 581 0 
L 581 3500 
L 1159 3500 
L 1159 2956 
Q 1366 3272 1645 3428 
Q 1925 3584 2291 3584 
Q 2894 3584 3203 3211 
Q 3513 2838 3513 2113 
z
" id="DejaVuSans-6e" transform="scale(0.015625)"/>
       <path d="M 2906 1791 
Q 2906 2416 2648 2759 
Q 2391 3103 1925 3103 
Q 1463 3103 1205 2759 
Q 947 2416 947 1791 
Q 947 1169 1205 825 
Q 1463 481 1925 481 
Q 2391 481 2648 825 
Q 2906 1169 2906 1791 
z
M 3481 434 
Q 3481 -459 3084 -895 
Q 2688 -1331 1869 -1331 
Q 1566 -1331 1297 -1286 
Q 1028 -1241 775 -1147 
L 775 -588 
Q 1028 -725 1275 -790 
Q 1522 -856 1778 -856 
Q 2344 -856 2625 -561 
Q 2906 -266 2906 331 
L 2906 616 
Q 2728 306 2450 153 
Q 2172 0 1784 0 
Q 1141 0 747 490 
Q 353 981 353 1791 
Q 353 2603 747 3093 
Q 1141 3584 1784 3584 
Q 2172 3584 2450 3431 
Q 2728 3278 2906 2969 
L 2906 3500 
L 3481 3500 
L 3481 434 
z
" id="DejaVuSans-67" transform="scale(0.015625)"/>
      </defs>
      <use xlink:href="#DejaVuSans-53"/>
      <use x="63.476562" xlink:href="#DejaVuSans-69"/>
      <use x="91.259766" xlink:href="#DejaVuSans-6c"/>
      <use x="119.042969" xlink:href="#DejaVuSans-69"/>
      <use x="146.826172" xlink:href="#DejaVuSans-63"/>
      <use x="201.806641" xlink:href="#DejaVuSans-61"/>
      <use x="263.085938" xlink:href="#DejaVuSans-74"/>
      <use x="302.294922" xlink:href="#DejaVuSans-65"/>
      <use x="363.818359" xlink:href="#DejaVuSans-20"/>
      <use x="395.605469" xlink:href="#DejaVuSans-57"/>
      <use x="488.607422" xlink:href="#DejaVuSans-65"/>
      <use x="550.130859" xlink:href="#DejaVuSans-61"/>
      <use x="611.410156" xlink:href="#DejaVuSans-74"/>
      <use x="650.619141" xlink:href="#DejaVuSans-68"/>
      <use x="713.998047" xlink:href="#DejaVuSans-65"/>
      <use x="775.521484" xlink:href="#DejaVuSans-72"/>
      <use x="816.634766" xlink:href="#DejaVuSans-69"/>
      <use x="844.417969" xlink:href="#DejaVuSans-6e"/>
      <use x="907.796875" xlink:href="#DejaVuSans-67"/>
     </g>
     <!-- ($10^{12} $ mol/yr) -->
     <g transform="translate(46.63 164.645)rotate(-90)scale(0.14 -0.14)">
      <defs>
       <path d="M 1984 4856 
Q 1566 4138 1362 3434 
Q 1159 2731 1159 2009 
Q 1159 1288 1364 580 
Q 1569 -128 1984 -844 
L 1484 -844 
Q 1016 -109 783 600 
Q 550 1309 550 2009 
Q 550 2706 781 3412 
Q 1013 4119 1484 4856 
L 1984 4856 
z
" id="DejaVuSans-28" transform="scale(0.015625)"/>
       <path d="M 794 531 
L 1825 531 
L 1825 4091 
L 703 3866 
L 703 4441 
L 1819 4666 
L 2450 4666 
L 2450 531 
L 3481 531 
L 3481 0 
L 794 0 
L 794 531 
z
" id="DejaVuSans-31" transform="scale(0.015625)"/>
       <path d="M 1228 531 
L 3431 531 
L 3431 0 
L 469 0 
L 469 531 
Q 828 903 1448 1529 
Q 2069 2156 2228 2338 
Q 2531 2678 2651 2914 
Q 2772 3150 2772 3378 
Q 2772 3750 2511 3984 
Q 2250 4219 1831 4219 
Q 1534 4219 1204 4116 
Q 875 4013 500 3803 
L 500 4441 
Q 881 4594 1212 4672 
Q 1544 4750 1819 4750 
Q 2544 4750 2975 4387 
Q 3406 4025 3406 3419 
Q 3406 3131 3298 2873 
Q 3191 2616 2906 2266 
Q 2828 2175 2409 1742 
Q 1991 1309 1228 531 
z
" id="DejaVuSans-32" transform="scale(0.015625)"/>
       <path d="M 3328 2828 
Q 3544 3216 3844 3400 
Q 4144 3584 4550 3584 
Q 5097 3584 5394 3201 
Q 5691 2819 5691 2113 
L 5691 0 
L 5113 0 
L 5113 2094 
Q 5113 2597 4934 2840 
Q 4756 3084 4391 3084 
Q 3944 3084 3684 2787 
Q 3425 2491 3425 1978 
L 3425 0 
L 2847 0 
L 2847 2094 
Q 2847 2600 2669 2842 
Q 2491 3084 2119 3084 
Q 1678 3084 1418 2786 
Q 1159 2488 1159 1978 
L 1159 0 
L 581 0 
L 581 3500 
L 1159 3500 
L 1159 2956 
Q 1356 3278 1631 3431 
Q 1906 3584 2284 3584 
Q 2666 3584 2933 3390 
Q 3200 3197 3328 2828 
z
" id="DejaVuSans-6d" transform="scale(0.015625)"/>
       <path d="M 1959 3097 
Q 1497 3097 1228 2736 
Q 959 2375 959 1747 
Q 959 1119 1226 758 
Q 1494 397 1959 397 
Q 2419 397 2687 759 
Q 2956 1122 2956 1747 
Q 2956 2369 2687 2733 
Q 2419 3097 1959 3097 
z
M 1959 3584 
Q 2709 3584 3137 3096 
Q 3566 2609 3566 1747 
Q 3566 888 3137 398 
Q 2709 -91 1959 -91 
Q 1206 -91 779 398 
Q 353 888 353 1747 
Q 353 2609 779 3096 
Q 1206 3584 1959 3584 
z
" id="DejaVuSans-6f" transform="scale(0.015625)"/>
       <path d="M 1625 4666 
L 2156 4666 
L 531 -594 
L 0 -594 
L 1625 4666 
z
" id="DejaVuSans-2f" transform="scale(0.015625)"/>
       <path d="M 2059 -325 
Q 1816 -950 1584 -1140 
Q 1353 -1331 966 -1331 
L 506 -1331 
L 506 -850 
L 844 -850 
Q 1081 -850 1212 -737 
Q 1344 -625 1503 -206 
L 1606 56 
L 191 3500 
L 800 3500 
L 1894 763 
L 2988 3500 
L 3597 3500 
L 2059 -325 
z
" id="DejaVuSans-79" transform="scale(0.015625)"/>
       <path d="M 513 4856 
L 1013 4856 
Q 1481 4119 1714 3412 
Q 1947 2706 1947 2009 
Q 1947 1309 1714 600 
Q 1481 -109 1013 -844 
L 513 -844 
Q 928 -128 1133 580 
Q 1338 1288 1338 2009 
Q 1338 2731 1133 3434 
Q 928 4138 513 4856 
z
" id="DejaVuSans-29" transform="scale(0.015625)"/>
      </defs>
      <use transform="translate(0 0.765625)" xlink:href="#DejaVuSans-28"/>
      <use transform="translate(39.013672 0.765625)" xlink:href="#DejaVuSans-31"/>
      <use transform="translate(102.636719 0.765625)" xlink:href="#DejaVuSans-30"/>
      <use transform="translate(167.216797 39.046875)scale(0.7)" xlink:href="#DejaVuSans-31"/>
      <use transform="translate(211.75293 39.046875)scale(0.7)" xlink:href="#DejaVuSans-32"/>
      <use transform="translate(259.023438 0.765625)" xlink:href="#DejaVuSans-20"/>
      <use transform="translate(290.810547 0.765625)" xlink:href="#DejaVuSans-6d"/>
      <use transform="translate(388.222656 0.765625)" xlink:href="#DejaVuSans-6f"/>
      <use transform="translate(449.404297 0.765625)" xlink:href="#DejaVuSans-6c"/>
      <use transform="translate(477.1875 0.765625)" xlink:href="#DejaVuSans-2f"/>
      <use transform="translate(510.878906 0.765625)" xlink:href="#DejaVuSans-79"/>
      <use transform="translate(570.058594 0.765625)" xlink:href="#DejaVuSans-72"/>
      <use transform="translate(611.171875 0.765625)" xlink:href="#DejaVuSans-29"/>
     </g>
    </g>
   </g>
   <g id="line2d_15">
    <path clip-path="url(#p1ab065760c)" d="M 680.873636 134.383689 
L 680.533712 134.492661 
L 671.59652 137.647732 
L 663.919884 140.113924 
L 656.21492 142.357104 
L 648.793228 144.287208 
L 641.499007 145.953504 
L 634.077314 147.421704 
L 626.655621 148.663568 
L 619.276419 149.674194 
L 611.741418 150.477323 
L 603.724856 151.107482 
L 594.64603 151.587316 
L 583.924233 151.92338 
L 570.723818 152.107461 
L 552.396202 152.131843 
L 495.557933 152.055436 
L 483.632235 152.408135 
L 471.11167 153.020874 
L 457.543002 153.908191 
L 410.06683 157.194406 
L 399.118417 157.690132 
L 390.846912 157.838853 
L 383.156112 157.757246 
L 376.655049 157.48116 
L 376.25847 157.353191 
L 369.120048 147.991272 
L 359.95624 135.658076 
L 350.42418 122.451689 
L 337.337073 103.888322 
L 317.493959 75.766831 
L 308.44346 63.375284 
L 300.540207 52.924151 
L 293.628401 44.148089 
L 287.127338 36.256538 
L 280.838728 28.966479 
L 277.127882 24.926416 
L 270.683473 26.019021 
L 251.406901 29.490079 
L 239.013807 31.955231 
L 227.909595 34.38451 
L 218.03761 36.757908 
L 209.100419 39.129747 
L 201.579581 41.356945 
L 194.540304 43.676837 
L 188.124222 46.017507 
L 182.373827 48.358436 
L 176.892538 50.832039 
L 172.076936 53.245923 
L 167.572932 55.744423 
L 163.28138 58.384651 
L 159.471389 60.983525 
L 155.675561 63.842136 
L 152.163005 66.767528 
L 148.650448 69.983966 
L 145.307853 73.347402 
L 141.936932 77.057706 
L 138.580174 81.085651 
L 135.223416 85.462612 
L 131.852494 90.227112 
L 128.495736 95.359959 
L 125.153142 100.880433 
L 121.824711 106.811336 
L 118.326317 113.517101 
L 114.799597 120.755373 
L 114.346364 121.722447 
L 114.346364 121.722447 
" style="fill:none;stroke:#1f77b4;stroke-dasharray:5.55,2.4;stroke-dashoffset:0;stroke-opacity:0.5;stroke-width:1.5;"/>
   </g>
   <g id="line2d_16">
    <path clip-path="url(#p1ab065760c)" d="M 680.873636 134.383689 
L 680.732001 134.49268 
L 675.618965 139.949588 
L 671.936445 143.530751 
L 668.31058 146.747875 
L 664.670551 149.682158 
L 660.973868 152.379573 
L 657.263022 154.814341 
L 653.552176 156.983371 
L 649.827166 158.904521 
L 646.087992 160.582664 
L 642.23551 162.066505 
L 638.283884 163.350894 
L 634.233113 164.432913 
L 630.083197 165.310519 
L 625.819972 165.984574 
L 621.457603 166.449507 
L 617.024416 166.696614 
L 612.123833 166.739015 
L 606.939979 166.558748 
L 601.288728 166.137741 
L 594.306105 165.387932 
L 585.142297 164.1653 
L 564.591007 161.128857 
L 548.869482 158.965096 
L 536.419734 157.491777 
L 523.885004 156.225229 
L 513.913875 155.435435 
L 505.755678 155.010594 
L 498.518112 154.856072 
L 491.337199 154.932564 
L 484.312085 155.223008 
L 476.635449 155.781029 
L 467.783239 156.644298 
L 457.727128 157.857426 
L 437.671561 160.291736 
L 424.924379 161.582056 
L 413.848494 162.481219 
L 405.931077 162.897727 
L 399.826593 163.014002 
L 394.331141 162.889834 
L 389.048143 162.54219 
L 383.892615 161.979107 
L 379.402775 161.282624 
L 376.30096 160.614357 
L 372.023572 154.29399 
L 364.389427 142.625437 
L 357.180187 131.180308 
L 349.106971 117.92863 
L 326.657767 80.773164 
L 320.609937 71.28418 
L 315.128649 63.07443 
L 309.958958 55.732732 
L 305.072538 49.18202 
L 300.710169 43.688362 
L 296.418618 38.635301 
L 292.452828 34.31158 
L 288.472874 30.299668 
L 284.464593 26.573548 
L 280.697093 23.362693 
L 277.184536 20.650449 
L 272.638041 23.108832 
L 266.349431 26.379354 
L 259.53677 29.671754 
L 251.421064 33.329576 
L 238.914662 38.742311 
L 213.802713 49.552703 
L 206.451838 52.963422 
L 200.276536 56.056786 
L 194.00209 59.447398 
L 188.478311 62.668983 
L 183.535237 65.825709 
L 178.776288 69.132387 
L 174.513064 72.347877 
L 170.320658 75.800076 
L 166.666465 79.089813 
L 162.870638 82.809171 
L 159.542207 86.384536 
L 156.057977 90.458693 
L 152.871181 94.526216 
L 149.514423 99.176387 
L 146.285137 104.022557 
L 142.885888 109.531297 
L 139.330841 115.719851 
L 135.577504 122.707288 
L 131.611714 130.56711 
L 127.419307 139.376845 
L 122.986121 149.217865 
L 117.660631 161.627645 
L 114.346364 169.542343 
L 114.346364 169.542343 
" style="fill:none;stroke:#ff7f0e;stroke-dasharray:5.55,2.4;stroke-dashoffset:0;stroke-opacity:0.5;stroke-width:1.5;"/>
   </g>
   <g id="line2d_17">
    <path clip-path="url(#p1ab065760c)" d="M 680.873636 134.383689 
L 680.788655 134.47711 
L 676.72372 143.1459 
L 674.230938 147.88551 
L 671.808973 152.021228 
L 669.401172 155.698889 
L 666.993371 158.977551 
L 664.543079 161.940406 
L 662.078624 164.575928 
L 659.585842 166.919703 
L 657.09306 168.962956 
L 654.557787 170.754682 
L 651.980023 172.304984 
L 649.388096 173.606061 
L 646.725351 174.693877 
L 643.963462 175.580205 
L 641.059937 176.277488 
L 638.043104 176.772607 
L 634.884635 177.064983 
L 631.556204 177.148362 
L 628.029484 177.011876 
L 624.276147 176.641027 
L 620.423665 176.038711 
L 616.287913 175.163573 
L 611.302348 173.871867 
L 605.551952 172.142377 
L 597.521228 169.468983 
L 582.819477 164.589169 
L 574.774589 162.183477 
L 568.131891 160.408505 
L 560.851833 158.699516 
L 553.656757 157.228814 
L 546.674134 156.020475 
L 538.92668 154.911712 
L 530.159451 153.885615 
L 522.015418 153.153139 
L 514.551234 152.70382 
L 508.078498 152.542667 
L 502.129813 152.622983 
L 496.591871 152.921179 
L 490.487387 153.476565 
L 484.65201 154.218316 
L 477.825186 155.333338 
L 468.54807 157.070491 
L 443.563592 161.909359 
L 435.801975 163.015562 
L 427.615451 163.961469 
L 419.145656 164.703883 
L 412.757902 165.075676 
L 406.865871 165.203798 
L 401.69618 165.103374 
L 397.319648 164.778705 
L 393.268876 164.265372 
L 388.977325 163.495862 
L 384.728264 162.504497 
L 380.762474 161.363388 
L 377.094118 160.062052 
L 376.25847 159.630826 
L 372.972529 154.097169 
L 364.771842 139.786048 
L 357.251004 126.186871 
L 347.265712 107.619664 
L 339.291641 92.950394 
L 332.578125 81.052445 
L 327.691705 72.824365 
L 323.286845 65.812764 
L 319.094439 59.567984 
L 315.383592 54.422616 
L 311.587765 49.537576 
L 308.032717 45.319473 
L 304.406852 41.358699 
L 301.149239 38.127122 
L 297.820808 35.136701 
L 294.846465 32.752918 
L 291.787141 30.585243 
L 288.628673 28.618876 
L 285.328569 26.826739 
L 282.070956 25.304523 
L 278.912487 24.078938 
L 277.142045 23.561865 
L 269.706189 30.377801 
L 266.30694 33.034875 
L 262.723566 35.552848 
L 258.913575 37.95731 
L 254.749495 40.317731 
L 248.729992 43.457113 
L 242.625508 46.39989 
L 232.923486 50.772632 
L 212.131416 60.088457 
L 206.423511 62.933395 
L 201.466273 65.628822 
L 196.12662 68.789113 
L 190.673659 72.278368 
L 186.608724 75.148852 
L 182.38799 78.399264 
L 178.082275 82.00901 
L 174.583882 85.197878 
L 170.802218 88.95443 
L 167.601259 92.423141 
L 164.117029 96.535539 
L 161.086032 100.428451 
L 157.9134 104.881307 
L 154.726605 109.730227 
L 151.610627 114.902234 
L 148.268032 120.887887 
L 144.982092 127.246841 
L 141.356227 134.761131 
L 137.390437 143.505046 
L 132.928923 153.896174 
L 127.87254 166.253122 
L 122.065491 181.049289 
L 114.346364 201.04358 
L 114.346364 201.04358 
" style="fill:none;stroke:#2ca02c;stroke-dasharray:5.55,2.4;stroke-dashoffset:0;stroke-opacity:0.5;stroke-width:1.5;"/>
   </g>
   <g id="line2d_18">
    <path clip-path="url(#p1ab065760c)" d="M 680.873636 134.383689 
L 680.802819 134.477113 
L 677.16279 146.099279 
L 675.123241 151.779959 
L 673.168673 156.581535 
L 671.242432 160.739078 
L 669.316191 164.379739 
L 667.375787 167.578217 
L 665.421219 170.375171 
L 663.452487 172.811328 
L 661.455429 174.933354 
L 659.430043 176.76392 
L 657.390494 178.31031 
L 655.308454 179.610448 
L 653.16976 180.683846 
L 650.974412 181.537054 
L 648.72241 182.173 
L 646.357099 182.608471 
L 643.83599 182.842886 
L 641.116591 182.871469 
L 638.184739 182.676962 
L 635.012107 182.239942 
L 631.556204 181.536018 
L 627.746213 180.529024 
L 623.511316 179.175068 
L 619.092293 177.528046 
L 613.681822 175.257614 
L 605.452808 171.553633 
L 593.824545 166.334406 
L 587.408463 163.733511 
L 581.757212 161.678894 
L 576.077634 159.841209 
L 570.483038 158.254055 
L 564.775133 156.880191 
L 558.27407 155.547795 
L 551.78717 154.449087 
L 545.314434 153.579808 
L 537.609471 152.777158 
L 528.558971 152.060856 
L 520.613228 151.657358 
L 513.729749 151.527286 
L 507.752737 151.64642 
L 502.200631 151.991036 
L 497.073431 152.53473 
L 491.167236 153.391307 
L 485.303533 154.454823 
L 478.561689 155.936154 
L 465.417928 159.057314 
L 453.194797 161.929247 
L 447.231948 163.069158 
L 441.269099 163.992958 
L 434.34313 164.833131 
L 427.162218 165.489318 
L 419.131493 165.985078 
L 413.437751 166.156903 
L 407.970627 166.1032 
L 402.885917 165.826828 
L 399.104253 165.38802 
L 395.223444 164.717273 
L 391.39929 163.820416 
L 387.461827 162.672788 
L 383.311911 161.223022 
L 380.110951 159.899229 
L 376.640885 158.217502 
L 376.244306 157.889312 
L 373.397435 152.674312 
L 361.783336 130.686761 
L 350.013438 107.82192 
L 342.535091 93.496476 
L 337.082129 83.573893 
L 331.954929 74.708649 
L 327.946649 68.234366 
L 324.164985 62.524516 
L 320.638264 57.618239 
L 317.253179 53.271065 
L 314.009729 49.477329 
L 310.709625 45.951428 
L 307.508666 42.864054 
L 304.208562 39.986751 
L 301.290874 37.741495 
L 298.203223 35.647177 
L 295.526315 34.081577 
L 292.721935 32.700016 
L 289.719265 31.469947 
L 286.447488 30.37288 
L 282.963259 29.438629 
L 279.80479 28.826104 
L 277.170372 28.506332 
L 271.575776 34.654253 
L 269.11132 36.907131 
L 266.434412 39.051857 
L 263.573378 41.056467 
L 260.485727 42.946304 
L 257.100642 44.755267 
L 252.653292 46.852483 
L 245.939776 49.781248 
L 237.994032 52.975351 
L 222.145035 59.403968 
L 214.765833 62.669806 
L 209.341199 65.283602 
L 204.412288 67.92739 
L 199.908284 70.608221 
L 195.007701 73.782262 
L 190.07879 77.233113 
L 186.325453 80.160171 
L 182.38799 83.509174 
L 178.252238 87.33661 
L 174.923807 90.680099 
L 171.340432 94.612373 
L 168.210291 98.346051 
L 164.92435 102.632498 
L 161.765882 107.098649 
L 158.777376 111.742852 
L 155.519763 117.220547 
L 152.54542 122.679856 
L 149.188662 129.319917 
L 145.987703 136.137528 
L 142.319347 144.49113 
L 138.141104 154.573428 
L 133.155539 167.208685 
L 126.994401 183.458096 
L 114.346364 217.506818 
L 114.346364 217.506818 
" style="fill:none;stroke:#d62728;stroke-dasharray:5.55,2.4;stroke-dashoffset:0;stroke-opacity:0.5;stroke-width:1.5;"/>
   </g>
   <g id="patch_3">
    <path d="M 86.02 227.35 
L 86.02 10.8 
" style="fill:none;stroke:#000000;stroke-linecap:square;stroke-linejoin:miter;stroke-width:0.8;"/>
   </g>
   <g id="patch_4">
    <path d="M 709.2 227.35 
L 709.2 10.8 
" style="fill:none;stroke:#000000;stroke-linecap:square;stroke-linejoin:miter;stroke-width:0.8;"/>
   </g>
   <g id="patch_5">
    <path d="M 86.02 227.35 
L 709.2 227.35 
" style="fill:none;stroke:#000000;stroke-linecap:square;stroke-linejoin:miter;stroke-width:0.8;"/>
   </g>
   <g id="patch_6">
    <path d="M 86.02 10.8 
L 709.2 10.8 
" style="fill:none;stroke:#000000;stroke-linecap:square;stroke-linejoin:miter;stroke-width:0.8;"/>
   </g>
   <g id="legend_1">
    <g id="patch_7">
     <path d="M 590.39375 62.834375 
L 702.2 62.834375 
Q 704.2 62.834375 704.2 60.834375 
L 704.2 17.8 
Q 704.2 15.8 702.2 15.8 
L 590.39375 15.8 
Q 588.39375 15.8 588.39375 17.8 
L 588.39375 60.834375 
Q 588.39375 62.834375 590.39375 62.834375 
z
" style="fill:#ffffff;opacity:0.8;stroke:#cccccc;stroke-linejoin:miter;"/>
    </g>
    <g id="text_7">
     <!-- CWF Power -->
     <g transform="translate(618.282813 27.398438)scale(0.1 -0.1)">
      <defs>
       <path d="M 4122 4306 
L 4122 3641 
Q 3803 3938 3442 4084 
Q 3081 4231 2675 4231 
Q 1875 4231 1450 3742 
Q 1025 3253 1025 2328 
Q 1025 1406 1450 917 
Q 1875 428 2675 428 
Q 3081 428 3442 575 
Q 3803 722 4122 1019 
L 4122 359 
Q 3791 134 3420 21 
Q 3050 -91 2638 -91 
Q 1578 -91 968 557 
Q 359 1206 359 2328 
Q 359 3453 968 4101 
Q 1578 4750 2638 4750 
Q 3056 4750 3426 4639 
Q 3797 4528 4122 4306 
z
" id="DejaVuSans-43" transform="scale(0.015625)"/>
       <path d="M 628 4666 
L 3309 4666 
L 3309 4134 
L 1259 4134 
L 1259 2759 
L 3109 2759 
L 3109 2228 
L 1259 2228 
L 1259 0 
L 628 0 
L 628 4666 
z
" id="DejaVuSans-46" transform="scale(0.015625)"/>
       <path d="M 1259 4147 
L 1259 2394 
L 2053 2394 
Q 2494 2394 2734 2622 
Q 2975 2850 2975 3272 
Q 2975 3691 2734 3919 
Q 2494 4147 2053 4147 
L 1259 4147 
z
M 628 4666 
L 2053 4666 
Q 2838 4666 3239 4311 
Q 3641 3956 3641 3272 
Q 3641 2581 3239 2228 
Q 2838 1875 2053 1875 
L 1259 1875 
L 1259 0 
L 628 0 
L 628 4666 
z
" id="DejaVuSans-50" transform="scale(0.015625)"/>
       <path d="M 269 3500 
L 844 3500 
L 1563 769 
L 2278 3500 
L 2956 3500 
L 3675 769 
L 4391 3500 
L 4966 3500 
L 4050 0 
L 3372 0 
L 2619 2869 
L 1863 0 
L 1184 0 
L 269 3500 
z
" id="DejaVuSans-77" transform="scale(0.015625)"/>
      </defs>
      <use xlink:href="#DejaVuSans-43"/>
      <use x="69.824219" xlink:href="#DejaVuSans-57"/>
      <use x="168.701172" xlink:href="#DejaVuSans-46"/>
      <use x="226.220703" xlink:href="#DejaVuSans-20"/>
      <use x="258.007812" xlink:href="#DejaVuSans-50"/>
      <use x="314.685547" xlink:href="#DejaVuSans-6f"/>
      <use x="375.867188" xlink:href="#DejaVuSans-77"/>
      <use x="457.654297" xlink:href="#DejaVuSans-65"/>
      <use x="519.177734" xlink:href="#DejaVuSans-72"/>
     </g>
    </g>
    <g id="line2d_19">
     <path d="M 592.39375 38.576563 
L 612.39375 38.576563 
" style="fill:none;stroke:#1f77b4;stroke-dasharray:5.55,2.4;stroke-dashoffset:0;stroke-opacity:0.5;stroke-width:1.5;"/>
    </g>
    <g id="line2d_20"/>
    <g id="text_8">
     <!-- 0.1 -->
     <g transform="translate(620.39375 42.076563)scale(0.1 -0.1)">
      <defs>
       <path d="M 684 794 
L 1344 794 
L 1344 0 
L 684 0 
L 684 794 
z
" id="DejaVuSans-2e" transform="scale(0.015625)"/>
      </defs>
      <use xlink:href="#DejaVuSans-30"/>
      <use x="63.623047" xlink:href="#DejaVuSans-2e"/>
      <use x="95.410156" xlink:href="#DejaVuSans-31"/>
     </g>
    </g>
    <g id="line2d_21">
     <path d="M 592.39375 53.254688 
L 612.39375 53.254688 
" style="fill:none;stroke:#ff7f0e;stroke-dasharray:5.55,2.4;stroke-dashoffset:0;stroke-opacity:0.5;stroke-width:1.5;"/>
    </g>
    <g id="line2d_22"/>
    <g id="text_9">
     <!-- 0.3 -->
     <g transform="translate(620.39375 56.754688)scale(0.1 -0.1)">
      <defs>
       <path d="M 2597 2516 
Q 3050 2419 3304 2112 
Q 3559 1806 3559 1356 
Q 3559 666 3084 287 
Q 2609 -91 1734 -91 
Q 1441 -91 1130 -33 
Q 819 25 488 141 
L 488 750 
Q 750 597 1062 519 
Q 1375 441 1716 441 
Q 2309 441 2620 675 
Q 2931 909 2931 1356 
Q 2931 1769 2642 2001 
Q 2353 2234 1838 2234 
L 1294 2234 
L 1294 2753 
L 1863 2753 
Q 2328 2753 2575 2939 
Q 2822 3125 2822 3475 
Q 2822 3834 2567 4026 
Q 2313 4219 1838 4219 
Q 1578 4219 1281 4162 
Q 984 4106 628 3988 
L 628 4550 
Q 988 4650 1302 4700 
Q 1616 4750 1894 4750 
Q 2613 4750 3031 4423 
Q 3450 4097 3450 3541 
Q 3450 3153 3228 2886 
Q 3006 2619 2597 2516 
z
" id="DejaVuSans-33" transform="scale(0.015625)"/>
      </defs>
      <use xlink:href="#DejaVuSans-30"/>
      <use x="63.623047" xlink:href="#DejaVuSans-2e"/>
      <use x="95.410156" xlink:href="#DejaVuSans-33"/>
     </g>
    </g>
    <g id="line2d_23">
     <path d="M 656.296875 38.576563 
L 676.296875 38.576563 
" style="fill:none;stroke:#2ca02c;stroke-dasharray:5.55,2.4;stroke-dashoffset:0;stroke-opacity:0.5;stroke-width:1.5;"/>
    </g>
    <g id="line2d_24"/>
    <g id="text_10">
     <!-- 0.6 -->
     <g transform="translate(684.296875 42.076563)scale(0.1 -0.1)">
      <use xlink:href="#DejaVuSans-30"/>
      <use x="63.623047" xlink:href="#DejaVuSans-2e"/>
      <use x="95.410156" xlink:href="#DejaVuSans-36"/>
     </g>
    </g>
    <g id="line2d_25">
     <path d="M 656.296875 53.254688 
L 676.296875 53.254688 
" style="fill:none;stroke:#d62728;stroke-dasharray:5.55,2.4;stroke-dashoffset:0;stroke-opacity:0.5;stroke-width:1.5;"/>
    </g>
    <g id="line2d_26"/>
    <g id="text_11">
     <!-- 0.9 -->
     <g transform="translate(684.296875 56.754688)scale(0.1 -0.1)">
      <defs>
       <path d="M 703 97 
L 703 672 
Q 941 559 1184 500 
Q 1428 441 1663 441 
Q 2288 441 2617 861 
Q 2947 1281 2994 2138 
Q 2813 1869 2534 1725 
Q 2256 1581 1919 1581 
Q 1219 1581 811 2004 
Q 403 2428 403 3163 
Q 403 3881 828 4315 
Q 1253 4750 1959 4750 
Q 2769 4750 3195 4129 
Q 3622 3509 3622 2328 
Q 3622 1225 3098 567 
Q 2575 -91 1691 -91 
Q 1453 -91 1209 -44 
Q 966 3 703 97 
z
M 1959 2075 
Q 2384 2075 2632 2365 
Q 2881 2656 2881 3163 
Q 2881 3666 2632 3958 
Q 2384 4250 1959 4250 
Q 1534 4250 1286 3958 
Q 1038 3666 1038 3163 
Q 1038 2656 1286 2365 
Q 1534 2075 1959 2075 
z
" id="DejaVuSans-39" transform="scale(0.015625)"/>
      </defs>
      <use xlink:href="#DejaVuSans-30"/>
      <use x="63.623047" xlink:href="#DejaVuSans-2e"/>
      <use x="95.410156" xlink:href="#DejaVuSans-39"/>
     </g>
    </g>
   </g>
  </g>
  <g id="axes_2">
   <g id="patch_8">
    <path d="M 86.02 458.2 
L 709.2 458.2 
L 709.2 241.65 
L 86.02 241.65 
z
" style="fill:#ffffff;"/>
   </g>
   <g id="matplotlib.axis_3">
    <g id="xtick_10">
     <g id="line2d_27">
      <g>
       <use style="stroke:#000000;stroke-width:0.8;" x="128.495736" xlink:href="#mdc90e28579" y="458.2"/>
      </g>
     </g>
     <g id="text_12">
      <!-- 445 -->
      <g transform="translate(118.951986 472.798437)scale(0.1 -0.1)">
       <defs>
        <path d="M 2419 4116 
L 825 1625 
L 2419 1625 
L 2419 4116 
z
M 2253 4666 
L 3047 4666 
L 3047 1625 
L 3713 1625 
L 3713 1100 
L 3047 1100 
L 3047 0 
L 2419 0 
L 2419 1100 
L 313 1100 
L 313 1709 
L 2253 4666 
z
" id="DejaVuSans-34" transform="scale(0.015625)"/>
       </defs>
       <use xlink:href="#DejaVuSans-34"/>
       <use x="63.623047" xlink:href="#DejaVuSans-34"/>
       <use x="127.246094" xlink:href="#DejaVuSans-35"/>
      </g>
     </g>
    </g>
    <g id="xtick_11">
     <g id="line2d_28">
      <g>
       <use style="stroke:#000000;stroke-width:0.8;" x="199.313416" xlink:href="#mdc90e28579" y="458.2"/>
      </g>
     </g>
     <g id="text_13">
      <!-- 450 -->
      <g transform="translate(189.769666 472.798437)scale(0.1 -0.1)">
       <use xlink:href="#DejaVuSans-34"/>
       <use x="63.623047" xlink:href="#DejaVuSans-35"/>
       <use x="127.246094" xlink:href="#DejaVuSans-30"/>
      </g>
     </g>
    </g>
    <g id="xtick_12">
     <g id="line2d_29">
      <g>
       <use style="stroke:#000000;stroke-width:0.8;" x="270.131095" xlink:href="#mdc90e28579" y="458.2"/>
      </g>
     </g>
     <g id="text_14">
      <!-- 455 -->
      <g transform="translate(260.587345 472.798437)scale(0.1 -0.1)">
       <use xlink:href="#DejaVuSans-34"/>
       <use x="63.623047" xlink:href="#DejaVuSans-35"/>
       <use x="127.246094" xlink:href="#DejaVuSans-35"/>
      </g>
     </g>
    </g>
    <g id="xtick_13">
     <g id="line2d_30">
      <g>
       <use style="stroke:#000000;stroke-width:0.8;" x="340.948775" xlink:href="#mdc90e28579" y="458.2"/>
      </g>
     </g>
     <g id="text_15">
      <!-- 460 -->
      <g transform="translate(331.405025 472.798437)scale(0.1 -0.1)">
       <use xlink:href="#DejaVuSans-34"/>
       <use x="63.623047" xlink:href="#DejaVuSans-36"/>
       <use x="127.246094" xlink:href="#DejaVuSans-30"/>
      </g>
     </g>
    </g>
    <g id="xtick_14">
     <g id="line2d_31">
      <g>
       <use style="stroke:#000000;stroke-width:0.8;" x="411.766454" xlink:href="#mdc90e28579" y="458.2"/>
      </g>
     </g>
     <g id="text_16">
      <!-- 465 -->
      <g transform="translate(402.222704 472.798437)scale(0.1 -0.1)">
       <use xlink:href="#DejaVuSans-34"/>
       <use x="63.623047" xlink:href="#DejaVuSans-36"/>
       <use x="127.246094" xlink:href="#DejaVuSans-35"/>
      </g>
     </g>
    </g>
    <g id="xtick_15">
     <g id="line2d_32">
      <g>
       <use style="stroke:#000000;stroke-width:0.8;" x="482.584134" xlink:href="#mdc90e28579" y="458.2"/>
      </g>
     </g>
     <g id="text_17">
      <!-- 470 -->
      <g transform="translate(473.040384 472.798437)scale(0.1 -0.1)">
       <use xlink:href="#DejaVuSans-34"/>
       <use x="63.623047" xlink:href="#DejaVuSans-37"/>
       <use x="127.246094" xlink:href="#DejaVuSans-30"/>
      </g>
     </g>
    </g>
    <g id="xtick_16">
     <g id="line2d_33">
      <g>
       <use style="stroke:#000000;stroke-width:0.8;" x="553.401813" xlink:href="#mdc90e28579" y="458.2"/>
      </g>
     </g>
     <g id="text_18">
      <!-- 475 -->
      <g transform="translate(543.858063 472.798437)scale(0.1 -0.1)">
       <use xlink:href="#DejaVuSans-34"/>
       <use x="63.623047" xlink:href="#DejaVuSans-37"/>
       <use x="127.246094" xlink:href="#DejaVuSans-35"/>
      </g>
     </g>
    </g>
    <g id="xtick_17">
     <g id="line2d_34">
      <g>
       <use style="stroke:#000000;stroke-width:0.8;" x="624.219493" xlink:href="#mdc90e28579" y="458.2"/>
      </g>
     </g>
     <g id="text_19">
      <!-- 480 -->
      <g transform="translate(614.675743 472.798437)scale(0.1 -0.1)">
       <defs>
        <path d="M 2034 2216 
Q 1584 2216 1326 1975 
Q 1069 1734 1069 1313 
Q 1069 891 1326 650 
Q 1584 409 2034 409 
Q 2484 409 2743 651 
Q 3003 894 3003 1313 
Q 3003 1734 2745 1975 
Q 2488 2216 2034 2216 
z
M 1403 2484 
Q 997 2584 770 2862 
Q 544 3141 544 3541 
Q 544 4100 942 4425 
Q 1341 4750 2034 4750 
Q 2731 4750 3128 4425 
Q 3525 4100 3525 3541 
Q 3525 3141 3298 2862 
Q 3072 2584 2669 2484 
Q 3125 2378 3379 2068 
Q 3634 1759 3634 1313 
Q 3634 634 3220 271 
Q 2806 -91 2034 -91 
Q 1263 -91 848 271 
Q 434 634 434 1313 
Q 434 1759 690 2068 
Q 947 2378 1403 2484 
z
M 1172 3481 
Q 1172 3119 1398 2916 
Q 1625 2713 2034 2713 
Q 2441 2713 2670 2916 
Q 2900 3119 2900 3481 
Q 2900 3844 2670 4047 
Q 2441 4250 2034 4250 
Q 1625 4250 1398 4047 
Q 1172 3844 1172 3481 
z
" id="DejaVuSans-38" transform="scale(0.015625)"/>
       </defs>
       <use xlink:href="#DejaVuSans-34"/>
       <use x="63.623047" xlink:href="#DejaVuSans-38"/>
       <use x="127.246094" xlink:href="#DejaVuSans-30"/>
      </g>
     </g>
    </g>
    <g id="xtick_18">
     <g id="line2d_35">
      <g>
       <use style="stroke:#000000;stroke-width:0.8;" x="695.037172" xlink:href="#mdc90e28579" y="458.2"/>
      </g>
     </g>
     <g id="text_20">
      <!-- 485 -->
      <g transform="translate(685.493422 472.798437)scale(0.1 -0.1)">
       <use xlink:href="#DejaVuSans-34"/>
       <use x="63.623047" xlink:href="#DejaVuSans-38"/>
       <use x="127.246094" xlink:href="#DejaVuSans-35"/>
      </g>
     </g>
    </g>
    <g id="text_21">
     <!-- Age (Ma) -->
     <g transform="translate(366.054219 489.515938)scale(0.14 -0.14)">
      <defs>
       <path d="M 2188 4044 
L 1331 1722 
L 3047 1722 
L 2188 4044 
z
M 1831 4666 
L 2547 4666 
L 4325 0 
L 3669 0 
L 3244 1197 
L 1141 1197 
L 716 0 
L 50 0 
L 1831 4666 
z
" id="DejaVuSans-41" transform="scale(0.015625)"/>
       <path d="M 628 4666 
L 1569 4666 
L 2759 1491 
L 3956 4666 
L 4897 4666 
L 4897 0 
L 4281 0 
L 4281 4097 
L 3078 897 
L 2444 897 
L 1241 4097 
L 1241 0 
L 628 0 
L 628 4666 
z
" id="DejaVuSans-4d" transform="scale(0.015625)"/>
      </defs>
      <use xlink:href="#DejaVuSans-41"/>
      <use x="68.408203" xlink:href="#DejaVuSans-67"/>
      <use x="131.884766" xlink:href="#DejaVuSans-65"/>
      <use x="193.408203" xlink:href="#DejaVuSans-20"/>
      <use x="225.195312" xlink:href="#DejaVuSans-28"/>
      <use x="264.208984" xlink:href="#DejaVuSans-4d"/>
      <use x="350.488281" xlink:href="#DejaVuSans-61"/>
      <use x="411.767578" xlink:href="#DejaVuSans-29"/>
     </g>
    </g>
   </g>
   <g id="matplotlib.axis_4">
    <g id="ytick_6">
     <g id="line2d_36">
      <g>
       <use style="stroke:#000000;stroke-width:0.8;" x="86.02" xlink:href="#me2d1d356ad" y="434.185616"/>
      </g>
     </g>
     <g id="text_22">
      <!-- 1000 -->
      <g transform="translate(53.57 437.984835)scale(0.1 -0.1)">
       <use xlink:href="#DejaVuSans-31"/>
       <use x="63.623047" xlink:href="#DejaVuSans-30"/>
       <use x="127.246094" xlink:href="#DejaVuSans-30"/>
       <use x="190.869141" xlink:href="#DejaVuSans-30"/>
      </g>
     </g>
    </g>
    <g id="ytick_7">
     <g id="line2d_37">
      <g>
       <use style="stroke:#000000;stroke-width:0.8;" x="86.02" xlink:href="#me2d1d356ad" y="389.091908"/>
      </g>
     </g>
     <g id="text_23">
      <!-- 2000 -->
      <g transform="translate(53.57 392.891127)scale(0.1 -0.1)">
       <use xlink:href="#DejaVuSans-32"/>
       <use x="63.623047" xlink:href="#DejaVuSans-30"/>
       <use x="127.246094" xlink:href="#DejaVuSans-30"/>
       <use x="190.869141" xlink:href="#DejaVuSans-30"/>
      </g>
     </g>
    </g>
    <g id="ytick_8">
     <g id="line2d_38">
      <g>
       <use style="stroke:#000000;stroke-width:0.8;" x="86.02" xlink:href="#me2d1d356ad" y="343.9982"/>
      </g>
     </g>
     <g id="text_24">
      <!-- 3000 -->
      <g transform="translate(53.57 347.797419)scale(0.1 -0.1)">
       <use xlink:href="#DejaVuSans-33"/>
       <use x="63.623047" xlink:href="#DejaVuSans-30"/>
       <use x="127.246094" xlink:href="#DejaVuSans-30"/>
       <use x="190.869141" xlink:href="#DejaVuSans-30"/>
      </g>
     </g>
    </g>
    <g id="ytick_9">
     <g id="line2d_39">
      <g>
       <use style="stroke:#000000;stroke-width:0.8;" x="86.02" xlink:href="#me2d1d356ad" y="298.904492"/>
      </g>
     </g>
     <g id="text_25">
      <!-- 4000 -->
      <g transform="translate(53.57 302.703711)scale(0.1 -0.1)">
       <use xlink:href="#DejaVuSans-34"/>
       <use x="63.623047" xlink:href="#DejaVuSans-30"/>
       <use x="127.246094" xlink:href="#DejaVuSans-30"/>
       <use x="190.869141" xlink:href="#DejaVuSans-30"/>
      </g>
     </g>
    </g>
    <g id="ytick_10">
     <g id="line2d_40">
      <g>
       <use style="stroke:#000000;stroke-width:0.8;" x="86.02" xlink:href="#me2d1d356ad" y="253.810784"/>
      </g>
     </g>
     <g id="text_26">
      <!-- 5000 -->
      <g transform="translate(53.57 257.610003)scale(0.1 -0.1)">
       <use xlink:href="#DejaVuSans-35"/>
       <use x="63.623047" xlink:href="#DejaVuSans-30"/>
       <use x="127.246094" xlink:href="#DejaVuSans-30"/>
       <use x="190.869141" xlink:href="#DejaVuSans-30"/>
      </g>
     </g>
    </g>
    <g id="text_27">
     <!-- $pCO_2$ -->
     <g transform="translate(30.953063 368.125)rotate(-90)scale(0.14 -0.14)">
      <defs>
       <path d="M 3175 2156 
Q 3175 2616 2975 2859 
Q 2775 3103 2400 3103 
Q 2144 3103 1911 2972 
Q 1678 2841 1497 2591 
Q 1319 2344 1212 1994 
Q 1106 1644 1106 1300 
Q 1106 863 1306 627 
Q 1506 391 1875 391 
Q 2147 391 2380 519 
Q 2613 647 2778 891 
Q 2956 1147 3065 1494 
Q 3175 1841 3175 2156 
z
M 1394 2969 
Q 1625 3272 1939 3428 
Q 2253 3584 2638 3584 
Q 3175 3584 3472 3232 
Q 3769 2881 3769 2247 
Q 3769 1728 3584 1258 
Q 3400 788 3053 416 
Q 2822 169 2531 39 
Q 2241 -91 1919 -91 
Q 1547 -91 1294 64 
Q 1041 219 916 525 
L 556 -1331 
L -19 -1331 
L 922 3500 
L 1497 3500 
L 1394 2969 
z
" id="DejaVuSans-Oblique-70" transform="scale(0.015625)"/>
       <path d="M 4447 4306 
L 4319 3641 
Q 4019 3944 3683 4091 
Q 3347 4238 2956 4238 
Q 2422 4238 2017 3981 
Q 1613 3725 1319 3200 
Q 1131 2863 1032 2486 
Q 934 2109 934 1728 
Q 934 1091 1264 756 
Q 1594 422 2222 422 
Q 2656 422 3056 561 
Q 3456 700 3834 978 
L 3688 231 
Q 3316 72 2936 -9 
Q 2556 -91 2175 -91 
Q 1278 -91 773 396 
Q 269 884 269 1753 
Q 269 2309 461 2846 
Q 653 3384 1013 3828 
Q 1394 4300 1883 4525 
Q 2372 4750 3022 4750 
Q 3422 4750 3780 4639 
Q 4138 4528 4447 4306 
z
" id="DejaVuSans-Oblique-43" transform="scale(0.015625)"/>
       <path d="M 2919 4238 
Q 2400 4238 2003 3986 
Q 1606 3734 1313 3219 
Q 1125 2891 1026 2522 
Q 928 2153 928 1778 
Q 928 1128 1239 775 
Q 1550 422 2119 422 
Q 2631 422 3032 676 
Q 3434 931 3719 1434 
Q 3909 1772 4009 2142 
Q 4109 2513 4109 2881 
Q 4109 3528 3796 3883 
Q 3484 4238 2919 4238 
z
M 2100 -91 
Q 1241 -91 748 418 
Q 256 928 256 1813 
Q 256 2319 448 2847 
Q 641 3375 978 3788 
Q 1375 4272 1862 4511 
Q 2350 4750 2938 4750 
Q 3794 4750 4287 4245 
Q 4781 3741 4781 2869 
Q 4781 2331 4593 1812 
Q 4406 1294 4056 872 
Q 3656 384 3173 146 
Q 2691 -91 2100 -91 
z
" id="DejaVuSans-Oblique-4f" transform="scale(0.015625)"/>
      </defs>
      <use transform="translate(0 0.78125)" xlink:href="#DejaVuSans-Oblique-70"/>
      <use transform="translate(63.476562 0.78125)" xlink:href="#DejaVuSans-Oblique-43"/>
      <use transform="translate(133.300781 0.78125)" xlink:href="#DejaVuSans-Oblique-4f"/>
      <use transform="translate(212.011719 -15.625)scale(0.7)" xlink:href="#DejaVuSans-32"/>
     </g>
     <!-- (ppmv) -->
     <g transform="translate(46.658438 375.236562)rotate(-90)scale(0.14 -0.14)">
      <defs>
       <path d="M 1159 525 
L 1159 -1331 
L 581 -1331 
L 581 3500 
L 1159 3500 
L 1159 2969 
Q 1341 3281 1617 3432 
Q 1894 3584 2278 3584 
Q 2916 3584 3314 3078 
Q 3713 2572 3713 1747 
Q 3713 922 3314 415 
Q 2916 -91 2278 -91 
Q 1894 -91 1617 61 
Q 1341 213 1159 525 
z
M 3116 1747 
Q 3116 2381 2855 2742 
Q 2594 3103 2138 3103 
Q 1681 3103 1420 2742 
Q 1159 2381 1159 1747 
Q 1159 1113 1420 752 
Q 1681 391 2138 391 
Q 2594 391 2855 752 
Q 3116 1113 3116 1747 
z
" id="DejaVuSans-70" transform="scale(0.015625)"/>
       <path d="M 191 3500 
L 800 3500 
L 1894 563 
L 2988 3500 
L 3597 3500 
L 2284 0 
L 1503 0 
L 191 3500 
z
" id="DejaVuSans-76" transform="scale(0.015625)"/>
      </defs>
      <use xlink:href="#DejaVuSans-28"/>
      <use x="39.013672" xlink:href="#DejaVuSans-70"/>
      <use x="102.490234" xlink:href="#DejaVuSans-70"/>
      <use x="165.966797" xlink:href="#DejaVuSans-6d"/>
      <use x="263.378906" xlink:href="#DejaVuSans-76"/>
      <use x="322.558594" xlink:href="#DejaVuSans-29"/>
     </g>
    </g>
   </g>
   <g id="line2d_41">
    <path clip-path="url(#p5407a6a7ac)" d="M 680.873636 253.810784 
L 680.802819 253.902808 
L 676.213833 261.143448 
L 672.191389 267.068657 
L 668.253926 272.476054 
L 664.288136 277.546503 
L 660.279855 282.314684 
L 656.314065 286.691781 
L 652.362439 290.723146 
L 648.48163 294.368834 
L 644.600821 297.711947 
L 640.620867 300.847525 
L 636.62675 303.712125 
L 632.61847 306.314411 
L 628.596025 308.662543 
L 624.545254 310.77113 
L 620.551137 312.603306 
L 616.542856 314.197969 
L 612.279632 315.652053 
L 607.94559 316.895219 
L 603.455749 317.953056 
L 598.484348 318.885378 
L 593.187186 319.65184 
L 587.351809 320.273001 
L 580.609966 320.762176 
L 573.074965 321.079531 
L 563.344615 321.254019 
L 552.22624 321.217713 
L 533.714498 320.907822 
L 511.20864 320.511987 
L 503.27706 320.614197 
L 496.563544 320.912043 
L 489.694229 321.439872 
L 483.561418 322.12005 
L 476.592958 323.130161 
L 469.07212 324.442454 
L 461.296339 326.026496 
L 445.149908 329.658533 
L 429.031804 333.166585 
L 416.695365 335.627836 
L 408.721294 337.005271 
L 402.106923 337.926723 
L 396.937232 338.415025 
L 392.249102 338.640788 
L 387.617625 338.644228 
L 383.099457 338.42235 
L 379.30363 338.026696 
L 375.57862 337.417485 
L 372.193535 336.602719 
L 367.20797 335.174733 
L 362.746456 333.661651 
L 358.214125 331.888374 
L 353.582649 329.835713 
L 348.58292 327.375503 
L 341.33119 323.505287 
L 322.805285 313.484296 
L 317.904702 311.205706 
L 313.754786 309.522913 
L 309.831486 308.16535 
L 306.106476 307.11443 
L 302.693064 306.371949 
L 299.39296 305.884682 
L 296.248655 305.639308 
L 293.231822 305.631277 
L 290.186662 305.846349 
L 287.099011 306.288001 
L 283.954706 306.963209 
L 280.937873 307.835184 
L 277.836059 308.965351 
L 274.734244 310.331306 
L 256.845698 318.789885 
L 246.803751 323.681324 
L 236.1811 329.11463 
L 226.592386 334.284784 
L 218.221736 339.038294 
L 210.275992 343.802079 
L 203.647458 348.042165 
L 197.387175 352.317446 
L 190.971093 356.970587 
L 185.645603 361.102624 
L 180.334277 365.49861 
L 175.065442 370.144608 
L 170.108205 374.827968 
L 165.618364 379.370848 
L 161.086032 384.266413 
L 156.652845 389.402377 
L 152.460439 394.583557 
L 147.772308 400.738167 
L 142.758417 407.70521 
L 136.24319 417.163966 
L 120.86159 439.63051 
L 116.329259 445.791493 
L 114.346364 448.356818 
L 114.346364 448.356818 
" style="fill:none;stroke:#1f77b4;stroke-dasharray:5.55,2.4;stroke-dashoffset:0;stroke-opacity:0.5;stroke-width:1.5;"/>
   </g>
   <g id="line2d_42">
    <path clip-path="url(#p5407a6a7ac)" d="M 680.873636 253.810784 
L 680.802819 253.902808 
L 676.582085 260.546681 
L 673.423616 265.08471 
L 670.321802 269.157125 
L 667.205824 272.884045 
L 664.047356 276.31672 
L 660.846397 279.470068 
L 657.631274 282.328077 
L 654.416151 284.890522 
L 651.158538 287.203836 
L 647.900925 289.244652 
L 644.600821 291.051119 
L 641.173245 292.673787 
L 637.674852 294.083756 
L 634.105641 295.282994 
L 630.437285 296.280545 
L 626.669784 297.073783 
L 622.803139 297.659967 
L 618.908167 298.02426 
L 614.814905 298.18059 
L 610.381718 298.128146 
L 605.608607 297.843617 
L 600.438916 297.307546 
L 594.221124 296.439411 
L 586.346198 295.105564 
L 574.052249 292.774574 
L 556.333665 289.430354 
L 544.733729 287.450165 
L 533.232938 285.724591 
L 522.851066 284.374495 
L 514.182982 283.466801 
L 507.00207 282.93989 
L 500.571824 282.694267 
L 494.495667 282.690776 
L 488.150403 282.910315 
L 482.272536 283.335295 
L 474.978315 284.104763 
L 467.14588 285.157225 
L 458.279506 286.581702 
L 439.951891 289.544324 
L 428.621062 291.10595 
L 418.225027 292.307883 
L 410.845824 292.964533 
L 404.288107 293.333145 
L 399.415851 293.407931 
L 394.600249 293.26338 
L 389.954609 292.895474 
L 385.478931 292.321413 
L 381.14489 291.547853 
L 377.278244 290.622789 
L 374.21892 289.688277 
L 369.29001 287.872945 
L 364.304445 285.836665 
L 359.063937 283.453295 
L 353.483504 280.667434 
L 346.642516 276.99386 
L 335.807411 271.190937 
L 329.858726 268.240456 
L 325.142269 266.162747 
L 321.218969 264.679059 
L 317.451469 263.484982 
L 313.967239 262.618822 
L 310.525499 261.988457 
L 307.197069 261.608291 
L 303.882801 261.451064 
L 300.780987 261.530313 
L 297.594191 261.834975 
L 294.619849 262.343093 
L 291.532198 263.098362 
L 288.302912 264.119988 
L 284.917827 265.426474 
L 281.532741 266.967491 
L 278.048512 268.803983 
L 274.380156 270.991015 
L 268.332326 274.56199 
L 262.369477 277.811571 
L 256.066704 280.991245 
L 245.911449 285.797286 
L 234.764746 290.808725 
L 206.635964 303.400877 
L 199.837466 306.768156 
L 192.84068 310.481685 
L 187.316901 313.633755 
L 181.90643 316.984432 
L 176.552613 320.568714 
L 171.977791 323.901919 
L 167.643749 327.321065 
L 163.323871 331.027272 
L 159.584697 334.517959 
L 155.576417 338.56737 
L 151.82308 342.681811 
L 147.786472 347.439477 
L 143.679046 352.638156 
L 139.019243 358.90337 
L 133.467137 366.757737 
L 125.903809 377.874986 
L 114.346364 394.918811 
L 114.346364 394.918811 
" style="fill:none;stroke:#ff7f0e;stroke-dasharray:5.55,2.4;stroke-dashoffset:0;stroke-opacity:0.5;stroke-width:1.5;"/>
   </g>
   <g id="line2d_43">
    <path clip-path="url(#p5407a6a7ac)" d="M 680.873636 253.810784 
L 680.802819 253.902808 
L 676.893683 260.040169 
L 674.372573 263.549924 
L 671.893955 266.625489 
L 669.401172 269.368457 
L 666.865899 271.830601 
L 664.259809 274.052264 
L 661.5829 276.042653 
L 658.849338 277.79974 
L 656.059121 279.32998 
L 653.16976 280.660248 
L 650.209581 281.779478 
L 647.136094 282.702229 
L 643.906808 283.437206 
L 640.465068 283.991601 
L 636.82504 284.351518 
L 632.944231 284.509244 
L 628.808478 284.452396 
L 624.361128 284.166013 
L 619.743815 283.647264 
L 614.644942 282.844326 
L 608.512131 281.650747 
L 600.93464 279.938842 
L 577.86224 274.605665 
L 569.080847 272.876098 
L 560.526072 271.433827 
L 552.056277 270.220025 
L 543.643137 269.237007 
L 533.912788 268.330057 
L 523.969986 267.617339 
L 515.103612 267.200415 
L 507.511957 267.066411 
L 500.585988 267.170753 
L 493.844145 267.503441 
L 486.53576 268.086904 
L 479.199049 268.909228 
L 468.378107 270.351347 
L 443.209504 273.822382 
L 433.932388 274.737259 
L 424.556127 275.44867 
L 414.896596 275.960146 
L 407.588211 276.117974 
L 401.356255 276.035567 
L 396.172401 275.72912 
L 391.257654 275.21481 
L 386.286253 274.475298 
L 381.343179 273.516062 
L 377.094118 272.455127 
L 373.93565 271.47046 
L 366.301504 268.722398 
L 358.823157 265.803627 
L 348.073033 261.335845 
L 341.954386 258.885124 
L 336.373953 256.878363 
L 331.31757 255.291171 
L 327.111 254.21666 
L 323.38599 253.476973 
L 319.590162 252.955647 
L 316.148423 252.694468 
L 312.508395 252.643695 
L 308.995838 252.809372 
L 305.228337 253.213165 
L 301.758271 253.799779 
L 298.019097 254.660929 
L 294.520704 255.68884 
L 290.710713 257.044565 
L 286.461652 258.798328 
L 281.858503 260.939826 
L 277.156209 263.384437 
L 269.451245 267.455835 
L 265.315493 269.27972 
L 260.839816 271.007789 
L 255.910905 272.669208 
L 248.574193 274.863063 
L 240.770085 276.970222 
L 226.195807 280.618257 
L 211.720673 284.293936 
L 204.213999 286.420327 
L 197.415502 288.581214 
L 190.347897 291.06132 
L 185.008244 293.174282 
L 179.7819 295.471316 
L 174.739681 297.916779 
L 170.00906 300.476431 
L 165.944125 302.92484 
L 161.765882 305.696259 
L 157.970054 308.497885 
L 154.174227 311.566575 
L 150.350072 314.96295 
L 146.483427 318.686865 
L 142.29102 323.048392 
L 137.517908 328.342515 
L 131.725022 335.114697 
L 124.062549 344.43822 
L 114.346364 356.321147 
L 114.346364 356.321147 
" style="fill:none;stroke:#2ca02c;stroke-dasharray:5.55,2.4;stroke-dashoffset:0;stroke-opacity:0.5;stroke-width:1.5;"/>
   </g>
   <g id="line2d_44">
    <path clip-path="url(#p5407a6a7ac)" d="M 680.873636 253.810784 
L 680.802819 253.902808 
L 677.106136 259.697427 
L 674.939115 262.634254 
L 672.814584 265.144293 
L 670.675891 267.331422 
L 668.480542 269.260821 
L 666.214377 270.956887 
L 663.849066 272.449206 
L 661.384611 273.74169 
L 658.792684 274.849248 
L 656.087449 275.762199 
L 653.212251 276.496019 
L 650.167091 277.042972 
L 646.909477 277.399229 
L 643.340266 277.562113 
L 639.346149 277.519382 
L 634.898799 277.245467 
L 629.884907 276.708817 
L 624.148675 275.865196 
L 617.95921 274.731852 
L 609.064509 272.842837 
L 589.108087 268.541082 
L 581.218998 267.120427 
L 573.103292 265.882443 
L 565.412492 264.931623 
L 556.291175 264.033005 
L 547.056549 263.349477 
L 536.306425 262.794254 
L 523.842514 262.368584 
L 513.701422 262.239584 
L 505.387426 262.357655 
L 497.880752 262.686762 
L 489.481776 263.294003 
L 481.635177 264.06452 
L 464.044065 266.099651 
L 450.88614 267.569369 
L 442.175566 268.287845 
L 432.317745 268.86263 
L 422.063345 269.246326 
L 412.332996 269.410367 
L 404.854649 269.311869 
L 399.472505 269.054004 
L 393.991217 268.569702 
L 388.410783 267.843606 
L 382.688715 266.869587 
L 378.14222 265.883959 
L 374.289738 264.844411 
L 359.318881 260.114063 
L 344.588803 255.485795 
L 339.192496 254.079972 
L 333.994478 252.958979 
L 329.844562 252.260856 
L 325.482193 251.755898 
L 321.601385 251.531794 
L 317.508123 251.516345 
L 313.528169 251.734325 
L 309.378253 252.180273 
L 304.916739 252.89371 
L 300.79515 253.771106 
L 296.291146 254.958006 
L 291.872123 256.365858 
L 286.546633 258.306039 
L 280.48464 260.749134 
L 268.856377 265.565906 
L 264.961404 266.737361 
L 260.514054 267.837469 
L 255.287709 268.894262 
L 245.599851 270.571899 
L 209.38369 276.562468 
L 202.103632 278.126005 
L 194.781084 279.943097 
L 188.124222 281.807515 
L 182.373827 283.673565 
L 176.524286 285.814422 
L 171.737011 287.805776 
L 167.346315 289.852109 
L 162.828147 292.217113 
L 159.046483 294.446907 
L 154.953221 297.119018 
L 151.114903 299.906583 
L 147.035805 303.1407 
L 142.758417 306.834522 
L 137.787016 311.428581 
L 131.625877 317.439898 
L 123.396863 325.800153 
L 114.346364 334.998492 
L 114.346364 334.998492 
" style="fill:none;stroke:#d62728;stroke-dasharray:5.55,2.4;stroke-dashoffset:0;stroke-opacity:0.5;stroke-width:1.5;"/>
   </g>
   <g id="patch_9">
    <path d="M 86.02 458.2 
L 86.02 241.65 
" style="fill:none;stroke:#000000;stroke-linecap:square;stroke-linejoin:miter;stroke-width:0.8;"/>
   </g>
   <g id="patch_10">
    <path d="M 709.2 458.2 
L 709.2 241.65 
" style="fill:none;stroke:#000000;stroke-linecap:square;stroke-linejoin:miter;stroke-width:0.8;"/>
   </g>
   <g id="patch_11">
    <path d="M 86.02 458.2 
L 709.2 458.2 
" style="fill:none;stroke:#000000;stroke-linecap:square;stroke-linejoin:miter;stroke-width:0.8;"/>
   </g>
   <g id="patch_12">
    <path d="M 86.02 241.65 
L 709.2 241.65 
" style="fill:none;stroke:#000000;stroke-linecap:square;stroke-linejoin:miter;stroke-width:0.8;"/>
   </g>
  </g>
 </g>
 <defs>
  <clipPath id="p1ab065760c">
   <rect height="216.55" width="623.18" x="86.02" y="10.8"/>
  </clipPath>
  <clipPath id="p5407a6a7ac">
   <rect height="216.55" width="623.18" x="86.02" y="241.65"/>
  </clipPath>
 </defs>
</svg>
