<?xml version="1.0" encoding="utf-8" standalone="no"?>
<!DOCTYPE svg PUBLIC "-//W3C//DTD SVG 1.1//EN"
  "http://www.w3.org/Graphics/SVG/1.1/DTD/svg11.dtd">
<!-- Created with matplotlib (https://matplotlib.org/) -->
<svg height="576pt" version="1.1" viewBox="0 0 720 576" width="720pt" xmlns="http://www.w3.org/2000/svg" xmlns:xlink="http://www.w3.org/1999/xlink">
 <defs>
  <style type="text/css">
*{stroke-linecap:butt;stroke-linejoin:round;}
  </style>
 </defs>
 <g id="figure_1">
  <g id="patch_1">
   <path d="M 0 576 
L 720 576 
L 720 0 
L 0 0 
z
" style="fill:#ffffff;"/>
  </g>
  <g id="axes_1">
   <g id="patch_2">
    <path d="M 90 266.792727 
L 648 266.792727 
L 648 69.12 
L 90 69.12 
z
" style="fill:#ffffff;"/>
   </g>
   <g id="matplotlib.axis_1">
    <g id="xtick_1">
     <g id="line2d_1">
      <defs>
       <path d="M 0 0 
L 0 3.5 
" id="m619304e44f" style="stroke:#000000;stroke-width:0.8;"/>
      </defs>
      <g>
       <use style="stroke:#000000;stroke-width:0.8;" x="623.401096" xlink:href="#m619304e44f" y="266.792727"/>
      </g>
     </g>
    </g>
    <g id="xtick_2">
     <g id="line2d_2">
      <g>
       <use style="stroke:#000000;stroke-width:0.8;" x="559.673367" xlink:href="#m619304e44f" y="266.792727"/>
      </g>
     </g>
    </g>
    <g id="xtick_3">
     <g id="line2d_3">
      <g>
       <use style="stroke:#000000;stroke-width:0.8;" x="495.945637" xlink:href="#m619304e44f" y="266.792727"/>
      </g>
     </g>
    </g>
    <g id="xtick_4">
     <g id="line2d_4">
      <g>
       <use style="stroke:#000000;stroke-width:0.8;" x="432.217908" xlink:href="#m619304e44f" y="266.792727"/>
      </g>
     </g>
    </g>
    <g id="xtick_5">
     <g id="line2d_5">
      <g>
       <use style="stroke:#000000;stroke-width:0.8;" x="368.490178" xlink:href="#m619304e44f" y="266.792727"/>
      </g>
     </g>
    </g>
    <g id="xtick_6">
     <g id="line2d_6">
      <g>
       <use style="stroke:#000000;stroke-width:0.8;" x="304.762449" xlink:href="#m619304e44f" y="266.792727"/>
      </g>
     </g>
    </g>
    <g id="xtick_7">
     <g id="line2d_7">
      <g>
       <use style="stroke:#000000;stroke-width:0.8;" x="241.034719" xlink:href="#m619304e44f" y="266.792727"/>
      </g>
     </g>
    </g>
    <g id="xtick_8">
     <g id="line2d_8">
      <g>
       <use style="stroke:#000000;stroke-width:0.8;" x="177.306989" xlink:href="#m619304e44f" y="266.792727"/>
      </g>
     </g>
    </g>
    <g id="xtick_9">
     <g id="line2d_9">
      <g>
       <use style="stroke:#000000;stroke-width:0.8;" x="113.57926" xlink:href="#m619304e44f" y="266.792727"/>
      </g>
     </g>
    </g>
   </g>
   <g id="matplotlib.axis_2">
    <g id="ytick_1">
     <g id="line2d_10">
      <defs>
       <path d="M 0 0 
L -3.5 0 
" id="m8d55944d8d" style="stroke:#000000;stroke-width:0.8;"/>
      </defs>
      <g>
       <use style="stroke:#000000;stroke-width:0.8;" x="90" xlink:href="#m8d55944d8d" y="246.40416"/>
      </g>
     </g>
     <g id="text_1">
      <!-- 140 -->
      <defs>
       <path d="M 12.40625 8.296875 
L 28.515625 8.296875 
L 28.515625 63.921875 
L 10.984375 60.40625 
L 10.984375 69.390625 
L 28.421875 72.90625 
L 38.28125 72.90625 
L 38.28125 8.296875 
L 54.390625 8.296875 
L 54.390625 0 
L 12.40625 0 
z
" id="DejaVuSans-49"/>
       <path d="M 37.796875 64.3125 
L 12.890625 25.390625 
L 37.796875 25.390625 
z
M 35.203125 72.90625 
L 47.609375 72.90625 
L 47.609375 25.390625 
L 58.015625 25.390625 
L 58.015625 17.1875 
L 47.609375 17.1875 
L 47.609375 0 
L 37.796875 0 
L 37.796875 17.1875 
L 4.890625 17.1875 
L 4.890625 26.703125 
z
" id="DejaVuSans-52"/>
       <path d="M 31.78125 66.40625 
Q 24.171875 66.40625 20.328125 58.90625 
Q 16.5 51.421875 16.5 36.375 
Q 16.5 21.390625 20.328125 13.890625 
Q 24.171875 6.390625 31.78125 6.390625 
Q 39.453125 6.390625 43.28125 13.890625 
Q 47.125 21.390625 47.125 36.375 
Q 47.125 51.421875 43.28125 58.90625 
Q 39.453125 66.40625 31.78125 66.40625 
z
M 31.78125 74.21875 
Q 44.046875 74.21875 50.515625 64.515625 
Q 56.984375 54.828125 56.984375 36.375 
Q 56.984375 17.96875 50.515625 8.265625 
Q 44.046875 -1.421875 31.78125 -1.421875 
Q 19.53125 -1.421875 13.0625 8.265625 
Q 6.59375 17.96875 6.59375 36.375 
Q 6.59375 54.828125 13.0625 64.515625 
Q 19.53125 74.21875 31.78125 74.21875 
z
" id="DejaVuSans-48"/>
      </defs>
      <g transform="translate(63.9125 250.203379)scale(0.1 -0.1)">
       <use xlink:href="#DejaVuSans-49"/>
       <use x="63.623047" xlink:href="#DejaVuSans-52"/>
       <use x="127.246094" xlink:href="#DejaVuSans-48"/>
      </g>
     </g>
    </g>
    <g id="ytick_2">
     <g id="line2d_11">
      <g>
       <use style="stroke:#000000;stroke-width:0.8;" x="90" xlink:href="#m8d55944d8d" y="207.081943"/>
      </g>
     </g>
     <g id="text_2">
      <!-- 160 -->
      <defs>
       <path d="M 33.015625 40.375 
Q 26.375 40.375 22.484375 35.828125 
Q 18.609375 31.296875 18.609375 23.390625 
Q 18.609375 15.53125 22.484375 10.953125 
Q 26.375 6.390625 33.015625 6.390625 
Q 39.65625 6.390625 43.53125 10.953125 
Q 47.40625 15.53125 47.40625 23.390625 
Q 47.40625 31.296875 43.53125 35.828125 
Q 39.65625 40.375 33.015625 40.375 
z
M 52.59375 71.296875 
L 52.59375 62.3125 
Q 48.875 64.0625 45.09375 64.984375 
Q 41.3125 65.921875 37.59375 65.921875 
Q 27.828125 65.921875 22.671875 59.328125 
Q 17.53125 52.734375 16.796875 39.40625 
Q 19.671875 43.65625 24.015625 45.921875 
Q 28.375 48.1875 33.59375 48.1875 
Q 44.578125 48.1875 50.953125 41.515625 
Q 57.328125 34.859375 57.328125 23.390625 
Q 57.328125 12.15625 50.6875 5.359375 
Q 44.046875 -1.421875 33.015625 -1.421875 
Q 20.359375 -1.421875 13.671875 8.265625 
Q 6.984375 17.96875 6.984375 36.375 
Q 6.984375 53.65625 15.1875 63.9375 
Q 23.390625 74.21875 37.203125 74.21875 
Q 40.921875 74.21875 44.703125 73.484375 
Q 48.484375 72.75 52.59375 71.296875 
z
" id="DejaVuSans-54"/>
      </defs>
      <g transform="translate(63.9125 210.881161)scale(0.1 -0.1)">
       <use xlink:href="#DejaVuSans-49"/>
       <use x="63.623047" xlink:href="#DejaVuSans-54"/>
       <use x="127.246094" xlink:href="#DejaVuSans-48"/>
      </g>
     </g>
    </g>
    <g id="ytick_3">
     <g id="line2d_12">
      <g>
       <use style="stroke:#000000;stroke-width:0.8;" x="90" xlink:href="#m8d55944d8d" y="167.759725"/>
      </g>
     </g>
     <g id="text_3">
      <!-- 180 -->
      <defs>
       <path d="M 31.78125 34.625 
Q 24.75 34.625 20.71875 30.859375 
Q 16.703125 27.09375 16.703125 20.515625 
Q 16.703125 13.921875 20.71875 10.15625 
Q 24.75 6.390625 31.78125 6.390625 
Q 38.8125 6.390625 42.859375 10.171875 
Q 46.921875 13.96875 46.921875 20.515625 
Q 46.921875 27.09375 42.890625 30.859375 
Q 38.875 34.625 31.78125 34.625 
z
M 21.921875 38.8125 
Q 15.578125 40.375 12.03125 44.71875 
Q 8.5 49.078125 8.5 55.328125 
Q 8.5 64.0625 14.71875 69.140625 
Q 20.953125 74.21875 31.78125 74.21875 
Q 42.671875 74.21875 48.875 69.140625 
Q 55.078125 64.0625 55.078125 55.328125 
Q 55.078125 49.078125 51.53125 44.71875 
Q 48 40.375 41.703125 38.8125 
Q 48.828125 37.15625 52.796875 32.3125 
Q 56.78125 27.484375 56.78125 20.515625 
Q 56.78125 9.90625 50.3125 4.234375 
Q 43.84375 -1.421875 31.78125 -1.421875 
Q 19.734375 -1.421875 13.25 4.234375 
Q 6.78125 9.90625 6.78125 20.515625 
Q 6.78125 27.484375 10.78125 32.3125 
Q 14.796875 37.15625 21.921875 38.8125 
z
M 18.3125 54.390625 
Q 18.3125 48.734375 21.84375 45.5625 
Q 25.390625 42.390625 31.78125 42.390625 
Q 38.140625 42.390625 41.71875 45.5625 
Q 45.3125 48.734375 45.3125 54.390625 
Q 45.3125 60.0625 41.71875 63.234375 
Q 38.140625 66.40625 31.78125 66.40625 
Q 25.390625 66.40625 21.84375 63.234375 
Q 18.3125 60.0625 18.3125 54.390625 
z
" id="DejaVuSans-56"/>
      </defs>
      <g transform="translate(63.9125 171.558944)scale(0.1 -0.1)">
       <use xlink:href="#DejaVuSans-49"/>
       <use x="63.623047" xlink:href="#DejaVuSans-56"/>
       <use x="127.246094" xlink:href="#DejaVuSans-48"/>
      </g>
     </g>
    </g>
    <g id="ytick_4">
     <g id="line2d_13">
      <g>
       <use style="stroke:#000000;stroke-width:0.8;" x="90" xlink:href="#m8d55944d8d" y="128.437507"/>
      </g>
     </g>
     <g id="text_4">
      <!-- 200 -->
      <defs>
       <path d="M 19.1875 8.296875 
L 53.609375 8.296875 
L 53.609375 0 
L 7.328125 0 
L 7.328125 8.296875 
Q 12.9375 14.109375 22.625 23.890625 
Q 32.328125 33.6875 34.8125 36.53125 
Q 39.546875 41.84375 41.421875 45.53125 
Q 43.3125 49.21875 43.3125 52.78125 
Q 43.3125 58.59375 39.234375 62.25 
Q 35.15625 65.921875 28.609375 65.921875 
Q 23.96875 65.921875 18.8125 64.3125 
Q 13.671875 62.703125 7.8125 59.421875 
L 7.8125 69.390625 
Q 13.765625 71.78125 18.9375 73 
Q 24.125 74.21875 28.421875 74.21875 
Q 39.75 74.21875 46.484375 68.546875 
Q 53.21875 62.890625 53.21875 53.421875 
Q 53.21875 48.921875 51.53125 44.890625 
Q 49.859375 40.875 45.40625 35.40625 
Q 44.1875 33.984375 37.640625 27.21875 
Q 31.109375 20.453125 19.1875 8.296875 
z
" id="DejaVuSans-50"/>
      </defs>
      <g transform="translate(63.9125 132.236726)scale(0.1 -0.1)">
       <use xlink:href="#DejaVuSans-50"/>
       <use x="63.623047" xlink:href="#DejaVuSans-48"/>
       <use x="127.246094" xlink:href="#DejaVuSans-48"/>
      </g>
     </g>
    </g>
    <g id="ytick_5">
     <g id="line2d_14">
      <g>
       <use style="stroke:#000000;stroke-width:0.8;" x="90" xlink:href="#m8d55944d8d" y="89.11529"/>
      </g>
     </g>
     <g id="text_5">
      <!-- 220 -->
      <g transform="translate(63.9125 92.914509)scale(0.1 -0.1)">
       <use xlink:href="#DejaVuSans-50"/>
       <use x="63.623047" xlink:href="#DejaVuSans-50"/>
       <use x="127.246094" xlink:href="#DejaVuSans-48"/>
      </g>
     </g>
    </g>
    <g id="text_6">
     <!-- Sea Level (m) -->
     <defs>
      <path d="M 53.515625 70.515625 
L 53.515625 60.890625 
Q 47.90625 63.578125 42.921875 64.890625 
Q 37.9375 66.21875 33.296875 66.21875 
Q 25.25 66.21875 20.875 63.09375 
Q 16.5 59.96875 16.5 54.203125 
Q 16.5 49.359375 19.40625 46.890625 
Q 22.3125 44.4375 30.421875 42.921875 
L 36.375 41.703125 
Q 47.40625 39.59375 52.65625 34.296875 
Q 57.90625 29 57.90625 20.125 
Q 57.90625 9.515625 50.796875 4.046875 
Q 43.703125 -1.421875 29.984375 -1.421875 
Q 24.8125 -1.421875 18.96875 -0.25 
Q 13.140625 0.921875 6.890625 3.21875 
L 6.890625 13.375 
Q 12.890625 10.015625 18.65625 8.296875 
Q 24.421875 6.59375 29.984375 6.59375 
Q 38.421875 6.59375 43.015625 9.90625 
Q 47.609375 13.234375 47.609375 19.390625 
Q 47.609375 24.75 44.3125 27.78125 
Q 41.015625 30.8125 33.5 32.328125 
L 27.484375 33.5 
Q 16.453125 35.6875 11.515625 40.375 
Q 6.59375 45.0625 6.59375 53.421875 
Q 6.59375 63.09375 13.40625 68.65625 
Q 20.21875 74.21875 32.171875 74.21875 
Q 37.3125 74.21875 42.625 73.28125 
Q 47.953125 72.359375 53.515625 70.515625 
z
" id="DejaVuSans-83"/>
      <path d="M 56.203125 29.59375 
L 56.203125 25.203125 
L 14.890625 25.203125 
Q 15.484375 15.921875 20.484375 11.0625 
Q 25.484375 6.203125 34.421875 6.203125 
Q 39.59375 6.203125 44.453125 7.46875 
Q 49.3125 8.734375 54.109375 11.28125 
L 54.109375 2.78125 
Q 49.265625 0.734375 44.1875 -0.34375 
Q 39.109375 -1.421875 33.890625 -1.421875 
Q 20.796875 -1.421875 13.15625 6.1875 
Q 5.515625 13.8125 5.515625 26.8125 
Q 5.515625 40.234375 12.765625 48.109375 
Q 20.015625 56 32.328125 56 
Q 43.359375 56 49.78125 48.890625 
Q 56.203125 41.796875 56.203125 29.59375 
z
M 47.21875 32.234375 
Q 47.125 39.59375 43.09375 43.984375 
Q 39.0625 48.390625 32.421875 48.390625 
Q 24.90625 48.390625 20.390625 44.140625 
Q 15.875 39.890625 15.1875 32.171875 
z
" id="DejaVuSans-101"/>
      <path d="M 34.28125 27.484375 
Q 23.390625 27.484375 19.1875 25 
Q 14.984375 22.515625 14.984375 16.5 
Q 14.984375 11.71875 18.140625 8.90625 
Q 21.296875 6.109375 26.703125 6.109375 
Q 34.1875 6.109375 38.703125 11.40625 
Q 43.21875 16.703125 43.21875 25.484375 
L 43.21875 27.484375 
z
M 52.203125 31.203125 
L 52.203125 0 
L 43.21875 0 
L 43.21875 8.296875 
Q 40.140625 3.328125 35.546875 0.953125 
Q 30.953125 -1.421875 24.3125 -1.421875 
Q 15.921875 -1.421875 10.953125 3.296875 
Q 6 8.015625 6 15.921875 
Q 6 25.140625 12.171875 29.828125 
Q 18.359375 34.515625 30.609375 34.515625 
L 43.21875 34.515625 
L 43.21875 35.40625 
Q 43.21875 41.609375 39.140625 45 
Q 35.0625 48.390625 27.6875 48.390625 
Q 23 48.390625 18.546875 47.265625 
Q 14.109375 46.140625 10.015625 43.890625 
L 10.015625 52.203125 
Q 14.9375 54.109375 19.578125 55.046875 
Q 24.21875 56 28.609375 56 
Q 40.484375 56 46.34375 49.84375 
Q 52.203125 43.703125 52.203125 31.203125 
z
" id="DejaVuSans-97"/>
      <path id="DejaVuSans-32"/>
      <path d="M 9.8125 72.90625 
L 19.671875 72.90625 
L 19.671875 8.296875 
L 55.171875 8.296875 
L 55.171875 0 
L 9.8125 0 
z
" id="DejaVuSans-76"/>
      <path d="M 2.984375 54.6875 
L 12.5 54.6875 
L 29.59375 8.796875 
L 46.6875 54.6875 
L 56.203125 54.6875 
L 35.6875 0 
L 23.484375 0 
z
" id="DejaVuSans-118"/>
      <path d="M 9.421875 75.984375 
L 18.40625 75.984375 
L 18.40625 0 
L 9.421875 0 
z
" id="DejaVuSans-108"/>
      <path d="M 31 75.875 
Q 24.46875 64.65625 21.28125 53.65625 
Q 18.109375 42.671875 18.109375 31.390625 
Q 18.109375 20.125 21.3125 9.0625 
Q 24.515625 -2 31 -13.1875 
L 23.1875 -13.1875 
Q 15.875 -1.703125 12.234375 9.375 
Q 8.59375 20.453125 8.59375 31.390625 
Q 8.59375 42.28125 12.203125 53.3125 
Q 15.828125 64.359375 23.1875 75.875 
z
" id="DejaVuSans-40"/>
      <path d="M 52 44.1875 
Q 55.375 50.25 60.0625 53.125 
Q 64.75 56 71.09375 56 
Q 79.640625 56 84.28125 50.015625 
Q 88.921875 44.046875 88.921875 33.015625 
L 88.921875 0 
L 79.890625 0 
L 79.890625 32.71875 
Q 79.890625 40.578125 77.09375 44.375 
Q 74.3125 48.1875 68.609375 48.1875 
Q 61.625 48.1875 57.5625 43.546875 
Q 53.515625 38.921875 53.515625 30.90625 
L 53.515625 0 
L 44.484375 0 
L 44.484375 32.71875 
Q 44.484375 40.625 41.703125 44.40625 
Q 38.921875 48.1875 33.109375 48.1875 
Q 26.21875 48.1875 22.15625 43.53125 
Q 18.109375 38.875 18.109375 30.90625 
L 18.109375 0 
L 9.078125 0 
L 9.078125 54.6875 
L 18.109375 54.6875 
L 18.109375 46.1875 
Q 21.1875 51.21875 25.484375 53.609375 
Q 29.78125 56 35.6875 56 
Q 41.65625 56 45.828125 52.96875 
Q 50 49.953125 52 44.1875 
z
" id="DejaVuSans-109"/>
      <path d="M 8.015625 75.875 
L 15.828125 75.875 
Q 23.140625 64.359375 26.78125 53.3125 
Q 30.421875 42.28125 30.421875 31.390625 
Q 30.421875 20.453125 26.78125 9.375 
Q 23.140625 -1.703125 15.828125 -13.1875 
L 8.015625 -13.1875 
Q 14.5 -2 17.703125 9.0625 
Q 20.90625 20.125 20.90625 31.390625 
Q 20.90625 42.671875 17.703125 53.65625 
Q 14.5 64.65625 8.015625 75.875 
z
" id="DejaVuSans-41"/>
     </defs>
     <g transform="translate(57.832812 202.421207)rotate(-90)scale(0.1 -0.1)">
      <use xlink:href="#DejaVuSans-83"/>
      <use x="63.476562" xlink:href="#DejaVuSans-101"/>
      <use x="125" xlink:href="#DejaVuSans-97"/>
      <use x="186.279297" xlink:href="#DejaVuSans-32"/>
      <use x="218.066406" xlink:href="#DejaVuSans-76"/>
      <use x="272.029297" xlink:href="#DejaVuSans-101"/>
      <use x="333.552734" xlink:href="#DejaVuSans-118"/>
      <use x="392.732422" xlink:href="#DejaVuSans-101"/>
      <use x="454.255859" xlink:href="#DejaVuSans-108"/>
      <use x="482.039062" xlink:href="#DejaVuSans-32"/>
      <use x="513.826172" xlink:href="#DejaVuSans-40"/>
      <use x="552.839844" xlink:href="#DejaVuSans-109"/>
      <use x="650.251953" xlink:href="#DejaVuSans-41"/>
     </g>
    </g>
   </g>
   <g id="line2d_15">
    <path clip-path="url(#p13cc1e1133)" d="M 88.088168 216.519275 
L 96.696596 210.283185 
L 101.917734 206.873175 
L 111.322511 201.777395 
L 115.607097 199.655343 
L 130.289093 192.983172 
L 136.615025 190.129989 
L 143.036295 187.280735 
L 149.362228 184.4275 
L 155.783498 181.333483 
L 162.204769 178.28767 
L 181.272296 169.341339 
L 185.685868 167.286462 
L 193.974634 163.827346 
L 197.715234 162.446483 
L 204.68049 160.413732 
L 211.023247 158.962551 
L 219.205459 157.560912 
L 223.736801 156.974239 
L 238.278595 155.7399 
L 244.638176 155.458665 
L 263.756176 154.980004 
L 270.126973 155.091106 
L 274.697572 155.343121 
L 281.079585 156.045384 
L 287.461599 157.142009 
L 300.231234 160.013397 
L 306.630072 161.674895 
L 325.108749 165.551933 
L 332.062789 166.298473 
L 340.233785 166.691355 
L 352.969772 166.973281 
L 363.316709 166.862279 
L 370.293181 166.105319 
L 375.469454 165.194564 
L 382.502007 162.690732 
L 389.568208 159.517747 
L 394.553806 156.933072 
L 400.543252 152.54876 
L 407.76648 142.105249 
L 422.874692 118.07723 
L 426.671373 112.424448 
L 434.180614 102.875836 
L 439.28959 96.901127 
L 445.671603 90.950279 
L 452.081657 86.341996 
L 458.738468 82.772305 
L 464.733523 80.303541 
L 471.070671 78.853496 
L 484.098279 78.16049 
L 491.37198 78.720314 
L 497.759602 79.620519 
L 509.603901 81.925658 
L 518.829219 84.655663 
L 523.30448 86.013536 
L 536.079723 90.466138 
L 544.430179 93.93483 
L 547.907198 95.557501 
L 554.670563 99.440206 
L 563.963178 105.593113 
L 566.666281 107.561739 
L 574.029711 114.29889 
L 579.419091 119.774437 
L 585.795497 127.818581 
L 592.076565 137.513563 
L 598.604389 150.034291 
L 605.378969 165.35339 
L 620.246032 202.343246 
L 630.514457 227.70691 
L 636.700187 240.427896 
L 643.048552 250.596151 
L 648.892188 257.807603 
L 648.892188 257.807603 
" style="fill:none;stroke:#4682b4;stroke-linecap:square;stroke-width:1.5;"/>
   </g>
   <g id="patch_3">
    <path d="M 90 266.792727 
L 90 69.12 
" style="fill:none;stroke:#000000;stroke-linecap:square;stroke-linejoin:miter;stroke-width:0.8;"/>
   </g>
   <g id="patch_4">
    <path d="M 648 266.792727 
L 648 69.12 
" style="fill:none;stroke:#000000;stroke-linecap:square;stroke-linejoin:miter;stroke-width:0.8;"/>
   </g>
   <g id="patch_5">
    <path d="M 90 266.792727 
L 648 266.792727 
" style="fill:none;stroke:#000000;stroke-linecap:square;stroke-linejoin:miter;stroke-width:0.8;"/>
   </g>
   <g id="patch_6">
    <path d="M 90 69.12 
L 648 69.12 
" style="fill:none;stroke:#000000;stroke-linecap:square;stroke-linejoin:miter;stroke-width:0.8;"/>
   </g>
  </g>
  <g id="axes_2">
   <g id="patch_7">
    <path d="M 90 504 
L 648 504 
L 648 306.327273 
L 90 306.327273 
z
" style="fill:#ffffff;"/>
   </g>
   <g id="PathCollection_1">
    <defs>
     <path d="M 0 3 
C 0.795609 3 1.55874 2.683901 2.12132 2.12132 
C 2.683901 1.55874 3 0.795609 3 0 
C 3 -0.795609 2.683901 -1.55874 2.12132 -2.12132 
C 1.55874 -2.683901 0.795609 -3 0 -3 
C -0.795609 -3 -1.55874 -2.683901 -2.12132 -2.12132 
C -2.683901 -1.55874 -3 -0.795609 -3 0 
C -3 0.795609 -2.683901 1.55874 -2.12132 2.12132 
C -1.55874 2.683901 -0.795609 3 0 3 
z
" id="mbf34d151e1" style="stroke:#6b8e23;stroke-opacity:0.4;"/>
    </defs>
    <g clip-path="url(#p810b2f57ff)">
     <use style="fill:#6b8e23;fill-opacity:0.4;stroke:#6b8e23;stroke-opacity:0.4;" x="300.938785" xlink:href="#mbf34d151e1" y="355.52419"/>
     <use style="fill:#6b8e23;fill-opacity:0.4;stroke:#6b8e23;stroke-opacity:0.4;" x="308.586112" xlink:href="#mbf34d151e1" y="368.108212"/>
     <use style="fill:#6b8e23;fill-opacity:0.4;stroke:#6b8e23;stroke-opacity:0.4;" x="311.262677" xlink:href="#mbf34d151e1" y="360.429826"/>
     <use style="fill:#6b8e23;fill-opacity:0.4;stroke:#6b8e23;stroke-opacity:0.4;" x="313.301964" xlink:href="#mbf34d151e1" y="352.964728"/>
     <use style="fill:#6b8e23;fill-opacity:0.4;stroke:#6b8e23;stroke-opacity:0.4;" x="315.468707" xlink:href="#mbf34d151e1" y="372.587271"/>
     <use style="fill:#6b8e23;fill-opacity:0.4;stroke:#6b8e23;stroke-opacity:0.4;" x="317.125628" xlink:href="#mbf34d151e1" y="372.373982"/>
     <use style="fill:#6b8e23;fill-opacity:0.4;stroke:#6b8e23;stroke-opacity:0.4;" x="329.743719" xlink:href="#mbf34d151e1" y="378.559349"/>
     <use style="fill:#6b8e23;fill-opacity:0.4;stroke:#6b8e23;stroke-opacity:0.4;" x="345.675651" xlink:href="#mbf34d151e1" y="372.160694"/>
     <use style="fill:#6b8e23;fill-opacity:0.4;stroke:#6b8e23;stroke-opacity:0.4;" x="364.539059" xlink:href="#mbf34d151e1" y="368.534789"/>
     <use style="fill:#6b8e23;fill-opacity:0.4;stroke:#6b8e23;stroke-opacity:0.4;" x="381.61809" xlink:href="#mbf34d151e1" y="377.066329"/>
     <use style="fill:#6b8e23;fill-opacity:0.4;stroke:#6b8e23;stroke-opacity:0.4;" x="382.510279" xlink:href="#mbf34d151e1" y="375.360021"/>
     <use style="fill:#6b8e23;fill-opacity:0.4;stroke:#6b8e23;stroke-opacity:0.4;" x="386.843764" xlink:href="#mbf34d151e1" y="380.265657"/>
     <use style="fill:#6b8e23;fill-opacity:0.4;stroke:#6b8e23;stroke-opacity:0.4;" x="386.843764" xlink:href="#mbf34d151e1" y="373.013848"/>
     <use style="fill:#6b8e23;fill-opacity:0.4;stroke:#6b8e23;stroke-opacity:0.4;" x="392.961626" xlink:href="#mbf34d151e1" y="387.944043"/>
     <use style="fill:#6b8e23;fill-opacity:0.4;stroke:#6b8e23;stroke-opacity:0.4;" x="400.736409" xlink:href="#mbf34d151e1" y="385.811158"/>
     <use style="fill:#6b8e23;fill-opacity:0.4;stroke:#6b8e23;stroke-opacity:0.4;" x="419.344906" xlink:href="#mbf34d151e1" y="385.384581"/>
     <use style="fill:#6b8e23;fill-opacity:0.4;stroke:#6b8e23;stroke-opacity:0.4;" x="419.344906" xlink:href="#mbf34d151e1" y="384.958004"/>
     <use style="fill:#6b8e23;fill-opacity:0.4;stroke:#6b8e23;stroke-opacity:0.4;" x="422.276382" xlink:href="#mbf34d151e1" y="379.83908"/>
     <use style="fill:#6b8e23;fill-opacity:0.4;stroke:#6b8e23;stroke-opacity:0.4;" x="422.276382" xlink:href="#mbf34d151e1" y="388.797198"/>
     <use style="fill:#6b8e23;fill-opacity:0.4;stroke:#6b8e23;stroke-opacity:0.4;" x="422.276382" xlink:href="#mbf34d151e1" y="389.650352"/>
     <use style="fill:#6b8e23;fill-opacity:0.4;stroke:#6b8e23;stroke-opacity:0.4;" x="424.060758" xlink:href="#mbf34d151e1" y="386.877601"/>
     <use style="fill:#6b8e23;fill-opacity:0.4;stroke:#6b8e23;stroke-opacity:0.4;" x="424.060758" xlink:href="#mbf34d151e1" y="387.944043"/>
     <use style="fill:#6b8e23;fill-opacity:0.4;stroke:#6b8e23;stroke-opacity:0.4;" x="424.060758" xlink:href="#mbf34d151e1" y="391.996525"/>
     <use style="fill:#6b8e23;fill-opacity:0.4;stroke:#6b8e23;stroke-opacity:0.4;" x="427.756967" xlink:href="#mbf34d151e1" y="394.555987"/>
     <use style="fill:#6b8e23;fill-opacity:0.4;stroke:#6b8e23;stroke-opacity:0.4;" x="429.158977" xlink:href="#mbf34d151e1" y="391.35666"/>
     <use style="fill:#6b8e23;fill-opacity:0.4;stroke:#6b8e23;stroke-opacity:0.4;" x="430.306076" xlink:href="#mbf34d151e1" y="395.409141"/>
     <use style="fill:#6b8e23;fill-opacity:0.4;stroke:#6b8e23;stroke-opacity:0.4;" x="430.306076" xlink:href="#mbf34d151e1" y="396.902161"/>
     <use style="fill:#6b8e23;fill-opacity:0.4;stroke:#6b8e23;stroke-opacity:0.4;" x="430.306076" xlink:href="#mbf34d151e1" y="394.769276"/>
     <use style="fill:#6b8e23;fill-opacity:0.4;stroke:#6b8e23;stroke-opacity:0.4;" x="431.453175" xlink:href="#mbf34d151e1" y="394.769276"/>
     <use style="fill:#6b8e23;fill-opacity:0.4;stroke:#6b8e23;stroke-opacity:0.4;" x="432.472819" xlink:href="#mbf34d151e1" y="395.409141"/>
     <use style="fill:#6b8e23;fill-opacity:0.4;stroke:#6b8e23;stroke-opacity:0.4;" x="432.472819" xlink:href="#mbf34d151e1" y="396.475584"/>
     <use style="fill:#6b8e23;fill-opacity:0.4;stroke:#6b8e23;stroke-opacity:0.4;" x="433.619918" xlink:href="#mbf34d151e1" y="394.555987"/>
     <use style="fill:#6b8e23;fill-opacity:0.4;stroke:#6b8e23;stroke-opacity:0.4;" x="433.619918" xlink:href="#mbf34d151e1" y="396.688872"/>
     <use style="fill:#6b8e23;fill-opacity:0.4;stroke:#6b8e23;stroke-opacity:0.4;" x="433.619918" xlink:href="#mbf34d151e1" y="394.555987"/>
     <use style="fill:#6b8e23;fill-opacity:0.4;stroke:#6b8e23;stroke-opacity:0.4;" x="441.904523" xlink:href="#mbf34d151e1" y="417.804435"/>
     <use style="fill:#6b8e23;fill-opacity:0.4;stroke:#6b8e23;stroke-opacity:0.4;" x="441.904523" xlink:href="#mbf34d151e1" y="401.38122"/>
     <use style="fill:#6b8e23;fill-opacity:0.4;stroke:#6b8e23;stroke-opacity:0.4;" x="448.659662" xlink:href="#mbf34d151e1" y="431.028323"/>
     <use style="fill:#6b8e23;fill-opacity:0.4;stroke:#6b8e23;stroke-opacity:0.4;" x="448.659662" xlink:href="#mbf34d151e1" y="403.514105"/>
     <use style="fill:#6b8e23;fill-opacity:0.4;stroke:#6b8e23;stroke-opacity:0.4;" x="448.659662" xlink:href="#mbf34d151e1" y="415.031684"/>
     <use style="fill:#6b8e23;fill-opacity:0.4;stroke:#6b8e23;stroke-opacity:0.4;" x="448.659662" xlink:href="#mbf34d151e1" y="417.164569"/>
     <use style="fill:#6b8e23;fill-opacity:0.4;stroke:#6b8e23;stroke-opacity:0.4;" x="452.100959" xlink:href="#mbf34d151e1" y="406.286855"/>
     <use style="fill:#6b8e23;fill-opacity:0.4;stroke:#6b8e23;stroke-opacity:0.4;" x="452.100959" xlink:href="#mbf34d151e1" y="413.965242"/>
     <use style="fill:#6b8e23;fill-opacity:0.4;stroke:#6b8e23;stroke-opacity:0.4;" x="452.100959" xlink:href="#mbf34d151e1" y="417.591147"/>
     <use style="fill:#6b8e23;fill-opacity:0.4;stroke:#6b8e23;stroke-opacity:0.4;" x="462.042485" xlink:href="#mbf34d151e1" y="418.017724"/>
     <use style="fill:#6b8e23;fill-opacity:0.4;stroke:#6b8e23;stroke-opacity:0.4;" x="462.042485" xlink:href="#mbf34d151e1" y="412.258934"/>
     <use style="fill:#6b8e23;fill-opacity:0.4;stroke:#6b8e23;stroke-opacity:0.4;" x="462.042485" xlink:href="#mbf34d151e1" y="414.818396"/>
     <use style="fill:#6b8e23;fill-opacity:0.4;stroke:#6b8e23;stroke-opacity:0.4;" x="462.042485" xlink:href="#mbf34d151e1" y="423.563225"/>
     <use style="fill:#6b8e23;fill-opacity:0.4;stroke:#6b8e23;stroke-opacity:0.4;" x="462.424852" xlink:href="#mbf34d151e1" y="418.870878"/>
     <use style="fill:#6b8e23;fill-opacity:0.4;stroke:#6b8e23;stroke-opacity:0.4;" x="462.424852" xlink:href="#mbf34d151e1" y="425.056244"/>
     <use style="fill:#6b8e23;fill-opacity:0.4;stroke:#6b8e23;stroke-opacity:0.4;" x="464.846505" xlink:href="#mbf34d151e1" y="420.577186"/>
     <use style="fill:#6b8e23;fill-opacity:0.4;stroke:#6b8e23;stroke-opacity:0.4;" x="464.846505" xlink:href="#mbf34d151e1" y="423.136648"/>
     <use style="fill:#6b8e23;fill-opacity:0.4;stroke:#6b8e23;stroke-opacity:0.4;" x="468.542714" xlink:href="#mbf34d151e1" y="428.042284"/>
     <use style="fill:#6b8e23;fill-opacity:0.4;stroke:#6b8e23;stroke-opacity:0.4;" x="468.542714" xlink:href="#mbf34d151e1" y="428.895438"/>
     <use style="fill:#6b8e23;fill-opacity:0.4;stroke:#6b8e23;stroke-opacity:0.4;" x="471.219278" xlink:href="#mbf34d151e1" y="445.958518"/>
     <use style="fill:#6b8e23;fill-opacity:0.4;stroke:#6b8e23;stroke-opacity:0.4;" x="471.219278" xlink:href="#mbf34d151e1" y="446.811673"/>
     <use style="fill:#6b8e23;fill-opacity:0.4;stroke:#6b8e23;stroke-opacity:0.4;" x="471.219278" xlink:href="#mbf34d151e1" y="450.650866"/>
     <use style="fill:#6b8e23;fill-opacity:0.4;stroke:#6b8e23;stroke-opacity:0.4;" x="472.876199" xlink:href="#mbf34d151e1" y="452.357174"/>
     <use style="fill:#6b8e23;fill-opacity:0.4;stroke:#6b8e23;stroke-opacity:0.4;" x="473.513476" xlink:href="#mbf34d151e1" y="451.930597"/>
     <use style="fill:#6b8e23;fill-opacity:0.4;stroke:#6b8e23;stroke-opacity:0.4;" x="473.513476" xlink:href="#mbf34d151e1" y="452.143885"/>
     <use style="fill:#6b8e23;fill-opacity:0.4;stroke:#6b8e23;stroke-opacity:0.4;" x="475.93513" xlink:href="#mbf34d151e1" y="454.490059"/>
     <use style="fill:#6b8e23;fill-opacity:0.4;stroke:#6b8e23;stroke-opacity:0.4;" x="478.484239" xlink:href="#mbf34d151e1" y="465.79435"/>
     <use style="fill:#6b8e23;fill-opacity:0.4;stroke:#6b8e23;stroke-opacity:0.4;" x="494.925994" xlink:href="#mbf34d151e1" y="495.014876"/>
     <use style="fill:#6b8e23;fill-opacity:0.4;stroke:#6b8e23;stroke-opacity:0.4;" x="502.31841" xlink:href="#mbf34d151e1" y="489.469375"/>
    </g>
   </g>
   <g id="patch_8">
    <path clip-path="url(#p810b2f57ff)" d="M 648 504 
L 620.724532 504 
L 620.724532 484.232727 
L 648 484.232727 
z
" style="fill:#a6dbab;stroke:#000000;stroke-linejoin:miter;"/>
   </g>
   <g id="patch_9">
    <path clip-path="url(#p810b2f57ff)" d="M 620.724532 504 
L 524.623116 504 
L 524.623116 484.232727 
L 620.724532 484.232727 
z
" style="fill:#99d69f;stroke:#000000;stroke-linejoin:miter;"/>
   </g>
   <g id="patch_10">
    <path clip-path="url(#p810b2f57ff)" d="M 524.623116 504 
L 455.414801 504 
L 455.414801 484.232727 
L 524.623116 484.232727 
z
" style="fill:#8cd094;stroke:#000000;stroke-linejoin:miter;"/>
   </g>
   <g id="patch_11">
    <path clip-path="url(#p810b2f57ff)" d="M 455.414801 504 
L 312.154865 504 
L 312.154865 484.232727 
L 455.414801 484.232727 
z
" style="fill:#74c69c;stroke:#000000;stroke-linejoin:miter;"/>
   </g>
   <g id="patch_12">
    <path clip-path="url(#p810b2f57ff)" d="M 312.154865 504 
L 288.703061 504 
L 288.703061 484.232727 
L 312.154865 484.232727 
z
" style="fill:#66c092;stroke:#000000;stroke-linejoin:miter;"/>
   </g>
   <g id="patch_13">
    <path clip-path="url(#p810b2f57ff)" d="M 288.703061 504 
L 214.523984 504 
L 214.523984 484.232727 
L 288.703061 484.232727 
z
" style="fill:#41b087;stroke:#000000;stroke-linejoin:miter;"/>
   </g>
   <g id="patch_14">
    <path clip-path="url(#p810b2f57ff)" d="M 214.523984 504 
L 90 504 
L 90 484.232727 
L 214.523984 484.232727 
z
" style="fill:#33a97e;stroke:#000000;stroke-linejoin:miter;"/>
   </g>
   <g id="matplotlib.axis_3">
    <g id="xtick_10">
     <g id="line2d_16">
      <g>
       <use style="stroke:#000000;stroke-width:0.8;" x="623.401096" xlink:href="#m619304e44f" y="504"/>
      </g>
     </g>
     <g id="text_7">
      <!-- 445 -->
      <defs>
       <path d="M 10.796875 72.90625 
L 49.515625 72.90625 
L 49.515625 64.59375 
L 19.828125 64.59375 
L 19.828125 46.734375 
Q 21.96875 47.46875 24.109375 47.828125 
Q 26.265625 48.1875 28.421875 48.1875 
Q 40.625 48.1875 47.75 41.5 
Q 54.890625 34.8125 54.890625 23.390625 
Q 54.890625 11.625 47.5625 5.09375 
Q 40.234375 -1.421875 26.90625 -1.421875 
Q 22.3125 -1.421875 17.546875 -0.640625 
Q 12.796875 0.140625 7.71875 1.703125 
L 7.71875 11.625 
Q 12.109375 9.234375 16.796875 8.0625 
Q 21.484375 6.890625 26.703125 6.890625 
Q 35.15625 6.890625 40.078125 11.328125 
Q 45.015625 15.765625 45.015625 23.390625 
Q 45.015625 31 40.078125 35.4375 
Q 35.15625 39.890625 26.703125 39.890625 
Q 22.75 39.890625 18.8125 39.015625 
Q 14.890625 38.140625 10.796875 36.28125 
z
" id="DejaVuSans-53"/>
      </defs>
      <g transform="translate(613.857346 518.598437)scale(0.1 -0.1)">
       <use xlink:href="#DejaVuSans-52"/>
       <use x="63.623047" xlink:href="#DejaVuSans-52"/>
       <use x="127.246094" xlink:href="#DejaVuSans-53"/>
      </g>
     </g>
    </g>
    <g id="xtick_11">
     <g id="line2d_17">
      <g>
       <use style="stroke:#000000;stroke-width:0.8;" x="559.673367" xlink:href="#m619304e44f" y="504"/>
      </g>
     </g>
     <g id="text_8">
      <!-- 450 -->
      <g transform="translate(550.129617 518.598437)scale(0.1 -0.1)">
       <use xlink:href="#DejaVuSans-52"/>
       <use x="63.623047" xlink:href="#DejaVuSans-53"/>
       <use x="127.246094" xlink:href="#DejaVuSans-48"/>
      </g>
     </g>
    </g>
    <g id="xtick_12">
     <g id="line2d_18">
      <g>
       <use style="stroke:#000000;stroke-width:0.8;" x="495.945637" xlink:href="#m619304e44f" y="504"/>
      </g>
     </g>
     <g id="text_9">
      <!-- 455 -->
      <g transform="translate(486.401887 518.598437)scale(0.1 -0.1)">
       <use xlink:href="#DejaVuSans-52"/>
       <use x="63.623047" xlink:href="#DejaVuSans-53"/>
       <use x="127.246094" xlink:href="#DejaVuSans-53"/>
      </g>
     </g>
    </g>
    <g id="xtick_13">
     <g id="line2d_19">
      <g>
       <use style="stroke:#000000;stroke-width:0.8;" x="432.217908" xlink:href="#m619304e44f" y="504"/>
      </g>
     </g>
     <g id="text_10">
      <!-- 460 -->
      <g transform="translate(422.674158 518.598437)scale(0.1 -0.1)">
       <use xlink:href="#DejaVuSans-52"/>
       <use x="63.623047" xlink:href="#DejaVuSans-54"/>
       <use x="127.246094" xlink:href="#DejaVuSans-48"/>
      </g>
     </g>
    </g>
    <g id="xtick_14">
     <g id="line2d_20">
      <g>
       <use style="stroke:#000000;stroke-width:0.8;" x="368.490178" xlink:href="#m619304e44f" y="504"/>
      </g>
     </g>
     <g id="text_11">
      <!-- 465 -->
      <g transform="translate(358.946428 518.598437)scale(0.1 -0.1)">
       <use xlink:href="#DejaVuSans-52"/>
       <use x="63.623047" xlink:href="#DejaVuSans-54"/>
       <use x="127.246094" xlink:href="#DejaVuSans-53"/>
      </g>
     </g>
    </g>
    <g id="xtick_15">
     <g id="line2d_21">
      <g>
       <use style="stroke:#000000;stroke-width:0.8;" x="304.762449" xlink:href="#m619304e44f" y="504"/>
      </g>
     </g>
     <g id="text_12">
      <!-- 470 -->
      <defs>
       <path d="M 8.203125 72.90625 
L 55.078125 72.90625 
L 55.078125 68.703125 
L 28.609375 0 
L 18.3125 0 
L 43.21875 64.59375 
L 8.203125 64.59375 
z
" id="DejaVuSans-55"/>
      </defs>
      <g transform="translate(295.218699 518.598437)scale(0.1 -0.1)">
       <use xlink:href="#DejaVuSans-52"/>
       <use x="63.623047" xlink:href="#DejaVuSans-55"/>
       <use x="127.246094" xlink:href="#DejaVuSans-48"/>
      </g>
     </g>
    </g>
    <g id="xtick_16">
     <g id="line2d_22">
      <g>
       <use style="stroke:#000000;stroke-width:0.8;" x="241.034719" xlink:href="#m619304e44f" y="504"/>
      </g>
     </g>
     <g id="text_13">
      <!-- 475 -->
      <g transform="translate(231.490969 518.598437)scale(0.1 -0.1)">
       <use xlink:href="#DejaVuSans-52"/>
       <use x="63.623047" xlink:href="#DejaVuSans-55"/>
       <use x="127.246094" xlink:href="#DejaVuSans-53"/>
      </g>
     </g>
    </g>
    <g id="xtick_17">
     <g id="line2d_23">
      <g>
       <use style="stroke:#000000;stroke-width:0.8;" x="177.306989" xlink:href="#m619304e44f" y="504"/>
      </g>
     </g>
     <g id="text_14">
      <!-- 480 -->
      <g transform="translate(167.763239 518.598437)scale(0.1 -0.1)">
       <use xlink:href="#DejaVuSans-52"/>
       <use x="63.623047" xlink:href="#DejaVuSans-56"/>
       <use x="127.246094" xlink:href="#DejaVuSans-48"/>
      </g>
     </g>
    </g>
    <g id="xtick_18">
     <g id="line2d_24">
      <g>
       <use style="stroke:#000000;stroke-width:0.8;" x="113.57926" xlink:href="#m619304e44f" y="504"/>
      </g>
     </g>
     <g id="text_15">
      <!-- 485 -->
      <g transform="translate(104.03551 518.598437)scale(0.1 -0.1)">
       <use xlink:href="#DejaVuSans-52"/>
       <use x="63.623047" xlink:href="#DejaVuSans-56"/>
       <use x="127.246094" xlink:href="#DejaVuSans-53"/>
      </g>
     </g>
    </g>
    <g id="text_16">
     <!-- Age (Ma) -->
     <defs>
      <path d="M 34.1875 63.1875 
L 20.796875 26.90625 
L 47.609375 26.90625 
z
M 28.609375 72.90625 
L 39.796875 72.90625 
L 67.578125 0 
L 57.328125 0 
L 50.6875 18.703125 
L 17.828125 18.703125 
L 11.1875 0 
L 0.78125 0 
z
" id="DejaVuSans-65"/>
      <path d="M 45.40625 27.984375 
Q 45.40625 37.75 41.375 43.109375 
Q 37.359375 48.484375 30.078125 48.484375 
Q 22.859375 48.484375 18.828125 43.109375 
Q 14.796875 37.75 14.796875 27.984375 
Q 14.796875 18.265625 18.828125 12.890625 
Q 22.859375 7.515625 30.078125 7.515625 
Q 37.359375 7.515625 41.375 12.890625 
Q 45.40625 18.265625 45.40625 27.984375 
z
M 54.390625 6.78125 
Q 54.390625 -7.171875 48.1875 -13.984375 
Q 42 -20.796875 29.203125 -20.796875 
Q 24.46875 -20.796875 20.265625 -20.09375 
Q 16.0625 -19.390625 12.109375 -17.921875 
L 12.109375 -9.1875 
Q 16.0625 -11.328125 19.921875 -12.34375 
Q 23.78125 -13.375 27.78125 -13.375 
Q 36.625 -13.375 41.015625 -8.765625 
Q 45.40625 -4.15625 45.40625 5.171875 
L 45.40625 9.625 
Q 42.625 4.78125 38.28125 2.390625 
Q 33.9375 0 27.875 0 
Q 17.828125 0 11.671875 7.65625 
Q 5.515625 15.328125 5.515625 27.984375 
Q 5.515625 40.671875 11.671875 48.328125 
Q 17.828125 56 27.875 56 
Q 33.9375 56 38.28125 53.609375 
Q 42.625 51.21875 45.40625 46.390625 
L 45.40625 54.6875 
L 54.390625 54.6875 
z
" id="DejaVuSans-103"/>
      <path d="M 9.8125 72.90625 
L 24.515625 72.90625 
L 43.109375 23.296875 
L 61.8125 72.90625 
L 76.515625 72.90625 
L 76.515625 0 
L 66.890625 0 
L 66.890625 64.015625 
L 48.09375 14.015625 
L 38.1875 14.015625 
L 19.390625 64.015625 
L 19.390625 0 
L 9.8125 0 
z
" id="DejaVuSans-77"/>
     </defs>
     <g transform="translate(346.460156 532.276562)scale(0.1 -0.1)">
      <use xlink:href="#DejaVuSans-65"/>
      <use x="68.408203" xlink:href="#DejaVuSans-103"/>
      <use x="131.884766" xlink:href="#DejaVuSans-101"/>
      <use x="193.408203" xlink:href="#DejaVuSans-32"/>
      <use x="225.195312" xlink:href="#DejaVuSans-40"/>
      <use x="264.208984" xlink:href="#DejaVuSans-77"/>
      <use x="350.488281" xlink:href="#DejaVuSans-97"/>
      <use x="411.767578" xlink:href="#DejaVuSans-41"/>
     </g>
    </g>
   </g>
   <g id="matplotlib.axis_4">
    <g id="ytick_6">
     <g id="line2d_25">
      <g>
       <use style="stroke:#000000;stroke-width:0.8;" x="90" xlink:href="#m8d55944d8d" y="483.710585"/>
      </g>
     </g>
     <g id="text_17">
      <!-- 0.7082 -->
      <defs>
       <path d="M 10.6875 12.40625 
L 21 12.40625 
L 21 0 
L 10.6875 0 
z
" id="DejaVuSans-46"/>
      </defs>
      <g transform="translate(48.009375 487.509804)scale(0.1 -0.1)">
       <use xlink:href="#DejaVuSans-48"/>
       <use x="63.623047" xlink:href="#DejaVuSans-46"/>
       <use x="95.410156" xlink:href="#DejaVuSans-55"/>
       <use x="159.033203" xlink:href="#DejaVuSans-48"/>
       <use x="222.65625" xlink:href="#DejaVuSans-56"/>
       <use x="286.279297" xlink:href="#DejaVuSans-50"/>
      </g>
     </g>
    </g>
    <g id="ytick_7">
     <g id="line2d_26">
      <g>
       <use style="stroke:#000000;stroke-width:0.8;" x="90" xlink:href="#m8d55944d8d" y="441.052883"/>
      </g>
     </g>
     <g id="text_18">
      <!-- 0.7084 -->
      <g transform="translate(48.009375 444.852101)scale(0.1 -0.1)">
       <use xlink:href="#DejaVuSans-48"/>
       <use x="63.623047" xlink:href="#DejaVuSans-46"/>
       <use x="95.410156" xlink:href="#DejaVuSans-55"/>
       <use x="159.033203" xlink:href="#DejaVuSans-48"/>
       <use x="222.65625" xlink:href="#DejaVuSans-56"/>
       <use x="286.279297" xlink:href="#DejaVuSans-52"/>
      </g>
     </g>
    </g>
    <g id="ytick_8">
     <g id="line2d_27">
      <g>
       <use style="stroke:#000000;stroke-width:0.8;" x="90" xlink:href="#m8d55944d8d" y="398.395181"/>
      </g>
     </g>
     <g id="text_19">
      <!-- 0.7086 -->
      <g transform="translate(48.009375 402.194399)scale(0.1 -0.1)">
       <use xlink:href="#DejaVuSans-48"/>
       <use x="63.623047" xlink:href="#DejaVuSans-46"/>
       <use x="95.410156" xlink:href="#DejaVuSans-55"/>
       <use x="159.033203" xlink:href="#DejaVuSans-48"/>
       <use x="222.65625" xlink:href="#DejaVuSans-56"/>
       <use x="286.279297" xlink:href="#DejaVuSans-54"/>
      </g>
     </g>
    </g>
    <g id="ytick_9">
     <g id="line2d_28">
      <g>
       <use style="stroke:#000000;stroke-width:0.8;" x="90" xlink:href="#m8d55944d8d" y="355.737478"/>
      </g>
     </g>
     <g id="text_20">
      <!-- 0.7088 -->
      <g transform="translate(48.009375 359.536697)scale(0.1 -0.1)">
       <use xlink:href="#DejaVuSans-48"/>
       <use x="63.623047" xlink:href="#DejaVuSans-46"/>
       <use x="95.410156" xlink:href="#DejaVuSans-55"/>
       <use x="159.033203" xlink:href="#DejaVuSans-48"/>
       <use x="222.65625" xlink:href="#DejaVuSans-56"/>
       <use x="286.279297" xlink:href="#DejaVuSans-56"/>
      </g>
     </g>
    </g>
    <g id="ytick_10">
     <g id="line2d_29">
      <g>
       <use style="stroke:#000000;stroke-width:0.8;" x="90" xlink:href="#m8d55944d8d" y="313.079776"/>
      </g>
     </g>
     <g id="text_21">
      <!-- 0.7090 -->
      <defs>
       <path d="M 10.984375 1.515625 
L 10.984375 10.5 
Q 14.703125 8.734375 18.5 7.8125 
Q 22.3125 6.890625 25.984375 6.890625 
Q 35.75 6.890625 40.890625 13.453125 
Q 46.046875 20.015625 46.78125 33.40625 
Q 43.953125 29.203125 39.59375 26.953125 
Q 35.25 24.703125 29.984375 24.703125 
Q 19.046875 24.703125 12.671875 31.3125 
Q 6.296875 37.9375 6.296875 49.421875 
Q 6.296875 60.640625 12.9375 67.421875 
Q 19.578125 74.21875 30.609375 74.21875 
Q 43.265625 74.21875 49.921875 64.515625 
Q 56.59375 54.828125 56.59375 36.375 
Q 56.59375 19.140625 48.40625 8.859375 
Q 40.234375 -1.421875 26.421875 -1.421875 
Q 22.703125 -1.421875 18.890625 -0.6875 
Q 15.09375 0.046875 10.984375 1.515625 
z
M 30.609375 32.421875 
Q 37.25 32.421875 41.125 36.953125 
Q 45.015625 41.5 45.015625 49.421875 
Q 45.015625 57.28125 41.125 61.84375 
Q 37.25 66.40625 30.609375 66.40625 
Q 23.96875 66.40625 20.09375 61.84375 
Q 16.21875 57.28125 16.21875 49.421875 
Q 16.21875 41.5 20.09375 36.953125 
Q 23.96875 32.421875 30.609375 32.421875 
z
" id="DejaVuSans-57"/>
      </defs>
      <g transform="translate(48.009375 316.878995)scale(0.1 -0.1)">
       <use xlink:href="#DejaVuSans-48"/>
       <use x="63.623047" xlink:href="#DejaVuSans-46"/>
       <use x="95.410156" xlink:href="#DejaVuSans-55"/>
       <use x="159.033203" xlink:href="#DejaVuSans-48"/>
       <use x="222.65625" xlink:href="#DejaVuSans-57"/>
       <use x="286.279297" xlink:href="#DejaVuSans-48"/>
      </g>
     </g>
    </g>
    <g id="text_22">
     <!-- Seawater $^{87}Sr/^{86}Sr$ -->
     <defs>
      <path d="M 4.203125 54.6875 
L 13.1875 54.6875 
L 24.421875 12.015625 
L 35.59375 54.6875 
L 46.1875 54.6875 
L 57.421875 12.015625 
L 68.609375 54.6875 
L 77.59375 54.6875 
L 63.28125 0 
L 52.6875 0 
L 40.921875 44.828125 
L 29.109375 0 
L 18.5 0 
z
" id="DejaVuSans-119"/>
      <path d="M 18.3125 70.21875 
L 18.3125 54.6875 
L 36.8125 54.6875 
L 36.8125 47.703125 
L 18.3125 47.703125 
L 18.3125 18.015625 
Q 18.3125 11.328125 20.140625 9.421875 
Q 21.96875 7.515625 27.59375 7.515625 
L 36.8125 7.515625 
L 36.8125 0 
L 27.59375 0 
Q 17.1875 0 13.234375 3.875 
Q 9.28125 7.765625 9.28125 18.015625 
L 9.28125 47.703125 
L 2.6875 47.703125 
L 2.6875 54.6875 
L 9.28125 54.6875 
L 9.28125 70.21875 
z
" id="DejaVuSans-116"/>
      <path d="M 41.109375 46.296875 
Q 39.59375 47.171875 37.8125 47.578125 
Q 36.03125 48 33.890625 48 
Q 26.265625 48 22.1875 43.046875 
Q 18.109375 38.09375 18.109375 28.8125 
L 18.109375 0 
L 9.078125 0 
L 9.078125 54.6875 
L 18.109375 54.6875 
L 18.109375 46.1875 
Q 20.953125 51.171875 25.484375 53.578125 
Q 30.03125 56 36.53125 56 
Q 37.453125 56 38.578125 55.875 
Q 39.703125 55.765625 41.0625 55.515625 
z
" id="DejaVuSans-114"/>
      <path d="M 60.296875 70.515625 
L 58.40625 60.890625 
Q 53.46875 63.53125 48.609375 64.875 
Q 43.75 66.21875 39.203125 66.21875 
Q 30.375 66.21875 25.140625 62.359375 
Q 19.921875 58.5 19.921875 52.09375 
Q 19.921875 48.578125 21.84375 46.703125 
Q 23.78125 44.828125 31.78125 42.671875 
L 37.703125 41.21875 
Q 47.703125 38.625 51.609375 34.640625 
Q 55.515625 30.671875 55.515625 23.484375 
Q 55.515625 12.453125 46.84375 5.515625 
Q 38.1875 -1.421875 24.03125 -1.421875 
Q 18.21875 -1.421875 12.359375 -0.265625 
Q 6.5 0.875 0.59375 3.21875 
L 2.59375 13.375 
Q 8.015625 10.015625 13.453125 8.296875 
Q 18.890625 6.59375 24.3125 6.59375 
Q 33.546875 6.59375 39.109375 10.6875 
Q 44.671875 14.796875 44.671875 21.390625 
Q 44.671875 25.78125 42.453125 28.046875 
Q 40.234375 30.328125 32.90625 32.171875 
L 27 33.6875 
Q 16.890625 36.328125 13.203125 39.765625 
Q 9.515625 43.21875 9.515625 49.421875 
Q 9.515625 60.296875 17.890625 67.25 
Q 26.265625 74.21875 39.703125 74.21875 
Q 44.921875 74.21875 50.046875 73.28125 
Q 55.171875 72.359375 60.296875 70.515625 
z
" id="DejaVuSans-Oblique-83"/>
      <path d="M 44.578125 46.390625 
Q 43.21875 47.125 41.453125 47.515625 
Q 39.703125 47.90625 37.703125 47.90625 
Q 30.515625 47.90625 25.140625 42.453125 
Q 19.78125 37.015625 18.015625 27.875 
L 12.5 0 
L 3.515625 0 
L 14.203125 54.6875 
L 23.1875 54.6875 
L 21.484375 46.1875 
Q 25.046875 50.921875 30 53.453125 
Q 34.96875 56 40.578125 56 
Q 42.046875 56 43.453125 55.828125 
Q 44.875 55.671875 46.296875 55.28125 
z
" id="DejaVuSans-Oblique-114"/>
      <path d="M 25.390625 72.90625 
L 33.6875 72.90625 
L 8.296875 -9.28125 
L 0 -9.28125 
z
" id="DejaVuSans-47"/>
     </defs>
     <g transform="translate(41.929687 451.763636)rotate(-90)scale(0.1 -0.1)">
      <use transform="translate(0 0.765625)" xlink:href="#DejaVuSans-83"/>
      <use transform="translate(63.476562 0.765625)" xlink:href="#DejaVuSans-101"/>
      <use transform="translate(125 0.765625)" xlink:href="#DejaVuSans-97"/>
      <use transform="translate(186.279297 0.765625)" xlink:href="#DejaVuSans-119"/>
      <use transform="translate(268.066406 0.765625)" xlink:href="#DejaVuSans-97"/>
      <use transform="translate(329.345703 0.765625)" xlink:href="#DejaVuSans-116"/>
      <use transform="translate(368.554688 0.765625)" xlink:href="#DejaVuSans-101"/>
      <use transform="translate(430.078125 0.765625)" xlink:href="#DejaVuSans-114"/>
      <use transform="translate(471.191406 0.765625)" xlink:href="#DejaVuSans-32"/>
      <use transform="translate(503.935547 39.046875)scale(0.7)" xlink:href="#DejaVuSans-56"/>
      <use transform="translate(548.47168 39.046875)scale(0.7)" xlink:href="#DejaVuSans-55"/>
      <use transform="translate(595.742188 0.765625)" xlink:href="#DejaVuSans-Oblique-83"/>
      <use transform="translate(659.21875 0.765625)" xlink:href="#DejaVuSans-Oblique-114"/>
      <use transform="translate(700.332031 0.765625)" xlink:href="#DejaVuSans-47"/>
      <use transform="translate(734.980469 39.046875)scale(0.7)" xlink:href="#DejaVuSans-56"/>
      <use transform="translate(779.516602 39.046875)scale(0.7)" xlink:href="#DejaVuSans-54"/>
      <use transform="translate(826.787109 0.765625)" xlink:href="#DejaVuSans-Oblique-83"/>
      <use transform="translate(890.263672 0.765625)" xlink:href="#DejaVuSans-Oblique-114"/>
     </g>
    </g>
   </g>
   <g id="line2d_30">
    <path clip-path="url(#p810b2f57ff)" d="M 88.088168 315.312397 
L 91.447418 315.423324 
L 94.958086 315.763428 
L 98.838889 316.368189 
L 103.084218 317.261406 
L 108.14272 318.551813 
L 113.874195 320.24912 
L 121.159112 322.658816 
L 129.397405 325.624896 
L 139.239614 329.401904 
L 151.403575 334.342387 
L 161.756121 338.782372 
L 177.189602 345.660471 
L 207.232174 359.124783 
L 214.337632 361.923847 
L 221.11782 364.353308 
L 227.499834 366.412389 
L 234.184684 368.329394 
L 240.948048 370.042854 
L 247.666548 371.520633 
L 254.979505 372.897956 
L 262.914962 374.16413 
L 270.63731 375.170666 
L 277.838106 375.888826 
L 284.349106 376.316111 
L 290.461931 376.496511 
L 296.759823 376.452697 
L 303.057715 376.192672 
L 310.1127 375.659096 
L 318.586533 374.797737 
L 329.67374 373.423063 
L 341.815268 371.995258 
L 352.818353 370.938509 
L 363.266236 370.162401 
L 370.792302 369.806483 
L 377.297693 369.716537 
L 382.440318 369.876798 
L 387.274497 370.249253 
L 392.063811 370.835435 
L 396.651234 371.613734 
L 400.806833 372.55508 
L 403.594057 373.39513 
L 406.521483 374.512478 
L 409.38722 375.838779 
L 412.381944 377.474613 
L 415.561734 379.468672 
L 418.954633 381.863269 
L 422.695233 384.784509 
L 426.805967 388.282107 
L 432.498185 393.437212 
L 440.388777 400.922974 
L 450.197337 410.161151 
L 455.984892 415.301664 
L 461.239679 419.670475 
L 466.186019 423.491531 
L 470.672496 426.671043 
L 474.693502 429.263617 
L 478.882749 431.699393 
L 483.268281 433.990979 
L 487.379015 435.899778 
L 491.629952 437.628884 
L 495.903322 439.124279 
L 500.143042 440.3779 
L 504.607087 441.464305 
L 509.323496 442.381701 
L 513.686595 443.009768 
L 518.397396 443.459239 
L 523.455899 443.719002 
L 528.497577 443.751435 
L 533.90939 443.561069 
L 539.231474 443.158469 
L 544.744232 442.517884 
L 550.150437 441.669526 
L 555.23698 440.638295 
L 560.149673 439.410809 
L 565.208175 437.917752 
L 569.739517 436.364965 
L 574.169913 434.60279 
L 578.549837 432.616514 
L 582.408207 430.641012 
L 586.34509 428.371814 
L 589.883799 426.071672 
L 593.411292 423.517724 
L 596.680812 420.86275 
L 599.939116 417.934859 
L 603.113298 414.770148 
L 606.343562 411.236614 
L 609.585041 407.349743 
L 613.011588 402.888844 
L 616.62881 397.807659 
L 620.475964 392.013352 
L 624.564267 385.446572 
L 628.899325 378.055752 
L 634.580327 367.871152 
L 648.892188 341.849415 
L 648.892188 341.849415 
" style="fill:none;stroke:#4682b4;stroke-linecap:square;stroke-width:1.5;"/>
   </g>
   <g id="patch_15">
    <path d="M 90 504 
L 90 306.327273 
" style="fill:none;stroke:#000000;stroke-linecap:square;stroke-linejoin:miter;stroke-width:0.8;"/>
   </g>
   <g id="patch_16">
    <path d="M 648 504 
L 648 306.327273 
" style="fill:none;stroke:#000000;stroke-linecap:square;stroke-linejoin:miter;stroke-width:0.8;"/>
   </g>
   <g id="patch_17">
    <path d="M 90 504 
L 648 504 
" style="fill:none;stroke:#000000;stroke-linecap:square;stroke-linejoin:miter;stroke-width:0.8;"/>
   </g>
   <g id="patch_18">
    <path d="M 90 306.327273 
L 648 306.327273 
" style="fill:none;stroke:#000000;stroke-linecap:square;stroke-linejoin:miter;stroke-width:0.8;"/>
   </g>
   <g id="text_23">
    <!-- Hir. -->
    <defs>
     <path d="M 9.8125 72.90625 
L 19.671875 72.90625 
L 19.671875 43.015625 
L 55.515625 43.015625 
L 55.515625 72.90625 
L 65.375 72.90625 
L 65.375 0 
L 55.515625 0 
L 55.515625 34.71875 
L 19.671875 34.71875 
L 19.671875 0 
L 9.8125 0 
z
" id="DejaVuSans-72"/>
     <path d="M 9.421875 54.6875 
L 18.40625 54.6875 
L 18.40625 0 
L 9.421875 0 
z
M 9.421875 75.984375 
L 18.40625 75.984375 
L 18.40625 64.59375 
L 9.421875 64.59375 
z
" id="DejaVuSans-105"/>
    </defs>
    <g transform="translate(624.357266 497.427614)scale(0.12 -0.12)">
     <use xlink:href="#DejaVuSans-72"/>
     <use x="75.195312" xlink:href="#DejaVuSans-105"/>
     <use x="102.978516" xlink:href="#DejaVuSans-114"/>
     <use x="134.966797" xlink:href="#DejaVuSans-46"/>
    </g>
   </g>
   <g id="text_24">
    <!-- Kat. -->
    <defs>
     <path d="M 9.8125 72.90625 
L 19.671875 72.90625 
L 19.671875 42.09375 
L 52.390625 72.90625 
L 65.09375 72.90625 
L 28.90625 38.921875 
L 67.671875 0 
L 54.6875 0 
L 19.671875 35.109375 
L 19.671875 0 
L 9.8125 0 
z
" id="DejaVuSans-75"/>
    </defs>
    <g transform="translate(560.908199 497.427614)scale(0.12 -0.12)">
     <use xlink:href="#DejaVuSans-75"/>
     <use x="63.826172" xlink:href="#DejaVuSans-97"/>
     <use x="125.105469" xlink:href="#DejaVuSans-116"/>
     <use x="164.314453" xlink:href="#DejaVuSans-46"/>
    </g>
   </g>
   <g id="text_25">
    <!-- Sand. -->
    <defs>
     <path d="M 54.890625 33.015625 
L 54.890625 0 
L 45.90625 0 
L 45.90625 32.71875 
Q 45.90625 40.484375 42.875 44.328125 
Q 39.84375 48.1875 33.796875 48.1875 
Q 26.515625 48.1875 22.3125 43.546875 
Q 18.109375 38.921875 18.109375 30.90625 
L 18.109375 0 
L 9.078125 0 
L 9.078125 54.6875 
L 18.109375 54.6875 
L 18.109375 46.1875 
Q 21.34375 51.125 25.703125 53.5625 
Q 30.078125 56 35.796875 56 
Q 45.21875 56 50.046875 50.171875 
Q 54.890625 44.34375 54.890625 33.015625 
z
" id="DejaVuSans-110"/>
     <path d="M 45.40625 46.390625 
L 45.40625 75.984375 
L 54.390625 75.984375 
L 54.390625 0 
L 45.40625 0 
L 45.40625 8.203125 
Q 42.578125 3.328125 38.25 0.953125 
Q 33.9375 -1.421875 27.875 -1.421875 
Q 17.96875 -1.421875 11.734375 6.484375 
Q 5.515625 14.40625 5.515625 27.296875 
Q 5.515625 40.1875 11.734375 48.09375 
Q 17.96875 56 27.875 56 
Q 33.9375 56 38.25 53.625 
Q 42.578125 51.265625 45.40625 46.390625 
z
M 14.796875 27.296875 
Q 14.796875 17.390625 18.875 11.75 
Q 22.953125 6.109375 30.078125 6.109375 
Q 37.203125 6.109375 41.296875 11.75 
Q 45.40625 17.390625 45.40625 27.296875 
Q 45.40625 37.203125 41.296875 42.84375 
Q 37.203125 48.484375 30.078125 48.484375 
Q 22.953125 48.484375 18.875 42.84375 
Q 14.796875 37.203125 14.796875 27.296875 
z
" id="DejaVuSans-100"/>
    </defs>
    <g transform="translate(473.014583 497.427614)scale(0.12 -0.12)">
     <use xlink:href="#DejaVuSans-83"/>
     <use x="63.476562" xlink:href="#DejaVuSans-97"/>
     <use x="124.755859" xlink:href="#DejaVuSans-110"/>
     <use x="188.134766" xlink:href="#DejaVuSans-100"/>
     <use x="251.611328" xlink:href="#DejaVuSans-46"/>
    </g>
   </g>
   <g id="text_26">
    <!-- Darriwillian -->
    <defs>
     <path d="M 19.671875 64.796875 
L 19.671875 8.109375 
L 31.59375 8.109375 
Q 46.6875 8.109375 53.6875 14.9375 
Q 60.6875 21.78125 60.6875 36.53125 
Q 60.6875 51.171875 53.6875 57.984375 
Q 46.6875 64.796875 31.59375 64.796875 
z
M 9.8125 72.90625 
L 30.078125 72.90625 
Q 51.265625 72.90625 61.171875 64.09375 
Q 71.09375 55.28125 71.09375 36.53125 
Q 71.09375 17.671875 61.125 8.828125 
Q 51.171875 0 30.078125 0 
L 9.8125 0 
z
" id="DejaVuSans-68"/>
    </defs>
    <g transform="translate(349.939208 497.427614)scale(0.12 -0.12)">
     <use xlink:href="#DejaVuSans-68"/>
     <use x="77.001953" xlink:href="#DejaVuSans-97"/>
     <use x="138.28125" xlink:href="#DejaVuSans-114"/>
     <use x="177.644531" xlink:href="#DejaVuSans-114"/>
     <use x="218.757812" xlink:href="#DejaVuSans-105"/>
     <use x="246.541016" xlink:href="#DejaVuSans-119"/>
     <use x="328.328125" xlink:href="#DejaVuSans-105"/>
     <use x="356.111328" xlink:href="#DejaVuSans-108"/>
     <use x="383.894531" xlink:href="#DejaVuSans-108"/>
     <use x="411.677734" xlink:href="#DejaVuSans-105"/>
     <use x="439.460938" xlink:href="#DejaVuSans-97"/>
     <use x="500.740234" xlink:href="#DejaVuSans-110"/>
    </g>
   </g>
   <g id="text_27">
    <!-- Dap. -->
    <defs>
     <path d="M 18.109375 8.203125 
L 18.109375 -20.796875 
L 9.078125 -20.796875 
L 9.078125 54.6875 
L 18.109375 54.6875 
L 18.109375 46.390625 
Q 20.953125 51.265625 25.265625 53.625 
Q 29.59375 56 35.59375 56 
Q 45.5625 56 51.78125 48.09375 
Q 58.015625 40.1875 58.015625 27.296875 
Q 58.015625 14.40625 51.78125 6.484375 
Q 45.5625 -1.421875 35.59375 -1.421875 
Q 29.59375 -1.421875 25.265625 0.953125 
Q 20.953125 3.328125 18.109375 8.203125 
z
M 48.6875 27.296875 
Q 48.6875 37.203125 44.609375 42.84375 
Q 40.53125 48.484375 33.40625 48.484375 
Q 26.265625 48.484375 22.1875 42.84375 
Q 18.109375 37.203125 18.109375 27.296875 
Q 18.109375 17.390625 22.1875 11.75 
Q 26.265625 6.109375 33.40625 6.109375 
Q 40.53125 6.109375 44.609375 11.75 
Q 48.6875 17.390625 48.6875 27.296875 
z
" id="DejaVuSans-112"/>
    </defs>
    <g transform="translate(286.41615 497.427614)scale(0.12 -0.12)">
     <use xlink:href="#DejaVuSans-68"/>
     <use x="77.001953" xlink:href="#DejaVuSans-97"/>
     <use x="138.28125" xlink:href="#DejaVuSans-112"/>
     <use x="201.757812" xlink:href="#DejaVuSans-46"/>
    </g>
   </g>
   <g id="text_28">
    <!-- Flo. -->
    <defs>
     <path d="M 9.8125 72.90625 
L 51.703125 72.90625 
L 51.703125 64.59375 
L 19.671875 64.59375 
L 19.671875 43.109375 
L 48.578125 43.109375 
L 48.578125 34.8125 
L 19.671875 34.8125 
L 19.671875 0 
L 9.8125 0 
z
" id="DejaVuSans-70"/>
     <path d="M 30.609375 48.390625 
Q 23.390625 48.390625 19.1875 42.75 
Q 14.984375 37.109375 14.984375 27.296875 
Q 14.984375 17.484375 19.15625 11.84375 
Q 23.34375 6.203125 30.609375 6.203125 
Q 37.796875 6.203125 41.984375 11.859375 
Q 46.1875 17.53125 46.1875 27.296875 
Q 46.1875 37.015625 41.984375 42.703125 
Q 37.796875 48.390625 30.609375 48.390625 
z
M 30.609375 56 
Q 42.328125 56 49.015625 48.375 
Q 55.71875 40.765625 55.71875 27.296875 
Q 55.71875 13.875 49.015625 6.21875 
Q 42.328125 -1.421875 30.609375 -1.421875 
Q 18.84375 -1.421875 12.171875 6.21875 
Q 5.515625 13.875 5.515625 27.296875 
Q 5.515625 40.765625 12.171875 48.375 
Q 18.84375 56 30.609375 56 
z
" id="DejaVuSans-111"/>
    </defs>
    <g transform="translate(241.022585 497.427614)scale(0.12 -0.12)">
     <use xlink:href="#DejaVuSans-70"/>
     <use x="57.519531" xlink:href="#DejaVuSans-108"/>
     <use x="85.302734" xlink:href="#DejaVuSans-111"/>
     <use x="144.734375" xlink:href="#DejaVuSans-46"/>
    </g>
   </g>
   <g id="text_29">
    <!-- Tremadocian -->
    <defs>
     <path d="M -0.296875 72.90625 
L 61.375 72.90625 
L 61.375 64.59375 
L 35.5 64.59375 
L 35.5 0 
L 25.59375 0 
L 25.59375 64.59375 
L -0.296875 64.59375 
z
" id="DejaVuSans-84"/>
     <path d="M 48.78125 52.59375 
L 48.78125 44.1875 
Q 44.96875 46.296875 41.140625 47.34375 
Q 37.3125 48.390625 33.40625 48.390625 
Q 24.65625 48.390625 19.8125 42.84375 
Q 14.984375 37.3125 14.984375 27.296875 
Q 14.984375 17.28125 19.8125 11.734375 
Q 24.65625 6.203125 33.40625 6.203125 
Q 37.3125 6.203125 41.140625 7.25 
Q 44.96875 8.296875 48.78125 10.40625 
L 48.78125 2.09375 
Q 45.015625 0.34375 40.984375 -0.53125 
Q 36.96875 -1.421875 32.421875 -1.421875 
Q 20.0625 -1.421875 12.78125 6.34375 
Q 5.515625 14.109375 5.515625 27.296875 
Q 5.515625 40.671875 12.859375 48.328125 
Q 20.21875 56 33.015625 56 
Q 37.15625 56 41.109375 55.140625 
Q 45.0625 54.296875 48.78125 52.59375 
z
" id="DejaVuSans-99"/>
    </defs>
    <g transform="translate(114.011992 497.427614)scale(0.12 -0.12)">
     <use xlink:href="#DejaVuSans-84"/>
     <use x="46.333984" xlink:href="#DejaVuSans-114"/>
     <use x="85.197266" xlink:href="#DejaVuSans-101"/>
     <use x="146.720703" xlink:href="#DejaVuSans-109"/>
     <use x="244.132812" xlink:href="#DejaVuSans-97"/>
     <use x="305.412109" xlink:href="#DejaVuSans-100"/>
     <use x="368.888672" xlink:href="#DejaVuSans-111"/>
     <use x="430.070312" xlink:href="#DejaVuSans-99"/>
     <use x="485.050781" xlink:href="#DejaVuSans-105"/>
     <use x="512.833984" xlink:href="#DejaVuSans-97"/>
     <use x="574.113281" xlink:href="#DejaVuSans-110"/>
    </g>
   </g>
   <g id="legend_1">
    <g id="patch_19">
     <path d="M 97 421.341761 
L 217.975 421.341761 
Q 219.975 421.341761 219.975 419.341761 
L 219.975 390.985511 
Q 219.975 388.985511 217.975 388.985511 
L 97 388.985511 
Q 95 388.985511 95 390.985511 
L 95 419.341761 
Q 95 421.341761 97 421.341761 
z
" style="fill:#ffffff;opacity:0.8;"/>
    </g>
    <g id="line2d_31">
     <path d="M 99 397.083949 
L 119 397.083949 
" style="fill:none;stroke:#4682b4;stroke-linecap:square;stroke-width:1.5;"/>
    </g>
    <g id="line2d_32"/>
    <g id="text_30">
     <!-- Sea Level Model -->
     <g transform="translate(127 400.583949)scale(0.1 -0.1)">
      <use xlink:href="#DejaVuSans-83"/>
      <use x="63.476562" xlink:href="#DejaVuSans-101"/>
      <use x="125" xlink:href="#DejaVuSans-97"/>
      <use x="186.279297" xlink:href="#DejaVuSans-32"/>
      <use x="218.066406" xlink:href="#DejaVuSans-76"/>
      <use x="272.029297" xlink:href="#DejaVuSans-101"/>
      <use x="333.552734" xlink:href="#DejaVuSans-118"/>
      <use x="392.732422" xlink:href="#DejaVuSans-101"/>
      <use x="454.255859" xlink:href="#DejaVuSans-108"/>
      <use x="482.039062" xlink:href="#DejaVuSans-32"/>
      <use x="513.826172" xlink:href="#DejaVuSans-77"/>
      <use x="600.105469" xlink:href="#DejaVuSans-111"/>
      <use x="661.287109" xlink:href="#DejaVuSans-100"/>
      <use x="724.763672" xlink:href="#DejaVuSans-101"/>
      <use x="786.287109" xlink:href="#DejaVuSans-108"/>
     </g>
    </g>
    <g id="PathCollection_2">
     <g>
      <use style="fill:#6b8e23;fill-opacity:0.4;stroke:#6b8e23;stroke-opacity:0.4;" x="109" xlink:href="#mbf34d151e1" y="412.637074"/>
     </g>
    </g>
    <g id="text_31">
     <!-- Sr Conodont Data -->
     <defs>
      <path d="M 64.40625 67.28125 
L 64.40625 56.890625 
Q 59.421875 61.53125 53.78125 63.8125 
Q 48.140625 66.109375 41.796875 66.109375 
Q 29.296875 66.109375 22.65625 58.46875 
Q 16.015625 50.828125 16.015625 36.375 
Q 16.015625 21.96875 22.65625 14.328125 
Q 29.296875 6.6875 41.796875 6.6875 
Q 48.140625 6.6875 53.78125 8.984375 
Q 59.421875 11.28125 64.40625 15.921875 
L 64.40625 5.609375 
Q 59.234375 2.09375 53.4375 0.328125 
Q 47.65625 -1.421875 41.21875 -1.421875 
Q 24.65625 -1.421875 15.125 8.703125 
Q 5.609375 18.84375 5.609375 36.375 
Q 5.609375 53.953125 15.125 64.078125 
Q 24.65625 74.21875 41.21875 74.21875 
Q 47.75 74.21875 53.53125 72.484375 
Q 59.328125 70.75 64.40625 67.28125 
z
" id="DejaVuSans-67"/>
     </defs>
     <g transform="translate(127 415.262074)scale(0.1 -0.1)">
      <use xlink:href="#DejaVuSans-83"/>
      <use x="63.476562" xlink:href="#DejaVuSans-114"/>
      <use x="104.589844" xlink:href="#DejaVuSans-32"/>
      <use x="136.376953" xlink:href="#DejaVuSans-67"/>
      <use x="206.201172" xlink:href="#DejaVuSans-111"/>
      <use x="267.382812" xlink:href="#DejaVuSans-110"/>
      <use x="330.761719" xlink:href="#DejaVuSans-111"/>
      <use x="391.943359" xlink:href="#DejaVuSans-100"/>
      <use x="455.419922" xlink:href="#DejaVuSans-111"/>
      <use x="516.601562" xlink:href="#DejaVuSans-110"/>
      <use x="579.980469" xlink:href="#DejaVuSans-116"/>
      <use x="619.189453" xlink:href="#DejaVuSans-32"/>
      <use x="650.976562" xlink:href="#DejaVuSans-68"/>
      <use x="727.978516" xlink:href="#DejaVuSans-97"/>
      <use x="789.257812" xlink:href="#DejaVuSans-116"/>
      <use x="828.466797" xlink:href="#DejaVuSans-97"/>
     </g>
    </g>
   </g>
  </g>
  <g id="axes_3">
   <g id="matplotlib.axis_5">
    <g id="ytick_11">
     <g id="line2d_33">
      <defs>
       <path d="M 0 0 
L 3.5 0 
" id="m06b194ab82" style="stroke:#000000;stroke-width:0.8;"/>
      </defs>
      <g>
       <use style="stroke:#000000;stroke-width:0.8;" x="648" xlink:href="#m06b194ab82" y="253.186985"/>
      </g>
     </g>
     <g id="text_32">
      <!-- 0.9 -->
      <g transform="translate(655 256.986204)scale(0.1 -0.1)">
       <use xlink:href="#DejaVuSans-48"/>
       <use x="63.623047" xlink:href="#DejaVuSans-46"/>
       <use x="95.410156" xlink:href="#DejaVuSans-57"/>
      </g>
     </g>
    </g>
    <g id="ytick_12">
     <g id="line2d_34">
      <g>
       <use style="stroke:#000000;stroke-width:0.8;" x="648" xlink:href="#m06b194ab82" y="223.356686"/>
      </g>
     </g>
     <g id="text_33">
      <!-- 1.0 -->
      <g transform="translate(655 227.155904)scale(0.1 -0.1)">
       <use xlink:href="#DejaVuSans-49"/>
       <use x="63.623047" xlink:href="#DejaVuSans-46"/>
       <use x="95.410156" xlink:href="#DejaVuSans-48"/>
      </g>
     </g>
    </g>
    <g id="ytick_13">
     <g id="line2d_35">
      <g>
       <use style="stroke:#000000;stroke-width:0.8;" x="648" xlink:href="#m06b194ab82" y="193.526386"/>
      </g>
     </g>
     <g id="text_34">
      <!-- 1.1 -->
      <g transform="translate(655 197.325605)scale(0.1 -0.1)">
       <use xlink:href="#DejaVuSans-49"/>
       <use x="63.623047" xlink:href="#DejaVuSans-46"/>
       <use x="95.410156" xlink:href="#DejaVuSans-49"/>
      </g>
     </g>
    </g>
    <g id="ytick_14">
     <g id="line2d_36">
      <g>
       <use style="stroke:#000000;stroke-width:0.8;" x="648" xlink:href="#m06b194ab82" y="163.696086"/>
      </g>
     </g>
     <g id="text_35">
      <!-- 1.2 -->
      <g transform="translate(655 167.495305)scale(0.1 -0.1)">
       <use xlink:href="#DejaVuSans-49"/>
       <use x="63.623047" xlink:href="#DejaVuSans-46"/>
       <use x="95.410156" xlink:href="#DejaVuSans-50"/>
      </g>
     </g>
    </g>
    <g id="ytick_15">
     <g id="line2d_37">
      <g>
       <use style="stroke:#000000;stroke-width:0.8;" x="648" xlink:href="#m06b194ab82" y="133.865786"/>
      </g>
     </g>
     <g id="text_36">
      <!-- 1.3 -->
      <defs>
       <path d="M 40.578125 39.3125 
Q 47.65625 37.796875 51.625 33 
Q 55.609375 28.21875 55.609375 21.1875 
Q 55.609375 10.40625 48.1875 4.484375 
Q 40.765625 -1.421875 27.09375 -1.421875 
Q 22.515625 -1.421875 17.65625 -0.515625 
Q 12.796875 0.390625 7.625 2.203125 
L 7.625 11.71875 
Q 11.71875 9.328125 16.59375 8.109375 
Q 21.484375 6.890625 26.8125 6.890625 
Q 36.078125 6.890625 40.9375 10.546875 
Q 45.796875 14.203125 45.796875 21.1875 
Q 45.796875 27.640625 41.28125 31.265625 
Q 36.765625 34.90625 28.71875 34.90625 
L 20.21875 34.90625 
L 20.21875 43.015625 
L 29.109375 43.015625 
Q 36.375 43.015625 40.234375 45.921875 
Q 44.09375 48.828125 44.09375 54.296875 
Q 44.09375 59.90625 40.109375 62.90625 
Q 36.140625 65.921875 28.71875 65.921875 
Q 24.65625 65.921875 20.015625 65.03125 
Q 15.375 64.15625 9.8125 62.3125 
L 9.8125 71.09375 
Q 15.4375 72.65625 20.34375 73.4375 
Q 25.25 74.21875 29.59375 74.21875 
Q 40.828125 74.21875 47.359375 69.109375 
Q 53.90625 64.015625 53.90625 55.328125 
Q 53.90625 49.265625 50.4375 45.09375 
Q 46.96875 40.921875 40.578125 39.3125 
z
" id="DejaVuSans-51"/>
      </defs>
      <g transform="translate(655 137.665005)scale(0.1 -0.1)">
       <use xlink:href="#DejaVuSans-49"/>
       <use x="63.623047" xlink:href="#DejaVuSans-46"/>
       <use x="95.410156" xlink:href="#DejaVuSans-51"/>
      </g>
     </g>
    </g>
    <g id="ytick_16">
     <g id="line2d_38">
      <g>
       <use style="stroke:#000000;stroke-width:0.8;" x="648" xlink:href="#m06b194ab82" y="104.035487"/>
      </g>
     </g>
     <g id="text_37">
      <!-- 1.4 -->
      <g transform="translate(655 107.834705)scale(0.1 -0.1)">
       <use xlink:href="#DejaVuSans-49"/>
       <use x="63.623047" xlink:href="#DejaVuSans-46"/>
       <use x="95.410156" xlink:href="#DejaVuSans-52"/>
      </g>
     </g>
    </g>
    <g id="ytick_17">
     <g id="line2d_39">
      <g>
       <use style="stroke:#000000;stroke-width:0.8;" x="648" xlink:href="#m06b194ab82" y="74.205187"/>
      </g>
     </g>
     <g id="text_38">
      <!-- 1.5 -->
      <g transform="translate(655 78.004406)scale(0.1 -0.1)">
       <use xlink:href="#DejaVuSans-49"/>
       <use x="63.623047" xlink:href="#DejaVuSans-46"/>
       <use x="95.410156" xlink:href="#DejaVuSans-53"/>
      </g>
     </g>
    </g>
    <g id="text_39">
     <!-- Hydrothermal Sr Flux (mol/yr) -->
     <defs>
      <path d="M 32.171875 -5.078125 
Q 28.375 -14.84375 24.75 -17.8125 
Q 21.140625 -20.796875 15.09375 -20.796875 
L 7.90625 -20.796875 
L 7.90625 -13.28125 
L 13.1875 -13.28125 
Q 16.890625 -13.28125 18.9375 -11.515625 
Q 21 -9.765625 23.484375 -3.21875 
L 25.09375 0.875 
L 2.984375 54.6875 
L 12.5 54.6875 
L 29.59375 11.921875 
L 46.6875 54.6875 
L 56.203125 54.6875 
z
" id="DejaVuSans-121"/>
      <path d="M 54.890625 33.015625 
L 54.890625 0 
L 45.90625 0 
L 45.90625 32.71875 
Q 45.90625 40.484375 42.875 44.328125 
Q 39.84375 48.1875 33.796875 48.1875 
Q 26.515625 48.1875 22.3125 43.546875 
Q 18.109375 38.921875 18.109375 30.90625 
L 18.109375 0 
L 9.078125 0 
L 9.078125 75.984375 
L 18.109375 75.984375 
L 18.109375 46.1875 
Q 21.34375 51.125 25.703125 53.5625 
Q 30.078125 56 35.796875 56 
Q 45.21875 56 50.046875 50.171875 
Q 54.890625 44.34375 54.890625 33.015625 
z
" id="DejaVuSans-104"/>
      <path d="M 8.5 21.578125 
L 8.5 54.6875 
L 17.484375 54.6875 
L 17.484375 21.921875 
Q 17.484375 14.15625 20.5 10.265625 
Q 23.53125 6.390625 29.59375 6.390625 
Q 36.859375 6.390625 41.078125 11.03125 
Q 45.3125 15.671875 45.3125 23.6875 
L 45.3125 54.6875 
L 54.296875 54.6875 
L 54.296875 0 
L 45.3125 0 
L 45.3125 8.40625 
Q 42.046875 3.421875 37.71875 1 
Q 33.40625 -1.421875 27.6875 -1.421875 
Q 18.265625 -1.421875 13.375 4.4375 
Q 8.5 10.296875 8.5 21.578125 
z
M 31.109375 56 
z
" id="DejaVuSans-117"/>
      <path d="M 54.890625 54.6875 
L 35.109375 28.078125 
L 55.90625 0 
L 45.3125 0 
L 29.390625 21.484375 
L 13.484375 0 
L 2.875 0 
L 24.125 28.609375 
L 4.6875 54.6875 
L 15.28125 54.6875 
L 29.78125 35.203125 
L 44.28125 54.6875 
z
" id="DejaVuSans-120"/>
     </defs>
     <g transform="translate(682.501563 242.658707)rotate(-90)scale(0.1 -0.1)">
      <use xlink:href="#DejaVuSans-72"/>
      <use x="75.195312" xlink:href="#DejaVuSans-121"/>
      <use x="134.375" xlink:href="#DejaVuSans-100"/>
      <use x="197.851562" xlink:href="#DejaVuSans-114"/>
      <use x="236.714844" xlink:href="#DejaVuSans-111"/>
      <use x="297.896484" xlink:href="#DejaVuSans-116"/>
      <use x="337.105469" xlink:href="#DejaVuSans-104"/>
      <use x="400.484375" xlink:href="#DejaVuSans-101"/>
      <use x="462.007812" xlink:href="#DejaVuSans-114"/>
      <use x="501.371094" xlink:href="#DejaVuSans-109"/>
      <use x="598.783203" xlink:href="#DejaVuSans-97"/>
      <use x="660.0625" xlink:href="#DejaVuSans-108"/>
      <use x="687.845703" xlink:href="#DejaVuSans-32"/>
      <use x="719.632812" xlink:href="#DejaVuSans-83"/>
      <use x="783.109375" xlink:href="#DejaVuSans-114"/>
      <use x="824.222656" xlink:href="#DejaVuSans-32"/>
      <use x="856.009766" xlink:href="#DejaVuSans-70"/>
      <use x="913.529297" xlink:href="#DejaVuSans-108"/>
      <use x="941.3125" xlink:href="#DejaVuSans-117"/>
      <use x="1004.691406" xlink:href="#DejaVuSans-120"/>
      <use x="1063.871094" xlink:href="#DejaVuSans-32"/>
      <use x="1095.658203" xlink:href="#DejaVuSans-40"/>
      <use x="1134.671875" xlink:href="#DejaVuSans-109"/>
      <use x="1232.083984" xlink:href="#DejaVuSans-111"/>
      <use x="1293.265625" xlink:href="#DejaVuSans-108"/>
      <use x="1321.048828" xlink:href="#DejaVuSans-47"/>
      <use x="1354.740234" xlink:href="#DejaVuSans-121"/>
      <use x="1413.919922" xlink:href="#DejaVuSans-114"/>
      <use x="1455.033203" xlink:href="#DejaVuSans-41"/>
     </g>
    </g>
    <g id="text_40">
     <!-- 1e10 -->
     <g transform="translate(622.759375 66.12)scale(0.1 -0.1)">
      <use xlink:href="#DejaVuSans-49"/>
      <use x="63.623047" xlink:href="#DejaVuSans-101"/>
      <use x="125.146484" xlink:href="#DejaVuSans-49"/>
      <use x="188.769531" xlink:href="#DejaVuSans-48"/>
     </g>
    </g>
   </g>
   <g id="line2d_40">
    <path clip-path="url(#p13cc1e1133)" d="M 88.088168 216.519275 
L 96.696596 210.283185 
L 101.917734 206.873175 
L 111.322511 201.777395 
L 115.607097 199.655343 
L 130.289093 192.983172 
L 136.615025 190.129989 
L 143.036295 187.280735 
L 149.362228 184.4275 
L 155.783498 181.333483 
L 162.204769 178.28767 
L 181.272296 169.341339 
L 185.685868 167.286462 
L 193.974634 163.827346 
L 197.715234 162.446483 
L 204.68049 160.413732 
L 211.023247 158.962551 
L 219.205459 157.560912 
L 223.736801 156.974239 
L 238.278595 155.7399 
L 244.638176 155.458665 
L 263.756176 154.980004 
L 270.126973 155.091106 
L 274.697572 155.343121 
L 281.079585 156.045384 
L 287.461599 157.142009 
L 300.231234 160.013397 
L 306.630072 161.674895 
L 325.108749 165.551933 
L 332.062789 166.298473 
L 340.233785 166.691355 
L 352.969772 166.973281 
L 363.316709 166.862279 
L 370.293181 166.105319 
L 375.469454 165.194564 
L 382.502007 162.690732 
L 389.568208 159.517747 
L 394.553806 156.933072 
L 400.543252 152.54876 
L 407.76648 142.105249 
L 422.874692 118.07723 
L 426.671373 112.424448 
L 434.180614 102.875836 
L 439.28959 96.901127 
L 445.671603 90.950279 
L 452.081657 86.341996 
L 458.738468 82.772305 
L 464.733523 80.303541 
L 471.070671 78.853496 
L 484.098279 78.16049 
L 491.37198 78.720314 
L 497.759602 79.620519 
L 509.603901 81.925658 
L 518.829219 84.655663 
L 523.30448 86.013536 
L 536.079723 90.466138 
L 544.430179 93.93483 
L 547.907198 95.557501 
L 554.670563 99.440206 
L 563.963178 105.593113 
L 566.666281 107.561739 
L 574.029711 114.29889 
L 579.419091 119.774437 
L 585.795497 127.818581 
L 592.076565 137.513563 
L 598.604389 150.034291 
L 605.378969 165.35339 
L 620.246032 202.343246 
L 630.514457 227.70691 
L 636.700187 240.427896 
L 643.048552 250.596151 
L 648.892188 257.807603 
L 648.892188 257.807603 
" style="fill:none;stroke:#4682b4;stroke-dasharray:5.55,2.4;stroke-dashoffset:0;stroke-width:1.5;"/>
   </g>
   <g id="line2d_41">
    <path clip-path="url(#p13cc1e1133)" d="M 90 74.205187 
L 648 74.205187 
" style="fill:none;stroke:#808080;stroke-dasharray:5.55,2.4;stroke-dashoffset:0;stroke-opacity:0.4;stroke-width:1.5;"/>
   </g>
   <g id="patch_20">
    <path d="M 90 266.792727 
L 90 69.12 
" style="fill:none;stroke:#000000;stroke-linecap:square;stroke-linejoin:miter;stroke-width:0.8;"/>
   </g>
   <g id="patch_21">
    <path d="M 648 266.792727 
L 648 69.12 
" style="fill:none;stroke:#000000;stroke-linecap:square;stroke-linejoin:miter;stroke-width:0.8;"/>
   </g>
   <g id="patch_22">
    <path d="M 90 266.792727 
L 648 266.792727 
" style="fill:none;stroke:#000000;stroke-linecap:square;stroke-linejoin:miter;stroke-width:0.8;"/>
   </g>
   <g id="patch_23">
    <path d="M 90 69.12 
L 648 69.12 
" style="fill:none;stroke:#000000;stroke-linecap:square;stroke-linejoin:miter;stroke-width:0.8;"/>
   </g>
   <g id="patch_24">
    <path d="M 181.303944 111.998846 
Q 210.325357 93.636027 238.401978 75.87101 
" style="fill:none;stroke:#000000;stroke-linecap:round;"/>
    <path d="M 233.952405 76.319675 
L 238.401978 75.87101 
L 236.091166 79.699867 
" style="fill:none;stroke:#000000;stroke-linecap:round;"/>
   </g>
   <g id="text_41">
    <!-- Present Day -->
    <defs>
     <path d="M 19.671875 64.796875 
L 19.671875 37.40625 
L 32.078125 37.40625 
Q 38.96875 37.40625 42.71875 40.96875 
Q 46.484375 44.53125 46.484375 51.125 
Q 46.484375 57.671875 42.71875 61.234375 
Q 38.96875 64.796875 32.078125 64.796875 
z
M 9.8125 72.90625 
L 32.078125 72.90625 
Q 44.34375 72.90625 50.609375 67.359375 
Q 56.890625 61.8125 56.890625 51.125 
Q 56.890625 40.328125 50.609375 34.8125 
Q 44.34375 29.296875 32.078125 29.296875 
L 19.671875 29.296875 
L 19.671875 0 
L 9.8125 0 
z
" id="DejaVuSans-80"/>
     <path d="M 44.28125 53.078125 
L 44.28125 44.578125 
Q 40.484375 46.53125 36.375 47.5 
Q 32.28125 48.484375 27.875 48.484375 
Q 21.1875 48.484375 17.84375 46.4375 
Q 14.5 44.390625 14.5 40.28125 
Q 14.5 37.15625 16.890625 35.375 
Q 19.28125 33.59375 26.515625 31.984375 
L 29.59375 31.296875 
Q 39.15625 29.25 43.1875 25.515625 
Q 47.21875 21.78125 47.21875 15.09375 
Q 47.21875 7.46875 41.1875 3.015625 
Q 35.15625 -1.421875 24.609375 -1.421875 
Q 20.21875 -1.421875 15.453125 -0.5625 
Q 10.6875 0.296875 5.421875 2 
L 5.421875 11.28125 
Q 10.40625 8.6875 15.234375 7.390625 
Q 20.0625 6.109375 24.8125 6.109375 
Q 31.15625 6.109375 34.5625 8.28125 
Q 37.984375 10.453125 37.984375 14.40625 
Q 37.984375 18.0625 35.515625 20.015625 
Q 33.0625 21.96875 24.703125 23.78125 
L 21.578125 24.515625 
Q 13.234375 26.265625 9.515625 29.90625 
Q 5.8125 33.546875 5.8125 39.890625 
Q 5.8125 47.609375 11.28125 51.796875 
Q 16.75 56 26.8125 56 
Q 31.78125 56 36.171875 55.265625 
Q 40.578125 54.546875 44.28125 53.078125 
z
" id="DejaVuSans-115"/>
    </defs>
    <g transform="translate(113.57926 122.667974)scale(0.1 -0.1)">
     <use xlink:href="#DejaVuSans-80"/>
     <use x="58.552734" xlink:href="#DejaVuSans-114"/>
     <use x="97.416016" xlink:href="#DejaVuSans-101"/>
     <use x="158.939453" xlink:href="#DejaVuSans-115"/>
     <use x="211.039062" xlink:href="#DejaVuSans-101"/>
     <use x="272.5625" xlink:href="#DejaVuSans-110"/>
     <use x="335.941406" xlink:href="#DejaVuSans-116"/>
     <use x="375.150391" xlink:href="#DejaVuSans-32"/>
     <use x="406.9375" xlink:href="#DejaVuSans-68"/>
     <use x="483.939453" xlink:href="#DejaVuSans-97"/>
     <use x="545.21875" xlink:href="#DejaVuSans-121"/>
    </g>
    <!-- Hydrothermal Flux -->
    <g transform="translate(113.57926 133.865786)scale(0.1 -0.1)">
     <use xlink:href="#DejaVuSans-72"/>
     <use x="75.195312" xlink:href="#DejaVuSans-121"/>
     <use x="134.375" xlink:href="#DejaVuSans-100"/>
     <use x="197.851562" xlink:href="#DejaVuSans-114"/>
     <use x="236.714844" xlink:href="#DejaVuSans-111"/>
     <use x="297.896484" xlink:href="#DejaVuSans-116"/>
     <use x="337.105469" xlink:href="#DejaVuSans-104"/>
     <use x="400.484375" xlink:href="#DejaVuSans-101"/>
     <use x="462.007812" xlink:href="#DejaVuSans-114"/>
     <use x="501.371094" xlink:href="#DejaVuSans-109"/>
     <use x="598.783203" xlink:href="#DejaVuSans-97"/>
     <use x="660.0625" xlink:href="#DejaVuSans-108"/>
     <use x="687.845703" xlink:href="#DejaVuSans-32"/>
     <use x="719.632812" xlink:href="#DejaVuSans-70"/>
     <use x="777.152344" xlink:href="#DejaVuSans-108"/>
     <use x="804.935547" xlink:href="#DejaVuSans-117"/>
     <use x="868.314453" xlink:href="#DejaVuSans-120"/>
    </g>
   </g>
  </g>
 </g>
 <defs>
  <clipPath id="p13cc1e1133">
   <rect height="197.672727" width="558" x="90" y="69.12"/>
  </clipPath>
  <clipPath id="p810b2f57ff">
   <rect height="197.672727" width="558" x="90" y="306.327273"/>
  </clipPath>
 </defs>
</svg>
