<?xml version="1.0" encoding="utf-8" standalone="no"?>
<!DOCTYPE svg PUBLIC "-//W3C//DTD SVG 1.1//EN"
  "http://www.w3.org/Graphics/SVG/1.1/DTD/svg11.dtd">
<!-- Created with matplotlib (https://matplotlib.org/) -->
<svg height="576pt" version="1.1" viewBox="0 0 720 576" width="720pt" xmlns="http://www.w3.org/2000/svg" xmlns:xlink="http://www.w3.org/1999/xlink">
 <defs>
  <style type="text/css">
*{stroke-linecap:butt;stroke-linejoin:round;}
  </style>
 </defs>
 <g id="figure_1">
  <g id="patch_1">
   <path d="M 0 576 
L 720 576 
L 720 0 
L 0 0 
z
" style="fill:#ffffff;"/>
  </g>
  <g id="axes_1">
   <g id="patch_2">
    <path d="M 90 266.792727 
L 648 266.792727 
L 648 69.12 
L 90 69.12 
z
" style="fill:#ffffff;"/>
   </g>
   <g id="matplotlib.axis_1">
    <g id="xtick_1">
     <g id="line2d_1">
      <defs>
       <path d="M 0 0 
L 0 3.5 
" id="mc2e22576e9" style="stroke:#000000;stroke-width:0.8;"/>
      </defs>
      <g>
       <use style="stroke:#000000;stroke-width:0.8;" x="541.933884" xlink:href="#mc2e22576e9" y="266.792727"/>
      </g>
     </g>
    </g>
    <g id="xtick_2">
     <g id="line2d_2">
      <g>
       <use style="stroke:#000000;stroke-width:0.8;" x="426.644628" xlink:href="#mc2e22576e9" y="266.792727"/>
      </g>
     </g>
    </g>
    <g id="xtick_3">
     <g id="line2d_3">
      <g>
       <use style="stroke:#000000;stroke-width:0.8;" x="311.355372" xlink:href="#mc2e22576e9" y="266.792727"/>
      </g>
     </g>
    </g>
    <g id="xtick_4">
     <g id="line2d_4">
      <g>
       <use style="stroke:#000000;stroke-width:0.8;" x="196.066116" xlink:href="#mc2e22576e9" y="266.792727"/>
      </g>
     </g>
    </g>
   </g>
   <g id="matplotlib.axis_2">
    <g id="ytick_1">
     <g id="line2d_5">
      <defs>
       <path d="M 0 0 
L -3.5 0 
" id="m464e59c849" style="stroke:#000000;stroke-width:0.8;"/>
      </defs>
      <g>
       <use style="stroke:#000000;stroke-width:0.8;" x="90" xlink:href="#m464e59c849" y="246.40416"/>
      </g>
     </g>
     <g id="text_1">
      <!-- 140 -->
      <defs>
       <path d="M 12.40625 8.296875 
L 28.515625 8.296875 
L 28.515625 63.921875 
L 10.984375 60.40625 
L 10.984375 69.390625 
L 28.421875 72.90625 
L 38.28125 72.90625 
L 38.28125 8.296875 
L 54.390625 8.296875 
L 54.390625 0 
L 12.40625 0 
z
" id="DejaVuSans-49"/>
       <path d="M 37.796875 64.3125 
L 12.890625 25.390625 
L 37.796875 25.390625 
z
M 35.203125 72.90625 
L 47.609375 72.90625 
L 47.609375 25.390625 
L 58.015625 25.390625 
L 58.015625 17.1875 
L 47.609375 17.1875 
L 47.609375 0 
L 37.796875 0 
L 37.796875 17.1875 
L 4.890625 17.1875 
L 4.890625 26.703125 
z
" id="DejaVuSans-52"/>
       <path d="M 31.78125 66.40625 
Q 24.171875 66.40625 20.328125 58.90625 
Q 16.5 51.421875 16.5 36.375 
Q 16.5 21.390625 20.328125 13.890625 
Q 24.171875 6.390625 31.78125 6.390625 
Q 39.453125 6.390625 43.28125 13.890625 
Q 47.125 21.390625 47.125 36.375 
Q 47.125 51.421875 43.28125 58.90625 
Q 39.453125 66.40625 31.78125 66.40625 
z
M 31.78125 74.21875 
Q 44.046875 74.21875 50.515625 64.515625 
Q 56.984375 54.828125 56.984375 36.375 
Q 56.984375 17.96875 50.515625 8.265625 
Q 44.046875 -1.421875 31.78125 -1.421875 
Q 19.53125 -1.421875 13.0625 8.265625 
Q 6.59375 17.96875 6.59375 36.375 
Q 6.59375 54.828125 13.0625 64.515625 
Q 19.53125 74.21875 31.78125 74.21875 
z
" id="DejaVuSans-48"/>
      </defs>
      <g transform="translate(63.9125 250.203379)scale(0.1 -0.1)">
       <use xlink:href="#DejaVuSans-49"/>
       <use x="63.623047" xlink:href="#DejaVuSans-52"/>
       <use x="127.246094" xlink:href="#DejaVuSans-48"/>
      </g>
     </g>
    </g>
    <g id="ytick_2">
     <g id="line2d_6">
      <g>
       <use style="stroke:#000000;stroke-width:0.8;" x="90" xlink:href="#m464e59c849" y="207.081943"/>
      </g>
     </g>
     <g id="text_2">
      <!-- 160 -->
      <defs>
       <path d="M 33.015625 40.375 
Q 26.375 40.375 22.484375 35.828125 
Q 18.609375 31.296875 18.609375 23.390625 
Q 18.609375 15.53125 22.484375 10.953125 
Q 26.375 6.390625 33.015625 6.390625 
Q 39.65625 6.390625 43.53125 10.953125 
Q 47.40625 15.53125 47.40625 23.390625 
Q 47.40625 31.296875 43.53125 35.828125 
Q 39.65625 40.375 33.015625 40.375 
z
M 52.59375 71.296875 
L 52.59375 62.3125 
Q 48.875 64.0625 45.09375 64.984375 
Q 41.3125 65.921875 37.59375 65.921875 
Q 27.828125 65.921875 22.671875 59.328125 
Q 17.53125 52.734375 16.796875 39.40625 
Q 19.671875 43.65625 24.015625 45.921875 
Q 28.375 48.1875 33.59375 48.1875 
Q 44.578125 48.1875 50.953125 41.515625 
Q 57.328125 34.859375 57.328125 23.390625 
Q 57.328125 12.15625 50.6875 5.359375 
Q 44.046875 -1.421875 33.015625 -1.421875 
Q 20.359375 -1.421875 13.671875 8.265625 
Q 6.984375 17.96875 6.984375 36.375 
Q 6.984375 53.65625 15.1875 63.9375 
Q 23.390625 74.21875 37.203125 74.21875 
Q 40.921875 74.21875 44.703125 73.484375 
Q 48.484375 72.75 52.59375 71.296875 
z
" id="DejaVuSans-54"/>
      </defs>
      <g transform="translate(63.9125 210.881161)scale(0.1 -0.1)">
       <use xlink:href="#DejaVuSans-49"/>
       <use x="63.623047" xlink:href="#DejaVuSans-54"/>
       <use x="127.246094" xlink:href="#DejaVuSans-48"/>
      </g>
     </g>
    </g>
    <g id="ytick_3">
     <g id="line2d_7">
      <g>
       <use style="stroke:#000000;stroke-width:0.8;" x="90" xlink:href="#m464e59c849" y="167.759725"/>
      </g>
     </g>
     <g id="text_3">
      <!-- 180 -->
      <defs>
       <path d="M 31.78125 34.625 
Q 24.75 34.625 20.71875 30.859375 
Q 16.703125 27.09375 16.703125 20.515625 
Q 16.703125 13.921875 20.71875 10.15625 
Q 24.75 6.390625 31.78125 6.390625 
Q 38.8125 6.390625 42.859375 10.171875 
Q 46.921875 13.96875 46.921875 20.515625 
Q 46.921875 27.09375 42.890625 30.859375 
Q 38.875 34.625 31.78125 34.625 
z
M 21.921875 38.8125 
Q 15.578125 40.375 12.03125 44.71875 
Q 8.5 49.078125 8.5 55.328125 
Q 8.5 64.0625 14.71875 69.140625 
Q 20.953125 74.21875 31.78125 74.21875 
Q 42.671875 74.21875 48.875 69.140625 
Q 55.078125 64.0625 55.078125 55.328125 
Q 55.078125 49.078125 51.53125 44.71875 
Q 48 40.375 41.703125 38.8125 
Q 48.828125 37.15625 52.796875 32.3125 
Q 56.78125 27.484375 56.78125 20.515625 
Q 56.78125 9.90625 50.3125 4.234375 
Q 43.84375 -1.421875 31.78125 -1.421875 
Q 19.734375 -1.421875 13.25 4.234375 
Q 6.78125 9.90625 6.78125 20.515625 
Q 6.78125 27.484375 10.78125 32.3125 
Q 14.796875 37.15625 21.921875 38.8125 
z
M 18.3125 54.390625 
Q 18.3125 48.734375 21.84375 45.5625 
Q 25.390625 42.390625 31.78125 42.390625 
Q 38.140625 42.390625 41.71875 45.5625 
Q 45.3125 48.734375 45.3125 54.390625 
Q 45.3125 60.0625 41.71875 63.234375 
Q 38.140625 66.40625 31.78125 66.40625 
Q 25.390625 66.40625 21.84375 63.234375 
Q 18.3125 60.0625 18.3125 54.390625 
z
" id="DejaVuSans-56"/>
      </defs>
      <g transform="translate(63.9125 171.558944)scale(0.1 -0.1)">
       <use xlink:href="#DejaVuSans-49"/>
       <use x="63.623047" xlink:href="#DejaVuSans-56"/>
       <use x="127.246094" xlink:href="#DejaVuSans-48"/>
      </g>
     </g>
    </g>
    <g id="ytick_4">
     <g id="line2d_8">
      <g>
       <use style="stroke:#000000;stroke-width:0.8;" x="90" xlink:href="#m464e59c849" y="128.437507"/>
      </g>
     </g>
     <g id="text_4">
      <!-- 200 -->
      <defs>
       <path d="M 19.1875 8.296875 
L 53.609375 8.296875 
L 53.609375 0 
L 7.328125 0 
L 7.328125 8.296875 
Q 12.9375 14.109375 22.625 23.890625 
Q 32.328125 33.6875 34.8125 36.53125 
Q 39.546875 41.84375 41.421875 45.53125 
Q 43.3125 49.21875 43.3125 52.78125 
Q 43.3125 58.59375 39.234375 62.25 
Q 35.15625 65.921875 28.609375 65.921875 
Q 23.96875 65.921875 18.8125 64.3125 
Q 13.671875 62.703125 7.8125 59.421875 
L 7.8125 69.390625 
Q 13.765625 71.78125 18.9375 73 
Q 24.125 74.21875 28.421875 74.21875 
Q 39.75 74.21875 46.484375 68.546875 
Q 53.21875 62.890625 53.21875 53.421875 
Q 53.21875 48.921875 51.53125 44.890625 
Q 49.859375 40.875 45.40625 35.40625 
Q 44.1875 33.984375 37.640625 27.21875 
Q 31.109375 20.453125 19.1875 8.296875 
z
" id="DejaVuSans-50"/>
      </defs>
      <g transform="translate(63.9125 132.236726)scale(0.1 -0.1)">
       <use xlink:href="#DejaVuSans-50"/>
       <use x="63.623047" xlink:href="#DejaVuSans-48"/>
       <use x="127.246094" xlink:href="#DejaVuSans-48"/>
      </g>
     </g>
    </g>
    <g id="ytick_5">
     <g id="line2d_9">
      <g>
       <use style="stroke:#000000;stroke-width:0.8;" x="90" xlink:href="#m464e59c849" y="89.11529"/>
      </g>
     </g>
     <g id="text_5">
      <!-- 220 -->
      <g transform="translate(63.9125 92.914509)scale(0.1 -0.1)">
       <use xlink:href="#DejaVuSans-50"/>
       <use x="63.623047" xlink:href="#DejaVuSans-50"/>
       <use x="127.246094" xlink:href="#DejaVuSans-48"/>
      </g>
     </g>
    </g>
    <g id="text_6">
     <!-- Sea Level (m) -->
     <defs>
      <path d="M 53.515625 70.515625 
L 53.515625 60.890625 
Q 47.90625 63.578125 42.921875 64.890625 
Q 37.9375 66.21875 33.296875 66.21875 
Q 25.25 66.21875 20.875 63.09375 
Q 16.5 59.96875 16.5 54.203125 
Q 16.5 49.359375 19.40625 46.890625 
Q 22.3125 44.4375 30.421875 42.921875 
L 36.375 41.703125 
Q 47.40625 39.59375 52.65625 34.296875 
Q 57.90625 29 57.90625 20.125 
Q 57.90625 9.515625 50.796875 4.046875 
Q 43.703125 -1.421875 29.984375 -1.421875 
Q 24.8125 -1.421875 18.96875 -0.25 
Q 13.140625 0.921875 6.890625 3.21875 
L 6.890625 13.375 
Q 12.890625 10.015625 18.65625 8.296875 
Q 24.421875 6.59375 29.984375 6.59375 
Q 38.421875 6.59375 43.015625 9.90625 
Q 47.609375 13.234375 47.609375 19.390625 
Q 47.609375 24.75 44.3125 27.78125 
Q 41.015625 30.8125 33.5 32.328125 
L 27.484375 33.5 
Q 16.453125 35.6875 11.515625 40.375 
Q 6.59375 45.0625 6.59375 53.421875 
Q 6.59375 63.09375 13.40625 68.65625 
Q 20.21875 74.21875 32.171875 74.21875 
Q 37.3125 74.21875 42.625 73.28125 
Q 47.953125 72.359375 53.515625 70.515625 
z
" id="DejaVuSans-83"/>
      <path d="M 56.203125 29.59375 
L 56.203125 25.203125 
L 14.890625 25.203125 
Q 15.484375 15.921875 20.484375 11.0625 
Q 25.484375 6.203125 34.421875 6.203125 
Q 39.59375 6.203125 44.453125 7.46875 
Q 49.3125 8.734375 54.109375 11.28125 
L 54.109375 2.78125 
Q 49.265625 0.734375 44.1875 -0.34375 
Q 39.109375 -1.421875 33.890625 -1.421875 
Q 20.796875 -1.421875 13.15625 6.1875 
Q 5.515625 13.8125 5.515625 26.8125 
Q 5.515625 40.234375 12.765625 48.109375 
Q 20.015625 56 32.328125 56 
Q 43.359375 56 49.78125 48.890625 
Q 56.203125 41.796875 56.203125 29.59375 
z
M 47.21875 32.234375 
Q 47.125 39.59375 43.09375 43.984375 
Q 39.0625 48.390625 32.421875 48.390625 
Q 24.90625 48.390625 20.390625 44.140625 
Q 15.875 39.890625 15.1875 32.171875 
z
" id="DejaVuSans-101"/>
      <path d="M 34.28125 27.484375 
Q 23.390625 27.484375 19.1875 25 
Q 14.984375 22.515625 14.984375 16.5 
Q 14.984375 11.71875 18.140625 8.90625 
Q 21.296875 6.109375 26.703125 6.109375 
Q 34.1875 6.109375 38.703125 11.40625 
Q 43.21875 16.703125 43.21875 25.484375 
L 43.21875 27.484375 
z
M 52.203125 31.203125 
L 52.203125 0 
L 43.21875 0 
L 43.21875 8.296875 
Q 40.140625 3.328125 35.546875 0.953125 
Q 30.953125 -1.421875 24.3125 -1.421875 
Q 15.921875 -1.421875 10.953125 3.296875 
Q 6 8.015625 6 15.921875 
Q 6 25.140625 12.171875 29.828125 
Q 18.359375 34.515625 30.609375 34.515625 
L 43.21875 34.515625 
L 43.21875 35.40625 
Q 43.21875 41.609375 39.140625 45 
Q 35.0625 48.390625 27.6875 48.390625 
Q 23 48.390625 18.546875 47.265625 
Q 14.109375 46.140625 10.015625 43.890625 
L 10.015625 52.203125 
Q 14.9375 54.109375 19.578125 55.046875 
Q 24.21875 56 28.609375 56 
Q 40.484375 56 46.34375 49.84375 
Q 52.203125 43.703125 52.203125 31.203125 
z
" id="DejaVuSans-97"/>
      <path id="DejaVuSans-32"/>
      <path d="M 9.8125 72.90625 
L 19.671875 72.90625 
L 19.671875 8.296875 
L 55.171875 8.296875 
L 55.171875 0 
L 9.8125 0 
z
" id="DejaVuSans-76"/>
      <path d="M 2.984375 54.6875 
L 12.5 54.6875 
L 29.59375 8.796875 
L 46.6875 54.6875 
L 56.203125 54.6875 
L 35.6875 0 
L 23.484375 0 
z
" id="DejaVuSans-118"/>
      <path d="M 9.421875 75.984375 
L 18.40625 75.984375 
L 18.40625 0 
L 9.421875 0 
z
" id="DejaVuSans-108"/>
      <path d="M 31 75.875 
Q 24.46875 64.65625 21.28125 53.65625 
Q 18.109375 42.671875 18.109375 31.390625 
Q 18.109375 20.125 21.3125 9.0625 
Q 24.515625 -2 31 -13.1875 
L 23.1875 -13.1875 
Q 15.875 -1.703125 12.234375 9.375 
Q 8.59375 20.453125 8.59375 31.390625 
Q 8.59375 42.28125 12.203125 53.3125 
Q 15.828125 64.359375 23.1875 75.875 
z
" id="DejaVuSans-40"/>
      <path d="M 52 44.1875 
Q 55.375 50.25 60.0625 53.125 
Q 64.75 56 71.09375 56 
Q 79.640625 56 84.28125 50.015625 
Q 88.921875 44.046875 88.921875 33.015625 
L 88.921875 0 
L 79.890625 0 
L 79.890625 32.71875 
Q 79.890625 40.578125 77.09375 44.375 
Q 74.3125 48.1875 68.609375 48.1875 
Q 61.625 48.1875 57.5625 43.546875 
Q 53.515625 38.921875 53.515625 30.90625 
L 53.515625 0 
L 44.484375 0 
L 44.484375 32.71875 
Q 44.484375 40.625 41.703125 44.40625 
Q 38.921875 48.1875 33.109375 48.1875 
Q 26.21875 48.1875 22.15625 43.53125 
Q 18.109375 38.875 18.109375 30.90625 
L 18.109375 0 
L 9.078125 0 
L 9.078125 54.6875 
L 18.109375 54.6875 
L 18.109375 46.1875 
Q 21.1875 51.21875 25.484375 53.609375 
Q 29.78125 56 35.6875 56 
Q 41.65625 56 45.828125 52.96875 
Q 50 49.953125 52 44.1875 
z
" id="DejaVuSans-109"/>
      <path d="M 8.015625 75.875 
L 15.828125 75.875 
Q 23.140625 64.359375 26.78125 53.3125 
Q 30.421875 42.28125 30.421875 31.390625 
Q 30.421875 20.453125 26.78125 9.375 
Q 23.140625 -1.703125 15.828125 -13.1875 
L 8.015625 -13.1875 
Q 14.5 -2 17.703125 9.0625 
Q 20.90625 20.125 20.90625 31.390625 
Q 20.90625 42.671875 17.703125 53.65625 
Q 14.5 64.65625 8.015625 75.875 
z
" id="DejaVuSans-41"/>
     </defs>
     <g transform="translate(57.832812 202.507926)rotate(-90)scale(0.1 -0.1)">
      <use xlink:href="#DejaVuSans-83"/>
      <use x="63.476562" xlink:href="#DejaVuSans-101"/>
      <use x="125" xlink:href="#DejaVuSans-97"/>
      <use x="186.279297" xlink:href="#DejaVuSans-32"/>
      <use x="218.066406" xlink:href="#DejaVuSans-76"/>
      <use x="273.763672" xlink:href="#DejaVuSans-101"/>
      <use x="335.287109" xlink:href="#DejaVuSans-118"/>
      <use x="394.466797" xlink:href="#DejaVuSans-101"/>
      <use x="455.990234" xlink:href="#DejaVuSans-108"/>
      <use x="483.773438" xlink:href="#DejaVuSans-32"/>
      <use x="515.560547" xlink:href="#DejaVuSans-40"/>
      <use x="554.574219" xlink:href="#DejaVuSans-109"/>
      <use x="651.986328" xlink:href="#DejaVuSans-41"/>
     </g>
    </g>
   </g>
   <g id="line2d_10">
    <path clip-path="url(#pcf1af91f02)" d="M 115.363636 216.519275 
L 123.231515 210.222282 
L 127.908616 206.851374 
L 136.476538 201.72151 
L 140.301413 199.631985 
L 153.60731 192.949261 
L 159.324331 190.09625 
L 165.137734 187.246823 
L 170.849682 184.396357 
L 176.663086 181.297495 
L 182.481562 178.24874 
L 199.723935 169.302583 
L 203.685774 167.267083 
L 211.203631 163.800355 
L 214.546592 162.439563 
L 220.841909 160.40958 
L 226.574148 158.960475 
L 233.975332 157.559182 
L 238.069063 156.97372 
L 251.217704 155.7399 
L 256.975307 155.458492 
L 274.263334 154.980004 
L 280.02601 155.091106 
L 284.160324 155.343121 
L 289.933146 156.045384 
L 295.71104 157.14322 
L 307.261755 160.014954 
L 313.054868 161.677317 
L 329.764599 165.552626 
L 336.054843 166.298819 
L 343.440808 166.691355 
L 354.96616 166.973281 
L 364.320362 166.862279 
L 370.635971 166.104453 
L 375.313072 165.194564 
L 381.684481 162.685887 
L 388.096473 159.501137 
L 392.585881 156.925113 
L 397.998535 152.540801 
L 404.593147 141.988288 
L 418.431685 117.670634 
L 421.683336 112.344513 
L 428.536659 102.720638 
L 433.081868 96.858219 
L 438.849617 90.921212 
L 444.637656 86.326424 
L 450.653971 82.762616 
L 456.066625 80.300773 
L 461.793792 78.85315 
L 473.572782 78.16049 
L 480.157248 78.721006 
L 485.930069 79.620519 
L 496.648849 81.927388 
L 505.024006 84.666564 
L 509.046719 86.017342 
L 520.612652 90.475135 
L 528.201528 93.961475 
L 531.306069 95.566844 
L 537.439057 99.462007 
L 545.93596 105.684468 
L 548.279584 107.581809 
L 554.985796 114.370866 
L 559.825226 119.815962 
L 565.603121 127.886405 
L 571.284632 137.597997 
L 577.199491 150.158865 
L 583.362916 165.588696 
L 597.515967 204.52952 
L 606.078816 227.859859 
L 611.653799 240.510426 
L 617.386038 250.644597 
L 622.636364 257.807603 
L 622.636364 257.807603 
" style="fill:none;stroke:#4682b4;stroke-linecap:square;stroke-width:1.5;"/>
   </g>
   <g id="patch_3">
    <path d="M 90 266.792727 
L 90 69.12 
" style="fill:none;stroke:#000000;stroke-linecap:square;stroke-linejoin:miter;stroke-width:0.8;"/>
   </g>
   <g id="patch_4">
    <path d="M 648 266.792727 
L 648 69.12 
" style="fill:none;stroke:#000000;stroke-linecap:square;stroke-linejoin:miter;stroke-width:0.8;"/>
   </g>
   <g id="patch_5">
    <path d="M 90 266.792727 
L 648 266.792727 
" style="fill:none;stroke:#000000;stroke-linecap:square;stroke-linejoin:miter;stroke-width:0.8;"/>
   </g>
   <g id="patch_6">
    <path d="M 90 69.12 
L 648 69.12 
" style="fill:none;stroke:#000000;stroke-linecap:square;stroke-linejoin:miter;stroke-width:0.8;"/>
   </g>
   <g id="legend_1">
    <g id="patch_7">
     <path d="M 97 261.792727 
L 177.38125 261.792727 
Q 179.38125 261.792727 179.38125 259.792727 
L 179.38125 246.114602 
Q 179.38125 244.114602 177.38125 244.114602 
L 97 244.114602 
Q 95 244.114602 95 246.114602 
L 95 259.792727 
Q 95 261.792727 97 261.792727 
z
" style="fill:#ffffff;opacity:0.8;"/>
    </g>
    <g id="line2d_11">
     <path d="M 99 252.21304 
L 119 252.21304 
" style="fill:none;stroke:#4682b4;stroke-linecap:square;stroke-width:1.5;"/>
    </g>
    <g id="line2d_12"/>
    <g id="text_7">
     <!-- Sea Level -->
     <g transform="translate(127 255.71304)scale(0.1 -0.1)">
      <use xlink:href="#DejaVuSans-83"/>
      <use x="63.476562" xlink:href="#DejaVuSans-101"/>
      <use x="125" xlink:href="#DejaVuSans-97"/>
      <use x="186.279297" xlink:href="#DejaVuSans-32"/>
      <use x="218.066406" xlink:href="#DejaVuSans-76"/>
      <use x="273.763672" xlink:href="#DejaVuSans-101"/>
      <use x="335.287109" xlink:href="#DejaVuSans-118"/>
      <use x="394.466797" xlink:href="#DejaVuSans-101"/>
      <use x="455.990234" xlink:href="#DejaVuSans-108"/>
     </g>
    </g>
   </g>
  </g>
  <g id="axes_2">
   <g id="patch_8">
    <path d="M 90 504 
L 648 504 
L 648 306.327273 
L 90 306.327273 
z
" style="fill:#ffffff;"/>
   </g>
   <g id="PathCollection_1">
    <defs>
     <path d="M 0 3 
C 0.795609 3 1.55874 2.683901 2.12132 2.12132 
C 2.683901 1.55874 3 0.795609 3 0 
C 3 -0.795609 2.683901 -1.55874 2.12132 -2.12132 
C 1.55874 -2.683901 0.795609 -3 0 -3 
C -0.795609 -3 -1.55874 -2.683901 -2.12132 -2.12132 
C -2.683901 -1.55874 -3 -0.795609 -3 0 
C -3 0.795609 -2.683901 1.55874 -2.12132 2.12132 
C -1.55874 2.683901 -0.795609 3 0 3 
z
" id="me186cf0347" style="stroke:#6b8e23;stroke-opacity:0.4;"/>
    </defs>
    <g clip-path="url(#p8283ced97e)">
     <use style="fill:#6b8e23;fill-opacity:0.4;stroke:#6b8e23;stroke-opacity:0.4;" x="307.896694" xlink:href="#me186cf0347" y="354.023144"/>
     <use style="fill:#6b8e23;fill-opacity:0.4;stroke:#6b8e23;stroke-opacity:0.4;" x="314.81405" xlink:href="#me186cf0347" y="366.137423"/>
     <use style="fill:#6b8e23;fill-opacity:0.4;stroke:#6b8e23;stroke-opacity:0.4;" x="317.235124" xlink:href="#me186cf0347" y="358.745659"/>
     <use style="fill:#6b8e23;fill-opacity:0.4;stroke:#6b8e23;stroke-opacity:0.4;" x="319.079752" xlink:href="#me186cf0347" y="351.559222"/>
     <use style="fill:#6b8e23;fill-opacity:0.4;stroke:#6b8e23;stroke-opacity:0.4;" x="321.039669" xlink:href="#me186cf0347" y="370.449285"/>
     <use style="fill:#6b8e23;fill-opacity:0.4;stroke:#6b8e23;stroke-opacity:0.4;" x="322.53843" xlink:href="#me186cf0347" y="370.243958"/>
     <use style="fill:#6b8e23;fill-opacity:0.4;stroke:#6b8e23;stroke-opacity:0.4;" x="333.952066" xlink:href="#me186cf0347" y="376.198435"/>
     <use style="fill:#6b8e23;fill-opacity:0.4;stroke:#6b8e23;stroke-opacity:0.4;" x="348.363223" xlink:href="#me186cf0347" y="370.038631"/>
     <use style="fill:#6b8e23;fill-opacity:0.4;stroke:#6b8e23;stroke-opacity:0.4;" x="365.426033" xlink:href="#me186cf0347" y="366.548076"/>
     <use style="fill:#6b8e23;fill-opacity:0.4;stroke:#6b8e23;stroke-opacity:0.4;" x="380.874793" xlink:href="#me186cf0347" y="374.761147"/>
     <use style="fill:#6b8e23;fill-opacity:0.4;stroke:#6b8e23;stroke-opacity:0.4;" x="381.681818" xlink:href="#me186cf0347" y="373.118533"/>
     <use style="fill:#6b8e23;fill-opacity:0.4;stroke:#6b8e23;stroke-opacity:0.4;" x="385.601653" xlink:href="#me186cf0347" y="377.841049"/>
     <use style="fill:#6b8e23;fill-opacity:0.4;stroke:#6b8e23;stroke-opacity:0.4;" x="385.601653" xlink:href="#me186cf0347" y="370.859939"/>
     <use style="fill:#6b8e23;fill-opacity:0.4;stroke:#6b8e23;stroke-opacity:0.4;" x="391.135537" xlink:href="#me186cf0347" y="385.232812"/>
     <use style="fill:#6b8e23;fill-opacity:0.4;stroke:#6b8e23;stroke-opacity:0.4;" x="398.168182" xlink:href="#me186cf0347" y="383.179545"/>
     <use style="fill:#6b8e23;fill-opacity:0.4;stroke:#6b8e23;stroke-opacity:0.4;" x="415.000413" xlink:href="#me186cf0347" y="382.768891"/>
     <use style="fill:#6b8e23;fill-opacity:0.4;stroke:#6b8e23;stroke-opacity:0.4;" x="415.000413" xlink:href="#me186cf0347" y="382.358238"/>
     <use style="fill:#6b8e23;fill-opacity:0.4;stroke:#6b8e23;stroke-opacity:0.4;" x="417.652066" xlink:href="#me186cf0347" y="377.430395"/>
     <use style="fill:#6b8e23;fill-opacity:0.4;stroke:#6b8e23;stroke-opacity:0.4;" x="417.652066" xlink:href="#me186cf0347" y="386.054119"/>
     <use style="fill:#6b8e23;fill-opacity:0.4;stroke:#6b8e23;stroke-opacity:0.4;" x="417.652066" xlink:href="#me186cf0347" y="386.875427"/>
     <use style="fill:#6b8e23;fill-opacity:0.4;stroke:#6b8e23;stroke-opacity:0.4;" x="419.266116" xlink:href="#me186cf0347" y="384.206179"/>
     <use style="fill:#6b8e23;fill-opacity:0.4;stroke:#6b8e23;stroke-opacity:0.4;" x="419.266116" xlink:href="#me186cf0347" y="385.232812"/>
     <use style="fill:#6b8e23;fill-opacity:0.4;stroke:#6b8e23;stroke-opacity:0.4;" x="419.266116" xlink:href="#me186cf0347" y="389.134021"/>
     <use style="fill:#6b8e23;fill-opacity:0.4;stroke:#6b8e23;stroke-opacity:0.4;" x="422.609504" xlink:href="#me186cf0347" y="391.597942"/>
     <use style="fill:#6b8e23;fill-opacity:0.4;stroke:#6b8e23;stroke-opacity:0.4;" x="423.877686" xlink:href="#me186cf0347" y="388.518041"/>
     <use style="fill:#6b8e23;fill-opacity:0.4;stroke:#6b8e23;stroke-opacity:0.4;" x="424.915289" xlink:href="#me186cf0347" y="392.419249"/>
     <use style="fill:#6b8e23;fill-opacity:0.4;stroke:#6b8e23;stroke-opacity:0.4;" x="424.915289" xlink:href="#me186cf0347" y="393.856537"/>
     <use style="fill:#6b8e23;fill-opacity:0.4;stroke:#6b8e23;stroke-opacity:0.4;" x="424.915289" xlink:href="#me186cf0347" y="391.803269"/>
     <use style="fill:#6b8e23;fill-opacity:0.4;stroke:#6b8e23;stroke-opacity:0.4;" x="425.952893" xlink:href="#me186cf0347" y="391.803269"/>
     <use style="fill:#6b8e23;fill-opacity:0.4;stroke:#6b8e23;stroke-opacity:0.4;" x="426.875207" xlink:href="#me186cf0347" y="392.419249"/>
     <use style="fill:#6b8e23;fill-opacity:0.4;stroke:#6b8e23;stroke-opacity:0.4;" x="426.875207" xlink:href="#me186cf0347" y="393.445883"/>
     <use style="fill:#6b8e23;fill-opacity:0.4;stroke:#6b8e23;stroke-opacity:0.4;" x="427.91281" xlink:href="#me186cf0347" y="391.597942"/>
     <use style="fill:#6b8e23;fill-opacity:0.4;stroke:#6b8e23;stroke-opacity:0.4;" x="427.91281" xlink:href="#me186cf0347" y="393.65121"/>
     <use style="fill:#6b8e23;fill-opacity:0.4;stroke:#6b8e23;stroke-opacity:0.4;" x="427.91281" xlink:href="#me186cf0347" y="391.597942"/>
     <use style="fill:#6b8e23;fill-opacity:0.4;stroke:#6b8e23;stroke-opacity:0.4;" x="435.406612" xlink:href="#me186cf0347" y="413.97856"/>
     <use style="fill:#6b8e23;fill-opacity:0.4;stroke:#6b8e23;stroke-opacity:0.4;" x="435.406612" xlink:href="#me186cf0347" y="398.168399"/>
     <use style="fill:#6b8e23;fill-opacity:0.4;stroke:#6b8e23;stroke-opacity:0.4;" x="441.516942" xlink:href="#me186cf0347" y="426.70882"/>
     <use style="fill:#6b8e23;fill-opacity:0.4;stroke:#6b8e23;stroke-opacity:0.4;" x="441.516942" xlink:href="#me186cf0347" y="400.221667"/>
     <use style="fill:#6b8e23;fill-opacity:0.4;stroke:#6b8e23;stroke-opacity:0.4;" x="441.516942" xlink:href="#me186cf0347" y="411.309312"/>
     <use style="fill:#6b8e23;fill-opacity:0.4;stroke:#6b8e23;stroke-opacity:0.4;" x="441.516942" xlink:href="#me186cf0347" y="413.36258"/>
     <use style="fill:#6b8e23;fill-opacity:0.4;stroke:#6b8e23;stroke-opacity:0.4;" x="444.629752" xlink:href="#me186cf0347" y="402.890915"/>
     <use style="fill:#6b8e23;fill-opacity:0.4;stroke:#6b8e23;stroke-opacity:0.4;" x="444.629752" xlink:href="#me186cf0347" y="410.282678"/>
     <use style="fill:#6b8e23;fill-opacity:0.4;stroke:#6b8e23;stroke-opacity:0.4;" x="444.629752" xlink:href="#me186cf0347" y="413.773233"/>
     <use style="fill:#6b8e23;fill-opacity:0.4;stroke:#6b8e23;stroke-opacity:0.4;" x="453.622314" xlink:href="#me186cf0347" y="414.183887"/>
     <use style="fill:#6b8e23;fill-opacity:0.4;stroke:#6b8e23;stroke-opacity:0.4;" x="453.622314" xlink:href="#me186cf0347" y="408.640064"/>
     <use style="fill:#6b8e23;fill-opacity:0.4;stroke:#6b8e23;stroke-opacity:0.4;" x="453.622314" xlink:href="#me186cf0347" y="411.103985"/>
     <use style="fill:#6b8e23;fill-opacity:0.4;stroke:#6b8e23;stroke-opacity:0.4;" x="453.622314" xlink:href="#me186cf0347" y="419.522383"/>
     <use style="fill:#6b8e23;fill-opacity:0.4;stroke:#6b8e23;stroke-opacity:0.4;" x="453.968182" xlink:href="#me186cf0347" y="415.005194"/>
     <use style="fill:#6b8e23;fill-opacity:0.4;stroke:#6b8e23;stroke-opacity:0.4;" x="453.968182" xlink:href="#me186cf0347" y="420.95967"/>
     <use style="fill:#6b8e23;fill-opacity:0.4;stroke:#6b8e23;stroke-opacity:0.4;" x="456.158678" xlink:href="#me186cf0347" y="416.647808"/>
     <use style="fill:#6b8e23;fill-opacity:0.4;stroke:#6b8e23;stroke-opacity:0.4;" x="456.158678" xlink:href="#me186cf0347" y="419.111729"/>
     <use style="fill:#6b8e23;fill-opacity:0.4;stroke:#6b8e23;stroke-opacity:0.4;" x="459.502066" xlink:href="#me186cf0347" y="423.834245"/>
     <use style="fill:#6b8e23;fill-opacity:0.4;stroke:#6b8e23;stroke-opacity:0.4;" x="459.502066" xlink:href="#me186cf0347" y="424.655552"/>
     <use style="fill:#6b8e23;fill-opacity:0.4;stroke:#6b8e23;stroke-opacity:0.4;" x="461.92314" xlink:href="#me186cf0347" y="441.081694"/>
     <use style="fill:#6b8e23;fill-opacity:0.4;stroke:#6b8e23;stroke-opacity:0.4;" x="461.92314" xlink:href="#me186cf0347" y="441.903001"/>
     <use style="fill:#6b8e23;fill-opacity:0.4;stroke:#6b8e23;stroke-opacity:0.4;" x="461.92314" xlink:href="#me186cf0347" y="445.598883"/>
     <use style="fill:#6b8e23;fill-opacity:0.4;stroke:#6b8e23;stroke-opacity:0.4;" x="463.421901" xlink:href="#me186cf0347" y="447.241497"/>
     <use style="fill:#6b8e23;fill-opacity:0.4;stroke:#6b8e23;stroke-opacity:0.4;" x="463.998347" xlink:href="#me186cf0347" y="446.830843"/>
     <use style="fill:#6b8e23;fill-opacity:0.4;stroke:#6b8e23;stroke-opacity:0.4;" x="463.998347" xlink:href="#me186cf0347" y="447.03617"/>
     <use style="fill:#6b8e23;fill-opacity:0.4;stroke:#6b8e23;stroke-opacity:0.4;" x="466.188843" xlink:href="#me186cf0347" y="449.294764"/>
     <use style="fill:#6b8e23;fill-opacity:0.4;stroke:#6b8e23;stroke-opacity:0.4;" x="468.494628" xlink:href="#me186cf0347" y="460.177083"/>
     <use style="fill:#6b8e23;fill-opacity:0.4;stroke:#6b8e23;stroke-opacity:0.4;" x="483.366942" xlink:href="#me186cf0347" y="488.30685"/>
     <use style="fill:#6b8e23;fill-opacity:0.4;stroke:#6b8e23;stroke-opacity:0.4;" x="490.053719" xlink:href="#me186cf0347" y="482.968354"/>
    </g>
   </g>
   <g id="matplotlib.axis_3">
    <g id="xtick_5">
     <g id="line2d_13">
      <g>
       <use style="stroke:#000000;stroke-width:0.8;" x="541.933884" xlink:href="#mc2e22576e9" y="504"/>
      </g>
     </g>
     <g id="text_8">
      <!-- 450 -->
      <defs>
       <path d="M 10.796875 72.90625 
L 49.515625 72.90625 
L 49.515625 64.59375 
L 19.828125 64.59375 
L 19.828125 46.734375 
Q 21.96875 47.46875 24.109375 47.828125 
Q 26.265625 48.1875 28.421875 48.1875 
Q 40.625 48.1875 47.75 41.5 
Q 54.890625 34.8125 54.890625 23.390625 
Q 54.890625 11.625 47.5625 5.09375 
Q 40.234375 -1.421875 26.90625 -1.421875 
Q 22.3125 -1.421875 17.546875 -0.640625 
Q 12.796875 0.140625 7.71875 1.703125 
L 7.71875 11.625 
Q 12.109375 9.234375 16.796875 8.0625 
Q 21.484375 6.890625 26.703125 6.890625 
Q 35.15625 6.890625 40.078125 11.328125 
Q 45.015625 15.765625 45.015625 23.390625 
Q 45.015625 31 40.078125 35.4375 
Q 35.15625 39.890625 26.703125 39.890625 
Q 22.75 39.890625 18.8125 39.015625 
Q 14.890625 38.140625 10.796875 36.28125 
z
" id="DejaVuSans-53"/>
      </defs>
      <g transform="translate(532.390134 518.598437)scale(0.1 -0.1)">
       <use xlink:href="#DejaVuSans-52"/>
       <use x="63.623047" xlink:href="#DejaVuSans-53"/>
       <use x="127.246094" xlink:href="#DejaVuSans-48"/>
      </g>
     </g>
    </g>
    <g id="xtick_6">
     <g id="line2d_14">
      <g>
       <use style="stroke:#000000;stroke-width:0.8;" x="426.644628" xlink:href="#mc2e22576e9" y="504"/>
      </g>
     </g>
     <g id="text_9">
      <!-- 460 -->
      <g transform="translate(417.100878 518.598437)scale(0.1 -0.1)">
       <use xlink:href="#DejaVuSans-52"/>
       <use x="63.623047" xlink:href="#DejaVuSans-54"/>
       <use x="127.246094" xlink:href="#DejaVuSans-48"/>
      </g>
     </g>
    </g>
    <g id="xtick_7">
     <g id="line2d_15">
      <g>
       <use style="stroke:#000000;stroke-width:0.8;" x="311.355372" xlink:href="#mc2e22576e9" y="504"/>
      </g>
     </g>
     <g id="text_10">
      <!-- 470 -->
      <defs>
       <path d="M 8.203125 72.90625 
L 55.078125 72.90625 
L 55.078125 68.703125 
L 28.609375 0 
L 18.3125 0 
L 43.21875 64.59375 
L 8.203125 64.59375 
z
" id="DejaVuSans-55"/>
      </defs>
      <g transform="translate(301.811622 518.598437)scale(0.1 -0.1)">
       <use xlink:href="#DejaVuSans-52"/>
       <use x="63.623047" xlink:href="#DejaVuSans-55"/>
       <use x="127.246094" xlink:href="#DejaVuSans-48"/>
      </g>
     </g>
    </g>
    <g id="xtick_8">
     <g id="line2d_16">
      <g>
       <use style="stroke:#000000;stroke-width:0.8;" x="196.066116" xlink:href="#mc2e22576e9" y="504"/>
      </g>
     </g>
     <g id="text_11">
      <!-- 480 -->
      <g transform="translate(186.522366 518.598437)scale(0.1 -0.1)">
       <use xlink:href="#DejaVuSans-52"/>
       <use x="63.623047" xlink:href="#DejaVuSans-56"/>
       <use x="127.246094" xlink:href="#DejaVuSans-48"/>
      </g>
     </g>
    </g>
    <g id="text_12">
     <!-- Age (Ma) -->
     <defs>
      <path d="M 34.1875 63.1875 
L 20.796875 26.90625 
L 47.609375 26.90625 
z
M 28.609375 72.90625 
L 39.796875 72.90625 
L 67.578125 0 
L 57.328125 0 
L 50.6875 18.703125 
L 17.828125 18.703125 
L 11.1875 0 
L 0.78125 0 
z
" id="DejaVuSans-65"/>
      <path d="M 45.40625 27.984375 
Q 45.40625 37.75 41.375 43.109375 
Q 37.359375 48.484375 30.078125 48.484375 
Q 22.859375 48.484375 18.828125 43.109375 
Q 14.796875 37.75 14.796875 27.984375 
Q 14.796875 18.265625 18.828125 12.890625 
Q 22.859375 7.515625 30.078125 7.515625 
Q 37.359375 7.515625 41.375 12.890625 
Q 45.40625 18.265625 45.40625 27.984375 
z
M 54.390625 6.78125 
Q 54.390625 -7.171875 48.1875 -13.984375 
Q 42 -20.796875 29.203125 -20.796875 
Q 24.46875 -20.796875 20.265625 -20.09375 
Q 16.0625 -19.390625 12.109375 -17.921875 
L 12.109375 -9.1875 
Q 16.0625 -11.328125 19.921875 -12.34375 
Q 23.78125 -13.375 27.78125 -13.375 
Q 36.625 -13.375 41.015625 -8.765625 
Q 45.40625 -4.15625 45.40625 5.171875 
L 45.40625 9.625 
Q 42.625 4.78125 38.28125 2.390625 
Q 33.9375 0 27.875 0 
Q 17.828125 0 11.671875 7.65625 
Q 5.515625 15.328125 5.515625 27.984375 
Q 5.515625 40.671875 11.671875 48.328125 
Q 17.828125 56 27.875 56 
Q 33.9375 56 38.28125 53.609375 
Q 42.625 51.21875 45.40625 46.390625 
L 45.40625 54.6875 
L 54.390625 54.6875 
z
" id="DejaVuSans-103"/>
      <path d="M 9.8125 72.90625 
L 24.515625 72.90625 
L 43.109375 23.296875 
L 61.8125 72.90625 
L 76.515625 72.90625 
L 76.515625 0 
L 66.890625 0 
L 66.890625 64.015625 
L 48.09375 14.015625 
L 38.1875 14.015625 
L 19.390625 64.015625 
L 19.390625 0 
L 9.8125 0 
z
" id="DejaVuSans-77"/>
     </defs>
     <g transform="translate(346.460156 532.276562)scale(0.1 -0.1)">
      <use xlink:href="#DejaVuSans-65"/>
      <use x="68.408203" xlink:href="#DejaVuSans-103"/>
      <use x="131.884766" xlink:href="#DejaVuSans-101"/>
      <use x="193.408203" xlink:href="#DejaVuSans-32"/>
      <use x="225.195312" xlink:href="#DejaVuSans-40"/>
      <use x="264.208984" xlink:href="#DejaVuSans-77"/>
      <use x="350.488281" xlink:href="#DejaVuSans-97"/>
      <use x="411.767578" xlink:href="#DejaVuSans-41"/>
     </g>
    </g>
   </g>
   <g id="matplotlib.axis_4">
    <g id="ytick_6">
     <g id="line2d_17">
      <g>
       <use style="stroke:#000000;stroke-width:0.8;" x="90" xlink:href="#m464e59c849" y="477.424532"/>
      </g>
     </g>
     <g id="text_13">
      <!-- 0.7082 -->
      <defs>
       <path d="M 10.6875 12.40625 
L 21 12.40625 
L 21 0 
L 10.6875 0 
z
" id="DejaVuSans-46"/>
      </defs>
      <g transform="translate(48.009375 481.22375)scale(0.1 -0.1)">
       <use xlink:href="#DejaVuSans-48"/>
       <use x="63.623047" xlink:href="#DejaVuSans-46"/>
       <use x="95.410156" xlink:href="#DejaVuSans-55"/>
       <use x="159.033203" xlink:href="#DejaVuSans-48"/>
       <use x="222.65625" xlink:href="#DejaVuSans-56"/>
       <use x="286.279297" xlink:href="#DejaVuSans-50"/>
      </g>
     </g>
    </g>
    <g id="ytick_7">
     <g id="line2d_18">
      <g>
       <use style="stroke:#000000;stroke-width:0.8;" x="90" xlink:href="#m464e59c849" y="436.359178"/>
      </g>
     </g>
     <g id="text_14">
      <!-- 0.7084 -->
      <g transform="translate(48.009375 440.158397)scale(0.1 -0.1)">
       <use xlink:href="#DejaVuSans-48"/>
       <use x="63.623047" xlink:href="#DejaVuSans-46"/>
       <use x="95.410156" xlink:href="#DejaVuSans-55"/>
       <use x="159.033203" xlink:href="#DejaVuSans-48"/>
       <use x="222.65625" xlink:href="#DejaVuSans-56"/>
       <use x="286.279297" xlink:href="#DejaVuSans-52"/>
      </g>
     </g>
    </g>
    <g id="ytick_8">
     <g id="line2d_19">
      <g>
       <use style="stroke:#000000;stroke-width:0.8;" x="90" xlink:href="#m464e59c849" y="395.293824"/>
      </g>
     </g>
     <g id="text_15">
      <!-- 0.7086 -->
      <g transform="translate(48.009375 399.093043)scale(0.1 -0.1)">
       <use xlink:href="#DejaVuSans-48"/>
       <use x="63.623047" xlink:href="#DejaVuSans-46"/>
       <use x="95.410156" xlink:href="#DejaVuSans-55"/>
       <use x="159.033203" xlink:href="#DejaVuSans-48"/>
       <use x="222.65625" xlink:href="#DejaVuSans-56"/>
       <use x="286.279297" xlink:href="#DejaVuSans-54"/>
      </g>
     </g>
    </g>
    <g id="ytick_9">
     <g id="line2d_20">
      <g>
       <use style="stroke:#000000;stroke-width:0.8;" x="90" xlink:href="#m464e59c849" y="354.22847"/>
      </g>
     </g>
     <g id="text_16">
      <!-- 0.7088 -->
      <g transform="translate(48.009375 358.027689)scale(0.1 -0.1)">
       <use xlink:href="#DejaVuSans-48"/>
       <use x="63.623047" xlink:href="#DejaVuSans-46"/>
       <use x="95.410156" xlink:href="#DejaVuSans-55"/>
       <use x="159.033203" xlink:href="#DejaVuSans-48"/>
       <use x="222.65625" xlink:href="#DejaVuSans-56"/>
       <use x="286.279297" xlink:href="#DejaVuSans-56"/>
      </g>
     </g>
    </g>
    <g id="ytick_10">
     <g id="line2d_21">
      <g>
       <use style="stroke:#000000;stroke-width:0.8;" x="90" xlink:href="#m464e59c849" y="313.163116"/>
      </g>
     </g>
     <g id="text_17">
      <!-- 0.7090 -->
      <defs>
       <path d="M 10.984375 1.515625 
L 10.984375 10.5 
Q 14.703125 8.734375 18.5 7.8125 
Q 22.3125 6.890625 25.984375 6.890625 
Q 35.75 6.890625 40.890625 13.453125 
Q 46.046875 20.015625 46.78125 33.40625 
Q 43.953125 29.203125 39.59375 26.953125 
Q 35.25 24.703125 29.984375 24.703125 
Q 19.046875 24.703125 12.671875 31.3125 
Q 6.296875 37.9375 6.296875 49.421875 
Q 6.296875 60.640625 12.9375 67.421875 
Q 19.578125 74.21875 30.609375 74.21875 
Q 43.265625 74.21875 49.921875 64.515625 
Q 56.59375 54.828125 56.59375 36.375 
Q 56.59375 19.140625 48.40625 8.859375 
Q 40.234375 -1.421875 26.421875 -1.421875 
Q 22.703125 -1.421875 18.890625 -0.6875 
Q 15.09375 0.046875 10.984375 1.515625 
z
M 30.609375 32.421875 
Q 37.25 32.421875 41.125 36.953125 
Q 45.015625 41.5 45.015625 49.421875 
Q 45.015625 57.28125 41.125 61.84375 
Q 37.25 66.40625 30.609375 66.40625 
Q 23.96875 66.40625 20.09375 61.84375 
Q 16.21875 57.28125 16.21875 49.421875 
Q 16.21875 41.5 20.09375 36.953125 
Q 23.96875 32.421875 30.609375 32.421875 
z
" id="DejaVuSans-57"/>
      </defs>
      <g transform="translate(48.009375 316.962335)scale(0.1 -0.1)">
       <use xlink:href="#DejaVuSans-48"/>
       <use x="63.623047" xlink:href="#DejaVuSans-46"/>
       <use x="95.410156" xlink:href="#DejaVuSans-55"/>
       <use x="159.033203" xlink:href="#DejaVuSans-48"/>
       <use x="222.65625" xlink:href="#DejaVuSans-57"/>
       <use x="286.279297" xlink:href="#DejaVuSans-48"/>
      </g>
     </g>
    </g>
    <g id="text_18">
     <!-- Seawater $^{87}Sr/^{86}Sr$ -->
     <defs>
      <path d="M 4.203125 54.6875 
L 13.1875 54.6875 
L 24.421875 12.015625 
L 35.59375 54.6875 
L 46.1875 54.6875 
L 57.421875 12.015625 
L 68.609375 54.6875 
L 77.59375 54.6875 
L 63.28125 0 
L 52.6875 0 
L 40.921875 44.828125 
L 29.109375 0 
L 18.5 0 
z
" id="DejaVuSans-119"/>
      <path d="M 18.3125 70.21875 
L 18.3125 54.6875 
L 36.8125 54.6875 
L 36.8125 47.703125 
L 18.3125 47.703125 
L 18.3125 18.015625 
Q 18.3125 11.328125 20.140625 9.421875 
Q 21.96875 7.515625 27.59375 7.515625 
L 36.8125 7.515625 
L 36.8125 0 
L 27.59375 0 
Q 17.1875 0 13.234375 3.875 
Q 9.28125 7.765625 9.28125 18.015625 
L 9.28125 47.703125 
L 2.6875 47.703125 
L 2.6875 54.6875 
L 9.28125 54.6875 
L 9.28125 70.21875 
z
" id="DejaVuSans-116"/>
      <path d="M 41.109375 46.296875 
Q 39.59375 47.171875 37.8125 47.578125 
Q 36.03125 48 33.890625 48 
Q 26.265625 48 22.1875 43.046875 
Q 18.109375 38.09375 18.109375 28.8125 
L 18.109375 0 
L 9.078125 0 
L 9.078125 54.6875 
L 18.109375 54.6875 
L 18.109375 46.1875 
Q 20.953125 51.171875 25.484375 53.578125 
Q 30.03125 56 36.53125 56 
Q 37.453125 56 38.578125 55.875 
Q 39.703125 55.765625 41.0625 55.515625 
z
" id="DejaVuSans-114"/>
      <path d="M 60.296875 70.515625 
L 58.40625 60.890625 
Q 53.46875 63.53125 48.609375 64.875 
Q 43.75 66.21875 39.203125 66.21875 
Q 30.375 66.21875 25.140625 62.359375 
Q 19.921875 58.5 19.921875 52.09375 
Q 19.921875 48.578125 21.84375 46.703125 
Q 23.78125 44.828125 31.78125 42.671875 
L 37.703125 41.21875 
Q 47.703125 38.625 51.609375 34.640625 
Q 55.515625 30.671875 55.515625 23.484375 
Q 55.515625 12.453125 46.84375 5.515625 
Q 38.1875 -1.421875 24.03125 -1.421875 
Q 18.21875 -1.421875 12.359375 -0.265625 
Q 6.5 0.875 0.59375 3.21875 
L 2.59375 13.375 
Q 8.015625 10.015625 13.453125 8.296875 
Q 18.890625 6.59375 24.3125 6.59375 
Q 33.546875 6.59375 39.109375 10.6875 
Q 44.671875 14.796875 44.671875 21.390625 
Q 44.671875 25.78125 42.453125 28.046875 
Q 40.234375 30.328125 32.90625 32.171875 
L 27 33.6875 
Q 16.890625 36.328125 13.203125 39.765625 
Q 9.515625 43.21875 9.515625 49.421875 
Q 9.515625 60.296875 17.890625 67.25 
Q 26.265625 74.21875 39.703125 74.21875 
Q 44.921875 74.21875 50.046875 73.28125 
Q 55.171875 72.359375 60.296875 70.515625 
z
" id="DejaVuSans-Oblique-83"/>
      <path d="M 44.578125 46.390625 
Q 43.21875 47.125 41.453125 47.515625 
Q 39.703125 47.90625 37.703125 47.90625 
Q 30.515625 47.90625 25.140625 42.453125 
Q 19.78125 37.015625 18.015625 27.875 
L 12.5 0 
L 3.515625 0 
L 14.203125 54.6875 
L 23.1875 54.6875 
L 21.484375 46.1875 
Q 25.046875 50.921875 30 53.453125 
Q 34.96875 56 40.578125 56 
Q 42.046875 56 43.453125 55.828125 
Q 44.875 55.671875 46.296875 55.28125 
z
" id="DejaVuSans-Oblique-114"/>
      <path d="M 25.390625 72.90625 
L 33.6875 72.90625 
L 8.296875 -9.28125 
L 0 -9.28125 
z
" id="DejaVuSans-47"/>
     </defs>
     <g transform="translate(41.929687 451.763636)rotate(-90)scale(0.1 -0.1)">
      <use transform="translate(0 0.765625)" xlink:href="#DejaVuSans-83"/>
      <use transform="translate(63.476562 0.765625)" xlink:href="#DejaVuSans-101"/>
      <use transform="translate(125 0.765625)" xlink:href="#DejaVuSans-97"/>
      <use transform="translate(186.279297 0.765625)" xlink:href="#DejaVuSans-119"/>
      <use transform="translate(268.066406 0.765625)" xlink:href="#DejaVuSans-97"/>
      <use transform="translate(329.345703 0.765625)" xlink:href="#DejaVuSans-116"/>
      <use transform="translate(368.554688 0.765625)" xlink:href="#DejaVuSans-101"/>
      <use transform="translate(430.078125 0.765625)" xlink:href="#DejaVuSans-114"/>
      <use transform="translate(471.191406 0.765625)" xlink:href="#DejaVuSans-32"/>
      <use transform="translate(503.935547 39.046875)scale(0.7)" xlink:href="#DejaVuSans-56"/>
      <use transform="translate(548.47168 39.046875)scale(0.7)" xlink:href="#DejaVuSans-55"/>
      <use transform="translate(595.742188 0.765625)" xlink:href="#DejaVuSans-Oblique-83"/>
      <use transform="translate(659.21875 0.765625)" xlink:href="#DejaVuSans-Oblique-114"/>
      <use transform="translate(700.332031 0.765625)" xlink:href="#DejaVuSans-47"/>
      <use transform="translate(734.980469 39.046875)scale(0.7)" xlink:href="#DejaVuSans-56"/>
      <use transform="translate(779.516602 39.046875)scale(0.7)" xlink:href="#DejaVuSans-54"/>
      <use transform="translate(826.787109 0.765625)" xlink:href="#DejaVuSans-Oblique-83"/>
      <use transform="translate(890.263672 0.765625)" xlink:href="#DejaVuSans-Oblique-114"/>
     </g>
    </g>
   </g>
   <g id="line2d_22">
    <path clip-path="url(#p8283ced97e)" d="M 115.363636 315.312397 
L 118.463104 315.423447 
L 121.709682 315.764567 
L 125.296136 316.369817 
L 129.273194 317.274678 
L 133.985804 318.57347 
L 139.347731 320.286961 
L 146.160472 322.711137 
L 154.02835 325.755926 
L 163.042677 329.472649 
L 174.136842 334.301785 
L 184.191088 338.930652 
L 198.942727 345.970614 
L 220.212885 356.190274 
L 227.071281 359.169338 
L 233.391962 361.671397 
L 239.575678 363.880623 
L 245.602139 365.789927 
L 251.932966 367.563405 
L 258.233356 369.096323 
L 264.848258 370.470505 
L 272.102331 371.746992 
L 279.219439 372.777022 
L 286.016961 373.53829 
L 292.144877 373.999329 
L 297.861898 374.205172 
L 303.624574 374.182088 
L 309.488705 373.940431 
L 315.880405 373.435867 
L 323.662047 372.601156 
L 333.741657 371.273734 
L 345.059024 369.858198 
L 355.194435 368.828766 
L 364.807349 368.080408 
L 371.716473 367.75259 
L 377.540022 367.693197 
L 382.267851 367.879786 
L 386.767405 368.283679 
L 391.190867 368.900925 
L 395.193289 369.668924 
L 398.891344 370.608609 
L 401.498752 371.507208 
L 404.238052 372.689219 
L 406.911406 374.086619 
L 409.752162 375.826597 
L 412.780611 377.946587 
L 416.037334 380.502982 
L 419.674516 383.646672 
L 424.103051 387.792556 
L 429.982401 393.602472 
L 445.723231 409.322247 
L 450.811227 413.967629 
L 455.498474 417.950246 
L 459.602351 421.169029 
L 463.645356 424.065442 
L 467.480376 426.532465 
L 471.48787 428.845527 
L 475.470001 430.893298 
L 479.396331 432.657473 
L 483.30237 434.16983 
L 487.274355 435.472202 
L 491.352869 436.57208 
L 495.674876 437.505469 
L 499.697589 438.159321 
L 503.973941 438.62492 
L 508.630751 438.907718 
L 513.241906 438.963517 
L 518.192937 438.798375 
L 523.143969 438.416346 
L 528.226892 437.798736 
L 533.238797 436.968363 
L 537.931117 435.957619 
L 542.471253 434.747455 
L 547.1585 433.267271 
L 551.272523 431.753734 
L 555.366255 430.004212 
L 559.444768 428.013361 
L 562.970349 426.060578 
L 566.582167 423.807095 
L 569.909909 421.458441 
L 573.065177 418.970177 
L 576.159572 416.232332 
L 579.081492 413.362094 
L 582.099795 410.075064 
L 585.047079 406.544349 
L 588.151619 402.46974 
L 591.423561 397.80369 
L 594.913632 392.431986 
L 598.637051 386.285194 
L 602.603963 379.299149 
L 606.966552 371.15046 
L 613.80973 357.861793 
L 622.636364 340.858827 
L 622.636364 340.858827 
" style="fill:none;stroke:#4682b4;stroke-linecap:square;stroke-width:1.5;"/>
   </g>
   <g id="line2d_23">
    <path clip-path="url(#p8283ced97e)" d="M 307.896694 360.50531 
L 314.785931 361.965183 
L 317.187821 362.47234 
L 319.134376 362.878887 
L 321.003065 363.262848 
L 322.5603 363.574945 
L 333.910631 365.691864 
L 348.360837 368.172211 
L 365.438357 371.262379 
L 380.874793 374.676963 
L 381.662599 374.86997 
L 385.601653 375.726183 
L 391.116318 376.865747 
L 398.206608 378.882055 
L 414.992182 384.491583 
L 417.668541 385.71533 
L 419.315529 386.575649 
L 422.609504 388.602225 
L 423.844748 389.47897 
L 424.874119 390.199667 
L 425.90348 390.877245 
L 426.932851 391.57741 
L 427.962223 392.361758 
L 435.373673 399.392146 
L 441.516942 406.523145 
L 444.664339 410.592722 
L 453.656901 423.57964 
L 454.016603 424.138129 
L 456.174818 427.558873 
L 459.502066 433.069843 
L 461.975021 437.330374 
L 463.458793 439.944183 
L 463.998347 440.905113 
L 466.246488 444.972636 
L 468.494628 449.148982 
L 483.332355 479.543504 
L 490.076777 495.014876 
" style="fill:none;stroke:#6b8e23;stroke-linecap:square;stroke-width:1.5;"/>
   </g>
   <g id="patch_9">
    <path d="M 90 504 
L 90 306.327273 
" style="fill:none;stroke:#000000;stroke-linecap:square;stroke-linejoin:miter;stroke-width:0.8;"/>
   </g>
   <g id="patch_10">
    <path d="M 648 504 
L 648 306.327273 
" style="fill:none;stroke:#000000;stroke-linecap:square;stroke-linejoin:miter;stroke-width:0.8;"/>
   </g>
   <g id="patch_11">
    <path d="M 90 504 
L 648 504 
" style="fill:none;stroke:#000000;stroke-linecap:square;stroke-linejoin:miter;stroke-width:0.8;"/>
   </g>
   <g id="patch_12">
    <path d="M 90 306.327273 
L 648 306.327273 
" style="fill:none;stroke:#000000;stroke-linecap:square;stroke-linejoin:miter;stroke-width:0.8;"/>
   </g>
   <g id="legend_2">
    <g id="patch_13">
     <path d="M 308.5125 499 
L 429.4875 499 
Q 431.4875 499 431.4875 497 
L 431.4875 453.965625 
Q 431.4875 451.965625 429.4875 451.965625 
L 308.5125 451.965625 
Q 306.5125 451.965625 306.5125 453.965625 
L 306.5125 497 
Q 306.5125 499 308.5125 499 
z
" style="fill:#ffffff;opacity:0.8;"/>
    </g>
    <g id="line2d_24">
     <path d="M 310.5125 460.064062 
L 330.5125 460.064062 
" style="fill:none;stroke:#4682b4;stroke-linecap:square;stroke-width:1.5;"/>
    </g>
    <g id="line2d_25"/>
    <g id="text_19">
     <!-- Sea Level Model -->
     <defs>
      <path d="M 30.609375 48.390625 
Q 23.390625 48.390625 19.1875 42.75 
Q 14.984375 37.109375 14.984375 27.296875 
Q 14.984375 17.484375 19.15625 11.84375 
Q 23.34375 6.203125 30.609375 6.203125 
Q 37.796875 6.203125 41.984375 11.859375 
Q 46.1875 17.53125 46.1875 27.296875 
Q 46.1875 37.015625 41.984375 42.703125 
Q 37.796875 48.390625 30.609375 48.390625 
z
M 30.609375 56 
Q 42.328125 56 49.015625 48.375 
Q 55.71875 40.765625 55.71875 27.296875 
Q 55.71875 13.875 49.015625 6.21875 
Q 42.328125 -1.421875 30.609375 -1.421875 
Q 18.84375 -1.421875 12.171875 6.21875 
Q 5.515625 13.875 5.515625 27.296875 
Q 5.515625 40.765625 12.171875 48.375 
Q 18.84375 56 30.609375 56 
z
" id="DejaVuSans-111"/>
      <path d="M 45.40625 46.390625 
L 45.40625 75.984375 
L 54.390625 75.984375 
L 54.390625 0 
L 45.40625 0 
L 45.40625 8.203125 
Q 42.578125 3.328125 38.25 0.953125 
Q 33.9375 -1.421875 27.875 -1.421875 
Q 17.96875 -1.421875 11.734375 6.484375 
Q 5.515625 14.40625 5.515625 27.296875 
Q 5.515625 40.1875 11.734375 48.09375 
Q 17.96875 56 27.875 56 
Q 33.9375 56 38.25 53.625 
Q 42.578125 51.265625 45.40625 46.390625 
z
M 14.796875 27.296875 
Q 14.796875 17.390625 18.875 11.75 
Q 22.953125 6.109375 30.078125 6.109375 
Q 37.203125 6.109375 41.296875 11.75 
Q 45.40625 17.390625 45.40625 27.296875 
Q 45.40625 37.203125 41.296875 42.84375 
Q 37.203125 48.484375 30.078125 48.484375 
Q 22.953125 48.484375 18.875 42.84375 
Q 14.796875 37.203125 14.796875 27.296875 
z
" id="DejaVuSans-100"/>
     </defs>
     <g transform="translate(338.5125 463.564062)scale(0.1 -0.1)">
      <use xlink:href="#DejaVuSans-83"/>
      <use x="63.476562" xlink:href="#DejaVuSans-101"/>
      <use x="125" xlink:href="#DejaVuSans-97"/>
      <use x="186.279297" xlink:href="#DejaVuSans-32"/>
      <use x="218.066406" xlink:href="#DejaVuSans-76"/>
      <use x="273.763672" xlink:href="#DejaVuSans-101"/>
      <use x="335.287109" xlink:href="#DejaVuSans-118"/>
      <use x="394.466797" xlink:href="#DejaVuSans-101"/>
      <use x="455.990234" xlink:href="#DejaVuSans-108"/>
      <use x="483.773438" xlink:href="#DejaVuSans-32"/>
      <use x="515.560547" xlink:href="#DejaVuSans-77"/>
      <use x="601.839844" xlink:href="#DejaVuSans-111"/>
      <use x="663.021484" xlink:href="#DejaVuSans-100"/>
      <use x="726.498047" xlink:href="#DejaVuSans-101"/>
      <use x="788.021484" xlink:href="#DejaVuSans-108"/>
     </g>
    </g>
    <g id="line2d_26">
     <path d="M 310.5125 474.742187 
L 330.5125 474.742187 
" style="fill:none;stroke:#6b8e23;stroke-linecap:square;stroke-width:1.5;"/>
    </g>
    <g id="line2d_27"/>
    <g id="text_20">
     <!-- LOESS Curve -->
     <defs>
      <path d="M 39.40625 66.21875 
Q 28.65625 66.21875 22.328125 58.203125 
Q 16.015625 50.203125 16.015625 36.375 
Q 16.015625 22.609375 22.328125 14.59375 
Q 28.65625 6.59375 39.40625 6.59375 
Q 50.140625 6.59375 56.421875 14.59375 
Q 62.703125 22.609375 62.703125 36.375 
Q 62.703125 50.203125 56.421875 58.203125 
Q 50.140625 66.21875 39.40625 66.21875 
z
M 39.40625 74.21875 
Q 54.734375 74.21875 63.90625 63.9375 
Q 73.09375 53.65625 73.09375 36.375 
Q 73.09375 19.140625 63.90625 8.859375 
Q 54.734375 -1.421875 39.40625 -1.421875 
Q 24.03125 -1.421875 14.8125 8.828125 
Q 5.609375 19.09375 5.609375 36.375 
Q 5.609375 53.65625 14.8125 63.9375 
Q 24.03125 74.21875 39.40625 74.21875 
z
" id="DejaVuSans-79"/>
      <path d="M 9.8125 72.90625 
L 55.90625 72.90625 
L 55.90625 64.59375 
L 19.671875 64.59375 
L 19.671875 43.015625 
L 54.390625 43.015625 
L 54.390625 34.71875 
L 19.671875 34.71875 
L 19.671875 8.296875 
L 56.78125 8.296875 
L 56.78125 0 
L 9.8125 0 
z
" id="DejaVuSans-69"/>
      <path d="M 64.40625 67.28125 
L 64.40625 56.890625 
Q 59.421875 61.53125 53.78125 63.8125 
Q 48.140625 66.109375 41.796875 66.109375 
Q 29.296875 66.109375 22.65625 58.46875 
Q 16.015625 50.828125 16.015625 36.375 
Q 16.015625 21.96875 22.65625 14.328125 
Q 29.296875 6.6875 41.796875 6.6875 
Q 48.140625 6.6875 53.78125 8.984375 
Q 59.421875 11.28125 64.40625 15.921875 
L 64.40625 5.609375 
Q 59.234375 2.09375 53.4375 0.328125 
Q 47.65625 -1.421875 41.21875 -1.421875 
Q 24.65625 -1.421875 15.125 8.703125 
Q 5.609375 18.84375 5.609375 36.375 
Q 5.609375 53.953125 15.125 64.078125 
Q 24.65625 74.21875 41.21875 74.21875 
Q 47.75 74.21875 53.53125 72.484375 
Q 59.328125 70.75 64.40625 67.28125 
z
" id="DejaVuSans-67"/>
      <path d="M 8.5 21.578125 
L 8.5 54.6875 
L 17.484375 54.6875 
L 17.484375 21.921875 
Q 17.484375 14.15625 20.5 10.265625 
Q 23.53125 6.390625 29.59375 6.390625 
Q 36.859375 6.390625 41.078125 11.03125 
Q 45.3125 15.671875 45.3125 23.6875 
L 45.3125 54.6875 
L 54.296875 54.6875 
L 54.296875 0 
L 45.3125 0 
L 45.3125 8.40625 
Q 42.046875 3.421875 37.71875 1 
Q 33.40625 -1.421875 27.6875 -1.421875 
Q 18.265625 -1.421875 13.375 4.4375 
Q 8.5 10.296875 8.5 21.578125 
z
M 31.109375 56 
z
" id="DejaVuSans-117"/>
     </defs>
     <g transform="translate(338.5125 478.242187)scale(0.1 -0.1)">
      <use xlink:href="#DejaVuSans-76"/>
      <use x="55.666016" xlink:href="#DejaVuSans-79"/>
      <use x="134.376953" xlink:href="#DejaVuSans-69"/>
      <use x="197.560547" xlink:href="#DejaVuSans-83"/>
      <use x="261.037109" xlink:href="#DejaVuSans-83"/>
      <use x="324.513672" xlink:href="#DejaVuSans-32"/>
      <use x="356.300781" xlink:href="#DejaVuSans-67"/>
      <use x="426.125" xlink:href="#DejaVuSans-117"/>
      <use x="489.503906" xlink:href="#DejaVuSans-114"/>
      <use x="530.617188" xlink:href="#DejaVuSans-118"/>
      <use x="589.796875" xlink:href="#DejaVuSans-101"/>
     </g>
    </g>
    <g id="PathCollection_2">
     <g>
      <use style="fill:#6b8e23;fill-opacity:0.4;stroke:#6b8e23;stroke-opacity:0.4;" x="320.5125" xlink:href="#me186cf0347" y="490.295312"/>
     </g>
    </g>
    <g id="text_21">
     <!-- Sr Conodont Data -->
     <defs>
      <path d="M 54.890625 33.015625 
L 54.890625 0 
L 45.90625 0 
L 45.90625 32.71875 
Q 45.90625 40.484375 42.875 44.328125 
Q 39.84375 48.1875 33.796875 48.1875 
Q 26.515625 48.1875 22.3125 43.546875 
Q 18.109375 38.921875 18.109375 30.90625 
L 18.109375 0 
L 9.078125 0 
L 9.078125 54.6875 
L 18.109375 54.6875 
L 18.109375 46.1875 
Q 21.34375 51.125 25.703125 53.5625 
Q 30.078125 56 35.796875 56 
Q 45.21875 56 50.046875 50.171875 
Q 54.890625 44.34375 54.890625 33.015625 
z
" id="DejaVuSans-110"/>
      <path d="M 19.671875 64.796875 
L 19.671875 8.109375 
L 31.59375 8.109375 
Q 46.6875 8.109375 53.6875 14.9375 
Q 60.6875 21.78125 60.6875 36.53125 
Q 60.6875 51.171875 53.6875 57.984375 
Q 46.6875 64.796875 31.59375 64.796875 
z
M 9.8125 72.90625 
L 30.078125 72.90625 
Q 51.265625 72.90625 61.171875 64.09375 
Q 71.09375 55.28125 71.09375 36.53125 
Q 71.09375 17.671875 61.125 8.828125 
Q 51.171875 0 30.078125 0 
L 9.8125 0 
z
" id="DejaVuSans-68"/>
     </defs>
     <g transform="translate(338.5125 492.920312)scale(0.1 -0.1)">
      <use xlink:href="#DejaVuSans-83"/>
      <use x="63.476562" xlink:href="#DejaVuSans-114"/>
      <use x="104.589844" xlink:href="#DejaVuSans-32"/>
      <use x="136.376953" xlink:href="#DejaVuSans-67"/>
      <use x="206.201172" xlink:href="#DejaVuSans-111"/>
      <use x="267.382812" xlink:href="#DejaVuSans-110"/>
      <use x="330.761719" xlink:href="#DejaVuSans-111"/>
      <use x="391.943359" xlink:href="#DejaVuSans-100"/>
      <use x="455.419922" xlink:href="#DejaVuSans-111"/>
      <use x="516.601562" xlink:href="#DejaVuSans-110"/>
      <use x="579.980469" xlink:href="#DejaVuSans-116"/>
      <use x="619.189453" xlink:href="#DejaVuSans-32"/>
      <use x="650.976562" xlink:href="#DejaVuSans-68"/>
      <use x="727.978516" xlink:href="#DejaVuSans-97"/>
      <use x="789.257812" xlink:href="#DejaVuSans-116"/>
      <use x="828.466797" xlink:href="#DejaVuSans-97"/>
     </g>
    </g>
   </g>
  </g>
  <g id="axes_3">
   <g id="matplotlib.axis_5">
    <g id="ytick_11">
     <g id="line2d_28">
      <defs>
       <path d="M 0 0 
L 3.5 0 
" id="m38e978eda8" style="stroke:#000000;stroke-width:0.8;"/>
      </defs>
      <g>
       <use style="stroke:#000000;stroke-width:0.8;" x="648" xlink:href="#m38e978eda8" y="490.394258"/>
      </g>
     </g>
     <g id="text_22">
      <!-- 0.9 -->
      <g transform="translate(655 494.193477)scale(0.1 -0.1)">
       <use xlink:href="#DejaVuSans-48"/>
       <use x="63.623047" xlink:href="#DejaVuSans-46"/>
       <use x="95.410156" xlink:href="#DejaVuSans-57"/>
      </g>
     </g>
    </g>
    <g id="ytick_12">
     <g id="line2d_29">
      <g>
       <use style="stroke:#000000;stroke-width:0.8;" x="648" xlink:href="#m38e978eda8" y="460.563958"/>
      </g>
     </g>
     <g id="text_23">
      <!-- 1.0 -->
      <g transform="translate(655 464.363177)scale(0.1 -0.1)">
       <use xlink:href="#DejaVuSans-49"/>
       <use x="63.623047" xlink:href="#DejaVuSans-46"/>
       <use x="95.410156" xlink:href="#DejaVuSans-48"/>
      </g>
     </g>
    </g>
    <g id="ytick_13">
     <g id="line2d_30">
      <g>
       <use style="stroke:#000000;stroke-width:0.8;" x="648" xlink:href="#m38e978eda8" y="430.733659"/>
      </g>
     </g>
     <g id="text_24">
      <!-- 1.1 -->
      <g transform="translate(655 434.532877)scale(0.1 -0.1)">
       <use xlink:href="#DejaVuSans-49"/>
       <use x="63.623047" xlink:href="#DejaVuSans-46"/>
       <use x="95.410156" xlink:href="#DejaVuSans-49"/>
      </g>
     </g>
    </g>
    <g id="ytick_14">
     <g id="line2d_31">
      <g>
       <use style="stroke:#000000;stroke-width:0.8;" x="648" xlink:href="#m38e978eda8" y="400.903359"/>
      </g>
     </g>
     <g id="text_25">
      <!-- 1.2 -->
      <g transform="translate(655 404.702578)scale(0.1 -0.1)">
       <use xlink:href="#DejaVuSans-49"/>
       <use x="63.623047" xlink:href="#DejaVuSans-46"/>
       <use x="95.410156" xlink:href="#DejaVuSans-50"/>
      </g>
     </g>
    </g>
    <g id="ytick_15">
     <g id="line2d_32">
      <g>
       <use style="stroke:#000000;stroke-width:0.8;" x="648" xlink:href="#m38e978eda8" y="371.073059"/>
      </g>
     </g>
     <g id="text_26">
      <!-- 1.3 -->
      <defs>
       <path d="M 40.578125 39.3125 
Q 47.65625 37.796875 51.625 33 
Q 55.609375 28.21875 55.609375 21.1875 
Q 55.609375 10.40625 48.1875 4.484375 
Q 40.765625 -1.421875 27.09375 -1.421875 
Q 22.515625 -1.421875 17.65625 -0.515625 
Q 12.796875 0.390625 7.625 2.203125 
L 7.625 11.71875 
Q 11.71875 9.328125 16.59375 8.109375 
Q 21.484375 6.890625 26.8125 6.890625 
Q 36.078125 6.890625 40.9375 10.546875 
Q 45.796875 14.203125 45.796875 21.1875 
Q 45.796875 27.640625 41.28125 31.265625 
Q 36.765625 34.90625 28.71875 34.90625 
L 20.21875 34.90625 
L 20.21875 43.015625 
L 29.109375 43.015625 
Q 36.375 43.015625 40.234375 45.921875 
Q 44.09375 48.828125 44.09375 54.296875 
Q 44.09375 59.90625 40.109375 62.90625 
Q 36.140625 65.921875 28.71875 65.921875 
Q 24.65625 65.921875 20.015625 65.03125 
Q 15.375 64.15625 9.8125 62.3125 
L 9.8125 71.09375 
Q 15.4375 72.65625 20.34375 73.4375 
Q 25.25 74.21875 29.59375 74.21875 
Q 40.828125 74.21875 47.359375 69.109375 
Q 53.90625 64.015625 53.90625 55.328125 
Q 53.90625 49.265625 50.4375 45.09375 
Q 46.96875 40.921875 40.578125 39.3125 
z
" id="DejaVuSans-51"/>
      </defs>
      <g transform="translate(655 374.872278)scale(0.1 -0.1)">
       <use xlink:href="#DejaVuSans-49"/>
       <use x="63.623047" xlink:href="#DejaVuSans-46"/>
       <use x="95.410156" xlink:href="#DejaVuSans-51"/>
      </g>
     </g>
    </g>
    <g id="ytick_16">
     <g id="line2d_33">
      <g>
       <use style="stroke:#000000;stroke-width:0.8;" x="648" xlink:href="#m38e978eda8" y="341.242759"/>
      </g>
     </g>
     <g id="text_27">
      <!-- 1.4 -->
      <g transform="translate(655 345.041978)scale(0.1 -0.1)">
       <use xlink:href="#DejaVuSans-49"/>
       <use x="63.623047" xlink:href="#DejaVuSans-46"/>
       <use x="95.410156" xlink:href="#DejaVuSans-52"/>
      </g>
     </g>
    </g>
    <g id="ytick_17">
     <g id="line2d_34">
      <g>
       <use style="stroke:#000000;stroke-width:0.8;" x="648" xlink:href="#m38e978eda8" y="311.41246"/>
      </g>
     </g>
     <g id="text_28">
      <!-- 1.5 -->
      <g transform="translate(655 315.211678)scale(0.1 -0.1)">
       <use xlink:href="#DejaVuSans-49"/>
       <use x="63.623047" xlink:href="#DejaVuSans-46"/>
       <use x="95.410156" xlink:href="#DejaVuSans-53"/>
      </g>
     </g>
    </g>
    <g id="text_29">
     <!-- Hydrothermal Sr Flux (mol/yr) -->
     <defs>
      <path d="M 9.8125 72.90625 
L 19.671875 72.90625 
L 19.671875 43.015625 
L 55.515625 43.015625 
L 55.515625 72.90625 
L 65.375 72.90625 
L 65.375 0 
L 55.515625 0 
L 55.515625 34.71875 
L 19.671875 34.71875 
L 19.671875 0 
L 9.8125 0 
z
" id="DejaVuSans-72"/>
      <path d="M 32.171875 -5.078125 
Q 28.375 -14.84375 24.75 -17.8125 
Q 21.140625 -20.796875 15.09375 -20.796875 
L 7.90625 -20.796875 
L 7.90625 -13.28125 
L 13.1875 -13.28125 
Q 16.890625 -13.28125 18.9375 -11.515625 
Q 21 -9.765625 23.484375 -3.21875 
L 25.09375 0.875 
L 2.984375 54.6875 
L 12.5 54.6875 
L 29.59375 11.921875 
L 46.6875 54.6875 
L 56.203125 54.6875 
z
" id="DejaVuSans-121"/>
      <path d="M 54.890625 33.015625 
L 54.890625 0 
L 45.90625 0 
L 45.90625 32.71875 
Q 45.90625 40.484375 42.875 44.328125 
Q 39.84375 48.1875 33.796875 48.1875 
Q 26.515625 48.1875 22.3125 43.546875 
Q 18.109375 38.921875 18.109375 30.90625 
L 18.109375 0 
L 9.078125 0 
L 9.078125 75.984375 
L 18.109375 75.984375 
L 18.109375 46.1875 
Q 21.34375 51.125 25.703125 53.5625 
Q 30.078125 56 35.796875 56 
Q 45.21875 56 50.046875 50.171875 
Q 54.890625 44.34375 54.890625 33.015625 
z
" id="DejaVuSans-104"/>
      <path d="M 9.8125 72.90625 
L 51.703125 72.90625 
L 51.703125 64.59375 
L 19.671875 64.59375 
L 19.671875 43.109375 
L 48.578125 43.109375 
L 48.578125 34.8125 
L 19.671875 34.8125 
L 19.671875 0 
L 9.8125 0 
z
" id="DejaVuSans-70"/>
      <path d="M 54.890625 54.6875 
L 35.109375 28.078125 
L 55.90625 0 
L 45.3125 0 
L 29.390625 21.484375 
L 13.484375 0 
L 2.875 0 
L 24.125 28.609375 
L 4.6875 54.6875 
L 15.28125 54.6875 
L 29.78125 35.203125 
L 44.28125 54.6875 
z
" id="DejaVuSans-120"/>
     </defs>
     <g transform="translate(682.501563 480.063636)rotate(-90)scale(0.1 -0.1)">
      <use xlink:href="#DejaVuSans-72"/>
      <use x="75.195312" xlink:href="#DejaVuSans-121"/>
      <use x="134.375" xlink:href="#DejaVuSans-100"/>
      <use x="197.851562" xlink:href="#DejaVuSans-114"/>
      <use x="238.933594" xlink:href="#DejaVuSans-111"/>
      <use x="300.115234" xlink:href="#DejaVuSans-116"/>
      <use x="339.324219" xlink:href="#DejaVuSans-104"/>
      <use x="402.703125" xlink:href="#DejaVuSans-101"/>
      <use x="464.226562" xlink:href="#DejaVuSans-114"/>
      <use x="505.324219" xlink:href="#DejaVuSans-109"/>
      <use x="602.736328" xlink:href="#DejaVuSans-97"/>
      <use x="664.015625" xlink:href="#DejaVuSans-108"/>
      <use x="691.798828" xlink:href="#DejaVuSans-32"/>
      <use x="723.585938" xlink:href="#DejaVuSans-83"/>
      <use x="787.0625" xlink:href="#DejaVuSans-114"/>
      <use x="828.175781" xlink:href="#DejaVuSans-32"/>
      <use x="859.962891" xlink:href="#DejaVuSans-70"/>
      <use x="917.482422" xlink:href="#DejaVuSans-108"/>
      <use x="945.265625" xlink:href="#DejaVuSans-117"/>
      <use x="1008.644531" xlink:href="#DejaVuSans-120"/>
      <use x="1067.824219" xlink:href="#DejaVuSans-32"/>
      <use x="1099.611328" xlink:href="#DejaVuSans-40"/>
      <use x="1138.625" xlink:href="#DejaVuSans-109"/>
      <use x="1236.037109" xlink:href="#DejaVuSans-111"/>
      <use x="1297.21875" xlink:href="#DejaVuSans-108"/>
      <use x="1325.001953" xlink:href="#DejaVuSans-47"/>
      <use x="1358.693359" xlink:href="#DejaVuSans-121"/>
      <use x="1417.873047" xlink:href="#DejaVuSans-114"/>
      <use x="1458.986328" xlink:href="#DejaVuSans-41"/>
     </g>
    </g>
    <g id="text_30">
     <!-- 1e10 -->
     <g transform="translate(622.759375 303.327273)scale(0.1 -0.1)">
      <use xlink:href="#DejaVuSans-49"/>
      <use x="63.623047" xlink:href="#DejaVuSans-101"/>
      <use x="125.146484" xlink:href="#DejaVuSans-49"/>
      <use x="188.769531" xlink:href="#DejaVuSans-48"/>
     </g>
    </g>
   </g>
   <g id="line2d_35">
    <path clip-path="url(#p8283ced97e)" d="M 115.363636 453.726548 
L 123.231515 447.429554 
L 127.908616 444.058647 
L 136.476538 438.928783 
L 140.301413 436.839258 
L 153.60731 430.156533 
L 159.324331 427.303523 
L 165.137734 424.454096 
L 170.849682 421.60363 
L 176.663086 418.504768 
L 182.481562 415.456013 
L 199.723935 406.509856 
L 203.685774 404.474356 
L 211.203631 401.007628 
L 214.546592 399.646835 
L 220.841909 397.616853 
L 226.574148 396.167748 
L 233.975332 394.766455 
L 238.069063 394.180992 
L 251.217704 392.947173 
L 256.975307 392.665764 
L 274.263334 392.187277 
L 280.02601 392.298379 
L 284.160324 392.550394 
L 289.933146 393.252656 
L 295.71104 394.350492 
L 307.261755 397.222227 
L 313.054868 398.88459 
L 329.764599 402.759898 
L 336.054843 403.506092 
L 343.440808 403.898628 
L 354.96616 404.180553 
L 364.320362 404.069552 
L 370.635971 403.311726 
L 375.313072 402.401836 
L 381.684481 399.89316 
L 388.096473 396.70841 
L 392.585881 394.132386 
L 397.998535 389.748074 
L 404.593147 379.19556 
L 418.431685 354.877907 
L 421.683336 349.551785 
L 428.536659 339.927911 
L 433.081868 334.065491 
L 438.849617 328.128485 
L 444.637656 323.533697 
L 450.653971 319.969889 
L 456.066625 317.508045 
L 461.793792 316.060423 
L 473.572782 315.367763 
L 480.157248 315.928279 
L 485.930069 316.827792 
L 496.648849 319.134661 
L 505.024006 321.873836 
L 509.046719 323.224615 
L 520.612652 327.682407 
L 528.201528 331.168748 
L 531.306069 332.774117 
L 537.439057 336.669279 
L 545.93596 342.89174 
L 548.279584 344.789082 
L 554.985796 351.578139 
L 559.825226 357.023235 
L 565.603121 365.093678 
L 571.284632 374.805269 
L 577.199491 387.366138 
L 583.362916 402.795969 
L 597.515967 441.736793 
L 606.078816 465.067132 
L 611.653799 477.717699 
L 617.386038 487.851869 
L 622.636364 495.014876 
L 622.636364 495.014876 
" style="fill:none;stroke:#ff7f50;stroke-dasharray:5.55,2.4;stroke-dashoffset:0;stroke-width:1.5;"/>
   </g>
   <g id="line2d_36">
    <path clip-path="url(#p8283ced97e)" d="M 90 311.41246 
L 648 311.41246 
" style="fill:none;stroke:#808080;stroke-dasharray:5.55,2.4;stroke-dashoffset:0;stroke-opacity:0.4;stroke-width:1.5;"/>
   </g>
   <g id="patch_14">
    <path d="M 90 504 
L 90 306.327273 
" style="fill:none;stroke:#000000;stroke-linecap:square;stroke-linejoin:miter;stroke-width:0.8;"/>
   </g>
   <g id="patch_15">
    <path d="M 648 504 
L 648 306.327273 
" style="fill:none;stroke:#000000;stroke-linecap:square;stroke-linejoin:miter;stroke-width:0.8;"/>
   </g>
   <g id="patch_16">
    <path d="M 90 504 
L 648 504 
" style="fill:none;stroke:#000000;stroke-linecap:square;stroke-linejoin:miter;stroke-width:0.8;"/>
   </g>
   <g id="patch_17">
    <path d="M 90 306.327273 
L 648 306.327273 
" style="fill:none;stroke:#000000;stroke-linecap:square;stroke-linejoin:miter;stroke-width:0.8;"/>
   </g>
   <g id="legend_3">
    <g id="patch_18">
     <path d="M 97 499 
L 213.798438 499 
Q 215.798438 499 215.798438 497 
L 215.798438 468.64375 
Q 215.798438 466.64375 213.798438 466.64375 
L 97 466.64375 
Q 95 466.64375 95 468.64375 
L 95 497 
Q 95 499 97 499 
z
" style="fill:#ffffff;opacity:0.8;"/>
    </g>
    <g id="line2d_37">
     <path d="M 99 474.742187 
L 119 474.742187 
" style="fill:none;stroke:#ff7f50;stroke-dasharray:5.55,2.4;stroke-dashoffset:0;stroke-width:1.5;"/>
    </g>
    <g id="line2d_38"/>
    <g id="text_31">
     <!-- Model Flux -->
     <g transform="translate(127 478.242187)scale(0.1 -0.1)">
      <use xlink:href="#DejaVuSans-77"/>
      <use x="86.279297" xlink:href="#DejaVuSans-111"/>
      <use x="147.460938" xlink:href="#DejaVuSans-100"/>
      <use x="210.9375" xlink:href="#DejaVuSans-101"/>
      <use x="272.460938" xlink:href="#DejaVuSans-108"/>
      <use x="300.244141" xlink:href="#DejaVuSans-32"/>
      <use x="332.03125" xlink:href="#DejaVuSans-70"/>
      <use x="389.550781" xlink:href="#DejaVuSans-108"/>
      <use x="417.333984" xlink:href="#DejaVuSans-117"/>
      <use x="480.712891" xlink:href="#DejaVuSans-120"/>
     </g>
    </g>
    <g id="line2d_39">
     <path d="M 99 489.420312 
L 119 489.420312 
" style="fill:none;stroke:#808080;stroke-dasharray:5.55,2.4;stroke-dashoffset:0;stroke-opacity:0.4;stroke-width:1.5;"/>
    </g>
    <g id="line2d_40"/>
    <g id="text_32">
     <!-- Present Day Flux -->
     <defs>
      <path d="M 19.671875 64.796875 
L 19.671875 37.40625 
L 32.078125 37.40625 
Q 38.96875 37.40625 42.71875 40.96875 
Q 46.484375 44.53125 46.484375 51.125 
Q 46.484375 57.671875 42.71875 61.234375 
Q 38.96875 64.796875 32.078125 64.796875 
z
M 9.8125 72.90625 
L 32.078125 72.90625 
Q 44.34375 72.90625 50.609375 67.359375 
Q 56.890625 61.8125 56.890625 51.125 
Q 56.890625 40.328125 50.609375 34.8125 
Q 44.34375 29.296875 32.078125 29.296875 
L 19.671875 29.296875 
L 19.671875 0 
L 9.8125 0 
z
" id="DejaVuSans-80"/>
      <path d="M 44.28125 53.078125 
L 44.28125 44.578125 
Q 40.484375 46.53125 36.375 47.5 
Q 32.28125 48.484375 27.875 48.484375 
Q 21.1875 48.484375 17.84375 46.4375 
Q 14.5 44.390625 14.5 40.28125 
Q 14.5 37.15625 16.890625 35.375 
Q 19.28125 33.59375 26.515625 31.984375 
L 29.59375 31.296875 
Q 39.15625 29.25 43.1875 25.515625 
Q 47.21875 21.78125 47.21875 15.09375 
Q 47.21875 7.46875 41.1875 3.015625 
Q 35.15625 -1.421875 24.609375 -1.421875 
Q 20.21875 -1.421875 15.453125 -0.5625 
Q 10.6875 0.296875 5.421875 2 
L 5.421875 11.28125 
Q 10.40625 8.6875 15.234375 7.390625 
Q 20.0625 6.109375 24.8125 6.109375 
Q 31.15625 6.109375 34.5625 8.28125 
Q 37.984375 10.453125 37.984375 14.40625 
Q 37.984375 18.0625 35.515625 20.015625 
Q 33.0625 21.96875 24.703125 23.78125 
L 21.578125 24.515625 
Q 13.234375 26.265625 9.515625 29.90625 
Q 5.8125 33.546875 5.8125 39.890625 
Q 5.8125 47.609375 11.28125 51.796875 
Q 16.75 56 26.8125 56 
Q 31.78125 56 36.171875 55.265625 
Q 40.578125 54.546875 44.28125 53.078125 
z
" id="DejaVuSans-115"/>
     </defs>
     <g transform="translate(127 492.920312)scale(0.1 -0.1)">
      <use xlink:href="#DejaVuSans-80"/>
      <use x="60.287109" xlink:href="#DejaVuSans-114"/>
      <use x="101.369141" xlink:href="#DejaVuSans-101"/>
      <use x="162.892578" xlink:href="#DejaVuSans-115"/>
      <use x="214.992188" xlink:href="#DejaVuSans-101"/>
      <use x="276.515625" xlink:href="#DejaVuSans-110"/>
      <use x="339.894531" xlink:href="#DejaVuSans-116"/>
      <use x="379.103516" xlink:href="#DejaVuSans-32"/>
      <use x="410.890625" xlink:href="#DejaVuSans-68"/>
      <use x="487.892578" xlink:href="#DejaVuSans-97"/>
      <use x="549.171875" xlink:href="#DejaVuSans-121"/>
      <use x="608.351562" xlink:href="#DejaVuSans-32"/>
      <use x="640.138672" xlink:href="#DejaVuSans-70"/>
      <use x="697.658203" xlink:href="#DejaVuSans-108"/>
      <use x="725.441406" xlink:href="#DejaVuSans-117"/>
      <use x="788.820312" xlink:href="#DejaVuSans-120"/>
     </g>
    </g>
   </g>
  </g>
 </g>
 <defs>
  <clipPath id="pcf1af91f02">
   <rect height="197.672727" width="558" x="90" y="69.12"/>
  </clipPath>
  <clipPath id="p8283ced97e">
   <rect height="197.672727" width="558" x="90" y="306.327273"/>
  </clipPath>
 </defs>
</svg>
